<svg width="60" height="60" viewBox="0 0 60 60" fill="none" xmlns="http://www.w3.org/2000/svg">
<circle cx="30" cy="30" r="30" fill="#EFEFEF"/>
<path fill-rule="evenodd" clip-rule="evenodd" d="M25.5458 11.7679C24.1904 10.4463 22.4633 9.54622 20.5832 9.18159C18.7031 8.81695 16.7543 9.00409 14.9832 9.71935C13.2122 10.4346 11.6984 11.6458 10.6334 13.1999C9.56842 14.754 8.99998 16.581 9 18.4501V25.8001C9 26.357 9.22692 26.8911 9.63084 27.285C10.0348 27.6788 10.5826 27.9 11.1538 27.9C11.7251 27.9 12.2729 27.6788 12.6768 27.285C13.0808 26.8911 13.3077 26.357 13.3077 25.8001V18.4501C13.3077 17.0577 13.875 15.7223 14.8848 14.7378C15.8946 13.7532 17.2642 13.2001 18.6923 13.2001C20.1204 13.2001 21.49 13.7532 22.4998 14.7378C23.5096 15.7223 24.0769 17.0577 24.0769 18.4501V23.7001H20.8462C19.7037 23.7001 18.608 24.1426 17.8002 24.9302C16.9923 25.7179 16.5385 26.7861 16.5385 27.9V46.8C16.5385 47.9139 16.9923 48.9822 17.8002 49.7699C18.608 50.5575 19.7037 51 20.8462 51H46.6923C47.8348 51 48.9305 50.5575 49.7383 49.7699C50.5462 48.9822 51 47.9139 51 46.8V27.9C51 26.7861 50.5462 25.7179 49.7383 24.9302C48.9305 24.1426 47.8348 23.7001 46.6923 23.7001H28.3846V18.4501C28.3846 17.2091 28.1339 15.9802 27.6469 14.8337C27.1598 13.6872 26.4459 12.6454 25.5458 11.7679ZM46.6923 27.9V46.8H20.8462V27.9H46.6923ZM33.7692 32.4507C33.198 32.4507 32.6502 32.672 32.2462 33.0658C31.8423 33.4596 31.6154 33.9938 31.6154 34.5507V40.8507C31.6154 41.4077 31.8423 41.9418 32.2462 42.3356C32.6502 42.7295 33.198 42.9507 33.7692 42.9507C34.3405 42.9507 34.8883 42.7295 35.2922 42.3356C35.6962 41.9418 35.9231 41.4077 35.9231 40.8507V34.5507C35.9231 33.9938 35.6962 33.4596 35.2922 33.0658C34.8883 32.672 34.3405 32.4507 33.7692 32.4507Z" fill="#236FE3"/>
</svg>
