<svg width="60" height="60" viewBox="0 0 60 60" fill="none" xmlns="http://www.w3.org/2000/svg">
<circle cx="30" cy="30" r="30" fill="#EFEFEF"/>
<g clip-path="url(#clip0_175_2149)">
<path d="M49.2836 40.5216H37.2923L42.1884 24.8925L45.5229 35.5759C45.7469 36.2935 46.4087 36.7533 47.1228 36.7533C47.2883 36.7533 47.4566 36.7287 47.6229 36.6767C48.5067 36.4009 48.9996 35.4606 48.7238 34.5768L43.7787 18.7333C43.6919 18.455 43.5339 18.2041 43.3204 18.0055C43.1069 17.8068 42.8453 17.6673 42.5615 17.6006L34.5026 15.709C34.1352 13.9926 32.8895 12.5981 31.2606 12.0205V9.6765C31.2606 8.75057 30.51 8 29.5841 8C28.6581 8 27.9075 8.75057 27.9075 9.67659V12.0208C27.0121 12.3382 26.2325 12.9025 25.651 13.6314L17.2054 11.649C16.3485 11.4481 15.4825 11.9432 15.2213 12.7833L8.1945 35.379C8.09253 35.5994 8.03988 35.8394 8.04022 36.0823V36.0912C8.03947 36.1244 8.03964 36.1576 8.0409 36.1906C8.0991 40.9943 12.0249 44.8842 16.8422 44.8842C21.6955 44.8842 25.6441 40.9357 25.6441 36.0823C25.6444 35.8548 25.5982 35.6297 25.5085 35.4207L19.294 15.5835L24.5546 16.8183C24.5843 19.5664 26.829 21.7927 29.584 21.7927C31.5344 21.7927 33.2289 20.6769 34.0629 19.0501L40.0635 20.4586L33.473 41.4962C33.4451 41.5851 33.4246 41.6761 33.4118 41.7684C33.3747 41.9086 33.356 42.053 33.3562 42.1981C33.3562 47.0515 37.3047 51 42.1581 51C47.0115 51 50.96 47.0515 50.96 42.1981C50.9602 41.2723 50.2095 40.5216 49.2836 40.5216ZM16.8422 41.5311C14.4224 41.5311 12.366 39.9457 11.6573 37.7589H22.0271C21.3185 39.9457 19.2622 41.5311 16.8422 41.5311ZM21.6767 34.4058H12.0087L16.8249 18.9183L21.6767 34.4058ZM29.5841 18.4396C28.6596 18.4396 27.9075 17.6876 27.9075 16.763C27.9075 15.8386 28.6596 15.0865 29.5841 15.0865C30.5085 15.0865 31.2607 15.8385 31.2607 16.763C31.2606 17.6876 30.5085 18.4396 29.5841 18.4396ZM42.1583 47.6471C39.7384 47.6471 37.682 46.0616 36.9733 43.8748H47.3432C46.6346 46.0616 44.5782 47.6471 42.1583 47.6471Z" fill="#236FE3"/>
</g>
<defs>
<clipPath id="clip0_175_2149">
<rect width="43" height="43" fill="white" transform="translate(8 8)"/>
</clipPath>
</defs>
</svg>
