<svg width="60" height="60" viewBox="0 0 60 60" fill="none" xmlns="http://www.w3.org/2000/svg">
<circle cx="30" cy="30" r="30" fill="#EFEFEF"/>
<path d="M35.1541 47.7803C35.4824 48.6249 35.0641 49.5757 34.2196 49.9041C32.3232 50.6415 30.4115 51 28.375 51C25.8822 51 23.4439 50.4131 21.1278 49.2554C18.9655 48.1747 17.0084 46.6495 15.3108 44.722C11.9357 40.8898 10 35.8826 10 30.9844V18.1055C10 17.789 10.0915 17.4793 10.2636 17.2137C10.4356 16.948 10.6808 16.7378 10.9695 16.6084L27.6219 9.14354C27.832 9.04933 28.0597 9.00043 28.29 9C28.5203 8.99958 28.7481 9.04765 28.9586 9.14108L45.775 16.6059C46.0652 16.7347 46.3118 16.945 46.4848 17.2111C46.6579 17.4773 46.75 17.788 46.75 18.1055V30.9844C46.75 31.8339 46.6354 32.6381 46.5245 33.4158L46.4879 33.6736C46.3618 34.5708 45.5321 35.1965 44.635 35.07C43.7377 34.9439 43.1125 34.1144 43.2386 33.2171L43.2761 32.9528C43.3752 32.2577 43.4688 31.6012 43.4688 30.9844V19.1722L28.2962 12.437L13.2812 19.1679V30.9844C13.2812 39.7426 20.4755 47.7187 28.375 47.7187C29.9972 47.7187 31.5201 47.4333 33.0304 46.8458C33.8747 46.5174 34.8257 46.9358 35.1541 47.7803ZM49.375 46.2001C49.375 47.4822 48.8758 48.6875 47.9691 49.5941C47.0626 50.5007 45.8573 51 44.5751 51C43.2951 51 42.0917 50.5024 41.1857 49.5986L32.8066 41.3478C31.6741 41.8418 30.4031 42.098 29.4959 42.0996H29.4822C26.8893 42.0997 24.5687 40.8879 22.9458 38.6863C21.6045 36.8665 20.8375 34.4211 20.8414 31.9771C20.843 31.0367 21.0154 30.0743 21.3685 29.0346C21.4582 28.7705 21.6139 28.5335 21.8207 28.3462C22.0275 28.159 22.2786 28.0275 22.5504 27.9643C22.8222 27.9011 23.1055 27.9083 23.3738 27.9851C23.642 28.062 23.8862 28.2059 24.0833 28.4034L28.0963 32.4251L30.1894 31.9504L30.6836 29.8214L26.7313 25.7857C26.537 25.5874 26.3963 25.3429 26.3222 25.0754C26.2482 24.8078 26.2432 24.5258 26.3079 24.2558C26.3725 23.9858 26.5047 23.7366 26.6918 23.5316C26.879 23.3266 27.1152 23.1724 27.3782 23.0835C28.3707 22.7482 29.2764 22.5913 30.2288 22.5896H30.2475C33.1914 22.5896 36.0817 23.7234 37.9831 25.6248C39.536 27.1778 40.355 29.1208 40.3516 31.244C40.3499 32.2371 40.0364 33.4711 39.5473 34.5389L47.9583 42.7954L47.9691 42.806C48.8758 43.7127 49.375 44.918 49.375 46.2001ZM46.0938 46.2001C46.0938 45.7966 45.9374 45.4171 45.6534 45.1308L36.3518 36C35.7726 35.4314 35.6961 34.5249 36.172 33.8673C36.6848 33.1587 37.0692 31.895 37.0703 31.2384C37.0724 29.9889 36.5988 28.8808 35.6629 27.9449C34.6252 26.9072 33.1253 26.2039 31.4977 25.9629L33.6574 28.1681C33.8503 28.3652 33.9905 28.6076 34.0649 28.8731C34.1394 29.1386 34.1457 29.4185 34.0834 29.6871L33.1533 33.6939C33.0836 33.994 32.9308 34.2685 32.7123 34.4859C32.4939 34.7032 32.2186 34.8547 31.9181 34.9228L27.9383 35.8256C27.6676 35.887 27.3858 35.8787 27.1192 35.8015C26.8527 35.7244 26.61 35.5809 26.414 35.3844L24.2018 33.1675C24.3822 34.5007 24.8651 35.7599 25.5872 36.7394C26.2865 37.6882 27.5299 38.8184 29.4821 38.8184H29.4905C30.1956 38.8172 31.4548 38.4768 32.1342 37.9902C32.4126 37.7905 32.7465 37.6832 33.0891 37.6834C33.5201 37.683 33.9338 37.8524 34.2407 38.155L43.4924 47.2651L43.5013 47.274C43.7882 47.5608 44.1695 47.7188 44.5751 47.7188C44.9807 47.7188 45.3621 47.5608 45.6489 47.274C45.7904 47.1333 45.9025 46.966 45.9789 46.7816C46.0552 46.5973 46.0943 46.3996 46.0938 46.2001Z" fill="#236FE3"/>
</svg>
