<svg width="60" height="60" viewBox="0 0 60 60" fill="none" xmlns="http://www.w3.org/2000/svg">
<circle cx="30" cy="30" r="30" fill="#EFEFEF"/>
<path d="M22.834 36.3471C22.834 32.4059 27.9449 31.7754 27.9449 29.6042C27.9449 28.6502 27.2065 28.0798 26.2827 28.0798C25.0053 28.0798 24.312 29.3735 24.312 29.3735L22.8341 28.3882C22.8341 28.3882 23.8344 26.202 26.4519 26.202C28.3762 26.202 30.0083 27.3715 30.0083 29.4349C30.0083 32.945 25.1131 33.5454 25.0667 35.6088H30.1776V37.3174H22.9268C22.8804 36.964 22.834 36.6555 22.834 36.3471ZM31.2908 33.2835L36.0018 26.3862H38.3572V32.8522H39.7738V34.5007H38.3572V37.3175H36.4016V34.5007H31.2908V33.2835ZM36.4016 32.8522V29.4663C36.4016 28.9273 36.4793 28.3269 36.4793 28.3269H36.4479C36.4479 28.3269 36.2022 28.911 35.9089 29.3272L33.3842 32.8222V32.8522H36.4016ZM46.0434 32.2728L45.663 33.6354C43.5008 41.3808 35.6109 46.2683 27.8061 44.3312C20.3097 42.4707 15.6507 35.2067 16.771 27.8062L19.0298 28.4367C19.5534 28.5829 20.0389 28.1075 19.9036 27.5809L17.4472 18.0156C17.312 17.4891 16.6576 17.3064 16.2691 17.6867L9.21252 24.5963C8.82409 24.9766 8.99305 25.6349 9.51675 25.7811L11.9754 26.4674C10.1406 36.4781 16.3164 46.4485 26.3945 49.0728C36.8594 51.798 47.5333 45.3204 50.4411 34.9047L50.8047 33.602C50.9096 33.2264 50.6901 32.8369 50.3145 32.732L46.9135 31.7825C46.5378 31.6776 46.1483 31.8972 46.0434 32.2728ZM50.0622 26.3125L46.4956 26.7759C46.1088 26.8261 45.8361 27.1804 45.8863 27.5672L46.0268 28.6489C46.0771 29.0356 46.4314 29.3084 46.8181 29.2581L50.3847 28.7948C50.7715 28.7445 51.0442 28.3903 50.994 28.0035L50.8534 26.9218C50.8032 26.5351 50.449 26.2623 50.0622 26.3125ZM47.3166 19.573L44.1834 21.3387C43.8436 21.5302 43.7234 21.9608 43.9148 22.3007L44.4503 23.251C44.6418 23.5907 45.0724 23.711 45.4123 23.5195L48.5455 21.7538C48.8852 21.5623 49.0055 21.1317 48.814 20.7919L48.2785 19.8416C48.087 19.5018 47.6563 19.3816 47.3166 19.573ZM42.2463 14.3528L40.0026 17.1637C39.7592 17.4684 39.8092 17.9129 40.114 18.1561L40.9665 18.8366C41.2713 19.0799 41.7157 19.03 41.959 18.7252L44.2027 15.9144C44.446 15.6095 44.396 15.1652 44.0913 14.9219L43.2387 14.2414C42.9339 13.9982 42.4896 14.048 42.2463 14.3528ZM35.5896 11.4121L34.5623 14.8587C34.4508 15.2325 34.6636 15.6259 35.0373 15.7372L36.0827 16.0488C36.4563 16.1603 36.8497 15.9475 36.9612 15.5738L37.9885 12.1272C38.0999 11.7534 37.8872 11.3601 37.5135 11.2487L36.4681 10.9371C36.0944 10.8257 35.701 11.0383 35.5896 11.4121ZM28.3161 11.1791L28.6546 14.7596C28.6914 15.1479 29.0359 15.4329 29.4242 15.3962L30.5101 15.2935C30.8984 15.2568 31.1834 14.9123 31.1467 14.524L30.8081 10.9434C30.7714 10.5551 30.4268 10.2702 30.0386 10.3069L28.9526 10.4096C28.5644 10.4463 28.2794 10.7908 28.3161 11.1791ZM21.4849 13.6878L23.1402 16.8808C23.3196 17.227 23.7459 17.3622 24.0922 17.1827L25.0606 16.6807C25.4068 16.5012 25.542 16.075 25.3625 15.7287L23.7072 12.5358C23.5278 12.1895 23.1015 12.0544 22.7552 12.2339L21.7868 12.7359C21.4406 12.9153 21.3055 13.3415 21.4849 13.6878Z" fill="#236FE3"/>
</svg>
