<svg width="60" height="60" viewBox="0 0 60 60" fill="none" xmlns="http://www.w3.org/2000/svg">
<rect width="60" height="60" rx="30" fill="#EFEFEF"/>
<g clip-path="url(#clip0_177_2263)">
<path d="M46.6036 40.2277C45.8766 39.6869 44.8489 39.8379 44.3081 40.5648C44.0092 40.9664 43.6935 41.3553 43.362 41.7305C42.7619 42.4093 42.8257 43.4461 43.5045 44.0463C43.8039 44.3118 44.1903 44.4582 44.5905 44.4578C45.0443 44.4578 45.4961 44.2705 45.8203 43.9037C46.213 43.4595 46.5867 42.9989 46.9407 42.5232C47.4815 41.7963 47.3307 40.7685 46.6036 40.2277ZM49.3474 32.5336C48.4626 32.3409 47.5881 32.9024 47.3954 33.7877C47.2889 34.2764 47.1618 34.7603 47.0143 35.2381C46.7468 36.1039 47.2317 37.0224 48.0974 37.29C48.2588 37.3397 48.4218 37.3635 48.5823 37.3635C49.2828 37.3635 49.9315 36.9111 50.1493 36.2066C50.3243 35.6396 50.4753 35.0655 50.6016 34.4856C50.7943 33.6004 50.2328 32.7264 49.3474 32.5336ZM38.7067 45.4821C38.2696 45.726 37.8224 45.9513 37.3663 46.1574C36.5405 46.5304 36.1734 47.5021 36.5463 48.3279C36.8203 48.9346 37.4174 49.2937 38.0425 49.2937C38.2683 49.2937 38.4977 49.2468 38.7168 49.1479C39.2577 48.9035 39.788 48.6362 40.3063 48.3469C41.0975 47.9053 41.3808 46.9058 40.939 46.1147C40.4974 45.3237 39.4979 45.0404 38.7067 45.4821ZM28.3594 16.875V29.3205L22.3433 35.3365C21.7026 35.9772 21.7026 37.016 22.3433 37.6566C22.4955 37.8092 22.6763 37.9302 22.8754 38.0127C23.0745 38.0952 23.288 38.1375 23.5035 38.1372C23.719 38.1374 23.9324 38.0951 24.1315 38.0126C24.3306 37.9302 24.5114 37.8092 24.6636 37.6566L31.1602 31.1601C31.4678 30.8524 31.6406 30.4351 31.6406 30V16.875C31.6406 15.9689 30.9061 15.2344 30 15.2344C29.0939 15.2344 28.3594 15.9689 28.3594 16.875Z" fill="#236FE3"/>
<path d="M49.3594 12.5273C48.4533 12.5273 47.7188 13.2619 47.7188 14.168V18.7237C43.9 12.7347 37.2311 9 30 9C24.3907 9 19.1172 11.1844 15.1507 15.1507C11.1844 19.1172 9 24.3907 9 30C9 35.6093 11.1844 40.8828 15.1507 44.8493C19.1172 48.8156 24.3907 51 30 51C30.0139 51 30.0272 50.9983 30.041 50.998C30.0548 50.9983 30.0682 51 30.082 51C30.6733 51 31.2704 50.9751 31.8569 50.926C32.7599 50.8504 33.4305 50.0571 33.355 49.1542C33.2793 48.2513 32.4871 47.5803 31.5831 47.6562C31.0873 47.6977 30.5823 47.7188 30.082 47.7188C30.0682 47.7188 30.0548 47.7205 30.041 47.7208C30.0272 47.7205 30.0139 47.7188 30 47.7188C20.2298 47.7188 12.2812 39.7702 12.2812 30C12.2812 20.2298 20.2298 12.2812 30 12.2812C36.2966 12.2812 42.0879 15.6374 45.2526 20.9766H40.7414C39.8353 20.9766 39.1008 21.7111 39.1008 22.6172C39.1008 23.5233 39.8353 24.2578 40.7414 24.2578H45.75C46.7133 24.2589 47.6581 23.9934 48.4798 23.4906C48.5305 23.4617 48.5797 23.4302 48.6271 23.3961C50.0549 22.4567 51 20.841 51 19.0078V14.168C51 13.2619 50.2655 12.5273 49.3594 12.5273Z" fill="#236FE3"/>
</g>
<defs>
<clipPath id="clip0_177_2263">
<rect width="42" height="42" fill="white" transform="translate(9 9)"/>
</clipPath>
</defs>
</svg>
