<svg width="60" height="60" viewBox="0 0 60 60" fill="none" xmlns="http://www.w3.org/2000/svg">
<circle cx="30" cy="30" r="30" fill="#EFEFEF"/>
<g clip-path="url(#clip0_334_1664)">
<path d="M13.5 20.8333C13.5 21.8058 13.8863 22.7384 14.5739 23.426C15.2616 24.1137 16.1942 24.5 17.1667 24.5C18.1391 24.5 19.0718 24.1137 19.7594 23.426C20.447 22.7384 20.8333 21.8058 20.8333 20.8333C20.8333 19.8609 20.447 18.9282 19.7594 18.2406C19.0718 17.553 18.1391 17.1667 17.1667 17.1667C16.1942 17.1667 15.2616 17.553 14.5739 18.2406C13.8863 18.9282 13.5 19.8609 13.5 20.8333Z" stroke="#236FE3" stroke-width="2.5" stroke-linecap="round" stroke-linejoin="round"/>
<path d="M33.6667 35.5C33.6667 36.4725 34.053 37.4051 34.7406 38.0927C35.4283 38.7804 36.3609 39.1667 37.3334 39.1667C38.3058 39.1667 39.2384 38.7804 39.9261 38.0927C40.6137 37.4051 41 36.4725 41 35.5C41 34.5275 40.6137 33.5949 39.9261 32.9073C39.2384 32.2197 38.3058 31.8333 37.3334 31.8333C36.3609 31.8333 35.4283 32.2197 34.7406 32.9073C34.053 33.5949 33.6667 34.5275 33.6667 35.5Z" stroke="#236FE3" stroke-width="2.5" stroke-linecap="round" stroke-linejoin="round"/>
<path d="M35.5 19C35.5 20.4587 36.0795 21.8576 37.1109 22.8891C38.1424 23.9205 39.5413 24.5 41 24.5C42.4587 24.5 43.8576 23.9205 44.8891 22.8891C45.9205 21.8576 46.5 20.4587 46.5 19C46.5 17.5413 45.9205 16.1424 44.8891 15.1109C43.8576 14.0795 42.4587 13.5 41 13.5C39.5413 13.5 38.1424 14.0795 37.1109 15.1109C36.0795 16.1424 35.5 17.5413 35.5 19Z" stroke="#236FE3" stroke-width="2.5" stroke-linecap="round" stroke-linejoin="round"/>
<path d="M13.5 41C13.5 42.4587 14.0795 43.8576 15.1109 44.8891C16.1424 45.9205 17.5413 46.5 19 46.5C20.4587 46.5 21.8576 45.9205 22.8891 44.8891C23.9205 43.8576 24.5 42.4587 24.5 41C24.5 39.5413 23.9205 38.1424 22.8891 37.1109C21.8576 36.0795 20.4587 35.5 19 35.5C17.5413 35.5 16.1424 36.0795 15.1109 37.1109C14.0795 38.1424 13.5 39.5413 13.5 41Z" stroke="#236FE3" stroke-width="2.5" stroke-linecap="round" stroke-linejoin="round"/>
<path d="M24.5 39.1667L33.6667 36.4167" stroke="#236FE3" stroke-width="2.5" stroke-linecap="round" stroke-linejoin="round"/>
<path d="M19.9167 23.5833L34.235 33.4283" stroke="#236FE3" stroke-width="2.5" stroke-linecap="round" stroke-linejoin="round"/>
<path d="M20.8333 20.8333L35.5 19" stroke="#236FE3" stroke-width="2.5" stroke-linecap="round" stroke-linejoin="round"/>
</g>
<defs>
<clipPath id="clip0_334_1664">
<rect width="44" height="44" fill="white" transform="translate(8 8)"/>
</clipPath>
</defs>
</svg>
