<svg width="60" height="60" viewBox="0 0 60 60" fill="none" xmlns="http://www.w3.org/2000/svg">
<circle cx="30" cy="30" r="30" fill="#EFEFEF"/>
<path d="M34.7529 12.5329C32.2002 12.5881 29.6759 13.0083 27.6941 13.8126C26.7033 14.2148 25.8416 14.7105 25.1782 15.3687C24.5151 16.0266 24.0463 16.908 24.0435 17.8951V17.9039L24.0929 27.3837C24.0943 27.6461 24.1946 27.8972 24.3718 28.0817C24.5491 28.2662 24.7887 28.369 25.0379 28.3676C25.2872 28.3661 25.5257 28.2605 25.701 28.074C25.8763 27.8874 25.974 27.6352 25.9726 27.3728L25.9684 26.3509C26.6943 26.8611 27.5572 27.2591 28.4941 27.5757C30.4005 28.2202 32.672 28.5264 34.9529 28.5267C37.2337 28.5273 39.5185 28.2226 41.4495 27.5798C42.4479 27.2476 43.3612 26.8239 44.1276 26.2794L44.1407 28.6841C43.7205 29.5011 42.5539 30.3359 40.8832 30.8919C39.1995 31.452 37.0716 31.7476 34.9534 31.747C33.9453 31.747 33.0712 31.682 32.1046 31.5498C31.9822 31.533 31.8579 31.5419 31.7387 31.5757C31.6196 31.6096 31.5079 31.6678 31.4101 31.7471C31.3124 31.8264 31.2304 31.9252 31.1689 32.0378C31.1074 32.1504 31.0675 32.2747 31.0517 32.4035C31.0358 32.5324 31.0442 32.6632 31.0763 32.7887C31.1085 32.9141 31.1638 33.0316 31.2392 33.1345C31.3145 33.2374 31.4083 33.3237 31.5153 33.3885C31.6223 33.4532 31.7404 33.4951 31.8628 33.5119C32.8962 33.653 33.8673 33.725 34.9529 33.7253C37.2337 33.7259 39.5185 33.4209 41.4495 32.7784C42.4613 32.4418 43.3831 32.0092 44.1556 31.4535L44.1682 33.8372C44.1632 33.8461 44.1584 33.855 44.1539 33.8641C43.7416 34.6871 42.5665 35.5301 40.8832 36.0905C39.1995 36.6503 37.0716 36.9462 34.9534 36.9456C33.9576 36.9453 33.0561 36.8812 32.1029 36.7531C31.9805 36.7366 31.8562 36.7457 31.7371 36.7798C31.618 36.8138 31.5065 36.8723 31.4088 36.9517C31.3112 37.0312 31.2294 37.1301 31.1681 37.2429C31.1068 37.3556 31.0672 37.4799 31.0515 37.6088C31.0359 37.7376 31.0445 37.8685 31.0769 37.9938C31.1092 38.1192 31.1648 38.2366 31.2402 38.3394C31.3157 38.4421 31.4097 38.5282 31.5168 38.5928C31.6239 38.6573 31.742 38.699 31.8644 38.7155C32.8892 38.8534 33.8805 38.9234 34.9529 38.9237C37.2337 38.9242 39.5185 38.6195 41.4495 37.9767C42.4745 37.6357 43.4052 37.1948 44.1834 36.6285L44.196 38.9768C44.1915 39.3072 44.0067 39.6441 43.3721 40.0667C42.7371 40.4895 41.721 40.8816 40.5073 41.1592C38.0795 41.714 34.8656 41.8433 32.0847 41.5268C31.9619 41.5128 31.8378 41.5245 31.7193 41.561C31.6009 41.5975 31.4904 41.6583 31.3943 41.7398C31.2001 41.9043 31.0759 42.1433 31.0491 42.4042C31.0359 42.5334 31.0469 42.6641 31.0816 42.7887C31.1163 42.9134 31.1741 43.0297 31.2515 43.1309C31.4078 43.3353 31.6348 43.466 31.8827 43.4942C34.8665 43.8338 38.2088 43.7086 40.9062 43.092C42.2549 42.7838 43.4428 42.3607 44.3769 41.7385C45.311 41.1164 46.06 40.1786 46.0751 39.0034V38.9842L45.9624 17.8927C45.9624 17.8596 45.9604 17.8266 45.9568 17.7938C45.8516 16.7456 45.3329 15.8355 44.6137 15.1472C43.8942 14.4587 42.9777 13.9531 41.9432 13.5646C39.8742 12.788 37.3055 12.478 34.7529 12.5329ZM34.7913 14.5112C37.1678 14.4598 39.567 14.7728 41.3121 15.428C42.1845 15.7558 42.8871 16.1686 43.3491 16.6109C43.8055 17.0479 44.028 17.4767 44.0832 17.9857L44.0855 18.4153C43.6333 19.2079 42.5023 20.0092 40.8832 20.5481C39.1998 21.1082 37.0716 21.4032 34.9534 21.4026C32.8356 21.402 30.7219 21.1056 29.0694 20.5469C27.4167 19.9883 26.2983 19.1526 25.935 18.3554C25.9318 18.3485 25.9285 18.3416 25.9252 18.3347L25.9229 17.9007C25.9238 17.5357 26.0649 17.2077 26.4674 16.8082C26.8702 16.4087 27.5311 15.9991 28.3701 15.6587C30.0487 14.9775 32.4151 14.5626 34.7913 14.5112ZM44.1001 21.1579L44.1127 23.523C43.6759 24.3279 42.5278 25.1461 40.8832 25.6933C39.1995 26.2537 37.0716 26.5487 34.9534 26.5481C32.8356 26.5475 30.7219 26.251 29.0692 25.6924C27.4355 25.1399 26.3297 24.3164 25.9535 23.5271L25.9409 21.1894C26.6719 21.7082 27.5463 22.1101 28.4941 22.4305C30.4005 23.0751 32.672 23.3807 34.9529 23.3813C37.2337 23.3819 39.5185 23.0771 41.4495 22.4343C42.4347 22.1066 43.3399 21.692 44.1003 21.1576L44.1001 21.1579Z" fill="#236FE3"/>
<path d="M21.1733 27.9817C15.9724 27.9817 11.7355 32.4415 11.7355 37.9162C11.7355 43.3909 15.9724 47.8501 21.1733 47.8501C26.3743 47.8501 30.6111 43.3909 30.6111 37.9162C30.6111 32.4415 26.3743 27.9817 21.1733 27.9817ZM21.1733 29.96C25.3586 29.96 28.7311 33.5104 28.7311 37.9162C28.7311 42.3217 25.3588 45.8718 21.1733 45.8718C16.9881 45.8718 13.615 42.3217 13.615 37.9162C13.615 33.5107 16.9881 29.96 21.1733 29.96Z" fill="#236FE3"/>
<path d="M21.1727 31.269C21.0493 31.269 20.9271 31.2946 20.8131 31.3444C20.6991 31.3942 20.5955 31.4671 20.5083 31.559C20.421 31.6509 20.3518 31.76 20.3047 31.8801C20.2575 32.0001 20.2332 32.1288 20.2333 32.2587V32.5469C19.3797 32.862 18.6644 33.5972 18.4058 34.5223C18.1129 35.4973 18.3099 36.6548 18.9836 37.4057C19.9486 38.1923 20.9315 38.9561 21.8892 39.7519C22.4011 40.2435 22.2258 41.2336 21.5789 41.4958C21.0288 41.7713 20.3326 41.3998 20.1786 40.7889C19.9407 40.1889 19.1146 40.0221 18.6818 40.4848C18.3244 40.8193 18.3155 41.3998 18.5491 41.8135C18.8703 42.5641 19.5034 43.1298 20.2333 43.3974V43.5736C20.2333 43.836 20.3323 44.0876 20.5086 44.2731C20.6848 44.4586 20.9238 44.5628 21.173 44.5628C21.4223 44.5628 21.6613 44.4586 21.8375 44.2731C22.0137 44.0876 22.1127 43.836 22.1127 43.5736V43.4042C23.2059 43.0138 24.0309 41.8888 24.0682 40.6631C24.1229 39.6503 23.6564 38.6287 22.8704 38.0414C22.8502 38.0234 22.6491 37.8636 22.5627 37.7933L20.327 35.9981C19.9175 35.4244 20.2835 34.5179 20.9436 34.3897C21.4704 34.2444 22.0106 34.6248 22.1739 35.1521C22.4628 35.7267 23.3001 35.8141 23.6909 35.3113C24.0146 34.9481 23.9728 34.3841 23.7257 33.9893C23.3865 33.3131 22.7944 32.797 22.1127 32.5484V32.2587C22.1128 32.1288 22.0886 32.0001 22.0414 31.88C21.9942 31.7599 21.925 31.6508 21.8377 31.5589C21.7504 31.467 21.6468 31.3941 21.5328 31.3443C21.4187 31.2946 21.2962 31.269 21.1727 31.269Z" fill="#236FE3"/>
</svg>
