<svg width="60" height="60" viewBox="0 0 60 60" fill="none" xmlns="http://www.w3.org/2000/svg">
<circle cx="30" cy="30" r="30" fill="#EFEFEF"/>
<g clip-path="url(#clip0_334_1589)">
<path d="M22.5663 15.2887C21.8835 14.9176 21.1119 14.741 20.3356 14.7781H16.8688V20.0053H15.6191V21.7387H16.8688V23.0153H15.6191V24.4531H16.8688V26.0656H18.75V24.4531H21.0613V23.0153H18.75V21.7387H20.3625C20.9557 21.7604 21.5468 21.655 22.0959 21.4297C22.5431 21.2493 22.943 20.9689 23.265 20.61C23.5592 20.2826 23.7833 19.8985 23.9234 19.4812C24.0617 19.0932 24.1299 18.6838 24.125 18.2719C24.1243 17.6969 24.0006 17.1288 23.7622 16.6056C23.5143 16.0503 23.0952 15.5888 22.5663 15.2887ZM22.0288 19.0781C21.9074 19.3588 21.7004 19.5939 21.4375 19.75C21.1274 19.9415 20.7669 20.0351 20.4028 20.0188H18.75V16.525H20.4431C20.8223 16.5024 21.1989 16.6013 21.5181 16.8072C21.7588 16.9799 21.9452 17.2176 22.0556 17.4925C22.1487 17.742 22.1987 18.0056 22.2034 18.2719C22.2038 18.5501 22.1443 18.8251 22.0288 19.0781ZM43.1391 41.4919C43.3536 41.9593 43.4593 42.4693 43.4481 42.9834C43.4615 43.5501 43.3272 44.1104 43.0584 44.6094C42.8169 45.0616 42.4599 45.4418 42.0238 45.7113C41.5753 45.9995 41.072 46.1917 40.5456 46.2756V47.6194H38.7181V46.2353C38.01 46.1 37.3538 45.7695 36.8234 45.2812C36.3118 44.8011 35.9284 44.2006 35.7081 43.5344L37.4147 42.9028C37.6265 43.3794 37.949 43.7986 38.3553 44.1256C38.7403 44.4241 39.212 44.5892 39.6991 44.5959C40.1815 44.6331 40.6605 44.4894 41.0428 44.1928C41.2073 44.0477 41.3363 43.867 41.4202 43.6644C41.504 43.4617 41.5404 43.2426 41.5266 43.0238C41.5369 42.696 41.4269 42.3758 41.2175 42.1234C40.9934 41.8614 40.7193 41.6467 40.4113 41.4919C40.0553 41.2981 39.6873 41.1275 39.3094 40.9812C38.9197 40.8334 38.5434 40.6722 38.1672 40.4975C37.7996 40.3267 37.4525 40.1148 37.1325 39.8659C36.8218 39.6142 36.5696 39.2978 36.3934 38.9388C36.1917 38.5204 36.0949 38.0592 36.1113 37.595C36.1085 36.929 36.3472 36.2845 36.7831 35.7809C37.2858 35.2208 37.972 34.8586 38.7181 34.7597V33.4159H40.5456V34.7597C41.1452 34.8655 41.6982 35.1514 42.1313 35.5794C42.5296 35.9789 42.8088 36.4814 42.9375 37.0306L41.2578 37.5816C41.132 37.2522 40.9065 36.9704 40.6128 36.7753C40.2761 36.537 39.8692 36.4187 39.4572 36.4394C39.0759 36.4148 38.6973 36.5189 38.3822 36.735C38.2511 36.8348 38.1468 36.9657 38.0788 37.1158C38.0107 37.2659 37.9811 37.4306 37.9925 37.595C37.9871 37.8646 38.0885 38.1255 38.2747 38.3206C38.4936 38.5434 38.7537 38.7214 39.0406 38.8447C39.375 39.0159 39.7207 39.164 40.0753 39.2881C40.4645 39.4336 40.8458 39.5996 41.2175 39.7853C41.605 39.972 41.9701 40.2019 42.3059 40.4706C42.6491 40.7519 42.9324 41.0992 43.1391 41.4919ZM19.4219 9.33594C17.2293 9.33594 15.0859 9.98612 13.2629 11.2043C11.4398 12.4224 10.0189 14.1538 9.17981 16.1795C8.34074 18.2052 8.1212 20.4342 8.54896 22.5846C8.97671 24.7351 10.0325 26.7104 11.5829 28.2608C13.1333 29.8112 15.1087 30.867 17.2591 31.2948C19.4096 31.7226 21.6386 31.503 23.6643 30.6639C25.69 29.8249 27.4214 28.404 28.6395 26.5809C29.8576 24.7578 30.5078 22.6145 30.5078 20.4219C30.5043 17.4828 29.3351 14.6651 27.2569 12.5869C25.1786 10.5086 22.361 9.33949 19.4219 9.33594ZM19.4219 29.4922C17.6279 29.4922 15.8743 28.9602 14.3827 27.9636C12.8911 26.9669 11.7285 25.5503 11.042 23.8929C10.3555 22.2355 10.1759 20.4118 10.5259 18.6523C10.8758 16.8929 11.7397 15.2767 13.0082 14.0082C14.2767 12.7397 15.8929 11.8758 17.6523 11.5258C19.4118 11.1759 21.2356 11.3555 22.8929 12.042C24.5503 12.7285 25.9669 13.8911 26.9636 15.3827C27.9602 16.8743 28.4922 18.6279 28.4922 20.4219C28.4886 22.8264 27.5319 25.1314 25.8316 26.8316C24.1314 28.5319 21.8264 29.4886 19.4219 29.4922ZM39.5781 29.4922C37.3855 29.4922 35.2422 30.1424 33.4191 31.3605C31.596 32.5786 30.1751 34.31 29.3361 36.3357C28.497 38.3614 28.2775 40.5904 28.7052 42.7409C29.133 44.8913 30.1888 46.8667 31.7392 48.4171C33.2896 49.9675 35.2649 51.0233 37.4154 51.451C39.5658 51.8788 41.7948 51.6593 43.8205 50.8202C45.8462 49.9811 47.5776 48.5602 48.7957 46.7371C50.0139 44.9141 50.6641 42.7707 50.6641 40.5781C50.6605 37.639 49.4914 34.8214 47.4131 32.7431C45.3349 30.6649 42.5172 29.4957 39.5781 29.4922ZM39.5781 49.6484C37.7842 49.6484 36.0305 49.1165 34.5389 48.1198C33.0473 47.1232 31.8848 45.7066 31.1983 44.0492C30.5117 42.3918 30.3321 40.5681 30.6821 38.8086C31.0321 37.0491 31.8959 35.433 33.1645 34.1644C34.433 32.8959 36.0491 32.0321 37.8086 31.6821C39.5681 31.3321 41.3918 31.5117 43.0492 32.1982C44.7066 32.8848 46.1232 34.0473 47.1198 35.5389C48.1165 37.0305 48.6484 38.7842 48.6484 40.5781C48.6449 42.9826 47.6881 45.2876 45.9879 46.9879C44.2876 48.6881 41.9826 49.6449 39.5781 49.6484ZM33.2759 15.8531L32.3084 15.6112L32.8056 13.6494L33.7866 13.9047C36.7502 14.6709 39.4546 16.2164 41.6191 18.3809C43.7836 20.5454 45.3291 23.2498 46.0953 26.2134L46.3506 27.1944L44.3888 27.6916L44.1469 26.7241C43.474 24.1048 42.1103 21.7142 40.198 19.802C38.2858 17.8897 35.8952 16.526 33.2759 15.8531ZM25.7241 45.1469L26.6916 45.3887L26.1944 47.3506L25.2134 47.0953C22.2498 46.3291 19.5454 44.7836 17.3809 42.6191C15.2164 40.4546 13.6709 37.7502 12.9047 34.7866L12.6494 33.8056L14.6113 33.3084L14.8531 34.2759C15.526 36.8952 16.8897 39.2858 18.802 41.198C20.7142 43.1103 23.1048 44.474 25.7241 45.1469Z" fill="#236FE3"/>
</g>
<defs>
<clipPath id="clip0_334_1589">
<rect width="43" height="43" fill="white" transform="translate(8 9)"/>
</clipPath>
</defs>
</svg>
