<svg width="60" height="60" viewBox="0 0 60 60" fill="none" xmlns="http://www.w3.org/2000/svg">
<circle cx="30" cy="30" r="30" fill="#EFEFEF"/>
<g clip-path="url(#clip0_334_1635)">
<path d="M45.0223 39.2537C44.3645 38.7643 43.4347 38.901 42.9454 39.5586C42.6749 39.922 42.3894 40.2739 42.0894 40.6133C41.5465 41.2274 41.6042 42.1656 42.2183 42.7085C42.4892 42.9488 42.8389 43.0812 43.2009 43.0808C43.6115 43.0808 44.0203 42.9114 44.3136 42.5796C44.6689 42.1776 45.007 41.7609 45.3273 41.3305C45.8166 40.6729 45.6801 39.7429 45.0223 39.2537ZM47.5048 32.2923C46.7043 32.118 45.913 32.626 45.7387 33.427C45.6424 33.8691 45.5273 34.3069 45.3939 34.7392C45.1518 35.5225 45.5906 36.3536 46.3738 36.5957C46.5198 36.6407 46.6674 36.6622 46.8125 36.6622C47.4464 36.6622 48.0333 36.2529 48.2303 35.6155C48.3887 35.1025 48.5252 34.583 48.6395 34.0584C48.8139 33.2575 48.3058 32.4667 47.5048 32.2923ZM37.8775 44.0076C37.482 44.2283 37.0774 44.4321 36.6648 44.6186C35.9176 44.956 35.5855 45.8352 35.9229 46.5824C36.1708 47.1313 36.711 47.4562 37.2766 47.4562C37.4808 47.4562 37.6884 47.4138 37.8866 47.3243C38.376 47.1031 38.8558 46.8614 39.3248 46.5996C40.0406 46.2 40.2969 45.2957 39.8971 44.58C39.4976 43.8643 38.5933 43.608 37.8775 44.0076ZM28.5156 18.125V29.3852L23.0725 34.8282C22.4928 35.4079 22.4928 36.3478 23.0725 36.9274C23.2102 37.0655 23.3738 37.175 23.5539 37.2496C23.7341 37.3242 23.9272 37.3625 24.1222 37.3622C24.3171 37.3624 24.5102 37.3242 24.6904 37.2495C24.8705 37.1749 25.0341 37.0655 25.1718 36.9274L31.0497 31.0496C31.328 30.7712 31.4844 30.3937 31.4844 30V18.125C31.4844 17.3052 30.8198 16.6406 30 16.6406C29.1802 16.6406 28.5156 17.3052 28.5156 18.125Z" fill="#236FE3"/>
<path d="M47.5156 14.1914C46.6958 14.1914 46.0312 14.856 46.0312 15.6758V19.7976C42.5762 14.379 36.5425 11 30 11C24.9249 11 20.1536 12.9764 16.5649 16.5649C12.9764 20.1536 11 24.9249 11 30C11 35.0751 12.9764 39.8464 16.5649 43.4351C20.1536 47.0236 24.9249 49 30 49C30.0125 49 30.0246 48.9984 30.0371 48.9981C30.0496 48.9984 30.0617 49 30.0742 49C30.6092 49 31.1494 48.9774 31.6801 48.9331C32.497 48.8646 33.1038 48.1469 33.0355 47.33C32.967 46.5131 32.2502 45.906 31.4323 45.9747C30.9838 46.0122 30.5269 46.0312 30.0742 46.0312C30.0617 46.0312 30.0496 46.0328 30.0371 46.0331C30.0246 46.0328 30.0125 46.0312 30 46.0312C21.1603 46.0312 13.9688 38.8397 13.9688 30C13.9688 21.1603 21.1603 13.9688 30 13.9688C35.6969 13.9688 40.9367 17.0053 43.7999 21.8359H39.7184C38.8986 21.8359 38.2341 22.5005 38.2341 23.3203C38.2341 24.1401 38.8986 24.8047 39.7184 24.8047H44.25C45.1216 24.8057 45.9764 24.5654 46.7198 24.1105C46.7657 24.0844 46.8102 24.0559 46.8531 24.025C48.1449 23.1751 49 21.7133 49 20.0547V15.6758C49 14.856 48.3354 14.1914 47.5156 14.1914Z" fill="#236FE3"/>
</g>
<defs>
<clipPath id="clip0_334_1635">
<rect width="38" height="38" fill="white" transform="translate(11 11)"/>
</clipPath>
</defs>
</svg>
