<svg width="177" height="42" viewBox="0 0 177 42" fill="none" xmlns="http://www.w3.org/2000/svg">
<path d="M23.8696 23.6634C24.0429 24.1053 24.0831 24.5884 23.9851 25.053C23.8992 25.597 23.6366 26.0974 23.2381 26.4766C22.8396 26.8559 22.3274 27.0928 21.7809 27.1507C21.2654 27.1997 20.6388 27.1507 19.9011 27.0171L18.6256 26.7677C18.3603 26.7344 18.1013 26.6624 17.8568 26.5539C17.8127 26.5213 17.7757 26.48 17.7482 26.4325C17.7207 26.385 17.7032 26.3323 17.6968 26.2778C17.7101 25.9575 17.7488 25.6388 17.8124 25.3247L18.519 21.5389L20.781 21.9576C21.772 22.1491 22.4919 22.3807 22.9363 22.6479C23.3852 22.9152 23.6918 23.2626 23.8696 23.6634ZM23.9896 15.7045C23.5896 15.4818 22.8252 15.268 21.7053 15.0587L19.7944 14.6979L18.9945 18.9602L20.9099 19.321C21.9098 19.5036 22.6653 19.5615 23.1763 19.4813C23.6302 19.4228 24.056 19.2289 24.3984 18.9246C24.7054 18.6289 24.9081 18.2412 24.9762 17.82C25.0678 17.4031 25.0242 16.9678 24.8517 16.5774C24.6751 16.1943 24.37 15.8854 23.9896 15.7045ZM40.9392 21C40.9397 23.6612 40.4171 26.2964 39.4011 28.755C38.3851 31.2137 36.8956 33.4476 35.0178 35.3291C33.14 37.2106 30.9106 38.7029 28.4571 39.7206C26.0036 40.7383 23.3741 41.2615 20.7188 41.2603C18.064 41.2609 15.4352 40.7372 12.9824 39.7192C10.5297 38.7012 8.30119 37.2088 6.4242 35.3273C4.54722 33.4457 3.05856 31.212 2.04331 28.7537C1.02805 26.2953 0.506097 23.6606 0.507265 21C0.506097 18.3395 1.02805 15.7047 2.04331 13.2464C3.05856 10.7881 4.54722 8.55433 6.4242 6.67282C8.30119 4.7913 10.5297 3.29889 12.9824 2.28086C15.4352 1.26284 18.064 0.739163 20.7188 0.739748C23.3741 0.738578 26.0036 1.2618 28.4571 2.2795C30.9106 3.29721 33.14 4.78946 35.0178 6.67097C36.8956 8.55249 38.3851 10.7864 39.4011 13.245C40.4171 15.7037 40.9397 18.3389 40.9392 21ZM29.0425 15.6466C28.6639 14.8613 28.0685 14.2013 27.3271 13.7448C26.9775 13.5227 26.605 13.339 26.216 13.197L26.7893 10.1194L23.8385 9.56271L23.2963 12.4399L21.3987 12.0836L21.9409 9.2064L18.9856 8.64968L18.4434 11.5313L13.9327 10.6851L13.4839 13.1035L14.1727 13.2326C14.4932 13.2637 14.8028 13.3656 15.0793 13.531C15.2183 13.6259 15.3179 13.7685 15.3593 13.9319C15.389 14.2727 15.3604 14.6161 15.2748 14.9473L13.4528 24.6922C13.4171 25.027 13.3223 25.3528 13.1728 25.6543C13.0714 25.7898 12.9273 25.8871 12.7639 25.9304C12.4458 25.9751 12.1217 25.9524 11.8129 25.8636L11.1196 25.7478L10.6708 28.1573L15.177 28.9946L14.6438 31.8717L17.5991 32.4285L18.1323 29.5513L19.8122 29.8631L20.0299 29.9032L19.4967 32.7803L22.4475 33.3281L23.0341 30.2149C23.5452 30.206 24.0029 30.1615 24.4073 30.0947C25.505 29.8764 26.4027 29.4266 27.1093 28.7452C27.7951 28.1091 28.2553 27.2663 28.4203 26.3446C28.5656 25.6205 28.515 24.8706 28.2735 24.1728C28.032 23.475 27.6086 22.8547 27.0471 22.3763C26.5146 21.956 25.9288 21.6086 25.305 21.343C26.1138 21.2227 26.7849 21.0134 27.3226 20.6972C27.8334 20.4084 28.276 20.0126 28.6204 19.5369C28.9647 19.0611 29.2027 18.5165 29.318 17.9403C29.4762 17.166 29.3795 16.3611 29.0425 15.6466ZM66.3946 25.5474C66.3946 32.8738 61.6128 41.247 51.4982 41.247C46.1653 41.247 43.4989 38.931 43.4989 34.9359C43.4989 33.5464 43.7256 32.1701 44.0011 30.8385L48.5562 8.02615H55.2179L52.5559 20.8931H52.6492C53.5032 19.8849 54.5672 19.0765 55.7665 18.5247C56.9658 17.973 58.2712 17.6914 59.5908 17.6998C64.2837 17.7131 66.3946 21.5389 66.3946 25.5474ZM59.4486 26.928C59.4486 24.7679 58.5287 23.0577 56.5111 23.0577C54.1157 23.0577 51.7782 25.5028 50.9916 29.4222L50.5783 31.266C50.485 32.0053 50.3027 32.7892 50.3472 33.7601C50.3916 35.3635 51.356 36.2454 52.8759 36.2454C56.6977 36.232 59.4486 30.8919 59.4486 26.928ZM68.2033 40.7526H74.825L79.1001 18.2164H72.4785L68.2033 40.7526ZM77.2159 8.41363C76.7167 8.40654 76.2211 8.49902 75.758 8.68571C75.2948 8.87239 74.8734 9.14954 74.5181 9.50102C74.1629 9.85249 73.8809 10.2713 73.6887 10.733C73.4965 11.1947 73.3978 11.6901 73.3984 12.1904C73.3984 14.1679 74.7761 15.4194 76.6115 15.4194C78.7313 15.4194 80.5178 14.0343 80.5178 11.6872C80.5222 9.69632 79.1401 8.41363 77.2159 8.41363ZM93.1255 11.9099L86.3661 13.4865L85.4462 18.2209H82.5487L81.6288 23.2447H84.4819L82.7309 32.2325C82.4448 33.6116 82.2915 35.015 82.2732 36.4235C82.2732 39.2339 84.1619 41.2603 88.1127 41.2603C89.5348 41.2603 91.1835 41.0733 92.019 40.757L92.81 35.5461C92.2056 35.6396 91.5701 35.6396 90.9702 35.6396C89.5392 35.6396 89.077 34.8469 89.077 33.7423C89.077 32.9585 89.2592 31.8005 89.4459 30.883L90.9702 23.2314H95.7431L96.7163 18.2075H91.9345L93.1255 11.9099ZM96.9119 32.0054C96.9119 37.8487 100.818 41.2113 106.373 41.2113C109.049 41.2113 111.346 40.7481 112.764 40.0578L112.719 34.9849C111.564 35.4481 110.191 35.9069 108.262 35.9069C105.773 35.9069 103.849 34.3347 103.849 31.2482C103.849 27.0171 106.738 22.9998 111.479 22.9998C112.817 22.9998 113.737 23.2314 114.519 23.5521L116.123 18.4836C115.159 18.065 113.501 17.6909 111.577 17.6909C103.022 17.7131 96.9119 23.9841 96.9119 32.0054ZM139.437 26.977C139.437 35.2254 133.833 41.2603 126.011 41.2603C120.319 41.2603 116.492 37.5281 116.492 31.9475C116.492 24.1177 121.914 17.7131 129.918 17.7131C135.948 17.7131 139.437 21.8596 139.437 26.977ZM132.589 27.0171C132.589 24.9461 131.722 22.737 129.051 22.737C125.238 22.737 123.309 28.3132 123.363 31.8094C123.363 34.4371 124.647 36.1875 126.949 36.1875C130.575 36.1919 132.589 30.8919 132.589 27.0171ZM150.431 8.41363C149.933 8.40653 149.438 8.49907 148.975 8.68586C148.512 8.87265 148.091 9.14993 147.737 9.50152C147.382 9.85312 147.101 10.272 146.91 10.7337C146.719 11.1953 146.621 11.6906 146.623 12.1904C146.623 14.1679 148.009 15.4194 149.845 15.4194C151.969 15.4194 153.751 14.0343 153.751 11.6872C153.756 9.69632 152.369 8.41363 150.431 8.41363ZM141.432 40.7526H148.045L152.329 18.2164H145.707L141.432 40.7526ZM171.087 17.7131C168.097 17.7131 165.297 19.0047 163.186 21.9531H163.093L163.555 18.2209H157.68C157.343 20.6748 156.942 23.1193 156.475 25.5518L153.618 40.757H160.239L162.124 30.7538C163.044 25.7923 165.577 23.0577 167.741 23.0577C169.399 23.0577 169.95 24.1667 169.95 25.7344C169.95 26.5717 169.856 27.4937 169.71 28.2686L167.372 40.757H173.989L176.478 27.6718C176.66 26.5673 176.847 24.8659 176.847 23.8638C176.838 19.9712 174.767 17.7131 171.087 17.7131Z" fill="#EFEFEF"/>
</svg>
