<svg width="40" height="40" viewBox="0 0 40 40" fill="none" xmlns="http://www.w3.org/2000/svg">
<circle cx="20" cy="20" r="20" fill="#EFEFEF"/>
<g clip-path="url(#clip0_442_8396)">
<path d="M32.2515 26.4909L28.4937 22.7314C27.989 22.2293 27.3132 21.9527 26.5911 21.9527C25.8396 21.9527 25.13 22.2486 24.5935 22.7854L23.1307 24.2479C21.9941 23.6161 20.4833 22.7471 18.9148 21.1786C17.3481 19.6114 16.479 18.105 15.844 16.9622L17.3082 15.4991C18.3968 14.4083 18.419 12.6582 17.358 11.5981L13.6009 7.84088C13.0976 7.33622 12.4218 7.05829 11.6978 7.05829C10.9631 7.05829 10.2681 7.34117 9.7347 7.85605C9.41202 8.11591 7.79274 9.54535 7.18923 12.4933C6.34425 16.6196 8.28567 20.5896 13.8903 26.1965C20.1512 32.4554 25.496 32.9419 26.9851 32.9419C27.295 32.9419 27.4821 32.9228 27.532 32.917C30.4519 32.5747 31.4973 31.278 32.2607 30.3312C33.2498 29.104 33.2463 27.4894 32.2515 26.4909ZM31.0046 29.3185C30.2871 30.2084 29.6095 31.0489 27.3443 31.3145C27.3431 31.3146 27.2192 31.3284 26.9851 31.3284C25.6529 31.3284 20.8534 30.876 15.0312 25.0556C9.86269 19.885 8.04862 16.3391 8.76979 12.8168C9.29618 10.2456 10.6937 9.15266 10.748 9.11114L10.7962 9.07554L10.8385 9.03316C11.0717 8.80008 11.3769 8.67166 11.6977 8.67166C11.9899 8.67166 12.2601 8.78115 12.4592 8.981L16.2172 12.7391C16.6496 13.171 16.6266 13.8979 16.1666 14.3589L14.5107 16.0134L14.4835 16.0419C14.052 16.5172 14.1027 17.1595 14.3404 17.5778C15.0263 18.8156 15.9659 20.5108 17.7737 22.3192C19.5755 24.121 21.2682 25.0597 22.5026 25.7443C22.6262 25.8137 22.8813 25.9301 23.2006 25.9301C23.5777 25.9301 23.924 25.7705 24.1803 25.4795L25.7343 23.926C25.9663 23.6939 26.2705 23.566 26.5909 23.566C26.8836 23.566 27.1552 23.6758 27.354 23.8735L31.1094 27.6305C31.5864 28.1092 31.3895 28.8412 31.0046 29.3185ZM22.7516 11.0112C24.1377 11.1707 25.7698 12.0103 26.9095 13.1501C28.0598 14.3004 28.9014 15.949 29.0534 17.3502C29.0781 17.5616 29.1852 17.7547 29.3516 17.8874C29.518 18.0201 29.7301 18.0817 29.9417 18.0588C30.1533 18.0358 30.3472 17.9302 30.4813 17.7648C30.6153 17.5995 30.6786 17.3879 30.6573 17.1762C30.4651 15.405 29.4661 13.4252 28.0503 12.0093C26.6478 10.6066 24.6882 9.6101 22.936 9.40843C22.4937 9.35713 22.0934 9.67507 22.0425 10.1176C22.018 10.3301 22.079 10.5436 22.212 10.7112C22.3449 10.8788 22.5391 10.9867 22.7516 11.0112ZM21.9979 14.3904C22.7476 14.4768 23.7851 15.0329 24.4648 15.7125C25.1502 16.3981 25.7074 17.4455 25.7894 18.2032C25.8 18.3092 25.8314 18.4121 25.882 18.5059C25.9325 18.5997 26.0011 18.6826 26.0838 18.7497C26.1665 18.8168 26.2617 18.8669 26.3639 18.8971C26.4661 18.9272 26.5732 18.9368 26.6791 18.9253C26.785 18.9139 26.8876 18.8815 26.981 18.8302C27.0743 18.7788 27.1566 18.7095 27.223 18.6262C27.2894 18.5429 27.3386 18.4472 27.3679 18.3448C27.3971 18.2423 27.4058 18.1351 27.3934 18.0293C27.2531 16.7356 26.3942 15.3605 25.6054 14.5716C24.8237 13.7898 23.462 12.935 22.1824 12.7876C21.7394 12.7361 21.3397 13.0541 21.2887 13.4966C21.2643 13.7092 21.3253 13.9227 21.4583 14.0903C21.5913 14.258 21.7854 14.3659 21.9979 14.3904Z" fill="#236FE3"/>
</g>
<defs>
<clipPath id="clip0_442_8396">
<rect width="26" height="26" fill="white" transform="translate(7 7)"/>
</clipPath>
</defs>
</svg>
