<svg width="1920" height="747" viewBox="0 0 1920 747" fill="none" xmlns="http://www.w3.org/2000/svg">
<path d="M1081 1.562C1158.6 254.833 1307.76 675.554 1283.66 332.276C1253.54 -96.8223 1459.48 -144.829 1619.26 -19.7744C1779.03 105.28 1727.95 577.051 1886.75 317.459C2045.54 57.8663 2193.85 -83.7835 2103.16 -47.6302C1975.28 3.34673 2097.92 332.276 2205.64 246.93C2240.04 219.672 2305.17 40.4811 2333 -47.6302" stroke="#EFEFEF" stroke-opacity="0.5"/>
<path d="M1081 13.413C1158.6 266.684 1307.76 687.405 1283.66 344.127C1253.54 -84.9714 1459.48 -132.978 1619.26 -7.92341C1779.03 117.131 1727.95 588.902 1886.75 329.31C2045.54 69.7172 2193.85 -71.9325 2103.16 -35.7792C1975.28 15.1977 2097.92 344.127 2205.64 258.781C2240.04 231.523 2305.17 52.3321 2333 -35.7792" stroke="#EFEFEF" stroke-opacity="0.5"/>
<path d="M1081 25.2638C1158.6 278.534 1307.76 699.256 1283.66 355.977C1253.54 -73.1206 1459.48 -121.127 1619.26 3.92742C1779.03 128.982 1727.95 600.753 1886.75 341.161C2045.54 81.5681 2193.85 -60.0817 2103.16 -23.9284C1975.28 27.0485 2097.92 355.977 2205.64 270.632C2240.04 243.374 2305.17 64.1829 2333 -23.9284" stroke="#EFEFEF" stroke-opacity="0.5"/>
<path d="M1081 37.1146C1158.6 290.385 1307.76 711.107 1283.66 367.828C1253.54 -61.2698 1459.48 -109.277 1619.26 15.7782C1779.03 140.833 1727.95 612.604 1886.75 353.011C2045.54 93.4188 2193.85 -48.2309 2103.16 -12.0776C1975.28 38.8993 2097.92 367.828 2205.64 282.483C2240.04 255.225 2305.17 76.0337 2333 -12.0776" stroke="#EFEFEF" stroke-opacity="0.5"/>
<path d="M1081 47.1805C1158.6 294.909 1307.76 706.425 1283.66 370.658C1253.54 -49.051 1459.48 -96.0073 1619.26 26.3111C1779.03 148.629 1727.95 610.077 1886.75 356.165C2045.54 102.253 2193.85 -36.2974 2103.16 -0.935218C1975.28 48.9262 2097.92 370.658 2205.64 287.18C2240.04 260.518 2305.17 85.248 2333 -0.935218" stroke="#EFEFEF" stroke-opacity="0.5"/>
<path d="M1081 59.0313C1158.6 306.76 1307.76 718.275 1283.66 382.508C1253.54 -37.2002 1459.48 -84.1566 1619.26 38.1618C1779.03 160.48 1727.95 621.928 1886.75 368.016C2045.54 114.104 2193.85 -24.4466 2103.16 10.9156C1975.28 60.777 2097.92 382.508 2205.64 299.03C2240.04 272.369 2305.17 97.0988 2333 10.9156" stroke="#EFEFEF" stroke-opacity="0.5"/>
<path d="M1081 70.882C1158.6 318.611 1307.76 730.126 1283.66 394.359C1253.54 -25.3495 1459.48 -72.3059 1619.26 50.0125C1779.03 172.331 1727.95 633.779 1886.75 379.866C2045.54 125.954 2193.85 -12.5959 2103.16 22.7663C1975.28 72.6277 2097.92 394.359 2205.64 310.881C2240.04 284.22 2305.17 108.95 2333 22.7663" stroke="#EFEFEF" stroke-opacity="0.5"/>
<path d="M1081 82.7328C1158.6 330.461 1307.76 741.977 1283.66 406.21C1253.54 -13.4987 1459.48 -60.4551 1619.26 61.8633C1779.03 184.182 1727.95 645.629 1886.75 391.717C2045.54 137.805 2193.85 -0.745162 2103.16 34.617C1975.28 84.4785 2097.92 406.21 2205.64 322.732C2240.04 296.07 2305.17 120.8 2333 34.617" stroke="#EFEFEF" stroke-opacity="0.5"/>
<path d="M1081 94.5839C1158.6 342.312 1307.76 753.828 1283.66 418.061C1253.54 -1.64766 1459.48 -48.604 1619.26 73.7144C1779.03 196.033 1727.95 657.48 1886.75 403.568C2045.54 149.656 2193.85 11.1059 2103.16 46.4681C1975.28 96.3295 2097.92 418.061 2205.64 334.583C2240.04 307.921 2305.17 132.651 2333 46.4681" stroke="#EFEFEF" stroke-opacity="0.5"/>
<path d="M1081 106.434C1158.6 354.163 1307.76 765.678 1283.66 429.912C1253.54 10.2029 1459.48 -36.7534 1619.26 85.565C1779.03 207.883 1727.95 669.331 1886.75 415.419C2045.54 161.507 2193.85 22.9565 2103.16 58.3187C1975.28 108.18 2097.92 429.912 2205.64 346.434C2240.04 319.772 2305.17 144.502 2333 58.3187" stroke="#EFEFEF" stroke-opacity="0.5"/>
<path d="M1081 118.285C1158.6 366.014 1307.76 777.529 1283.66 441.762C1253.54 22.0537 1459.48 -24.9027 1619.26 97.4157C1779.03 219.734 1727.95 681.182 1886.75 427.27C2045.54 173.357 2193.85 34.8073 2103.16 70.1695C1975.28 120.031 2097.92 441.762 2205.64 358.284C2240.04 331.623 2305.17 156.353 2333 70.1695" stroke="#EFEFEF" stroke-opacity="0.5"/>
<path d="M1081 130.136C1158.6 377.865 1307.76 789.38 1283.66 453.613C1253.54 33.9046 1459.48 -13.0518 1619.26 109.267C1779.03 231.585 1727.95 693.033 1886.75 439.121C2045.54 185.208 2193.85 46.6582 2103.16 82.0203C1975.28 131.882 2097.92 453.613 2205.64 370.135C2240.04 343.474 2305.17 168.204 2333 82.0203" stroke="#EFEFEF" stroke-opacity="0.5"/>
<path d="M1081 141.987C1158.6 389.715 1307.76 801.231 1283.66 465.464C1253.54 45.7552 1459.48 -1.20118 1619.26 121.117C1779.03 243.436 1727.95 704.883 1886.75 450.971C2045.54 197.059 2193.85 58.5087 2103.16 93.8709C1975.28 143.732 2097.92 465.464 2205.64 381.986C2240.04 355.324 2305.17 180.054 2333 93.8709" stroke="#EFEFEF" stroke-opacity="0.5"/>
<path d="M1081 153.838C1158.6 401.566 1307.76 813.082 1283.66 477.315C1253.54 57.6063 1459.48 10.6499 1619.26 132.968C1779.03 255.287 1727.95 716.734 1886.75 462.822C2045.54 208.91 2193.85 70.3598 2103.16 105.722C1975.28 155.583 2097.92 477.315 2205.64 393.837C2240.04 367.175 2305.17 191.905 2333 105.722" stroke="#EFEFEF" stroke-opacity="0.5"/>
<path d="M1081 165.688C1158.6 413.417 1307.76 824.932 1283.66 489.166C1253.54 69.457 1459.48 22.5006 1619.26 144.819C1779.03 267.137 1727.95 728.585 1886.75 474.673C2045.54 220.761 2193.85 82.2105 2103.16 117.573C1975.28 167.434 2097.92 489.166 2205.64 405.688C2240.04 379.026 2305.17 203.756 2333 117.573" stroke="#EFEFEF" stroke-opacity="0.5"/>
<path d="M1081 177.539C1158.6 425.268 1307.76 836.783 1283.66 501.016C1253.54 81.3077 1459.48 34.3514 1619.26 156.67C1779.03 278.988 1727.95 740.436 1886.75 486.524C2045.54 232.612 2193.85 94.0613 2103.16 129.423C1975.28 179.285 2097.92 501.016 2205.64 417.538C2240.04 390.877 2305.17 215.607 2333 129.423" stroke="#EFEFEF" stroke-opacity="0.5"/>
<path d="M1081 189.39C1158.6 437.119 1307.76 848.634 1283.66 512.867C1253.54 93.1585 1459.48 46.2021 1619.26 168.521C1779.03 290.839 1727.95 752.287 1886.75 498.374C2045.54 244.462 2193.85 105.912 2103.16 141.274C1975.28 191.136 2097.92 512.867 2205.64 429.389C2240.04 402.728 2305.17 227.458 2333 141.274" stroke="#EFEFEF" stroke-opacity="0.5"/>
<path d="M1081 201.241C1158.6 448.969 1307.76 860.485 1283.66 524.718C1253.54 105.009 1459.48 58.0529 1619.26 180.371C1779.03 302.69 1727.95 764.137 1886.75 510.225C2045.54 256.313 2193.85 117.763 2103.16 153.125C1975.28 202.986 2097.92 524.718 2205.64 441.24C2240.04 414.578 2305.17 239.308 2333 153.125" stroke="#EFEFEF" stroke-opacity="0.5"/>
<path d="M-171 96.3685C-85.7655 349.639 78.0863 770.361 51.6168 427.082C18.53 -2.01589 244.743 -50.0227 420.247 75.0321C595.751 200.087 539.647 671.858 714.073 412.265C888.498 152.673 1051.41 11.023 951.794 47.1763C811.328 98.1532 946.04 427.082 1064.36 341.737C1102.15 314.479 1173.69 135.288 1204.26 47.1763" stroke="#EFEFEF" stroke-opacity="0.5"/>
<path d="M-171 108.219C-85.7655 361.49 78.0863 782.211 51.6168 438.933C18.53 9.83488 244.743 -38.1719 420.247 86.8829C595.751 211.938 539.647 683.708 714.073 424.116C888.498 164.524 1051.41 22.8738 951.794 59.0271C811.328 110.004 946.04 438.933 1064.36 353.587C1102.15 326.329 1173.69 147.138 1204.26 59.0271" stroke="#EFEFEF" stroke-opacity="0.5"/>
<path d="M-171 120.07C-85.7655 373.341 78.0863 794.062 51.6168 450.784C18.53 21.6858 244.743 -26.3211 420.247 98.7338C595.751 223.789 539.647 695.559 714.073 435.967C888.498 176.374 1051.41 34.7247 951.794 70.8779C811.328 121.855 946.04 450.784 1064.36 365.438C1102.15 338.18 1173.69 158.989 1204.26 70.8779" stroke="#EFEFEF" stroke-opacity="0.5"/>
<path d="M-171 131.921C-85.7655 385.191 78.0863 805.913 51.6168 462.634C18.53 33.5364 244.743 -14.4705 420.247 110.584C595.751 235.639 539.647 707.41 714.073 447.817C888.498 188.225 1051.41 46.5752 951.794 82.7285C811.328 133.705 946.04 462.634 1064.36 377.289C1102.15 350.031 1173.69 170.84 1204.26 82.7285" stroke="#EFEFEF" stroke-opacity="0.5"/>
<path d="M-171 141.987C-85.7655 389.715 78.0863 801.231 51.6168 465.464C18.53 45.7552 244.743 -1.20118 420.247 121.117C595.751 243.436 539.647 704.883 714.073 450.971C888.498 197.059 1051.41 58.5087 951.794 93.8709C811.328 143.732 946.04 465.464 1064.36 381.986C1102.15 355.324 1173.69 180.054 1204.26 93.8709" stroke="#EFEFEF" stroke-opacity="0.5"/>
<path d="M-171 153.838C-85.7655 401.566 78.0863 813.082 51.6168 477.315C18.53 57.6063 244.743 10.6499 420.247 132.968C595.751 255.287 539.647 716.734 714.073 462.822C888.498 208.91 1051.41 70.3598 951.794 105.722C811.328 155.583 946.04 477.315 1064.36 393.837C1102.15 367.175 1173.69 191.905 1204.26 105.722" stroke="#EFEFEF" stroke-opacity="0.5"/>
<path d="M-171 165.688C-85.7655 413.417 78.0863 824.932 51.6168 489.166C18.53 69.457 244.743 22.5006 420.247 144.819C595.751 267.137 539.647 728.585 714.073 474.673C888.498 220.761 1051.41 82.2105 951.794 117.573C811.328 167.434 946.04 489.166 1064.36 405.688C1102.15 379.026 1173.69 203.756 1204.26 117.573" stroke="#EFEFEF" stroke-opacity="0.5"/>
<path d="M-171 177.539C-85.7655 425.268 78.0863 836.783 51.6168 501.016C18.53 81.3077 244.743 34.3514 420.247 156.67C595.751 278.988 539.647 740.436 714.073 486.524C888.498 232.612 1051.41 94.0613 951.794 129.423C811.328 179.285 946.04 501.016 1064.36 417.538C1102.15 390.877 1173.69 215.607 1204.26 129.423" stroke="#EFEFEF" stroke-opacity="0.5"/>
<path d="M-171 189.39C-85.7655 437.119 78.0863 848.634 51.6168 512.867C18.53 93.1585 244.743 46.2021 420.247 168.521C595.751 290.839 539.647 752.287 714.073 498.374C888.498 244.462 1051.41 105.912 951.794 141.274C811.328 191.136 946.04 512.867 1064.36 429.389C1102.15 402.728 1173.69 227.458 1204.26 141.274" stroke="#EFEFEF" stroke-opacity="0.5"/>
<path d="M-171 201.241C-85.7655 448.969 78.0863 860.485 51.6168 524.718C18.53 105.009 244.743 58.0529 420.247 180.371C595.751 302.69 539.647 764.137 714.073 510.225C888.498 256.313 1051.41 117.763 951.794 153.125C811.328 202.986 946.04 524.718 1064.36 441.24C1102.15 414.578 1173.69 239.308 1204.26 153.125" stroke="#EFEFEF" stroke-opacity="0.5"/>
<path d="M-171 213.091C-85.7655 460.82 78.0863 872.335 51.6168 536.569C18.53 116.86 244.743 69.9036 420.247 192.222C595.751 314.54 539.647 775.988 714.073 522.076C888.498 268.164 1051.41 129.614 951.794 164.976C811.328 214.837 946.04 536.569 1064.36 453.091C1102.15 426.429 1173.69 251.159 1204.26 164.976" stroke="#EFEFEF" stroke-opacity="0.5"/>
<path d="M-171 224.942C-85.7655 472.671 78.0863 884.186 51.6168 548.419C18.53 128.711 244.743 81.7545 420.247 204.073C595.751 326.391 539.647 787.839 714.073 533.927C888.498 280.015 1051.41 141.464 951.794 176.827C811.328 226.688 946.04 548.419 1064.36 464.942C1102.15 438.28 1173.69 263.01 1204.26 176.827" stroke="#EFEFEF" stroke-opacity="0.5"/>
<path d="M-171 236.793C-85.7655 484.522 78.0863 896.037 51.6168 560.27C18.53 140.562 244.743 93.6052 420.247 215.924C595.751 338.242 539.647 799.69 714.073 545.777C888.498 291.865 1051.41 153.315 951.794 188.677C811.328 238.539 946.04 560.27 1064.36 476.792C1102.15 450.131 1173.69 274.861 1204.26 188.677" stroke="#EFEFEF" stroke-opacity="0.5"/>
<path d="M-171 248.644C-85.7655 496.373 78.0863 907.888 51.6168 572.121C18.53 152.412 244.743 105.456 420.247 227.774C595.751 350.093 539.647 811.54 714.073 557.628C888.498 303.716 1051.41 165.166 951.794 200.528C811.328 250.39 946.04 572.121 1064.36 488.643C1102.15 461.981 1173.69 286.711 1204.26 200.528" stroke="#EFEFEF" stroke-opacity="0.5"/>
<path d="M-171 260.495C-85.7655 508.223 78.0863 919.739 51.6168 583.972C18.53 164.263 244.743 117.307 420.247 239.625C595.751 361.944 539.647 823.391 714.073 569.479C888.498 315.567 1051.41 177.017 951.794 212.379C811.328 262.24 946.04 583.972 1064.36 500.494C1102.15 473.832 1173.69 298.562 1204.26 212.379" stroke="#EFEFEF" stroke-opacity="0.5"/>
<path d="M-171 272.346C-85.7655 520.074 78.0863 931.59 51.6168 595.823C18.53 176.114 244.743 129.158 420.247 251.476C595.751 373.794 539.647 835.242 714.073 581.33C888.498 327.418 1051.41 188.868 951.794 224.23C811.328 274.091 946.04 595.823 1064.36 512.345C1102.15 485.683 1173.69 310.413 1204.26 224.23" stroke="#EFEFEF" stroke-opacity="0.5"/>
<path d="M-171 284.196C-85.7655 531.925 78.0863 943.44 51.6168 607.673C18.53 187.965 244.743 141.008 420.247 263.327C595.751 385.645 539.647 847.093 714.073 593.181C888.498 339.269 1051.41 200.718 951.794 236.081C811.328 285.942 946.04 607.673 1064.36 524.195C1102.15 497.534 1173.69 322.264 1204.26 236.081" stroke="#EFEFEF" stroke-opacity="0.5"/>
<path d="M-171 296.047C-85.7655 543.776 78.0863 955.291 51.6168 619.524C18.53 199.816 244.743 152.859 420.247 275.178C595.751 397.496 539.647 858.944 714.073 605.031C888.498 351.119 1051.41 212.569 951.794 247.931C811.328 297.793 946.04 619.524 1064.36 536.046C1102.15 509.385 1173.69 334.115 1204.26 247.931" stroke="#EFEFEF" stroke-opacity="0.5"/>
</svg>
