<svg width="40" height="40" viewBox="0 0 40 40" fill="none" xmlns="http://www.w3.org/2000/svg">
<circle cx="20" cy="20" r="20" fill="#EFEFEF"/>
<path d="M30.7148 11H9.28516C8.02258 11 7 12.0244 7 13.275V26.925C7 28.1831 8.0301 29.2 9.28516 29.2H30.7148C31.9669 29.2 33 28.1874 33 26.925V13.275C33 12.0266 31.9815 11 30.7148 11ZM30.3948 12.5167L21.6159 21.2106C21.1842 21.6403 20.6104 21.8769 20 21.8769C19.3896 21.8769 18.8158 21.6402 18.3827 21.2091L9.60518 12.5167H30.3948ZM8.52344 26.6163V13.5847L15.1066 20.104L8.52344 26.6163ZM9.60614 27.6833L16.1867 21.1736L17.3069 22.283C18.0263 22.9992 18.9827 23.3935 20 23.3935C21.0173 23.3935 21.9737 22.9992 22.6917 22.2844L23.8133 21.1736L30.3939 27.6833H9.60614ZM31.4766 26.6163L24.8934 20.104L31.4766 13.5847V26.6163Z" fill="#236FE3"/>
</svg>
