<svg width="40" height="40" viewBox="0 0 40 40" fill="none" xmlns="http://www.w3.org/2000/svg">
<circle cx="20" cy="20" r="20" fill="#EFEFEF"/>
<path d="M20 10.9428C16.8752 10.9428 14.3329 13.4851 14.3329 16.6099C14.3329 19.7347 16.8752 22.2769 20 22.2769C23.1248 22.2769 25.6671 19.7347 25.6671 16.6099C25.6671 13.4851 23.1248 10.9428 20 10.9428ZM20 20.7525C17.7157 20.7525 15.8572 18.8941 15.8572 16.6098C15.8572 14.3255 17.7157 12.4671 20 12.4671C22.2843 12.4671 24.1428 14.3256 24.1428 16.6099C24.1428 18.8942 22.2844 20.7525 20 20.7525Z" fill="#236FE3"/>
<path d="M20 7C14.7012 7 10.3903 11.3109 10.3903 16.6098C10.3903 19.6657 12.9531 24.2185 14.4808 26.6604C15.4859 28.2669 16.566 29.7958 17.522 30.9655C19.0566 32.8428 19.6058 32.9999 20.0001 32.9999C20.4003 32.9999 20.9189 32.8427 22.4487 30.9644C23.4068 29.7877 24.4874 28.2596 25.4916 26.6616C27.0297 24.2138 29.6099 19.6528 29.6099 16.6097C29.6099 11.3109 25.299 7 20 7ZM24.4348 25.4748C22.4638 28.6741 20.6543 30.8359 19.991 31.3878C19.3243 30.8529 17.5441 28.7424 15.5455 25.4848C13.238 21.7234 11.9147 18.4885 11.9147 16.6098C11.9146 12.1514 15.5417 8.52429 20 8.52429C24.4584 8.52429 28.0855 12.1514 28.0855 16.6098C28.0856 18.4777 26.7549 21.7088 24.4348 25.4748Z" fill="#236FE3"/>
</svg>
