<svg width="377" height="60" viewBox="0 0 377 60" fill="none" xmlns="http://www.w3.org/2000/svg">
<circle cx="30.4796" cy="29.8445" r="29.8445" fill="#EFEFEF"/>
<path d="M30.6163 38.2199L30.6163 36.1494" stroke="#14044D" stroke-width="0.13076" stroke-linecap="round" stroke-linejoin="round"/>
<path fill-rule="evenodd" clip-rule="evenodd" d="M30.6163 27.0708L41.2524 31.8689L30.6163 38.2198V27.0708Z" fill="#14044D" fill-opacity="0.795578" stroke="#14044D" stroke-width="0.0435865" stroke-linecap="round" stroke-linejoin="round"/>
<path fill-rule="evenodd" clip-rule="evenodd" d="M30.6164 27.0708V38.2198L20 31.8888L30.6164 27.0708Z" fill="url(#paint0_linear_486_12996)" fill-opacity="0.795578" stroke="#14044D" stroke-width="0.0435865" stroke-linecap="round" stroke-linejoin="round"/>
<path d="M30.6163 38.2201V46.9999L41.2327 31.8691L30.6163 38.2201Z" fill="#37367B" fill-opacity="0.796849" stroke="#14044D" stroke-width="0.0435865" stroke-linecap="round" stroke-linejoin="round"/>
<path d="M20 31.889L30.6164 46.9999V38.2201L20 31.889Z" fill="#716B94" fill-opacity="0.801464" stroke="#14044D" stroke-width="0.0435865" stroke-linecap="round" stroke-linejoin="round"/>
<path fill-rule="evenodd" clip-rule="evenodd" d="M30.6164 27.0708L41.2328 31.8689L30.6164 38.2198L20 31.8888L30.6164 27.0708Z" fill="url(#paint1_linear_486_12996)" fill-opacity="0.816398" stroke="#14044D" stroke-width="0.0435865" stroke-linecap="round" stroke-linejoin="round"/>
<path fill-rule="evenodd" clip-rule="evenodd" d="M30.6164 25.0005L41.2328 29.8185L30.6164 36.1296L20 29.8185L30.6164 25.0005Z" fill="#37367B" fill-opacity="0.91861" stroke="#14044D" stroke-width="0.0435865" stroke-linecap="round" stroke-linejoin="round"/>
<path d="M41.2327 29.8185L30.6163 12V36.1496L41.2327 29.8185Z" fill="#37367B" fill-opacity="0.798535" stroke="#14044D" stroke-width="0.0435865" stroke-linecap="round" stroke-linejoin="round"/>
<path d="M30.6164 12L20 29.8185L30.6164 36.1496V12Z" fill="#716B94" fill-opacity="0.801255" stroke="#14044D" stroke-width="0.0435865" stroke-linecap="round" stroke-linejoin="round"/>
<circle cx="93.9282" cy="29.6041" r="29.6041" fill="#EFEFEF"/>
<g clip-path="url(#clip0_486_12996)">
<path fill-rule="evenodd" clip-rule="evenodd" d="M81.4098 13.1719L74.0309 28.5815C74.0028 28.6388 73.9939 28.7036 74.0055 28.7663C74.0171 28.829 74.0485 28.8864 74.0953 28.93L94.0238 47.9159C94.0804 47.9698 94.1558 48 94.2343 48C94.3127 48 94.3881 47.9698 94.4447 47.9159L114.373 28.9312C114.42 28.8876 114.451 28.8302 114.463 28.7675C114.475 28.7048 114.466 28.64 114.438 28.5827L107.059 13.1731C107.035 13.1213 106.997 13.0775 106.948 13.0468C106.9 13.0161 106.844 12.9999 106.787 13H81.684C81.6265 12.9993 81.57 13.0152 81.5213 13.0457C81.4727 13.0762 81.4339 13.12 81.4098 13.1719Z" fill="#50AF95"/>
<path fill-rule="evenodd" clip-rule="evenodd" d="M96.7947 30.1639C96.6517 30.1746 95.9125 30.2185 94.2636 30.2185C92.9521 30.2185 92.021 30.1794 91.6943 30.1639C86.626 29.9423 82.843 29.0651 82.843 28.0149C82.843 26.9647 86.626 26.0887 91.6943 25.8635V29.2903C92.0257 29.314 92.9748 29.3698 94.2862 29.3698C95.86 29.3698 96.6481 29.3046 96.79 29.2915V25.8658C101.848 26.0899 105.622 26.967 105.622 28.0149C105.622 29.0627 101.849 29.9399 96.79 30.1628L96.7947 30.1639ZM96.7947 25.5114V22.4449H103.853V17.7687H84.6361V22.4449H91.6931V25.5102C85.9571 25.7722 81.6436 26.9018 81.6436 28.2555C81.6436 29.6092 85.9571 30.7377 91.6931 31.0008V40.8274H96.7936V30.9972C102.516 30.7353 106.823 29.6068 106.823 28.2543C106.823 26.9018 102.52 25.7734 96.7936 25.5102L96.7947 25.5114Z" fill="white"/>
</g>
<circle cx="157.136" cy="29.6041" r="29.6041" fill="#EFEFEF"/>
<path d="M174.271 33.7335C171.88 43.1084 162.164 48.8139 152.571 46.4761C142.981 44.1387 137.144 34.6429 139.536 25.2685C141.927 15.8924 151.642 10.1864 161.233 12.5237C170.826 14.861 176.663 24.3579 174.271 33.7335Z" fill="#F7931A"/>
<path d="M164.798 27.0072C165.155 24.6786 163.34 23.4268 160.86 22.5918L161.665 19.4374L159.7 18.9589L158.917 22.0301C158.4 21.9044 157.87 21.7857 157.343 21.6681L158.132 18.5767L156.168 18.0981L155.363 21.2514C154.936 21.1562 154.516 21.0622 154.109 20.9632L154.111 20.9534L151.401 20.2922L150.879 22.3429C150.879 22.3429 152.336 22.6694 152.306 22.6897C153.101 22.8838 153.245 23.3984 153.221 23.8064L152.305 27.3998C152.359 27.4135 152.43 27.4332 152.509 27.4638C152.443 27.448 152.373 27.4305 152.301 27.4135L151.016 32.4475C150.919 32.6837 150.672 33.0381 150.116 32.9035C150.136 32.9314 148.688 32.5552 148.688 32.5552L147.713 34.7531L150.269 35.3759C150.745 35.4924 151.211 35.6144 151.67 35.7292L150.857 38.9197L152.819 39.3982L153.624 36.2416C154.161 36.3838 154.681 36.5151 155.19 36.6387L154.388 39.7804L156.352 40.2589L157.165 37.0745C160.515 37.6941 163.034 37.4442 164.095 34.4829C164.949 32.0985 164.052 30.7232 162.29 29.8263C163.573 29.537 164.54 28.7118 164.798 27.0072ZM160.309 33.1589C159.702 35.5433 155.595 34.2543 154.263 33.9311L155.342 29.7044C156.673 30.0292 160.944 30.6723 160.309 33.1589ZM160.917 26.9727C160.363 29.1416 156.944 28.0397 155.835 27.7695L156.813 23.936C157.922 24.2061 161.494 24.7103 160.917 26.9727Z" fill="white"/>
<circle cx="220.345" cy="29.6041" r="29.6041" fill="#EFEFEF"/>
<g clip-path="url(#clip1_486_12996)">
<path fill-rule="evenodd" clip-rule="evenodd" d="M220.5 12C230.166 12 238 19.8343 238 29.5C238 39.1657 230.166 47 220.5 47C210.834 47 203 39.1657 203 29.5C203 19.8343 210.834 12 220.5 12Z" fill="#F0B90B"/>
<path d="M212.618 29.5L212.631 34.1274L216.563 36.4411V39.1502L210.33 35.4946V28.1468L212.618 29.5ZM212.618 24.8726V27.5691L210.328 26.2145V23.518L212.618 22.1635L214.919 23.518L212.618 24.8726ZM218.205 23.518L220.494 22.1635L222.795 23.518L220.494 24.8726L218.205 23.518Z" fill="white"/>
<path d="M214.273 33.1683V30.4591L216.563 31.8137V34.5102L214.273 33.1683ZM218.205 37.4114L220.494 38.766L222.795 37.4114V40.108L220.494 41.4625L218.205 40.108V37.4114ZM226.08 23.518L228.369 22.1635L230.67 23.518V26.2145L228.369 27.5691V24.8726L226.08 23.518ZM228.369 34.1274L228.382 29.5L230.672 28.1454V35.4932L224.439 39.1488V36.4397L228.369 34.1274Z" fill="white"/>
<path d="M226.727 33.1682L224.438 34.5102V31.8137L226.727 30.4591V33.1682Z" fill="white"/>
<path d="M226.727 25.8317L226.74 28.5409L222.797 30.8546V35.4932L220.507 36.8352L218.217 35.4932V30.8546L214.274 28.5409V25.8317L216.574 24.4772L220.493 26.8021L224.436 24.4772L226.737 25.8317H226.727ZM214.273 21.2057L220.494 17.5375L226.727 21.2057L224.438 22.5603L220.494 20.2354L216.563 22.5603L214.273 21.2057Z" fill="white"/>
</g>
<circle cx="283.553" cy="29.6041" r="29.6041" fill="#EFEFEF"/>
<mask id="mask0_486_12996" style="mask-type:alpha" maskUnits="userSpaceOnUse" x="258" y="4" width="52" height="52">
<circle cx="283.712" cy="29.7639" r="25.3735" fill="#D9D9D9" stroke="black" stroke-width="0.215929"/>
</mask>
<g mask="url(#mask0_486_12996)">
</g>
<g clip-path="url(#clip2_486_12996)">
<path d="M284.5 47C294.198 47 302 39.198 302 29.5C302 19.802 294.198 12 284.5 12C274.802 12 267 19.802 267 29.5C267 39.198 274.802 47 284.5 47Z" fill="#2775CA"/>
<path d="M289.313 32.2708C289.313 29.7187 287.781 28.8437 284.719 28.4792C282.531 28.1875 282.094 27.6042 282.094 26.5833C282.094 25.5623 282.823 24.9062 284.281 24.9062C285.594 24.9062 286.323 25.3437 286.688 26.4375C286.76 26.6562 286.979 26.802 287.198 26.802H288.365C288.656 26.802 288.875 26.5833 288.875 26.2917V26.2187C288.583 24.6145 287.271 23.375 285.594 23.2292V21.4792C285.594 21.1875 285.375 20.9687 285.01 20.8958H283.917C283.625 20.8958 283.406 21.1145 283.333 21.4792V23.1562C281.146 23.448 279.76 24.9062 279.76 26.7292C279.76 29.1355 281.219 30.0833 284.281 30.448C286.323 30.8125 286.979 31.25 286.979 32.4167C286.979 33.5834 285.958 34.3855 284.573 34.3855C282.677 34.3855 282.021 33.5833 281.802 32.4895C281.729 32.198 281.51 32.052 281.292 32.052H280.052C279.76 32.052 279.542 32.2708 279.542 32.5625V32.6355C279.833 34.4583 281 35.7708 283.406 36.1355V37.8855C283.406 38.177 283.625 38.3958 283.99 38.4687H285.083C285.375 38.4687 285.594 38.25 285.667 37.8855V36.1355C287.854 35.7708 289.313 34.2395 289.313 32.2708Z" fill="white"/>
<path d="M280.781 39.927C275.094 37.8855 272.177 31.5417 274.292 25.927C275.385 22.8645 277.792 20.5313 280.781 19.4375C281.073 19.2917 281.219 19.073 281.219 18.7083V17.6875C281.219 17.3958 281.073 17.177 280.781 17.1042C280.708 17.1042 280.563 17.1042 280.49 17.177C273.563 19.3645 269.771 26.7292 271.958 33.6563C273.271 37.7395 276.406 40.875 280.49 42.1875C280.781 42.3333 281.073 42.1875 281.146 41.8958C281.219 41.823 281.219 41.75 281.219 41.6042V40.5833C281.219 40.3645 281 40.073 280.781 39.927ZM288.51 17.177C288.219 17.0313 287.927 17.177 287.854 17.4688C287.781 17.5417 287.781 17.6145 287.781 17.7605V18.7813C287.781 19.073 288 19.3645 288.219 19.5105C293.906 21.552 296.823 27.8958 294.708 33.5105C293.615 36.573 291.208 38.9063 288.219 40C287.927 40.1458 287.781 40.3645 287.781 40.7292V41.75C287.781 42.0417 287.927 42.2605 288.219 42.3333C288.292 42.3333 288.438 42.3333 288.51 42.2605C295.438 40.073 299.229 32.7083 297.042 25.7813C295.729 21.625 292.521 18.4895 288.51 17.177Z" fill="white"/>
</g>
<circle cx="346.761" cy="29.6041" r="29.6041" fill="#EFEFEF"/>
<g clip-path="url(#clip3_486_12996)">
<path d="M333.497 37.9276C333.739 37.6862 334.071 37.5454 334.423 37.5454H366.346C366.93 37.5454 367.221 38.2495 366.809 38.6618L360.503 44.9681C360.261 45.2095 359.929 45.3503 359.577 45.3503H327.654C327.07 45.3503 326.779 44.6462 327.191 44.2339L333.497 37.9276Z" fill="url(#paint2_linear_486_12996)"/>
<path d="M333.497 14.3822C333.749 14.1408 334.08 14 334.422 14H366.346C366.929 14 367.221 14.704 366.809 15.1164L360.502 21.4227C360.261 21.6641 359.929 21.8049 359.577 21.8049H327.654C327.07 21.8049 326.778 21.1008 327.191 20.6885L333.497 14.3822Z" fill="url(#paint3_linear_486_12996)"/>
<path d="M360.503 26.0795C360.261 25.8381 359.929 25.6973 359.577 25.6973H327.654C327.07 25.6973 326.779 26.4013 327.191 26.8137L333.497 33.1199C333.739 33.3613 334.071 33.5021 334.423 33.5021H366.346C366.93 33.5021 367.221 32.7981 366.809 32.3857L360.503 26.0795Z" fill="url(#paint4_linear_486_12996)"/>
</g>
<defs>
<linearGradient id="paint0_linear_486_12996" x1="20" y1="32.6453" x2="30.6164" y2="32.6453" gradientUnits="userSpaceOnUse">
<stop stop-color="#716B94"/>
<stop offset="1" stop-color="#37367B"/>
</linearGradient>
<linearGradient id="paint1_linear_486_12996" x1="20" y1="32.6453" x2="41.2328" y2="32.6453" gradientUnits="userSpaceOnUse">
<stop stop-color="#716B94"/>
<stop offset="1" stop-color="#37367B"/>
</linearGradient>
<linearGradient id="paint2_linear_486_12996" x1="363.297" y1="10.2328" x2="341.203" y2="52.5511" gradientUnits="userSpaceOnUse">
<stop stop-color="#00FFA3"/>
<stop offset="1" stop-color="#DC1FFF"/>
</linearGradient>
<linearGradient id="paint3_linear_486_12996" x1="353.636" y1="5.1892" x2="331.542" y2="47.5074" gradientUnits="userSpaceOnUse">
<stop stop-color="#00FFA3"/>
<stop offset="1" stop-color="#DC1FFF"/>
</linearGradient>
<linearGradient id="paint4_linear_486_12996" x1="358.436" y1="7.69496" x2="336.342" y2="50.0132" gradientUnits="userSpaceOnUse">
<stop stop-color="#00FFA3"/>
<stop offset="1" stop-color="#DC1FFF"/>
</linearGradient>
<clipPath id="clip0_486_12996">
<rect width="40.4688" height="35" fill="white" transform="translate(74 13)"/>
</clipPath>
<clipPath id="clip1_486_12996">
<rect width="35" height="35" fill="white" transform="translate(203 12)"/>
</clipPath>
<clipPath id="clip2_486_12996">
<rect width="35" height="35" fill="white" transform="translate(267 12)"/>
</clipPath>
<clipPath id="clip3_486_12996">
<rect width="40" height="31.3503" fill="white" transform="translate(327 14)"/>
</clipPath>
</defs>
</svg>
