<svg width="377" height="60" viewBox="0 0 377 60" fill="none" xmlns="http://www.w3.org/2000/svg">
<circle cx="30.4795" cy="29.8445" r="29.8445" fill="#EFEFEF"/>
<path d="M23.4213 27.6691H48.3097V27.6695H23.4213V27.6691ZM24.7176 20.8454H47.0125V20.8458H24.7176V20.8454ZM23.831 23.1196H47.8982V23.12H23.831V23.1196ZM28.7374 36.7666H42.9928L42.9935 36.7658H28.7366L28.7374 36.7666ZM35.8649 14C35.6194 14 35.3758 14.0089 35.134 14.0227H36.596C36.354 14.0089 36.1104 14 35.8649 14ZM23.4165 25.3944H48.3129V25.3947H23.4165V25.3944Z" fill="#C42126"/>
<path d="M39.5595 18.5711H45.5283C44.8194 17.708 43.9954 16.944 43.0825 16.2972H38.6004C38.9713 16.9497 39.2902 17.7196 39.5595 18.5711Z" fill="#E7E7E7"/>
<path d="M38.6004 16.2972H43.0825C41.2295 14.9841 39.005 14.1618 36.5959 14.0227H36.211C37.3449 14.1654 37.8657 15.0046 38.6004 16.2972Z" fill="#DC3027"/>
<path d="M47.899 23.1198C47.6789 22.3346 47.3819 21.5729 47.0124 20.8459H40.1454C40.2846 21.576 40.3944 22.3386 40.4756 23.1198H47.899Z" fill="#E7E7E7"/>
<path d="M39.7591 20.8455H47.0121C46.5988 20.0326 46.1023 19.2697 45.5283 18.5712H39.1925C39.4159 19.2784 39.6056 20.0413 39.7591 20.8455Z" fill="#DC3027"/>
<path d="M40.7385 27.6686H48.3087C48.3446 27.284 48.3649 26.8941 48.3649 26.5002C48.3649 26.1274 48.3454 25.7593 48.3134 25.3945H40.7403C40.7651 26.1524 40.7645 26.9108 40.7385 27.6686Z" fill="#E7E7E7"/>
<path d="M48.3136 25.3942C48.2462 24.625 48.1074 23.8637 47.8989 23.1202H40.1567C40.2344 23.8649 40.2858 24.6268 40.3108 25.3942H48.3136Z" fill="#DC3027"/>
<path d="M40.0148 32.2174H46.9796C47.3542 31.4908 47.6561 30.729 47.8808 29.9431H40.3515C40.2686 30.7255 40.1561 31.4879 40.0148 32.2174Z" fill="#E7E7E7"/>
<path d="M47.881 29.9429C48.094 29.1999 48.2373 28.4386 48.3088 27.669H40.5026C40.476 28.437 40.4231 29.1986 40.3438 29.9429H47.881Z" fill="#DC3027"/>
<path d="M42.9934 36.7658C43.9195 36.1216 44.7551 35.3567 45.4754 34.4919H39.6105C39.3364 35.3469 39.0109 36.1156 38.6333 36.7658H42.9934Z" fill="#E7E7E7"/>
<path d="M39.3899 34.4917H45.4754C46.0561 33.794 46.5602 33.0311 46.9795 32.2174H39.9636C39.8079 33.0222 39.6163 33.7855 39.3899 34.4917ZM35.4119 38.9911C35.3866 38.9903 35.3613 38.9892 35.3361 38.9884C35.3613 38.9891 35.3866 38.9903 35.4119 38.9911ZM35.8649 39C38.5149 39 40.9704 38.1728 42.9927 36.7666H38.4688C37.6658 38.1499 37.1361 39 35.8649 39Z" fill="#DC3027"/>
<path d="M35.8648 39.0001C35.713 39.0001 35.5622 38.9965 35.4119 38.9911C35.5638 38.9963 35.7148 39.0001 35.8648 39.0001Z" fill="#C42126"/>
<path d="M39.0143 16.2972H28.6476C27.7346 16.944 26.9107 17.708 26.2015 18.5711H39.9731C39.7039 17.7196 39.3852 16.9497 39.0143 16.2972Z" fill="#F3F4F5"/>
<path d="M28.6476 16.2972H39.0143C38.2796 15.0046 37.345 14.1654 36.2111 14.0227H35.134C32.7249 14.1618 30.5003 14.9841 28.6476 16.2972Z" fill="#E73625"/>
<path d="M23.8312 23.1198H40.8698C40.7885 22.3384 40.6788 21.576 40.5396 20.8459H24.7178C24.3483 21.5729 24.0513 22.3346 23.8312 23.1198Z" fill="#F3F4F5"/>
<path d="M26.2015 18.5711C25.628 19.2696 25.131 20.0324 24.7179 20.8454H40.5396C40.3862 20.0413 40.1966 19.2785 39.9731 18.5711H26.2015Z" fill="#E73625"/>
<path d="M23.365 26.5002C23.365 26.8941 23.3855 27.2839 23.4213 27.6686H41.0226C41.0487 26.9126 41.049 26.151 41.0244 25.3947H23.4165C23.3845 25.7593 23.365 26.1273 23.365 26.5002Z" fill="#F3F4F5"/>
<path d="M23.4165 25.3942H41.0242C40.9997 24.6346 40.9483 23.8761 40.87 23.1202H23.831C23.6225 23.8637 23.4838 24.625 23.4165 25.3942Z" fill="#E73625"/>
<path d="M40.8637 29.9429H23.8491C24.0739 30.7288 24.3757 31.4906 24.7503 32.2172H40.527C40.6683 31.4879 40.7806 30.7255 40.8637 29.9429Z" fill="#F3F4F5"/>
<path d="M23.8491 29.9429H40.8637C40.9428 29.1986 40.9959 28.4368 41.0225 27.669H23.4212C23.4929 28.4386 23.6361 29.1999 23.8491 29.9429Z" fill="#E73625"/>
<path d="M28.7366 36.7658H38.9762C39.3538 36.1154 39.6794 35.3469 39.9534 34.4919H26.2546C26.9762 35.3577 27.811 36.1225 28.7366 36.7658Z" fill="#F3F4F5"/>
<path d="M24.7504 32.2174C25.1699 33.0311 25.6739 33.794 26.2546 34.4917H39.9533C40.1795 33.7855 40.3712 33.0223 40.5269 32.2174H24.7504ZM35.336 38.9883C35.3613 38.9891 35.3865 38.9903 35.4118 38.9911C35.5622 38.9964 35.713 39 35.8647 39C37.136 39 38.1726 38.1499 38.9757 36.7665H28.7373C30.624 38.0787 32.8886 38.8863 35.336 38.9883Z" fill="#E73625"/>
<path d="M35.6064 14.0066C29.2008 14.1369 23.9799 19.0827 23.418 25.3739H35.6066V14.0066H35.6064Z" fill="#283991"/>
<path d="M25.8661 21.0822L26.0565 21.6686H26.6735L26.1744 22.0311L26.365 22.6179L25.8661 22.2551L25.3673 22.6179L25.5576 22.0311L25.0586 21.6686H25.6756L25.8661 21.0822ZM25.8661 23.1538L26.0565 23.7405H26.6735L26.1744 24.1031L26.365 24.6899L25.8661 24.3271L25.3673 24.6899L25.5576 24.1031L25.0586 23.7405H25.6756L25.8661 23.1538ZM27.9381 17.974L28.1286 18.5606H28.7453L28.2464 18.9234L28.4368 19.5098L27.9381 19.1474L27.4391 19.5098L27.6296 18.9234L27.1304 18.5606H27.7474L27.9381 17.974ZM27.9381 20.046L28.1286 20.6326H28.7453L28.2464 20.9949L28.4368 21.5817L27.9381 21.2194L27.4391 21.5817L27.6296 20.9949L27.1304 20.6326H27.7474L27.9381 20.046ZM27.9381 22.118L28.1286 22.7048H28.7453L28.2464 23.0669L28.4368 23.6537L27.9381 23.291L27.4391 23.6537L27.6296 23.0669L27.1304 22.7048H27.7474L27.9381 22.118ZM24.293 23.6537L24.1024 23.0669L24.6013 22.7045H23.9847L23.9709 22.6617C23.9033 22.8719 23.8415 23.0839 23.7856 23.2975L23.7943 23.291L24.293 23.6537ZM25.3673 20.546L25.8661 20.1832L26.3651 20.546L26.1744 19.9592L26.6734 19.5964H26.0564L25.8659 19.01L25.6754 19.5964H25.4481C25.4058 19.6604 25.365 19.7247 25.3239 19.7896L25.5576 19.9592L25.3673 20.546ZM27.9381 17.0754L28.4368 17.4378L28.2464 16.8514L28.7451 16.4887H28.3889C28.0864 16.7146 27.7945 16.9543 27.5139 17.2069L27.4387 17.4378L27.9381 17.0754ZM29.5111 16.402L30.0101 16.0392L30.5088 16.402L30.3184 15.8152L30.8171 15.4528H30.2003L30.1745 15.3739C29.9655 15.4806 29.7586 15.5917 29.5565 15.71L29.7014 15.8151L29.5111 16.402ZM30.0101 16.9382L30.2006 17.5244H30.8173L30.3184 17.8872L30.5088 18.474L30.0101 18.1112L29.5111 18.474L29.7016 17.8872L29.2025 17.5244H29.8194L30.0101 16.9382ZM30.0101 19.0102L30.2006 19.5964H30.8173L30.3184 19.9592L30.5088 20.546L30.0101 20.1832L29.5111 20.546L29.7016 19.9592L29.2025 19.5964H29.8194L30.0101 19.0102ZM30.0101 21.0822L30.2006 21.6686H30.8173L30.3184 22.0311L30.5088 22.6179L30.0101 22.2551L29.5111 22.6179L29.7016 22.0311L29.2025 21.6686H29.8194L30.0101 21.0822ZM30.0101 23.1538L30.2006 23.7405H30.8173L30.3184 24.1031L30.5088 24.6899L30.0101 24.3271L29.5111 24.6899L29.7016 24.1031L29.2025 23.7405H29.8194L30.0101 23.1538ZM32.0821 15.902L32.2726 16.4886H32.8893L32.3906 16.8514L32.5808 17.4378L32.0821 17.0754L31.5829 17.4378L31.7736 16.8514L31.2745 16.4886H31.8914L32.0821 15.902ZM32.0821 17.974L32.2726 18.5606H32.8893L32.3906 18.9234L32.5808 19.5098L32.0821 19.1474L31.5829 19.5098L31.7736 18.9234L31.2745 18.5606H31.8914L32.0821 17.974ZM32.0821 20.046L32.2726 20.6326H32.8893L32.3906 20.9949L32.5808 21.5817L32.0821 21.2194L31.5829 21.5817L31.7736 20.9949L31.2745 20.6326H31.8914L32.0821 20.046ZM32.0821 22.118L32.2726 22.7048H32.8893L32.3906 23.0669L32.5808 23.6537L32.0821 23.291L31.5829 23.6537L31.7736 23.0669L31.2745 22.7048H31.8914L32.0821 22.118ZM34.1541 14.8662L34.3446 15.4528H34.9613L34.4624 15.8152L34.6528 16.402L34.1541 16.0392L33.6549 16.402L33.8456 15.8152L33.3465 15.4528H33.9632L34.1541 14.8662ZM34.1541 16.9382L34.3446 17.5244H34.9613L34.4624 17.8872L34.6528 18.474L34.1541 18.1112L33.6549 18.474L33.8456 17.8872L33.3465 17.5244H33.9632L34.1541 16.9382ZM34.1541 19.0102L34.3446 19.5964H34.9613L34.4624 19.9592L34.6528 20.546L34.1541 20.1832L33.6549 20.546L33.8456 19.9592L33.3465 19.5964H33.9632L34.1541 19.0102ZM34.1541 21.0822L34.3446 21.6686H34.9613L34.4624 22.0311L34.6528 22.6179L34.1541 22.2551L33.6549 22.6179L33.8456 22.0311L33.3465 21.6686H33.9632L34.1541 21.0822ZM34.1541 23.1538L34.3446 23.7405H34.9613L34.4624 24.1031L34.6528 24.6899L34.1541 24.3271L33.6549 24.6899L33.8456 24.1031L33.3465 23.7405H33.9632L34.1541 23.1538Z" fill="#EFEFEF"/>
<path d="M23.4999 21V46C30.4037 46 36.0001 40.4036 36.0001 33.5002C36.0001 26.5962 30.4036 21 23.4999 21Z" fill="#214391"/>
<path d="M23.4998 21C16.5964 21 11 26.5962 11 33.5002C11 40.4036 16.5964 46 23.4998 46C30.4036 46 30.4036 21 23.4998 21Z" fill="#2B479D"/>
<path d="M23.4785 23.1679L23.7834 24.1062H24.7703L23.972 24.6861L24.2769 25.6244L23.4785 25.0441L22.6804 25.6244L22.9853 24.6861L22.1867 24.1062H23.1736L23.4785 23.1679ZM23.4785 40.881L23.7834 41.8197H24.7703L23.972 42.3996L24.2769 43.3379L23.4785 42.758L22.6804 43.3379L22.9853 42.3996L22.1867 41.8197H23.1736L23.4785 40.881ZM28.3399 24.7378L28.6447 25.6763H29.6315L28.8331 26.2565L29.1381 27.1948L28.3399 26.6146L27.5416 27.1948L27.8465 26.2565L27.0483 25.6763H28.0352L28.3399 24.7378ZM31.6567 28.0102L31.9615 28.9485H32.9483L32.15 29.5286L32.4549 30.4669L31.6567 29.887L30.8584 30.4669L31.1633 29.5286L30.3649 28.9485H31.3516L31.6567 28.0102ZM31.7357 36.278L32.0404 37.2167H33.0272L32.2289 37.7965L32.534 38.7346L31.7357 38.155L30.9373 38.7346L31.2423 37.7965L30.4439 37.2167H31.4307L31.7357 36.278ZM15.4205 28.0102L15.7253 28.9485H16.7119L15.9137 29.5286L16.2185 30.4669L15.4205 29.887L14.6222 30.4669L14.9271 29.5286L14.1289 28.9485H15.1158L15.4205 28.0102ZM32.4255 31.9532L32.7302 32.8915H33.7171L32.9187 33.4714L33.2236 34.4099L32.4255 33.8302L31.6271 34.4099L31.9322 33.4714L31.1337 32.8915H32.1203L32.4255 31.9532ZM14.6666 31.9532L14.9713 32.8915H15.958L15.1596 33.4714L15.4647 34.4099L14.6666 33.8302L13.8682 34.4099L14.1731 33.4714L13.3748 32.8915H14.3616L14.6666 31.9532ZM15.3135 36.278L15.6183 37.2167H16.6049L15.8068 37.7965L16.1115 38.7346L15.3135 38.155L14.5152 38.7346L14.8201 37.7965L14.0218 37.2167H15.0086L15.3135 36.278ZM28.483 39.6899L28.7877 40.6282H29.7746L28.9761 41.2085L29.2812 42.1468L28.483 41.5669L27.6845 42.1468L27.9896 41.2085L27.1912 40.6282H28.1781L28.483 39.6899ZM18.7746 24.7378L19.0793 25.6763H20.0662L19.2679 26.2565L19.573 27.1948L18.7746 26.6146L17.9765 27.1948L18.2814 26.2565L17.483 25.6763H18.4697L18.7746 24.7378ZM18.4146 39.6299L18.7195 40.5686H19.7064L18.9081 41.1483L19.213 42.0866L18.4146 41.5071L17.6165 42.0866L17.9214 41.1483L17.123 40.5686H18.1097L18.4146 39.6299Z" fill="#F8D12E"/>
<circle cx="93.928" cy="29.6041" r="29.6041" fill="#EFEFEF"/>
<path d="M112.749 25.4995C112.749 32.2647 107.265 37.7489 100.499 37.7489C93.7343 37.7489 88.25 32.2647 88.25 25.4995C88.25 18.7343 93.7343 13.25 100.499 13.25C107.265 13.25 112.749 18.7343 112.749 25.4995Z" fill="url(#paint0_linear_489_13196)" stroke="#9C9C9C" stroke-width="0.5"/>
<path d="M100.499 30.1044C103.043 30.1044 105.104 28.0427 105.104 25.4995C105.104 22.9563 103.043 20.8946 100.499 20.8946C97.9563 20.8946 95.8946 22.9563 95.8946 25.4995C95.8946 28.0427 97.9563 30.1044 100.499 30.1044Z" fill="#EC1C24"/>
<path d="M76.0563 33.6691H100.945V33.6695H76.0563V33.6691ZM77.3526 26.8454H99.6475V26.8457H77.3526V26.8454ZM76.466 29.1196H100.533V29.12H76.466V29.1196ZM81.3724 42.7666H95.6278L95.6285 42.7658H81.3716L81.3724 42.7666ZM88.4999 20C88.2544 20 88.0108 20.0089 87.769 20.0227H89.231C88.989 20.0089 88.7455 20 88.4999 20ZM76.0515 31.3944H100.948V31.3947H76.0515V31.3944Z" fill="#C42126"/>
<path d="M92.1945 24.5711H98.1633C97.4544 23.708 96.6304 22.944 95.7175 22.2972H91.2354C91.6063 22.9497 91.9252 23.7196 92.1945 24.5711Z" fill="#E7E7E7"/>
<path d="M91.2354 22.2972H95.7175C93.8646 20.9841 91.64 20.1618 89.2309 20.0227H88.846C89.9799 20.1654 90.5007 21.0046 91.2354 22.2972Z" fill="#DC3027"/>
<path d="M100.534 29.1198C100.314 28.3345 100.017 27.5729 99.6474 26.8459H92.7805C92.9196 27.576 93.0294 28.3386 93.1106 29.1198H100.534Z" fill="#E7E7E7"/>
<path d="M92.3942 26.8455H99.6472C99.2338 26.0326 98.7373 25.2697 98.1633 24.5712H91.8275C92.0509 25.2784 92.2406 26.0413 92.3942 26.8455Z" fill="#DC3027"/>
<path d="M93.3735 33.6686H100.944C100.98 33.2839 101 32.8941 101 32.5002C101 32.1273 100.98 31.7593 100.948 31.3945H93.3753C93.4001 32.1523 93.3995 32.9108 93.3735 33.6686Z" fill="#E7E7E7"/>
<path d="M100.949 31.3941C100.881 30.6249 100.742 29.8637 100.534 29.1202H92.7917C92.8694 29.8649 92.9208 30.6267 92.9459 31.3941H100.949Z" fill="#DC3027"/>
<path d="M92.6498 38.2173H99.6146C99.9892 37.4908 100.291 36.729 100.516 35.9431H92.9865C92.9036 36.7255 92.7911 37.4879 92.6498 38.2173Z" fill="#E7E7E7"/>
<path d="M100.516 35.9429C100.729 35.1999 100.872 34.4386 100.944 33.669H93.1376C93.111 34.437 93.0581 35.1986 92.9788 35.9429H100.516Z" fill="#DC3027"/>
<path d="M95.6284 42.7658C96.5545 42.1215 97.3902 41.3567 98.1104 40.4919H92.2455C91.9714 41.3469 91.6459 42.1156 91.2683 42.7658H95.6284Z" fill="#E7E7E7"/>
<path d="M92.0249 40.4917H98.1104C98.6911 39.794 99.1952 39.0311 99.6145 38.2174H92.5986C92.4429 39.0222 92.2513 39.7855 92.0249 40.4917ZM88.0469 44.9911C88.0216 44.9903 87.9964 44.9892 87.9711 44.9884C87.9964 44.9891 88.0216 44.9903 88.0469 44.9911ZM88.4999 45C91.15 45 93.6054 44.1728 95.6277 42.7666H91.1038C90.3008 44.1499 89.7711 45 88.4999 45Z" fill="#DC3027"/>
<path d="M88.4998 45.0001C88.348 45.0001 88.1972 44.9965 88.0469 44.9911C88.1988 44.9963 88.3498 45.0001 88.4998 45.0001Z" fill="#C42126"/>
<path d="M91.6493 22.2972H81.2826C80.3696 22.944 79.5457 23.7079 78.8365 24.5711H92.6081C92.3389 23.7196 92.0202 22.9497 91.6493 22.2972Z" fill="#F3F4F5"/>
<path d="M81.2827 22.2972H91.6494C90.9146 21.0046 89.98 20.1654 88.8461 20.0227H87.769C85.3599 20.1618 83.1354 20.9841 81.2827 22.2972Z" fill="#E73625"/>
<path d="M76.4662 29.1198H93.5048C93.4235 28.3384 93.3138 27.576 93.1747 26.8459H77.3528C76.9833 27.5729 76.6863 28.3345 76.4662 29.1198Z" fill="#F3F4F5"/>
<path d="M78.8365 24.5711C78.263 25.2695 77.766 26.0324 77.3529 26.8454H93.1746C93.0212 26.0413 92.8316 25.2785 92.6081 24.5711H78.8365Z" fill="#E73625"/>
<path d="M76 32.5002C76 32.8941 76.0205 33.2839 76.0563 33.6686H93.6576C93.6837 32.9126 93.684 32.151 93.6594 31.3947H76.0515C76.0195 31.7592 76 32.1273 76 32.5002Z" fill="#F3F4F5"/>
<path d="M76.0515 31.3941H93.6592C93.6347 30.6346 93.5833 29.8761 93.505 29.1202H76.466C76.2575 29.8637 76.1188 30.6249 76.0515 31.3941Z" fill="#E73625"/>
<path d="M93.4987 35.9429H76.4841C76.7089 36.7288 77.0108 37.4906 77.3853 38.2172H93.162C93.3033 37.4879 93.4156 36.7254 93.4987 35.9429Z" fill="#F3F4F5"/>
<path d="M76.4841 35.9429H93.4987C93.5778 35.1986 93.6309 34.4368 93.6575 33.669H76.0562C76.1279 34.4386 76.2711 35.1999 76.4841 35.9429Z" fill="#E73625"/>
<path d="M81.3716 42.7658H91.6112C91.9888 42.1154 92.3144 41.3469 92.5884 40.4919H78.8896C79.6112 41.3577 80.446 42.1225 81.3716 42.7658Z" fill="#F3F4F5"/>
<path d="M77.3854 38.2173C77.8049 39.0311 78.3089 39.7939 78.8896 40.4916H92.5883C92.8145 39.7855 93.0062 39.0222 93.1619 38.2173H77.3854ZM87.971 44.9883C87.9963 44.9891 88.0215 44.9903 88.0468 44.9911C88.1972 44.9964 88.348 44.9999 88.4997 44.9999C89.771 44.9999 90.8076 44.1499 91.6107 42.7665H81.3723C83.259 44.0787 85.5236 44.8863 87.971 44.9883Z" fill="#E73625"/>
<path d="M88.2414 20.0066C81.8358 20.1369 76.6149 25.0827 76.053 31.3739H88.2416V20.0066H88.2414Z" fill="#283991"/>
<path d="M78.5011 27.0822L78.6915 27.6685H79.3085L78.8094 28.0311L79 28.6179L78.5011 28.2551L78.0023 28.6179L78.1926 28.0311L77.6936 27.6685H78.3106L78.5011 27.0822ZM78.5011 29.1538L78.6915 29.7405H79.3085L78.8094 30.1031L79 30.6899L78.5011 30.3271L78.0023 30.6899L78.1926 30.1031L77.6936 29.7405H78.3106L78.5011 29.1538ZM80.5731 23.974L80.7636 24.5606H81.3803L80.8814 24.9234L81.0719 25.5097L80.5731 25.1474L80.0741 25.5097L80.2646 24.9234L79.7654 24.5606H80.3824L80.5731 23.974ZM80.5731 26.046L80.7636 26.6326H81.3803L80.8814 26.9949L81.0719 27.5817L80.5731 27.2193L80.0741 27.5817L80.2646 26.9949L79.7654 26.6326H80.3824L80.5731 26.046ZM80.5731 28.118L80.7636 28.7047H81.3803L80.8814 29.0669L81.0719 29.6537L80.5731 29.291L80.0741 29.6537L80.2646 29.0669L79.7654 28.7047H80.3824L80.5731 28.118ZM76.928 29.6537L76.7374 29.0669L77.2363 28.7045H76.6197L76.6059 28.6617C76.5383 28.8719 76.4765 29.0839 76.4206 29.2974L76.4293 29.291L76.928 29.6537ZM78.0023 26.5459L78.5011 26.1832L79.0001 26.5459L78.8094 25.9591L79.3084 25.5964H78.6914L78.5009 25.01L78.3105 25.5964H78.0831C78.0409 25.6604 78 25.7247 77.9589 25.7896L78.1926 25.9591L78.0023 26.5459ZM80.5731 23.0754L81.0719 23.4378L80.8814 22.8514L81.3801 22.4886H81.0239C80.7214 22.7146 80.4295 22.9543 80.1489 23.2069L80.0737 23.4378L80.5731 23.0754ZM82.1461 22.402L82.6451 22.0392L83.1438 22.402L82.9534 21.8152L83.4521 21.4528H82.8354L82.8095 21.3739C82.6005 21.4806 82.3936 21.5917 82.1915 21.7099L82.3364 21.8151L82.1461 22.402ZM82.6451 22.9382L82.8356 23.5244H83.4523L82.9534 23.8872L83.1438 24.474L82.6451 24.1112L82.1461 24.474L82.3366 23.8872L81.8375 23.5244H82.4544L82.6451 22.9382ZM82.6451 25.0102L82.8356 25.5964H83.4523L82.9534 25.9591L83.1438 26.5459L82.6451 26.1831L82.1461 26.5459L82.3366 25.9591L81.8375 25.5964H82.4544L82.6451 25.0102ZM82.6451 27.0822L82.8356 27.6685H83.4523L82.9534 28.0311L83.1438 28.6179L82.6451 28.2551L82.1461 28.6179L82.3366 28.0311L81.8375 27.6685H82.4544L82.6451 27.0822ZM82.6451 29.1538L82.8356 29.7405H83.4523L82.9534 30.1031L83.1438 30.6899L82.6451 30.3271L82.1461 30.6899L82.3366 30.1031L81.8375 29.7405H82.4544L82.6451 29.1538ZM84.7171 21.902L84.9076 22.4886H85.5243L85.0256 22.8514L85.2158 23.4378L84.7171 23.0754L84.218 23.4378L84.4086 22.8514L83.9095 22.4886H84.5264L84.7171 21.902ZM84.7171 23.974L84.9076 24.5606H85.5243L85.0256 24.9234L85.2158 25.5097L84.7171 25.1474L84.218 25.5097L84.4086 24.9234L83.9095 24.5606H84.5264L84.7171 23.974ZM84.7171 26.046L84.9076 26.6326H85.5243L85.0256 26.9949L85.2158 27.5817L84.7171 27.2193L84.218 27.5817L84.4086 26.9949L83.9095 26.6326H84.5264L84.7171 26.046ZM84.7171 28.118L84.9076 28.7047H85.5243L85.0256 29.0669L85.2158 29.6537L84.7171 29.291L84.218 29.6537L84.4086 29.0669L83.9095 28.7047H84.5264L84.7171 28.118ZM86.7891 20.8662L86.9796 21.4528H87.5963L87.0974 21.8152L87.2878 22.402L86.7891 22.0392L86.29 22.402L86.4806 21.8152L85.9815 21.4528H86.5982L86.7891 20.8662ZM86.7891 22.9382L86.9796 23.5244H87.5963L87.0974 23.8872L87.2878 24.474L86.7891 24.1112L86.29 24.474L86.4806 23.8872L85.9815 23.5244H86.5982L86.7891 22.9382ZM86.7891 25.0102L86.9796 25.5964H87.5963L87.0974 25.9591L87.2878 26.5459L86.7891 26.1831L86.29 26.5459L86.4806 25.9591L85.9815 25.5964H86.5982L86.7891 25.0102ZM86.7891 27.0822L86.9796 27.6685H87.5963L87.0974 28.0311L87.2878 28.6179L86.7891 28.2551L86.29 28.6179L86.4806 28.0311L85.9815 27.6685H86.5982L86.7891 27.0822ZM86.7891 29.1538L86.9796 29.7405H87.5963L87.0974 30.1031L87.2878 30.6899L86.7891 30.3271L86.29 30.6899L86.4806 30.1031L85.9815 29.7405H86.5982L86.7891 29.1538Z" fill="#EFEFEF"/>
<circle cx="157.136" cy="29.6041" r="29.6041" fill="#EFEFEF"/>
<path d="M151.056 27.6691H175.945V27.6695H151.056V27.6691ZM152.353 20.8454H174.647V20.8458H152.353V20.8454ZM151.466 23.1196H175.533V23.12H151.466V23.1196ZM156.372 36.7666H170.628L170.629 36.7658H156.372L156.372 36.7666ZM163.5 14C163.254 14 163.011 14.0089 162.769 14.0227H164.231C163.989 14.0089 163.745 14 163.5 14ZM151.052 25.3944H175.948V25.3947H151.052V25.3944Z" fill="#C42126"/>
<path d="M167.194 18.5711H173.163C172.454 17.708 171.63 16.944 170.718 16.2972H166.235C166.606 16.9497 166.925 17.7196 167.194 18.5711Z" fill="#E7E7E7"/>
<path d="M166.235 16.2972H170.717C168.865 14.9841 166.64 14.1618 164.231 14.0227H163.846C164.98 14.1654 165.501 15.0046 166.235 16.2972Z" fill="#DC3027"/>
<path d="M175.534 23.1198C175.314 22.3346 175.017 21.5729 174.647 20.8459H167.78C167.92 21.576 168.029 22.3386 168.111 23.1198H175.534Z" fill="#E7E7E7"/>
<path d="M167.394 20.8455H174.647C174.234 20.0326 173.737 19.2697 173.163 18.5713H166.828C167.051 19.2784 167.241 20.0413 167.394 20.8455Z" fill="#DC3027"/>
<path d="M168.374 27.6686H175.944C175.98 27.284 176 26.8941 176 26.5002C176 26.1274 175.98 25.7593 175.948 25.3945H168.375C168.4 26.1524 168.399 26.9108 168.374 27.6686Z" fill="#E7E7E7"/>
<path d="M175.949 25.3942C175.881 24.625 175.742 23.8637 175.534 23.1202H167.792C167.869 23.8649 167.921 24.6268 167.946 25.3942H175.949Z" fill="#DC3027"/>
<path d="M167.65 32.2174H174.615C174.989 31.4908 175.291 30.729 175.516 29.9431H167.987C167.904 30.7255 167.791 31.4879 167.65 32.2174Z" fill="#E7E7E7"/>
<path d="M175.516 29.9429C175.729 29.1999 175.872 28.4386 175.944 27.669H168.138C168.111 28.437 168.058 29.1986 167.979 29.9429H175.516Z" fill="#DC3027"/>
<path d="M170.628 36.7658C171.555 36.1216 172.39 35.3567 173.11 34.4919H167.246C166.971 35.3469 166.646 36.1156 166.268 36.7658H170.628Z" fill="#E7E7E7"/>
<path d="M167.025 34.4917H173.11C173.691 33.794 174.195 33.0312 174.615 32.2174H167.599C167.443 33.0222 167.251 33.7855 167.025 34.4917ZM163.047 38.9911C163.022 38.9903 162.996 38.9892 162.971 38.9884C162.996 38.9891 163.022 38.9903 163.047 38.9911ZM163.5 39C166.15 39 168.605 38.1728 170.628 36.7666H166.104C165.301 38.1499 164.771 39 163.5 39Z" fill="#DC3027"/>
<path d="M163.5 39.0001C163.348 39.0001 163.197 38.9965 163.047 38.9911C163.199 38.9963 163.35 39.0001 163.5 39.0001Z" fill="#C42126"/>
<path d="M166.649 16.2972H156.283C155.37 16.944 154.546 17.708 153.837 18.5711H167.608C167.339 17.7196 167.02 16.9497 166.649 16.2972Z" fill="#F3F4F5"/>
<path d="M156.283 16.2972H166.649C165.915 15.0046 164.98 14.1654 163.846 14.0227H162.769C160.36 14.1618 158.135 14.9841 156.283 16.2972Z" fill="#E73625"/>
<path d="M151.466 23.1198H168.505C168.424 22.3384 168.314 21.576 168.175 20.8459H152.353C151.983 21.5729 151.686 22.3345 151.466 23.1198Z" fill="#F3F4F5"/>
<path d="M153.837 18.5711C153.263 19.2696 152.766 20.0324 152.353 20.8454H168.175C168.021 20.0413 167.832 19.2785 167.608 18.5711H153.837Z" fill="#E73625"/>
<path d="M151 26.5002C151 26.8941 151.021 27.2839 151.056 27.6686H168.658C168.684 26.9126 168.684 26.151 168.659 25.3947H151.052C151.02 25.7593 151 26.1273 151 26.5002Z" fill="#F3F4F5"/>
<path d="M151.052 25.3942H168.659C168.635 24.6346 168.583 23.8761 168.505 23.1202H151.466C151.258 23.8637 151.119 24.625 151.052 25.3942Z" fill="#E73625"/>
<path d="M168.499 29.9429H151.484C151.709 30.7289 152.011 31.4907 152.385 32.2172H168.162C168.303 31.4879 168.416 30.7255 168.499 29.9429Z" fill="#F3F4F5"/>
<path d="M151.484 29.9429H168.499C168.578 29.1986 168.631 28.4368 168.658 27.669H151.056C151.128 28.4386 151.271 29.1999 151.484 29.9429Z" fill="#E73625"/>
<path d="M156.372 36.7658H166.611C166.989 36.1154 167.314 35.3469 167.588 34.4919H153.89C154.611 35.3577 155.446 36.1225 156.372 36.7658Z" fill="#F3F4F5"/>
<path d="M152.385 32.2174C152.805 33.0311 153.309 33.794 153.89 34.4917H167.588C167.815 33.7855 168.006 33.0223 168.162 32.2174H152.385ZM162.971 38.9883C162.996 38.9891 163.022 38.9903 163.047 38.9911C163.197 38.9964 163.348 39 163.5 39C164.771 39 165.808 38.1499 166.611 36.7665H156.372C158.259 38.0787 160.524 38.8863 162.971 38.9883Z" fill="#E73625"/>
<path d="M163.241 14.0066C156.836 14.1369 151.615 19.0827 151.053 25.3739H163.242V14.0066H163.241Z" fill="#283991"/>
<path d="M153.501 21.0822L153.692 21.6686H154.309L153.809 22.0311L154 22.6179L153.501 22.2551L153.002 22.6179L153.193 22.0311L152.694 21.6686H153.311L153.501 21.0822ZM153.501 23.1538L153.692 23.7405H154.309L153.809 24.1031L154 24.6899L153.501 24.3271L153.002 24.6899L153.193 24.1031L152.694 23.7405H153.311L153.501 23.1538ZM155.573 17.974L155.764 18.5606H156.38L155.881 18.9234L156.072 19.5098L155.573 19.1474L155.074 19.5098L155.265 18.9234L154.765 18.5606H155.382L155.573 17.974ZM155.573 20.046L155.764 20.6326H156.38L155.881 20.9949L156.072 21.5817L155.573 21.2194L155.074 21.5817L155.265 20.9949L154.765 20.6326H155.382L155.573 20.046ZM155.573 22.118L155.764 22.7048H156.38L155.881 23.0669L156.072 23.6537L155.573 23.291L155.074 23.6537L155.265 23.0669L154.765 22.7048H155.382L155.573 22.118ZM151.928 23.6537L151.737 23.0669L152.236 22.7045H151.62L151.606 22.6617C151.538 22.8719 151.476 23.0839 151.421 23.2975L151.429 23.291L151.928 23.6537ZM153.002 20.546L153.501 20.1832L154 20.546L153.809 19.9592L154.308 19.5964H153.691L153.501 19.01L153.31 19.5964H153.083C153.041 19.6604 153 19.7247 152.959 19.7896L153.193 19.9592L153.002 20.546ZM155.573 17.0754L156.072 17.4378L155.881 16.8514L156.38 16.4887H156.024C155.721 16.7146 155.429 16.9543 155.149 17.2069L155.074 17.4378L155.573 17.0754ZM157.146 16.402L157.645 16.0392L158.144 16.402L157.953 15.8152L158.452 15.4528H157.835L157.809 15.3739C157.6 15.4806 157.394 15.5917 157.192 15.71L157.336 15.8151L157.146 16.402ZM157.645 16.9382L157.836 17.5244H158.452L157.953 17.8872L158.144 18.474L157.645 18.1112L157.146 18.474L157.337 17.8872L156.837 17.5244H157.454L157.645 16.9382ZM157.645 19.0102L157.836 19.5964H158.452L157.953 19.9592L158.144 20.546L157.645 20.1832L157.146 20.546L157.337 19.9592L156.837 19.5964H157.454L157.645 19.0102ZM157.645 21.0822L157.836 21.6686H158.452L157.953 22.0311L158.144 22.6179L157.645 22.2551L157.146 22.6179L157.337 22.0311L156.837 21.6686H157.454L157.645 21.0822ZM157.645 23.1538L157.836 23.7405H158.452L157.953 24.1031L158.144 24.6899L157.645 24.3271L157.146 24.6899L157.337 24.1031L156.837 23.7405H157.454L157.645 23.1538ZM159.717 15.902L159.908 16.4886H160.524L160.026 16.8514L160.216 17.4378L159.717 17.0754L159.218 17.4378L159.409 16.8514L158.909 16.4886H159.526L159.717 15.902ZM159.717 17.974L159.908 18.5606H160.524L160.026 18.9234L160.216 19.5098L159.717 19.1474L159.218 19.5098L159.409 18.9234L158.909 18.5606H159.526L159.717 17.974ZM159.717 20.046L159.908 20.6326H160.524L160.026 20.9949L160.216 21.5817L159.717 21.2194L159.218 21.5817L159.409 20.9949L158.909 20.6326H159.526L159.717 20.046ZM159.717 22.118L159.908 22.7048H160.524L160.026 23.0669L160.216 23.6537L159.717 23.291L159.218 23.6537L159.409 23.0669L158.909 22.7048H159.526L159.717 22.118ZM161.789 14.8662L161.98 15.4528H162.596L162.097 15.8152L162.288 16.402L161.789 16.0392L161.29 16.402L161.481 15.8152L160.981 15.4528H161.598L161.789 14.8662ZM161.789 16.9382L161.98 17.5244H162.596L162.097 17.8872L162.288 18.474L161.789 18.1112L161.29 18.474L161.481 17.8872L160.981 17.5244H161.598L161.789 16.9382ZM161.789 19.0102L161.98 19.5964H162.596L162.097 19.9592L162.288 20.546L161.789 20.1832L161.29 20.546L161.481 19.9592L160.981 19.5964H161.598L161.789 19.0102ZM161.789 21.0822L161.98 21.6686H162.596L162.097 22.0311L162.288 22.6179L161.789 22.2551L161.29 22.6179L161.481 22.0311L160.981 21.6686H161.598L161.789 21.0822ZM161.789 23.1538L161.98 23.7405H162.596L162.097 24.1031L162.288 24.6899L161.789 24.3271L161.29 24.6899L161.481 24.1031L160.981 23.7405H161.598L161.789 23.1538Z" fill="#EFEFEF"/>
<path d="M141.202 26.4172C140.395 27.5872 139.783 28.9009 139.411 30.3129H145.097L141.202 26.4172ZM147.999 21.5003C146.577 21.9142 145.24 22.5785 144.051 23.462L147.999 27.4105V21.5003ZM144.344 43.7465C145.459 44.5267 146.693 45.1188 147.999 45.4993V40.0922L144.344 43.7465ZM139.555 37.1908C139.968 38.5296 140.601 39.7716 141.411 40.8765L145.097 37.1908H139.555Z" fill="#29337A"/>
<path d="M141.408 26.1271C141.338 26.2229 141.269 26.3197 141.201 26.4174L145.097 30.3131H139.411C139.319 30.6638 139.244 31.0213 139.182 31.3836H146.665L141.408 26.1271ZM144.054 43.5402C144.15 43.6111 144.247 43.6786 144.344 43.7465L147.999 40.092V45.4991C148.35 45.6018 148.707 45.6904 149.07 45.7617V38.525L144.054 43.5402ZM139.277 36.1203C139.355 36.483 139.446 36.8403 139.555 37.1908H145.096L141.411 40.8765C141.811 41.4238 142.256 41.9377 142.739 42.4134L149.032 36.1203H139.277ZM147.999 21.5003V27.4106L144.051 23.4622C143.506 23.867 142.998 24.3164 142.526 24.8029L149.07 31.3465V21.2378C148.707 21.3095 148.35 21.3983 147.999 21.5003Z" fill="#EFEFEF"/>
<path d="M147.999 37.1531L147.962 37.1908H147.999V37.1531ZM149.032 36.1203H149.07V36.0826L149.032 36.1203ZM153.843 31.3834H153.807V31.4197L153.843 31.3834ZM148.036 30.3131L147.999 30.276V30.3131H148.036ZM149.07 31.3465V31.3834H149.107L149.07 31.3465Z" fill="#D32030"/>
<path d="M154.877 42.7322V45.5342C156.2 45.1642 157.452 44.5775 158.583 43.798L155.546 40.7619C155.304 41.6143 155.215 42.055 154.877 42.7322ZM155.562 26.7249L158.877 23.4105C157.671 22.5273 156.316 21.8685 154.877 21.4654V24.3438C155.267 25.1244 155.3 25.7175 155.562 26.7249ZM161.538 40.9493C162.373 39.8265 163.023 38.559 163.446 37.1908H157.779L161.538 40.9493ZM163.589 30.3131C163.209 28.8713 162.578 27.5329 161.747 26.3446L157.778 30.3131H163.589Z" fill="#252F6C"/>
<path d="M156.292 36.3321L157.151 37.191L161.263 41.3026C161.356 41.1858 161.449 41.0693 161.538 40.9495L157.78 37.191H163.446C163.554 36.8407 163.646 36.4833 163.723 36.1205H156.372C156.36 36.2723 156.307 36.1813 156.292 36.3321ZM155.433 27.3518L159.159 23.6248C159.066 23.5521 158.972 23.4806 158.877 23.4105L155.562 26.7249C155.597 26.856 155.401 27.2175 155.433 27.3518ZM154.877 24.1135V21.4652C154.524 21.3663 154.167 21.2831 153.806 21.2157V22.5075C154.205 22.9393 154.562 23.4817 154.877 24.1135ZM156.208 31.3834H163.818C163.756 31.0211 163.681 30.6638 163.589 30.3129H157.778L161.747 26.3444C161.358 25.7877 160.924 25.2636 160.45 24.7771L155.979 29.2471C156.1 30.0579 156.153 30.5288 156.208 31.3834ZM155.366 40.5808L158.583 43.7981C159.118 43.4296 159.622 43.0195 160.092 42.5743L155.861 38.3427C155.725 39.1253 155.565 39.8811 155.366 40.5808ZM153.807 44.3439V45.7837C154.167 45.7164 154.524 45.6332 154.877 45.5342V42.7321C154.562 43.3641 154.205 43.9126 153.807 44.3439Z" fill="#E7E7E7"/>
<path d="M155.979 29.2471L160.449 24.7771C160.046 24.3636 159.615 23.9786 159.159 23.6248L155.647 27.1378C155.803 27.7903 155.874 28.5372 155.979 29.2471Z" fill="#D71F28"/>
<path d="M151.5 46C151.292 46 151.084 45.9943 150.876 45.9842C151.083 45.9947 151.291 46 151.5 46ZM151.5 46C152.288 46 153.059 45.9236 153.807 45.7837V44.3439C153.15 45.0556 152.382 46 151.5 46Z" fill="#D32030"/>
<path d="M163.818 31.3834H156.307C156.406 32.9512 156.394 34.5633 156.271 36.1203H163.723C163.907 35.2591 164 34.3809 164 33.5002C164 32.7782 163.936 32.072 163.818 31.3834ZM156.292 36.3321C156.223 37.0707 155.981 37.6462 155.86 38.3429L160.092 42.5743C160.511 42.1777 160.902 41.7528 161.263 41.3026L157.151 37.1908L156.292 36.3321Z" fill="#D71F28"/>
<path d="M153.807 22.6004V21.2159C153.059 21.0764 152.289 21 151.5 21C152.382 21 153.15 21.8889 153.807 22.6004Z" fill="#D32030"/>
<path d="M154.877 43.2728C155.215 42.5954 155.505 41.8156 155.748 40.9634L154.877 40.0926V43.2728ZM155.856 26.4312C155.593 25.4238 155.267 24.508 154.877 23.7274V27.4099L155.856 26.4312Z" fill="#29337A"/>
<path d="M156.535 36.5744C156.549 36.4237 156.562 36.2723 156.574 36.1203H156.081L156.535 36.5744ZM154.877 27.41V23.7273C154.562 23.0955 154.205 22.5527 153.806 22.1213V28.9775L155.956 26.8276C155.924 26.695 155.891 26.5628 155.856 26.4308L154.877 27.41ZM153.843 31.3834H156.61C156.556 30.5289 156.469 29.688 156.349 28.8774L153.843 31.3834ZM153.807 44.8786C154.205 44.4467 154.562 43.9043 154.877 43.2726V40.0924L155.748 40.9632C155.948 40.2631 156.115 39.5152 156.251 38.7327L153.807 36.2889L153.807 44.8786Z" fill="#EFEFEF"/>
<path d="M153.807 44.8786V36.2889L156.251 38.7329C156.371 38.0359 156.465 37.3132 156.535 36.5744L156.08 36.1203H156.574C156.697 34.5632 156.709 32.9511 156.61 31.3834H153.843L156.349 28.8774C156.243 28.1673 156.112 27.4804 155.956 26.8277L153.807 28.9776V22.1214C153.15 21.4097 152.382 21 151.5 21C151.292 21 151.084 21.0053 150.876 21.0154C150.269 21.0459 149.666 21.1202 149.07 21.2379V31.3465L142.526 24.8029C142.123 25.2182 141.75 25.6606 141.408 26.1271L145.594 30.3131L146.665 31.3836H139.182C139.065 32.072 139 32.7782 139 33.5002C139 34.3992 139.097 35.2749 139.277 36.1203H149.032L142.739 42.4134C143.151 42.8187 143.591 43.1952 144.054 43.5402L149.07 38.525V45.7618C149.666 45.8794 150.27 45.9537 150.876 45.9842C151.084 45.9943 151.292 46 151.5 46C152.382 46 153.15 45.5903 153.807 44.8786Z" fill="#E51D35"/>
<circle cx="220.344" cy="29.6041" r="29.6041" fill="#EFEFEF"/>
<path d="M214.056 27.6691H238.945V27.6695H214.056V27.6691ZM215.353 20.8454H237.647V20.8458H215.353V20.8454ZM214.466 23.1196H238.533V23.12H214.466V23.1196ZM219.372 36.7666H233.628L233.629 36.7658H219.372L219.372 36.7666ZM226.5 14C226.254 14 226.011 14.0089 225.769 14.0227H227.231C226.989 14.0089 226.745 14 226.5 14ZM214.052 25.3944H238.948V25.3947H214.052V25.3944Z" fill="#C42126"/>
<path d="M230.194 18.5711H236.163C235.454 17.708 234.63 16.944 233.718 16.2972H229.235C229.606 16.9497 229.925 17.7196 230.194 18.5711Z" fill="#E7E7E7"/>
<path d="M229.235 16.2972H233.717C231.865 14.9841 229.64 14.1618 227.231 14.0227H226.846C227.98 14.1654 228.501 15.0046 229.235 16.2972Z" fill="#DC3027"/>
<path d="M238.534 23.1198C238.314 22.3346 238.017 21.5729 237.647 20.8459H230.78C230.92 21.576 231.029 22.3386 231.111 23.1198H238.534Z" fill="#E7E7E7"/>
<path d="M230.394 20.8455H237.647C237.234 20.0326 236.737 19.2697 236.163 18.5713H229.828C230.051 19.2784 230.241 20.0413 230.394 20.8455Z" fill="#DC3027"/>
<path d="M231.374 27.6686H238.944C238.98 27.284 239 26.8941 239 26.5002C239 26.1274 238.98 25.7593 238.948 25.3945H231.375C231.4 26.1524 231.399 26.9108 231.374 27.6686Z" fill="#E7E7E7"/>
<path d="M238.949 25.3942C238.881 24.625 238.742 23.8637 238.534 23.1202H230.792C230.869 23.8649 230.921 24.6268 230.946 25.3942H238.949Z" fill="#DC3027"/>
<path d="M230.65 32.2174H237.615C237.989 31.4908 238.291 30.729 238.516 29.9431H230.987C230.904 30.7255 230.791 31.4879 230.65 32.2174Z" fill="#E7E7E7"/>
<path d="M238.516 29.9429C238.729 29.1999 238.872 28.4386 238.944 27.669H231.138C231.111 28.437 231.058 29.1986 230.979 29.9429H238.516Z" fill="#DC3027"/>
<path d="M233.628 36.7658C234.555 36.1216 235.39 35.3567 236.11 34.4919H230.246C229.971 35.3469 229.646 36.1156 229.268 36.7658H233.628Z" fill="#E7E7E7"/>
<path d="M230.025 34.4917H236.11C236.691 33.794 237.195 33.0312 237.615 32.2174H230.599C230.443 33.0222 230.251 33.7855 230.025 34.4917ZM226.047 38.9911C226.022 38.9903 225.996 38.9892 225.971 38.9884C225.996 38.9891 226.022 38.9903 226.047 38.9911ZM226.5 39C229.15 39 231.605 38.1728 233.628 36.7666H229.104C228.301 38.1499 227.771 39 226.5 39Z" fill="#DC3027"/>
<path d="M226.5 39.0001C226.348 39.0001 226.197 38.9965 226.047 38.9911C226.199 38.9963 226.35 39.0001 226.5 39.0001Z" fill="#C42126"/>
<path d="M229.649 16.2972H219.283C218.37 16.944 217.546 17.708 216.837 18.5711H230.608C230.339 17.7196 230.02 16.9497 229.649 16.2972Z" fill="#F3F4F5"/>
<path d="M219.283 16.2972H229.649C228.915 15.0046 227.98 14.1654 226.846 14.0227H225.769C223.36 14.1618 221.135 14.9841 219.283 16.2972Z" fill="#E73625"/>
<path d="M214.466 23.1198H231.505C231.424 22.3384 231.314 21.576 231.175 20.8459H215.353C214.983 21.5729 214.686 22.3345 214.466 23.1198Z" fill="#F3F4F5"/>
<path d="M216.837 18.5711C216.263 19.2696 215.766 20.0324 215.353 20.8454H231.175C231.021 20.0413 230.832 19.2785 230.608 18.5711H216.837Z" fill="#E73625"/>
<path d="M214 26.5002C214 26.8941 214.021 27.2839 214.056 27.6686H231.658C231.684 26.9126 231.684 26.151 231.659 25.3947H214.052C214.02 25.7593 214 26.1273 214 26.5002Z" fill="#F3F4F5"/>
<path d="M214.052 25.3942H231.659C231.635 24.6346 231.583 23.8761 231.505 23.1202H214.466C214.258 23.8637 214.119 24.625 214.052 25.3942Z" fill="#E73625"/>
<path d="M231.499 29.9429H214.484C214.709 30.7289 215.011 31.4907 215.385 32.2172H231.162C231.303 31.4879 231.416 30.7255 231.499 29.9429Z" fill="#F3F4F5"/>
<path d="M214.484 29.9429H231.499C231.578 29.1986 231.631 28.4368 231.658 27.669H214.056C214.128 28.4386 214.271 29.1999 214.484 29.9429Z" fill="#E73625"/>
<path d="M219.372 36.7658H229.611C229.989 36.1154 230.314 35.3469 230.588 34.4919H216.89C217.611 35.3577 218.446 36.1225 219.372 36.7658Z" fill="#F3F4F5"/>
<path d="M215.385 32.2174C215.805 33.0311 216.309 33.794 216.89 34.4917H230.588C230.815 33.7855 231.006 33.0223 231.162 32.2174H215.385ZM225.971 38.9883C225.996 38.9891 226.022 38.9903 226.047 38.9911C226.197 38.9964 226.348 39 226.5 39C227.771 39 228.808 38.1499 229.611 36.7665H219.372C221.259 38.0787 223.524 38.8863 225.971 38.9883Z" fill="#E73625"/>
<path d="M226.241 14.0066C219.836 14.1369 214.615 19.0827 214.053 25.3739H226.242V14.0066H226.241Z" fill="#283991"/>
<path d="M216.501 21.0822L216.692 21.6686H217.309L216.809 22.0311L217 22.6179L216.501 22.2551L216.002 22.6179L216.193 22.0311L215.694 21.6686H216.311L216.501 21.0822ZM216.501 23.1538L216.692 23.7405H217.309L216.809 24.1031L217 24.6899L216.501 24.3271L216.002 24.6899L216.193 24.1031L215.694 23.7405H216.311L216.501 23.1538ZM218.573 17.974L218.764 18.5606H219.38L218.881 18.9234L219.072 19.5098L218.573 19.1474L218.074 19.5098L218.265 18.9234L217.765 18.5606H218.382L218.573 17.974ZM218.573 20.046L218.764 20.6326H219.38L218.881 20.9949L219.072 21.5817L218.573 21.2194L218.074 21.5817L218.265 20.9949L217.765 20.6326H218.382L218.573 20.046ZM218.573 22.118L218.764 22.7048H219.38L218.881 23.0669L219.072 23.6537L218.573 23.291L218.074 23.6537L218.265 23.0669L217.765 22.7048H218.382L218.573 22.118ZM214.928 23.6537L214.737 23.0669L215.236 22.7045H214.62L214.606 22.6617C214.538 22.8719 214.476 23.0839 214.421 23.2975L214.429 23.291L214.928 23.6537ZM216.002 20.546L216.501 20.1832L217 20.546L216.809 19.9592L217.308 19.5964H216.691L216.501 19.01L216.31 19.5964H216.083C216.041 19.6604 216 19.7247 215.959 19.7896L216.193 19.9592L216.002 20.546ZM218.573 17.0754L219.072 17.4378L218.881 16.8514L219.38 16.4887H219.024C218.721 16.7146 218.429 16.9543 218.149 17.2069L218.074 17.4378L218.573 17.0754ZM220.146 16.402L220.645 16.0392L221.144 16.402L220.953 15.8152L221.452 15.4528H220.835L220.809 15.3739C220.6 15.4806 220.394 15.5917 220.192 15.71L220.336 15.8151L220.146 16.402ZM220.645 16.9382L220.836 17.5244H221.452L220.953 17.8872L221.144 18.474L220.645 18.1112L220.146 18.474L220.337 17.8872L219.837 17.5244H220.454L220.645 16.9382ZM220.645 19.0102L220.836 19.5964H221.452L220.953 19.9592L221.144 20.546L220.645 20.1832L220.146 20.546L220.337 19.9592L219.837 19.5964H220.454L220.645 19.0102ZM220.645 21.0822L220.836 21.6686H221.452L220.953 22.0311L221.144 22.6179L220.645 22.2551L220.146 22.6179L220.337 22.0311L219.837 21.6686H220.454L220.645 21.0822ZM220.645 23.1538L220.836 23.7405H221.452L220.953 24.1031L221.144 24.6899L220.645 24.3271L220.146 24.6899L220.337 24.1031L219.837 23.7405H220.454L220.645 23.1538ZM222.717 15.902L222.908 16.4886H223.524L223.026 16.8514L223.216 17.4378L222.717 17.0754L222.218 17.4378L222.409 16.8514L221.909 16.4886H222.526L222.717 15.902ZM222.717 17.974L222.908 18.5606H223.524L223.026 18.9234L223.216 19.5098L222.717 19.1474L222.218 19.5098L222.409 18.9234L221.909 18.5606H222.526L222.717 17.974ZM222.717 20.046L222.908 20.6326H223.524L223.026 20.9949L223.216 21.5817L222.717 21.2194L222.218 21.5817L222.409 20.9949L221.909 20.6326H222.526L222.717 20.046ZM222.717 22.118L222.908 22.7048H223.524L223.026 23.0669L223.216 23.6537L222.717 23.291L222.218 23.6537L222.409 23.0669L221.909 22.7048H222.526L222.717 22.118ZM224.789 14.8662L224.98 15.4528H225.596L225.097 15.8152L225.288 16.402L224.789 16.0392L224.29 16.402L224.481 15.8152L223.981 15.4528H224.598L224.789 14.8662ZM224.789 16.9382L224.98 17.5244H225.596L225.097 17.8872L225.288 18.474L224.789 18.1112L224.29 18.474L224.481 17.8872L223.981 17.5244H224.598L224.789 16.9382ZM224.789 19.0102L224.98 19.5964H225.596L225.097 19.9592L225.288 20.546L224.789 20.1832L224.29 20.546L224.481 19.9592L223.981 19.5964H224.598L224.789 19.0102ZM224.789 21.0822L224.98 21.6686H225.596L225.097 22.0311L225.288 22.6179L224.789 22.2551L224.29 22.6179L224.481 22.0311L223.981 21.6686H224.598L224.789 21.0822ZM224.789 23.1538L224.98 23.7405H225.596L225.097 24.1031L225.288 24.6899L224.789 24.3271L224.29 24.6899L224.481 24.1031L223.981 23.7405H224.598L224.789 23.1538Z" fill="#EFEFEF"/>
<path d="M214.5 21V46C221.404 46 227 40.4036 227 33.5002C227 26.596 221.404 21 214.5 21Z" fill="#252F6B"/>
<path d="M214.5 21C207.596 21 202 26.5962 202 33.5C202 40.4034 207.596 45.9998 214.5 45.9998C221.404 45.9998 221.404 21 214.5 21Z" fill="#273375"/>
<path d="M210.573 40.1616L211.415 39.1108L210.113 39.3467L209.661 38.0853L209.17 39.3467L207.841 39.1108L208.686 40.1385L207.809 41.1651L209.146 40.9551L209.597 42.1904L210.088 40.9556L211.452 41.1994L210.573 40.1616ZM220.536 41.0899L221.014 40.4944L220.276 40.628L220.02 39.9133L219.742 40.628L218.988 40.4944L219.467 41.0764L218.97 41.6584L219.728 41.5393L219.983 42.2389L220.262 41.5396L221.034 41.6778L220.536 41.0899ZM220.536 27.9318L221.014 27.3362L220.276 27.47L220.02 26.7553L219.742 27.47L218.988 27.3362L219.467 27.9186L218.97 28.5003L219.728 28.3812L219.983 29.0813L220.262 28.3816L221.034 28.5196L220.536 27.9318ZM223.628 31.3356L224.106 30.74L223.368 30.8738L223.112 30.1591L222.834 30.8738L222.08 30.74L222.559 31.3224L222.062 31.9043L222.82 31.785L223.075 32.4851L223.354 31.7855L224.126 31.9234L223.628 31.3356ZM217.861 32.8489L218.339 32.2534L217.601 32.3872L217.345 31.6726L217.067 32.3872L216.314 32.2534L216.792 32.8354L216.295 33.4175L217.053 33.2985L217.309 33.9979L217.587 33.2989L218.36 33.4369L217.861 32.8489Z" fill="#F3F4F5"/>
<path d="M204.625 25.8405C204.429 26.0933 204.242 26.3534 204.065 26.6203H205.405L204.625 25.8405ZM211.08 33.5H212.284L211.08 32.2958V33.5ZM207.089 23.4349C206.802 23.6465 206.526 23.8709 206.258 24.1056L207.089 24.9355V23.4349ZM205.884 33.5H207.089V32.2955L205.884 33.5ZM214.5 21C213.314 21 212.168 21.1687 211.08 21.4776V24.9355L214.5 21.5157V21H214.5ZM214.5 32.3476V30.6121H212.765L214.5 32.3476ZM202.516 33.5L205.404 30.6121H202.339C202.12 31.5395 202 32.5056 202 33.5H202.516ZM212.764 26.6203H214.5V24.884L212.764 26.6203Z" fill="#29337A"/>
<path d="M214.5 32.7121V32.3476L212.765 30.6121H214.5V29.9906H211.779L214.5 32.7121ZM205.405 26.6203H204.065C203.931 26.8235 203.803 27.0306 203.682 27.2412H206.314L204.751 25.6792C204.709 25.7325 204.667 25.7862 204.625 25.8403L205.405 26.6203ZM207.089 32.2955V33.5H207.71V31.3862L205.596 33.5H205.884L207.089 32.2955ZM211.08 21.4774C210.872 21.5367 210.664 21.6013 210.459 21.6712V25.8448L214.5 21.8041V21.5161L211.08 24.9353V21.4774ZM207.067 30.6121L207.089 30.5902L207.688 29.9908H202.503C202.443 30.1964 202.388 30.4036 202.339 30.6121H205.404L202.516 33.5H204.179L207.067 30.6121ZM214.5 27.2414V26.6203H212.764L214.5 24.884V23.2214L210.48 27.2414H214.5Z" fill="#EFEFEF"/>
<path d="M207.089 24.9358L206.258 24.1058C205.964 24.3646 205.681 24.6371 205.412 24.9223L207.089 26.5988L207.107 26.617L207.71 27.2203V23.0071C207.499 23.1442 207.291 23.2857 207.089 23.4349V24.9358H207.089ZM211.08 32.2958L212.284 33.5H213.871L210.459 30.0885V33.5H211.08V32.2958Z" fill="#EFEFEF"/>
<path d="M212.4 30.6121L211.779 29.9908H214.5V27.2414H210.48L210.459 27.2625V27.2414H210.48L214.5 23.2216V21.8041L210.459 25.845V21.6714C209.491 22.0021 208.568 22.4508 207.71 23.0072V27.2203L207.731 27.2414H207.71V27.2203L207.106 26.617L207.11 26.6205H207.089V26.599L205.412 24.9225C205.182 25.166 204.962 25.4186 204.752 25.6796L206.314 27.2416H203.682C203.179 28.1072 202.784 29.0303 202.503 29.9909H207.688L207.71 29.969V29.9909H207.688L207.089 30.5904V30.6123H207.067L204.179 33.5H205.596L207.71 31.3862V33.5H210.459V30.0885L213.871 33.5H214.34C214.393 33.4442 214.448 33.3887 214.5 33.3313V32.7121L212.4 30.6121Z" fill="#D32030"/>
<path d="M207.089 30.6121V30.59L207.067 30.6121H207.089ZM207.71 29.9687L207.688 29.9906H207.71V29.9687ZM210.459 27.2625L210.48 27.2414H210.459V27.2625ZM207.089 26.6203H207.11L207.107 26.617L207.089 26.5988V26.6203ZM207.731 27.2414L207.71 27.2201V27.2414H207.731Z" fill="#D32030"/>
<circle cx="283.553" cy="29.6041" r="29.6041" fill="#EFEFEF"/>
<path d="M278.056 27.6691H302.945V27.6695H278.056V27.6691ZM279.353 20.8454H301.647V20.8458H279.353V20.8454ZM278.466 23.1196H302.533V23.12H278.466V23.1196ZM283.372 36.7666H297.628L297.629 36.7658H283.372L283.372 36.7666ZM290.5 14C290.254 14 290.011 14.0089 289.769 14.0227H291.231C290.989 14.0089 290.745 14 290.5 14ZM278.052 25.3944H302.948V25.3947H278.052V25.3944Z" fill="#C42126"/>
<path d="M294.194 18.5711H300.163C299.454 17.708 298.63 16.944 297.718 16.2972H293.235C293.606 16.9497 293.925 17.7196 294.194 18.5711Z" fill="#E7E7E7"/>
<path d="M293.235 16.2972H297.717C295.865 14.9841 293.64 14.1618 291.231 14.0227H290.846C291.98 14.1654 292.501 15.0046 293.235 16.2972Z" fill="#DC3027"/>
<path d="M302.534 23.1198C302.314 22.3346 302.017 21.5729 301.647 20.8459H294.78C294.92 21.576 295.029 22.3386 295.111 23.1198H302.534Z" fill="#E7E7E7"/>
<path d="M294.394 20.8455H301.647C301.234 20.0326 300.737 19.2697 300.163 18.5713H293.828C294.051 19.2784 294.241 20.0413 294.394 20.8455Z" fill="#DC3027"/>
<path d="M295.374 27.6686H302.944C302.98 27.284 303 26.8941 303 26.5002C303 26.1274 302.98 25.7593 302.948 25.3945H295.375C295.4 26.1524 295.399 26.9108 295.374 27.6686Z" fill="#E7E7E7"/>
<path d="M302.949 25.3942C302.881 24.625 302.742 23.8637 302.534 23.1202H294.792C294.869 23.8649 294.921 24.6268 294.946 25.3942H302.949Z" fill="#DC3027"/>
<path d="M294.65 32.2174H301.615C301.989 31.4908 302.291 30.729 302.516 29.9431H294.987C294.904 30.7255 294.791 31.4879 294.65 32.2174Z" fill="#E7E7E7"/>
<path d="M302.516 29.9429C302.729 29.1999 302.872 28.4386 302.944 27.669H295.138C295.111 28.437 295.058 29.1986 294.979 29.9429H302.516Z" fill="#DC3027"/>
<path d="M297.628 36.7658C298.554 36.1216 299.39 35.3567 300.11 34.4919H294.245C293.971 35.3469 293.646 36.1156 293.268 36.7658H297.628Z" fill="#E7E7E7"/>
<path d="M294.025 34.4917H300.11C300.691 33.794 301.195 33.0312 301.615 32.2174H294.599C294.443 33.0222 294.251 33.7855 294.025 34.4917ZM290.047 38.9911C290.022 38.9903 289.996 38.9892 289.971 38.9884C289.996 38.9891 290.022 38.9903 290.047 38.9911ZM290.5 39C293.15 39 295.605 38.1728 297.628 36.7666H293.104C292.301 38.1499 291.771 39 290.5 39Z" fill="#DC3027"/>
<path d="M290.5 39.0001C290.348 39.0001 290.197 38.9965 290.047 38.9911C290.199 38.9963 290.35 39.0001 290.5 39.0001Z" fill="#C42126"/>
<path d="M293.649 16.2972H283.283C282.37 16.944 281.546 17.708 280.837 18.5711H294.608C294.339 17.7196 294.02 16.9497 293.649 16.2972Z" fill="#F3F4F5"/>
<path d="M283.283 16.2972H293.649C292.915 15.0046 291.98 14.1654 290.846 14.0227H289.769C287.36 14.1618 285.135 14.9841 283.283 16.2972Z" fill="#E73625"/>
<path d="M278.466 23.1198H295.505C295.424 22.3384 295.314 21.576 295.175 20.8459H279.353C278.983 21.5729 278.686 22.3345 278.466 23.1198Z" fill="#F3F4F5"/>
<path d="M280.837 18.5711C280.263 19.2696 279.766 20.0324 279.353 20.8454H295.175C295.021 20.0413 294.832 19.2785 294.608 18.5711H280.837Z" fill="#E73625"/>
<path d="M278 26.5002C278 26.8941 278.021 27.2839 278.056 27.6686H295.658C295.684 26.9126 295.684 26.151 295.659 25.3947H278.052C278.02 25.7593 278 26.1273 278 26.5002Z" fill="#F3F4F5"/>
<path d="M278.052 25.3942H295.659C295.635 24.6346 295.583 23.8761 295.505 23.1202H278.466C278.258 23.8637 278.119 24.625 278.052 25.3942Z" fill="#E73625"/>
<path d="M295.499 29.9429H278.484C278.709 30.7289 279.011 31.4907 279.385 32.2172H295.162C295.303 31.4879 295.416 30.7255 295.499 29.9429Z" fill="#F3F4F5"/>
<path d="M278.484 29.9429H295.499C295.578 29.1986 295.631 28.4368 295.658 27.669H278.056C278.128 28.4386 278.271 29.1999 278.484 29.9429Z" fill="#E73625"/>
<path d="M283.372 36.7658H293.611C293.989 36.1154 294.314 35.3469 294.588 34.4919H280.89C281.611 35.3577 282.446 36.1225 283.372 36.7658Z" fill="#F3F4F5"/>
<path d="M279.385 32.2174C279.805 33.0311 280.309 33.794 280.89 34.4917H294.588C294.815 33.7855 295.006 33.0223 295.162 32.2174H279.385ZM289.971 38.9883C289.996 38.9891 290.022 38.9903 290.047 38.9911C290.197 38.9964 290.348 39 290.5 39C291.771 39 292.808 38.1499 293.611 36.7665H283.372C285.259 38.0787 287.524 38.8863 289.971 38.9883Z" fill="#E73625"/>
<path d="M290.241 14.0066C283.836 14.1369 278.615 19.0827 278.053 25.3739H290.242V14.0066H290.241Z" fill="#283991"/>
<path d="M280.501 21.0822L280.691 21.6686H281.308L280.809 22.0311L281 22.6179L280.501 22.2551L280.002 22.6179L280.193 22.0311L279.694 21.6686H280.311L280.501 21.0822ZM280.501 23.1538L280.691 23.7405H281.308L280.809 24.1031L281 24.6899L280.501 24.3271L280.002 24.6899L280.193 24.1031L279.694 23.7405H280.311L280.501 23.1538ZM282.573 17.974L282.764 18.5606H283.38L282.881 18.9234L283.072 19.5098L282.573 19.1474L282.074 19.5098L282.265 18.9234L281.765 18.5606H282.382L282.573 17.974ZM282.573 20.046L282.764 20.6326H283.38L282.881 20.9949L283.072 21.5817L282.573 21.2194L282.074 21.5817L282.265 20.9949L281.765 20.6326H282.382L282.573 20.046ZM282.573 22.118L282.764 22.7048H283.38L282.881 23.0669L283.072 23.6537L282.573 23.291L282.074 23.6537L282.265 23.0669L281.765 22.7048H282.382L282.573 22.118ZM278.928 23.6537L278.737 23.0669L279.236 22.7045H278.62L278.606 22.6617C278.538 22.8719 278.476 23.0839 278.421 23.2975L278.429 23.291L278.928 23.6537ZM280.002 20.546L280.501 20.1832L281 20.546L280.809 19.9592L281.308 19.5964H280.691L280.501 19.01L280.31 19.5964H280.083C280.041 19.6604 280 19.7247 279.959 19.7896L280.193 19.9592L280.002 20.546ZM282.573 17.0754L283.072 17.4378L282.881 16.8514L283.38 16.4887H283.024C282.721 16.7146 282.429 16.9543 282.149 17.2069L282.074 17.4378L282.573 17.0754ZM284.146 16.402L284.645 16.0392L285.144 16.402L284.953 15.8152L285.452 15.4528H284.835L284.809 15.3739C284.6 15.4806 284.394 15.5917 284.191 15.71L284.336 15.8151L284.146 16.402ZM284.645 16.9382L284.836 17.5244H285.452L284.953 17.8872L285.144 18.474L284.645 18.1112L284.146 18.474L284.337 17.8872L283.837 17.5244H284.454L284.645 16.9382ZM284.645 19.0102L284.836 19.5964H285.452L284.953 19.9592L285.144 20.546L284.645 20.1832L284.146 20.546L284.337 19.9592L283.837 19.5964H284.454L284.645 19.0102ZM284.645 21.0822L284.836 21.6686H285.452L284.953 22.0311L285.144 22.6179L284.645 22.2551L284.146 22.6179L284.337 22.0311L283.837 21.6686H284.454L284.645 21.0822ZM284.645 23.1538L284.836 23.7405H285.452L284.953 24.1031L285.144 24.6899L284.645 24.3271L284.146 24.6899L284.337 24.1031L283.837 23.7405H284.454L284.645 23.1538ZM286.717 15.902L286.908 16.4886H287.524L287.026 16.8514L287.216 17.4378L286.717 17.0754L286.218 17.4378L286.409 16.8514L285.909 16.4886H286.526L286.717 15.902ZM286.717 17.974L286.908 18.5606H287.524L287.026 18.9234L287.216 19.5098L286.717 19.1474L286.218 19.5098L286.409 18.9234L285.909 18.5606H286.526L286.717 17.974ZM286.717 20.046L286.908 20.6326H287.524L287.026 20.9949L287.216 21.5817L286.717 21.2194L286.218 21.5817L286.409 20.9949L285.909 20.6326H286.526L286.717 20.046ZM286.717 22.118L286.908 22.7048H287.524L287.026 23.0669L287.216 23.6537L286.717 23.291L286.218 23.6537L286.409 23.0669L285.909 22.7048H286.526L286.717 22.118ZM288.789 14.8662L288.98 15.4528H289.596L289.097 15.8152L289.288 16.402L288.789 16.0392L288.29 16.402L288.481 15.8152L287.981 15.4528H288.598L288.789 14.8662ZM288.789 16.9382L288.98 17.5244H289.596L289.097 17.8872L289.288 18.474L288.789 18.1112L288.29 18.474L288.481 17.8872L287.981 17.5244H288.598L288.789 16.9382ZM288.789 19.0102L288.98 19.5964H289.596L289.097 19.9592L289.288 20.546L288.789 20.1832L288.29 20.546L288.481 19.9592L287.981 19.5964H288.598L288.789 19.0102ZM288.789 21.0822L288.98 21.6686H289.596L289.097 22.0311L289.288 22.6179L288.789 22.2551L288.29 22.6179L288.481 22.0311L287.981 21.6686H288.598L288.789 21.0822ZM288.789 23.1538L288.98 23.7405H289.596L289.097 24.1031L289.288 24.6899L288.789 24.3271L288.29 24.6899L288.481 24.1031L287.981 23.7405H288.598L288.789 23.1538Z" fill="#EFEFEF"/>
<path d="M278.5 45.9999C285.404 45.9999 291 40.4038 291 33.5005C291 26.5972 285.404 21.0011 278.5 21.0011C271.597 21.0011 266.001 26.5972 266.001 33.5005C266.001 40.4038 271.597 45.9999 278.5 45.9999Z" fill="#EFEFEF"/>
<path d="M266 33.5001C266 38.1984 268.594 42.2893 272.426 44.4246V22.575C268.594 24.7105 266 28.8011 266 33.5001Z" fill="#D32027"/>
<path d="M278.5 45.9998C278.356 45.9998 278.217 45.9949 278.076 45.9925C278.217 45.9972 278.358 45.9998 278.5 45.9998Z" fill="#EFEFEF"/>
<path d="M278.5 21C278.496 21 278.492 21.0002 278.488 21.0002C278.492 21.0002 278.496 21 278.5 21C285.403 21 285.403 46 278.5 46C280.701 46 282.767 45.429 284.564 44.4303V22.5695C282.767 21.5708 280.701 21 278.5 21Z" fill="#E7E7E7"/>
<path d="M284.564 22.5695V44.4301C288.402 42.2963 291 38.2023 291 33.5001C291 28.7972 288.402 24.7032 284.564 22.5695Z" fill="#B52025"/>
<path d="M278.5 21H278.488C276.288 21.002 274.221 21.5748 272.426 22.575V44.4244C274.108 45.3621 276.03 45.9242 278.076 45.9923C278.218 45.9947 278.356 45.9996 278.5 45.9996C285.403 45.9998 285.403 21 278.5 21Z" fill="#F3F1F2"/>
<path d="M283.351 33.2741C283.179 33.1099 282.826 33.128 282.763 32.8551C282.68 32.1846 282.988 31.7942 283.183 31.3462C282.198 31.5765 281.421 31.9557 281.422 30.8433C280.857 31.5347 280.249 32.2261 279.998 32.1006C279.641 31.891 280.34 30.1115 280.416 29.1673C280.071 29.3247 279.411 29.6701 279.411 29.6701C279.411 29.6701 278.81 28.4954 278.492 27.9159V27.9096C278.491 27.9108 278.491 27.9118 278.491 27.9128C278.49 27.912 278.49 27.9108 278.489 27.9096V27.9159C278.171 28.4954 277.57 29.6701 277.57 29.6701C277.57 29.6701 276.909 29.3247 276.565 29.1673C276.641 30.1117 277.339 31.8911 276.983 32.1006C276.732 32.2263 276.124 31.5347 275.559 30.8433C275.559 31.9557 274.783 31.5766 273.798 31.3462C273.993 31.794 274.301 32.1844 274.217 32.8551C274.155 33.128 273.802 33.1099 273.63 33.2741C274.773 34.4163 276.753 35.2646 275.81 36.2075L278.353 35.9703C278.436 36.8296 278.167 37.8842 278.4 38.4709H278.579C278.817 37.863 278.545 36.8298 278.628 35.9703L281.171 36.2075C280.228 35.2646 282.208 34.4163 283.351 33.2741Z" fill="#D32027"/>
<circle cx="346.761" cy="29.6041" r="29.6041" fill="#EFEFEF"/>
<path d="M353.501 39C360.404 39 366 33.4038 366 26.5005C366 19.5973 360.404 14.0011 353.501 14.0011C346.597 14.0011 341.001 19.5973 341.001 26.5005C341.001 33.4038 346.597 39 353.501 39Z" fill="#EFEFEF"/>
<path d="M365.286 22.3323C365.284 22.3287 365.283 22.325 365.282 22.3214C363.682 17.8106 359.567 14.4918 354.623 14.0513C356.536 15.1001 357.094 18.423 357.584 22.3323C357.918 25.0025 357.92 27.9446 357.59 30.6182C357.105 34.5486 356.544 37.8949 354.623 38.9481C359.576 38.5068 363.697 35.1766 365.29 30.6537C365.294 30.6417 365.298 30.6298 365.302 30.6182C365.764 29.2944 366 27.9022 366 26.5001C366 25.038 365.747 23.6359 365.286 22.3323Z" fill="#D32027"/>
<path d="M358.227 22.3323C357.738 18.423 356.536 15.1002 354.623 14.0514C354.252 14.0186 353.878 14 353.5 14C348.062 14 343.438 17.4729 341.718 22.3214C341.717 22.325 341.715 22.3287 341.714 22.3323C341.253 23.6359 341 25.038 341 26.5001C341 27.9435 341.248 29.3284 341.698 30.6182C341.702 30.6298 341.706 30.6417 341.71 30.6537C343.422 35.5147 348.053 38.9998 353.5 38.9998C353.878 38.9998 354.252 38.9812 354.622 38.9481C356.544 37.8949 357.748 34.5485 358.234 30.6181C358.564 27.9444 358.562 25.0025 358.227 22.3323Z" fill="#DB2727"/>
<path d="M351.341 20.0547H355.64V32.949H351.341V20.0547Z" fill="#EFEFEF"/>
<path d="M347.044 24.353H359.938V28.6512H347.044V24.353Z" fill="#EFEFEF"/>
<path d="M329.056 34.6691H353.945V34.6695H329.056V34.6691ZM330.353 27.8454H352.647V27.8458H330.353V27.8454ZM329.466 30.1196H353.533V30.12H329.466V30.1196ZM334.372 43.7666H348.628L348.629 43.7658H334.372L334.372 43.7666ZM341.5 21C341.254 21 341.011 21.0089 340.769 21.0227H342.231C341.989 21.0089 341.745 21 341.5 21ZM329.052 32.3944H353.948V32.3947H329.052V32.3944Z" fill="#C42126"/>
<path d="M345.194 25.5711H351.163C350.454 24.708 349.63 23.944 348.718 23.2972H344.235C344.606 23.9497 344.925 24.7196 345.194 25.5711Z" fill="#E7E7E7"/>
<path d="M344.235 23.2972H348.717C346.865 21.9841 344.64 21.1618 342.231 21.0227H341.846C342.98 21.1654 343.501 22.0046 344.235 23.2972Z" fill="#DC3027"/>
<path d="M353.534 30.1198C353.314 29.3346 353.017 28.5729 352.647 27.8459H345.78C345.92 28.576 346.029 29.3386 346.111 30.1198H353.534Z" fill="#E7E7E7"/>
<path d="M345.394 27.8455H352.647C352.234 27.0326 351.737 26.2697 351.163 25.5713H344.828C345.051 26.2784 345.241 27.0413 345.394 27.8455Z" fill="#DC3027"/>
<path d="M346.374 34.6686H353.944C353.98 34.284 354 33.8941 354 33.5002C354 33.1274 353.98 32.7593 353.948 32.3945H346.375C346.4 33.1524 346.399 33.9108 346.374 34.6686Z" fill="#E7E7E7"/>
<path d="M353.949 32.3942C353.881 31.625 353.742 30.8637 353.534 30.1202H345.792C345.869 30.8649 345.921 31.6268 345.946 32.3942H353.949Z" fill="#DC3027"/>
<path d="M345.65 39.2174H352.615C352.989 38.4908 353.291 37.729 353.516 36.9431H345.987C345.904 37.7255 345.791 38.4879 345.65 39.2174Z" fill="#E7E7E7"/>
<path d="M353.516 36.9429C353.729 36.1999 353.872 35.4386 353.944 34.669H346.138C346.111 35.437 346.058 36.1986 345.979 36.9429H353.516Z" fill="#DC3027"/>
<path d="M348.628 43.7658C349.554 43.1216 350.39 42.3567 351.11 41.4919H345.245C344.971 42.3469 344.646 43.1156 344.268 43.7658H348.628Z" fill="#E7E7E7"/>
<path d="M345.025 41.4917H351.11C351.691 40.794 352.195 40.0312 352.615 39.2174H345.599C345.443 40.0222 345.251 40.7855 345.025 41.4917ZM341.047 45.9911C341.022 45.9903 340.996 45.9892 340.971 45.9884C340.996 45.9891 341.022 45.9903 341.047 45.9911ZM341.5 46C344.15 46 346.605 45.1728 348.628 43.7666H344.104C343.301 45.1499 342.771 46 341.5 46Z" fill="#DC3027"/>
<path d="M341.5 46.0001C341.348 46.0001 341.197 45.9965 341.047 45.9911C341.199 45.9963 341.35 46.0001 341.5 46.0001Z" fill="#C42126"/>
<path d="M344.649 23.2972H334.283C333.37 23.944 332.546 24.708 331.837 25.5711H345.608C345.339 24.7196 345.02 23.9497 344.649 23.2972Z" fill="#F3F4F5"/>
<path d="M334.283 23.2972H344.649C343.915 22.0046 342.98 21.1654 341.846 21.0227H340.769C338.36 21.1618 336.135 21.9841 334.283 23.2972Z" fill="#E73625"/>
<path d="M329.466 30.1198H346.505C346.424 29.3384 346.314 28.576 346.175 27.8459H330.353C329.983 28.5729 329.686 29.3345 329.466 30.1198Z" fill="#F3F4F5"/>
<path d="M331.837 25.5711C331.263 26.2696 330.766 27.0324 330.353 27.8454H346.175C346.021 27.0413 345.832 26.2785 345.608 25.5711H331.837Z" fill="#E73625"/>
<path d="M329 33.5002C329 33.8941 329.021 34.2839 329.056 34.6686H346.658C346.684 33.9126 346.684 33.151 346.659 32.3947H329.052C329.02 32.7593 329 33.1273 329 33.5002Z" fill="#F3F4F5"/>
<path d="M329.052 32.3942H346.659C346.635 31.6346 346.583 30.8761 346.505 30.1202H329.466C329.258 30.8637 329.119 31.625 329.052 32.3942Z" fill="#E73625"/>
<path d="M346.499 36.9429H329.484C329.709 37.7289 330.011 38.4907 330.385 39.2172H346.162C346.303 38.4879 346.416 37.7255 346.499 36.9429Z" fill="#F3F4F5"/>
<path d="M329.484 36.9429H346.499C346.578 36.1986 346.631 35.4368 346.658 34.669H329.056C329.128 35.4386 329.271 36.1999 329.484 36.9429Z" fill="#E73625"/>
<path d="M334.372 43.7658H344.611C344.989 43.1154 345.314 42.3469 345.588 41.4919H331.89C332.611 42.3577 333.446 43.1225 334.372 43.7658Z" fill="#F3F4F5"/>
<path d="M330.385 39.2174C330.805 40.0311 331.309 40.794 331.89 41.4917H345.588C345.815 40.7855 346.006 40.0223 346.162 39.2174H330.385ZM340.971 45.9883C340.996 45.9891 341.022 45.9903 341.047 45.9911C341.197 45.9964 341.348 46 341.5 46C342.771 46 343.808 45.1499 344.611 43.7665H334.372C336.259 45.0787 338.524 45.8863 340.971 45.9883Z" fill="#E73625"/>
<path d="M341.241 21.0066C334.836 21.1369 329.615 26.0827 329.053 32.3739H341.242V21.0066H341.241Z" fill="#283991"/>
<path d="M331.501 28.0822L331.691 28.6686H332.308L331.809 29.0311L332 29.6179L331.501 29.2551L331.002 29.6179L331.193 29.0311L330.694 28.6686H331.311L331.501 28.0822ZM331.501 30.1538L331.691 30.7405H332.308L331.809 31.1031L332 31.6899L331.501 31.3271L331.002 31.6899L331.193 31.1031L330.694 30.7405H331.311L331.501 30.1538ZM333.573 24.974L333.764 25.5606H334.38L333.881 25.9234L334.072 26.5098L333.573 26.1474L333.074 26.5098L333.265 25.9234L332.765 25.5606H333.382L333.573 24.974ZM333.573 27.046L333.764 27.6326H334.38L333.881 27.9949L334.072 28.5817L333.573 28.2194L333.074 28.5817L333.265 27.9949L332.765 27.6326H333.382L333.573 27.046ZM333.573 29.118L333.764 29.7048H334.38L333.881 30.0669L334.072 30.6537L333.573 30.291L333.074 30.6537L333.265 30.0669L332.765 29.7048H333.382L333.573 29.118ZM329.928 30.6537L329.737 30.0669L330.236 29.7045H329.62L329.606 29.6617C329.538 29.8719 329.476 30.0839 329.421 30.2975L329.429 30.291L329.928 30.6537ZM331.002 27.546L331.501 27.1832L332 27.546L331.809 26.9592L332.308 26.5964H331.691L331.501 26.01L331.31 26.5964H331.083C331.041 26.6604 331 26.7247 330.959 26.7896L331.193 26.9592L331.002 27.546ZM333.573 24.0754L334.072 24.4378L333.881 23.8514L334.38 23.4887H334.024C333.721 23.7146 333.429 23.9543 333.149 24.2069L333.074 24.4378L333.573 24.0754ZM335.146 23.402L335.645 23.0392L336.144 23.402L335.953 22.8152L336.452 22.4528H335.835L335.809 22.3739C335.6 22.4806 335.394 22.5917 335.191 22.71L335.336 22.8151L335.146 23.402ZM335.645 23.9382L335.836 24.5244H336.452L335.953 24.8872L336.144 25.474L335.645 25.1112L335.146 25.474L335.337 24.8872L334.837 24.5244H335.454L335.645 23.9382ZM335.645 26.0102L335.836 26.5964H336.452L335.953 26.9592L336.144 27.546L335.645 27.1832L335.146 27.546L335.337 26.9592L334.837 26.5964H335.454L335.645 26.0102ZM335.645 28.0822L335.836 28.6686H336.452L335.953 29.0311L336.144 29.6179L335.645 29.2551L335.146 29.6179L335.337 29.0311L334.837 28.6686H335.454L335.645 28.0822ZM335.645 30.1538L335.836 30.7405H336.452L335.953 31.1031L336.144 31.6899L335.645 31.3271L335.146 31.6899L335.337 31.1031L334.837 30.7405H335.454L335.645 30.1538ZM337.717 22.902L337.908 23.4886H338.524L338.026 23.8514L338.216 24.4378L337.717 24.0754L337.218 24.4378L337.409 23.8514L336.909 23.4886H337.526L337.717 22.902ZM337.717 24.974L337.908 25.5606H338.524L338.026 25.9234L338.216 26.5098L337.717 26.1474L337.218 26.5098L337.409 25.9234L336.909 25.5606H337.526L337.717 24.974ZM337.717 27.046L337.908 27.6326H338.524L338.026 27.9949L338.216 28.5817L337.717 28.2194L337.218 28.5817L337.409 27.9949L336.909 27.6326H337.526L337.717 27.046ZM337.717 29.118L337.908 29.7048H338.524L338.026 30.0669L338.216 30.6537L337.717 30.291L337.218 30.6537L337.409 30.0669L336.909 29.7048H337.526L337.717 29.118ZM339.789 21.8662L339.98 22.4528H340.596L340.097 22.8152L340.288 23.402L339.789 23.0392L339.29 23.402L339.481 22.8152L338.981 22.4528H339.598L339.789 21.8662ZM339.789 23.9382L339.98 24.5244H340.596L340.097 24.8872L340.288 25.474L339.789 25.1112L339.29 25.474L339.481 24.8872L338.981 24.5244H339.598L339.789 23.9382ZM339.789 26.0102L339.98 26.5964H340.596L340.097 26.9592L340.288 27.546L339.789 27.1832L339.29 27.546L339.481 26.9592L338.981 26.5964H339.598L339.789 26.0102ZM339.789 28.0822L339.98 28.6686H340.596L340.097 29.0311L340.288 29.6179L339.789 29.2551L339.29 29.6179L339.481 29.0311L338.981 28.6686H339.598L339.789 28.0822ZM339.789 30.1538L339.98 30.7405H340.596L340.097 31.1031L340.288 31.6899L339.789 31.3271L339.29 31.6899L339.481 31.1031L338.981 30.7405H339.598L339.789 30.1538Z" fill="#EFEFEF"/>
<defs>
<linearGradient id="paint0_linear_489_13196" x1="87.999" y1="26.499" x2="112.999" y2="26.499" gradientUnits="userSpaceOnUse">
<stop stop-color="#F3F2F2"/>
<stop offset="1" stop-color="#EFECEC"/>
</linearGradient>
</defs>
</svg>
