<svg width="1920" height="812" viewBox="0 0 1920 812" fill="none" xmlns="http://www.w3.org/2000/svg">
<path d="M1081 68.4267C1003.4 321.198 854.239 741.089 878.336 398.488C908.457 -29.7635 702.519 -77.6757 542.745 47.1325C382.971 171.941 434.046 642.781 275.254 383.7C116.462 124.62 -31.8526 -16.7504 58.8389 19.3316C186.716 70.208 64.0774 398.488 -43.6392 313.311C-78.0421 286.107 -143.171 107.269 -171 19.3316" stroke="#EFEFEF" stroke-opacity="0.5"/>
<path d="M1081 80.2543C1003.4 333.025 854.239 752.917 878.336 410.316C908.457 -17.936 702.519 -65.8481 542.745 58.96C382.971 183.768 434.046 654.608 275.254 395.528C116.462 136.448 -31.8526 -4.92284 58.8389 31.1591C186.716 82.0355 64.0774 410.316 -43.6392 325.139C-78.0421 297.934 -143.171 119.097 -171 31.1591" stroke="#EFEFEF" stroke-opacity="0.5"/>
<path d="M1081 92.0818C1003.4 344.853 854.239 764.745 878.336 422.143C908.457 -6.10846 702.519 -54.0206 542.745 70.7876C382.971 195.596 434.046 666.436 275.254 407.356C116.462 148.275 -31.8526 6.90471 58.8389 42.9867C186.716 93.863 64.0774 422.143 -43.6392 336.966C-78.0421 309.762 -143.171 130.924 -171 42.9867" stroke="#EFEFEF" stroke-opacity="0.5"/>
<path d="M1081 103.909C1003.4 356.68 854.239 776.572 878.336 433.971C908.457 5.71889 702.519 -42.1933 542.745 82.6149C382.971 207.423 434.046 678.263 275.254 419.183C116.462 160.102 -31.8526 18.7321 58.8389 54.814C186.716 105.69 64.0774 433.971 -43.6392 348.793C-78.0421 321.589 -143.171 142.752 -171 54.814" stroke="#EFEFEF" stroke-opacity="0.5"/>
<path d="M1081 113.955C1003.4 361.195 854.239 771.899 878.336 436.794C908.457 17.9136 702.519 -28.9502 542.745 93.127C382.971 215.204 434.046 675.742 275.254 422.33C116.462 168.919 -31.8526 30.642 58.8389 65.9344C186.716 115.698 64.0774 436.794 -43.6392 353.481C-78.0421 326.872 -143.171 151.948 -171 65.9344" stroke="#EFEFEF" stroke-opacity="0.5"/>
<path d="M1081 125.783C1003.4 373.023 854.239 783.726 878.336 448.622C908.457 29.7409 702.519 -17.1228 542.745 104.954C382.971 227.032 434.046 687.569 275.254 434.158C116.462 180.746 -31.8526 42.4694 58.8389 77.7618C186.716 127.525 64.0774 448.622 -43.6392 365.308C-78.0421 338.699 -143.171 163.775 -171 77.7618" stroke="#EFEFEF" stroke-opacity="0.5"/>
<path d="M1081 137.61C1003.4 384.85 854.239 795.554 878.336 460.449C908.457 41.5683 702.519 -5.29544 542.745 116.782C382.971 238.859 434.046 699.396 275.254 445.985C116.462 192.574 -31.8526 54.2967 58.8389 89.5892C186.716 139.352 64.0774 460.449 -43.6392 377.136C-78.0421 350.527 -143.171 175.602 -171 89.5892" stroke="#EFEFEF" stroke-opacity="0.5"/>
<path d="M1081 149.437C1003.4 396.677 854.239 807.381 878.336 472.277C908.457 53.3957 702.519 6.53195 542.745 128.609C382.971 250.686 434.046 711.224 275.254 457.812C116.462 204.401 -31.8526 66.1241 58.8389 101.417C186.716 151.18 64.0774 472.277 -43.6392 388.963C-78.0421 362.354 -143.171 187.43 -171 101.417" stroke="#EFEFEF" stroke-opacity="0.5"/>
<path d="M1081 161.265C1003.4 408.505 854.239 819.209 878.336 484.104C908.457 65.2234 702.519 18.3596 542.745 140.437C382.971 262.514 434.046 723.051 275.254 469.64C116.462 216.229 -31.8526 77.9518 58.8389 113.244C186.716 163.007 64.0774 484.104 -43.6392 400.791C-78.0421 374.182 -143.171 199.258 -171 113.244" stroke="#EFEFEF" stroke-opacity="0.5"/>
<path d="M1081 173.092C1003.4 420.332 854.239 831.036 878.336 495.931C908.457 77.0506 702.519 30.1868 542.745 152.264C382.971 274.341 434.046 734.879 275.254 481.467C116.462 228.056 -31.8526 89.779 58.8389 125.071C186.716 174.835 64.0774 495.931 -43.6392 412.618C-78.0421 386.009 -143.171 211.085 -171 125.071" stroke="#EFEFEF" stroke-opacity="0.5"/>
<path d="M1081 184.92C1003.4 432.16 854.239 842.864 878.336 507.759C908.457 88.878 702.519 42.0142 542.745 164.091C382.971 286.169 434.046 746.706 275.254 493.295C116.462 239.883 -31.8526 101.606 58.8389 136.899C186.716 186.662 64.0774 507.759 -43.6392 424.445C-78.0421 397.837 -143.171 222.912 -171 136.899" stroke="#EFEFEF" stroke-opacity="0.5"/>
<path d="M1081 196.747C1003.4 443.987 854.239 854.691 878.336 519.586C908.457 100.705 702.519 53.8417 542.745 175.919C382.971 297.996 434.046 758.534 275.254 505.122C116.462 251.711 -31.8526 113.434 58.8389 148.726C186.716 198.489 64.0774 519.586 -43.6392 436.273C-78.0421 409.664 -143.171 234.74 -171 148.726" stroke="#EFEFEF" stroke-opacity="0.5"/>
<path d="M1081 208.574C1003.4 455.814 854.239 866.518 878.336 531.414C908.457 112.533 702.519 65.669 542.745 187.746C382.971 309.823 434.046 770.361 275.254 516.949C116.462 263.538 -31.8526 125.261 58.8389 160.554C186.716 210.317 64.0774 531.414 -43.6392 448.1C-78.0421 421.491 -143.171 246.567 -171 160.554" stroke="#EFEFEF" stroke-opacity="0.5"/>
<path d="M1081 220.402C1003.4 467.642 854.239 878.346 878.336 543.241C908.457 124.36 702.519 77.4966 542.745 199.574C382.971 321.651 434.046 782.188 275.254 528.777C116.462 275.366 -31.8526 137.089 58.8389 172.381C186.716 222.144 64.0774 543.241 -43.6392 459.928C-78.0421 433.319 -143.171 258.395 -171 172.381" stroke="#EFEFEF" stroke-opacity="0.5"/>
<path d="M1081 232.23C1003.4 479.469 854.239 890.173 878.336 555.069C908.457 136.188 702.519 89.324 542.745 211.401C382.971 333.478 434.046 794.016 275.254 540.604C116.462 287.193 -31.8526 148.916 58.8389 184.209C186.716 233.972 64.0774 555.069 -43.6392 471.755C-78.0421 445.146 -143.171 270.222 -171 184.209" stroke="#EFEFEF" stroke-opacity="0.5"/>
<path d="M1081 244.057C1003.4 491.297 854.239 902.001 878.336 566.896C908.457 148.015 702.519 101.151 542.745 223.229C382.971 345.306 434.046 805.843 275.254 552.432C116.462 299.021 -31.8526 160.744 58.8389 196.036C186.716 245.799 64.0774 566.896 -43.6392 483.583C-78.0421 456.974 -143.171 282.049 -171 196.036" stroke="#EFEFEF" stroke-opacity="0.5"/>
<path d="M1081 255.884C1003.4 503.124 854.239 913.828 878.336 578.723C908.457 159.843 702.519 112.979 542.745 235.056C382.971 357.133 434.046 817.671 275.254 564.259C116.462 310.848 -31.8526 172.571 58.8389 207.863C186.716 257.626 64.0774 578.723 -43.6392 495.41C-78.0421 468.801 -143.171 293.877 -171 207.863" stroke="#EFEFEF" stroke-opacity="0.5"/>
<path d="M1081 267.712C1003.4 514.952 854.239 925.655 878.336 590.551C908.457 171.67 702.519 124.806 542.745 246.883C382.971 368.96 434.046 829.498 275.254 576.087C116.462 322.675 -31.8526 184.398 58.8389 219.691C186.716 269.454 64.0774 590.551 -43.6392 507.237C-78.0421 480.628 -143.171 305.704 -171 219.691" stroke="#EFEFEF" stroke-opacity="0.5"/>
<path d="M2333 163.046C2247.77 415.817 2083.91 835.709 2110.38 493.108C2143.47 64.8559 1917.26 16.9438 1741.75 141.752C1566.25 266.56 1622.35 737.4 1447.93 478.32C1273.5 219.239 1110.59 77.8691 1210.21 113.951C1350.67 164.827 1215.96 493.108 1097.64 407.93C1059.85 380.726 988.308 201.889 957.739 113.951" stroke="#EFEFEF" stroke-opacity="0.5"/>
<path d="M2333 174.874C2247.77 427.645 2083.91 847.536 2110.38 504.935C2143.47 76.6833 1917.26 28.7712 1741.75 153.579C1566.25 278.387 1622.35 749.228 1447.93 490.147C1273.5 231.067 1110.59 89.6965 1210.21 125.778C1350.67 176.655 1215.96 504.935 1097.64 419.758C1059.85 392.554 988.308 213.716 957.739 125.778" stroke="#EFEFEF" stroke-opacity="0.5"/>
<path d="M2333 186.701C2247.77 439.472 2083.91 859.364 2110.38 516.763C2143.47 88.5108 1917.26 40.5987 1741.75 165.407C1566.25 290.215 1622.35 761.055 1447.93 501.975C1273.5 242.894 1110.59 101.524 1210.21 137.606C1350.67 188.482 1215.96 516.763 1097.64 431.585C1059.85 404.381 988.308 225.543 957.739 137.606" stroke="#EFEFEF" stroke-opacity="0.5"/>
<path d="M2333 198.528C2247.77 451.299 2083.91 871.191 2110.38 528.59C2143.47 100.338 1917.26 52.4259 1741.75 177.234C1566.25 302.042 1622.35 772.882 1447.93 513.802C1273.5 254.722 1110.59 113.351 1210.21 149.433C1350.67 200.31 1215.96 528.59 1097.64 443.413C1059.85 416.208 988.308 237.371 957.739 149.433" stroke="#EFEFEF" stroke-opacity="0.5"/>
<path d="M2333 208.574C2247.77 455.814 2083.91 866.518 2110.38 531.414C2143.47 112.533 1917.26 65.669 1741.75 187.746C1566.25 309.823 1622.35 770.361 1447.93 516.949C1273.5 263.538 1110.59 125.261 1210.21 160.554C1350.67 210.317 1215.96 531.414 1097.64 448.1C1059.85 421.491 988.308 246.567 957.739 160.554" stroke="#EFEFEF" stroke-opacity="0.5"/>
<path d="M2333 220.402C2247.77 467.642 2083.91 878.346 2110.38 543.241C2143.47 124.36 1917.26 77.4966 1741.75 199.574C1566.25 321.651 1622.35 782.188 1447.93 528.777C1273.5 275.366 1110.59 137.089 1210.21 172.381C1350.67 222.144 1215.96 543.241 1097.64 459.928C1059.85 433.319 988.308 258.395 957.739 172.381" stroke="#EFEFEF" stroke-opacity="0.5"/>
<path d="M2333 232.23C2247.77 479.469 2083.91 890.173 2110.38 555.069C2143.47 136.188 1917.26 89.324 1741.75 211.401C1566.25 333.478 1622.35 794.016 1447.93 540.604C1273.5 287.193 1110.59 148.916 1210.21 184.209C1350.67 233.972 1215.96 555.069 1097.64 471.755C1059.85 445.146 988.308 270.222 957.739 184.209" stroke="#EFEFEF" stroke-opacity="0.5"/>
<path d="M2333 244.057C2247.77 491.297 2083.91 902.001 2110.38 566.896C2143.47 148.015 1917.26 101.151 1741.75 223.229C1566.25 345.306 1622.35 805.843 1447.93 552.432C1273.5 299.021 1110.59 160.744 1210.21 196.036C1350.67 245.799 1215.96 566.896 1097.64 483.583C1059.85 456.974 988.308 282.049 957.739 196.036" stroke="#EFEFEF" stroke-opacity="0.5"/>
<path d="M2333 255.884C2247.77 503.124 2083.91 913.828 2110.38 578.723C2143.47 159.843 1917.26 112.979 1741.75 235.056C1566.25 357.133 1622.35 817.671 1447.93 564.259C1273.5 310.848 1110.59 172.571 1210.21 207.863C1350.67 257.626 1215.96 578.723 1097.64 495.41C1059.85 468.801 988.308 293.877 957.739 207.863" stroke="#EFEFEF" stroke-opacity="0.5"/>
<path d="M2333 267.712C2247.77 514.952 2083.91 925.655 2110.38 590.551C2143.47 171.67 1917.26 124.806 1741.75 246.883C1566.25 368.96 1622.35 829.498 1447.93 576.087C1273.5 322.675 1110.59 184.398 1210.21 219.691C1350.67 269.454 1215.96 590.551 1097.64 507.237C1059.85 480.628 988.308 305.704 957.739 219.691" stroke="#EFEFEF" stroke-opacity="0.5"/>
<path d="M2333 279.539C2247.77 526.779 2083.91 937.483 2110.38 602.378C2143.47 183.497 1917.26 136.634 1741.75 258.711C1566.25 380.788 1622.35 841.325 1447.93 587.914C1273.5 334.503 1110.59 196.226 1210.21 231.518C1350.67 281.281 1215.96 602.378 1097.64 519.065C1059.85 492.456 988.308 317.531 957.739 231.518" stroke="#EFEFEF" stroke-opacity="0.5"/>
<path d="M2333 291.367C2247.77 538.607 2083.91 949.31 2110.38 614.206C2143.47 195.325 1917.26 148.461 1741.75 270.538C1566.25 392.615 1622.35 853.153 1447.93 599.742C1273.5 346.33 1110.59 208.053 1210.21 243.346C1350.67 293.109 1215.96 614.206 1097.64 530.892C1059.85 504.283 988.308 329.359 957.739 243.346" stroke="#EFEFEF" stroke-opacity="0.5"/>
<path d="M2333 303.194C2247.77 550.434 2083.91 961.138 2110.38 626.033C2143.47 207.152 1917.26 160.288 1741.75 282.365C1566.25 404.443 1622.35 864.98 1447.93 611.569C1273.5 358.157 1110.59 219.88 1210.21 255.173C1350.67 304.936 1215.96 626.033 1097.64 542.72C1059.85 516.111 988.308 341.186 957.739 255.173" stroke="#EFEFEF" stroke-opacity="0.5"/>
<path d="M2333 315.021C2247.77 562.261 2083.91 972.965 2110.38 637.86C2143.47 218.98 1917.26 172.116 1741.75 294.193C1566.25 416.27 1622.35 876.808 1447.93 623.396C1273.5 369.985 1110.59 231.708 1210.21 267C1350.67 316.764 1215.96 637.86 1097.64 554.547C1059.85 527.938 988.308 353.014 957.739 267" stroke="#EFEFEF" stroke-opacity="0.5"/>
<path d="M2333 326.849C2247.77 574.089 2083.91 984.792 2110.38 649.688C2143.47 230.807 1917.26 183.943 1741.75 306.02C1566.25 428.097 1622.35 888.635 1447.93 635.224C1273.5 381.812 1110.59 243.535 1210.21 278.828C1350.67 328.591 1215.96 649.688 1097.64 566.374C1059.85 539.765 988.308 364.841 957.739 278.828" stroke="#EFEFEF" stroke-opacity="0.5"/>
<path d="M2333 338.676C2247.77 585.916 2083.91 996.62 2110.38 661.515C2143.47 242.634 1917.26 195.771 1741.75 317.848C1566.25 439.925 1622.35 900.463 1447.93 647.051C1273.5 393.64 1110.59 255.363 1210.21 290.655C1350.67 340.418 1215.96 661.515 1097.64 578.202C1059.85 551.593 988.308 376.669 957.739 290.655" stroke="#EFEFEF" stroke-opacity="0.5"/>
<path d="M2333 350.504C2247.77 597.744 2083.91 1008.45 2110.38 673.343C2143.47 254.462 1917.26 207.598 1741.75 329.675C1566.25 451.752 1622.35 912.29 1447.93 658.879C1273.5 405.467 1110.59 267.19 1210.21 302.483C1350.67 352.246 1215.96 673.343 1097.64 590.029C1059.85 563.42 988.308 388.496 957.739 302.483" stroke="#EFEFEF" stroke-opacity="0.5"/>
<path d="M2333 362.331C2247.77 609.571 2083.91 1020.27 2110.38 685.17C2143.47 266.289 1917.26 219.425 1741.75 341.503C1566.25 463.58 1622.35 924.117 1447.93 670.706C1273.5 417.295 1110.59 279.018 1210.21 314.31C1350.67 364.073 1215.96 685.17 1097.64 601.857C1059.85 575.248 988.308 400.323 957.739 314.31" stroke="#EFEFEF" stroke-opacity="0.5"/>
</svg>
