<svg width="25" height="25" viewBox="0 0 25 25" fill="none" xmlns="http://www.w3.org/2000/svg">
<path d="M21.0938 1.5625H17.9687V0.781249C17.9687 0.349992 17.6187 0 17.1875 0C16.7563 0 16.4063 0.349992 16.4063 0.781249V1.5625H8.59378V0.781249C8.59374 0.349992 8.24375 0 7.81249 0C7.38123 0 7.03124 0.349992 7.03124 0.781249V1.5625H3.90625C2.18049 1.5625 0.78125 2.96174 0.78125 4.68749V21.8749C0.78125 23.6007 2.18049 25 3.90625 25H21.0937C22.8195 25 24.2187 23.6008 24.2187 21.8749V4.68749C24.2187 2.9617 22.8195 1.5625 21.0938 1.5625ZM22.6563 21.8749C22.6563 22.7382 21.957 23.4375 21.0938 23.4375H3.90625C3.04297 23.4375 2.34375 22.7374 2.34375 21.8749V7.81249H22.6562L22.6563 21.8749ZM22.6563 6.24999H2.34375V4.68749C2.34375 3.82421 3.04297 3.125 3.90625 3.125H7.03124V3.90624C7.03124 4.3375 7.38123 4.68749 7.81249 4.68749C8.24375 4.68749 8.59374 4.3375 8.59374 3.90624V3.125H16.4062V3.90624C16.4062 4.3375 16.7563 4.68749 17.1875 4.68749C17.6187 4.68749 17.9687 4.3375 17.9687 3.90624V3.125H21.0938C21.957 3.125 22.6563 3.82421 22.6563 4.68749V6.24999Z" fill="#EFEFEF"/>
</svg>
