<svg width="1920" height="824" viewBox="0 0 1920 824" fill="none" xmlns="http://www.w3.org/2000/svg">
<path d="M1092 741.438C1169.6 488.167 1318.76 67.4459 1294.66 410.724C1264.54 839.822 1470.48 887.829 1630.26 762.774C1790.03 637.72 1738.95 165.949 1897.75 425.541C2056.54 685.134 2204.85 826.783 2114.16 790.63C1986.28 739.653 2108.92 410.724 2216.64 496.07C2251.04 523.328 2316.17 702.519 2344 790.63" stroke="#EFEFEF" stroke-opacity="0.5"/>
<path d="M1092 729.587C1169.6 476.316 1318.76 55.595 1294.66 398.873C1264.54 827.971 1470.48 875.978 1630.26 750.923C1790.03 625.869 1738.95 154.098 1897.75 413.69C2056.54 673.283 2204.85 814.933 2114.16 778.779C1986.28 727.802 2108.92 398.873 2216.64 484.219C2251.04 511.477 2316.17 690.668 2344 778.779" stroke="#EFEFEF" stroke-opacity="0.5"/>
<path d="M1092 717.736C1169.6 464.466 1318.76 43.7441 1294.66 387.023C1264.54 816.121 1470.48 864.127 1630.26 739.073C1790.03 614.018 1738.95 142.247 1897.75 401.839C2056.54 661.432 2204.85 803.082 2114.16 766.928C1986.28 715.951 2108.92 387.023 2216.64 472.368C2251.04 499.626 2316.17 678.817 2344 766.928" stroke="#EFEFEF" stroke-opacity="0.5"/>
<path d="M1092 705.885C1169.6 452.615 1318.76 31.8934 1294.66 375.172C1264.54 804.27 1470.48 852.277 1630.26 727.222C1790.03 602.167 1738.95 130.396 1897.75 389.989C2056.54 649.581 2204.85 791.231 2114.16 755.078C1986.28 704.101 2108.92 375.172 2216.64 460.517C2251.04 487.775 2316.17 666.966 2344 755.078" stroke="#EFEFEF" stroke-opacity="0.5"/>
<path d="M1092 695.819C1169.6 448.091 1318.76 36.5755 1294.66 372.342C1264.54 792.051 1470.48 839.007 1630.26 716.689C1790.03 594.371 1738.95 132.923 1897.75 386.835C2056.54 640.747 2204.85 779.297 2114.16 743.935C1986.28 694.074 2108.92 372.342 2216.64 455.82C2251.04 482.482 2316.17 657.752 2344 743.935" stroke="#EFEFEF" stroke-opacity="0.5"/>
<path d="M1092 683.969C1169.6 436.24 1318.76 24.7247 1294.66 360.492C1264.54 780.2 1470.48 827.157 1630.26 704.838C1790.03 582.52 1738.95 121.072 1897.75 374.984C2056.54 628.896 2204.85 767.447 2114.16 732.084C1986.28 682.223 2108.92 360.492 2216.64 443.97C2251.04 470.631 2316.17 645.901 2344 732.084" stroke="#EFEFEF" stroke-opacity="0.5"/>
<path d="M1092 672.118C1169.6 424.389 1318.76 12.874 1294.66 348.641C1264.54 768.349 1470.48 815.306 1630.26 692.987C1790.03 570.669 1738.95 109.221 1897.75 363.134C2056.54 617.046 2204.85 755.596 2114.16 720.234C1986.28 670.372 2108.92 348.641 2216.64 432.119C2251.04 458.78 2316.17 634.05 2344 720.234" stroke="#EFEFEF" stroke-opacity="0.5"/>
<path d="M1092 660.267C1169.6 412.539 1318.76 1.02321 1294.66 336.79C1264.54 756.499 1470.48 803.455 1630.26 681.137C1790.03 558.818 1738.95 97.3707 1897.75 351.283C2056.54 605.195 2204.85 743.745 2114.16 708.383C1986.28 658.522 2108.92 336.79 2216.64 420.268C2251.04 446.93 2316.17 622.2 2344 708.383" stroke="#EFEFEF" stroke-opacity="0.5"/>
<path d="M1092 648.416C1169.6 400.688 1318.76 -10.8279 1294.66 324.939C1264.54 744.648 1470.48 791.604 1630.26 669.286C1790.03 546.967 1738.95 85.5196 1897.75 339.432C2056.54 593.344 2204.85 731.894 2114.16 696.532C1986.28 646.67 2108.92 324.939 2216.64 408.417C2251.04 435.079 2316.17 610.349 2344 696.532" stroke="#EFEFEF" stroke-opacity="0.5"/>
<path d="M1092 636.566C1169.6 388.837 1318.76 -22.6785 1294.66 313.088C1264.54 732.797 1470.48 779.753 1630.26 657.435C1790.03 535.117 1738.95 73.669 1897.75 327.581C2056.54 581.493 2204.85 720.044 2114.16 684.681C1986.28 634.82 2108.92 313.088 2216.64 396.566C2251.04 423.228 2316.17 598.498 2344 684.681" stroke="#EFEFEF" stroke-opacity="0.5"/>
<path d="M1092 624.715C1169.6 376.986 1318.76 -34.5292 1294.66 301.238C1264.54 720.946 1470.48 767.903 1630.26 645.584C1790.03 523.266 1738.95 61.8183 1897.75 315.73C2056.54 569.643 2204.85 708.193 2114.16 672.831C1986.28 622.969 2108.92 301.238 2216.64 384.716C2251.04 411.377 2316.17 586.647 2344 672.831" stroke="#EFEFEF" stroke-opacity="0.5"/>
<path d="M1092 612.864C1169.6 365.135 1318.76 -46.3801 1294.66 289.387C1264.54 709.095 1470.48 756.052 1630.26 633.733C1790.03 511.415 1738.95 49.9674 1897.75 303.879C2056.54 557.792 2204.85 696.342 2114.16 660.98C1986.28 611.118 2108.92 289.387 2216.64 372.865C2251.04 399.526 2316.17 574.796 2344 660.98" stroke="#EFEFEF" stroke-opacity="0.5"/>
<path d="M1092 601.013C1169.6 353.285 1318.76 -58.2307 1294.66 277.536C1264.54 697.245 1470.48 744.201 1630.26 621.883C1790.03 499.564 1738.95 38.1168 1897.75 292.029C2056.54 545.941 2204.85 684.491 2114.16 649.129C1986.28 599.268 2108.92 277.536 2216.64 361.014C2251.04 387.676 2316.17 562.946 2344 649.129" stroke="#EFEFEF" stroke-opacity="0.5"/>
<path d="M1092 589.162C1169.6 341.434 1318.76 -70.0818 1294.66 265.685C1264.54 685.394 1470.48 732.35 1630.26 610.032C1790.03 487.713 1738.95 26.2657 1897.75 280.178C2056.54 534.09 2204.85 672.64 2114.16 637.278C1986.28 587.417 2108.92 265.685 2216.64 349.163C2251.04 375.825 2316.17 551.095 2344 637.278" stroke="#EFEFEF" stroke-opacity="0.5"/>
<path d="M1092 577.312C1169.6 329.583 1318.76 -81.9325 1294.66 253.834C1264.54 673.543 1470.48 720.499 1630.26 598.181C1790.03 475.863 1738.95 14.415 1897.75 268.327C2056.54 522.239 2204.85 660.789 2114.16 625.427C1986.28 575.566 2108.92 253.834 2216.64 337.312C2251.04 363.974 2316.17 539.244 2344 625.427" stroke="#EFEFEF" stroke-opacity="0.5"/>
<path d="M1092 565.461C1169.6 317.732 1318.76 -93.7833 1294.66 241.984C1264.54 661.692 1470.48 708.649 1630.26 586.33C1790.03 464.012 1738.95 2.56424 1897.75 256.476C2056.54 510.388 2204.85 648.939 2114.16 613.577C1986.28 563.715 2108.92 241.984 2216.64 325.462C2251.04 352.123 2316.17 527.393 2344 613.577" stroke="#EFEFEF" stroke-opacity="0.5"/>
<path d="M1092 553.61C1169.6 305.881 1318.76 -105.634 1294.66 230.133C1264.54 649.842 1470.48 696.798 1630.26 574.479C1790.03 452.161 1738.95 -9.28653 1897.75 244.626C2056.54 498.538 2204.85 637.088 2114.16 601.726C1986.28 551.864 2108.92 230.133 2216.64 313.611C2251.04 340.272 2316.17 515.542 2344 601.726" stroke="#EFEFEF" stroke-opacity="0.5"/>
<path d="M1092 541.759C1169.6 294.031 1318.76 -117.485 1294.66 218.282C1264.54 637.991 1470.48 684.947 1630.26 562.629C1790.03 440.31 1738.95 -21.1373 1897.75 232.775C2056.54 486.687 2204.85 625.237 2114.16 589.875C1986.28 540.014 2108.92 218.282 2216.64 301.76C2251.04 328.422 2316.17 503.692 2344 589.875" stroke="#EFEFEF" stroke-opacity="0.5"/>
<path d="M-160 646.632C-74.7655 393.361 89.0863 -27.3606 62.6168 315.918C29.53 745.016 255.743 793.023 431.247 667.968C606.751 542.913 550.647 71.1424 725.073 330.735C899.498 590.327 1062.41 731.977 962.794 695.824C822.328 644.847 957.04 315.918 1075.36 401.263C1113.15 428.521 1184.69 607.712 1215.26 695.824" stroke="#EFEFEF" stroke-opacity="0.5"/>
<path d="M-160 634.781C-74.7655 381.51 89.0863 -39.2113 62.6168 304.067C29.53 733.165 255.743 781.172 431.247 656.117C606.751 531.062 550.647 59.2916 725.073 318.884C899.498 578.476 1062.41 720.126 962.794 683.973C822.328 632.996 957.04 304.067 1075.36 389.413C1113.15 416.671 1184.69 595.862 1215.26 683.973" stroke="#EFEFEF" stroke-opacity="0.5"/>
<path d="M-160 622.93C-74.7655 369.659 89.0863 -51.0622 62.6168 292.216C29.53 721.314 255.743 769.321 431.247 644.266C606.751 519.211 550.647 47.4407 725.073 307.033C899.498 566.626 1062.41 708.275 962.794 672.122C822.328 621.145 957.04 292.216 1075.36 377.562C1113.15 404.82 1184.69 584.011 1215.26 672.122" stroke="#EFEFEF" stroke-opacity="0.5"/>
<path d="M-160 611.079C-74.7655 357.809 89.0863 -62.9128 62.6168 280.366C29.53 709.464 255.743 757.47 431.247 632.416C606.751 507.361 550.647 35.5901 725.073 295.183C899.498 554.775 1062.41 696.425 962.794 660.271C822.328 609.295 957.04 280.366 1075.36 365.711C1113.15 392.969 1184.69 572.16 1215.26 660.271" stroke="#EFEFEF" stroke-opacity="0.5"/>
<path d="M-160 601.013C-74.7655 353.285 89.0863 -58.2307 62.6168 277.536C29.53 697.245 255.743 744.201 431.247 621.883C606.751 499.564 550.647 38.1168 725.073 292.029C899.498 545.941 1062.41 684.491 962.794 649.129C822.328 599.268 957.04 277.536 1075.36 361.014C1113.15 387.676 1184.69 562.946 1215.26 649.129" stroke="#EFEFEF" stroke-opacity="0.5"/>
<path d="M-160 589.162C-74.7655 341.434 89.0863 -70.0818 62.6168 265.685C29.53 685.394 255.743 732.35 431.247 610.032C606.751 487.713 550.647 26.2657 725.073 280.178C899.498 534.09 1062.41 672.64 962.794 637.278C822.328 587.417 957.04 265.685 1075.36 349.163C1113.15 375.825 1184.69 551.095 1215.26 637.278" stroke="#EFEFEF" stroke-opacity="0.5"/>
<path d="M-160 577.312C-74.7655 329.583 89.0863 -81.9325 62.6168 253.834C29.53 673.543 255.743 720.499 431.247 598.181C606.751 475.863 550.647 14.415 725.073 268.327C899.498 522.239 1062.41 660.789 962.794 625.427C822.328 575.566 957.04 253.834 1075.36 337.312C1113.15 363.974 1184.69 539.244 1215.26 625.427" stroke="#EFEFEF" stroke-opacity="0.5"/>
<path d="M-160 565.461C-74.7655 317.732 89.0863 -93.7833 62.6168 241.984C29.53 661.692 255.743 708.649 431.247 586.33C606.751 464.012 550.647 2.56424 725.073 256.476C899.498 510.388 1062.41 648.939 962.794 613.577C822.328 563.715 957.04 241.984 1075.36 325.462C1113.15 352.123 1184.69 527.393 1215.26 613.577" stroke="#EFEFEF" stroke-opacity="0.5"/>
<path d="M-160 553.61C-74.7655 305.881 89.0863 -105.634 62.6168 230.133C29.53 649.842 255.743 696.798 431.247 574.479C606.751 452.161 550.647 -9.28653 725.073 244.626C899.498 498.538 1062.41 637.088 962.794 601.726C822.328 551.864 957.04 230.133 1075.36 313.611C1113.15 340.272 1184.69 515.542 1215.26 601.726" stroke="#EFEFEF" stroke-opacity="0.5"/>
<path d="M-160 541.759C-74.7655 294.031 89.0863 -117.485 62.6168 218.282C29.53 637.991 255.743 684.947 431.247 562.629C606.751 440.31 550.647 -21.1373 725.073 232.775C899.498 486.687 1062.41 625.237 962.794 589.875C822.328 540.014 957.04 218.282 1075.36 301.76C1113.15 328.422 1184.69 503.692 1215.26 589.875" stroke="#EFEFEF" stroke-opacity="0.5"/>
<path d="M-160 529.909C-74.7655 282.18 89.0863 -129.335 62.6168 206.431C29.53 626.14 255.743 673.096 431.247 550.778C606.751 428.46 550.647 -32.988 725.073 220.924C899.498 474.836 1062.41 613.386 962.794 578.024C822.328 528.163 957.04 206.431 1075.36 289.909C1113.15 316.571 1184.69 491.841 1215.26 578.024" stroke="#EFEFEF" stroke-opacity="0.5"/>
<path d="M-160 518.058C-74.7655 270.329 89.0863 -141.186 62.6168 194.581C29.53 614.289 255.743 661.245 431.247 538.927C606.751 416.609 550.647 -44.8389 725.073 209.073C899.498 462.985 1062.41 601.536 962.794 566.173C822.328 516.312 957.04 194.581 1075.36 278.058C1113.15 304.72 1184.69 479.99 1215.26 566.173" stroke="#EFEFEF" stroke-opacity="0.5"/>
<path d="M-160 506.207C-74.7655 258.478 89.0863 -153.037 62.6168 182.73C29.53 602.438 255.743 649.395 431.247 527.076C606.751 404.758 550.647 -56.6895 725.073 197.223C899.498 451.135 1062.41 589.685 962.794 554.323C822.328 504.461 957.04 182.73 1075.36 266.208C1113.15 292.869 1184.69 468.139 1215.26 554.323" stroke="#EFEFEF" stroke-opacity="0.5"/>
<path d="M-160 494.356C-74.7655 246.627 89.0863 -164.888 62.6168 170.879C29.53 590.588 255.743 637.544 431.247 515.226C606.751 392.907 550.647 -68.5404 725.073 185.372C899.498 439.284 1062.41 577.834 962.794 542.472C822.328 492.61 957.04 170.879 1075.36 254.357C1113.15 281.019 1184.69 456.289 1215.26 542.472" stroke="#EFEFEF" stroke-opacity="0.5"/>
<path d="M-160 482.505C-74.7655 234.777 89.0863 -176.739 62.6168 159.028C29.53 578.737 255.743 625.693 431.247 503.375C606.751 381.056 550.647 -80.3912 725.073 173.521C899.498 427.433 1062.41 565.983 962.794 530.621C822.328 480.76 957.04 159.028 1075.36 242.506C1113.15 269.168 1184.69 444.438 1215.26 530.621" stroke="#EFEFEF" stroke-opacity="0.5"/>
<path d="M-160 470.654C-74.7655 222.926 89.0863 -188.59 62.6168 147.177C29.53 566.886 255.743 613.842 431.247 491.524C606.751 369.206 550.647 -92.2421 725.073 161.67C899.498 415.582 1062.41 554.132 962.794 518.77C822.328 468.909 957.04 147.177 1075.36 230.655C1113.15 257.317 1184.69 432.587 1215.26 518.77" stroke="#EFEFEF" stroke-opacity="0.5"/>
<path d="M-160 458.804C-74.7655 211.075 89.0863 -200.44 62.6168 135.327C29.53 555.035 255.743 601.992 431.247 479.673C606.751 357.355 550.647 -104.093 725.073 149.819C899.498 403.731 1062.41 542.282 962.794 506.919C822.328 457.058 957.04 135.327 1075.36 218.805C1113.15 245.466 1184.69 420.736 1215.26 506.919" stroke="#EFEFEF" stroke-opacity="0.5"/>
<path d="M-160 446.953C-74.7655 199.224 89.0863 -212.291 62.6168 123.476C29.53 543.184 255.743 590.141 431.247 467.822C606.751 345.504 550.647 -115.944 725.073 137.969C899.498 391.881 1062.41 530.431 962.794 495.069C822.328 445.207 957.04 123.476 1075.36 206.954C1113.15 233.615 1184.69 408.885 1215.26 495.069" stroke="#EFEFEF" stroke-opacity="0.5"/>
</svg>
