<svg width="240" height="78" viewBox="0 0 240 78" fill="none" xmlns="http://www.w3.org/2000/svg">
<circle cx="39" cy="39" r="39" fill="#EFEFEF"/>
<mask id="mask0_1479_2336" style="mask-type:alpha" maskUnits="userSpaceOnUse" x="1" y="1" width="76" height="76">
<circle cx="38.9204" cy="38.7607" r="37.3252" fill="url(#paint0_linear_1479_2336)"/>
</mask>
<g mask="url(#mask0_1479_2336)">
<path d="M30.9272 61.2485L30.9255 61.2522L30.9218 76.5828C30.9218 82.2977 26.2887 86.9326 20.572 86.9326C14.857 86.9326 10.2222 82.2977 10.2222 76.5828V61.7022C10.2222 50.0401 19.7098 40.5522 31.3721 40.5522H47.8563C48.3746 40.5522 48.8822 40.59 49.379 40.6637C39.0036 41.787 30.9272 50.5764 30.9272 61.2485Z" fill="#236FE3"/>
<path d="M49.0473 40.664C38.6722 41.7872 30.5956 50.5766 30.5956 61.2487L30.5939 61.2524L30.5902 76.583C30.5902 82.2979 25.957 86.9328 20.2403 86.9328C20.0639 86.9328 19.8877 86.9291 19.7129 86.9203C25.2605 86.6664 29.6794 82.0854 29.6794 76.4768L29.6831 60.988L29.6848 60.9843C29.6848 50.9817 36.7066 42.6174 46.0898 40.5527H47.5243C48.0429 40.5522 48.5505 40.5902 49.0473 40.664Z" fill="#EFEFEF"/>
<path d="M58.2053 50.9024C58.2053 55.2853 55.4819 59.031 51.6355 60.5395C50.5429 60.9696 49.3587 61.2182 48.1219 61.2488H30.9268C30.9268 50.5767 39.0034 41.7873 49.3785 40.6641C50.068 40.7648 50.7355 40.9342 51.3748 41.1662C51.4613 41.1986 51.5493 41.2309 51.6358 41.2653C55.4819 42.7752 58.2053 46.5212 58.2053 50.9024Z" fill="#162630"/>
<path opacity="0.3" d="M51.3745 41.1665C39.4838 41.703 32.8184 50.0024 32.8184 61.2488H30.9265C30.9265 50.5767 39.0032 41.7873 49.3783 40.6641C50.0677 40.7651 50.7353 40.9342 51.3745 41.1665Z" fill="#EFEFEF"/>
<path d="M44.8552 17.707C25.4099 18.5349 9.90112 34.562 9.90112 54.2108V38.857C9.90112 27.1768 19.3709 17.707 31.0511 17.707H44.8552Z" fill="#162630"/>
<path d="M67.2434 27.9204C67.3191 33.6984 62.657 38.4073 56.8952 38.4073H30.6046C30.6029 38.4073 30.6029 38.4073 30.6009 38.4073C22.4774 38.5693 15.4198 43.1485 11.7315 49.8335C11.2023 50.7911 10.7433 51.7918 10.3617 52.8305C10.3293 52.9133 10.2987 52.9942 10.2698 53.077C10.2698 53.0787 10.2681 53.0824 10.2681 53.0841C10.2357 53.1707 10.2051 53.2586 10.1744 53.3469C10.1131 53.5267 10.0538 53.7123 9.99256 53.9083L9.90063 54.2108C9.90063 34.562 25.4094 18.5349 44.8547 17.707H56.74C62.4283 17.7073 67.1696 22.2327 67.2434 27.9204Z" fill="#236FE3"/>
<path d="M46.5652 17.7078C28.8012 18.4639 13.5702 31.7613 11.3115 50.6347C10.7824 51.5922 10.7438 51.7925 10.3622 52.831C10.3315 52.9118 10.3009 52.9947 10.2702 53.0775C10.2702 53.0792 10.2685 53.0829 10.2685 53.0846C10.2379 53.1712 10.2073 53.2574 10.1749 53.3473C10.1136 53.5272 10.0543 53.7128 9.99305 53.9088C9.96241 54.0078 9.93176 54.1069 9.90112 54.2113C9.90112 34.5625 25.4098 18.5354 44.8552 17.7075L46.5652 17.7078Z" fill="#EFEFEF"/>
<path opacity="0.3" d="M44.8559 17.7061C25.4106 18.534 9.90186 34.561 9.90186 54.2098V46.0108C11.3778 39.3888 14.6394 33.2724 19.4383 28.2775C24.5591 22.9458 31.0195 19.3116 38.0861 17.7061H44.8559Z" fill="#EFEFEF"/>
</g>
<path d="M99.1573 18.0879C97.4218 18.0879 96.1112 18.4856 95.2254 19.281C94.3576 20.0584 93.9238 21.1973 93.9238 22.6977V24.867H102.601V27.1991H93.9238V34.873H91.2121V22.6706C91.2121 20.4832 91.8991 18.7748 93.273 17.5456C94.665 16.2982 96.5993 15.6745 99.0759 15.6745C100.161 15.6745 101.173 15.8011 102.113 16.0542C103.053 16.2892 103.867 16.6417 104.553 17.1117L103.659 19.3624C102.447 18.5127 100.947 18.0879 99.1573 18.0879ZM106.91 20.5013H109.513V34.873H106.91V20.5013ZM108.212 17.7354C107.706 17.7354 107.281 17.5727 106.937 17.2473C106.612 16.9219 106.449 16.5242 106.449 16.0542C106.449 15.5841 106.612 15.1864 106.937 14.861C107.281 14.5175 107.706 14.3458 108.212 14.3458C108.718 14.3458 109.134 14.5085 109.459 14.8339C109.803 15.1412 109.974 15.5299 109.974 15.9999C109.974 16.488 109.803 16.9038 109.459 17.2473C109.134 17.5727 108.718 17.7354 108.212 17.7354ZM122.158 20.3657C123.984 20.3657 125.43 20.899 126.497 21.9656C127.581 23.0141 128.123 24.5597 128.123 26.6025V34.873H125.52V26.9008C125.52 25.5088 125.186 24.4603 124.517 23.7553C123.848 23.0502 122.89 22.6977 121.643 22.6977C120.233 22.6977 119.121 23.1135 118.307 23.9451C117.494 24.7586 117.087 25.9336 117.087 27.4702V34.873H114.484V20.5013H116.979V22.6706C117.503 21.9294 118.208 21.36 119.094 20.9622C119.998 20.5645 121.019 20.3657 122.158 20.3657ZM146.579 20.5013V34.873H144.084V32.5953C143.506 33.3907 142.773 33.9963 141.888 34.4121C141.002 34.8279 140.026 35.0357 138.959 35.0357C137.567 35.0357 136.32 34.7284 135.217 34.1138C134.114 33.4991 133.247 32.6404 132.614 31.5377C131.999 30.4169 131.692 29.1334 131.692 27.6872C131.692 26.2409 131.999 24.9665 132.614 23.8637C133.247 22.761 134.114 21.9023 135.217 21.2876C136.32 20.673 137.567 20.3657 138.959 20.3657C139.99 20.3657 140.939 20.5645 141.806 20.9622C142.674 21.3419 143.397 21.9113 143.976 22.6706V20.5013H146.579ZM139.176 32.758C140.08 32.758 140.902 32.5501 141.644 32.1343C142.385 31.7004 142.963 31.1038 143.379 30.3446C143.795 29.5672 144.003 28.6814 144.003 27.6872C144.003 26.6929 143.795 25.8161 143.379 25.0568C142.963 24.2795 142.385 23.6829 141.644 23.2672C140.902 22.8514 140.08 22.6435 139.176 22.6435C138.254 22.6435 137.422 22.8514 136.681 23.2672C135.958 23.6829 135.38 24.2795 134.946 25.0568C134.53 25.8161 134.322 26.6929 134.322 27.6872C134.322 28.6814 134.53 29.5672 134.946 30.3446C135.38 31.1038 135.958 31.7004 136.681 32.1343C137.422 32.5501 138.254 32.758 139.176 32.758ZM159.178 20.3657C161.004 20.3657 162.45 20.899 163.517 21.9656C164.602 23.0141 165.144 24.5597 165.144 26.6025V34.873H162.541V26.9008C162.541 25.5088 162.206 24.4603 161.537 23.7553C160.869 23.0502 159.91 22.6977 158.663 22.6977C157.253 22.6977 156.141 23.1135 155.328 23.9451C154.514 24.7586 154.108 25.9336 154.108 27.4702V34.873H151.504V20.5013H153.999V22.6706C154.523 21.9294 155.228 21.36 156.114 20.9622C157.018 20.5645 158.039 20.3657 159.178 20.3657ZM174.083 35.0357C172.908 35.0357 171.778 34.8821 170.694 34.5748C169.609 34.2494 168.759 33.8426 168.145 33.3545L169.229 31.2937C169.862 31.7456 170.63 32.1072 171.534 32.3783C172.438 32.6495 173.351 32.7851 174.273 32.7851C176.551 32.7851 177.69 32.1343 177.69 30.8327C177.69 30.3988 177.536 30.0553 177.229 29.8022C176.922 29.5492 176.533 29.3684 176.063 29.2599C175.611 29.1334 174.96 28.9978 174.11 28.8532C172.953 28.6724 172.004 28.4645 171.263 28.2295C170.54 27.9945 169.916 27.5968 169.392 27.0364C168.868 26.4759 168.606 25.6896 168.606 24.6772C168.606 23.3756 169.148 22.3362 170.233 21.5588C171.317 20.7634 172.773 20.3657 174.599 20.3657C175.557 20.3657 176.515 20.4832 177.473 20.7182C178.431 20.9532 179.217 21.2696 179.832 21.6673L178.72 23.7281C177.545 22.9689 176.162 22.5892 174.571 22.5892C173.469 22.5892 172.628 22.77 172.05 23.1316C171.471 23.4931 171.182 23.9722 171.182 24.5688C171.182 25.0388 171.345 25.4094 171.67 25.6805C171.995 25.9517 172.393 26.1506 172.863 26.2771C173.351 26.4036 174.029 26.5483 174.897 26.711C176.054 26.9098 176.985 27.1267 177.69 27.3618C178.413 27.5787 179.028 27.9583 179.534 28.5007C180.04 29.043 180.293 29.8022 180.293 30.7784C180.293 32.08 179.733 33.1195 178.612 33.8969C177.509 34.6561 176 35.0357 174.083 35.0357ZM107.699 42.8914V61.873H104.987V53.4127H94.0865V61.873H91.3748V42.8914H94.0865V51.0535H104.987V42.8914H107.699ZM126.559 47.5013V61.873H124.064V59.5953C123.486 60.3907 122.754 60.9963 121.868 61.4121C120.982 61.8279 120.006 62.0357 118.939 62.0357C117.547 62.0357 116.3 61.7284 115.197 61.1138C114.095 60.4991 113.227 59.6404 112.594 58.5377C111.98 57.4169 111.672 56.1334 111.672 54.6872C111.672 53.2409 111.98 51.9665 112.594 50.8637C113.227 49.761 114.095 48.9023 115.197 48.2876C116.3 47.673 117.547 47.3657 118.939 47.3657C119.97 47.3657 120.919 47.5645 121.787 47.9622C122.654 48.3419 123.378 48.9113 123.956 49.6706V47.5013H126.559ZM119.156 59.758C120.06 59.758 120.883 59.5501 121.624 59.1343C122.365 58.7004 122.944 58.1038 123.359 57.3446C123.775 56.5672 123.983 55.6814 123.983 54.6872C123.983 53.6929 123.775 52.8161 123.359 52.0568C122.944 51.2795 122.365 50.6829 121.624 50.2672C120.883 49.8514 120.06 49.6435 119.156 49.6435C118.234 49.6435 117.403 49.8514 116.662 50.2672C115.939 50.6829 115.36 51.2795 114.926 52.0568C114.51 52.8161 114.303 53.6929 114.303 54.6872C114.303 55.6814 114.51 56.5672 114.926 57.3446C115.36 58.1038 115.939 58.7004 116.662 59.1343C117.403 59.5501 118.234 59.758 119.156 59.758ZM139.159 47.3657C140.985 47.3657 142.431 47.899 143.497 48.9656C144.582 50.0141 145.124 51.5597 145.124 53.6025V61.873H142.521V53.9008C142.521 52.5088 142.187 51.4603 141.518 50.7553C140.849 50.0502 139.891 49.6977 138.643 49.6977C137.233 49.6977 136.122 50.1135 135.308 50.9451C134.495 51.7586 134.088 52.9336 134.088 54.4702V61.873H131.485V47.5013H133.979V49.6706C134.504 48.9294 135.209 48.36 136.094 47.9622C136.998 47.5645 138.02 47.3657 139.159 47.3657ZM163.58 41.7526V61.873H161.085V59.5953C160.506 60.3907 159.774 60.9963 158.889 61.4121C158.003 61.8279 157.027 62.0357 155.96 62.0357C154.568 62.0357 153.321 61.7284 152.218 61.1138C151.115 60.4991 150.247 59.6404 149.615 58.5377C149 57.4169 148.693 56.1334 148.693 54.6872C148.693 53.2409 149 51.9665 149.615 50.8637C150.247 49.761 151.115 48.9023 152.218 48.2876C153.321 47.673 154.568 47.3657 155.96 47.3657C156.99 47.3657 157.939 47.5645 158.807 47.9622C159.675 48.3419 160.398 48.9113 160.976 49.6706V41.7526H163.58ZM156.177 59.758C157.081 59.758 157.903 59.5501 158.644 59.1343C159.386 58.7004 159.964 58.1038 160.38 57.3446C160.796 56.5672 161.004 55.6814 161.004 54.6872C161.004 53.6929 160.796 52.8161 160.38 52.0568C159.964 51.2795 159.386 50.6829 158.644 50.2672C157.903 49.8514 157.081 49.6435 156.177 49.6435C155.255 49.6435 154.423 49.8514 153.682 50.2672C152.959 50.6829 152.381 51.2795 151.947 52.0568C151.531 52.8161 151.323 53.6929 151.323 54.6872C151.323 55.6814 151.531 56.5672 151.947 57.3446C152.381 58.1038 152.959 58.7004 153.682 59.1343C154.423 59.5501 155.255 59.758 156.177 59.758ZM174.986 59.758C176.703 59.758 178.086 59.1795 179.135 58.0225L180.545 59.7037C179.912 60.463 179.108 61.0415 178.132 61.4392C177.173 61.8369 176.098 62.0357 174.905 62.0357C173.386 62.0357 172.039 61.7284 170.864 61.1138C169.689 60.4811 168.776 59.6043 168.126 58.4835C167.493 57.3627 167.176 56.0972 167.176 54.6872C167.176 53.2952 167.484 52.0388 168.098 50.918C168.731 49.7971 169.59 48.9294 170.674 48.3148C171.777 47.682 173.016 47.3657 174.389 47.3657C175.691 47.3657 176.875 47.664 177.942 48.2605C179.008 48.839 179.858 49.6616 180.491 50.7281C181.123 51.7947 181.449 53.024 181.467 54.416L170.051 56.6395C170.412 57.6338 171.018 58.4021 171.868 58.9445C172.735 59.4868 173.775 59.758 174.986 59.758ZM174.389 49.5621C173.486 49.5621 172.672 49.77 171.949 50.1858C171.244 50.6016 170.693 51.1891 170.295 51.9484C169.897 52.6896 169.698 53.5573 169.698 54.5516V54.8227L178.891 53.0873C178.656 52.0388 178.132 51.1891 177.318 50.5383C176.505 49.8875 175.528 49.5621 174.389 49.5621ZM189.475 62.0357C188.083 62.0357 187.007 61.6561 186.248 60.8969C185.488 60.1195 185.109 59.0348 185.109 57.6429V41.7526H187.712V57.4259C187.712 58.2033 187.893 58.7998 188.254 59.2156C188.634 59.6314 189.194 59.8393 189.935 59.8393C190.387 59.8393 190.812 59.7489 191.21 59.5681L191.346 61.7103C190.749 61.9273 190.125 62.0357 189.475 62.0357ZM209.455 42.6745C211.986 42.6745 213.984 43.4157 215.448 44.8981C216.912 46.3624 217.644 48.4684 217.644 51.2162V61.873H214.933V56.6395H203.978V61.873H201.32V51.2162C201.32 48.4684 202.052 46.3624 203.517 44.8981C204.981 43.4157 206.96 42.6745 209.455 42.6745ZM214.933 54.2804V50.9722C214.933 49.0379 214.445 47.5736 213.468 46.5793C212.51 45.585 211.173 45.0879 209.455 45.0879C207.738 45.0879 206.391 45.585 205.415 46.5793C204.457 47.5736 203.978 49.0379 203.978 50.9722V54.2804H214.933ZM230.411 47.3657C231.803 47.3657 233.05 47.673 234.153 48.2876C235.256 48.9023 236.115 49.761 236.729 50.8637C237.362 51.9665 237.678 53.2409 237.678 54.6872C237.678 56.1334 237.362 57.4169 236.729 58.5377C236.115 59.6404 235.256 60.4991 234.153 61.1138C233.05 61.7284 231.803 62.0357 230.411 62.0357C229.344 62.0357 228.368 61.8279 227.482 61.4121C226.597 60.9963 225.864 60.3907 225.286 59.5953V61.873H222.791V41.7526H225.394V49.6706C225.973 48.9113 226.696 48.3419 227.564 47.9622C228.431 47.5645 229.381 47.3657 230.411 47.3657ZM230.194 59.758C231.116 59.758 231.939 59.5501 232.662 59.1343C233.403 58.7004 233.981 58.1038 234.397 57.3446C234.831 56.5672 235.048 55.6814 235.048 54.6872C235.048 53.6929 234.831 52.8161 234.397 52.0568C233.981 51.2795 233.403 50.6829 232.662 50.2672C231.939 49.8514 231.116 49.6435 230.194 49.6435C229.29 49.6435 228.468 49.8514 227.726 50.2672C226.985 50.6829 226.407 51.2795 225.991 52.0568C225.575 52.8161 225.367 53.6929 225.367 54.6872C225.367 55.6814 225.575 56.5672 225.991 57.3446C226.407 58.1038 226.985 58.7004 227.726 59.1343C228.468 59.5501 229.29 59.758 230.194 59.758Z" fill="#EFEFEF"/>
<defs>
<linearGradient id="paint0_linear_1479_2336" x1="76.2455" y1="76.0859" x2="-8.85583" y2="-10.1353" gradientUnits="userSpaceOnUse">
<stop stop-color="white"/>
<stop offset="0.364998" stop-color="#C8C8C8"/>
<stop offset="0.457562" stop-color="#C8C8C8"/>
<stop offset="0.529899" stop-color="#C8C8C8"/>
<stop offset="1" stop-color="white"/>
</linearGradient>
</defs>
</svg>
