<svg width="186" height="60" viewBox="0 0 186 60" fill="none" xmlns="http://www.w3.org/2000/svg">
<circle cx="30.9509" cy="30" r="30" fill="#EFEFEF"/>
<mask id="mask0_1392_57482" style="mask-type:alpha" maskUnits="userSpaceOnUse" x="2" y="1" width="58" height="58">
<circle cx="30.8896" cy="29.816" r="28.7117" fill="url(#paint0_linear_1392_57482)"/>
</mask>
<g mask="url(#mask0_1392_57482)">
<path d="M24.7412 47.114L24.7399 47.1168L24.737 58.9096C24.737 63.3057 21.1731 66.871 16.7756 66.871C12.3795 66.871 8.81421 63.3057 8.81421 58.9096V47.463C8.81421 38.4922 16.1124 31.1938 25.0834 31.1938H37.7635C38.1622 31.1938 38.5527 31.2228 38.9348 31.2796C30.9538 32.1436 24.7412 38.9047 24.7412 47.114Z" fill="#236FE3"/>
<path d="M38.6797 31.2797C30.6989 32.1438 24.486 38.9048 24.486 47.1142L24.4847 47.117L24.4819 58.9097C24.4819 63.3059 20.9179 66.8712 16.5205 66.8712C16.3847 66.8712 16.2492 66.8683 16.1147 66.8615C20.3821 66.6662 23.7813 63.1424 23.7813 58.8281L23.7841 46.9136L23.7855 46.9108C23.7855 39.2165 29.1868 32.7824 36.4047 31.1942H37.5081C37.9071 31.1938 38.2975 31.223 38.6797 31.2797Z" fill="#EFEFEF"/>
<path d="M45.7242 39.1554C45.7242 42.5269 43.6293 45.4082 40.6705 46.5686C39.8301 46.8995 38.9191 47.0906 37.9678 47.1142H24.7407C24.7407 38.9049 30.9535 32.1438 38.9344 31.2798C39.4647 31.3573 39.9782 31.4876 40.47 31.6661C40.5365 31.691 40.6042 31.7158 40.6707 31.7422C43.6293 32.9038 45.7242 35.7853 45.7242 39.1554Z" fill="#162630"/>
<path opacity="0.3" d="M40.47 31.666C31.3233 32.0787 26.196 38.4629 26.196 47.1139H24.7407C24.7407 38.9046 30.9535 32.1435 38.9344 31.2795C39.4647 31.3572 39.9783 31.4873 40.47 31.666Z" fill="#EFEFEF"/>
<path d="M35.4556 13.6198C20.4977 14.2567 8.56787 26.5852 8.56787 41.6996V29.889C8.56787 20.9043 15.8523 13.6198 24.8371 13.6198H35.4556Z" fill="#162630"/>
<path d="M52.6774 21.4761C52.7357 25.9207 49.1495 29.5429 44.7173 29.5429H24.4937C24.4924 29.5429 24.4924 29.5429 24.4909 29.5429C18.2421 29.6675 12.8132 33.19 9.97597 38.3323C9.56894 39.0689 9.21582 39.8387 8.92228 40.6377C8.8974 40.7014 8.87383 40.7636 8.85157 40.8273C8.85157 40.8286 8.85026 40.8315 8.85026 40.8328C8.82538 40.8993 8.80181 40.967 8.77824 41.0349C8.7311 41.1732 8.68548 41.316 8.63834 41.4668L8.56763 41.6994C8.56763 26.585 20.4974 14.2565 35.4554 13.6196H44.5979C48.9736 13.6198 52.6207 17.1009 52.6774 21.4761Z" fill="#236FE3"/>
<path d="M36.771 13.6198C23.1064 14.2015 11.3902 24.4302 9.65277 38.9482C9.24574 39.6848 9.21606 39.8389 8.92252 40.6377C8.89895 40.6999 8.87538 40.7636 8.85181 40.8273C8.85181 40.8286 8.8505 40.8315 8.8505 40.8328C8.82693 40.8993 8.80336 40.9657 8.77848 41.0349C8.73134 41.1732 8.68573 41.316 8.63858 41.4668C8.61501 41.543 8.59144 41.6191 8.56787 41.6994C8.56787 26.585 20.4977 14.2565 35.4556 13.6196L36.771 13.6198Z" fill="#EFEFEF"/>
<path opacity="0.3" d="M35.4556 13.6198C20.4977 14.2567 8.56787 26.5852 8.56787 41.6996V35.3927C9.70319 30.2989 12.2122 25.5939 15.9036 21.7517C19.8427 17.6504 24.8122 14.8549 30.248 13.6198H35.4556Z" fill="#EFEFEF"/>
</g>
<path d="M77.2258 14.2217C75.8908 14.2217 74.8826 14.5277 74.2012 15.1395C73.5337 15.7375 73.2 16.6136 73.2 17.7677V19.4365H79.8748V21.2303H73.2V27.1334H71.1141V17.7469C71.1141 16.0643 71.6425 14.7502 72.6994 13.8046C73.7701 12.845 75.2581 12.3653 77.1632 12.3653C77.9975 12.3653 78.7763 12.4626 79.4994 12.6573C80.2225 12.8381 80.8483 13.1093 81.3767 13.4708L80.6883 15.2021C79.7566 14.5485 78.6024 14.2217 77.2258 14.2217ZM83.1896 16.0782H85.1921V27.1334H83.1896V16.0782ZM84.1908 13.9506C83.8015 13.9506 83.4747 13.8254 83.2105 13.5751C82.9602 13.3248 82.835 13.0189 82.835 12.6573C82.835 12.2958 82.9602 11.9898 83.2105 11.7395C83.4747 11.4753 83.8015 11.3432 84.1908 11.3432C84.5802 11.3432 84.9 11.4684 85.1503 11.7187C85.4146 11.9551 85.5467 12.254 85.5467 12.6156C85.5467 12.9911 85.4146 13.3109 85.1503 13.5751C84.9 13.8254 84.5802 13.9506 84.1908 13.9506ZM94.9185 15.9739C96.323 15.9739 97.4355 16.3841 98.2559 17.2046C99.0903 18.0111 99.5075 19.2001 99.5075 20.7714V27.1334H97.505V21.0009C97.505 19.9301 97.2477 19.1236 96.7332 18.5812C96.2187 18.0389 95.4817 17.7677 94.5222 17.7677C93.4375 17.7677 92.5823 18.0876 91.9565 18.7273C91.3308 19.353 91.0179 20.2569 91.0179 21.4389V27.1334H89.0154V16.0782H90.9345V17.7469C91.3377 17.1767 91.8801 16.7387 92.5614 16.4328C93.2567 16.1268 94.0424 15.9739 94.9185 15.9739ZM113.704 16.0782V27.1334H111.785V25.3812C111.34 25.9931 110.777 26.459 110.095 26.7788C109.414 27.0986 108.663 27.2585 107.843 27.2585C106.772 27.2585 105.812 27.0221 104.964 26.5493C104.116 26.0765 103.448 25.416 102.962 24.5677C102.489 23.7056 102.252 22.7183 102.252 21.6058C102.252 20.4933 102.489 19.5129 102.962 18.6647C103.448 17.8164 104.116 17.1559 104.964 16.6831C105.812 16.2103 106.772 15.9739 107.843 15.9739C108.635 15.9739 109.365 16.1268 110.033 16.4328C110.7 16.7248 111.256 17.1628 111.701 17.7469V16.0782H113.704ZM108.009 25.5064C108.705 25.5064 109.337 25.3465 109.908 25.0266C110.478 24.6929 110.923 24.234 111.243 23.65C111.562 23.052 111.722 22.3706 111.722 21.6058C111.722 20.841 111.562 20.1665 111.243 19.5825C110.923 18.9845 110.478 18.5256 109.908 18.2058C109.337 17.8859 108.705 17.726 108.009 17.726C107.3 17.726 106.661 17.8859 106.09 18.2058C105.534 18.5256 105.089 18.9845 104.755 19.5825C104.436 20.1665 104.276 20.841 104.276 21.6058C104.276 22.3706 104.436 23.052 104.755 23.65C105.089 24.234 105.534 24.6929 106.09 25.0266C106.661 25.3465 107.3 25.5064 108.009 25.5064ZM123.396 15.9739C124.8 15.9739 125.913 16.3841 126.733 17.2046C127.568 18.0111 127.985 19.2001 127.985 20.7714V27.1334H125.982V21.0009C125.982 19.9301 125.725 19.1236 125.211 18.5812C124.696 18.0389 123.959 17.7677 122.999 17.7677C121.915 17.7677 121.06 18.0876 120.434 18.7273C119.808 19.353 119.495 20.2569 119.495 21.4389V27.1334H117.493V16.0782H119.412V17.7469C119.815 17.1767 120.357 16.7387 121.039 16.4328C121.734 16.1268 122.52 15.9739 123.396 15.9739ZM134.861 27.2585C133.957 27.2585 133.088 27.1403 132.254 26.9039C131.419 26.6536 130.766 26.3408 130.293 25.9653L131.127 24.38C131.614 24.7277 132.205 25.0058 132.9 25.2144C133.596 25.423 134.298 25.5273 135.007 25.5273C136.759 25.5273 137.635 25.0266 137.635 24.0254C137.635 23.6917 137.517 23.4275 137.281 23.2328C137.044 23.0381 136.745 22.899 136.384 22.8156C136.036 22.7183 135.536 22.614 134.882 22.5027C133.992 22.3637 133.262 22.2037 132.692 22.023C132.136 21.8422 131.656 21.5363 131.253 21.1052C130.849 20.6741 130.648 20.0692 130.648 19.2904C130.648 18.2892 131.065 17.4896 131.899 16.8917C132.734 16.2798 133.853 15.9739 135.257 15.9739C135.995 15.9739 136.732 16.0643 137.469 16.245C138.206 16.4258 138.81 16.6692 139.283 16.9751L138.428 18.5604C137.524 17.9763 136.46 17.6843 135.237 17.6843C134.388 17.6843 133.742 17.8234 133.297 18.1015C132.852 18.3796 132.629 18.7481 132.629 19.207C132.629 19.5686 132.754 19.8536 133.005 20.0622C133.255 20.2708 133.561 20.4238 133.923 20.5211C134.298 20.6185 134.819 20.7297 135.487 20.8549C136.377 21.0078 137.093 21.1747 137.635 21.3555C138.192 21.5223 138.664 21.8144 139.054 22.2316C139.443 22.6487 139.638 23.2328 139.638 23.9837C139.638 24.9849 139.207 25.7845 138.345 26.3825C137.496 26.9665 136.335 27.2585 134.861 27.2585ZM83.7963 33.5322V48.1334H81.7104V41.6254H73.3251V48.1334H71.2393V33.5322H73.3251V39.8107H81.7104V33.5322H83.7963ZM98.3042 37.0782V48.1334H96.3851V46.3812C95.9402 46.9931 95.377 47.459 94.6956 47.7788C94.0142 48.0986 93.2633 48.2585 92.4428 48.2585C91.3721 48.2585 90.4125 48.0221 89.5643 47.5493C88.716 47.0765 88.0485 46.416 87.5618 45.5677C87.089 44.7056 86.8526 43.7183 86.8526 42.6058C86.8526 41.4933 87.089 40.5129 87.5618 39.6647C88.0485 38.8164 88.716 38.1559 89.5643 37.6831C90.4125 37.2103 91.3721 36.9739 92.4428 36.9739C93.2355 36.9739 93.9655 37.1268 94.633 37.4328C95.3005 37.7248 95.8567 38.1628 96.3017 38.7469V37.0782H98.3042ZM92.6097 46.5064C93.305 46.5064 93.9377 46.3465 94.5078 46.0266C95.078 45.6929 95.523 45.234 95.8428 44.65C96.1626 44.052 96.3226 43.3706 96.3226 42.6058C96.3226 41.841 96.1626 41.1665 95.8428 40.5825C95.523 39.9845 95.078 39.5256 94.5078 39.2058C93.9377 38.8859 93.305 38.726 92.6097 38.726C91.9005 38.726 91.2608 38.8859 90.6907 39.2058C90.1344 39.5256 89.6894 39.9845 89.3557 40.5825C89.0359 41.1665 88.8759 41.841 88.8759 42.6058C88.8759 43.3706 89.0359 44.052 89.3557 44.65C89.6894 45.234 90.1344 45.6929 90.6907 46.0266C91.2608 46.3465 91.9005 46.5064 92.6097 46.5064ZM107.996 36.9739C109.401 36.9739 110.513 37.3841 111.333 38.2046C112.168 39.0111 112.585 40.2001 112.585 41.7714V48.1334H110.583V42.0009C110.583 40.9301 110.325 40.1236 109.811 39.5812C109.296 39.0389 108.559 38.7677 107.6 38.7677C106.515 38.7677 105.66 39.0876 105.034 39.7273C104.408 40.353 104.095 41.2569 104.095 42.4389V48.1334H102.093V37.0782H104.012V38.7469C104.415 38.1767 104.958 37.7387 105.639 37.4328C106.334 37.1268 107.12 36.9739 107.996 36.9739ZM126.781 32.6561V48.1334H124.862V46.3812C124.417 46.9931 123.854 47.459 123.173 47.7788C122.491 48.0986 121.741 48.2585 120.92 48.2585C119.849 48.2585 118.89 48.0221 118.042 47.5493C117.193 47.0765 116.526 46.416 116.039 45.5677C115.566 44.7056 115.33 43.7183 115.33 42.6058C115.33 41.4933 115.566 40.5129 116.039 39.6647C116.526 38.8164 117.193 38.1559 118.042 37.6831C118.89 37.2103 119.849 36.9739 120.92 36.9739C121.713 36.9739 122.443 37.1268 123.11 37.4328C123.778 37.7248 124.334 38.1628 124.779 38.7469V32.6561H126.781ZM121.087 46.5064C121.782 46.5064 122.415 46.3465 122.985 46.0266C123.555 45.6929 124 45.234 124.32 44.65C124.64 44.052 124.8 43.3706 124.8 42.6058C124.8 41.841 124.64 41.1665 124.32 40.5825C124 39.9845 123.555 39.5256 122.985 39.2058C122.415 38.8859 121.782 38.726 121.087 38.726C120.378 38.726 119.738 38.8859 119.168 39.2058C118.612 39.5256 118.167 39.9845 117.833 40.5825C117.513 41.1665 117.353 41.841 117.353 42.6058C117.353 43.3706 117.513 44.052 117.833 44.65C118.167 45.234 118.612 45.6929 119.168 46.0266C119.738 46.3465 120.378 46.5064 121.087 46.5064ZM135.556 46.5064C136.877 46.5064 137.94 46.0614 138.747 45.1714L139.832 46.4647C139.345 47.0487 138.726 47.4937 137.975 47.7996C137.238 48.1056 136.411 48.2585 135.493 48.2585C134.325 48.2585 133.289 48.0221 132.385 47.5493C131.481 47.0626 130.779 46.3882 130.278 45.526C129.792 44.6639 129.548 43.6904 129.548 42.6058C129.548 41.535 129.785 40.5686 130.257 39.7064C130.744 38.8442 131.405 38.1767 132.239 37.7039C133.087 37.2172 134.04 36.9739 135.097 36.9739C136.098 36.9739 137.009 37.2033 137.829 37.6622C138.65 38.1072 139.303 38.7399 139.79 39.5604C140.277 40.3808 140.527 41.3264 140.541 42.3972L131.759 44.1076C132.037 44.8725 132.503 45.4635 133.157 45.8806C133.824 46.2978 134.624 46.5064 135.556 46.5064ZM135.097 38.6635C134.401 38.6635 133.776 38.8234 133.219 39.1432C132.677 39.463 132.253 39.915 131.947 40.499C131.641 41.0692 131.488 41.7367 131.488 42.5015V42.7101L138.559 41.3751C138.378 40.5686 137.975 39.915 137.349 39.4144C136.724 38.9138 135.973 38.6635 135.097 38.6635ZM146.701 48.2585C145.63 48.2585 144.802 47.9665 144.218 47.3825C143.634 46.7845 143.342 45.9502 143.342 44.8794V32.6561H145.345V44.7125C145.345 45.3105 145.484 45.7694 145.762 46.0892C146.054 46.4091 146.485 46.569 147.055 46.569C147.403 46.569 147.73 46.4994 148.036 46.3604L148.14 48.0082C147.681 48.1751 147.201 48.2585 146.701 48.2585ZM162.07 33.3653C164.017 33.3653 165.554 33.9354 166.68 35.0757C167.806 36.2021 168.37 37.8221 168.37 39.9358V48.1334H166.284V44.1076H157.857V48.1334H155.813V39.9358C155.813 37.8221 156.376 36.2021 157.502 35.0757C158.629 33.9354 160.151 33.3653 162.07 33.3653ZM166.284 42.2929V39.7481C166.284 38.2602 165.908 37.1338 165.157 36.369C164.42 35.6041 163.391 35.2217 162.07 35.2217C160.749 35.2217 159.713 35.6041 158.962 36.369C158.225 37.1338 157.857 38.2602 157.857 39.7481V42.2929H166.284ZM178.19 36.9739C179.261 36.9739 180.22 37.2103 181.069 37.6831C181.917 38.1559 182.577 38.8164 183.05 39.6647C183.537 40.5129 183.78 41.4933 183.78 42.6058C183.78 43.7183 183.537 44.7056 183.05 45.5677C182.577 46.416 181.917 47.0765 181.069 47.5493C180.22 48.0221 179.261 48.2585 178.19 48.2585C177.37 48.2585 176.619 48.0986 175.937 47.7788C175.256 47.459 174.693 46.9931 174.248 46.3812V48.1334H172.329V32.6561H174.331V38.7469C174.776 38.1628 175.332 37.7248 176 37.4328C176.667 37.1268 177.398 36.9739 178.19 36.9739ZM178.023 46.5064C178.732 46.5064 179.365 46.3465 179.921 46.0266C180.492 45.6929 180.937 45.234 181.256 44.65C181.59 44.052 181.757 43.3706 181.757 42.6058C181.757 41.841 181.59 41.1665 181.256 40.5825C180.937 39.9845 180.492 39.5256 179.921 39.2058C179.365 38.8859 178.732 38.726 178.023 38.726C177.328 38.726 176.695 38.8859 176.125 39.2058C175.555 39.5256 175.11 39.9845 174.79 40.5825C174.47 41.1665 174.31 41.841 174.31 42.6058C174.31 43.3706 174.47 44.052 174.79 44.65C175.11 45.234 175.555 45.6929 176.125 46.0266C176.695 46.3465 177.328 46.5064 178.023 46.5064Z" fill="#EFEFEF"/>
<defs>
<linearGradient id="paint0_linear_1392_57482" x1="59.6013" y1="58.5276" x2="-5.86128" y2="-7.79631" gradientUnits="userSpaceOnUse">
<stop stop-color="white"/>
<stop offset="0.364998" stop-color="#C8C8C8"/>
<stop offset="0.457562" stop-color="#C8C8C8"/>
<stop offset="0.529899" stop-color="#C8C8C8"/>
<stop offset="1" stop-color="white"/>
</linearGradient>
</defs>
</svg>
