<svg width="196" height="60" viewBox="0 0 196 60" fill="none" xmlns="http://www.w3.org/2000/svg">
<path d="M62.3065 27.5556V9.7128H69.5179C69.6914 9.7128 69.9062 9.72106 70.1623 9.73758C70.4183 9.74584 70.662 9.77062 70.8933 9.81192C71.8846 9.96887 72.7106 10.3076 73.3715 10.828C74.0406 11.3484 74.5403 12.0051 74.8708 12.7981C75.2012 13.5911 75.3664 14.4667 75.3664 15.425C75.3664 16.3914 75.2012 17.2712 74.8708 18.0642C74.5403 18.8572 74.0406 19.5139 73.3715 20.0343C72.7106 20.5548 71.8846 20.8934 70.8933 21.0504C70.662 21.0834 70.4142 21.1082 70.1499 21.1247C69.8938 21.1413 69.6832 21.1495 69.5179 21.1495H64.8962V27.5556H62.3065ZM64.8962 18.6961H69.4188C69.584 18.6961 69.7658 18.6879 69.964 18.6713C70.1705 18.6548 70.3646 18.6259 70.5464 18.5846C71.0751 18.4607 71.5005 18.2335 71.8226 17.9031C72.1448 17.5644 72.3761 17.1762 72.5165 16.7384C72.6569 16.3006 72.7272 15.8628 72.7272 15.425C72.7272 14.9871 72.6569 14.5535 72.5165 14.1239C72.3761 13.6861 72.1448 13.302 71.8226 12.9716C71.5005 12.6329 71.0751 12.4016 70.5464 12.2777C70.3646 12.2281 70.1705 12.1951 69.964 12.1786C69.7658 12.162 69.584 12.1538 69.4188 12.1538H64.8962V18.6961ZM81.2112 27.9273C80.2199 27.9273 79.3897 27.7455 78.7206 27.3821C78.0515 27.0104 77.5435 26.523 77.1966 25.92C76.8579 25.3087 76.6885 24.6396 76.6885 23.9127C76.6885 23.2353 76.8083 22.6405 77.0479 22.1284C77.2874 21.6162 77.6426 21.1826 78.1135 20.8273C78.5843 20.4639 79.1626 20.1706 79.8482 19.9476C80.443 19.7741 81.1162 19.6213 81.8679 19.4891C82.6196 19.357 83.4085 19.2331 84.2345 19.1174C85.0689 19.0018 85.8949 18.8861 86.7127 18.7705L85.771 19.2909C85.7875 18.2418 85.5645 17.4653 85.1019 16.9614C84.6476 16.4493 83.8628 16.1932 82.7476 16.1932C82.0455 16.1932 81.4012 16.3584 80.8147 16.6888C80.2282 17.011 79.8193 17.5479 79.588 18.2996L77.1718 17.5562C77.5022 16.408 78.13 15.4952 79.0552 14.8178C79.9886 14.1404 81.2277 13.8018 82.7724 13.8018C83.9702 13.8018 85.011 14.0083 85.8949 14.4213C86.787 14.8261 87.4396 15.4704 87.8527 16.3543C88.0674 16.7921 88.1996 17.2547 88.2492 17.742C88.2987 18.2294 88.3235 18.754 88.3235 19.3157V27.5556H86.0312V24.495L86.4773 24.8915C85.9238 25.9158 85.2175 26.6799 84.3584 27.1838C83.5076 27.6795 82.4585 27.9273 81.2112 27.9273ZM81.6696 25.8085C82.4048 25.8085 83.0368 25.6804 83.5654 25.4243C84.0941 25.16 84.5195 24.8254 84.8417 24.4207C85.1638 24.0159 85.3745 23.5946 85.4736 23.1568C85.614 22.7603 85.6925 22.3142 85.709 21.8186C85.7338 21.323 85.7462 20.9265 85.7462 20.6291L86.5888 20.9389C85.771 21.0628 85.0275 21.1743 84.3584 21.2734C83.6893 21.3725 83.0822 21.4717 82.537 21.5708C82.0001 21.6617 81.521 21.7732 81.0997 21.9053C80.7445 22.0293 80.4264 22.1779 80.1456 22.3514C79.873 22.5249 79.6541 22.7355 79.4889 22.9833C79.3319 23.2312 79.2534 23.5327 79.2534 23.8879C79.2534 24.2348 79.3402 24.557 79.5136 24.8544C79.6871 25.1435 79.9514 25.3748 80.3067 25.5482C80.6619 25.7217 81.1162 25.8085 81.6696 25.8085ZM99.1986 27.5556C98.356 27.7208 97.5299 27.791 96.7204 27.7662C95.9109 27.7414 95.1881 27.5845 94.552 27.2954C93.916 27.0062 93.4368 26.5519 93.1147 25.9324C92.8256 25.3789 92.6686 24.8172 92.6438 24.2472C92.6273 23.669 92.619 23.0164 92.619 22.2895V10.4562H95.2211V22.1656C95.2211 22.7025 95.2252 23.1692 95.2335 23.5657C95.25 23.9622 95.3368 24.2968 95.4937 24.5694C95.7911 25.0815 96.2619 25.3748 96.9063 25.4491C97.5588 25.5152 98.3229 25.4863 99.1986 25.3624V27.5556ZM90.0541 16.2551V14.1735H99.1986V16.2551H90.0541ZM102.02 27.5556V14.1735H104.325V17.4199L104.003 16.9986C104.168 16.569 104.383 16.1767 104.647 15.8215C104.911 15.458 105.217 15.1606 105.564 14.9293C105.902 14.6815 106.278 14.4915 106.691 14.3593C107.113 14.2189 107.542 14.1363 107.98 14.1115C108.418 14.0785 108.839 14.0991 109.244 14.1735V16.6021C108.806 16.4864 108.319 16.4534 107.782 16.503C107.253 16.5525 106.766 16.7219 106.32 17.011C105.898 17.2836 105.564 17.614 105.316 18.0022C105.076 18.3905 104.903 18.8242 104.796 19.3033C104.688 19.7741 104.634 20.2739 104.634 20.8026V27.5556H102.02ZM117.173 27.9273C115.835 27.9273 114.674 27.6258 113.691 27.0228C112.708 26.4197 111.948 25.5895 111.411 24.5322C110.882 23.4666 110.618 22.2399 110.618 20.8521C110.618 19.4561 110.891 18.2294 111.436 17.1721C111.981 16.1065 112.745 15.2804 113.728 14.6939C114.711 14.0991 115.859 13.8018 117.173 13.8018C118.511 13.8018 119.672 14.1033 120.655 14.7063C121.638 15.3093 122.398 16.1395 122.935 17.1968C123.471 18.2542 123.74 19.4726 123.74 20.8521C123.74 22.2482 123.467 23.479 122.922 24.5446C122.385 25.6019 121.625 26.4321 120.642 27.0351C119.659 27.6299 118.503 27.9273 117.173 27.9273ZM117.173 25.4863C118.453 25.4863 119.407 25.0567 120.035 24.1976C120.671 23.3303 120.989 22.2151 120.989 20.8521C120.989 19.4561 120.667 18.3409 120.023 17.5066C119.387 16.664 118.437 16.2428 117.173 16.2428C116.305 16.2428 115.591 16.441 115.029 16.8375C114.467 17.2258 114.05 17.7668 113.778 18.4607C113.505 19.1463 113.369 19.9435 113.369 20.8521C113.369 22.2564 113.691 23.3799 114.335 24.2224C114.98 25.065 115.925 25.4863 117.173 25.4863ZM135.855 27.5556V20.976C135.855 20.4556 135.81 19.9228 135.719 19.3776C135.636 18.8242 135.471 18.312 135.223 17.8412C134.984 17.3703 134.641 16.9903 134.195 16.7012C133.757 16.4121 133.183 16.2675 132.472 16.2675C132.01 16.2675 131.572 16.346 131.159 16.503C130.746 16.6516 130.382 16.8953 130.069 17.234C129.763 17.5727 129.519 18.0188 129.337 18.5722C129.164 19.1257 129.077 19.7989 129.077 20.5919L127.466 19.9848C127.466 18.7705 127.694 17.7007 128.148 16.7756C128.602 15.8421 129.255 15.1152 130.106 14.5948C130.957 14.0744 131.985 13.8142 133.191 13.8142C134.116 13.8142 134.893 13.9628 135.52 14.2602C136.148 14.5576 136.656 14.95 137.045 15.4373C137.441 15.9165 137.743 16.441 137.949 17.011C138.156 17.581 138.296 18.1385 138.37 18.6837C138.445 19.2289 138.482 19.708 138.482 20.1211V27.5556H135.855ZM126.45 27.5556V14.1735H128.767V18.0394H129.077V27.5556H126.45ZM146.752 27.9149C145.827 27.9149 145.051 27.7662 144.423 27.4688C143.795 27.1714 143.283 26.7832 142.886 26.3041C142.498 25.8167 142.201 25.288 141.994 24.7181C141.788 24.1481 141.647 23.5905 141.573 23.0453C141.499 22.5001 141.461 22.021 141.461 21.608V14.1735H144.088V20.753C144.088 21.2734 144.13 21.8104 144.212 22.3638C144.303 22.909 144.468 23.417 144.708 23.8879C144.956 24.3587 145.298 24.7387 145.736 25.0278C146.182 25.317 146.761 25.4615 147.471 25.4615C147.934 25.4615 148.371 25.3872 148.784 25.2385C149.197 25.0815 149.557 24.8337 149.862 24.495C150.176 24.1563 150.42 23.7103 150.593 23.1568C150.775 22.6034 150.866 21.9301 150.866 21.1371L152.477 21.7443C152.477 22.9586 152.25 24.0324 151.795 24.9659C151.341 25.8911 150.688 26.6139 149.838 27.1343C148.987 27.6547 147.958 27.9149 146.752 27.9149ZM151.176 27.5556V23.6896H150.866V14.1735H153.481V27.5556H151.176ZM162.073 27.9149C160.446 27.9149 159.12 27.5556 158.096 26.8369C157.071 26.1182 156.444 25.1063 156.212 23.8011L158.864 23.3922C159.029 24.0861 159.409 24.6355 160.004 25.0402C160.607 25.4367 161.355 25.635 162.247 25.635C163.056 25.635 163.688 25.4698 164.142 25.1394C164.605 24.8089 164.836 24.3546 164.836 23.7764C164.836 23.4377 164.754 23.1651 164.589 22.9586C164.432 22.7438 164.097 22.5414 163.585 22.3514C163.073 22.1614 162.292 21.926 161.243 21.6451C160.095 21.3478 159.182 21.0297 158.505 20.6911C157.836 20.3441 157.356 19.9435 157.067 19.4891C156.786 19.0266 156.646 18.469 156.646 17.8164C156.646 17.0069 156.861 16.3006 157.29 15.6976C157.72 15.0945 158.323 14.6278 159.099 14.2974C159.884 13.967 160.801 13.8018 161.85 13.8018C162.874 13.8018 163.787 13.9628 164.589 14.285C165.39 14.6072 166.038 15.0656 166.534 15.6604C167.03 16.2469 167.327 16.9366 167.426 17.7296L164.774 18.2129C164.684 17.5686 164.382 17.0605 163.87 16.6888C163.358 16.3171 162.693 16.1147 161.875 16.0817C161.09 16.0486 160.454 16.1808 159.967 16.4782C159.479 16.7673 159.236 17.1679 159.236 17.6801C159.236 17.9775 159.327 18.2294 159.508 18.4359C159.698 18.6424 160.062 18.8407 160.599 19.0307C161.136 19.2207 161.929 19.4478 162.978 19.7122C164.101 20.0013 164.993 20.3235 165.654 20.6787C166.315 21.0256 166.786 21.4428 167.067 21.9301C167.356 22.4092 167.5 22.9916 167.5 23.6772C167.5 24.9989 167.017 26.0356 166.051 26.7873C165.092 27.539 163.767 27.9149 162.073 27.9149ZM62.5543 52.5556V34.7128H65.144V52.5556H62.5543ZM78.2571 52.5556V45.976C78.2571 45.4556 78.2117 44.9228 78.1208 44.3776C78.0382 43.8242 77.873 43.312 77.6252 42.8412C77.3856 42.3703 77.0428 41.9903 76.5968 41.7012C76.159 41.4121 75.5849 41.2675 74.8744 41.2675C74.4119 41.2675 73.974 41.346 73.561 41.503C73.148 41.6516 72.7845 41.8953 72.4706 42.234C72.165 42.5727 71.9213 43.0188 71.7396 43.5722C71.5661 44.1257 71.4794 44.7989 71.4794 45.5919L69.8686 44.9848C69.8686 43.7705 70.0957 42.7007 70.5501 41.7756C71.0044 40.8421 71.657 40.1152 72.5078 39.5948C73.3586 39.0744 74.3871 38.8142 75.5931 38.8142C76.5183 38.8142 77.2948 38.9628 77.9226 39.2602C78.5504 39.5576 79.0584 39.95 79.4467 40.4373C79.8432 40.9165 80.1447 41.441 80.3512 42.011C80.5577 42.581 80.6981 43.1385 80.7725 43.6837C80.8468 44.2289 80.884 44.708 80.884 45.1211V52.5556H78.2571ZM68.8525 52.5556V39.1735H71.1696V43.0394H71.4794V52.5556H68.8525ZM87.7295 52.5556L82.8723 39.1735H85.4868L89.0429 49.3092L92.5991 39.1735H95.2136L90.3564 52.5556H87.7295ZM102.897 52.9273C101.567 52.9273 100.398 52.6382 99.3906 52.0599C98.3911 51.4734 97.6105 50.6598 97.0488 49.6189C96.4953 48.5698 96.2186 47.3555 96.2186 45.976C96.2186 44.5139 96.4912 43.2459 97.0364 42.1721C97.5898 41.0982 98.3581 40.268 99.3411 39.6815C100.324 39.095 101.468 38.8018 102.773 38.8018C104.136 38.8018 105.297 39.1198 106.255 39.7559C107.213 40.3837 107.928 41.2799 108.399 42.4447C108.878 43.6094 109.068 44.993 108.969 46.5956H106.379V45.6539C106.363 44.1009 106.065 42.9527 105.487 42.2092C104.917 41.4658 104.045 41.0941 102.872 41.0941C101.576 41.0941 100.601 41.503 99.9482 42.3208C99.2956 43.1385 98.9693 44.3198 98.9693 45.8645C98.9693 47.3349 99.2956 48.4749 99.9482 49.2844C100.601 50.0857 101.542 50.4863 102.773 50.4863C103.583 50.4863 104.281 50.3046 104.867 49.9411C105.462 49.5694 105.925 49.0407 106.255 48.3551L108.795 49.1605C108.275 50.3583 107.486 51.2876 106.429 51.9484C105.371 52.601 104.194 52.9273 102.897 52.9273ZM98.1268 46.5956V44.5759H107.68V46.5956H98.1268ZM116.866 52.9149C115.239 52.9149 113.913 52.5556 112.889 51.8369C111.864 51.1182 111.237 50.1063 111.005 48.8011L113.657 48.3922C113.822 49.0861 114.202 49.6355 114.797 50.0402C115.4 50.4367 116.147 50.635 117.04 50.635C117.849 50.635 118.481 50.4698 118.935 50.1394C119.398 49.8089 119.629 49.3546 119.629 48.7764C119.629 48.4377 119.547 48.1651 119.381 47.9586C119.224 47.7438 118.89 47.5414 118.378 47.3514C117.866 47.1614 117.085 46.926 116.036 46.6451C114.888 46.3478 113.975 46.0297 113.298 45.6911C112.628 45.3441 112.149 44.9435 111.86 44.4891C111.579 44.0266 111.439 43.469 111.439 42.8164C111.439 42.0069 111.654 41.3006 112.083 40.6976C112.513 40.0945 113.116 39.6278 113.892 39.2974C114.677 38.967 115.594 38.8018 116.643 38.8018C117.667 38.8018 118.58 38.9628 119.381 39.285C120.183 39.6072 120.831 40.0656 121.327 40.6604C121.822 41.2469 122.12 41.9366 122.219 42.7296L119.567 43.2129C119.476 42.5686 119.175 42.0605 118.663 41.6888C118.151 41.3171 117.486 41.1147 116.668 41.0817C115.883 41.0486 115.247 41.1808 114.76 41.4782C114.272 41.7673 114.029 42.1679 114.029 42.6801C114.029 42.9775 114.119 43.2294 114.301 43.4359C114.491 43.6424 114.855 43.8407 115.392 44.0307C115.929 44.2207 116.722 44.4478 117.771 44.7122C118.894 45.0013 119.786 45.3235 120.447 45.6787C121.108 46.0256 121.579 46.4428 121.86 46.9301C122.149 47.4092 122.293 47.9916 122.293 48.6772C122.293 49.9989 121.81 51.0356 120.844 51.7873C119.885 52.539 118.56 52.9149 116.866 52.9149ZM132.692 52.5556C131.85 52.7208 131.024 52.791 130.214 52.7662C129.405 52.7414 128.682 52.5845 128.046 52.2954C127.41 52.0062 126.931 51.5519 126.609 50.9324C126.319 50.3789 126.163 49.8172 126.138 49.2472C126.121 48.669 126.113 48.0164 126.113 47.2895V35.4562H128.715V47.1656C128.715 47.7025 128.719 48.1692 128.727 48.5657C128.744 48.9622 128.831 49.2968 128.988 49.5694C129.285 50.0815 129.756 50.3748 130.4 50.4491C131.053 50.5152 131.817 50.4863 132.692 50.3624V52.5556ZM123.548 41.2551V39.1735H132.692V41.2551H123.548ZM151.548 52.5556L151.56 44.2165C151.56 43.2501 151.312 42.4984 150.817 41.9614C150.321 41.4162 149.668 41.1436 148.859 41.1436C148.363 41.1436 147.909 41.2593 147.496 41.4906C147.091 41.7136 146.761 42.0523 146.505 42.5066C146.257 42.9527 146.133 43.5144 146.133 44.1918L144.881 43.5598C144.865 42.6181 145.063 41.7921 145.476 41.0817C145.897 40.3713 146.467 39.8219 147.186 39.4337C147.905 39.0372 148.71 38.8389 149.602 38.8389C151.048 38.8389 152.167 39.2726 152.96 40.14C153.753 41.0073 154.15 42.1597 154.15 43.597L154.137 52.5556H151.548ZM135.501 52.5556V39.1735H137.806V43.0394H138.104V52.5556H135.501ZM143.531 52.5556L143.543 44.2661C143.543 43.2914 143.295 42.5273 142.8 41.9738C142.312 41.4204 141.656 41.1436 140.83 41.1436C140.012 41.1436 139.351 41.4245 138.847 41.9862C138.351 42.5479 138.104 43.2831 138.104 44.1918L136.864 43.3988C136.864 42.5231 137.075 41.7425 137.496 41.0569C137.918 40.3713 138.488 39.8302 139.206 39.4337C139.925 39.0372 140.739 38.8389 141.647 38.8389C142.597 38.8389 143.407 39.0413 144.076 39.4461C144.745 39.8426 145.253 40.4002 145.6 41.1188C145.955 41.8375 146.133 42.6718 146.133 43.6218L146.12 52.5556H143.531ZM163.133 52.9273C161.803 52.9273 160.634 52.6382 159.626 52.0599C158.627 51.4734 157.846 50.6598 157.285 49.6189C156.731 48.5698 156.454 47.3555 156.454 45.976C156.454 44.5139 156.727 43.2459 157.272 42.1721C157.826 41.0982 158.594 40.268 159.577 39.6815C160.56 39.095 161.704 38.8018 163.009 38.8018C164.372 38.8018 165.533 39.1198 166.491 39.7559C167.449 40.3837 168.164 41.2799 168.635 42.4447C169.114 43.6094 169.304 44.993 169.204 46.5956H166.615V45.6539C166.598 44.1009 166.301 42.9527 165.723 42.2092C165.153 41.4658 164.281 41.0941 163.108 41.0941C161.811 41.0941 160.837 41.503 160.184 42.3208C159.531 43.1385 159.205 44.3198 159.205 45.8645C159.205 47.3349 159.531 48.4749 160.184 49.2844C160.837 50.0857 161.778 50.4863 163.009 50.4863C163.819 50.4863 164.517 50.3046 165.103 49.9411C165.698 49.5694 166.16 49.0407 166.491 48.3551L169.031 49.1605C168.511 50.3583 167.722 51.2876 166.664 51.9484C165.607 52.601 164.43 52.9273 163.133 52.9273ZM158.363 46.5956V44.5759H167.916V46.5956H158.363ZM181.014 52.5556V45.976C181.014 45.4556 180.968 44.9228 180.877 44.3776C180.795 43.8242 180.63 43.312 180.382 42.8412C180.142 42.3703 179.799 41.9903 179.353 41.7012C178.916 41.4121 178.341 41.2675 177.631 41.2675C177.168 41.2675 176.731 41.346 176.318 41.503C175.905 41.6516 175.541 41.8953 175.227 42.234C174.922 42.5727 174.678 43.0188 174.496 43.5722C174.323 44.1257 174.236 44.7989 174.236 45.5919L172.625 44.9848C172.625 43.7705 172.852 42.7007 173.307 41.7756C173.761 40.8421 174.414 40.1152 175.264 39.5948C176.115 39.0744 177.144 38.8142 178.35 38.8142C179.275 38.8142 180.051 38.9628 180.679 39.2602C181.307 39.5576 181.815 39.95 182.203 40.4373C182.6 40.9165 182.901 41.441 183.108 42.011C183.314 42.581 183.455 43.1385 183.529 43.6837C183.603 44.2289 183.641 44.708 183.641 45.1211V52.5556H181.014ZM171.609 52.5556V39.1735H173.926V43.0394H174.236V52.5556H171.609ZM194.525 52.5556C193.683 52.7208 192.857 52.791 192.047 52.7662C191.238 52.7414 190.515 52.5845 189.879 52.2954C189.243 52.0062 188.764 51.5519 188.442 50.9324C188.152 50.3789 187.996 49.8172 187.971 49.2472C187.954 48.669 187.946 48.0164 187.946 47.2895V35.4562H190.548V47.1656C190.548 47.7025 190.552 48.1692 190.56 48.5657C190.577 48.9622 190.664 49.2968 190.821 49.5694C191.118 50.0815 191.589 50.3748 192.233 50.4491C192.886 50.5152 193.65 50.4863 194.525 50.3624V52.5556ZM185.381 41.2551V39.1735H194.525V41.2551H185.381Z" fill="#EFEFEF"/>
<path d="M46.9133 13.8445C36.1799 3.33051 18.7834 3.33051 8.05003 13.8445C-2.68334 24.3585 -2.68334 41.3995 8.05003 51.9135C18.7834 62.4276 36.1799 62.4276 46.9133 51.9135C57.6467 41.3995 57.6467 24.3585 46.9133 13.8445ZM42.8256 47.9052C40.0628 50.6116 36.7421 52.4301 33.2253 53.3735C33.0684 53.4162 32.9072 53.4546 32.7459 53.4973C32.5891 53.5357 32.4278 53.5741 32.2622 53.604C32.1663 53.6296 32.0705 53.6509 31.9703 53.668C31.87 53.6894 31.7654 53.715 31.6608 53.732C31.4734 53.7662 31.2817 53.8004 31.0943 53.8345L30.5975 53.9113C24.0608 54.8334 17.1754 52.8313 12.1421 47.9052C8.28972 44.1358 6.18923 39.2993 5.8406 34.3603C5.82317 34.1511 5.81446 33.9377 5.80574 33.7285V33.7072C5.79267 33.3273 5.78831 32.9388 5.79267 32.5546C5.82317 30.2537 6.23716 27.9571 7.03901 25.7587C8.08053 22.873 9.78446 20.1623 12.1421 17.8529C18.6047 11.5223 28.131 10.0197 36.0492 13.3493C37.9231 14.1348 39.7011 15.1892 41.3353 16.5211C41.8495 16.9351 42.3419 17.3791 42.8256 17.8529C45.2835 20.2562 47.0266 23.095 48.0551 26.1173C48.7828 28.2559 49.1576 30.4885 49.1794 32.7168C49.2186 38.2108 47.1007 43.7175 42.8256 47.9052Z" fill="#5F5AA2"/>
<g opacity="0.5">
<path d="M46.9133 14.0455C36.1799 3.53144 18.7834 3.53144 8.05003 14.0455C-2.68334 24.5595 -2.68334 41.6005 8.05003 52.1145C18.7834 62.6285 36.1799 62.6285 46.9133 52.1145C57.6467 41.6005 57.6467 24.5595 46.9133 14.0455ZM42.8256 48.1061C40.0628 50.8125 36.7421 52.631 33.2253 53.5744C33.0684 53.6171 32.9072 53.6555 32.7459 53.6982C32.5891 53.7366 32.4278 53.775 32.2622 53.8049C32.1663 53.8305 32.0705 53.8519 31.9703 53.8689C31.87 53.8903 31.7654 53.9159 31.6608 53.933C31.4734 53.9671 31.2817 54.0013 31.0943 54.0354L30.5975 54.1123C24.0608 55.0343 17.1754 53.0323 12.1421 48.1061C8.28972 44.3368 6.18923 39.5002 5.8406 34.5612C5.82317 34.3521 5.81446 34.1386 5.80574 33.9295V33.9081C5.79267 33.5282 5.78831 33.1397 5.79267 32.7555C5.82317 30.4547 6.23716 28.1581 7.03901 25.9596C8.08053 23.0739 9.78446 20.3633 12.1421 18.0538C18.6047 11.7232 28.131 10.2206 36.0492 13.5503C37.9231 14.3357 39.7011 15.3901 41.3353 16.722C41.8495 17.1361 42.3419 17.58 42.8256 18.0538C45.2835 20.4572 47.0266 23.2959 48.0551 26.3182C48.7828 28.4569 49.1576 30.6894 49.1794 32.9178C49.2186 38.4117 47.1007 43.9184 42.8256 48.1061Z" fill="#5F5AA2"/>
</g>
<path d="M16.7077 28.8288V44.2993C13.3831 42.7758 10.4751 39.8538 9.31812 35.0442V28.8288H16.7077Z" fill="#337FC6"/>
<path d="M26.0205 23.1983V45.3593C25.63 45.4365 25.2317 45.4993 24.8221 45.5471C24.2246 45.6171 23.6123 45.6538 23 45.6538C21.5837 45.6538 20.0925 45.4553 18.6309 45.0207V23.1983H26.0205Z" fill="#337FC6"/>
<path d="M35.3371 17.7556V37.4176C34.3191 40.8548 31.6482 43.5523 27.9475 44.8329V17.7556H35.3371Z" fill="#337FC6"/>
<path d="M48.2576 10.9046V32.5563C48.2576 32.9584 48.2468 33.361 48.2184 33.7597C47.9326 38.5245 45.9293 43.2091 42.2185 46.8439C39.5934 49.4155 36.4366 51.1469 33.0937 52.0425C32.9437 52.0809 32.7899 52.1193 32.6365 52.1577C32.4866 52.1961 32.3328 52.2311 32.1794 52.2627C32.0865 52.2836 31.9937 52.3046 31.9009 52.3221C31.8046 52.343 31.7044 52.3639 31.6046 52.3814C31.4259 52.4164 31.2437 52.448 31.0655 52.4796L30.594 52.553C30.112 52.623 29.6261 52.6721 29.1367 52.7071C28.9794 52.7178 28.8225 52.728 28.6617 52.7314C28.0904 52.763 27.5152 52.7664 26.9439 52.7455C26.7473 52.7387 26.5508 52.7314 26.3547 52.7178C21.5118 52.4275 16.7548 50.472 13.051 46.8439C9.38653 43.2582 7.3902 38.6611 7.05813 33.9663C7.04375 33.7669 7.03329 33.5642 7.02588 33.3644V33.3469C7.04026 33.0357 7.06161 32.7241 7.08994 32.4056C8.12188 44.1358 17.5649 48.1869 25.0399 47.2811C32.3114 46.4273 37.8328 41.1588 37.5683 33.7597C37.5683 33.7003 37.5648 33.6406 37.5613 33.5778V10.9046H48.2576Z" fill="#337FC6"/>
<path d="M54.0636 15.3757H31.4834L42.7715 0L54.0636 15.3757Z" fill="#337FC6"/>
<path d="M53.1646 14.7632H48.2577V32.5563C48.2577 32.9584 48.2468 33.361 48.2185 33.7597C47.9326 38.5245 45.9293 43.2091 42.2186 46.8439C39.5934 49.4155 36.4366 51.1469 33.0937 52.0425C32.9438 52.0809 32.79 52.1193 32.6366 52.1577C32.4867 52.1961 32.3328 52.2311 32.1794 52.2627C32.0866 52.2836 31.9938 52.3046 31.901 52.3221C31.8047 52.343 31.7044 52.3639 31.6046 52.3814C31.426 52.4164 31.2438 52.448 31.0656 52.4796L30.594 52.553C30.1121 52.623 29.6262 52.6721 29.1368 52.7071C28.9795 52.7178 28.8226 52.728 28.6618 52.7314C28.0905 52.763 27.5152 52.7664 26.9439 52.7455C26.7474 52.7387 26.5508 52.7314 26.3547 52.7178C26.9047 52.6862 27.4581 52.6303 28.0046 52.5534L28.4761 52.48C28.6548 52.4484 28.837 52.4168 29.0156 52.3818C29.1154 52.3643 29.2157 52.3434 29.312 52.3225C29.4048 52.305 29.4976 52.2841 29.5904 52.2632C29.7438 52.2316 29.8977 52.1966 30.0476 52.1581C30.201 52.1197 30.3548 52.0813 30.5047 52.0429C33.8476 51.1473 37.0049 49.4155 39.6296 46.8444C43.3403 43.2095 45.3441 38.5249 45.6295 33.7601C45.6578 33.3614 45.6687 32.9589 45.6687 32.5567L45.6617 14.7636L45.5153 4.34862L53.1646 14.7632Z" fill="#337FC6"/>
<path d="M37.5613 33.5779C37.5648 33.6407 37.5682 33.6997 37.5682 33.7588H37.5613V33.5779Z" fill="#236FE3"/>
<path d="M48.2578 32.5563V33.7597H48.2185C48.2469 33.361 48.2578 32.9589 48.2578 32.5563Z" fill="#236FE3"/>
</svg>
