<svg width="100" height="100" viewBox="0 0 100 100" fill="none" xmlns="http://www.w3.org/2000/svg">
<g clip-path="url(#clip0_403_6011)">
<path d="M100 61.3896C100 54.4453 97.0554 48.1839 92.3623 43.8008C89.32 20.6026 69.6695 3.18164 46.3947 3.18164C28.3586 3.18164 12.7046 13.6284 5.03212 28.8345C4.9321 28.9721 4.85446 29.1246 4.80207 29.2865C1.63602 35.7318 -0.00691568 42.8183 3.78279e-05 49.9992C-0.00885348 56.9999 1.54976 63.9137 4.56153 70.2333C4.61884 70.4505 4.72054 70.6474 4.85615 70.8186C12.464 86.2127 28.2214 96.8169 46.3947 96.8169C57.5817 96.8169 68.3449 92.7445 76.7841 85.3514C89.6348 85.0543 100 74.4235 100 61.3896ZM3.2692 51.6136H14.3077C14.4449 57.478 15.3167 63.0759 16.8076 68.2057H7.18977C4.80417 62.9867 3.47186 57.3484 3.2692 51.6136ZM7.36493 31.4014H16.9294C15.3683 36.6385 14.4489 42.3688 14.3085 48.3848H3.2692C3.47573 42.5055 4.86889 36.7286 7.36493 31.4014ZM44.8578 93.312C40.4222 91.7856 36.0181 83.787 33.5779 71.4344H44.8578V93.312ZM33.0032 68.2057C32.2081 63.2381 31.7222 57.6685 31.6479 51.6136H44.8578V68.2057H33.0032ZM31.6487 48.3848C31.7246 42.1702 32.2356 36.4682 33.0694 31.4014H44.8586V48.3848H31.6487ZM33.6562 28.1726C36.1109 16.042 40.469 8.19758 44.8578 6.68731V28.1726H33.6562ZM48.0866 6.74704C52.301 8.37678 56.6445 15.958 59.1145 28.1734H48.0866V6.74704ZM54.6273 8.21534C61.6887 11.3804 67.6975 18.5322 71.3912 28.1726H62.3708C60.6563 19.5105 57.9465 12.5645 54.6273 8.21534ZM38.1499 8.22987C34.8235 12.5984 32.1234 19.563 30.4161 28.1734H21.4078C25.0676 18.6678 31.0361 11.4328 38.1499 8.22987ZM29.8325 31.4014C28.9874 36.6134 28.495 42.3381 28.4199 48.3848H17.5365C17.6834 42.33 18.6496 36.586 20.2769 31.4014H29.8325ZM17.5365 51.6136H28.4207C28.4942 57.5094 28.964 63.0985 29.7704 68.2057H20.1591C18.6044 63.1235 17.6793 57.5183 17.5365 51.6136ZM30.3403 71.4344C32.0427 80.2241 34.7734 87.3347 38.1499 91.7694C30.9384 88.5221 24.9038 81.1321 21.2577 71.4344H30.3403ZM54.7573 91.7194C56.9843 88.7699 58.945 84.5983 60.5231 79.3595C62.0095 80.6837 63.6558 81.8167 65.4236 82.732C62.2909 86.8907 58.6609 89.9314 54.7573 91.7194ZM48.0866 93.2587V71.4344H54.6596C55.5212 73.3128 56.6211 75.0724 57.932 76.6699C55.4611 85.7542 51.8247 91.8267 48.0866 93.2587ZM48.0866 68.2057V51.6136H54.5385C53.169 54.6904 52.4625 58.021 52.4648 61.3888C52.4648 63.7564 52.8119 66.0432 53.4488 68.2048L48.0866 68.2057ZM56.2805 48.3848H48.0866V31.4014H59.703C60.2866 34.953 60.7152 38.8445 60.9517 43.0444C59.14 44.5846 57.5659 46.3842 56.2805 48.3848ZM64.0425 40.8165C63.8003 37.5272 63.4347 34.3767 62.9536 31.4014H72.5108C73.1384 33.4106 73.6579 35.4519 74.0671 37.5167C70.5183 37.8409 67.09 38.9694 64.0425 40.8165ZM77.3347 37.4416C76.9519 35.4057 76.4683 33.3901 75.8857 31.4022H85.4398C86.8599 34.4448 87.923 37.6416 88.608 40.9287C85.2088 38.8247 81.3282 37.6244 77.3347 37.4416ZM83.7584 28.1726H74.8283C72.0394 20.4105 67.8331 14.0353 62.7502 9.66749C71.5785 13.3233 78.9854 19.8503 83.7584 28.1726ZM30.178 9.61422C25.0305 14.0248 20.7967 20.4606 17.9966 28.1726H9.0544C13.8419 19.8544 21.2698 13.2757 30.178 9.61422ZM8.83081 71.4344H17.8577C20.6555 79.3192 24.9425 85.9003 30.1772 90.3843C21.1301 86.6663 13.6086 79.9383 8.83081 71.4344ZM68.4595 84.0421C69.638 84.4546 70.8577 84.775 72.1113 84.997C69.2332 87.1544 66.0955 88.9418 62.772 90.3173C64.8037 88.5608 66.7087 86.4597 68.4595 84.0421ZM76.232 82.1371C64.907 82.1371 55.6936 72.8301 55.6936 61.3896C55.6936 57.6111 56.7034 54.0683 58.4583 51.0131C58.5672 50.8791 58.656 50.7298 58.7182 50.5659C62.3336 44.6176 68.8316 40.6422 76.232 40.6422C87.557 40.6422 96.7704 49.9492 96.7704 61.3896C96.7704 72.8301 87.5578 82.1371 76.232 82.1371Z" fill="#236FE3"/>
<path d="M73.4556 69.6537L67.6524 65.425C67.4321 65.2647 67.2455 65.0623 67.1031 64.8294C66.9607 64.5965 66.8654 64.3376 66.8226 64.0676C66.7799 63.7976 66.7904 63.5218 66.8538 63.2559C66.9171 62.99 67.032 62.7393 67.1918 62.5181C67.3512 62.2967 67.5525 62.1089 67.7841 61.9658C68.0158 61.8226 68.2732 61.7268 68.5417 61.6837C68.8102 61.6407 69.0845 61.6514 69.3489 61.7151C69.6133 61.7788 69.8626 61.8943 70.0826 62.055L74.3881 65.1919L85.0972 53.3864C85.4699 52.9898 85.9826 52.7561 86.5249 52.7358C87.0672 52.7155 87.5958 52.9102 87.9968 53.2779C88.3977 53.6457 88.6391 54.157 88.6688 54.7019C88.6985 55.2468 88.5142 55.7817 88.1556 56.1913L76.1994 69.3716C75.8247 70.3125 74.531 70.3125 73.4556 69.6537Z" fill="#236FE3"/>
</g>
<defs>
<clipPath id="clip0_403_6011">
<rect width="100" height="100" fill="white"/>
</clipPath>
</defs>
</svg>
