<svg width="125" height="125" viewBox="0 0 125 125" fill="none" xmlns="http://www.w3.org/2000/svg">
<g clip-path="url(#clip0_403_6033)">
<path d="M62.4745 95.8494C44.0995 95.8494 29.125 80.9004 29.125 62.4999C29.125 44.0994 44.075 29.1504 62.4745 29.1504C80.875 29.1504 95.8252 44.0994 95.8252 62.4999C95.8252 80.9004 80.8495 95.8494 62.4745 95.8494ZM62.4745 31.6504C45.4745 31.6504 31.625 45.4999 31.625 62.4999C31.625 79.4999 45.45 93.3494 62.4745 93.3494C79.4745 93.3494 93.3252 79.4999 93.3252 62.4999C93.3252 45.4999 79.4745 31.6504 62.4745 31.6504Z" fill="#236FE3"/>
<path d="M30.4004 63.4737C29.7001 63.4737 29.1504 62.924 29.1504 62.2237C29.1504 61.5247 29.7001 60.9737 30.4004 60.9737L94.5749 60.7992C95.2749 60.7992 95.8249 61.3492 95.8249 62.0492C95.8249 62.7492 95.2749 63.2992 94.5749 63.2992L30.4004 63.4737ZM62.6504 49.4992H62.4501C53.7751 49.4492 45.5994 46.0987 39.4001 40.0492C38.9001 39.5742 38.9001 38.7747 39.3749 38.2747C39.8496 37.7747 40.6504 37.7747 41.1504 38.2492C46.9004 43.8242 54.4744 46.9492 62.4744 46.9737C70.4999 47.0247 78.1249 43.9992 83.9249 38.4495C84.4249 37.9737 85.2249 37.9992 85.7004 38.4992C86.1749 38.9992 86.1504 39.7992 85.6504 40.2747C79.4249 46.2237 71.2499 49.4992 62.6504 49.4992ZM84.5499 87.0742C84.2244 87.0742 83.9004 86.9492 83.6504 86.6992C78.0751 80.9242 70.5994 77.5987 62.5994 77.2992C54.5994 76.9997 46.8749 79.7747 40.8749 85.1242C40.3494 85.5742 39.5749 85.5492 39.0994 85.0247C38.6504 84.4992 38.6746 83.7237 39.2001 83.2492C45.6746 77.4737 54.0251 74.4737 62.6746 74.7992C71.3251 75.1242 79.4004 78.7492 85.4246 84.9737C85.9004 85.4737 85.9004 86.2747 85.4004 86.7492C85.1746 86.9492 84.8494 87.0742 84.5496 87.0742H84.5499Z" fill="#236FE3"/>
<path d="M62.5751 95.2499C61.8751 95.2499 61.3251 94.6999 61.3251 93.9999L61.2246 30.4004C61.2246 29.7001 61.7756 29.1504 62.4746 29.1504C63.1749 29.1504 63.7246 29.7001 63.7246 30.4004L63.8254 93.9999C63.8254 94.6999 63.2751 95.2499 62.5751 95.2499Z" fill="#236FE3"/>
<path d="M62.4745 95.25C62.25 95.25 62 95.175 61.7998 95.05C51.375 88.3495 44.9248 75.7755 44.9248 62.2C44.9248 48.675 51.4005 36.075 61.7998 29.3495C62.2248 29.0753 62.75 29.0753 63.1505 29.3495C73.5753 36.0753 80.0255 48.6505 80.0255 62.2002C80.0255 75.7245 73.5498 88.3253 63.1505 95.0498C62.9503 95.1748 62.7002 95.25 62.4745 95.25ZM62.4745 31.9005C53.175 38.2755 47.425 49.7998 47.425 62.2C47.425 74.6248 53.175 86.15 62.475 92.4997C71.7757 86.1247 77.5257 74.5992 77.5257 62.1997C77.5257 49.7997 71.7758 38.2752 62.4748 31.9002L62.4745 31.9005ZM63.175 9.2C60.625 9.2 58.575 7.125 58.575 4.5995C58.575 2.07525 60.625 0 63.175 0C65.725 0 67.7755 2.075 67.7755 4.5995C67.7755 7.125 65.7245 9.20025 63.1748 9.20025L63.175 9.2ZM63.175 2.5C62.0255 2.5 61.075 3.45 61.075 4.5995C61.075 5.75 62.0255 6.70025 63.175 6.70025C64.325 6.70025 65.2755 5.75 65.2755 4.5995C65.2755 3.45025 64.3497 2.5 63.175 2.5ZM22.05 25.7C20.875 25.7 19.675 25.25 18.7755 24.3495C17.9005 23.4745 17.4247 22.3253 17.4247 21.0753C17.4247 19.8253 17.9005 18.6747 18.7755 17.7997C19.6505 16.9247 20.8252 16.4503 22.0497 16.4503H22.0753C23.2998 16.4503 24.4502 16.9503 25.2997 17.8253C26.1747 18.7003 26.6505 19.8495 26.6505 21.0753C26.6505 22.3253 26.1747 23.4745 25.2997 24.3495C24.8739 24.7778 24.3675 25.1177 23.8097 25.3495C23.2519 25.5813 22.6538 25.7005 22.0497 25.7003L22.05 25.7ZM22.05 18.95C21.4745 18.95 20.95 19.175 20.55 19.575C20.1505 19.9745 19.95 20.5 19.95 21.075C19.95 21.65 20.175 22.175 20.55 22.575C21.3495 23.375 22.7245 23.375 23.55 22.575C23.95 22.175 24.1505 21.6505 24.1505 21.075C24.1505 20.4995 23.9247 19.9745 23.5497 19.575C23.1505 19.175 22.6252 18.95 22.05 18.95ZM4.5995 66.425C2.05 66.425 0 64.3493 0 61.825C0 59.3 2.075 57.2245 4.5995 57.2245C7.1505 57.2245 9.20025 59.2997 9.20025 61.8252C9.20025 64.3495 7.15025 66.4248 4.5995 66.4248V66.425ZM4.5995 59.7245C3.45025 59.7245 2.5 60.6747 2.5 61.8252C2.5 62.9745 3.45 63.9248 4.5995 63.9248C5.75 63.9248 6.70025 62.9747 6.70025 61.8252C6.70025 60.6747 5.77525 59.7245 4.5995 59.7245ZM21.0995 107.55C19.9248 107.55 18.7245 107.099 17.8253 106.2C16.9503 105.325 16.4745 104.175 16.4745 102.95C16.4745 101.724 16.9503 100.55 17.8253 99.675C19.625 97.875 22.5498 97.875 24.3495 99.675C25.2245 100.55 25.7003 101.7 25.7003 102.95C25.7003 104.2 25.2245 105.35 24.3495 106.225C23.4803 107.073 22.3141 107.548 21.0995 107.55V107.55ZM21.0995 100.85C20.5498 100.85 20 101.05 19.5995 101.45C19.2003 101.849 18.9745 102.375 18.9745 102.95C18.9745 103.525 19.2003 104.05 19.5995 104.45C20.4005 105.25 21.7755 105.25 22.5995 104.45C23 104.05 23.2003 103.525 23.2003 102.95C23.2003 102.375 22.9745 101.849 22.5995 101.45C22.1937 101.067 21.6576 100.852 21.0995 100.85ZM61.825 125C59.2755 125 57.2245 122.925 57.2245 120.4C57.2245 117.875 59.2997 115.8 61.8252 115.8C64.375 115.8 66.4248 117.875 66.4248 120.4C66.4248 122.925 64.3748 125 61.825 125ZM61.825 118.3C60.675 118.3 59.7245 119.25 59.7245 120.4C59.7245 121.55 60.6747 122.5 61.8252 122.5C62.9745 122.5 63.9248 121.55 63.9248 120.4C63.9248 119.25 62.9747 118.3 61.8252 118.3L61.825 118.3ZM102.95 108.55C101.7 108.55 100.55 108.05 99.7 107.175C98.825 106.3 98.3495 105.151 98.3495 103.925C98.3495 102.675 98.8252 101.525 99.7002 100.65C101.5 98.8495 104.425 98.8495 106.225 100.65C107.1 101.525 107.575 102.675 107.575 103.925C107.575 105.175 107.1 106.325 106.225 107.2C105.35 108.05 104.175 108.55 102.95 108.55L102.95 108.55ZM102.95 101.825C102.4 101.825 101.849 102.026 101.45 102.425C101.05 102.825 100.85 103.35 100.85 103.925C100.85 104.501 101.075 105.026 101.45 105.425C101.849 105.825 102.35 106.05 102.925 106.05C103.5 106.05 104.026 105.825 104.425 105.425C104.825 105.026 105.025 104.5 105.025 103.925C105.025 103.35 104.8 102.825 104.425 102.425C104.05 102.026 103.5 101.825 102.95 101.825H102.95ZM120.4 67.7755C117.849 67.7755 115.8 65.7003 115.8 63.1748C115.8 60.6505 117.875 58.5752 120.4 58.5752C122.95 58.5752 125 60.6503 125 63.1748C125 65.7003 122.925 67.7755 120.4 67.7755ZM120.4 61.0752C119.25 61.0752 118.3 62.0253 118.3 63.1748C118.3 64.3253 119.25 65.2755 120.4 65.2755C121.55 65.2755 122.5 64.3253 122.5 63.1748C122.5 62.0255 121.55 61.0752 120.4 61.0752ZM103.9 26.675C102.724 26.675 101.525 26.2245 100.625 25.325C99.75 24.45 99.2755 23.3 99.2755 22.05C99.2755 20.8 99.75 19.6502 100.625 18.7752C102.425 16.9742 105.349 16.9742 107.15 18.7752C108.025 19.6247 108.5 20.7753 108.5 21.9998C108.5 23.2498 108.025 24.4002 107.15 25.2997C106.275 26.2242 105.099 26.675 103.9 26.675ZM103.9 19.95C103.349 19.95 102.8 20.1505 102.4 20.55C102 20.95 101.8 21.4745 101.8 22.05C101.8 22.6255 102.025 23.1505 102.4 23.55C103.2 24.3495 104.575 24.3495 105.4 23.55C105.8 23.1505 106.025 22.5995 106.025 22.0255C106.025 21.4745 105.8 20.9502 105.4 20.5497C105 20.1505 104.45 19.95 103.9 19.95Z" fill="#236FE3"/>
<path d="M63.175 21.9492C62.4745 21.9492 61.925 21.3997 61.925 20.6992V7.94922C61.925 7.24922 62.4745 6.69922 63.175 6.69922C63.8755 6.69922 64.425 7.24922 64.425 7.94922V20.6992C64.425 21.3997 63.875 21.9492 63.175 21.9492ZM33.45 33.6992C33.125 33.6992 32.8 33.5742 32.575 33.3242L23.55 24.3242C23.05 23.8487 23.05 23.0492 23.55 22.5492C24.0255 22.0492 24.825 22.0492 25.325 22.5492L34.3495 31.5492C34.8495 32.0247 34.8495 32.8242 34.3495 33.3242C34.0753 33.5742 33.7498 33.6992 33.45 33.6992ZM20.7245 63.0742H8C7.3 63.0742 6.75 62.5247 6.75 61.8242C6.75 61.1237 7.3 60.5742 8 60.5742H20.7245C21.4248 60.5742 21.9745 61.1242 21.9745 61.8242C21.9745 62.5242 21.4005 63.0742 20.7245 63.0742ZM23.4745 101.799C23.1505 101.799 22.8253 101.674 22.5995 101.424C22.0995 100.924 22.0995 100.15 22.5995 99.6497L31.5995 90.6497C32.0995 90.1497 32.875 90.1497 33.375 90.6497C33.875 91.1497 33.875 91.924 33.375 92.424L24.375 101.424C24.0995 101.699 23.8 101.799 23.4745 101.799V101.799ZM61.825 118.299C61.125 118.299 60.575 117.749 60.575 117.049V104.299C60.575 103.599 61.125 103.049 61.825 103.049C62.525 103.049 63.075 103.599 63.075 104.299V117.049C63.075 117.724 62.5255 118.299 61.825 118.299ZM100.575 102.799C100.25 102.799 99.925 102.674 99.7 102.424L90.675 93.4242C90.175 92.9492 90.175 92.1497 90.675 91.6497C91.175 91.1497 91.95 91.1497 92.45 91.6497L101.475 100.65C101.975 101.124 101.975 101.924 101.475 102.424C101.225 102.674 100.901 102.799 100.575 102.799L100.575 102.799ZM117 64.4242H104.276C103.575 64.4242 103.026 63.8742 103.026 63.1742C103.026 62.4742 103.575 61.9242 104.276 61.9242H117C117.7 61.9242 118.25 62.4737 118.25 63.1742C118.25 63.8747 117.7 64.4242 117 64.4242ZM92.5255 34.6742C92.2003 34.6742 91.875 34.5492 91.6505 34.2992C91.1505 33.7992 91.1505 33.0247 91.6505 32.5247L100.651 23.5247C101.151 23.0247 101.925 23.0247 102.425 23.5247C102.925 24.0247 102.925 24.799 102.425 25.299L93.4248 34.299C93.1748 34.549 92.8498 34.6742 92.5255 34.6742Z" fill="#236FE3"/>
</g>
<defs>
<clipPath id="clip0_403_6033">
<rect width="125" height="125" fill="white"/>
</clipPath>
</defs>
</svg>
