<svg width="105" height="105" viewBox="0 0 105 105" fill="none" xmlns="http://www.w3.org/2000/svg">
<path d="M1.64285 85.698H24.6111V86.3024C24.6111 87.3098 25.417 88.0149 26.4244 88.1157H78.4051C79.4125 88.1157 80.1176 87.3098 80.2184 86.3024V85.698H103.187C103.425 85.699 103.661 85.6528 103.882 85.562C104.102 85.4713 104.302 85.3377 104.471 85.1692C104.64 85.0006 104.773 84.8003 104.864 84.5798C104.955 84.3594 105.001 84.1232 105 83.8848V77.5383C105 67.666 98.855 58.9017 89.5871 55.5774C97.1425 51.145 99.7616 41.3735 95.3292 33.8181C90.8967 26.2627 81.1252 23.6435 73.5698 28.076C72.4617 28.6803 71.4543 29.4862 70.5476 30.2923C67.5254 20.3193 57.0488 14.6779 47.0758 17.7001C44.0991 18.5938 41.3907 20.212 39.1931 22.4096C36.9955 24.6072 35.3773 27.3157 34.4836 30.2923C28.1371 24.1473 18.0633 24.3486 11.9184 30.5946C4.66505 38.049 6.47833 50.3391 15.444 55.4767C6.17605 58.8011 0.0310935 67.666 0.0310935 77.4375V83.784C-0.170428 84.8922 0.63545 85.698 1.64285 85.698ZM76.5918 84.4893H28.0361V76.8332C28.0361 64.4423 38.0092 54.3687 50.4001 54.4693H54.0266C66.4175 54.4693 76.3905 64.5431 76.3905 76.8332C76.5918 76.9339 76.5918 84.5901 76.5918 84.4893ZM31.1591 55.5774C34.1813 53.8649 36.5989 51.145 38.0094 47.8205C39.4196 49.533 41.1323 50.9435 43.0464 51.9507C39.7221 52.9581 36.6999 54.5698 33.98 56.7861C33.0732 56.2828 32.1665 55.8797 31.1591 55.5774ZM61.5818 51.9509C63.4958 50.8427 65.2084 49.4325 66.6188 47.8207C67.9285 51.0442 70.3461 53.7644 73.4691 55.5776C72.4617 55.9807 71.555 56.3835 70.6484 56.7866C67.9285 54.57 64.9063 52.9583 61.5818 51.9509ZM95.4299 63.5359C99.1573 67.2632 101.273 72.3 101.273 77.5385V82.1725H80.1176V76.8334C80.1176 70.0839 77.2969 63.5361 73.3681 59.4057C80.8227 56.0812 89.5871 57.693 95.4299 63.5359ZM71.152 34.8255C74.9801 29.1841 82.7368 27.7739 88.3781 31.602C94.0195 35.43 95.4297 43.1868 91.6017 48.8281C87.7736 54.4695 80.0169 55.8797 74.3755 52.0516C71.6556 50.2384 69.8423 47.3169 69.238 44.0934C70.3461 41.9778 71.2528 38.1498 71.152 34.8255ZM53.6236 20.5208C62.0856 21.2259 68.1298 28.5798 67.6262 36.6388C66.9211 48.0222 54.8325 54.3687 45.061 49.1302C40.1247 46.511 37.002 41.2727 37.002 35.7321C37.0018 26.968 44.5572 19.7147 53.6236 20.5208ZM10.81 41.7763C10.81 34.926 16.4514 29.3856 23.3014 29.3856C27.331 29.3856 31.1589 31.4005 33.476 34.8255C33.2745 37.8477 33.9796 41.172 35.39 44.0934C34.0803 50.8429 27.6331 55.2754 20.8838 54.0664C15.0409 52.8575 10.81 47.72 10.81 41.7763ZM3.35537 77.5383C3.35537 66.5579 12.2202 57.693 23.2007 57.693C25.9206 57.693 28.7413 58.2973 31.2597 59.4055C27.3308 63.5357 24.5101 70.0837 24.5101 76.8332V82.1722H3.35537V77.5383Z" fill="#236FE3"/>
</svg>
