<svg width="110" height="110" viewBox="0 0 110 110" fill="none" xmlns="http://www.w3.org/2000/svg">
<path d="M66.7478 70.1802C68.6232 67.7178 69.7389 64.6514 69.7389 61.3295C69.7389 53.2364 63.1266 46.6523 54.9988 46.6523C46.8711 46.6523 40.2588 53.2364 40.2588 61.3295C40.2588 64.6514 41.3745 67.7178 43.2502 70.1805C37.0868 74.1572 33.3223 80.9869 33.3223 88.3959V97.5799C33.3223 100.944 36.0592 103.681 39.4237 103.681H70.575C73.9394 103.681 76.6764 100.944 76.6764 97.5799V88.3959C76.6764 80.9862 72.9116 74.1564 66.7478 70.1802ZM54.9988 49.4684C60.8299 49.4684 65.6934 53.6546 66.7201 59.1639C63.3329 59.4577 60.0238 57.782 58.2082 54.7458C57.7679 53.9632 56.5958 53.8264 55.9891 54.4879C52.6477 57.9324 47.9797 59.6161 43.2835 59.1323C44.3226 53.6387 49.1788 49.4684 54.9988 49.4684ZM44.8736 62.0316C49.2206 62.0314 53.4392 60.4781 56.78 57.6071C59.2522 60.6621 63.0346 62.2935 66.9043 61.976C66.5654 68.2167 61.3556 73.1903 54.9988 73.1903C48.6311 73.1903 43.413 68.1991 43.0908 61.9431C43.6862 62.0018 44.2808 62.0316 44.8736 62.0316ZM73.8603 97.5797C73.8603 99.3913 72.3866 100.865 70.575 100.865H39.4237C37.612 100.865 36.1383 99.3913 36.1383 97.5797V88.3957C36.1383 81.7818 39.5865 75.6982 45.2003 72.2814C47.8067 74.596 51.2399 76.0066 54.9988 76.0066C58.758 76.0066 62.1912 74.596 64.7977 72.2812C70.4117 75.6978 73.8603 81.7813 73.8603 88.3957V97.5797Z" fill="#236FE3"/>
<path d="M29.0626 97.4748C29.9698 97.4748 30.7053 96.7394 30.7053 95.8321C30.7053 94.9249 29.9698 94.1895 29.0626 94.1895C28.1554 94.1895 27.4199 94.9249 27.4199 95.8321C27.4199 96.7394 28.1554 97.4748 29.0626 97.4748Z" fill="#236FE3"/>
<path d="M38.2679 68.0063C36.8752 66.3505 35.2423 64.9127 33.4236 63.7407C35.3003 61.2778 36.4164 58.211 36.4164 54.8881C36.4164 46.795 29.8041 40.2109 21.6763 40.2109C13.5486 40.2109 6.93681 46.795 6.93681 54.8881C6.93681 58.21 8.05242 61.2767 9.92836 63.7391C3.76455 67.716 0 74.5455 0 81.9545V91.1385C0 94.5029 2.73694 97.2399 6.10139 97.2399H23.3193C23.6927 97.2399 24.0508 97.0915 24.3149 96.8275C24.5789 96.5634 24.7273 96.2053 24.7273 95.8319C24.7273 95.4584 24.5789 95.1003 24.3149 94.8363C24.0508 94.5722 23.6927 94.4239 23.3193 94.4239H6.10139C4.28974 94.4239 2.81602 92.9501 2.81602 91.1385V81.9545C2.81602 75.3404 6.26448 69.2568 11.8782 65.84C14.4847 68.1546 17.9177 69.5649 21.6766 69.5649C25.436 69.5649 28.8692 68.1543 31.4759 65.8396C33.2278 66.9052 34.7942 68.2494 36.1134 69.8193C36.2317 69.9632 36.3774 70.0821 36.5419 70.1692C36.7065 70.2564 36.8868 70.31 37.0722 70.327C37.2577 70.344 37.4447 70.3241 37.6224 70.2683C37.8 70.2126 37.9649 70.1221 38.1074 70.0022C38.2499 69.8823 38.3672 69.7353 38.4525 69.5698C38.5378 69.4042 38.5894 69.2234 38.6043 69.0377C38.6192 68.8521 38.5972 68.6654 38.5394 68.4883C38.4817 68.3112 38.3894 68.1474 38.2679 68.0063ZM21.6766 43.027C27.5072 43.027 32.3704 47.2125 33.3976 52.7211C30.0104 53.0149 26.7008 51.3396 24.8859 48.3044C24.4457 47.5213 23.2742 47.3862 22.6669 48.0465C19.3278 51.4889 14.6581 53.174 9.96145 52.6899C11.0008 47.197 15.857 43.027 21.6766 43.027ZM21.6766 66.7489C15.3084 66.7489 10.09 61.7573 9.76855 55.5008C14.6982 55.9926 19.6671 54.4283 23.4577 51.1657C25.9297 54.2197 29.7116 55.8509 33.5823 55.5332C33.2441 61.7744 28.0338 66.7489 21.6766 66.7489Z" fill="#236FE3"/>
<path d="M80.9376 97.4748C81.8448 97.4748 82.5803 96.7394 82.5803 95.8321C82.5803 94.9249 81.8448 94.1895 80.9376 94.1895C80.0304 94.1895 79.2949 94.9249 79.2949 95.8321C79.2949 96.7394 80.0304 97.4748 80.9376 97.4748Z" fill="#236FE3"/>
<path d="M100.071 63.7402C101.947 61.2776 103.063 58.2112 103.063 54.8892C103.063 46.7962 96.4507 40.2121 88.323 40.2121C80.1952 40.2121 73.583 46.7962 73.583 54.8892C73.583 58.2119 74.699 61.279 76.5757 63.7419C74.757 64.9138 73.1241 66.3517 71.7314 68.0074C71.491 68.2932 71.3739 68.6627 71.406 69.0348C71.438 69.4068 71.6165 69.7509 71.9023 69.9913C72.188 70.2317 72.5575 70.3488 72.9296 70.3168C73.3016 70.2847 73.6457 70.1062 73.8862 69.8205C75.2053 68.2505 76.7717 66.9063 78.5237 65.8407C81.1301 68.1557 84.5636 69.5661 88.323 69.5661C92.0819 69.5661 95.5148 68.1557 98.1213 65.8412C103.735 69.258 107.184 75.3415 107.184 81.9557V91.1397C107.184 92.9513 105.71 94.425 103.898 94.425H86.6803C86.3069 94.425 85.9487 94.5734 85.6847 94.8374C85.4206 95.1015 85.2723 95.4596 85.2723 95.833C85.2723 96.2065 85.4206 96.5646 85.6847 96.8287C85.9487 97.0927 86.3069 97.241 86.6803 97.241H103.898C107.263 97.241 110 94.5041 110 91.1397V81.9557C110 74.5465 106.235 67.7169 100.071 63.7402ZM88.323 43.0279C94.1425 43.0279 98.9987 47.1977 100.038 52.6908C95.3412 53.175 90.6718 51.4898 87.3329 48.0477C86.7253 47.3871 85.5543 47.5227 85.1139 48.3056C83.2989 51.3403 79.9889 53.0161 76.6022 52.7223C77.6291 47.2137 82.4924 43.0279 88.323 43.0279ZM88.323 66.7498C81.9658 66.7498 76.7554 61.7753 76.4173 55.5341C80.2879 55.8518 84.0698 54.2211 86.5418 51.1669C90.3324 54.4297 95.3011 55.9938 100.231 55.5019C99.9095 61.7582 94.6912 66.7498 88.323 66.7498ZM73.7477 6.32031C65.6202 6.32031 59.0079 12.9044 59.0079 20.9974C59.0079 29.0902 65.6202 35.6743 73.7477 35.6743C81.8754 35.6743 88.4877 29.0902 88.4877 20.9974C88.4875 12.9042 81.8752 6.32031 73.7477 6.32031ZM73.7477 9.13634C79.5783 9.13634 84.4415 13.3219 85.4687 18.8305C82.0815 19.1238 78.7719 17.4488 76.957 14.414C76.5168 13.6309 75.3453 13.496 74.738 14.1561C71.3989 17.5983 66.7306 19.2839 62.0328 18.7995C63.0719 13.3062 67.9281 9.13634 73.7477 9.13634ZM73.7477 32.8583C67.3797 32.8583 62.1614 27.8666 61.8399 21.6101C66.7694 22.1022 71.7382 20.5379 75.5288 17.2753C78.0006 20.3293 81.7827 21.9603 85.6534 21.6425C85.3152 27.8835 80.1049 32.8583 73.7477 32.8583ZM36.2007 6.32031C28.0732 6.32031 21.4609 12.9044 21.4609 20.9974C21.4609 29.0902 28.0732 35.6743 36.2007 35.6743C44.3285 35.6743 50.9407 29.0902 50.9407 20.9974C50.9405 12.9042 44.3282 6.32031 36.2007 6.32031ZM36.2007 9.13634C42.0313 9.13634 46.8946 13.3219 47.9217 18.8305C44.5345 19.1238 41.225 17.4488 39.41 14.414C38.9698 13.6309 37.7981 13.496 37.191 14.1561C33.8521 17.5983 29.1834 19.2839 24.4858 18.7995C25.5249 13.3062 30.3812 9.13634 36.2007 9.13634ZM36.2007 32.8583C29.8327 32.8583 24.6144 27.8666 24.2929 21.6101C29.2224 22.1022 34.1912 20.5379 37.9818 17.2753C40.4536 20.3293 44.2358 21.9603 48.1064 21.6425C47.7682 27.8835 42.5579 32.8583 36.2007 32.8583Z" fill="#236FE3"/>
</svg>
