<svg width="376" height="60" viewBox="0 0 376 60" fill="none" xmlns="http://www.w3.org/2000/svg">
<circle cx="30.2142" cy="30" r="30" fill="#EFEFEF"/>
<path d="M18.1041 30V15L26.2219 15.0207L34.3396 15.0413L35.034 15.2182C38.4008 16.0758 40.8702 18.2628 42.0787 21.4572C42.3695 22.2262 42.6364 23.472 42.6854 24.2902L42.7253 24.9575H40.2725H37.8197L37.7815 24.6381C37.6547 23.5765 37.3255 22.7307 36.7354 21.9509C36.1453 21.1709 35.2573 20.5385 34.2735 20.1976L33.7444 20.0142L28.4042 19.9951L23.0641 19.976V29.9995V40.023H25.5109H27.9578V42.5115V45H23.031H18.1041V30Z" fill="#13A3D7"/>
<path d="M32.0562 42.4553V39.9107L32.9021 39.8644C33.3673 39.8389 33.9298 39.7721 34.1522 39.7159C35.5169 39.3707 36.8385 38.2463 37.454 36.9066C37.9688 35.7861 37.9502 35.9627 37.9769 31.9275L38.0007 28.3333H40.363H42.7253L42.7012 32.237L42.6771 36.1408L42.512 36.8631C42.0478 38.893 41.2423 40.4461 39.9079 41.8839C38.8249 43.0508 37.6282 43.8631 36.216 44.3898C35.1613 44.7831 34.4672 44.9137 33.1893 44.9594L32.0562 44.9999V42.4553Z" fill="#13A3D7"/>
<circle cx="93.8183" cy="29.6041" r="29.6041" fill="#EFEFEF"/>
<circle cx="94.0776" cy="29.5" r="29.5" fill="#EFEFEF"/>
<path d="M69.179 19.8984H105.367L109.736 25.8575L114.106 19.8984H119.445L112.406 29.4993L119.445 39.1019H114.106L109.736 33.1428L105.367 39.1019H69.179V19.8984Z" fill="#00539F"/>
<path d="M73.4632 35.2823V23.728H75.2173C78.7518 23.728 80.3619 25.5116 80.3619 29.4349C80.3619 33.5478 78.8714 35.2826 75.2647 35.2826L73.4632 35.2823ZM89.5208 31.597L91.7318 23.8701L93.9676 31.597H89.5208ZM70.169 38.1366H75.3856C80.9152 38.1366 83.7027 35.211 83.7027 29.4349C83.7027 23.775 80.915 20.8514 75.505 20.8514H70.1689L70.169 38.1366ZM106.968 29.4923L100.628 38.14L104.996 38.1439L109.2 32.4058L111.337 29.4924L109.2 26.5807L104.996 20.8512H100.628L106.968 29.4923ZM84.4958 38.1366H87.621L88.7265 34.3557H94.7604L95.8431 38.1366H99.137L93.871 20.8506H89.7617L84.4958 38.1366Z" fill="white"/>
<circle cx="157.182" cy="29.6041" r="29.6041" fill="#EFEFEF"/>
<path fill-rule="evenodd" clip-rule="evenodd" d="M151.041 20L147.782 38H150.669L152.484 28.008H153.619L155.682 38H158.734L156.671 28.008H155.682L160.404 20H157.105L152.505 27.831L153.928 20H151.041Z" fill="#111111"/>
<path fill-rule="evenodd" clip-rule="evenodd" d="M161.065 20L157.806 38H160.694L162.508 28.008H163.643L165.705 38H168.758L166.696 28.008H165.705L170.429 20H167.128L162.529 27.831L163.952 20H161.065ZM143.327 38H146.214L149.473 20H146.585L143.327 38ZM177.029 38H179.916L183.176 20H180.288L177.029 38Z" fill="#111111"/>
<path fill-rule="evenodd" clip-rule="evenodd" d="M167.871 38H175.523L176.1 34.811H171.336L172.14 30.347H176.575L177.153 27.1575H172.718L173.461 23.047H178.204L178.782 20H171.13L167.871 38ZM145.018 20H142.625L140.377 32.4365L138.995 20H135.571L132.312 38H134.726L137.056 24.925L138.521 38H141.759L145.018 20Z" fill="#111111"/>
<circle cx="220.286" cy="29.5" r="29.5" fill="#EFEFEF"/>
<mask id="mask0_442_8055" style="mask-type:luminance" maskUnits="userSpaceOnUse" x="219" y="15" width="20" height="23">
<path d="M219.92 15H238.421V37.6016H219.92V15Z" fill="white"/>
</mask>
<g mask="url(#mask0_442_8055)">
<path d="M229.521 15L221.698 36.4956C221.601 36.7603 221.431 36.9924 221.209 37.1653C220.986 37.3382 220.72 37.445 220.439 37.4734V37.4837H228.71C229.358 37.4837 229.912 37.0719 230.118 36.4963L237.945 15H229.521Z" fill="#0996C7"/>
</g>
<path d="M219.765 37.1575C220.244 37.1575 220.664 36.919 220.921 36.5579C220.948 36.5202 221.042 36.3887 221.108 36.2098L223.978 28.3215L222.299 23.7147C222.201 23.4814 222.043 23.2785 221.84 23.127C221.638 22.9756 221.398 22.881 221.147 22.8532C220.896 22.8254 220.641 22.8653 220.411 22.9688C220.18 23.0723 219.981 23.2357 219.834 23.442C219.807 23.4797 219.695 23.6475 219.647 23.7901L216.778 31.6757L218.464 36.301C218.573 36.5552 218.755 36.7718 218.986 36.924C219.217 37.0762 219.488 37.1574 219.765 37.1575Z" fill="#0996C7"/>
<mask id="mask1_442_8055" style="mask-type:luminance" maskUnits="userSpaceOnUse" x="202" y="21" width="19" height="24">
<path d="M202.104 21.8413H220.605V45H202.104V21.8413Z" fill="white"/>
</mask>
<g mask="url(#mask1_442_8055)">
<path d="M220.378 22.5156H212.016C211.369 22.5156 210.814 22.9254 210.605 23.5037L202.781 44.9993H211.205L219.029 23.5044C219.131 23.2248 219.313 22.9817 219.554 22.806C219.794 22.6304 220.081 22.5303 220.378 22.5184V22.5156Z" fill="#0996C7"/>
</g>
<circle cx="283.286" cy="29.5" r="29.5" fill="#EFEFEF"/>
<path fill-rule="evenodd" clip-rule="evenodd" d="M277.394 25.9991V44.8927H277.42L281.247 39.5941V20.62L277.394 25.9991ZM268.187 38.7109V44.8927H272.015V33.4388L268.187 38.7109ZM272.737 32.3951V44.8927H276.644V26.9892L272.737 32.3951ZM285.85 25.9991V44.8927L281.97 39.5941V20.62L285.85 25.9991ZM295.083 38.7109V44.8927H291.256V33.4388L295.083 38.7109ZM290.48 32.3951V44.8927H286.6V26.9892L290.48 32.3951Z" fill="black"/>
<path fill-rule="evenodd" clip-rule="evenodd" d="M295.217 15V21.53L291.256 26.8021V15H295.217ZM290.48 27.7922V15H286.6V25.678L289.276 29.398L290.48 27.7922ZM285.85 15.1069L282.344 19.7902L285.85 24.6611V15.1069ZM268 15V21.53L271.987 26.8021V15H268ZM272.737 27.7654V15H276.644V25.678L273.968 29.398L272.737 27.7654ZM277.367 15.1069L280.872 19.7902L277.367 24.6611V15.1069Z" fill="#A6A8AA"/>
<path fill-rule="evenodd" clip-rule="evenodd" d="M296.876 43.6886C296.876 43.6352 296.876 43.6084 296.956 43.6084C297.144 43.6084 297.197 43.7156 297.197 43.8223C297.197 43.9831 297.144 44.0633 296.983 44.0633C296.876 44.0633 296.876 44.0633 296.876 44.0099V43.6886ZM296.689 44.331C296.689 44.4916 296.689 44.5181 296.608 44.5449H296.581C296.554 44.5449 296.554 44.5985 296.581 44.5985H297.01C297.036 44.5985 297.036 44.5449 297.01 44.5449H296.956C296.876 44.5449 296.876 44.4916 296.876 44.331V44.1702C296.876 44.1434 296.876 44.1434 296.929 44.1434C296.983 44.1434 297.01 44.1434 297.01 44.1702C297.063 44.2236 297.143 44.3576 297.197 44.4112C297.277 44.5449 297.357 44.5985 297.518 44.5985H297.571C297.598 44.5985 297.598 44.5717 297.571 44.5717C297.571 44.5717 297.518 44.5717 297.464 44.5181C297.384 44.4648 297.304 44.331 297.197 44.1169C297.17 44.0901 297.17 44.0901 297.17 44.0633C297.25 44.0365 297.357 43.9561 297.357 43.7958C297.357 43.5816 297.17 43.5283 296.982 43.5283H296.581C296.554 43.5816 296.554 43.5816 296.581 43.6087H296.608C296.688 43.6355 296.688 43.6355 296.688 43.7958L296.689 44.331ZM297.01 45C297.572 45 297.973 44.5988 297.973 44.0633C297.973 43.528 297.572 43.1 297.01 43.1C296.474 43.1 296.073 43.528 296.073 44.0633C296.073 44.5985 296.474 45 297.01 45ZM296.207 44.0633C296.207 43.6084 296.555 43.234 297.01 43.234C297.465 43.234 297.813 43.6087 297.813 44.0633C297.813 44.5449 297.465 44.9196 297.01 44.9196C296.555 44.9196 296.207 44.5449 296.207 44.0633Z" fill="black"/>
<circle cx="346.286" cy="29.5" r="29.5" fill="#EFEFEF"/>
<path fill-rule="evenodd" clip-rule="evenodd" d="M322.919 21.0495C324.296 20.9721 325.66 21.1227 327.009 21.5014C327.996 21.8695 328.462 22.7233 328.408 24.0622C328.301 24.2128 328.193 24.3634 328.085 24.5141C327.208 24.4077 326.346 24.1065 325.502 23.6103C324.439 23.2967 323.434 23.4976 322.488 24.2128C321.87 25.132 321.941 25.9355 322.704 26.6229C324.368 27.4813 326.018 28.3851 327.655 29.3344C329.062 30.9838 329.313 32.942 328.408 35.2091C327.991 35.9942 327.453 36.5464 326.794 36.866C324.804 37.5924 322.867 37.3918 320.982 36.2635C320.252 35.6604 319.93 34.8069 320.013 33.7027C320.186 33.3099 320.437 33.1089 320.766 33.1002C321.433 33.4792 322.079 33.9311 322.704 34.4559C324.148 35.2437 325.476 34.9925 326.686 33.7027C326.91 32.758 326.731 32.0048 326.148 31.4432C324.956 30.728 323.736 30.1255 322.488 29.6356C320.44 28.6749 319.687 26.7166 320.228 23.7609C320.856 22.2958 321.753 21.392 322.919 21.0495Z" fill="#5D5D5D"/>
<path d="M340.455 27.7873C340.972 24.6101 342.278 22.7445 344.231 21.8916C346.079 21.7213 347.4 22.2276 348.342 23.3061C349.34 24.4492 350.02 26.355 350.256 29.1763C349.937 32.3617 349.144 34.3645 348.051 35.4188C347.042 36.3922 345.611 36.7038 343.526 36.0806C341.162 34.4795 340.069 31.8091 340.455 27.7873Z" stroke="#5D5D5D" stroke-width="1.71904"/>
<path fill-rule="evenodd" clip-rule="evenodd" d="M330.023 21.3508C333.038 21.3005 336.051 21.3508 339.064 21.5014C339.659 22.395 339.588 23.1985 338.849 23.9116C337.775 24.0619 336.699 24.1122 335.62 24.0622C335.656 28.1808 335.62 32.2979 335.512 36.4142C334.856 37.6138 334.21 37.6138 333.575 36.4142C333.467 32.2979 333.431 28.1808 333.467 24.0622C332.317 24.1122 331.169 24.0619 330.023 23.9116C329.463 23.059 329.463 22.2055 330.023 21.3508Z" fill="#5D5D5D"/>
<path fill-rule="evenodd" clip-rule="evenodd" d="M359.73 21.0494C360.775 20.8879 361.241 21.4905 361.129 22.857C360.268 24.4637 359.407 26.0706 358.546 27.6773C358.152 26.9241 357.757 26.1709 357.362 25.4178C358.127 23.9256 358.917 22.4696 359.73 21.0494Z" fill="#1F75BA"/>
<path fill-rule="evenodd" clip-rule="evenodd" d="M370.493 21.0493C371.247 20.949 371.749 21.4009 372 22.405C371.195 24.2867 370.262 26.044 369.202 27.6772C368.868 26.893 368.509 26.1398 368.125 25.4177C368.875 23.9165 369.665 22.4605 370.493 21.0493Z" fill="#1F75BA"/>
<path fill-rule="evenodd" clip-rule="evenodd" d="M352.411 21.0493C353.196 21.0861 353.806 21.588 354.241 22.5557C355.402 24.7305 356.514 26.94 357.577 29.1835C356.371 31.6283 355.115 34.0385 353.81 36.414C353.352 37.3051 352.778 37.5058 352.088 37.0165C351.833 36.5513 351.761 36.0491 351.873 35.5102C353.013 33.3724 354.125 31.2135 355.209 29.0329C354.196 27.053 353.156 25.0947 352.088 23.1582C351.909 22.3535 352.016 21.6506 352.411 21.0493Z" fill="#1F75BA"/>
<path fill-rule="evenodd" clip-rule="evenodd" d="M368.986 30.69C369.201 30.6641 369.38 30.7647 369.524 30.9913C370.232 32.4838 371.021 33.8895 371.892 35.209C372.144 36.866 371.677 37.5188 370.493 37.1673C369.625 35.7923 368.836 34.3363 368.125 32.7989C368.424 32.0855 368.711 31.3826 368.986 30.69Z" fill="#1F75BA"/>
<path fill-rule="evenodd" clip-rule="evenodd" d="M362.958 21.0494C363.637 20.8864 364.175 21.1877 364.573 21.9532C365.87 24.3211 367.126 26.7313 368.34 29.1836C367.054 31.7365 365.727 34.247 364.358 36.7153C363.055 37.802 362.481 37.3001 362.635 35.209C363.789 33.2435 364.901 31.2352 365.972 29.1836C364.973 27.2326 363.932 25.3247 362.851 23.4595C362.397 22.5946 362.433 21.7914 362.958 21.0494Z" fill="#1F75BA"/>
<path fill-rule="evenodd" clip-rule="evenodd" d="M358.439 30.6899C359.434 32.0637 360.331 33.5701 361.129 35.209C361.381 36.8659 360.914 37.5188 359.73 37.1672C359.003 35.7844 358.249 34.4287 357.47 33.1001C357.614 32.1975 357.937 31.394 358.439 30.6899Z" fill="#1F75BA"/>
</svg>
