<svg width="599" height="599" viewBox="0 0 599 599" fill="none" xmlns="http://www.w3.org/2000/svg">
<path d="M571.586 300.826L594.085 301.434L593.725 314.762L590.459 314.674L590.731 304.612L584.388 304.44L584.166 312.628L580.885 312.539L581.106 304.352L571.497 304.092L571.586 300.826Z" fill="#EFEFEF"/>
<path d="M590.499 319.559L593.663 319.792L593.424 323.05L590.26 322.817L590.499 319.559ZM570.904 318.121L587.74 319.357L587.5 322.615L570.665 321.379L570.904 318.121Z" fill="#EFEFEF"/>
<path d="M568.93 337.538L577.167 338.559C577.818 338.64 578.492 338.666 579.189 338.637C579.894 338.619 580.561 338.492 581.189 338.255C581.816 338.028 582.345 337.658 582.776 337.144C583.206 336.641 583.476 335.944 583.586 335.055C583.658 334.476 583.627 333.916 583.495 333.374C583.373 332.834 583.124 332.341 582.749 331.896C582.372 331.461 581.852 331.086 581.187 330.773C580.521 330.47 579.692 330.257 578.699 330.134L579.709 328.212C581.229 328.4 582.533 328.85 583.621 329.563C584.719 330.276 585.528 331.206 586.047 332.352C586.567 333.498 586.733 334.826 586.546 336.336C586.402 337.494 586.096 338.443 585.626 339.182C585.156 339.922 584.586 340.497 583.916 340.908C583.254 341.33 582.551 341.626 581.805 341.796C581.06 341.966 580.34 342.055 579.646 342.064C578.952 342.072 578.346 342.044 577.829 341.98L568.522 340.827L568.93 337.538ZM570.389 325.765L587.142 327.841L586.782 330.742L581.943 330.142L581.895 330.53L569.982 329.053L570.389 325.765Z" fill="#EFEFEF"/>
<path d="M566.589 348.955C566.823 347.726 567.245 346.741 567.853 345.997C568.472 345.256 569.196 344.742 570.025 344.455C570.862 344.179 571.732 344.128 572.632 344.3C573.472 344.46 574.18 344.749 574.758 345.166C575.336 345.584 575.79 346.127 576.119 346.794C576.458 347.464 576.684 348.25 576.799 349.152C576.873 349.93 576.903 350.8 576.889 351.763C576.876 352.725 576.843 353.732 576.791 354.783C576.737 355.844 576.685 356.895 576.635 357.936L576.213 356.646C577.509 356.914 578.524 356.822 579.257 356.367C579.999 355.926 580.502 355.014 580.766 353.632C580.932 352.762 580.879 351.924 580.608 351.12C580.348 350.317 579.779 349.683 578.902 349.219L580.394 346.401C581.739 347.081 582.722 348.075 583.342 349.382C583.961 350.698 584.088 352.314 583.723 354.228C583.44 355.712 582.938 356.953 582.217 357.95C581.505 358.96 580.552 359.617 579.359 359.919C578.766 360.082 578.162 360.137 577.546 360.083C576.931 360.029 576.275 359.936 575.579 359.803L565.369 357.855L565.91 355.015L569.703 355.738L569.106 356.197C567.968 355.27 567.188 354.214 566.766 353.03C566.353 351.859 566.294 350.5 566.589 348.955ZM569.106 350.024C568.932 350.935 568.942 351.748 569.134 352.463C569.337 353.181 569.651 353.787 570.076 354.282C570.501 354.777 570.974 355.138 571.493 355.364C571.951 355.632 572.485 355.834 573.095 355.972C573.703 356.12 574.192 356.229 574.56 356.299L573.977 357.27C574.017 356.227 574.055 355.28 574.09 354.427C574.125 353.575 574.146 352.799 574.152 352.1C574.166 351.413 574.141 350.793 574.077 350.24C574.007 349.77 573.898 349.341 573.75 348.952C573.599 348.573 573.39 348.252 573.122 347.989C572.852 347.736 572.497 347.568 572.057 347.484C571.627 347.402 571.207 347.433 570.798 347.578C570.399 347.724 570.049 347.997 569.751 348.396C569.452 348.795 569.237 349.338 569.106 350.024Z" fill="#EFEFEF"/>
<path d="M561.536 373.025L569.563 375.135C570.198 375.302 570.863 375.418 571.557 375.482C572.259 375.559 572.937 375.521 573.591 375.37C574.242 375.229 574.815 374.932 575.311 374.481C575.804 374.039 576.165 373.385 576.393 372.519C576.541 371.954 576.586 371.395 576.527 370.841C576.478 370.289 576.297 369.768 575.984 369.276C575.669 368.795 575.203 368.354 574.586 367.955C573.967 367.566 573.173 367.244 572.206 366.99L573.463 365.219C574.944 365.609 576.177 366.229 577.16 367.08C578.153 367.934 578.83 368.963 579.192 370.168C579.554 371.373 579.542 372.711 579.155 374.182C578.859 375.311 578.428 376.211 577.864 376.881C577.3 377.552 576.658 378.046 575.939 378.363C575.227 378.693 574.491 378.893 573.729 378.962C572.968 379.031 572.242 379.023 571.553 378.939C570.864 378.855 570.268 378.747 569.764 378.614L560.694 376.23L561.536 373.025ZM564.552 361.552L580.878 365.843L580.135 368.67L575.419 367.43L575.32 367.808L563.71 364.757L564.552 361.552Z" fill="#EFEFEF"/>
<path d="M557.11 385.799C557.758 383.851 558.717 382.408 559.985 381.468C561.253 380.529 562.714 380.18 564.369 380.424L563.801 383.76C562.905 383.681 562.096 383.917 561.375 384.468C560.66 385.032 560.125 385.847 559.769 386.915C559.447 387.884 559.393 388.706 559.607 389.382C559.818 390.067 560.27 390.525 560.962 390.755C561.368 390.89 561.727 390.9 562.04 390.785C562.359 390.682 562.735 390.362 563.166 389.825C563.598 389.288 564.19 388.447 564.945 387.304C565.758 386.048 566.502 385.082 567.178 384.406C567.859 383.744 568.53 383.33 569.189 383.165C569.854 383.013 570.578 383.067 571.359 383.327C572.328 383.65 573.087 384.188 573.638 384.943C574.189 385.697 574.507 386.605 574.593 387.666C574.676 388.737 574.508 389.9 574.09 391.156C573.682 392.381 573.126 393.41 572.421 394.24C571.716 395.071 570.909 395.665 570 396.021C569.1 396.38 568.156 396.461 567.167 396.264L567.646 392.898C568.453 393.046 569.181 392.887 569.83 392.423C570.479 391.958 570.986 391.242 571.352 390.277C571.704 389.351 571.799 388.537 571.637 387.835C571.485 387.136 571.103 386.685 570.49 386.481C570.134 386.363 569.796 386.371 569.477 386.506C569.154 386.651 568.772 387.007 568.33 387.574C567.889 388.141 567.301 389 566.567 390.15C565.773 391.38 565.032 392.319 564.344 392.968C563.665 393.621 562.978 394.018 562.283 394.16C561.595 394.315 560.84 394.256 560.019 393.983C558.438 393.457 557.389 392.465 556.875 391.009C556.357 389.563 556.435 387.826 557.11 385.799Z" fill="#EFEFEF"/>
<path d="M549.728 406.562L557.408 409.709C558.015 409.958 558.659 410.16 559.339 410.315C560.024 410.483 560.701 410.535 561.369 410.471C562.034 410.417 562.641 410.198 563.192 409.816C563.739 409.443 564.182 408.842 564.522 408.013C564.743 407.473 564.861 406.925 564.875 406.368C564.899 405.814 564.789 405.273 564.544 404.745C564.295 404.226 563.89 403.728 563.331 403.252C562.768 402.784 562.024 402.361 561.098 401.982L562.578 400.392C563.995 400.973 565.135 401.75 565.997 402.723C566.87 403.699 567.406 404.809 567.606 406.051C567.807 407.293 567.619 408.618 567.042 410.026C566.599 411.106 566.054 411.941 565.407 412.531C564.759 413.122 564.058 413.527 563.304 413.747C562.555 413.981 561.798 414.082 561.034 414.05C560.27 414.019 559.552 413.916 558.88 413.742C558.208 413.568 557.631 413.382 557.149 413.184L548.472 409.628L549.728 406.562ZM554.227 395.585L575.053 404.12L573.945 406.824L562.707 402.219L562.559 402.58L552.97 398.651L554.227 395.585Z" fill="#EFEFEF"/>
<path d="M544.302 417.301C544.853 416.179 545.52 415.339 546.303 414.783C547.096 414.232 547.93 413.927 548.805 413.869C549.686 413.825 550.538 414.005 551.361 414.409C552.128 414.785 552.735 415.251 553.182 415.807C553.629 416.363 553.923 417.006 554.064 417.737C554.214 418.472 554.225 419.29 554.097 420.19C553.963 420.96 553.762 421.807 553.494 422.732C553.226 423.657 552.928 424.619 552.6 425.619C552.268 426.628 551.94 427.628 551.617 428.618L551.55 427.263C552.729 427.864 553.733 428.043 554.56 427.799C555.393 427.569 556.119 426.822 556.738 425.559C557.128 424.764 557.299 423.943 557.251 423.095C557.211 422.252 556.83 421.49 556.108 420.811L558.292 418.487C559.409 419.499 560.094 420.717 560.347 422.141C560.596 423.575 560.291 425.166 559.433 426.916C558.767 428.272 557.955 429.337 556.997 430.108C556.043 430.894 554.951 431.275 553.72 431.252C553.105 431.252 552.508 431.144 551.928 430.93C551.349 430.715 550.741 430.452 550.105 430.14L540.772 425.563L542.046 422.967L545.512 424.667L544.815 424.952C543.962 423.756 543.489 422.532 543.396 421.279C543.307 420.04 543.609 418.714 544.302 417.301ZM546.447 418.997C546.039 419.83 545.833 420.617 545.829 421.358C545.835 422.103 545.977 422.771 546.257 423.361C546.536 423.951 546.896 424.423 547.337 424.779C547.708 425.158 548.17 425.495 548.722 425.789C549.27 426.092 549.712 426.326 550.049 426.491L549.23 427.274C549.544 426.279 549.83 425.375 550.09 424.562C550.349 423.749 550.574 423.006 550.765 422.334C550.96 421.675 551.1 421.071 551.184 420.52C551.241 420.049 551.249 419.606 551.209 419.192C551.164 418.787 551.047 418.422 550.858 418.097C550.665 417.781 550.367 417.525 549.964 417.328C549.571 417.135 549.158 417.054 548.725 417.086C548.301 417.121 547.893 417.292 547.499 417.598C547.105 417.904 546.755 418.371 546.447 418.997Z" fill="#EFEFEF"/>
<path d="M533.248 438.886L540.44 443.028C541.009 443.356 541.62 443.642 542.273 443.886C542.93 444.144 543.594 444.286 544.265 444.311C544.93 444.346 545.561 444.21 546.158 443.905C546.75 443.608 547.269 443.072 547.717 442.295C548.008 441.789 548.198 441.261 548.286 440.711C548.384 440.166 548.346 439.615 548.173 439.059C547.996 438.512 547.661 437.964 547.171 437.417C546.675 436.879 545.994 436.361 545.127 435.861L546.805 434.483C548.132 435.247 549.158 436.169 549.884 437.248C550.618 438.333 551.002 439.504 551.035 440.761C551.068 442.019 550.705 443.307 549.946 444.625C549.364 445.637 548.712 446.392 547.992 446.891C547.272 447.39 546.523 447.698 545.746 447.816C544.972 447.948 544.209 447.947 543.456 447.814C542.703 447.681 542.005 447.483 541.362 447.221C540.72 446.959 540.172 446.698 539.721 446.438L531.594 441.758L533.248 438.886ZM539.169 428.606L553.797 437.031L552.338 439.564L548.112 437.13L547.917 437.468L537.515 431.477L539.169 428.606Z" fill="#EFEFEF"/>
<path d="M525.381 450.381C526.26 449.076 527.343 448.166 528.631 447.651C529.914 447.145 531.287 447.008 532.751 447.239C534.219 447.486 535.652 448.08 537.053 449.022C538.462 449.971 539.545 451.077 540.303 452.34C541.069 453.609 541.452 454.934 541.452 456.316C541.454 457.712 541.014 459.067 540.129 460.381C539.239 461.704 538.168 462.596 536.914 463.059C535.664 463.536 534.327 463.629 532.903 463.337C531.474 463.053 530.059 462.44 528.658 461.497C527.258 460.555 526.157 459.475 525.356 458.258C524.555 457.041 524.131 455.757 524.085 454.407C524.047 453.063 524.48 451.721 525.381 450.381ZM527.579 452.406C526.98 453.297 526.703 454.165 526.748 455.012C526.794 455.859 527.101 456.663 527.67 457.422C528.239 458.182 529.008 458.888 529.976 459.539C530.944 460.191 531.89 460.633 532.814 460.865C533.732 461.106 534.585 461.09 535.372 460.815C536.153 460.55 536.829 459.994 537.399 459.147C538.004 458.247 538.281 457.36 538.23 456.484C538.179 455.608 537.878 454.777 537.326 453.992C536.769 453.215 536.032 452.518 535.116 451.901C534.191 451.279 533.259 450.853 532.321 450.623C531.385 450.408 530.508 450.433 529.689 450.699C528.864 450.973 528.161 451.542 527.579 452.406ZM522.96 454.818L533.036 461.599L533.246 461.288L541.843 467.073L540.011 469.796L521.337 457.23L522.96 454.818Z" fill="#EFEFEF"/>
<path d="M513.656 466.583C514.687 465.259 515.881 464.32 517.238 463.765C518.596 463.225 520.011 463.079 521.482 463.327C522.955 463.589 524.378 464.255 525.751 465.324C527.206 466.458 528.257 467.712 528.903 469.087C529.542 470.47 529.773 471.878 529.595 473.311C529.417 474.744 528.822 476.11 527.81 477.409C526.753 478.765 525.537 479.674 524.162 480.134C522.794 480.601 521.348 480.617 519.824 480.183C518.294 479.757 516.769 478.874 515.251 477.533L517.259 474.956L518.196 475.686C519.754 476.873 521.127 477.467 522.316 477.468C523.497 477.477 524.543 476.898 525.452 475.73C526.457 474.44 526.806 473.153 526.498 471.869C526.19 470.586 525.267 469.346 523.73 468.148C522.267 467.008 520.879 466.45 519.568 466.471C518.264 466.5 517.136 467.126 516.182 468.351C515.554 469.157 515.194 469.993 515.101 470.858C515.01 471.738 515.178 472.608 515.604 473.468L512.833 475.372C512.045 473.926 511.731 472.42 511.893 470.856C512.063 469.298 512.651 467.873 513.656 466.583ZM523.655 466.743L525.665 468.309L518.26 477.816L516.25 476.25L523.655 466.743Z" fill="#EFEFEF"/>
<path d="M506.985 475.519L524.423 490.48L522.296 492.96L504.858 477.999L506.985 475.519Z" fill="#EFEFEF"/>
<path d="M497.639 486.187L508.305 507.314L504.966 510.628L483.918 499.809L486.325 497.419L505.575 507.248L504.976 507.843L495.232 488.576L497.639 486.187ZM498.522 492.468L500.681 494.642L492.339 502.923L490.181 500.749L498.522 492.468Z" fill="#EFEFEF"/>
<path d="M475.775 506.15C477.001 505.098 478.284 504.513 479.623 504.393C480.969 504.282 482.293 504.553 483.595 505.207C484.898 505.861 486.098 506.828 487.197 508.11C488.297 509.391 489.074 510.721 489.53 512.101C489.978 513.488 490.042 514.826 489.722 516.117C489.4 517.423 488.635 518.595 487.425 519.633C486.223 520.664 484.932 521.256 483.553 521.41C482.173 521.577 480.809 521.355 479.459 520.742C478.116 520.136 476.891 519.189 475.785 517.9C474.686 516.619 473.933 515.261 473.525 513.826C473.117 512.405 473.093 511.025 473.454 509.686C473.807 508.353 474.581 507.174 475.775 506.15ZM482.107 501.335L496.762 518.418L494.271 520.555L487.523 512.69L487.808 512.446L479.9 503.228L482.107 501.335ZM478.043 508.097C477.252 508.775 476.772 509.537 476.604 510.381C476.428 511.232 476.506 512.106 476.836 513.004C477.165 513.915 477.693 514.795 478.419 515.641C479.138 516.479 479.92 517.126 480.764 517.583C481.601 518.046 482.457 518.252 483.333 518.2C484.209 518.149 485.058 517.771 485.881 517.065C486.656 516.4 487.134 515.661 487.314 514.847C487.487 514.04 487.404 513.191 487.065 512.301C486.719 511.417 486.166 510.532 485.406 509.646C484.646 508.761 483.856 508.079 483.035 507.603C482.214 507.126 481.381 506.915 480.534 506.968C479.688 507.022 478.857 507.398 478.043 508.097Z" fill="#EFEFEF"/>
<path d="M447.361 528.022L459.163 547.187L447.811 554.178L446.098 551.397L454.669 546.118L451.341 540.715L444.367 545.01L442.646 542.215L449.62 537.92L444.58 529.735L447.361 528.022Z" fill="#EFEFEF"/>
<path d="M442.484 553.841L444.027 556.614L441.172 558.202L439.629 555.43L442.484 553.841ZM432.931 536.673L441.139 551.424L438.284 553.012L430.076 538.261L432.931 536.673Z" fill="#EFEFEF"/>
<path d="M415.671 545.646L419.353 553.084C419.644 553.672 419.994 554.249 420.402 554.815C420.805 555.394 421.278 555.881 421.822 556.274C422.356 556.673 422.956 556.91 423.622 556.987C424.279 557.069 425.009 556.911 425.812 556.514C426.335 556.255 426.786 555.921 427.165 555.513C427.549 555.113 427.823 554.634 427.989 554.076C428.145 553.522 428.171 552.881 428.066 552.154C427.953 551.431 427.674 550.621 427.23 549.725L429.391 549.51C430.071 550.883 430.412 552.219 430.417 553.519C430.425 554.829 430.094 556.016 429.424 557.08C428.753 558.145 427.736 559.015 426.373 559.69C425.327 560.207 424.366 560.474 423.49 560.489C422.614 560.504 421.82 560.345 421.108 560.011C420.392 559.692 419.757 559.267 419.205 558.738C418.652 558.21 418.182 557.658 417.792 557.083C417.403 556.509 417.093 555.988 416.862 555.521L412.701 547.116L415.671 545.646ZM426.303 540.382L433.792 555.511L431.172 556.808L429.009 552.437L428.659 552.61L423.333 541.853L426.303 540.382Z" fill="#EFEFEF"/>
<path d="M404.446 550.086C405.601 549.608 406.656 549.419 407.611 549.519C408.571 549.629 409.398 549.952 410.093 550.488C410.783 551.036 411.303 551.735 411.654 552.582C411.981 553.371 412.129 554.122 412.097 554.835C412.065 555.547 411.86 556.224 411.483 556.865C411.11 557.516 410.577 558.137 409.886 558.728C409.276 559.217 408.566 559.72 407.753 560.237C406.941 560.754 406.082 561.279 405.175 561.813C404.258 562.35 403.351 562.884 402.454 563.413L403.3 562.352C403.787 563.583 404.422 564.38 405.204 564.744C405.981 565.122 407.019 565.041 408.319 564.503C409.137 564.164 409.809 563.661 410.333 562.992C410.861 562.334 411.078 561.511 410.985 560.523L414.159 560.223C414.329 561.721 414.038 563.088 413.286 564.324C412.525 565.564 411.245 566.556 409.444 567.302C408.049 567.88 406.736 568.142 405.506 568.087C404.271 568.046 403.2 567.61 402.292 566.78C401.83 566.373 401.453 565.898 401.16 565.354C400.867 564.81 400.585 564.21 400.314 563.556L396.336 553.952L399.008 552.846L400.485 556.413L399.774 556.166C399.924 554.705 400.379 553.474 401.137 552.472C401.889 551.483 402.992 550.688 404.446 550.086ZM404.934 552.777C404.077 553.132 403.403 553.586 402.91 554.14C402.422 554.703 402.087 555.298 401.907 555.925C401.727 556.553 401.685 557.145 401.781 557.703C401.809 558.233 401.932 558.791 402.152 559.376C402.363 559.966 402.54 560.434 402.683 560.781L401.552 560.826C402.445 560.287 403.258 559.798 403.99 559.36C404.722 558.921 405.381 558.513 405.969 558.134C406.551 557.769 407.055 557.408 407.482 557.05C407.837 556.735 408.135 556.408 408.379 556.07C408.613 555.736 408.766 555.385 408.839 555.017C408.903 554.652 408.849 554.263 408.677 553.849C408.51 553.444 408.253 553.111 407.907 552.848C407.566 552.595 407.146 552.453 406.648 552.422C406.151 552.391 405.579 552.51 404.934 552.777Z" fill="#EFEFEF"/>
<path d="M381.799 558.942L384.45 566.807C384.659 567.429 384.928 568.047 385.257 568.663C385.578 569.291 385.982 569.836 386.468 570.299C386.944 570.766 387.507 571.082 388.157 571.248C388.797 571.417 389.541 571.358 390.39 571.072C390.943 570.886 391.435 570.615 391.866 570.261C392.299 569.917 392.636 569.48 392.874 568.948C393.103 568.42 393.215 567.789 393.209 567.054C393.193 566.322 393.026 565.483 392.706 564.535L394.876 564.612C395.366 566.063 395.525 567.433 395.355 568.722C395.188 570.021 394.701 571.153 393.893 572.118C393.086 573.083 391.962 573.808 390.52 574.294C389.414 574.667 388.426 574.802 387.556 574.7C386.685 574.597 385.92 574.333 385.26 573.907C384.593 573.494 384.021 572.988 383.544 572.39C383.068 571.792 382.675 571.182 382.367 570.56C382.058 569.939 381.821 569.381 381.654 568.887L378.659 560L381.799 558.942ZM393.04 555.152L398.433 571.149L395.663 572.082L394.105 567.461L393.735 567.586L389.9 556.211L393.04 555.152Z" fill="#EFEFEF"/>
<path d="M368.444 562.278C370.43 561.757 372.162 561.77 373.642 562.318C375.122 562.866 376.213 563.9 376.914 565.418L373.81 566.767C373.386 565.973 372.746 565.425 371.891 565.122C371.028 564.832 370.052 564.829 368.964 565.116C367.976 565.375 367.258 565.779 366.81 566.328C366.351 566.88 366.215 567.508 366.4 568.214C366.509 568.627 366.697 568.933 366.965 569.132C367.225 569.344 367.698 569.483 368.384 569.551C369.07 569.618 370.098 569.655 371.468 569.661C372.964 569.656 374.179 569.751 375.114 569.947C376.042 570.156 376.755 570.491 377.253 570.953C377.744 571.427 378.094 572.062 378.304 572.858C378.563 573.846 378.528 574.776 378.197 575.65C377.867 576.523 377.281 577.286 376.439 577.938C375.588 578.593 374.522 579.089 373.242 579.425C371.993 579.753 370.827 579.85 369.746 579.714C368.666 579.578 367.727 579.226 366.932 578.66C366.139 578.103 365.555 577.357 365.18 576.421L368.26 574.981C368.578 575.738 369.108 576.261 369.852 576.55C370.596 576.84 371.472 576.873 372.481 576.651C373.449 576.44 374.182 576.075 374.682 575.556C375.184 575.047 375.352 574.48 375.188 573.855C375.093 573.492 374.901 573.214 374.613 573.02C374.315 572.829 373.808 572.704 373.092 572.644C372.376 572.585 371.336 572.562 369.971 572.576C368.508 572.583 367.316 572.476 366.396 572.255C365.479 572.044 364.77 571.686 364.271 571.181C363.765 570.689 363.402 570.025 363.182 569.189C362.758 567.576 363.015 566.157 363.953 564.93C364.881 563.705 366.378 562.822 368.444 562.278Z" fill="#EFEFEF"/>
<path d="M347.366 567.391L348.952 575.538C349.078 576.182 349.262 576.831 349.506 577.484C349.742 578.149 350.07 578.744 350.49 579.267C350.9 579.792 351.417 580.18 352.039 580.431C352.65 580.683 353.396 580.724 354.276 580.552C354.848 580.441 355.372 580.238 355.845 579.944C356.321 579.661 356.712 579.271 357.019 578.776C357.316 578.283 357.51 577.672 357.602 576.943C357.683 576.216 357.628 575.361 357.437 574.379L359.578 574.743C359.871 576.246 359.847 577.626 359.508 578.881C359.17 580.146 358.537 581.203 357.609 582.053C356.681 582.902 355.471 583.473 353.977 583.763C352.832 583.986 351.834 583.99 350.985 583.773C350.136 583.556 349.413 583.192 348.815 582.683C348.208 582.185 347.708 581.608 347.315 580.952C346.922 580.296 346.614 579.64 346.39 578.983C346.167 578.325 346.005 577.741 345.906 577.23L344.113 568.024L347.366 567.391ZM359.011 565.124L363.312 587.217L360.443 587.775L358.122 575.854L357.739 575.929L355.758 565.757L359.011 565.124Z" fill="#EFEFEF"/>
<path d="M335.406 568.729C336.647 568.575 337.714 568.674 338.608 569.025C339.503 569.387 340.215 569.918 340.743 570.619C341.262 571.332 341.577 572.143 341.69 573.053C341.795 573.901 341.738 574.664 341.517 575.342C341.297 576.021 340.919 576.619 340.385 577.137C339.852 577.665 339.174 578.121 338.35 578.507C337.632 578.816 336.813 579.112 335.893 579.394C334.972 579.676 334.004 579.954 332.988 580.227C331.961 580.501 330.945 580.774 329.939 581.046L331.037 580.248C331.179 581.564 331.579 582.502 332.236 583.061C332.885 583.631 333.907 583.83 335.303 583.657C336.182 583.548 336.963 583.241 337.646 582.737C338.33 582.242 338.759 581.507 338.931 580.53L342.072 581.085C341.836 582.574 341.192 583.814 340.139 584.806C339.075 585.799 337.577 586.415 335.643 586.655C334.143 586.84 332.808 586.743 331.638 586.363C330.458 585.995 329.541 585.29 328.887 584.247C328.55 583.733 328.313 583.174 328.175 582.572C328.038 581.969 327.925 581.316 327.838 580.613L326.56 570.298L329.429 569.942L329.904 573.774L329.284 573.347C329.818 571.978 330.584 570.912 331.581 570.148C332.569 569.396 333.844 568.923 335.406 568.729ZM335.16 571.453C334.24 571.567 333.469 571.825 332.847 572.228C332.226 572.641 331.745 573.125 331.405 573.682C331.064 574.239 330.866 574.799 330.81 575.362C330.696 575.881 330.667 576.451 330.723 577.074C330.769 577.698 330.815 578.197 330.861 578.569L329.758 578.312C330.762 578.03 331.676 577.775 332.498 577.547C333.32 577.319 334.065 577.101 334.732 576.892C335.39 576.695 335.973 576.481 336.48 576.25C336.905 576.04 337.28 575.805 337.605 575.544C337.919 575.284 338.16 574.987 338.329 574.651C338.487 574.316 338.538 573.927 338.483 573.482C338.429 573.048 338.271 572.658 338.008 572.313C337.745 571.977 337.379 571.729 336.907 571.567C336.436 571.405 335.853 571.367 335.16 571.453Z" fill="#EFEFEF"/>
<path d="M311.228 571.316L311.709 579.602C311.747 580.257 311.843 580.925 311.997 581.605C312.141 582.296 312.387 582.929 312.733 583.504C313.069 584.079 313.529 584.533 314.111 584.864C314.684 585.196 315.417 585.337 316.312 585.285C316.895 585.251 317.44 585.12 317.949 584.892C318.458 584.675 318.898 584.342 319.269 583.892C319.629 583.443 319.903 582.864 320.092 582.154C320.27 581.444 320.33 580.59 320.272 579.591L322.345 580.238C322.433 581.767 322.225 583.131 321.721 584.329C321.217 585.538 320.448 586.501 319.414 587.219C318.381 587.936 317.105 588.339 315.586 588.427C314.421 588.494 313.432 588.364 312.62 588.035C311.808 587.706 311.139 587.249 310.615 586.664C310.08 586.089 309.662 585.451 309.361 584.748C309.059 584.045 308.842 583.353 308.708 582.672C308.575 581.991 308.493 581.391 308.463 580.87L307.92 571.508L311.228 571.316ZM323.072 570.63L324.048 587.482L321.13 587.652L320.848 582.783L320.458 582.806L319.764 570.822L323.072 570.63Z" fill="#EFEFEF"/>
<path d="M296.203 571.034C297.776 571.058 299.13 571.47 300.264 572.269C301.387 573.068 302.251 574.144 302.856 575.498C303.45 576.862 303.733 578.388 303.707 580.076C303.681 581.774 303.345 583.285 302.699 584.609C302.054 585.943 301.152 586.987 299.994 587.741C298.825 588.504 297.449 588.874 295.865 588.849C294.271 588.825 292.938 588.413 291.867 587.615C290.785 586.827 289.978 585.757 289.447 584.404C288.905 583.052 288.647 581.531 288.673 579.843C288.699 578.156 289.004 576.644 289.587 575.309C290.17 573.973 291.015 572.918 292.121 572.143C293.227 571.379 294.588 571.009 296.203 571.034ZM295.704 573.981C294.631 573.964 293.752 574.206 293.067 574.706C292.382 575.206 291.876 575.902 291.549 576.793C291.223 577.684 291.051 578.713 291.033 579.88C291.015 581.047 291.16 582.081 291.469 582.982C291.768 583.883 292.247 584.588 292.906 585.099C293.555 585.609 294.39 585.872 295.411 585.888C296.494 585.904 297.389 585.653 298.096 585.132C298.802 584.611 299.334 583.906 299.691 583.015C300.039 582.124 300.221 581.126 300.238 580.022C300.255 578.907 300.104 577.894 299.785 576.982C299.455 576.081 298.955 575.359 298.286 574.818C297.607 574.276 296.746 573.997 295.704 573.981ZM291.163 571.425L290.976 583.568L291.351 583.574L291.191 593.936L287.909 593.885L288.256 571.38L291.163 571.425Z" fill="#EFEFEF"/>
<path d="M276.336 570.068C278.008 570.204 279.448 570.687 280.656 571.516C281.853 572.356 282.751 573.459 283.351 574.825C283.94 576.2 284.164 577.755 284.023 579.49C283.874 581.328 283.402 582.894 282.607 584.189C281.801 585.483 280.751 586.448 279.455 587.085C278.159 587.722 276.691 587.974 275.05 587.841C273.336 587.702 271.909 587.183 270.769 586.286C269.629 585.399 268.822 584.199 268.349 582.686C267.865 581.173 267.767 579.414 268.056 577.409L271.312 577.674L271.216 578.858C271.078 580.812 271.335 582.286 271.986 583.28C272.626 584.273 273.684 584.829 275.159 584.949C276.79 585.081 278.057 584.666 278.961 583.705C279.865 582.743 280.396 581.291 280.553 579.349C280.703 577.5 280.409 576.034 279.672 574.949C278.933 573.875 277.79 573.275 276.242 573.15C275.224 573.067 274.328 573.224 273.554 573.622C272.768 574.028 272.132 574.646 271.647 575.474L268.536 574.202C269.312 572.749 270.399 571.661 271.796 570.938C273.192 570.226 274.705 569.936 276.336 570.068ZM281.687 578.516L281.481 581.055L269.47 580.08L269.676 577.541L281.687 578.516Z" fill="#EFEFEF"/>
<path d="M265.158 569.36L262.157 592.14L258.918 591.713L261.919 568.933L265.158 569.36Z" fill="#EFEFEF"/>
<path d="M251.051 567.341L239.176 587.813L234.576 586.826L232.147 563.285L235.463 563.996L237.74 585.491L236.915 585.314L247.735 566.63L251.051 567.341ZM246.271 571.511L245.629 574.507L234.136 572.04L234.779 569.045L246.271 571.511Z" fill="#EFEFEF"/>
<path d="M222.533 559.944C224.084 560.396 225.275 561.15 226.107 562.207C226.936 563.273 227.432 564.531 227.596 565.978C227.76 567.426 227.606 568.961 227.134 570.581C226.662 572.202 225.972 573.58 225.066 574.716C224.15 575.849 223.064 576.635 221.807 577.072C220.538 577.516 219.139 577.515 217.608 577.069C216.087 576.626 214.886 575.868 214.004 574.797C213.11 573.733 212.55 572.469 212.326 571.003C212.099 569.548 212.223 568.005 212.698 566.374C213.171 564.754 213.896 563.38 214.876 562.255C215.842 561.136 216.985 560.362 218.304 559.933C219.613 559.5 221.023 559.504 222.533 559.944ZM230.025 562.616L223.728 584.225L220.576 583.306L223.476 573.357L223.836 573.462L227.234 561.803L230.025 562.616ZM222.142 562.907C221.142 562.616 220.242 562.63 219.443 562.951C218.634 563.269 217.944 563.811 217.373 564.578C216.789 565.352 216.342 566.275 216.03 567.345C215.721 568.405 215.606 569.414 215.685 570.371C215.755 571.324 216.05 572.154 216.572 572.859C217.093 573.565 217.874 574.069 218.915 574.373C219.895 574.658 220.775 574.654 221.556 574.361C222.326 574.064 222.991 573.531 223.552 572.761C224.103 571.988 224.542 571.041 224.868 569.921C225.195 568.801 225.333 567.766 225.284 566.819C225.235 565.871 224.956 565.057 224.449 564.377C223.941 563.698 223.172 563.208 222.142 562.907Z" fill="#EFEFEF"/>
<path d="M188.889 548.078L179.28 568.431L167.224 562.739L168.618 559.785L177.721 564.083L180.43 558.344L173.024 554.847L174.425 551.879L181.831 555.376L185.935 546.683L188.889 548.078Z" fill="#EFEFEF"/>
<path d="M164.612 558.071L163.131 560.877L160.241 559.352L161.722 556.546L164.612 558.071ZM173.782 540.695L165.903 555.624L163.014 554.099L170.893 539.17L173.782 540.695Z" fill="#EFEFEF"/>
<path d="M156.821 531.069L152.573 538.199C152.237 538.763 151.942 539.37 151.689 540.02C151.421 540.673 151.269 541.334 151.234 542.005C151.19 542.67 151.316 543.303 151.613 543.904C151.9 544.5 152.429 545.027 153.199 545.486C153.7 545.785 154.226 545.982 154.775 546.079C155.318 546.184 155.869 546.155 156.428 545.99C156.978 545.821 157.53 545.495 158.084 545.012C158.63 544.524 159.158 543.851 159.67 542.991L161.024 544.689C160.24 546.005 159.303 547.018 158.214 547.727C157.119 548.445 155.942 548.812 154.684 548.827C153.426 548.841 152.143 548.459 150.836 547.681C149.834 547.083 149.088 546.421 148.6 545.693C148.112 544.966 147.814 544.213 147.708 543.434C147.588 542.659 147.6 541.895 147.744 541.144C147.888 540.393 148.096 539.698 148.367 539.06C148.639 538.421 148.908 537.878 149.174 537.43L153.974 529.373L156.821 531.069ZM167.013 537.141L158.373 551.643L155.862 550.147L158.358 545.958L158.022 545.758L164.166 535.445L167.013 537.141Z" fill="#EFEFEF"/>
<path d="M147.039 524.115C148.068 524.825 148.801 525.608 149.236 526.464C149.665 527.329 149.844 528.199 149.772 529.074C149.687 529.951 149.384 530.767 148.863 531.522C148.379 532.226 147.829 532.758 147.213 533.119C146.598 533.479 145.918 533.675 145.175 533.707C144.426 533.748 143.615 533.639 142.744 533.38C142.002 533.134 141.193 532.811 140.318 532.41C139.442 532.01 138.534 531.574 137.593 531.103C136.644 530.626 135.703 530.155 134.771 529.689L136.121 529.823C135.353 530.901 135.029 531.867 135.149 532.721C135.255 533.579 135.886 534.406 137.045 535.204C137.774 535.707 138.562 535.997 139.407 536.073C140.247 536.158 141.056 535.893 141.834 535.278L143.812 537.779C142.647 538.736 141.342 539.234 139.896 539.276C138.442 539.311 136.912 538.776 135.308 537.671C134.063 536.814 133.13 535.854 132.507 534.792C131.87 533.734 131.654 532.597 131.857 531.383C131.947 530.775 132.141 530.2 132.439 529.658C132.736 529.116 133.086 528.554 133.488 527.97L139.385 519.411L141.766 521.052L139.576 524.231L139.396 523.5C140.704 522.832 141.984 522.543 143.237 522.635C144.476 522.729 145.743 523.222 147.039 524.115ZM145.046 525.988C144.282 525.462 143.534 525.143 142.802 525.03C142.064 524.926 141.382 524.969 140.758 525.159C140.134 525.349 139.613 525.636 139.197 526.02C138.767 526.331 138.367 526.738 137.995 527.241C137.614 527.739 137.318 528.142 137.105 528.45L136.451 527.526C137.389 527.982 138.241 528.399 139.007 528.774C139.773 529.15 140.475 529.482 141.112 529.769C141.735 530.059 142.313 530.286 142.845 530.45C143.302 530.576 143.739 530.649 144.155 530.67C144.562 530.685 144.941 530.623 145.289 530.483C145.63 530.338 145.927 530.081 146.181 529.712C146.43 529.352 146.57 528.955 146.603 528.522C146.63 528.098 146.52 527.668 146.276 527.234C146.031 526.799 145.621 526.384 145.046 525.988Z" fill="#EFEFEF"/>
<path d="M127.344 510.009L122.197 516.519C121.79 517.034 121.418 517.597 121.081 518.208C120.73 518.82 120.493 519.456 120.37 520.116C120.238 520.769 120.28 521.413 120.495 522.048C120.702 522.677 121.157 523.269 121.86 523.825C122.318 524.187 122.813 524.452 123.344 524.62C123.869 524.796 124.419 524.839 124.995 524.749C125.562 524.653 126.153 524.403 126.765 523.997C127.37 523.585 127.983 522.987 128.603 522.202L129.722 524.063C128.772 525.265 127.71 526.146 126.537 526.706C125.357 527.274 124.142 527.483 122.893 527.332C121.644 527.181 120.423 526.634 119.23 525.69C118.314 524.967 117.662 524.212 117.274 523.427C116.885 522.641 116.689 521.855 116.687 521.069C116.669 520.285 116.781 519.53 117.023 518.805C117.264 518.079 117.561 517.417 117.914 516.82C118.267 516.222 118.606 515.719 118.929 515.31L124.745 507.954L127.344 510.009ZM136.65 517.367L126.181 530.609L123.888 528.796L126.912 524.97L126.606 524.728L134.051 515.312L136.65 517.367Z" fill="#EFEFEF"/>
<path d="M117.26 500.65C118.783 502.026 119.721 503.483 120.072 505.022C120.423 506.561 120.155 508.039 119.269 509.456L116.44 507.597C116.872 506.808 116.981 505.972 116.767 505.091C116.537 504.21 116.005 503.392 115.17 502.638C114.412 501.953 113.681 501.574 112.976 501.499C112.264 501.417 111.663 501.647 111.174 502.188C110.888 502.505 110.735 502.83 110.715 503.163C110.68 503.497 110.822 503.969 111.141 504.58C111.46 505.191 111.992 506.072 112.736 507.222C113.56 508.471 114.145 509.54 114.493 510.43C114.826 511.32 114.936 512.101 114.823 512.77C114.694 513.441 114.354 514.082 113.803 514.693C113.118 515.45 112.32 515.93 111.408 516.131C110.496 516.333 109.537 516.26 108.531 515.913C107.517 515.559 106.519 514.938 105.537 514.051C104.578 513.185 103.859 512.263 103.382 511.283C102.904 510.304 102.684 509.327 102.723 508.351C102.755 507.383 103.06 506.486 103.637 505.66L106.528 507.449C106.069 508.129 105.922 508.86 106.087 509.641C106.252 510.422 106.703 511.173 107.441 511.896C108.148 512.59 108.855 513.004 109.563 513.138C110.263 513.279 110.83 513.11 111.263 512.631C111.515 512.352 111.642 512.04 111.647 511.693C111.644 511.339 111.471 510.846 111.129 510.214C110.787 509.582 110.237 508.699 109.478 507.564C108.671 506.344 108.108 505.288 107.79 504.397C107.464 503.513 107.376 502.725 107.525 502.031C107.66 501.338 108.017 500.671 108.596 500.029C109.714 498.791 111.043 498.229 112.583 498.343C114.116 498.449 115.674 499.218 117.26 500.65Z" fill="#EFEFEF"/>
<path d="M101.45 485.793L95.497 491.576C95.0261 492.034 94.5839 492.543 94.1705 493.104C93.7423 493.666 93.4241 494.265 93.2158 494.903C93.0003 495.534 92.9578 496.178 93.0883 496.836C93.2114 497.486 93.5852 498.133 94.2096 498.776C94.6162 499.194 95.072 499.521 95.577 499.757C96.0746 500 96.6145 500.115 97.1969 500.101C97.7719 500.08 98.3897 499.908 99.0502 499.586C99.7035 499.257 100.389 498.744 101.106 498.047L101.973 500.038C100.874 501.105 99.7065 501.84 98.47 502.242C97.2261 502.651 95.9948 502.7 94.7761 502.387C93.5574 502.075 92.4181 501.373 91.3581 500.282C90.5449 499.444 89.997 498.611 89.7143 497.782C89.4316 496.952 89.3401 496.148 89.4399 495.368C89.5249 494.588 89.7345 493.854 90.0688 493.166C90.403 492.479 90.7841 491.861 91.2121 491.315C91.64 490.769 92.0409 490.314 92.4146 489.951L99.1416 483.416L101.45 485.793ZM109.716 494.303L93.5714 509.986L91.5349 507.889L100.246 499.427L99.9741 499.147L107.407 491.926L109.716 494.303Z" fill="#EFEFEF"/>
<path d="M93.8556 476.595C94.6663 477.547 95.1707 478.493 95.3689 479.433C95.5591 480.38 95.5066 481.266 95.2112 482.093C94.9012 482.918 94.3971 483.628 93.6989 484.222C93.0484 484.776 92.3793 485.148 91.6915 485.336C91.0037 485.525 90.2967 485.539 89.5705 485.377C88.8363 485.222 88.0818 484.907 87.3069 484.431C86.6538 484.001 85.9565 483.48 85.2147 482.866C84.473 482.252 83.7088 481.596 82.9222 480.897C82.1287 480.19 81.3421 479.492 80.5622 478.801L81.8321 479.28C80.8111 480.122 80.2478 480.971 80.1422 481.827C80.0219 482.683 80.4178 483.646 81.3299 484.717C81.9041 485.391 82.5898 485.875 83.3868 486.168C84.1758 486.467 85.0259 486.421 85.937 486.028L87.1991 488.957C85.8262 489.579 84.4361 489.722 83.0289 489.388C81.615 489.045 80.2763 488.132 79.013 486.649C78.0334 485.498 77.3804 484.33 77.0542 483.143C76.7133 481.955 76.7983 480.802 77.3094 479.682C77.5542 479.118 77.8904 478.613 78.3179 478.166C78.7454 477.72 79.2289 477.267 79.7683 476.808L87.6817 470.069L89.5565 472.27L86.6172 474.773L86.6332 474.021C88.0696 473.714 89.381 473.768 90.5676 474.181C91.7394 474.592 92.8354 475.397 93.8556 476.595ZM91.4458 477.888C90.8445 477.182 90.2047 476.68 89.5264 476.381C88.8401 476.09 88.1709 475.955 87.5187 475.976C86.8665 475.998 86.2896 476.14 85.7881 476.403C85.2924 476.593 84.7999 476.882 84.3104 477.272C83.8141 477.653 83.4232 477.966 83.1376 478.209L82.746 477.146C83.5338 477.83 84.2489 478.453 84.8914 479.015C85.5338 479.576 86.1256 480.078 86.6667 480.521C87.1931 480.962 87.692 481.331 88.1635 481.628C88.573 481.867 88.9759 482.051 89.3722 482.179C89.7617 482.299 90.1431 482.337 90.5162 482.293C90.8825 482.241 91.2363 482.07 91.5774 481.779C91.9106 481.495 92.1491 481.149 92.2928 480.739C92.4286 480.336 92.4345 479.893 92.3106 479.41C92.1867 478.927 91.8984 478.419 91.4458 477.888Z" fill="#EFEFEF"/>
<path d="M78.3208 457.619L71.6448 462.55C71.1168 462.94 70.6102 463.385 70.1252 463.886C69.6255 464.385 69.2297 464.936 68.9377 465.541C68.6394 466.137 68.5108 466.769 68.5518 467.438C68.5865 468.099 68.8701 468.79 69.4026 469.511C69.7493 469.98 70.157 470.366 70.6258 470.667C71.0862 470.975 71.6059 471.161 72.1848 471.226C72.7575 471.282 73.3927 471.195 74.0905 470.965C74.7821 470.726 75.5302 470.309 76.3348 469.715L76.926 471.804C75.6939 472.714 74.4382 473.286 73.159 473.518C71.8714 473.757 70.6447 473.639 69.479 473.166C68.3133 472.693 67.2785 471.844 66.3746 470.621C65.6812 469.682 65.2502 468.783 65.0814 467.923C64.9126 467.063 64.93 466.253 65.1335 465.494C65.3225 464.733 65.6287 464.034 66.0523 463.397C66.4758 462.76 66.9363 462.2 67.4338 461.716C67.9313 461.232 68.3895 460.835 68.8086 460.525L76.352 454.953L78.3208 457.619ZM85.3692 467.161L71.7911 477.191L70.0545 474.84L73.9771 471.942L73.7449 471.628L83.4004 464.496L85.3692 467.161Z" fill="#EFEFEF"/>
<path d="M70.9619 445.86C71.8066 447.187 72.2069 448.544 72.1628 449.931C72.1131 451.309 71.6891 452.622 70.8906 453.871C70.0777 455.117 68.9592 456.193 67.535 457.099C66.102 458.011 64.655 458.561 63.1941 458.75C61.7244 458.944 60.3566 458.765 59.0907 458.211C57.8105 457.655 56.7452 456.709 55.895 455.372C55.0391 454.027 54.65 452.688 54.7276 451.354C54.7909 450.017 55.2413 448.755 56.0789 447.567C56.911 446.371 58.0391 445.319 59.4633 444.413C60.8875 443.507 62.3177 442.931 63.7539 442.684C65.19 442.437 66.5359 442.562 67.7913 443.06C69.038 443.564 70.0949 444.497 70.9619 445.86ZM68.2262 447.063C67.6501 446.158 66.9648 445.556 66.1704 445.259C65.3761 444.961 64.5169 444.921 63.5931 445.139C62.6692 445.356 61.7149 445.778 60.7303 446.405C59.7457 447.031 58.962 447.721 58.3793 448.475C57.7911 449.22 57.465 450.008 57.401 450.839C57.3314 451.661 57.5707 452.503 58.1188 453.365C58.7006 454.279 59.403 454.888 60.2262 455.192C61.0493 455.495 61.9312 455.552 62.8719 455.361C63.8069 455.161 64.7404 454.765 65.6723 454.172C66.613 453.573 67.3763 452.89 67.9621 452.122C68.5336 451.351 68.8617 450.537 68.9465 449.68C69.0257 448.815 68.7856 447.942 68.2262 447.063ZM67.8646 441.865L57.6181 448.385L57.8195 448.701L49.0764 454.264L47.3144 451.495L66.3039 439.412L67.8646 441.865Z" fill="#EFEFEF"/>
<path d="M61.0307 429.056C61.8356 430.528 62.223 431.997 62.193 433.462C62.1488 434.923 61.7207 436.28 60.9086 437.531C60.0825 438.779 58.906 439.82 57.3792 440.655C55.761 441.54 54.1926 442.005 52.6742 442.052C51.1507 442.089 49.7669 441.742 48.5229 441.009C47.2788 440.276 46.2619 439.187 45.472 437.742C44.6471 436.234 44.2967 434.757 44.4207 433.311C44.5356 431.871 45.0952 430.537 46.0993 429.311C47.0984 428.076 48.5148 427.028 50.3485 426.168L51.9158 429.034L50.8735 429.604C49.1647 430.563 48.0739 431.587 47.601 432.677C47.1231 433.757 47.2391 434.947 47.949 436.245C48.7339 437.681 49.7764 438.512 51.0765 438.739C52.3765 438.967 53.8814 438.613 55.591 437.678C57.2184 436.788 58.2826 435.737 58.7836 434.525C59.2755 433.317 59.149 432.033 58.4041 430.67C57.9142 429.774 57.2906 429.112 56.5334 428.683C55.762 428.249 54.8969 428.057 53.9381 428.107L53.2922 424.808C54.9328 424.659 56.4388 424.97 57.8101 425.74C59.1723 426.515 60.2458 427.621 61.0307 429.056ZM56.9101 438.168L54.6747 439.39L48.893 428.817L51.1284 427.594L56.9101 438.168Z" fill="#EFEFEF"/>
<path d="M55.2754 418.936L34.5719 428.9L33.1552 425.957L53.8587 415.992L55.2754 418.936Z" fill="#EFEFEF"/>
<path d="M49.2282 406.11L25.5941 407.346L23.9083 402.954L42.3003 388.059L43.5156 391.226L26.7551 404.875L26.4526 404.087L48.0129 402.944L49.2282 406.11ZM43.1247 404.384L40.2646 405.482L36.053 394.509L38.9131 393.411L43.1247 404.384Z" fill="#EFEFEF"/>
<path d="M39.8445 378.367C40.314 379.912 40.3339 381.322 39.9041 382.596C39.4644 383.873 38.6832 384.976 37.5606 385.905C36.438 386.835 35.0691 387.544 33.454 388.035C31.8388 388.526 30.3078 388.702 28.8611 388.565C27.4114 388.417 26.1602 387.937 25.1074 387.124C24.0416 386.304 23.277 385.132 22.8135 383.606C22.3532 382.091 22.3303 380.671 22.7449 379.347C23.1465 378.016 23.8995 376.856 25.0039 375.868C26.0984 374.882 27.4582 374.142 29.0833 373.648C30.6985 373.157 32.245 373.014 33.7229 373.219C35.1878 373.416 36.4607 373.95 37.5416 374.819C38.6195 375.679 39.3872 376.861 39.8445 378.367ZM41.7038 386.101L20.1681 392.643L19.214 389.503L29.1294 386.49L29.2385 386.849L40.8588 383.319L41.7038 386.101ZM37.1497 379.659C36.8468 378.662 36.3427 377.917 35.6373 377.423C34.929 376.92 34.0976 376.639 33.1432 376.58C32.1758 376.515 31.1588 376.644 30.0919 376.968C29.0351 377.289 28.1279 377.745 27.3704 378.334C26.6099 378.914 26.0769 379.615 25.7713 380.437C25.4658 381.26 25.4705 382.189 25.7855 383.226C26.0823 384.203 26.5669 384.938 27.2394 385.431C27.9088 385.914 28.7191 386.179 29.6705 386.228C30.6188 386.266 31.6513 386.116 32.7679 385.777C33.8846 385.438 34.8262 384.988 35.5928 384.429C36.3594 383.869 36.8885 383.191 37.1802 382.394C37.4718 381.598 37.4617 380.686 37.1497 379.659Z" fill="#EFEFEF"/>
<path d="M31.2789 343.797L8.98731 346.908L7.1443 333.703L10.3797 333.252L11.7711 343.221L18.0561 342.344L16.9239 334.232L20.1748 333.778L21.307 341.89L30.8273 340.561L31.2789 343.797Z" fill="#EFEFEF"/>
<path d="M9.56154 328.66L6.40217 328.953L6.10027 325.701L9.25964 325.407L9.56154 328.66ZM29.1248 326.844L12.3163 328.404L12.0144 325.152L28.8229 323.592L29.1248 326.844Z" fill="#EFEFEF"/>
<path d="M27.8637 307.308L19.5714 307.66C18.9156 307.688 18.2465 307.774 17.5642 307.918C16.8711 308.051 16.2345 308.287 15.6544 308.624C15.0738 308.952 14.6132 309.404 14.2727 309.982C13.9318 310.549 13.7803 311.28 13.8184 312.175C13.8431 312.758 13.9655 313.306 14.1854 313.818C14.3949 314.331 14.7215 314.776 15.1651 315.153C15.6083 315.52 16.1835 315.804 16.8908 316.003C17.5976 316.192 18.4507 316.265 19.4502 316.223L18.7712 318.285C17.2408 318.35 15.8805 318.121 14.6901 317.598C13.4894 317.076 12.5383 316.292 11.8369 315.248C11.1354 314.203 10.7524 312.921 10.6879 311.401C10.6383 310.235 10.7842 309.248 11.1254 308.441C11.4665 307.634 11.9338 306.973 12.5273 306.458C13.1099 305.932 13.7549 305.524 14.4621 305.233C15.1694 304.943 15.8646 304.736 16.5478 304.613C17.2309 304.49 17.8328 304.417 18.3533 304.395L27.723 303.997L27.8637 307.308ZM28.3671 319.161L11.5016 319.877L11.3775 316.957L16.2498 316.75L16.2332 316.359L28.2265 315.85L28.3671 319.161Z" fill="#EFEFEF"/>
<path d="M28.3028 294.224C28.269 295.474 28.0116 296.514 27.5304 297.346C27.0389 298.177 26.407 298.801 25.6348 299.218C24.8524 299.624 24.0029 299.815 23.0863 299.79C22.2322 299.767 21.4863 299.595 20.8486 299.276C20.2109 298.956 19.6762 298.494 19.2443 297.888C18.8021 297.282 18.452 296.543 18.1941 295.67C17.9956 294.915 17.8259 294.06 17.6848 293.108C17.5438 292.156 17.4144 291.157 17.2967 290.111C17.1793 289.055 17.0616 288.009 16.9437 286.974L17.5678 288.18C16.2455 288.123 15.2588 288.378 14.6076 288.944C13.9463 289.499 13.5966 290.48 13.5586 291.886C13.5347 292.772 13.7211 293.59 14.1178 294.341C14.504 295.091 15.1671 295.625 16.1072 295.942L15.0873 298.964C13.6507 298.508 12.5211 297.685 11.6985 296.496C10.8762 295.295 10.4913 293.721 10.5439 291.774C10.5848 290.263 10.8806 288.958 11.4316 287.857C11.9724 286.746 12.8071 285.945 13.9357 285.455C14.4951 285.199 15.0829 285.048 15.6992 285.002C16.3155 284.956 16.9777 284.943 17.6861 284.962L28.0764 285.242L27.9983 288.133L24.139 288.029L24.6542 287.48C25.927 288.213 26.8664 289.129 27.4726 290.23C28.0686 291.319 28.3453 292.651 28.3028 294.224ZM25.6466 293.573C25.6717 292.646 25.5317 291.845 25.2268 291.17C24.9115 290.494 24.5042 289.946 24.0047 289.526C23.5053 289.106 22.9813 288.826 22.4326 288.686C21.9374 288.496 21.3776 288.382 20.7531 288.344C20.129 288.296 19.6294 288.267 19.2544 288.256L19.6738 287.204C19.8021 288.24 19.9174 289.181 20.0196 290.028C20.1218 290.875 20.2261 291.644 20.3325 292.335C20.4288 293.015 20.5531 293.623 20.7054 294.159C20.8496 294.611 21.0262 295.017 21.2354 295.377C21.4449 295.727 21.703 296.01 22.0099 296.227C22.317 296.433 22.6945 296.543 23.1425 296.555C23.5799 296.567 23.9891 296.468 24.37 296.26C24.7405 296.051 25.0412 295.725 25.272 295.283C25.5029 294.841 25.6277 294.271 25.6466 293.573Z" fill="#EFEFEF"/>
<path d="M29.3386 270.156L21.0744 269.389C20.4208 269.328 19.7462 269.323 19.0509 269.373C18.3461 269.413 17.6835 269.561 17.0632 269.817C16.4439 270.063 15.9266 270.449 15.5115 270.976C15.0973 271.492 14.8488 272.196 14.766 273.089C14.7121 273.67 14.7596 274.229 14.9086 274.766C15.0472 275.302 15.3109 275.787 15.6997 276.221C16.0895 276.644 16.6213 277.002 17.2953 277.295C17.9703 277.577 18.8058 277.765 19.8018 277.857L18.8514 279.81C17.3262 279.668 16.009 279.258 14.8999 278.579C13.7805 277.9 12.9435 276.995 12.389 275.866C11.8345 274.737 11.6276 273.415 11.7682 271.9C11.8761 270.738 12.1533 269.78 12.6001 269.026C13.0468 268.272 13.5988 267.68 14.2563 267.249C14.9043 266.807 15.5983 266.489 16.3383 266.296C17.0783 266.103 17.795 265.992 18.4884 265.962C19.1819 265.932 19.788 265.941 20.3068 265.99L29.6448 266.856L29.3386 270.156ZM28.2422 281.968L11.4337 280.408L11.7039 277.498L16.5596 277.949L16.5958 277.559L28.5485 278.669L28.2422 281.968Z" fill="#EFEFEF"/>
<path d="M31.6401 256.568C31.3174 258.595 30.6069 260.176 29.5085 261.309C28.4101 262.443 27.025 263.024 25.3532 263.054L25.3696 259.669C26.2668 259.601 27.0265 259.237 27.6487 258.576C28.2622 257.903 28.6574 257.011 28.8343 255.9C28.9948 254.891 28.9143 254.071 28.5928 253.44C28.2729 252.798 27.7528 252.42 27.0325 252.305C26.6105 252.238 26.2546 252.287 25.9645 252.452C25.6659 252.605 25.3474 252.981 25.0091 253.582C24.6709 254.182 24.2228 255.108 23.6649 256.359C23.0668 257.73 22.4896 258.805 21.9333 259.581C21.3684 260.346 20.7743 260.863 20.151 261.133C19.5191 261.392 18.7966 261.456 17.9836 261.327C16.9751 261.166 16.1379 260.758 15.4718 260.104C14.8058 259.449 14.344 258.605 14.0863 257.572C13.8303 256.529 13.8063 255.354 14.0143 254.047C14.2175 252.771 14.5991 251.666 15.1593 250.732C15.7196 249.798 16.4193 249.081 17.2585 248.581C18.0874 248.08 19.0057 247.846 20.0132 247.88L20.0894 251.279C19.2687 251.265 18.5761 251.539 18.0114 252.104C17.4468 252.668 17.0628 253.456 16.8595 254.469C16.6627 255.44 16.7012 256.258 16.975 256.924C17.2386 257.589 17.6893 257.972 18.3274 258.073C18.6978 258.132 19.0297 258.069 19.323 257.884C19.6179 257.688 19.937 257.274 20.2802 256.643C20.6233 256.012 21.0636 255.069 21.6009 253.815C22.1838 252.472 22.7621 251.425 23.3356 250.672C23.8989 249.918 24.5119 249.414 25.1748 249.161C25.8289 248.895 26.5831 248.831 27.4372 248.967C29.0837 249.229 30.2794 250.036 31.0242 251.39C31.7706 252.732 31.9759 254.459 31.6401 256.568Z" fill="#EFEFEF"/>
<path d="M35.3873 235.421L27.2928 233.587C26.6526 233.442 25.9844 233.349 25.2883 233.309C24.5844 233.256 23.9083 233.317 23.2599 233.49C22.6139 233.654 22.0509 233.97 21.5708 234.438C21.0931 234.896 20.7552 235.562 20.5572 236.436C20.4282 237.005 20.4027 237.565 20.4807 238.117C20.5485 238.667 20.747 239.182 21.0761 239.662C21.4076 240.133 21.8885 240.557 22.5187 240.935C23.1512 241.303 23.9553 241.597 24.9309 241.818L23.7349 243.63C22.241 243.292 20.9883 242.714 19.9767 241.897C18.955 241.078 18.2426 240.073 17.8395 238.881C17.4365 237.689 17.403 236.351 17.7392 234.868C17.9971 233.73 18.3965 232.816 18.9374 232.126C19.4782 231.437 20.1025 230.921 20.8104 230.579C21.5103 230.225 22.2397 230 22.9985 229.905C23.7573 229.81 24.4824 229.793 25.1738 229.853C25.8653 229.914 26.4651 230.002 26.9732 230.117L36.1196 232.189L35.3873 235.421ZM32.7657 246.991L10.8145 242.017L11.4604 239.167L23.3049 241.85L23.3913 241.469L33.498 243.759L32.7657 246.991Z" fill="#EFEFEF"/>
<path d="M39.037 223.63C38.6781 224.828 38.1578 225.765 37.4764 226.442C36.7849 227.116 36.012 227.553 35.1577 227.754C34.2965 227.942 33.4266 227.904 32.5482 227.641C31.7297 227.396 31.0544 227.036 30.5223 226.561C29.9902 226.086 29.5948 225.5 29.3361 224.802C29.0674 224.101 28.9224 223.297 28.9012 222.387C28.9069 221.606 28.966 220.737 29.0785 219.781C29.191 218.825 29.327 217.826 29.4863 216.786C29.6487 215.736 29.8081 214.696 29.9645 213.666L30.2523 214.993C28.9906 214.593 27.9716 214.581 27.1952 214.958C26.4118 215.321 25.8182 216.177 25.4144 217.524C25.1602 218.373 25.1265 219.211 25.3134 220.039C25.4903 220.865 25.991 221.553 26.8156 222.105L25.0423 224.755C23.7745 223.94 22.8989 222.851 22.4154 221.488C21.9349 220.115 21.9743 218.495 22.5337 216.628C22.9674 215.181 23.5938 213.998 24.413 213.08C25.2251 212.148 26.24 211.593 27.4576 211.414C28.0644 211.313 28.6712 211.321 29.2781 211.437C29.885 211.554 30.5278 211.714 31.2065 211.917L41.1632 214.901L40.3332 217.671L36.635 216.563L37.2756 216.167C38.3129 217.207 38.9805 218.337 39.2783 219.558C39.5691 220.765 39.4887 222.123 39.037 223.63ZM36.6427 222.309C36.9089 221.42 36.983 220.61 36.865 219.879C36.7371 219.144 36.4869 218.509 36.1144 217.973C35.742 217.437 35.3092 217.03 34.816 216.752C34.3878 216.439 33.8772 216.182 33.2843 215.983C32.6943 215.773 32.2197 215.615 31.8604 215.507L32.5398 214.601C32.3934 215.634 32.2589 216.573 32.1364 217.417C32.0139 218.262 31.9138 219.031 31.8362 219.726C31.7516 220.408 31.7128 221.027 31.72 221.584C31.7411 222.058 31.8056 222.496 31.9135 222.898C32.0244 223.291 32.1997 223.631 32.4393 223.921C32.6819 224.2 33.0178 224.404 33.4471 224.533C33.8663 224.658 34.287 224.67 34.7091 224.568C35.1213 224.463 35.4965 224.228 35.8347 223.861C36.173 223.495 36.4423 222.977 36.6427 222.309Z" fill="#EFEFEF"/>
<path d="M46.4562 200.355L38.6855 197.439C38.0709 197.209 37.4215 197.026 36.7373 196.892C36.0471 196.744 35.369 196.712 34.7031 196.796C34.0408 196.871 33.4401 197.107 32.901 197.506C32.3655 197.895 31.9404 198.509 31.6256 199.348C31.4206 199.894 31.3192 200.446 31.3216 201.003C31.3141 201.557 31.4409 202.094 31.7018 202.615C31.9663 203.126 32.3852 203.612 32.9583 204.072C33.5351 204.522 34.2917 204.923 35.2283 205.274L33.7974 206.907C32.3633 206.369 31.2006 205.627 30.3092 204.68C29.4081 203.73 28.8388 202.637 28.6012 201.402C28.3636 200.166 28.512 198.836 29.0465 197.412C29.4565 196.319 29.9762 195.468 30.6056 194.858C31.235 194.249 31.9236 193.823 32.6712 193.58C33.4128 193.324 34.1659 193.2 34.9306 193.209C35.6953 193.218 36.416 193.299 37.0929 193.453C37.7697 193.607 38.352 193.775 38.8398 193.958L47.6202 197.253L46.4562 200.355ZM42.2885 211.462L26.4838 205.532L27.5106 202.795L32.0764 204.509L32.2137 204.143L43.4526 208.36L42.2885 211.462Z" fill="#EFEFEF"/>
<path d="M51.7931 188.917C51.1425 190.35 50.2245 191.426 49.039 192.147C47.8578 192.858 46.526 193.22 45.0436 193.233C43.556 193.233 42.0437 192.884 40.5067 192.186C38.9601 191.484 37.7089 190.572 36.753 189.452C35.7875 188.327 35.1907 187.083 34.9625 185.72C34.7292 184.344 34.9399 182.935 35.5947 181.493C36.2539 180.041 37.1633 178.983 38.3229 178.32C39.4774 177.642 40.7808 177.33 42.233 177.383C43.6896 177.426 45.1864 177.797 46.7234 178.495C48.2604 179.193 49.5246 180.076 50.5159 181.144C51.5072 182.212 52.1372 183.408 52.4059 184.732C52.6651 186.051 52.4608 187.446 51.7931 188.917ZM49.2907 187.283C49.7344 186.305 49.8639 185.403 49.679 184.575C49.4941 183.747 49.0583 183.006 48.3716 182.351C47.6849 181.695 46.8102 181.127 45.7476 180.644C44.685 180.162 43.6789 179.882 42.7294 179.806C41.7842 179.72 40.946 179.877 40.2149 180.277C39.4881 180.668 38.9135 181.329 38.4913 182.259C38.0433 183.245 37.9169 184.166 38.1121 185.022C38.3073 185.877 38.7418 186.647 39.4156 187.33C40.0937 188.005 40.9356 188.57 41.9413 189.027C42.9565 189.488 43.9457 189.754 44.909 189.825C45.8672 189.882 46.7282 189.713 47.4921 189.316C48.2603 188.909 48.8598 188.231 49.2907 187.283ZM53.447 184.14L42.3889 179.119L42.2338 179.46L32.7982 175.176L34.1553 172.187L54.649 181.493L53.447 184.14Z" fill="#EFEFEF"/>
<path d="M60.8509 170.58C60.0514 172.055 59.0282 173.177 57.7811 173.947C56.5299 174.703 55.1583 175.08 53.6663 175.077C52.1702 175.06 50.6572 174.637 49.1273 173.808C47.5058 172.929 46.2635 171.864 45.4003 170.614C44.5421 169.355 44.0832 168.004 44.0236 166.561C43.9641 165.118 44.3266 163.673 45.1112 162.226C45.9305 160.714 46.9808 159.618 48.2622 158.938C49.5345 158.253 50.9579 157.999 52.5327 158.177C54.1124 158.346 55.761 158.967 57.4787 160.04L55.922 162.912L54.8776 162.346C53.1454 161.431 51.6933 161.07 50.5212 161.265C49.3541 161.45 48.418 162.193 47.7129 163.494C46.9333 164.932 46.8009 166.259 47.3155 167.474C47.8302 168.689 48.9441 169.761 50.6572 170.69C52.2878 171.574 53.7482 171.897 55.0382 171.66C56.3191 171.418 57.3295 170.615 58.0693 169.25C58.5559 168.352 58.774 167.469 58.7235 166.6C58.6687 165.717 58.3605 164.886 57.7988 164.107L60.2188 161.774C61.2344 163.071 61.7908 164.505 61.888 166.075C61.9762 167.64 61.6304 169.141 60.8509 170.58ZM50.9614 172.064L48.7216 170.85L54.4642 160.255L56.704 161.469L50.9614 172.064Z" fill="#EFEFEF"/>
<path d="M65.8272 160.851L46.175 148.947L47.8674 146.153L67.5197 158.057L65.8272 160.851Z" fill="#EFEFEF"/>
<path d="M73.8653 147.852L59.9669 128.696L62.7344 124.891L85.2387 132.216L83.2436 134.959L62.6721 128.325L63.1686 127.643L75.8605 145.109L73.8653 147.852ZM71.9916 141.792L69.5142 139.99L76.4284 130.485L78.9058 132.287L71.9916 141.792Z" fill="#EFEFEF"/>
<path d="M91.4617 125.533C90.4235 126.77 89.2535 127.556 87.9515 127.892C86.6416 128.221 85.2909 128.169 83.8995 127.736C82.5081 127.303 81.1659 126.544 79.8728 125.459C78.5797 124.374 77.5958 123.188 76.9211 121.901C76.2531 120.606 75.972 119.295 76.078 117.969C76.1826 116.629 76.7473 115.348 77.7721 114.127C78.7902 112.913 79.967 112.119 81.3024 111.743C82.6366 111.353 84.0195 111.35 85.4511 111.735C86.8746 112.114 88.237 112.849 89.5381 113.941C90.8312 115.026 91.7956 116.243 92.4314 117.593C93.0659 118.928 93.3141 120.286 93.176 121.666C93.0446 123.038 92.4732 124.327 91.4617 125.533ZM85.9986 131.314L68.7572 116.846L70.8671 114.331L78.8053 120.992L78.5642 121.28L87.8674 129.087L85.9986 131.314ZM88.9074 123.981C89.5773 123.183 89.9263 122.353 89.9546 121.493C89.9896 120.624 89.771 119.774 89.2989 118.943C88.8255 118.097 88.1617 117.315 87.3076 116.599C86.4615 115.889 85.5847 115.377 84.6772 115.065C83.7764 114.744 82.8981 114.68 82.0422 114.874C81.1864 115.067 80.4101 115.578 79.7135 116.409C79.0571 117.191 78.7062 117.998 78.6606 118.831C78.6218 119.655 78.8418 120.479 79.3206 121.302C79.8061 122.118 80.4959 122.901 81.3899 123.651C82.2839 124.401 83.1746 124.945 84.062 125.281C84.9494 125.618 85.8063 125.691 86.6328 125.5C87.4593 125.309 88.2175 124.803 88.9074 123.981Z" fill="#EFEFEF"/>
<path d="M116.309 98.8028L101.53 81.8271L111.586 73.0723L113.731 75.5362L106.139 82.1458L110.306 86.932L116.483 81.554L118.638 84.0296L112.461 89.4077L118.773 96.6577L116.309 98.8028Z" fill="#EFEFEF"/>
<path d="M116.417 72.9L114.44 70.4182L116.995 68.3828L118.972 70.8646L116.417 72.9ZM128.658 88.2676L118.14 75.0639L120.695 73.0285L131.213 86.2321L128.658 88.2676Z" fill="#EFEFEF"/>
<path d="M144.663 76.2262L139.83 69.4788C139.447 68.9451 139.009 68.4321 138.516 67.9398C138.024 67.4329 137.479 67.029 136.879 66.7282C136.287 66.4213 135.657 66.2835 134.987 66.3146C134.325 66.3397 133.631 66.6132 132.902 67.1351C132.428 67.4749 132.036 67.877 131.728 68.3413C131.414 68.7972 131.22 69.3141 131.147 69.892C131.082 70.4639 131.16 71.1003 131.38 71.8014C131.609 72.4964 132.014 73.2505 132.597 74.0637L130.499 74.6244C129.607 73.3791 129.054 72.1152 128.841 70.8327C128.621 69.5417 128.756 68.3168 129.246 67.1581C129.737 65.9995 130.6 64.9771 131.837 64.0912C132.786 63.4116 133.691 62.9937 134.553 62.8375C135.416 62.6813 136.225 62.7105 136.981 62.9251C137.74 63.1251 138.434 63.4416 139.064 63.8744C139.695 64.3072 140.249 64.7758 140.725 65.2803C141.202 65.7848 141.592 66.2489 141.895 66.6724L147.356 74.2965L144.663 76.2262ZM135.018 83.1346L125.188 69.4112L127.565 67.7091L130.404 71.6737L130.722 71.4461L137.712 81.205L135.018 83.1346Z" fill="#EFEFEF"/>
<path d="M154.595 70.2134C153.533 70.873 152.522 71.2306 151.563 71.2863C150.599 71.3332 149.73 71.1489 148.957 70.7336C148.188 70.3038 147.561 69.6994 147.077 68.9204C146.626 68.1945 146.359 67.4774 146.275 66.7691C146.191 66.0609 146.283 65.3597 146.551 64.6658C146.814 63.9629 147.239 63.2639 147.825 62.5687C148.347 61.987 148.967 61.3752 149.684 60.7334C150.402 60.0916 151.165 59.4338 151.973 58.7602C152.79 58.0811 153.599 57.4075 154.398 56.7394L153.735 57.9238C153.055 56.7885 152.299 56.1048 151.468 55.8726C150.641 55.626 149.629 55.8738 148.434 56.6158C147.682 57.083 147.101 57.6888 146.692 58.4332C146.278 59.1687 146.197 60.0162 146.45 60.9757L143.366 61.7867C142.956 60.3364 143.021 58.9404 143.562 57.5989C144.111 56.2518 145.214 55.0644 146.869 54.0365C148.153 53.2395 149.406 52.7682 150.628 52.6227C151.853 52.4628 152.981 52.7191 154.012 53.3915C154.534 53.7178 154.983 54.1256 155.36 54.6149C155.738 55.1042 156.113 55.6499 156.487 56.2519L161.97 65.0824L159.513 66.6077L157.477 63.3278L158.219 63.4559C158.307 64.9219 158.059 66.2107 157.473 67.3224C156.891 68.4197 155.932 69.3834 154.595 70.2134ZM153.677 67.6376C154.465 67.1484 155.057 66.5907 155.453 65.9645C155.843 65.3294 156.077 64.6878 156.153 64.0396C156.229 63.3915 156.174 62.7998 155.989 62.2647C155.876 61.7463 155.663 61.2161 155.351 60.6739C155.048 60.1263 154.797 59.6931 154.599 59.3744L155.708 59.1457C154.914 59.8227 154.192 60.4369 153.541 60.9883C152.89 61.5398 152.305 62.05 151.787 62.519C151.272 62.9737 150.832 63.412 150.469 63.834C150.171 64.2031 149.929 64.5741 149.743 64.9469C149.566 65.3142 149.472 65.6856 149.46 66.0611C149.457 66.4311 149.573 66.8065 149.809 67.1871C150.04 67.559 150.348 67.8465 150.731 68.0498C151.11 68.2442 151.547 68.3161 152.043 68.2657C152.539 68.2152 153.084 68.0059 153.677 67.6376Z" fill="#EFEFEF"/>
<path d="M175.129 57.8849L171.228 50.5591C170.92 49.9797 170.553 49.4134 170.129 48.8602C169.709 48.293 169.221 47.8207 168.666 47.4434C168.12 47.0611 167.513 46.8413 166.845 46.7839C166.186 46.7216 165.461 46.901 164.67 47.3222C164.155 47.5965 163.714 47.9435 163.348 48.3631C162.976 48.7735 162.716 49.2604 162.567 49.8236C162.427 50.3819 162.421 51.0231 162.546 51.747C162.681 52.4661 162.984 53.2671 163.454 54.1501L161.301 54.4292C160.581 53.0771 160.199 51.7514 160.157 50.4519C160.109 49.1432 160.405 47.9469 161.044 46.863C161.682 45.779 162.673 44.8795 164.016 44.1644C165.046 43.6159 165.999 43.3211 166.874 43.2799C167.749 43.2388 168.548 43.3745 169.269 43.6869C169.994 43.9853 170.641 44.3905 171.209 44.9027C171.777 45.4149 172.264 45.9525 172.67 46.5154C173.076 47.0784 173.401 47.5898 173.646 48.0497L178.054 56.3274L175.129 57.8849ZM164.658 63.4611L156.724 48.5612L159.304 47.1873L161.596 51.4917L161.941 51.3081L167.583 61.9036L164.658 63.4611Z" fill="#EFEFEF"/>
<path d="M188.317 52.0455C186.445 52.8873 184.733 53.1597 183.183 52.8627C181.633 52.5657 180.387 51.7262 179.446 50.3443L182.285 48.5022C182.834 49.2151 183.555 49.6505 184.449 49.8085C185.348 49.9528 186.311 49.7942 187.337 49.3327C188.268 48.9139 188.91 48.397 189.262 47.7818C189.623 47.1624 189.654 46.52 189.355 45.8547C189.18 45.4651 188.944 45.1942 188.647 45.042C188.355 44.8761 187.866 44.8163 187.178 44.8627C186.491 44.909 185.471 45.042 184.119 45.2615C182.644 45.5133 181.429 45.6196 180.475 45.5803C179.525 45.5273 178.767 45.3142 178.199 44.941C177.637 44.5541 177.187 43.9852 176.849 43.2344C176.43 42.303 176.312 41.3793 176.495 40.4634C176.677 39.5474 177.129 38.6985 177.852 37.9167C178.584 37.1306 179.553 36.4662 180.76 35.9235C181.938 35.3937 183.072 35.1068 184.16 35.063C185.249 35.0192 186.232 35.2112 187.11 35.6391C187.984 36.0575 188.683 36.6972 189.207 37.5583L186.406 39.4859C185.968 38.7916 185.359 38.3631 184.577 38.2004C183.796 38.0376 182.926 38.1487 181.968 38.5338C181.048 38.9017 180.384 39.3828 179.978 39.977C179.566 40.5618 179.493 41.1487 179.758 41.738C179.912 42.0801 180.147 42.323 180.463 42.4666C180.788 42.6059 181.309 42.646 182.025 42.5868C182.741 42.5277 183.771 42.3788 185.114 42.1403C186.557 41.8918 187.75 41.8009 188.694 41.8678C189.633 41.9251 190.391 42.1615 190.966 42.5769C191.547 42.9786 192.014 43.5738 192.369 44.3626C193.052 45.8833 193.033 47.326 192.31 48.6908C191.596 50.0513 190.265 51.1695 188.317 52.0455Z" fill="#EFEFEF"/>
<path d="M207.19 43.8849L204.274 36.1142C204.044 35.4996 203.754 34.8905 203.405 34.2868C203.062 33.6698 202.64 33.1381 202.139 32.6918C201.647 32.2419 201.074 31.9451 200.419 31.8013C199.774 31.6538 199.032 31.7375 198.193 32.0524C197.646 32.2574 197.164 32.5441 196.746 32.9125C196.324 33.2711 196.003 33.72 195.782 34.2591C195.571 34.7945 195.481 35.4294 195.512 36.1636C195.552 36.8941 195.748 37.7276 196.099 38.6642L193.928 38.661C193.39 37.2269 193.184 35.8628 193.311 34.5688C193.434 33.265 193.882 32.1172 194.656 31.1256C195.431 30.1339 196.53 29.3708 197.954 28.8363C199.047 28.4263 200.03 28.2578 200.903 28.3308C201.777 28.4038 202.55 28.6421 203.225 29.0456C203.905 29.4358 204.494 29.9217 204.991 30.5033C205.487 31.085 205.9 31.6813 206.229 32.2922C206.559 32.9032 206.815 33.4525 206.998 33.9403L210.293 42.7208L207.19 43.8849ZM196.083 48.0527L188.176 26.9796L190.913 25.9528L195.179 37.3235L195.545 37.1862L199.185 46.8886L196.083 48.0527Z" fill="#EFEFEF"/>
<path d="M218.931 40.4381C217.733 40.797 216.664 40.878 215.724 40.6811C214.781 40.4742 213.991 40.0693 213.353 39.4663C212.722 38.8503 212.276 38.1031 212.012 37.2247C211.767 36.4062 211.696 35.6441 211.8 34.9385C211.905 34.2329 212.177 33.5802 212.617 32.9805C213.054 32.3708 213.647 31.8071 214.395 31.2893C215.05 30.8643 215.809 30.4359 216.669 30.004C217.53 29.5721 218.438 29.1367 219.394 28.6978C220.361 28.2559 221.317 27.8171 222.263 27.3812L221.314 28.351C220.954 27.0774 220.403 26.2199 219.662 25.7785C218.927 25.3242 217.886 25.2989 216.539 25.7027C215.69 25.957 214.972 26.3899 214.382 27.0016C213.79 27.6032 213.491 28.4001 213.483 29.3922L210.295 29.3688C210.278 27.8617 210.706 26.5314 211.579 25.3779C212.462 24.2213 213.836 23.3634 215.703 22.804C217.15 22.3703 218.483 22.243 219.7 22.422C220.925 22.588 221.947 23.1303 222.766 24.0488C223.184 24.5 223.511 25.0111 223.747 25.5821C223.984 26.1531 224.204 26.7779 224.407 27.4567L227.391 37.4134L224.621 38.2435L223.512 34.5453L224.195 34.8629C223.897 36.301 223.32 37.4801 222.465 38.4C221.616 39.307 220.438 39.9864 218.931 40.4381ZM218.718 37.7117C219.606 37.4455 220.323 37.062 220.869 36.5611C221.413 36.0503 221.805 35.4919 222.048 34.8862C222.291 34.2804 222.393 33.6951 222.354 33.1302C222.38 32.6002 222.314 32.0328 222.154 31.4279C222.005 30.82 221.876 30.3364 221.768 29.9771L222.899 30.0463C221.955 30.4921 221.097 30.8961 220.325 31.2582C219.552 31.6202 218.854 31.9599 218.231 32.2771C217.615 32.5813 217.077 32.8895 216.616 33.2018C216.231 33.4802 215.901 33.775 215.624 34.0863C215.358 34.3946 215.17 34.7284 215.06 35.0877C214.96 35.444 214.974 35.8367 215.103 36.2659C215.228 36.6852 215.45 37.0431 215.767 37.3396C216.081 37.6261 216.485 37.8099 216.977 37.8909C217.469 37.9719 218.049 37.9122 218.718 37.7117Z" fill="#EFEFEF"/>
<path d="M242.795 33.7096L240.961 25.615C240.816 24.9748 240.612 24.332 240.348 23.6866C240.092 23.0287 239.746 22.4447 239.31 21.9345C238.884 21.422 238.356 21.0501 237.727 20.8187C237.108 20.5851 236.361 20.5673 235.487 20.7653C234.918 20.8943 234.401 21.1128 233.937 21.4211C233.47 21.7191 233.091 22.1202 232.799 22.6244C232.518 23.1263 232.342 23.743 232.273 24.4746C232.214 25.2038 232.295 26.0562 232.516 27.0318L230.365 26.7339C230.026 25.24 230.008 23.8606 230.309 22.5958C230.607 21.3207 231.208 20.2445 232.109 19.3671C233.011 18.4897 234.204 17.8829 235.687 17.5467C236.826 17.2888 237.822 17.2552 238.678 17.4461C239.533 17.6369 240.267 17.978 240.881 18.4694C241.502 18.9483 242.019 19.5096 242.432 20.1532C242.845 20.7969 243.173 21.4437 243.417 22.0937C243.66 22.7437 243.839 23.3228 243.955 23.8309L246.027 32.9773L242.795 33.7096ZM231.225 36.3312L227.495 19.8678L230.346 19.2218L231.423 23.978L231.804 23.8916L234.457 35.5989L231.225 36.3312Z" fill="#EFEFEF"/>
<path d="M255.625 31.7926C254.07 32.034 252.666 31.8565 251.414 31.2601C250.172 30.6621 249.138 29.7469 248.314 28.5145C247.499 27.2702 246.962 25.8141 246.703 24.146C246.442 22.4676 246.519 20.9214 246.932 19.5075C247.344 18.0833 248.057 16.9023 249.071 15.9645C250.094 15.0148 251.388 14.4184 252.953 14.1754C254.529 13.9308 255.912 14.1115 257.102 14.7175C258.302 15.3117 259.278 16.2305 260.03 17.4741C260.792 18.716 261.302 20.1711 261.561 21.8392C261.82 23.5072 261.775 25.0486 261.425 26.4632C261.075 27.8778 260.421 29.0604 259.461 30.0108C258.5 30.9509 257.221 31.5449 255.625 31.7926ZM255.62 28.8039C256.68 28.6393 257.506 28.2527 258.097 27.6443C258.688 27.0358 259.069 26.2648 259.241 25.3313C259.412 24.3979 259.408 23.3545 259.229 22.2012C259.05 21.048 258.732 20.0534 258.276 19.2174C257.829 18.3798 257.238 17.7651 256.502 17.3731C255.777 16.9796 254.91 16.8612 253.901 17.0178C252.83 17.1841 251.99 17.5833 251.382 18.2156C250.773 18.8478 250.368 19.6331 250.166 20.5714C249.974 21.5081 249.962 22.5222 250.132 23.6136C250.303 24.7154 250.623 25.6886 251.091 26.5333C251.569 27.3661 252.183 27.9931 252.933 28.4143C253.695 28.8339 254.59 28.9638 255.62 28.8039ZM260.526 30.5571L258.663 18.5562L258.293 18.6137L256.703 8.37347L259.946 7.86991L263.399 30.1111L260.526 30.5571Z" fill="#EFEFEF"/>
<path d="M275.72 29.2891C274.049 29.4313 272.549 29.1929 271.22 28.5738C269.901 27.9435 268.833 27.0043 268.016 25.7561C267.208 24.4967 266.73 23 266.583 21.2661C266.426 19.4283 266.633 17.8054 267.204 16.3974C267.785 14.9885 268.662 13.8629 269.834 13.0206C271.007 12.1784 272.414 11.6875 274.054 11.5479C275.768 11.4022 277.26 11.6779 278.533 12.3749C279.804 13.0616 280.798 14.1117 281.514 15.5253C282.241 16.9381 282.628 18.6569 282.675 20.6817L279.42 20.9586L279.319 19.7749C279.132 17.8247 278.636 16.4133 277.829 15.5407C277.033 14.6672 275.898 14.2931 274.424 14.4185C272.794 14.5572 271.613 15.1753 270.88 16.273C270.147 17.3707 269.863 18.8903 270.028 20.8318C270.185 22.68 270.717 24.0779 271.624 25.0256C272.53 25.963 273.756 26.3659 275.303 26.2343C276.321 26.1477 277.179 25.8447 277.877 25.3252C278.585 24.7944 279.11 24.0804 279.452 23.1833L282.731 23.9241C282.205 25.4852 281.312 26.7376 280.054 27.6813C278.795 28.6145 277.35 29.1505 275.72 29.2891ZM269.047 21.8408L268.831 19.3022L280.839 18.2809L281.055 20.8195L269.047 21.8408Z" fill="#EFEFEF"/>
<path d="M288.054 28.0178L287.256 5.05514L290.521 4.94168L291.319 27.9044L288.054 28.0178Z" fill="#EFEFEF"/>
<path d="M303.653 27.6341L312.087 5.52158L316.786 5.7575L322.963 28.6036L319.576 28.4336L313.877 7.58336L314.72 7.62568L307.04 27.8042L303.653 27.6341ZM307.701 22.7511L307.855 19.6914L319.594 20.2808L319.44 23.3405L307.701 22.7511Z" fill="#EFEFEF"/>
<path d="M331.832 30.1361C330.228 29.9436 328.93 29.3941 327.937 28.4878C326.945 27.5711 326.249 26.4119 325.851 25.0102C325.452 23.6085 325.354 22.0696 325.555 20.3936C325.756 18.7175 326.211 17.2451 326.92 15.9763C327.639 14.7088 328.582 13.7568 329.75 13.1203C330.929 12.4748 332.31 12.247 333.893 12.4371C335.466 12.6259 336.775 13.1765 337.82 14.0891C338.876 14.9926 339.635 16.1489 340.095 17.558C340.557 18.9568 340.687 20.4994 340.484 22.1858C340.283 23.8618 339.791 25.3351 339.009 26.6055C338.238 27.8669 337.238 28.8172 336.006 29.4565C334.785 30.0971 333.394 30.3236 331.832 30.1361ZM324.004 28.7241L326.687 6.37688L329.946 6.76811L328.71 17.0571L328.338 17.0124L326.891 29.0706L324.004 28.7241ZM331.734 27.149C332.768 27.2732 333.654 27.1118 334.389 26.6649C335.136 26.2192 335.728 25.5714 336.165 24.7214C336.615 23.8623 336.906 22.8792 337.039 21.7722C337.171 20.6755 337.119 19.6618 336.885 18.7311C336.66 17.8016 336.233 17.0314 335.603 16.4206C334.974 15.8097 334.121 15.4397 333.045 15.3105C332.031 15.1888 331.163 15.3365 330.441 15.7536C329.73 16.172 329.16 16.8068 328.733 17.658C328.316 18.5105 328.037 19.5161 327.898 20.6749C327.759 21.8336 327.792 22.8765 327.995 23.8035C328.199 24.7305 328.606 25.4879 329.218 26.0756C329.83 26.6632 330.668 27.021 331.734 27.149Z" fill="#EFEFEF"/>
<path d="M367.238 36.1545L373.372 14.4988L386.2 18.1322L385.31 21.2753L375.625 18.5321L373.895 24.6378L381.776 26.8699L380.881 30.028L373.001 27.796L370.381 37.0448L367.238 36.1545Z" fill="#EFEFEF"/>
<path d="M389.528 22.2441L390.53 19.2336L393.63 20.2654L392.628 23.276L389.528 22.2441ZM383.322 40.8857L388.654 24.8691L391.754 25.9009L386.422 41.9175L383.322 40.8857Z" fill="#EFEFEF"/>
<path d="M402.665 47.9421L405.697 40.216C405.936 39.6049 406.129 38.9583 406.273 38.2763C406.431 37.5883 406.473 36.9107 406.399 36.2436C406.335 35.5803 406.107 34.9762 405.717 34.4311C405.336 33.8899 404.728 33.4555 403.894 33.1282C403.351 32.915 402.801 32.8054 402.243 32.7994C401.69 32.7836 401.151 32.9023 400.626 33.1553C400.111 33.4122 399.619 33.8237 399.151 34.3899C398.692 34.9598 398.28 35.7104 397.915 36.6416L396.303 35.1864C396.863 33.7605 397.622 32.609 398.582 31.7319C399.546 30.8452 400.647 30.2923 401.886 30.0733C403.125 29.8543 404.452 30.0227 405.869 30.5784C406.955 31.0048 407.798 31.5372 408.398 32.1757C408.999 32.8142 409.414 33.5091 409.646 34.2603C409.89 35.0056 410.003 35.7605 409.983 36.525C409.963 37.2895 409.87 38.0089 409.707 38.6834C409.543 39.3579 409.365 39.9376 409.175 40.4226L405.749 49.1526L402.665 47.9421ZM391.621 43.6082L397.788 27.8941L400.509 28.9619L398.727 33.5015L399.091 33.6443L394.706 44.8188L391.621 43.6082Z" fill="#EFEFEF"/>
<path d="M413.443 53.1744C412.312 52.6405 411.463 51.9861 410.896 51.2111C410.333 50.4267 410.016 49.5972 409.945 48.7225C409.887 47.8428 410.055 46.9883 410.446 46.1591C410.811 45.3865 411.268 44.7725 411.817 44.3173C412.366 43.8622 413.005 43.5588 413.733 43.4072C414.466 43.2462 415.284 43.2231 416.186 43.338C416.958 43.4604 417.808 43.6487 418.737 43.9028C419.665 44.1569 420.632 44.4405 421.636 44.7535C422.65 45.0709 423.655 45.3839 424.65 45.6924L423.295 45.7789C423.879 44.5911 424.043 43.5852 423.787 42.7613C423.544 41.9324 422.787 41.2176 421.515 40.617C420.714 40.2388 419.89 40.0802 419.043 40.1413C418.201 40.1929 417.445 40.5851 416.777 41.318L414.421 39.1686C415.416 38.0368 416.624 37.3337 418.044 37.0594C419.474 36.7894 421.069 37.0705 422.831 37.9024C424.198 38.5476 425.274 39.3437 426.059 40.2909C426.859 41.2331 427.256 42.3196 427.252 43.5503C427.261 44.1653 427.162 44.7642 426.956 45.3468C426.751 45.9295 426.496 46.5412 426.194 47.1819L421.756 56.5811L419.141 55.3465L420.789 51.8553L421.085 52.5479C419.902 53.4182 418.685 53.9094 417.433 54.0215C416.196 54.1286 414.866 53.8462 413.443 53.1744ZM415.107 51.0044C415.946 51.4004 416.735 51.5947 417.476 51.5873C418.222 51.5706 418.887 51.4181 419.473 51.1299C420.058 50.8417 420.525 50.4746 420.874 50.0285C421.248 49.6519 421.578 49.1853 421.863 48.6289C422.159 48.0768 422.386 47.6312 422.547 47.292L423.341 48.0992C422.341 47.8 421.433 47.5268 420.616 47.2795C419.8 47.0322 419.054 46.8183 418.379 46.6377C417.717 46.4522 417.111 46.3213 416.559 46.2452C416.087 46.1952 415.644 46.1936 415.23 46.2402C414.826 46.2912 414.463 46.4136 414.141 46.6073C413.828 46.8054 413.576 47.1071 413.385 47.5123C413.198 47.908 413.124 48.3222 413.161 48.7549C413.204 49.1781 413.381 49.5843 413.692 49.9735C414.004 50.3627 414.476 50.7063 415.107 51.0044Z" fill="#EFEFEF"/>
<path d="M435.036 63.8028L439.072 56.5503C439.391 55.9766 439.668 55.3615 439.902 54.7048C440.15 54.044 440.282 53.3782 440.298 52.7072C440.323 52.0412 440.178 51.4121 439.863 50.8198C439.558 50.2325 439.014 49.721 438.231 49.2853C437.721 49.0016 437.19 48.8195 436.639 48.7392C436.092 48.6497 435.542 48.6954 434.988 48.8762C434.444 49.062 433.902 49.4043 433.362 49.9029C432.831 50.4065 432.323 51.0954 431.836 51.9695L430.433 50.3123C431.178 48.9737 432.084 47.9339 433.153 47.1928C434.226 46.4425 435.391 46.0415 436.648 45.9898C437.905 45.938 439.199 46.282 440.528 47.0218C441.548 47.5893 442.312 48.2295 442.822 48.9423C443.332 49.6552 443.651 50.3993 443.78 51.1747C443.923 51.946 443.934 52.7092 443.812 53.4641C443.69 54.2191 443.503 54.9198 443.25 55.5664C442.998 56.2129 442.745 56.7639 442.492 57.2191L437.931 65.4141L435.036 63.8028ZM424.67 58.0342L432.878 43.2833L435.432 44.7046L433.06 48.9659L433.402 49.1559L427.565 59.6454L424.67 58.0342Z" fill="#EFEFEF"/>
<path d="M445.373 70.6282C443.645 69.5198 442.482 68.2353 441.884 66.7746C441.286 65.3139 441.309 63.8119 441.952 62.2685L445.046 63.6403C444.749 64.4896 444.778 65.3317 445.134 66.1665C445.504 66.9982 446.163 67.7179 447.11 68.3255C447.97 68.8769 448.753 69.1319 449.461 69.0904C450.177 69.0547 450.732 68.7298 451.126 68.1158C451.356 67.7562 451.454 67.4105 451.42 67.0787C451.399 66.7438 451.182 66.301 450.767 65.7505C450.353 65.1999 449.684 64.4183 448.762 63.4056C447.745 62.3078 446.993 61.3484 446.504 60.5275C446.03 59.7034 445.794 58.9517 445.797 58.2724C445.813 57.5899 446.044 56.9022 446.488 56.2093C447.04 55.3498 447.749 54.7461 448.616 54.3984C449.482 54.0507 450.441 53.9658 451.49 54.1438C452.548 54.3275 453.634 54.7765 454.748 55.491C455.836 56.1887 456.695 56.9814 457.327 57.8692C457.958 58.757 458.334 59.6854 458.456 60.6545C458.582 61.6148 458.428 62.5497 457.994 63.4592L454.849 62.1664C455.191 61.4203 455.217 60.6756 454.927 59.9321C454.636 59.1886 454.068 58.5208 453.222 57.9287C452.411 57.3591 451.646 57.0663 450.926 57.0501C450.211 57.0251 449.68 57.2846 449.331 57.8284C449.128 58.1441 449.053 58.4735 449.106 58.8166C449.167 59.1652 449.418 59.6233 449.858 60.1907C450.299 60.7582 450.986 61.5395 451.92 62.5346C452.916 63.6068 453.644 64.5564 454.104 65.3837C454.569 66.2022 454.785 66.9658 454.751 67.6745C454.732 68.3802 454.489 69.097 454.022 69.825C453.122 71.2283 451.903 72 450.364 72.1399C448.835 72.2854 447.171 71.7815 445.373 70.6282Z" fill="#EFEFEF"/>
<path d="M463.795 82.8803L468.726 76.2043C469.116 75.6762 469.469 75.1016 469.786 74.4803C470.117 73.8568 470.333 73.2133 470.434 72.5498C470.544 71.8925 470.481 71.25 470.245 70.6223C470.018 70.0009 469.544 69.4239 468.823 68.8914C468.353 68.5447 467.85 68.2962 467.314 68.1459C466.783 67.9872 466.232 67.9621 465.659 68.0705C465.095 68.1851 464.514 68.455 463.915 68.8804C463.324 69.312 462.731 69.9301 462.137 70.7347L460.958 68.9114C461.868 67.6793 462.9 66.7641 464.054 66.1659C465.215 65.5592 466.422 65.3108 467.675 65.4204C468.928 65.53 470.167 66.0368 471.391 66.9407C472.329 67.6341 473.006 68.367 473.42 69.1392C473.834 69.9115 474.055 70.6904 474.084 71.4759C474.127 72.2592 474.04 73.0174 473.823 73.7505C473.605 74.4836 473.329 75.1547 472.996 75.7636C472.663 76.3725 472.342 76.8865 472.032 77.3056L466.46 84.8491L463.795 82.8803ZM454.253 75.8317L467.625 57.7272L469.976 59.4639L462.761 69.2327L463.075 69.4649L456.918 77.8005L454.253 75.8317Z" fill="#EFEFEF"/>
<path d="M473.946 91.5981C472.994 90.7873 472.345 89.9338 472 89.0375C471.661 88.1333 471.572 87.2497 471.732 86.3868C471.907 85.5227 472.291 84.7416 472.886 84.0435C473.44 83.393 474.041 82.9197 474.69 82.6238C475.339 82.3279 476.035 82.2019 476.778 82.2458C477.527 82.2819 478.322 82.4732 479.163 82.8197C479.876 83.1396 480.648 83.5434 481.478 84.0313C482.308 84.5192 483.167 85.0454 484.055 85.6099C484.95 86.1812 485.838 86.7458 486.718 87.3036L485.388 87.0332C486.262 86.0392 486.683 85.111 486.651 84.2487C486.633 83.3853 486.089 82.4975 485.018 81.5854C484.344 81.0112 483.59 80.6429 482.757 80.4805C481.93 80.3102 481.098 80.4914 480.261 81.0242L478.549 78.334C479.805 77.5016 481.154 77.1384 482.597 77.2445C484.047 77.3575 485.514 78.0456 486.998 79.309C488.148 80.2887 488.979 81.3383 489.49 82.4578C490.016 83.5762 490.115 84.7288 489.789 85.9154C489.637 86.5116 489.386 87.0639 489.035 87.5725C488.684 88.0811 488.279 88.6052 487.819 89.1446L481.08 97.0581L478.879 95.1833L481.382 92.244L481.486 92.9896C480.117 93.5207 478.814 93.6769 477.576 93.4582C476.354 93.2383 475.144 92.6183 473.946 91.5981ZM476.119 89.9381C476.825 90.5394 477.537 90.9333 478.254 91.1198C478.978 91.2983 479.66 91.325 480.3 91.1997C480.941 91.0745 481.488 90.8421 481.941 90.5028C482.4 90.2368 482.84 89.8726 483.261 89.4101C483.691 88.9544 484.027 88.5837 484.27 88.2981L484.826 89.2847C483.939 88.7349 483.134 88.2339 482.41 87.7819C481.687 87.3298 481.022 86.9285 480.418 86.5777C479.828 86.2259 479.277 85.9411 478.764 85.7235C478.321 85.552 477.894 85.4347 477.483 85.3715C477.079 85.3152 476.697 85.3385 476.335 85.4413C475.982 85.551 475.66 85.7763 475.369 86.1175C475.086 86.4507 474.905 86.831 474.829 87.2585C474.759 87.678 474.824 88.1164 475.023 88.5735C475.222 89.0306 475.587 89.4855 476.119 89.9381Z" fill="#EFEFEF"/>
<path d="M491.824 107.307L497.607 101.354C498.064 100.883 498.491 100.361 498.888 99.7878C499.3 99.2144 499.601 98.6058 499.79 97.962C499.987 97.3253 500.011 96.6802 499.862 96.0265C499.72 95.3801 499.327 94.7447 498.684 94.1203C498.266 93.7137 497.801 93.3999 497.289 93.1789C496.785 92.9505 496.242 92.8515 495.66 92.8821C495.086 92.9199 494.473 93.1093 493.822 93.4504C493.179 93.7987 492.509 94.3317 491.812 95.0492L490.888 93.0841C491.955 91.9853 493.101 91.217 494.325 90.7792C495.556 90.3339 496.786 90.2497 498.013 90.5266C499.24 90.8035 500.4 91.472 501.491 92.532C502.328 93.3452 502.9 94.1622 503.207 94.9831C503.513 95.804 503.628 96.6055 503.551 97.3878C503.489 98.1698 503.301 98.9094 502.986 99.6067C502.672 100.304 502.309 100.932 501.897 101.491C501.486 102.049 501.098 102.515 500.735 102.889L494.201 109.616L491.824 107.307ZM483.314 99.0415L495.076 86.9327L497.173 88.9692L493.775 92.4673L494.055 92.7396L485.691 101.35L483.314 99.0415Z" fill="#EFEFEF"/>
<path d="M500.851 117.5C499.8 116.329 499.183 115.055 499 113.68C498.824 112.313 499.028 110.948 499.611 109.585C500.209 108.223 501.137 106.978 502.394 105.852C503.658 104.718 504.996 103.938 506.406 103.514C507.825 103.082 509.203 103.035 510.543 103.374C511.897 103.714 513.102 104.473 514.159 105.652C515.224 106.839 515.827 108.097 515.968 109.426C516.124 110.755 515.886 112.074 515.254 113.383C514.629 114.699 513.688 115.921 512.431 117.047C511.174 118.174 509.857 118.977 508.481 119.455C507.104 119.934 505.756 120.03 504.436 119.744C503.124 119.451 501.929 118.703 500.851 117.5ZM503.353 115.866C504.069 116.665 504.843 117.146 505.676 117.31C506.508 117.473 507.362 117.372 508.238 117.007C509.114 116.641 509.986 116.069 510.855 115.29C511.724 114.511 512.385 113.702 512.836 112.863C513.295 112.032 513.488 111.202 513.415 110.371C513.349 109.549 512.975 108.757 512.294 107.997C511.57 107.19 510.778 106.704 509.916 106.539C509.054 106.374 508.175 106.462 507.278 106.804C506.389 107.154 505.532 107.698 504.71 108.435C503.88 109.179 503.239 109.978 502.786 110.832C502.348 111.686 502.158 112.543 502.214 113.402C502.278 114.269 502.657 115.09 503.353 115.866ZM504.559 120.935L513.602 112.828L513.352 112.548L521.067 105.631L523.259 108.075L506.5 123.099L504.559 120.935Z" fill="#EFEFEF"/>
<path d="M513.918 133.058C512.887 131.734 512.269 130.347 512.063 128.896C511.872 127.446 512.077 126.039 512.677 124.673C513.292 123.309 514.286 122.092 515.659 121.023C517.114 119.89 518.587 119.178 520.078 118.888C521.576 118.606 522.998 118.728 524.343 119.251C525.689 119.775 526.868 120.686 527.879 121.985C528.936 123.341 529.519 124.743 529.629 126.19C529.747 127.63 529.408 129.036 528.614 130.407C527.827 131.787 526.597 133.048 524.925 134.192L522.918 131.615L523.855 130.885C525.388 129.665 526.3 128.479 526.592 127.327C526.89 126.183 526.584 125.028 525.675 123.861C524.67 122.57 523.507 121.917 522.187 121.901C520.868 121.886 519.439 122.477 517.902 123.674C516.439 124.814 515.557 126.022 515.257 127.299C514.966 128.57 515.297 129.817 516.251 131.042C516.879 131.848 517.6 132.402 518.417 132.704C519.248 133.007 520.132 133.058 521.071 132.855L522.238 136.008C520.643 136.418 519.107 136.353 517.629 135.813C516.16 135.267 514.923 134.348 513.918 133.058ZM516.521 123.402L518.531 121.837L525.936 131.344L523.926 132.91L516.521 123.402Z" fill="#EFEFEF"/>
<path d="M520.791 141.46L539.567 128.217L541.45 130.886L522.674 144.129L520.791 141.46Z" fill="#EFEFEF"/>
<path d="M528.699 152.778L551.799 147.628L554.191 151.679L538.533 169.425L536.808 166.505L551.065 150.258L551.494 150.985L530.424 155.699L528.699 152.778ZM535.005 153.465L537.642 151.907L543.621 162.027L540.983 163.585L535.005 153.465Z" fill="#EFEFEF"/>
<path d="M543.035 179.423C542.318 177.975 542.068 176.588 542.283 175.261C542.507 173.929 543.097 172.713 544.052 171.612C545.007 170.511 546.24 169.586 547.753 168.837C549.266 168.088 550.747 167.663 552.197 167.562C553.651 167.47 554.964 167.738 556.136 168.367C557.322 169.001 558.269 170.032 558.976 171.461C559.679 172.881 559.934 174.277 559.742 175.651C559.564 177.03 559.012 178.298 558.085 179.454C557.167 180.607 555.947 181.559 554.424 182.313C552.912 183.062 551.409 183.457 549.918 183.497C548.441 183.543 547.097 183.225 545.889 182.545C544.684 181.874 543.733 180.833 543.035 179.423ZM539.932 172.099L560.103 162.113L561.56 165.054L552.273 169.652L552.106 169.316L541.222 174.704L539.932 172.099ZM545.481 177.706C545.944 178.64 546.563 179.292 547.34 179.664C548.121 180.044 548.988 180.185 549.939 180.086C550.904 179.992 551.886 179.698 552.885 179.203C553.875 178.713 554.695 178.115 555.346 177.409C556.001 176.713 556.412 175.934 556.578 175.073C556.745 174.211 556.587 173.295 556.107 172.324C555.654 171.408 555.055 170.763 554.311 170.387C553.571 170.021 552.728 169.892 551.782 170C550.84 170.117 549.846 170.435 548.8 170.953C547.755 171.47 546.899 172.068 546.235 172.746C545.571 173.424 545.16 174.179 545.003 175.013C544.846 175.846 545.005 176.744 545.481 177.706Z" fill="#EFEFEF"/>
<path d="M557.319 212.47L578.805 205.765L582.777 218.492L579.658 219.465L576.66 209.856L570.602 211.747L573.042 219.565L569.909 220.543L567.469 212.725L558.293 215.588L557.319 212.47Z" fill="#EFEFEF"/>
<path d="M581.147 223.599L584.215 222.792L585.046 225.952L581.977 226.758L581.147 223.599ZM562.145 228.594L578.471 224.302L579.302 227.462L562.975 231.753L562.145 228.594Z" fill="#EFEFEF"/>
<path d="M566.502 247.246L574.623 245.536C575.266 245.4 575.912 245.206 576.561 244.952C577.223 244.706 577.812 244.369 578.329 243.941C578.848 243.522 579.228 243 579.468 242.375C579.712 241.759 579.741 241.013 579.556 240.136C579.436 239.565 579.225 239.045 578.924 238.576C578.633 238.105 578.238 237.719 577.738 237.42C577.241 237.131 576.627 236.946 575.896 236.866C575.168 236.795 574.314 236.863 573.336 237.069L573.666 234.923C575.165 234.608 576.545 234.61 577.805 234.93C579.075 235.248 580.142 235.865 581.006 236.78C581.869 237.695 582.458 238.897 582.771 240.385C583.012 241.527 583.03 242.524 582.826 243.377C582.622 244.229 582.27 244.958 581.769 245.564C581.281 246.178 580.712 246.686 580.062 247.09C579.412 247.493 578.76 247.811 578.107 248.044C577.453 248.278 576.871 248.448 576.362 248.556L567.185 250.488L566.502 247.246ZM564.057 235.637L580.575 232.158L581.178 235.018L576.406 236.023L576.486 236.406L564.74 238.88L564.057 235.637Z" fill="#EFEFEF"/>
<path d="M567.97 258.58C567.793 257.343 567.871 256.273 568.205 255.373C568.549 254.471 569.067 253.749 569.757 253.208C570.46 252.675 571.265 252.344 572.173 252.214C573.019 252.092 573.783 252.135 574.465 252.343C575.148 252.55 575.753 252.916 576.281 253.44C576.819 253.963 577.289 254.633 577.69 255.449C578.013 256.16 578.325 256.974 578.624 257.889C578.924 258.803 579.22 259.766 579.512 260.777C579.806 261.798 580.099 262.809 580.39 263.809L579.571 262.727C580.884 262.559 581.814 262.142 582.36 261.474C582.918 260.815 583.097 259.789 582.897 258.396C582.772 257.52 582.45 256.745 581.932 256.072C581.425 255.397 580.681 254.983 579.701 254.829L580.197 251.678C581.689 251.885 582.942 252.506 583.953 253.539C584.966 254.584 585.611 256.07 585.888 257.999C586.103 259.495 586.031 260.831 585.674 262.009C585.328 263.195 584.641 264.126 583.611 264.8C583.103 265.146 582.549 265.394 581.949 265.543C581.349 265.693 580.699 265.818 579.998 265.918L569.709 267.395L569.298 264.532L573.12 263.984L572.704 264.612C571.326 264.104 570.246 263.359 569.462 262.377C568.691 261.403 568.194 260.138 567.97 258.58ZM570.698 258.773C570.83 259.691 571.103 260.457 571.517 261.072C571.942 261.684 572.436 262.156 572.999 262.485C573.562 262.815 574.126 263.003 574.691 263.048C575.211 263.152 575.782 263.17 576.404 263.102C577.027 263.044 577.524 262.989 577.896 262.935L577.66 264.043C577.359 263.044 577.086 262.136 576.843 261.318C576.599 260.5 576.366 259.76 576.145 259.097C575.935 258.443 575.71 257.865 575.47 257.362C575.251 256.941 575.009 256.57 574.742 256.251C574.476 255.941 574.174 255.706 573.835 255.544C573.497 255.392 573.107 255.348 572.663 255.412C572.23 255.474 571.843 255.64 571.503 255.91C571.173 256.179 570.932 256.55 570.779 257.025C570.626 257.499 570.599 258.082 570.698 258.773Z" fill="#EFEFEF"/>
<path d="M571.074 283.502L579.352 282.895C580.007 282.847 580.673 282.74 581.35 282.575C582.039 282.42 582.668 282.165 583.237 281.81C583.808 281.465 584.254 280.999 584.576 280.411C584.9 279.833 585.029 279.098 584.963 278.204C584.92 277.622 584.781 277.079 584.545 276.573C584.32 276.068 583.98 275.633 583.525 275.269C583.071 274.916 582.487 274.651 581.774 274.473C581.062 274.306 580.207 274.259 579.209 274.332L579.824 272.25C581.352 272.138 582.718 272.325 583.924 272.811C585.141 273.296 586.115 274.05 586.849 275.072C587.582 276.094 588.004 277.364 588.116 278.882C588.201 280.045 588.086 281.036 587.77 281.853C587.454 282.671 587.007 283.346 586.43 283.879C585.864 284.423 585.232 284.85 584.534 285.163C583.836 285.475 583.147 285.703 582.468 285.847C581.789 285.991 581.19 286.082 580.67 286.12L571.317 286.807L571.074 283.502ZM570.206 271.671L587.041 270.435L587.255 273.35L582.392 273.707L582.42 274.097L570.448 274.976L570.206 271.671Z" fill="#EFEFEF"/>
</svg>
