<svg width="496" height="496" viewBox="0 0 496 496" fill="none" xmlns="http://www.w3.org/2000/svg">
<path d="M471.101 248.656L490.534 249.181L490.223 260.692L487.403 260.616L487.638 251.925L482.159 251.777L481.967 258.848L479.134 258.772L479.325 251.7L471.025 251.476L471.101 248.656Z" fill="#236FE3"/>
<path d="M487.461 264.148L490.194 264.349L489.987 267.163L487.254 266.962L487.461 264.148ZM470.537 262.906L485.077 263.973L484.871 266.787L470.33 265.72L470.537 262.906Z" fill="#236FE3"/>
<path d="M468.855 279.308L475.969 280.19C476.532 280.259 477.114 280.282 477.716 280.256C478.325 280.241 478.901 280.131 479.443 279.926C479.985 279.731 480.441 279.411 480.814 278.967C481.185 278.533 481.418 277.931 481.514 277.163C481.576 276.663 481.549 276.179 481.435 275.711C481.33 275.245 481.115 274.819 480.791 274.434C480.465 274.059 480.016 273.735 479.442 273.465C478.867 273.203 478.15 273.019 477.293 272.913L478.165 271.252C479.478 271.415 480.604 271.804 481.544 272.419C482.492 273.036 483.191 273.839 483.639 274.828C484.088 275.818 484.232 276.965 484.07 278.269C483.946 279.269 483.681 280.089 483.275 280.728C482.87 281.367 482.377 281.864 481.798 282.218C481.227 282.583 480.62 282.838 479.976 282.985C479.332 283.132 478.71 283.209 478.111 283.217C477.511 283.224 476.988 283.2 476.542 283.144L468.503 282.148L468.855 279.308ZM470.115 269.139L484.585 270.933L484.274 273.438L480.094 272.92L480.053 273.255L469.763 271.979L470.115 269.139Z" fill="#236FE3"/>
<path d="M466.932 288.393C467.135 287.333 467.499 286.481 468.024 285.839C468.559 285.199 469.184 284.755 469.9 284.507C470.623 284.269 471.374 284.224 472.152 284.373C472.877 284.511 473.489 284.761 473.988 285.122C474.488 285.482 474.879 285.951 475.163 286.528C475.456 287.106 475.652 287.784 475.751 288.564C475.815 289.236 475.841 289.987 475.829 290.819C475.817 291.65 475.789 292.52 475.744 293.428C475.697 294.344 475.652 295.252 475.609 296.151L475.244 295.036C476.364 295.268 477.24 295.188 477.874 294.796C478.515 294.414 478.949 293.627 479.177 292.433C479.32 291.682 479.275 290.958 479.041 290.263C478.816 289.57 478.325 289.023 477.567 288.622L478.856 286.187C480.018 286.775 480.866 287.634 481.403 288.762C481.937 289.899 482.046 291.295 481.731 292.948C481.487 294.23 481.053 295.301 480.431 296.163C479.815 297.035 478.993 297.602 477.962 297.864C477.45 298.004 476.928 298.051 476.396 298.005C475.864 297.958 475.298 297.878 474.697 297.763L465.878 296.081L466.346 293.628L469.622 294.253L469.106 294.649C468.123 293.848 467.449 292.936 467.086 291.914C466.729 290.902 466.678 289.728 466.932 288.393ZM469.106 289.317C468.956 290.103 468.964 290.806 469.13 291.424C469.305 292.044 469.577 292.567 469.944 292.995C470.312 293.422 470.719 293.734 471.168 293.929C471.563 294.16 472.025 294.335 472.552 294.454C473.077 294.582 473.499 294.676 473.817 294.737L473.314 295.575C473.348 294.675 473.381 293.856 473.411 293.12C473.442 292.384 473.459 291.714 473.465 291.11C473.477 290.517 473.455 289.981 473.4 289.503C473.34 289.098 473.246 288.727 473.117 288.391C472.987 288.064 472.807 287.787 472.575 287.559C472.342 287.341 472.035 287.195 471.655 287.123C471.284 287.052 470.921 287.079 470.568 287.204C470.223 287.331 469.921 287.566 469.663 287.911C469.405 288.256 469.219 288.724 469.106 289.317Z" fill="#236FE3"/>
<path d="M462.71 308.453L469.643 310.276C470.192 310.42 470.766 310.52 471.365 310.575C471.971 310.641 472.557 310.609 473.122 310.478C473.684 310.356 474.179 310.1 474.608 309.71C475.034 309.329 475.345 308.764 475.542 308.016C475.67 307.528 475.708 307.045 475.657 306.566C475.615 306.09 475.459 305.64 475.189 305.215C474.917 304.799 474.514 304.419 473.981 304.074C473.446 303.738 472.761 303.46 471.925 303.24L473.011 301.711C474.291 302.048 475.355 302.583 476.204 303.318C477.062 304.055 477.647 304.944 477.96 305.985C478.273 307.026 478.262 308.182 477.928 309.452C477.672 310.427 477.3 311.204 476.813 311.783C476.325 312.363 475.771 312.789 475.15 313.063C474.535 313.348 473.899 313.521 473.241 313.581C472.583 313.64 471.957 313.634 471.362 313.561C470.767 313.489 470.252 313.395 469.817 313.281L461.983 311.221L462.71 308.453ZM465.315 298.544L479.416 302.25L478.774 304.692L474.701 303.621L474.615 303.947L464.588 301.312L465.315 298.544Z" fill="#236FE3"/>
<path d="M459.091 318.727C459.651 317.045 460.479 315.798 461.574 314.986C462.669 314.175 463.932 313.874 465.36 314.084L464.871 316.966C464.096 316.898 463.398 317.102 462.775 317.577C462.157 318.064 461.695 318.769 461.388 319.691C461.109 320.528 461.063 321.238 461.248 321.821C461.43 322.413 461.82 322.809 462.418 323.008C462.768 323.124 463.079 323.133 463.349 323.033C463.625 322.945 463.949 322.668 464.322 322.204C464.695 321.74 465.207 321.014 465.858 320.026C466.56 318.942 467.203 318.108 467.787 317.524C468.375 316.952 468.954 316.594 469.524 316.452C470.098 316.321 470.723 316.367 471.398 316.592C472.235 316.871 472.891 317.336 473.366 317.987C473.842 318.639 474.117 319.423 474.191 320.339C474.263 321.264 474.118 322.269 473.757 323.353C473.404 324.412 472.924 325.3 472.315 326.018C471.706 326.735 471.009 327.248 470.224 327.555C469.447 327.866 468.632 327.936 467.778 327.766L468.191 324.858C468.888 324.986 469.517 324.849 470.077 324.448C470.638 324.046 471.076 323.428 471.392 322.594C471.696 321.794 471.778 321.091 471.638 320.485C471.507 319.882 471.177 319.492 470.648 319.316C470.34 319.214 470.048 319.221 469.772 319.338C469.494 319.463 469.163 319.77 468.782 320.26C468.401 320.75 467.893 321.491 467.259 322.485C466.574 323.547 465.934 324.358 465.339 324.919C464.753 325.483 464.16 325.826 463.559 325.949C462.964 326.083 462.313 326.032 461.604 325.796C460.238 325.341 459.332 324.485 458.888 323.227C458.44 321.978 458.508 320.478 459.091 318.727Z" fill="#236FE3"/>
<path d="M452.941 335.986L459.575 338.705C460.099 338.92 460.655 339.094 461.242 339.228C461.834 339.373 462.419 339.418 462.996 339.363C463.57 339.316 464.094 339.127 464.57 338.797C465.043 338.475 465.425 337.956 465.719 337.24C465.91 336.773 466.012 336.299 466.024 335.818C466.045 335.34 465.949 334.873 465.738 334.417C465.523 333.969 465.174 333.539 464.691 333.127C464.204 332.723 463.561 332.358 462.762 332.03L464.04 330.657C465.264 331.159 466.248 331.83 466.993 332.67C467.747 333.514 468.21 334.472 468.383 335.545C468.556 336.618 468.394 337.762 467.895 338.978C467.513 339.91 467.042 340.632 466.483 341.142C465.924 341.652 465.319 342.002 464.667 342.192C464.02 342.394 463.367 342.481 462.707 342.454C462.047 342.427 461.427 342.338 460.846 342.187C460.266 342.037 459.768 341.877 459.351 341.706L451.856 338.635L452.941 335.986ZM456.827 326.505L474.815 333.877L473.858 336.213L464.152 332.235L464.024 332.547L455.742 329.153L456.827 326.505Z" fill="#236FE3"/>
<path d="M448.561 344.525C449.037 343.555 449.613 342.831 450.289 342.35C450.974 341.874 451.694 341.611 452.451 341.561C453.211 341.523 453.947 341.678 454.658 342.027C455.32 342.352 455.845 342.755 456.231 343.235C456.617 343.715 456.871 344.27 456.992 344.901C457.122 345.536 457.131 346.242 457.021 347.02C456.905 347.685 456.731 348.417 456.5 349.216C456.269 350.014 456.011 350.846 455.728 351.709C455.441 352.581 455.158 353.444 454.879 354.3L454.821 353.129C455.84 353.648 456.706 353.803 457.421 353.592C458.14 353.393 458.767 352.748 459.302 351.658C459.639 350.971 459.787 350.261 459.745 349.529C459.711 348.801 459.382 348.143 458.758 347.556L460.644 345.549C461.609 346.423 462.2 347.476 462.419 348.705C462.634 349.944 462.371 351.318 461.63 352.829C461.055 354.001 460.354 354.92 459.525 355.586C458.701 356.265 457.758 356.594 456.695 356.574C456.164 356.574 455.648 356.481 455.148 356.296C454.647 356.111 454.122 355.883 453.573 355.614L445.512 351.661L446.612 349.418L449.606 350.887L449.004 351.133C448.268 350.1 447.859 349.043 447.778 347.96C447.702 346.89 447.963 345.745 448.561 344.525ZM450.414 345.99C450.061 346.709 449.883 347.389 449.88 348.029C449.885 348.673 450.008 349.249 450.249 349.759C450.491 350.268 450.802 350.676 451.182 350.983C451.503 351.311 451.902 351.602 452.379 351.856C452.851 352.118 453.233 352.32 453.524 352.463L452.817 353.138C453.088 352.279 453.336 351.498 453.56 350.796C453.784 350.094 453.978 349.452 454.143 348.872C454.312 348.303 454.432 347.781 454.505 347.305C454.554 346.898 454.561 346.516 454.527 346.158C454.488 345.808 454.387 345.493 454.223 345.212C454.056 344.94 453.799 344.718 453.452 344.548C453.112 344.382 452.755 344.312 452.381 344.339C452.015 344.37 451.662 344.517 451.322 344.782C450.982 345.046 450.679 345.449 450.414 345.99Z" fill="#236FE3"/>
<path d="M439.336 362.515L445.548 366.093C446.039 366.376 446.567 366.623 447.131 366.834C447.698 367.056 448.272 367.179 448.851 367.201C449.426 367.231 449.971 367.114 450.487 366.85C450.998 366.594 451.446 366.13 451.833 365.46C452.084 365.023 452.248 364.567 452.324 364.092C452.409 363.621 452.376 363.145 452.227 362.665C452.074 362.192 451.785 361.719 451.361 361.247C450.933 360.782 450.345 360.334 449.596 359.903L451.045 358.712C452.191 359.372 453.078 360.169 453.704 361.101C454.339 362.037 454.67 363.049 454.699 364.135C454.727 365.221 454.414 366.334 453.758 367.472C453.255 368.346 452.692 368.998 452.07 369.429C451.448 369.86 450.801 370.126 450.13 370.228C449.462 370.342 448.803 370.341 448.153 370.226C447.502 370.111 446.899 369.941 446.344 369.714C445.789 369.488 445.316 369.263 444.927 369.038L437.907 364.996L439.336 362.515ZM444.45 353.636L457.084 360.913L455.824 363.1L452.174 360.998L452.006 361.291L443.021 356.116L444.45 353.636Z" fill="#236FE3"/>
<path d="M432.944 371.751C433.703 370.624 434.638 369.838 435.751 369.393C436.859 368.956 438.045 368.838 439.31 369.038C440.577 369.251 441.815 369.764 443.025 370.578C444.242 371.397 445.178 372.352 445.832 373.443C446.494 374.539 446.824 375.684 446.824 376.877C446.826 378.083 446.446 379.253 445.682 380.388C444.913 381.53 443.988 382.302 442.905 382.701C441.825 383.113 440.67 383.193 439.44 382.941C438.206 382.696 436.984 382.166 435.774 381.352C434.565 380.538 433.614 379.606 432.922 378.554C432.23 377.503 431.864 376.394 431.824 375.229C431.792 374.068 432.165 372.909 432.944 371.751ZM434.842 373.501C434.325 374.27 434.085 375.02 434.125 375.751C434.164 376.483 434.429 377.177 434.921 377.833C435.412 378.489 436.076 379.098 436.912 379.661C437.749 380.224 438.566 380.606 439.364 380.806C440.156 381.014 440.893 381 441.573 380.763C442.248 380.534 442.832 380.054 443.324 379.322C443.847 378.545 444.086 377.779 444.042 377.022C443.997 376.266 443.737 375.548 443.261 374.87C442.779 374.199 442.143 373.597 441.352 373.064C440.553 372.527 439.748 372.159 438.938 371.961C438.13 371.775 437.372 371.797 436.664 372.026C435.952 372.262 435.345 372.754 434.842 373.501ZM430.853 375.584L439.556 381.44L439.736 381.171L447.162 386.168L445.579 388.52L429.451 377.667L430.853 375.584Z" fill="#236FE3"/>
<path d="M423.271 385.078C424.161 383.935 425.192 383.123 426.364 382.644C427.537 382.178 428.759 382.052 430.03 382.266C431.302 382.492 432.531 383.067 433.717 383.991C434.974 384.97 435.881 386.053 436.439 387.24C436.992 388.435 437.191 389.651 437.037 390.889C436.883 392.126 436.369 393.306 435.496 394.428C434.583 395.6 433.533 396.384 432.344 396.782C431.163 397.185 429.914 397.2 428.598 396.824C427.276 396.457 425.96 395.694 424.649 394.535L426.382 392.309L427.192 392.94C428.538 393.965 429.724 394.479 430.75 394.479C431.771 394.487 432.673 393.987 433.459 392.979C434.327 391.864 434.628 390.752 434.362 389.644C434.096 388.535 433.299 387.464 431.971 386.43C430.708 385.446 429.509 384.963 428.377 384.982C427.251 385.006 426.276 385.547 425.452 386.605C424.91 387.301 424.599 388.023 424.519 388.77C424.44 389.53 424.585 390.282 424.953 391.025L422.56 392.669C421.879 391.42 421.608 390.12 421.748 388.768C421.895 387.423 422.403 386.192 423.271 385.078ZM431.907 385.216L433.643 386.568L427.247 394.78L425.511 393.428L431.907 385.216Z" fill="#236FE3"/>
<path d="M417.966 392.219L433.028 405.141L431.191 407.282L416.129 394.36L417.966 392.219Z" fill="#236FE3"/>
<path d="M410.362 400.9L419.574 419.147L416.691 422.01L398.511 412.665L400.59 410.601L417.217 419.091L416.699 419.604L408.283 402.964L410.362 400.9ZM411.125 406.325L412.989 408.203L405.784 415.355L403.92 413.477L411.125 406.325Z" fill="#236FE3"/>
<path d="M392.081 417.551C393.139 416.643 394.247 416.137 395.404 416.034C396.566 415.938 397.71 416.172 398.835 416.737C399.96 417.302 400.997 418.137 401.946 419.244C402.896 420.35 403.567 421.5 403.961 422.691C404.348 423.889 404.403 425.045 404.127 426.16C403.849 427.288 403.188 428.3 402.142 429.196C401.104 430.087 399.99 430.599 398.799 430.731C397.607 430.876 396.428 430.684 395.262 430.154C394.102 429.631 393.045 428.813 392.089 427.7C391.14 426.593 390.489 425.42 390.137 424.181C389.785 422.954 389.764 421.762 390.076 420.605C390.381 419.454 391.049 418.436 392.081 417.551ZM397.549 413.393L410.207 428.147L408.056 429.993L402.228 423.2L402.474 422.989L395.644 415.028L397.549 413.393ZM394.039 419.233C393.356 419.819 392.942 420.476 392.797 421.206C392.645 421.941 392.712 422.696 392.997 423.471C393.281 424.258 393.737 425.018 394.364 425.749C394.985 426.473 395.661 427.032 396.39 427.426C397.113 427.826 397.852 428.003 398.609 427.959C399.365 427.915 400.099 427.588 400.809 426.979C401.478 426.404 401.891 425.766 402.047 425.063C402.196 424.366 402.124 423.633 401.832 422.864C401.533 422.1 401.055 421.336 400.399 420.571C399.743 419.806 399.06 419.218 398.351 418.806C397.642 418.394 396.922 418.212 396.191 418.258C395.46 418.304 394.743 418.629 394.039 419.233Z" fill="#236FE3"/>
<path d="M368.989 435.32L379.183 451.873L369.377 457.912L367.898 455.509L375.301 450.95L372.427 446.283L366.403 449.993L364.916 447.579L370.94 443.869L366.586 436.8L368.989 435.32Z" fill="#236FE3"/>
<path d="M365.346 457.276L366.679 459.67L364.213 461.042L362.881 458.647L365.346 457.276ZM357.095 442.447L364.184 455.188L361.719 456.559L354.629 443.819L357.095 442.447Z" fill="#236FE3"/>
<path d="M342.504 450.018L345.684 456.442C345.936 456.95 346.238 457.449 346.59 457.937C346.938 458.437 347.347 458.858 347.817 459.198C348.278 459.541 348.797 459.747 349.372 459.813C349.939 459.884 350.57 459.748 351.263 459.404C351.715 459.181 352.105 458.893 352.432 458.54C352.763 458.195 353.001 457.781 353.143 457.299C353.278 456.82 353.3 456.267 353.21 455.639C353.112 455.014 352.871 454.315 352.488 453.541L354.354 453.355C354.941 454.541 355.237 455.695 355.24 456.818C355.248 457.949 354.962 458.974 354.383 459.894C353.804 460.813 352.925 461.564 351.748 462.147C350.844 462.595 350.014 462.825 349.257 462.838C348.501 462.851 347.815 462.713 347.2 462.425C346.582 462.149 346.034 461.783 345.556 461.326C345.079 460.869 344.673 460.393 344.337 459.896C344 459.4 343.732 458.95 343.533 458.547L339.939 451.288L342.504 450.018ZM351.687 445.472L358.156 458.538L355.893 459.658L354.024 455.883L353.722 456.033L349.122 446.742L351.687 445.472Z" fill="#236FE3"/>
<path d="M333.527 453.504C334.525 453.09 335.437 452.927 336.262 453.014C337.09 453.109 337.805 453.388 338.405 453.851C339.001 454.325 339.45 454.928 339.754 455.659C340.036 456.341 340.163 456.99 340.136 457.605C340.108 458.221 339.931 458.805 339.606 459.359C339.283 459.921 338.823 460.457 338.226 460.968C337.7 461.39 337.086 461.825 336.384 462.271C335.683 462.718 334.94 463.171 334.157 463.632C333.365 464.096 332.582 464.557 331.807 465.015L332.538 464.098C332.959 465.161 333.507 465.85 334.183 466.164C334.854 466.49 335.75 466.421 336.873 465.956C337.58 465.663 338.159 465.228 338.612 464.651C339.068 464.082 339.256 463.371 339.175 462.518L341.917 462.259C342.063 463.553 341.812 464.733 341.163 465.801C340.506 466.872 339.4 467.729 337.845 468.373C336.639 468.873 335.506 469.099 334.444 469.051C333.377 469.016 332.451 468.639 331.667 467.922C331.268 467.571 330.942 467.16 330.689 466.69C330.436 466.22 330.193 465.703 329.958 465.137L326.523 456.843L328.83 455.887L330.106 458.968L329.492 458.755C329.622 457.493 330.015 456.43 330.669 455.564C331.319 454.711 332.272 454.024 333.527 453.504ZM333.949 455.828C333.209 456.134 332.626 456.527 332.201 457.005C331.779 457.491 331.49 458.005 331.335 458.547C331.179 459.089 331.143 459.601 331.226 460.083C331.25 460.54 331.357 461.022 331.547 461.528C331.728 462.037 331.881 462.441 332.005 462.741L331.028 462.78C331.799 462.315 332.501 461.892 333.133 461.514C333.766 461.135 334.335 460.782 334.843 460.455C335.345 460.14 335.781 459.828 336.15 459.519C336.456 459.246 336.714 458.964 336.925 458.672C337.127 458.384 337.259 458.081 337.322 457.762C337.377 457.447 337.33 457.111 337.182 456.754C337.037 456.404 336.816 456.116 336.517 455.889C336.222 455.67 335.86 455.548 335.43 455.521C335 455.495 334.506 455.597 333.949 455.828Z" fill="#236FE3"/>
<path d="M314.644 460.876L316.934 467.669C317.115 468.206 317.348 468.741 317.631 469.272C317.909 469.814 318.258 470.286 318.678 470.686C319.089 471.088 319.575 471.361 320.136 471.505C320.689 471.651 321.332 471.6 322.065 471.353C322.543 471.192 322.968 470.959 323.339 470.653C323.714 470.356 324.004 469.977 324.211 469.519C324.408 469.063 324.505 468.517 324.5 467.883C324.486 467.251 324.341 466.525 324.065 465.707L325.94 465.773C326.362 467.027 326.5 468.21 326.353 469.324C326.209 470.445 325.788 471.423 325.091 472.256C324.394 473.09 323.422 473.716 322.177 474.136C321.222 474.458 320.369 474.575 319.617 474.486C318.865 474.398 318.204 474.169 317.634 473.801C317.058 473.445 316.564 473.008 316.152 472.491C315.741 471.975 315.402 471.448 315.135 470.911C314.869 470.374 314.663 469.892 314.52 469.466L311.932 461.79L314.644 460.876ZM324.354 457.603L329.011 471.419L326.619 472.226L325.274 468.234L324.954 468.342L321.642 458.517L324.354 457.603Z" fill="#236FE3"/>
<path d="M303.87 463.508C305.585 463.057 307.082 463.068 308.36 463.542C309.638 464.016 310.58 464.908 311.186 466.219L308.505 467.385C308.138 466.699 307.586 466.226 306.847 465.964C306.102 465.713 305.259 465.711 304.319 465.958C303.466 466.182 302.846 466.532 302.459 467.006C302.063 467.482 301.945 468.025 302.105 468.634C302.199 468.991 302.361 469.255 302.593 469.427C302.818 469.61 303.226 469.731 303.818 469.789C304.411 469.847 305.299 469.879 306.482 469.884C307.774 469.88 308.824 469.962 309.632 470.131C310.433 470.312 311.048 470.601 311.479 471C311.903 471.409 312.205 471.958 312.386 472.646C312.61 473.499 312.58 474.302 312.294 475.057C312.009 475.811 311.502 476.47 310.776 477.033C310.04 477.599 309.12 478.027 308.015 478.317C306.935 478.601 305.929 478.684 304.995 478.567C304.062 478.449 303.251 478.146 302.564 477.656C301.88 477.175 301.375 476.531 301.051 475.723L303.711 474.479C303.986 475.133 304.444 475.585 305.087 475.835C305.729 476.084 306.486 476.113 307.357 475.922C308.193 475.739 308.827 475.424 309.258 474.975C309.691 474.536 309.837 474.046 309.695 473.506C309.613 473.193 309.447 472.953 309.199 472.786C308.941 472.621 308.503 472.512 307.885 472.461C307.266 472.409 306.368 472.39 305.189 472.402C303.925 472.408 302.896 472.316 302.101 472.125C301.309 471.942 300.697 471.633 300.266 471.197C299.829 470.772 299.515 470.199 299.325 469.476C298.959 468.084 299.181 466.857 299.992 465.798C300.793 464.74 302.086 463.977 303.87 463.508Z" fill="#236FE3"/>
<path d="M286.336 467.749L287.706 474.786C287.814 475.342 287.974 475.902 288.185 476.467C288.388 477.041 288.672 477.555 289.035 478.006C289.389 478.46 289.835 478.795 290.372 479.011C290.9 479.229 291.544 479.265 292.304 479.117C292.799 479.02 293.251 478.845 293.66 478.591C294.07 478.346 294.408 478.01 294.674 477.583C294.93 477.157 295.098 476.629 295.177 475.999C295.247 475.371 295.2 474.633 295.034 473.785L296.884 474.099C297.136 475.398 297.116 476.589 296.823 477.673C296.531 478.766 295.985 479.679 295.183 480.413C294.382 481.146 293.336 481.639 292.046 481.89C291.057 482.083 290.196 482.085 289.462 481.898C288.729 481.711 288.104 481.397 287.587 480.956C287.063 480.527 286.632 480.028 286.292 479.462C285.953 478.895 285.686 478.328 285.493 477.761C285.3 477.193 285.161 476.689 285.075 476.247L283.527 468.296L286.336 467.749ZM296.394 465.791L300.109 484.873L297.631 485.355L295.626 475.059L295.295 475.123L293.584 466.338L296.394 465.791Z" fill="#236FE3"/>
<path d="M276.793 468.756C277.864 468.624 278.786 468.709 279.558 469.012C280.332 469.324 280.946 469.783 281.402 470.389C281.85 471.004 282.123 471.705 282.221 472.491C282.311 473.223 282.262 473.883 282.071 474.468C281.881 475.054 281.555 475.571 281.093 476.018C280.633 476.474 280.047 476.869 279.336 477.202C278.716 477.469 278.008 477.724 277.213 477.968C276.418 478.212 275.582 478.451 274.704 478.687C273.818 478.924 272.94 479.16 272.071 479.394L273.02 478.706C273.142 479.842 273.488 480.652 274.055 481.135C274.615 481.627 275.498 481.799 276.704 481.65C277.463 481.556 278.138 481.291 278.727 480.855C279.318 480.428 279.689 479.792 279.838 478.949L282.55 479.429C282.347 480.715 281.79 481.786 280.881 482.642C279.962 483.499 278.668 484.032 276.997 484.239C275.702 484.399 274.549 484.315 273.538 483.987C272.519 483.669 271.727 483.06 271.162 482.16C270.872 481.715 270.667 481.233 270.548 480.712C270.429 480.192 270.332 479.628 270.256 479.021L269.152 470.111L271.631 469.804L272.041 473.113L271.505 472.745C271.967 471.563 272.628 470.642 273.489 469.982C274.343 469.332 275.444 468.924 276.793 468.756ZM276.581 471.109C275.786 471.207 275.12 471.43 274.582 471.778C274.046 472.135 273.631 472.554 273.337 473.034C273.043 473.515 272.872 473.999 272.823 474.486C272.724 474.933 272.699 475.426 272.748 475.964C272.788 476.503 272.827 476.934 272.867 477.255L271.915 477.033C272.782 476.79 273.571 476.569 274.281 476.373C274.991 476.176 275.635 475.987 276.211 475.807C276.779 475.637 277.282 475.452 277.72 475.253C278.088 475.071 278.412 474.868 278.692 474.642C278.963 474.418 279.172 474.161 279.317 473.871C279.454 473.582 279.498 473.246 279.451 472.862C279.404 472.486 279.267 472.15 279.04 471.851C278.813 471.562 278.497 471.347 278.089 471.207C277.682 471.068 277.179 471.035 276.581 471.109Z" fill="#236FE3"/>
<path d="M256.633 470.903L257.048 478.06C257.081 478.626 257.164 479.203 257.297 479.79C257.422 480.387 257.634 480.933 257.933 481.43C258.223 481.927 258.62 482.319 259.123 482.605C259.618 482.892 260.251 483.013 261.024 482.968C261.527 482.939 261.998 482.826 262.438 482.629C262.878 482.441 263.258 482.154 263.578 481.765C263.889 481.378 264.126 480.877 264.289 480.264C264.442 479.651 264.494 478.913 264.444 478.051L266.235 478.609C266.311 479.93 266.131 481.108 265.696 482.143C265.26 483.187 264.596 484.019 263.704 484.638C262.811 485.258 261.709 485.606 260.397 485.682C259.391 485.74 258.537 485.627 257.835 485.344C257.133 485.06 256.556 484.665 256.103 484.159C255.642 483.663 255.281 483.112 255.02 482.505C254.76 481.898 254.572 481.3 254.457 480.712C254.341 480.123 254.271 479.605 254.245 479.155L253.776 471.069L256.633 470.903ZM266.863 470.311L267.706 484.866L265.186 485.012L264.942 480.807L264.605 480.827L264.005 470.476L266.863 470.311Z" fill="#236FE3"/>
<path d="M244.5 470.616C245.859 470.637 247.028 470.993 248.008 471.683C248.978 472.373 249.725 473.303 250.247 474.472C250.759 475.65 251.005 476.968 250.982 478.426C250.959 479.892 250.669 481.198 250.112 482.341C249.554 483.494 248.775 484.395 247.775 485.046C246.765 485.705 245.577 486.024 244.209 486.003C242.832 485.982 241.681 485.627 240.755 484.937C239.821 484.257 239.124 483.333 238.665 482.164C238.197 480.996 237.974 479.683 237.997 478.225C238.019 476.767 238.282 475.462 238.786 474.308C239.29 473.155 240.02 472.244 240.975 471.574C241.931 470.914 243.106 470.594 244.5 470.616ZM244.07 473.161C243.143 473.147 242.383 473.356 241.792 473.788C241.2 474.22 240.763 474.82 240.481 475.59C240.199 476.36 240.05 477.249 240.035 478.256C240.019 479.264 240.145 480.157 240.412 480.936C240.67 481.714 241.084 482.323 241.653 482.764C242.213 483.205 242.934 483.432 243.816 483.445C244.752 483.46 245.525 483.242 246.135 482.793C246.745 482.343 247.205 481.734 247.514 480.964C247.813 480.195 247.971 479.333 247.985 478.379C248 477.416 247.87 476.541 247.594 475.754C247.309 474.975 246.878 474.352 246.3 473.884C245.713 473.416 244.969 473.175 244.07 473.161ZM240.148 470.954L239.986 481.442L240.31 481.447L240.171 490.397L237.337 490.353L237.637 470.915L240.148 470.954Z" fill="#236FE3"/>
<path d="M228.137 469.799C229.581 469.916 230.825 470.333 231.868 471.05C232.902 471.775 233.678 472.727 234.196 473.907C234.705 475.095 234.898 476.438 234.776 477.936C234.648 479.524 234.24 480.877 233.553 481.995C232.857 483.112 231.95 483.946 230.831 484.496C229.712 485.047 228.443 485.264 227.026 485.149C225.546 485.029 224.314 484.581 223.329 483.806C222.344 483.04 221.647 482.004 221.238 480.697C220.821 479.39 220.736 477.871 220.985 476.139L223.797 476.368L223.714 477.39C223.595 479.078 223.817 480.351 224.38 481.21C224.933 482.067 225.847 482.548 227.12 482.651C228.529 482.765 229.623 482.407 230.404 481.577C231.185 480.746 231.643 479.492 231.779 477.815C231.909 476.218 231.655 474.951 231.018 474.015C230.38 473.087 229.393 472.569 228.056 472.46C227.177 472.389 226.403 472.525 225.734 472.868C225.055 473.219 224.506 473.752 224.087 474.468L221.4 473.369C222.07 472.115 223.009 471.175 224.215 470.55C225.421 469.935 226.728 469.684 228.137 469.799ZM232.759 477.095L232.581 479.288L222.206 478.446L222.385 476.253L232.759 477.095Z" fill="#236FE3"/>
<path d="M219.222 469.255L216.63 488.93L213.832 488.561L216.424 468.886L219.222 469.255Z" fill="#236FE3"/>
<path d="M207.742 467.613L197.486 485.295L193.513 484.442L191.414 464.11L194.278 464.724L196.246 483.289L195.533 483.136L204.878 466.999L207.742 467.613ZM203.614 471.215L203.059 473.802L193.133 471.672L193.688 469.085L203.614 471.215Z" fill="#236FE3"/>
<path d="M183.929 461.406C185.268 461.797 186.297 462.448 187.015 463.361C187.731 464.282 188.16 465.367 188.302 466.618C188.444 467.869 188.31 469.194 187.903 470.594C187.495 471.993 186.899 473.184 186.116 474.165C185.325 475.144 184.387 475.822 183.302 476.199C182.206 476.583 180.997 476.582 179.675 476.197C178.361 475.814 177.324 475.16 176.562 474.235C175.789 473.316 175.306 472.224 175.113 470.958C174.917 469.701 175.024 468.368 175.434 466.96C175.842 465.56 176.469 464.374 177.315 463.402C178.149 462.436 179.136 461.767 180.276 461.396C181.406 461.023 182.624 461.026 183.929 461.406ZM190.4 463.714L184.96 482.378L182.239 481.584L184.743 472.991L185.054 473.082L187.989 463.012L190.4 463.714ZM183.591 463.966C182.727 463.714 181.95 463.726 181.26 464.003C180.561 464.278 179.965 464.746 179.472 465.409C178.968 466.077 178.581 466.874 178.312 467.798C178.045 468.714 177.945 469.585 178.014 470.412C178.074 471.235 178.329 471.952 178.78 472.561C179.23 473.171 179.905 473.606 180.803 473.868C181.65 474.115 182.41 474.111 183.084 473.858C183.749 473.602 184.324 473.141 184.809 472.476C185.284 471.809 185.663 470.991 185.945 470.023C186.227 469.056 186.347 468.162 186.305 467.344C186.262 466.525 186.021 465.822 185.583 465.235C185.145 464.648 184.481 464.225 183.591 463.966Z" fill="#236FE3"/>
<path d="M156.595 451.761L148.295 469.34L137.881 464.423L139.086 461.872L146.948 465.584L149.288 460.627L142.891 457.607L144.102 455.043L150.498 458.064L154.043 450.556L156.595 451.761Z" fill="#236FE3"/>
<path d="M136.225 460.681L134.946 463.104L132.451 461.787L133.73 459.364L136.225 460.681ZM144.146 445.673L137.341 458.567L134.845 457.251L141.651 444.356L144.146 445.673Z" fill="#236FE3"/>
<path d="M129.826 437.531L126.157 443.689C125.867 444.177 125.613 444.701 125.394 445.262C125.162 445.826 125.032 446.397 125.001 446.976C124.963 447.55 125.072 448.097 125.328 448.617C125.576 449.131 126.033 449.587 126.698 449.983C127.131 450.241 127.585 450.411 128.059 450.495C128.528 450.586 129.004 450.561 129.487 450.419C129.962 450.272 130.439 449.99 130.918 449.574C131.389 449.152 131.845 448.571 132.287 447.828L133.457 449.295C132.779 450.431 131.97 451.306 131.029 451.919C130.083 452.539 129.067 452.856 127.981 452.868C126.894 452.881 125.786 452.551 124.658 451.879C123.792 451.363 123.148 450.791 122.726 450.162C122.304 449.534 122.047 448.883 121.956 448.21C121.852 447.541 121.862 446.882 121.986 446.233C122.111 445.585 122.29 444.984 122.525 444.433C122.759 443.881 122.992 443.412 123.222 443.025L127.367 436.066L129.826 437.531ZM138.629 442.775L131.167 455.301L128.998 454.009L131.154 450.39L130.864 450.217L136.17 441.31L138.629 442.775Z" fill="#236FE3"/>
<path d="M122.058 431.936C122.947 432.549 123.58 433.225 123.955 433.965C124.326 434.712 124.48 435.463 124.419 436.219C124.345 436.977 124.083 437.682 123.634 438.334C123.215 438.941 122.74 439.401 122.209 439.712C121.677 440.024 121.09 440.193 120.448 440.221C119.801 440.256 119.101 440.162 118.348 439.938C117.707 439.726 117.009 439.447 116.253 439.101C115.496 438.755 114.712 438.378 113.899 437.971C113.079 437.559 112.267 437.153 111.462 436.751L112.628 436.866C111.965 437.797 111.685 438.631 111.789 439.37C111.88 440.11 112.425 440.825 113.426 441.514C114.056 441.948 114.736 442.198 115.466 442.264C116.192 442.338 116.891 442.109 117.563 441.577L119.271 443.738C118.265 444.564 117.137 444.995 115.888 445.03C114.632 445.061 113.311 444.599 111.925 443.644C110.851 442.904 110.045 442.075 109.507 441.158C108.957 440.244 108.769 439.262 108.945 438.214C109.023 437.688 109.191 437.192 109.447 436.724C109.704 436.256 110.006 435.77 110.353 435.266L115.447 427.873L117.504 429.29L115.612 432.036L115.457 431.405C116.586 430.828 117.692 430.579 118.775 430.658C119.844 430.739 120.939 431.165 122.058 431.936ZM120.337 433.554C119.677 433.099 119.031 432.824 118.398 432.727C117.761 432.637 117.172 432.674 116.633 432.838C116.094 433.002 115.644 433.25 115.285 433.581C114.914 433.85 114.568 434.202 114.246 434.636C113.918 435.066 113.662 435.414 113.478 435.681L112.913 434.882C113.724 435.276 114.459 435.636 115.121 435.96C115.783 436.285 116.389 436.571 116.939 436.82C117.477 437.07 117.976 437.266 118.435 437.408C118.831 437.516 119.208 437.579 119.567 437.597C119.919 437.61 120.246 437.557 120.547 437.436C120.841 437.311 121.098 437.089 121.317 436.77C121.532 436.459 121.653 436.117 121.681 435.743C121.704 435.376 121.61 435.005 121.399 434.63C121.187 434.255 120.833 433.896 120.337 433.554Z" fill="#236FE3"/>
<path d="M105.643 420.167L101.197 425.79C100.845 426.235 100.524 426.721 100.233 427.248C99.9297 427.777 99.7248 428.326 99.6184 428.896C99.505 429.461 99.5412 430.017 99.727 430.565C99.9058 431.108 100.299 431.62 100.906 432.1C101.301 432.413 101.729 432.641 102.188 432.786C102.641 432.938 103.116 432.976 103.613 432.898C104.104 432.815 104.613 432.599 105.143 432.249C105.665 431.893 106.194 431.376 106.73 430.698L107.696 432.306C106.876 433.343 105.959 434.104 104.945 434.588C103.926 435.079 102.877 435.259 101.798 435.129C100.719 434.999 99.6646 434.526 98.6339 433.711C97.8432 433.086 97.28 432.434 96.9444 431.756C96.6088 431.077 96.4398 430.399 96.4373 429.72C96.4222 429.042 96.519 428.39 96.7276 427.764C96.9363 427.137 97.1931 426.566 97.4979 426.049C97.8028 425.533 98.0948 425.099 98.3739 424.746L103.398 418.392L105.643 420.167ZM113.68 426.522L104.638 437.959L102.657 436.393L105.27 433.089L105.005 432.88L111.435 424.747L113.68 426.522Z" fill="#236FE3"/>
<path d="M97.5534 412.582C98.8693 413.771 99.6789 415.029 99.9823 416.358C100.286 417.688 100.054 418.964 99.2884 420.188L96.8458 418.583C97.2189 417.901 97.3128 417.179 97.1274 416.418C96.9294 415.657 96.4697 414.951 95.7483 414.299C95.0937 413.708 94.4621 413.38 93.8534 413.316C93.2381 413.245 92.7193 413.443 92.2971 413.911C92.0497 414.185 91.9175 414.466 91.9003 414.753C91.8703 415.041 91.9931 415.449 92.2684 415.977C92.5438 416.505 93.0031 417.265 93.6463 418.258C94.3576 419.337 94.8634 420.261 95.1638 421.029C95.4515 421.798 95.5463 422.472 95.4483 423.051C95.3376 423.63 95.044 424.183 94.5675 424.711C93.9763 425.365 93.2869 425.78 92.4992 425.954C91.7116 426.128 90.8832 426.065 90.014 425.765C89.1382 425.459 88.2761 424.923 87.4278 424.157C86.5996 423.409 85.9791 422.612 85.5665 421.766C85.1539 420.921 84.9643 420.077 84.9979 419.234C85.0254 418.398 85.2886 417.623 85.7875 416.909L88.2845 418.455C87.8875 419.042 87.7603 419.673 87.903 420.348C88.0456 421.022 88.4355 421.671 89.0727 422.295C89.6831 422.895 90.2939 423.253 90.9052 423.368C91.5104 423.49 92 423.344 92.374 422.93C92.5911 422.69 92.7016 422.42 92.7055 422.12C92.7027 421.814 92.5535 421.388 92.2581 420.843C91.9627 420.297 91.4874 419.534 90.8321 418.554C90.1348 417.5 89.6487 416.588 89.3737 415.819C89.0927 415.055 89.0166 414.374 89.1454 413.775C89.2615 413.177 89.5699 412.6 90.0706 412.046C91.0357 410.977 92.1835 410.492 93.5139 410.59C94.8376 410.682 96.1841 411.346 97.5534 412.582Z" fill="#236FE3"/>
<path d="M84.4121 400.218L79.27 405.213C78.8633 405.608 78.4814 406.048 78.1243 406.533C77.7545 407.017 77.4796 407.535 77.2998 408.086C77.1137 408.631 77.0769 409.187 77.1896 409.755C77.296 410.317 77.6189 410.875 78.1581 411.431C78.5093 411.792 78.903 412.075 79.3392 412.278C79.769 412.488 80.2353 412.587 80.7383 412.576C81.235 412.557 81.7686 412.409 82.3391 412.131C82.9033 411.847 83.4953 411.403 84.1151 410.801L84.8634 412.521C83.9144 413.443 82.9059 414.077 81.838 414.425C80.7636 414.778 79.7001 414.82 78.6474 414.55C77.5948 414.28 76.6108 413.674 75.6952 412.731C74.9929 412.008 74.5196 411.289 74.2754 410.572C74.0313 409.856 73.9523 409.161 74.0384 408.488C74.1119 407.814 74.2929 407.18 74.5816 406.586C74.8703 405.992 75.1994 405.459 75.5691 404.987C75.9387 404.515 76.285 404.122 76.6077 403.809L82.418 398.165L84.4121 400.218ZM91.5515 407.568L77.6069 421.113L75.8479 419.302L83.3722 411.993L83.137 411.751L89.5573 405.515L91.5515 407.568Z" fill="#236FE3"/>
<path d="M78.4002 392.845C79.1004 393.667 79.5361 394.484 79.7073 395.296C79.8716 396.113 79.8262 396.879 79.5711 397.593C79.3033 398.305 78.8679 398.919 78.2649 399.432C77.703 399.911 77.1251 400.231 76.531 400.394C75.937 400.557 75.3263 400.569 74.6991 400.43C74.065 400.296 73.4132 400.023 72.7439 399.612C72.1799 399.241 71.5775 398.791 70.9369 398.261C70.2963 397.73 69.6362 397.164 68.9567 396.56C68.2714 395.95 67.592 395.346 66.9184 394.75L68.0153 395.163C67.1334 395.89 66.6469 396.624 66.5557 397.364C66.4518 398.102 66.7937 398.934 67.5815 399.859C68.0775 400.442 68.6697 400.859 69.3581 401.112C70.0396 401.371 70.7738 401.331 71.5607 400.992L72.6509 403.521C71.465 404.058 70.2644 404.182 69.049 403.894C67.8277 403.598 66.6715 402.809 65.5803 401.528C64.7342 400.534 64.1702 399.525 63.8885 398.5C63.594 397.474 63.6675 396.478 64.1089 395.511C64.3203 395.023 64.6107 394.587 64.9799 394.202C65.3492 393.816 65.7668 393.425 66.2327 393.028L73.0676 387.208L74.6869 389.109L72.1482 391.271L72.162 390.621C73.4026 390.357 74.5354 390.403 75.5602 390.759C76.5724 391.115 77.519 391.81 78.4002 392.845ZM76.3187 393.961C75.7994 393.351 75.2468 392.918 74.6609 392.66C74.0682 392.408 73.4902 392.292 72.9269 392.31C72.3635 392.329 71.8653 392.452 71.4321 392.679C71.004 392.843 70.5785 393.093 70.1558 393.429C69.7271 393.758 69.3895 394.028 69.1428 394.238L68.8046 393.321C69.485 393.911 70.1027 394.449 70.6576 394.934C71.2125 395.419 71.7236 395.853 72.1909 396.235C72.6456 396.616 73.0766 396.935 73.4838 397.191C73.8375 397.398 74.1855 397.557 74.5278 397.667C74.8642 397.771 75.1936 397.804 75.5159 397.766C75.8323 397.721 76.1378 397.573 76.4325 397.322C76.7203 397.077 76.9262 396.777 77.0503 396.423C77.1676 396.075 77.1728 395.693 77.0657 395.276C76.9587 394.858 76.7097 394.42 76.3187 393.961Z" fill="#236FE3"/>
<path d="M65.4612 377.022L59.6951 381.281C59.239 381.618 58.8015 382.002 58.3825 382.435C57.9509 382.865 57.609 383.342 57.3568 383.864C57.0992 384.378 56.9882 384.925 57.0235 385.503C57.0536 386.074 57.2985 386.67 57.7584 387.293C58.0578 387.698 58.41 388.031 58.8149 388.292C59.2126 388.557 59.6614 388.718 60.1614 388.774C60.6561 388.823 61.2048 388.747 61.8074 388.548C62.4048 388.342 63.0509 387.982 63.7459 387.469L64.2565 389.274C63.1924 390.06 62.1078 390.553 61.0029 390.754C59.8908 390.96 58.8313 390.859 57.8244 390.45C56.8176 390.041 55.9238 389.308 55.1431 388.251C54.5442 387.441 54.1719 386.664 54.0261 385.921C53.8803 385.178 53.8953 384.479 54.0711 383.823C54.2343 383.166 54.4988 382.562 54.8647 382.012C55.2305 381.462 55.6282 380.978 56.0579 380.56C56.4876 380.142 56.8834 379.799 57.2453 379.532L63.7607 374.72L65.4612 377.022ZM71.5491 385.263L59.8214 393.926L58.3215 391.895L61.7095 389.393L61.509 389.121L69.8486 382.961L71.5491 385.263Z" fill="#236FE3"/>
<path d="M59.5767 367.51C60.3063 368.656 60.652 369.828 60.614 371.026C60.5711 372.216 60.2048 373.35 59.5152 374.429C58.8131 375.505 57.847 376.435 56.6169 377.217C55.3792 378.005 54.1294 378.48 52.8676 378.643C51.5982 378.811 50.4168 378.656 49.3234 378.178C48.2176 377.697 47.2975 376.88 46.5632 375.726C45.824 374.564 45.4879 373.407 45.5549 372.255C45.6095 371.1 45.9986 370.01 46.722 368.984C47.4407 367.951 48.4151 367.043 49.6452 366.26C50.8753 365.478 52.1106 364.98 53.351 364.767C54.5914 364.553 55.7538 364.662 56.8382 365.092C57.915 365.527 58.8279 366.333 59.5767 367.51ZM57.2139 368.549C56.7162 367.767 56.1243 367.248 55.4382 366.991C54.7521 366.734 54.0101 366.699 53.2121 366.887C52.4141 367.075 51.5899 367.439 50.7395 367.98C49.889 368.521 49.2122 369.117 48.7089 369.768C48.2009 370.412 47.9192 371.092 47.8639 371.81C47.8038 372.52 48.0105 373.247 48.484 373.992C48.9864 374.781 49.5932 375.307 50.3041 375.57C51.0151 375.832 51.7768 375.881 52.5893 375.716C53.3969 375.543 54.2031 375.201 55.008 374.689C55.8205 374.172 56.4798 373.582 56.9858 372.918C57.4794 372.252 57.7628 371.549 57.836 370.809C57.9044 370.062 57.697 369.308 57.2139 368.549ZM56.9015 364.06L48.0515 369.691L48.2254 369.964L40.6738 374.769L39.1519 372.377L55.5535 361.941L56.9015 364.06Z" fill="#236FE3"/>
<path d="M51.4167 353.66C52.112 354.931 52.4466 356.2 52.4206 357.465C52.3825 358.727 52.0127 359.899 51.3114 360.98C50.5978 362.057 49.5817 362.957 48.263 363.678C46.8653 364.442 45.5107 364.844 44.1991 364.884C42.8833 364.917 41.6881 364.616 40.6136 363.983C39.5391 363.35 38.6607 362.41 37.9785 361.162C37.266 359.859 36.9633 358.583 37.0704 357.335C37.1697 356.091 37.6529 354.939 38.5202 353.88C39.3832 352.814 40.6065 351.909 42.1903 351.166L43.544 353.641L42.6438 354.134C41.1679 354.961 40.2257 355.846 39.8173 356.787C39.4045 357.72 39.5048 358.748 40.1179 359.869C40.7959 361.109 41.6963 361.827 42.8191 362.023C43.942 362.22 45.2418 361.914 46.7184 361.107C48.124 360.338 49.0432 359.43 49.4759 358.383C49.9008 357.341 49.7915 356.231 49.1481 355.054C48.7249 354.28 48.1863 353.708 47.5323 353.338C46.866 352.963 46.1189 352.797 45.2907 352.84L44.7328 349.991C46.1499 349.862 47.4506 350.131 48.635 350.796C49.8116 351.466 50.7388 352.42 51.4167 353.66ZM47.8577 361.53L45.927 362.586L40.9332 353.453L42.8639 352.398L47.8577 361.53Z" fill="#236FE3"/>
<path d="M46.8046 345.591L28.9228 354.197L27.6992 351.655L45.581 343.049L46.8046 345.591Z" fill="#236FE3"/>
<path d="M41.8834 335.159L21.4703 336.226L20.0142 332.432L35.8995 319.568L36.9492 322.303L22.473 334.092L22.2118 333.411L40.8337 332.424L41.8834 335.159ZM36.6117 333.668L34.1414 334.616L30.5037 325.139L32.974 324.19L36.6117 333.668Z" fill="#236FE3"/>
<path d="M34.0724 311.974C34.4779 313.309 34.495 314.526 34.1239 315.627C33.7441 316.73 33.0694 317.683 32.0998 318.485C31.1302 319.288 29.9479 319.901 28.5529 320.325C27.1578 320.748 25.8355 320.901 24.586 320.782C23.3339 320.654 22.2531 320.24 21.3438 319.538C20.4233 318.83 19.7628 317.817 19.3626 316.499C18.9649 315.19 18.9451 313.964 19.3032 312.821C19.6501 311.671 20.3005 310.669 21.2544 309.815C22.1997 308.964 23.3741 308.325 24.7778 307.898C26.1728 307.475 27.5086 307.351 28.785 307.528C30.0503 307.698 31.1497 308.159 32.0833 308.91C33.0143 309.652 33.6773 310.674 34.0724 311.974ZM35.6784 318.654L17.0777 324.304L16.2536 321.592L24.8177 318.99L24.9119 319.3L34.9485 316.251L35.6784 318.654ZM31.7448 313.09C31.4832 312.229 31.0478 311.586 30.4386 311.159C29.8267 310.724 29.1087 310.482 28.2844 310.431C27.4489 310.374 26.5704 310.486 25.649 310.766C24.7361 311.043 23.9526 311.436 23.2984 311.946C22.6415 312.446 22.1811 313.052 21.9172 313.762C21.6533 314.472 21.6574 315.275 21.9295 316.171C22.1859 317.015 22.6044 317.65 23.1852 318.075C23.7634 318.492 24.4633 318.722 25.285 318.764C26.1041 318.797 26.9958 318.667 27.9603 318.374C28.9248 318.081 29.7381 317.693 30.4002 317.21C31.0623 316.726 31.5193 316.141 31.7712 315.453C32.0231 314.765 32.0143 313.977 31.7448 313.09Z" fill="#236FE3"/>
<path d="M27.1159 283.884L7.86251 286.572L6.27068 275.167L9.0651 274.777L10.2669 283.387L15.6953 282.63L14.7174 275.623L17.5252 275.232L18.5031 282.238L26.7259 281.09L27.1159 283.884Z" fill="#236FE3"/>
<path d="M8.44727 271.484L5.7185 271.738L5.45775 268.928L8.18652 268.675L8.44727 271.484ZM25.3442 269.916L10.8265 271.264L10.5658 268.454L25.0834 267.107L25.3442 269.916Z" fill="#236FE3"/>
<path d="M24.2925 253.413L17.1305 253.717C16.564 253.741 15.9861 253.815 15.3968 253.939C14.7982 254.055 14.2483 254.258 13.7473 254.55C13.2458 254.832 12.848 255.223 12.5539 255.722C12.2595 256.212 12.1287 256.843 12.1615 257.617C12.1829 258.12 12.2886 258.593 12.4785 259.035C12.6594 259.478 12.9415 259.863 13.3247 260.189C13.7075 260.506 14.2043 260.75 14.8152 260.922C15.4257 261.086 16.1625 261.149 17.0257 261.112L16.4393 262.894C15.1175 262.95 13.9425 262.752 12.9144 262.3C11.8774 261.849 11.0559 261.172 10.4501 260.27C9.84424 259.368 9.51344 258.261 9.45768 256.948C9.4149 255.941 9.54085 255.089 9.83553 254.391C10.1302 253.694 10.5338 253.123 11.0464 252.678C11.5496 252.224 12.1066 251.872 12.7175 251.621C13.3284 251.369 13.9289 251.191 14.5189 251.085C15.1089 250.979 15.6288 250.916 16.0784 250.897L24.1711 250.553L24.2925 253.413ZM24.7274 263.65L10.1605 264.269L10.0534 261.746L14.2616 261.568L14.2472 261.23L24.6059 260.79L24.7274 263.65Z" fill="#236FE3"/>
<path d="M24.7021 242.951C24.6729 244.031 24.4505 244.93 24.035 245.648C23.6104 246.365 23.0647 246.904 22.3977 247.264C21.722 247.615 20.9883 247.78 20.1965 247.759C19.4588 247.739 18.8146 247.591 18.2638 247.315C17.7131 247.039 17.2512 246.639 16.8782 246.116C16.4962 245.592 16.1938 244.954 15.9711 244.201C15.7997 243.548 15.6531 242.81 15.5312 241.988C15.4094 241.165 15.2977 240.302 15.1961 239.399C15.0947 238.487 14.993 237.584 14.8911 236.69L15.4302 237.731C14.2881 237.682 13.4359 237.902 12.8734 238.391C12.3023 238.871 12.0003 239.718 11.9674 240.932C11.9468 241.697 12.1078 242.404 12.4504 243.052C12.784 243.7 13.3567 244.162 14.1686 244.436L13.2878 247.045C12.047 246.652 11.0713 245.941 10.3608 244.913C9.65056 243.877 9.31816 242.517 9.36363 240.835C9.39888 239.531 9.65444 238.403 10.1303 237.453C10.5974 236.493 11.3183 235.801 12.2931 235.377C12.7763 235.156 13.284 235.026 13.8163 234.986C14.3485 234.947 14.9205 234.935 15.5323 234.952L24.5065 235.194L24.4391 237.691L21.1058 237.601L21.5508 237.126C22.6501 237.759 23.4615 238.551 23.985 239.502C24.4998 240.443 24.7388 241.593 24.7021 242.951ZM22.4079 242.389C22.4295 241.589 22.3087 240.897 22.0453 240.313C21.773 239.73 21.4212 239.257 20.9898 238.894C20.5585 238.531 20.1058 238.289 19.6319 238.168C19.2042 238.004 18.7207 237.905 18.1814 237.873C17.6423 237.831 17.2108 237.806 16.8869 237.797L17.2491 236.889C17.36 237.783 17.4596 238.596 17.5478 239.328C17.6361 240.059 17.7262 240.723 17.8181 241.32C17.9013 241.908 18.0086 242.433 18.1402 242.895C18.2647 243.286 18.4172 243.637 18.5979 243.948C18.7788 244.25 19.0018 244.494 19.2668 244.681C19.5321 244.86 19.8582 244.954 20.245 244.964C20.6229 244.975 20.9763 244.89 21.3053 244.71C21.6253 244.529 21.885 244.248 22.0844 243.866C22.2838 243.485 22.3916 242.992 22.4079 242.389Z" fill="#236FE3"/>
<path d="M25.576 222.884L18.4382 222.221C17.8736 222.169 17.291 222.164 16.6904 222.208C16.0817 222.242 15.5094 222.37 14.9737 222.591C14.4388 222.804 13.992 223.137 13.6334 223.592C13.2757 224.038 13.0611 224.646 12.9895 225.417C12.943 225.919 12.984 226.401 13.1127 226.865C13.2324 227.328 13.4602 227.747 13.796 228.122C14.1326 228.488 14.592 228.797 15.1741 229.05C15.7571 229.294 16.4787 229.456 17.339 229.535L16.5182 231.222C15.2008 231.099 14.0632 230.745 13.1053 230.159C12.1383 229.572 11.4154 228.791 10.9365 227.816C10.4576 226.84 10.2789 225.698 10.4003 224.39C10.4935 223.386 10.733 222.559 11.1188 221.908C11.5046 221.257 11.9815 220.745 12.5493 220.373C13.109 219.991 13.7084 219.717 14.3475 219.55C14.9867 219.384 15.6057 219.287 16.2047 219.262C16.8036 219.236 17.3271 219.244 17.7752 219.285L25.8405 220.034L25.576 222.884ZM24.6291 233.086L10.1115 231.739L10.3448 229.225L14.5387 229.614L14.5699 229.278L24.8936 230.237L24.6291 233.086Z" fill="#236FE3"/>
<path d="M27.486 211.941C27.2073 213.692 26.5936 215.057 25.6449 216.036C24.6962 217.015 23.4999 217.518 22.0559 217.543L22.0701 214.62C22.845 214.561 23.5011 214.246 24.0385 213.676C24.5684 213.095 24.9098 212.324 25.0626 211.364C25.2012 210.493 25.1317 209.785 24.854 209.24C24.5777 208.685 24.1285 208.359 23.5063 208.26C23.1419 208.202 22.8344 208.244 22.5839 208.386C22.326 208.518 22.0509 208.843 21.7588 209.362C21.4666 209.881 21.0796 210.68 20.5977 211.761C20.0811 212.945 19.5826 213.873 19.1022 214.544C18.6143 215.204 18.1011 215.651 17.5628 215.885C17.0169 216.107 16.3929 216.163 15.6908 216.051C14.8197 215.913 14.0966 215.561 13.5213 214.995C12.9461 214.43 12.5472 213.701 12.3246 212.809C12.1035 211.908 12.0828 210.893 12.2625 209.764C12.4379 208.662 12.7676 207.708 13.2514 206.901C13.7353 206.094 14.3396 205.474 15.0645 205.043C15.7804 204.61 16.5735 204.408 17.4437 204.437L17.5095 207.373C16.8007 207.361 16.2025 207.598 15.7148 208.086C15.2271 208.573 14.8954 209.254 14.7198 210.128C14.5499 210.967 14.5831 211.674 14.8196 212.249C15.0473 212.823 15.4366 213.154 15.9876 213.242C16.3076 213.292 16.5943 213.238 16.8476 213.078C17.1023 212.909 17.3779 212.552 17.6743 212.006C17.9707 211.461 18.3509 210.647 18.815 209.563C19.3185 208.404 19.8179 207.499 20.3133 206.849C20.7998 206.197 21.3293 205.762 21.9018 205.544C22.4668 205.314 23.1182 205.259 23.8559 205.376C25.278 205.602 26.3107 206.3 26.954 207.469C27.5987 208.628 27.776 210.119 27.486 211.941Z" fill="#236FE3"/>
<path d="M30.614 194.354L23.6227 192.77C23.0697 192.645 22.4926 192.565 21.8915 192.53C21.2835 192.484 20.6995 192.537 20.1395 192.687C19.5815 192.828 19.0952 193.101 18.6806 193.505C18.268 193.901 17.9762 194.476 17.8051 195.231C17.6937 195.722 17.6717 196.206 17.7391 196.683C17.7976 197.158 17.969 197.603 18.2533 198.018C18.5396 198.424 18.9549 198.79 19.4993 199.117C20.0456 199.434 20.7401 199.688 21.5827 199.879L20.5498 201.445C19.2595 201.152 18.1775 200.654 17.3038 199.948C16.4213 199.241 15.806 198.372 15.4579 197.343C15.1097 196.313 15.0809 195.158 15.3712 193.876C15.594 192.893 15.9389 192.104 16.4061 191.509C16.8732 190.913 17.4124 190.468 18.0238 190.172C18.6284 189.867 19.2583 189.672 19.9137 189.59C20.569 189.508 21.1953 189.493 21.7926 189.545C22.3898 189.598 22.9078 189.673 23.3467 189.773L31.2464 191.563L30.614 194.354ZM28.3497 204.347L9.39032 200.051L9.94818 197.589L20.1784 199.907L20.2529 199.578L28.9822 201.556L28.3497 204.347Z" fill="#236FE3"/>
<path d="M33.5828 184.96C33.2728 185.995 32.8235 186.805 32.2349 187.389C31.6376 187.971 30.9701 188.349 30.2322 188.523C29.4883 188.685 28.7371 188.652 27.9784 188.425C27.2715 188.213 26.6882 187.902 26.2286 187.492C25.769 187.082 25.4275 186.575 25.204 185.973C24.972 185.368 24.8467 184.673 24.8284 183.887C24.8334 183.212 24.8844 182.462 24.9816 181.636C25.0788 180.81 25.1962 179.948 25.3338 179.05C25.474 178.143 25.6117 177.245 25.7468 176.355L25.9954 177.5C24.9057 177.155 24.0255 177.145 23.3549 177.47C22.6783 177.784 22.1656 178.523 21.8169 179.687C21.5973 180.42 21.5682 181.144 21.7296 181.859C21.8824 182.572 22.3149 183.167 23.0271 183.643L21.4955 185.933C20.4005 185.229 19.6442 184.288 19.2266 183.111C18.8116 181.925 18.8457 180.525 19.3288 178.913C19.7034 177.663 20.2444 176.641 20.9519 175.848C21.6534 175.044 22.5299 174.564 23.5816 174.41C24.1057 174.322 24.6298 174.329 25.154 174.43C25.6781 174.53 26.2333 174.669 26.8196 174.844L35.4192 177.421L34.7023 179.814L31.5081 178.857L32.0615 178.515C32.9574 179.413 33.534 180.389 33.7912 181.443C34.0424 182.486 33.9729 183.659 33.5828 184.96ZM31.5148 183.819C31.7448 183.052 31.8088 182.352 31.7069 181.721C31.5963 181.086 31.3802 180.538 31.0585 180.075C30.7368 179.612 30.363 179.26 29.9371 179.02C29.5672 178.749 29.1262 178.528 28.6141 178.356C28.1046 178.175 27.6946 178.038 27.3843 177.945L27.9711 177.162C27.8446 178.055 27.7285 178.865 27.6227 179.595C27.5169 180.324 27.4305 180.989 27.3634 181.589C27.2903 182.178 27.2569 182.712 27.263 183.193C27.2813 183.603 27.337 183.981 27.4302 184.329C27.526 184.667 27.6774 184.962 27.8843 185.212C28.0939 185.453 28.384 185.629 28.7547 185.74C29.1168 185.849 29.4802 185.859 29.8448 185.771C30.2008 185.68 30.5248 185.477 30.817 185.16C31.1091 184.844 31.3417 184.397 31.5148 183.819Z" fill="#236FE3"/>
<path d="M39.7784 165.563L33.0668 163.044C32.5359 162.845 31.975 162.688 31.3841 162.572C30.7879 162.444 30.2022 162.417 29.6271 162.489C29.0551 162.553 28.5363 162.758 28.0706 163.102C27.6081 163.438 27.2409 163.968 26.969 164.693C26.7919 165.165 26.7044 165.641 26.7064 166.123C26.7 166.601 26.8095 167.065 27.0348 167.515C27.2633 167.956 27.625 168.376 28.12 168.773C28.6182 169.162 29.2718 169.508 30.0807 169.811L28.8448 171.222C27.6061 170.757 26.6019 170.116 25.832 169.298C25.0537 168.478 24.562 167.534 24.3568 166.467C24.1516 165.4 24.2798 164.251 24.7414 163.021C25.0956 162.077 25.5444 161.342 26.0881 160.815C26.6317 160.289 27.2264 159.921 27.8722 159.711C28.5127 159.49 29.1632 159.383 29.8236 159.391C30.4841 159.398 31.1066 159.468 31.6912 159.601C32.2758 159.734 32.7788 159.88 33.2001 160.038L40.7838 162.883L39.7784 165.563ZM36.1787 175.156L22.528 170.034L23.4148 167.671L27.3584 169.15L27.4769 168.834L37.1841 172.477L36.1787 175.156Z" fill="#236FE3"/>
<path d="M44.124 156.385C43.5621 157.623 42.7692 158.553 41.7453 159.175C40.7251 159.789 39.5748 160.102 38.2944 160.114C37.0095 160.113 35.7033 159.812 34.3758 159.209C33.04 158.603 31.9593 157.815 31.1337 156.847C30.2998 155.876 29.7843 154.801 29.5873 153.625C29.3857 152.436 29.5677 151.219 30.1333 149.973C30.7027 148.719 31.4881 147.806 32.4898 147.233C33.4869 146.648 34.6126 146.378 35.867 146.424C37.125 146.461 38.4178 146.781 39.7454 147.384C41.0729 147.987 42.1648 148.75 43.021 149.672C43.8771 150.595 44.4213 151.628 44.6534 152.771C44.8772 153.91 44.7008 155.115 44.124 156.385ZM41.9627 154.974C42.346 154.13 42.4578 153.35 42.2981 152.635C42.1384 151.92 41.762 151.28 41.1689 150.714C40.5758 150.148 39.8203 149.657 38.9025 149.24C37.9847 148.823 37.1158 148.582 36.2957 148.516C35.4793 148.442 34.7553 148.578 34.1238 148.924C33.4961 149.261 32.9998 149.832 32.6352 150.635C32.2482 151.487 32.139 152.283 32.3076 153.021C32.4762 153.76 32.8515 154.425 33.4334 155.015C34.0191 155.597 34.7463 156.086 35.6149 156.48C36.4917 156.878 37.3462 157.108 38.1782 157.17C39.0057 157.219 39.7494 157.073 40.4092 156.73C41.0727 156.379 41.5906 155.793 41.9627 154.974ZM45.5526 152.26L36.0016 147.923L35.8676 148.218L27.718 144.517L28.8901 141.936L46.5908 149.974L45.5526 152.26Z" fill="#236FE3"/>
<path d="M51.6034 141.297C50.9129 142.571 50.0291 143.54 48.952 144.206C47.8712 144.858 46.6866 145.184 45.398 145.181C44.1057 145.167 42.7989 144.801 41.4776 144.085C40.0771 143.326 39.004 142.407 38.2585 141.327C37.5172 140.239 37.1209 139.072 37.0695 137.826C37.0181 136.58 37.3312 135.332 38.0088 134.082C38.7165 132.776 39.6237 131.83 40.7305 131.242C41.8293 130.65 43.0588 130.431 44.4189 130.585C45.7833 130.731 47.2073 131.267 48.6908 132.194L47.3463 134.675L46.4443 134.186C44.9482 133.395 43.6939 133.084 42.6816 133.252C41.6735 133.412 40.865 134.054 40.256 135.177C39.5826 136.419 39.4682 137.565 39.9127 138.615C40.3572 139.665 41.3193 140.59 42.7989 141.392C44.2073 142.156 45.4687 142.435 46.5829 142.23C47.6892 142.021 48.5619 141.327 49.201 140.148C49.6213 139.373 49.8096 138.61 49.766 137.86C49.7187 137.097 49.4525 136.379 48.9673 135.707L51.0576 133.692C51.9347 134.812 52.4152 136.05 52.4993 137.406C52.5754 138.758 52.2768 140.055 51.6034 141.297ZM43.0617 142.579L41.1271 141.531L46.0872 132.38L48.0218 133.428L43.0617 142.579Z" fill="#236FE3"/>
<path d="M55.5494 133.534L38.5754 123.252L40.0373 120.839L57.0112 131.12L55.5494 133.534Z" fill="#236FE3"/>
<path d="M62.0931 122.948L50.0889 106.403L52.4793 103.117L71.9167 109.443L70.1934 111.812L52.4254 106.083L52.8542 105.493L63.8164 120.579L62.0931 122.948ZM60.4748 117.714L58.335 116.158L64.307 107.948L66.4468 109.504L60.4748 117.714Z" fill="#236FE3"/>
<path d="M76.8222 104.314C75.9254 105.382 74.9148 106.061 73.7903 106.351C72.6589 106.636 71.4923 106.591 70.2905 106.217C69.0887 105.843 67.9294 105.187 66.8125 104.25C65.6956 103.313 64.8458 102.288 64.2631 101.177C63.6861 100.058 63.4434 98.9262 63.5349 97.7811C63.6252 96.6233 64.113 95.517 64.9982 94.4622C65.8775 93.4143 66.8939 92.7281 68.0474 92.4036C69.1997 92.0665 70.3941 92.0642 71.6306 92.3968C72.8602 92.7237 74.0369 93.3586 75.1607 94.3016C76.2775 95.2388 77.1106 96.2903 77.6597 97.456C78.2077 98.609 78.4221 99.7817 78.3028 100.974C78.1893 102.159 77.6957 103.272 76.8222 104.314ZM72.1035 109.307L57.2118 96.8106L59.0342 94.6389L65.8906 100.392L65.6823 100.64L73.7176 107.383L72.1035 109.307ZM74.616 102.973C75.1945 102.284 75.496 101.568 75.5204 100.824C75.5506 100.074 75.3618 99.3403 74.954 98.6221C74.5452 97.8913 73.9719 97.2164 73.2342 96.5974C72.5034 95.9841 71.7461 95.5425 70.9622 95.2725C70.1842 94.9956 69.4256 94.9406 68.6863 95.1074C67.9471 95.2743 67.2767 95.7162 66.675 96.4332C66.108 97.1089 65.8049 97.8062 65.7656 98.5251C65.732 99.2371 65.922 99.9487 66.3356 100.66C66.755 101.364 67.3507 102.04 68.1229 102.688C68.895 103.336 69.6644 103.806 70.4308 104.096C71.1973 104.387 71.9375 104.45 72.6513 104.285C73.3652 104.121 74.0201 103.683 74.616 102.973Z" fill="#236FE3"/>
<path d="M97.0231 82.5875L84.2581 67.9257L92.9433 60.3643L94.796 62.4923L88.2388 68.201L91.8378 72.3348L97.1732 67.6899L99.0347 69.8281L93.6994 74.473L99.1511 80.7348L97.0231 82.5875Z" fill="#236FE3"/>
<path d="M96.6275 60.6358L94.92 58.4923L97.1269 56.7343L98.8344 58.8778L96.6275 60.6358ZM107.201 73.9087L98.1164 62.5048L100.323 60.7468L109.408 72.1507L107.201 73.9087Z" fill="#236FE3"/>
<path d="M120.722 63.7545L116.547 57.9268C116.217 57.4659 115.839 57.0228 115.412 56.5976C114.988 56.1598 114.517 55.8109 113.999 55.5511C113.488 55.2861 112.943 55.167 112.364 55.1939C111.793 55.2156 111.193 55.4518 110.564 55.9025C110.154 56.196 109.816 56.5433 109.55 56.9444C109.278 57.3381 109.111 57.7845 109.048 58.2837C108.992 58.7776 109.059 59.3273 109.249 59.9328C109.447 60.533 109.797 61.1844 110.3 61.8868L108.488 62.371C107.718 61.2954 107.24 60.2038 107.056 59.0961C106.866 57.9811 106.983 56.9232 107.406 55.9224C107.83 54.9217 108.575 54.0387 109.644 53.2736C110.463 52.6866 111.245 52.3256 111.99 52.1907C112.735 52.0558 113.434 52.081 114.087 52.2664C114.742 52.4392 115.342 52.7125 115.886 53.0863C116.431 53.4601 116.909 53.8649 117.321 54.3006C117.733 54.7364 118.069 55.1371 118.332 55.503L123.048 62.0879L120.722 63.7545ZM112.392 69.7212L103.901 57.8684L105.954 56.3983L108.406 59.8225L108.681 59.6259L114.718 68.0546L112.392 69.7212Z" fill="#236FE3"/>
<path d="M128.664 59.0139C127.747 59.5836 126.874 59.8925 126.046 59.9406C125.213 59.9811 124.463 59.822 123.795 59.4632C123.13 59.092 122.589 58.57 122.171 57.8972C121.782 57.2702 121.551 56.6509 121.478 56.0391C121.406 55.4274 121.485 54.8219 121.717 54.2225C121.944 53.6154 122.31 53.0117 122.817 52.4112C123.268 51.9088 123.803 51.3805 124.423 50.8261C125.043 50.2718 125.702 49.7037 126.4 49.1219C127.106 48.5354 127.804 47.9536 128.494 47.3766L127.922 48.3995C127.334 47.4189 126.681 46.8284 125.963 46.6278C125.249 46.4149 124.375 46.6289 123.343 47.2698C122.693 47.6733 122.191 48.1965 121.839 48.8394C121.481 49.4747 121.411 50.2067 121.629 51.0354L118.965 51.7359C118.611 50.4832 118.668 49.2775 119.135 48.1188C119.609 46.9554 120.562 45.9298 121.991 45.042C123.1 44.3536 124.182 43.9466 125.238 43.821C126.296 43.6829 127.27 43.9042 128.161 44.485C128.611 44.7668 128.999 45.119 129.325 45.5416C129.651 45.9643 129.976 46.4356 130.298 46.9555L135.034 54.5824L132.912 55.8998L131.153 53.0669L131.794 53.1776C131.871 54.4438 131.656 55.5569 131.15 56.5171C130.648 57.4648 129.819 58.2971 128.664 59.0139ZM127.871 56.7893C128.552 56.3667 129.063 55.8851 129.405 55.3442C129.743 54.7957 129.944 54.2415 130.01 53.6817C130.075 53.1219 130.028 52.6109 129.868 52.1487C129.77 51.701 129.587 51.243 129.317 50.7748C129.055 50.3018 128.839 49.9276 128.668 49.6524L129.626 49.4549C128.94 50.0396 128.316 50.57 127.754 51.0463C127.191 51.5226 126.686 51.9633 126.238 52.3684C125.794 52.7611 125.414 53.1396 125.1 53.5041C124.843 53.8229 124.634 54.1433 124.474 54.4653C124.321 54.7825 124.239 55.1033 124.229 55.4276C124.226 55.7472 124.327 56.0714 124.531 56.4002C124.73 56.7213 124.996 56.9697 125.327 57.1452C125.654 57.3131 126.031 57.3753 126.46 57.3317C126.888 57.2882 127.359 57.1073 127.871 56.7893Z" fill="#236FE3"/>
<path d="M145.792 48.7441L142.422 42.4168C142.156 41.9163 141.839 41.4272 141.473 40.9495C141.11 40.4595 140.689 40.0516 140.209 39.7257C139.738 39.3956 139.213 39.2057 138.636 39.1561C138.067 39.1023 137.441 39.2573 136.758 39.621C136.313 39.8579 135.932 40.1576 135.615 40.52C135.294 40.8745 135.07 41.295 134.941 41.7815C134.821 42.2637 134.815 42.8174 134.923 43.4427C135.04 44.0638 135.301 44.7556 135.707 45.5183L133.847 45.7593C133.226 44.5915 132.896 43.4465 132.859 42.3241C132.818 41.1938 133.074 40.1605 133.625 39.2244C134.177 38.2882 135.033 37.5113 136.193 36.8937C137.082 36.4199 137.905 36.1653 138.661 36.1298C139.417 36.0942 140.107 36.2114 140.73 36.4813C141.356 36.739 141.915 37.089 142.405 37.5314C142.896 37.9738 143.316 38.4381 143.667 38.9243C144.018 39.4105 144.299 39.8522 144.51 40.2494L148.318 47.3989L145.792 48.7441ZM136.747 53.5601L129.894 40.6911L132.123 39.5045L134.102 43.2222L134.4 43.0636L139.274 52.2149L136.747 53.5601Z" fill="#236FE3"/>
<path d="M156.454 44.0835C154.837 44.8106 153.359 45.0458 152.02 44.7893C150.681 44.5328 149.605 43.8077 148.792 42.6141L151.244 41.0232C151.718 41.6389 152.341 42.015 153.113 42.1515C153.889 42.2761 154.721 42.1391 155.607 41.7405C156.412 41.3788 156.966 40.9323 157.27 40.401C157.582 39.866 157.609 39.3112 157.35 38.7366C157.199 38.4001 156.995 38.1661 156.739 38.0347C156.487 37.8914 156.064 37.8397 155.47 37.8798C154.876 37.9198 153.995 38.0346 152.828 38.2242C151.554 38.4417 150.505 38.5334 149.68 38.4995C148.86 38.4537 148.205 38.2696 147.715 37.9473C147.229 37.6131 146.84 37.1218 146.549 36.4733C146.187 35.6689 146.085 34.8711 146.243 34.08C146.4 33.2889 146.791 32.5557 147.415 31.8804C148.047 31.2015 148.884 30.6277 149.927 30.159C150.944 29.7013 151.923 29.4536 152.864 29.4158C153.804 29.3779 154.653 29.5438 155.411 29.9134C156.166 30.2747 156.769 30.8273 157.222 31.571L154.803 33.2359C154.425 32.6362 153.898 32.2661 153.223 32.1255C152.548 31.9849 151.797 32.0809 150.97 32.4134C150.175 32.7312 149.602 33.1467 149.251 33.66C148.896 34.165 148.833 34.672 149.061 35.1809C149.194 35.4764 149.397 35.6862 149.67 35.8102C149.951 35.9305 150.401 35.9652 151.019 35.9141C151.638 35.863 152.527 35.7344 153.688 35.5284C154.933 35.3138 155.964 35.2353 156.779 35.2931C157.591 35.3426 158.245 35.5467 158.742 35.9056C159.243 36.2525 159.647 36.7666 159.953 37.4479C160.544 38.7613 160.527 40.0073 159.902 41.1861C159.286 42.3612 158.136 43.327 156.454 44.0835Z" fill="#236FE3"/>
<path d="M172.162 37.3039L169.644 30.5923C169.444 30.0615 169.194 29.5354 168.893 29.014C168.597 28.4811 168.232 28.0219 167.799 27.6364C167.375 27.2478 166.879 26.9914 166.314 26.8672C165.756 26.7399 165.115 26.8121 164.391 27.084C163.919 27.2611 163.502 27.5087 163.141 27.8269C162.777 28.1367 162.499 28.5244 162.309 28.99C162.127 29.4525 162.049 30.0007 162.075 30.6349C162.11 31.2658 162.279 31.9858 162.583 32.7947L160.707 32.7919C160.242 31.5532 160.065 30.3751 160.174 29.2574C160.28 28.1314 160.668 27.1401 161.336 26.2835C162.005 25.427 162.955 24.768 164.185 24.3064C165.129 23.9522 165.978 23.8067 166.732 23.8698C167.486 23.9328 168.154 24.1386 168.737 24.4872C169.325 24.8241 169.833 25.2438 170.262 25.7462C170.691 26.2486 171.048 26.7636 171.332 27.2913C171.617 27.819 171.838 28.2935 171.996 28.7148L174.842 36.2985L172.162 37.3039ZM162.569 40.9035L155.739 22.7026L158.103 21.8158L161.788 31.6367L162.104 31.5181L165.248 39.8981L162.569 40.9035Z" fill="#236FE3"/>
<path d="M181.547 34.608C180.513 34.9181 179.589 34.988 178.777 34.818C177.963 34.6393 177.28 34.2895 176.73 33.7687C176.185 33.2366 175.799 32.5913 175.572 31.8326C175.36 31.1256 175.299 30.4675 175.388 29.858C175.478 29.2486 175.713 28.6849 176.094 28.1669C176.471 27.6403 176.983 27.1534 177.629 26.7062C178.196 26.3392 178.85 25.9691 179.594 25.5961C180.337 25.223 181.121 24.847 181.947 24.468C182.782 24.0863 183.608 23.7073 184.425 23.3308L183.605 24.1685C183.294 23.0684 182.819 22.3278 182.178 21.9466C181.544 21.5541 180.645 21.5323 179.481 21.8811C178.748 22.1007 178.127 22.4746 177.619 23.0029C177.107 23.5225 176.848 24.2108 176.842 25.0677L174.088 25.0474C174.074 23.7457 174.443 22.5967 175.197 21.6005C175.959 20.6016 177.147 19.8606 178.759 19.3775C180.009 19.0029 181.16 18.8929 182.211 19.0475C183.269 19.1909 184.152 19.6593 184.859 20.4526C185.22 20.8424 185.503 21.2838 185.707 21.777C185.911 22.2701 186.101 22.8098 186.277 23.3961L188.854 31.9957L186.461 32.7126L185.504 29.5185L186.094 29.7928C185.837 31.0349 185.338 32.0533 184.599 32.8478C183.866 33.6312 182.849 34.2179 181.547 34.608ZM181.363 32.2533C182.13 32.0234 182.75 31.6921 183.221 31.2595C183.691 30.8183 184.03 30.3361 184.24 29.8129C184.449 29.2897 184.537 28.7841 184.504 28.2962C184.526 27.8385 184.469 27.3484 184.331 26.826C184.202 26.3009 184.091 25.8832 183.998 25.5729L184.974 25.6327C184.159 26.0177 183.418 26.3666 182.751 26.6793C182.084 26.9921 181.481 27.2854 180.943 27.5594C180.411 27.8221 179.946 28.0884 179.547 28.3581C179.215 28.5985 178.93 28.8531 178.691 29.122C178.461 29.3883 178.298 29.6766 178.203 29.9869C178.117 30.2946 178.13 30.6338 178.241 31.0046C178.349 31.3666 178.54 31.6757 178.814 31.9319C179.086 32.1793 179.434 32.3381 179.859 32.408C180.284 32.478 180.785 32.4264 181.363 32.2533Z" fill="#236FE3"/>
<path d="M201.44 29.0113L199.856 22.0201C199.731 21.4671 199.554 20.9119 199.326 20.3544C199.105 19.7862 198.807 19.2818 198.43 18.8411C198.062 18.3985 197.606 18.0773 197.063 17.8774C196.528 17.6756 195.883 17.6603 195.128 17.8313C194.636 17.9427 194.19 18.1315 193.789 18.3977C193.386 18.6551 193.058 19.0015 192.806 19.437C192.563 19.8705 192.412 20.4031 192.352 21.035C192.301 21.6648 192.371 22.4011 192.562 23.2437L190.704 22.9864C190.411 21.6961 190.395 20.5047 190.655 19.4122C190.913 18.311 191.432 17.3815 192.211 16.6236C192.989 15.8658 194.019 15.3417 195.301 15.0513C196.284 14.8286 197.145 14.7996 197.884 14.9645C198.622 15.1293 199.257 15.424 199.787 15.8484C200.323 16.262 200.77 16.7468 201.127 17.3027C201.483 17.8586 201.767 18.4173 201.977 18.9787C202.187 19.5401 202.342 20.0403 202.441 20.4791L204.231 28.3789L201.44 29.0113ZM191.447 31.2756L188.225 17.056L190.687 16.4982L191.618 20.606L191.947 20.5315L194.238 30.6431L191.447 31.2756Z" fill="#236FE3"/>
<path d="M211.775 27.5249C210.433 27.7334 209.22 27.5801 208.138 27.0649C207.065 26.5484 206.173 25.7579 205.461 24.6935C204.757 23.6188 204.293 22.3611 204.069 20.9204C203.844 19.4707 203.91 18.1353 204.267 16.9141C204.623 15.684 205.239 14.664 206.115 13.854C206.998 13.0337 208.116 12.5187 209.468 12.3088C210.828 12.0975 212.023 12.2536 213.052 12.7771C214.088 13.2902 214.93 14.0838 215.58 15.1579C216.238 16.2306 216.679 17.4873 216.903 18.928C217.126 20.3688 217.087 21.7001 216.785 22.9219C216.483 24.1437 215.917 25.165 215.089 25.9859C214.258 26.7979 213.154 27.3109 211.775 27.5249ZM211.771 24.9435C212.687 24.8013 213.4 24.4675 213.911 23.9419C214.421 23.4164 214.75 22.7505 214.898 21.9443C215.046 21.138 215.043 20.2368 214.888 19.2408C214.734 18.2447 214.459 17.3857 214.065 16.6636C213.679 15.9402 213.169 15.4092 212.533 15.0707C211.907 14.7308 211.158 14.6285 210.286 14.7638C209.361 14.9074 208.636 15.2522 208.111 15.7983C207.585 16.3444 207.235 17.0226 207.06 17.833C206.894 18.642 206.885 19.5179 207.031 20.4606C207.179 21.4122 207.455 22.2528 207.86 22.9823C208.272 23.7016 208.802 24.2432 209.451 24.607C210.108 24.9694 210.882 25.0816 211.771 24.9435ZM216.009 26.4578L214.4 16.0925L214.079 16.1422L212.706 7.29765L215.508 6.86273L218.49 26.0726L216.009 26.4578Z" fill="#236FE3"/>
<path d="M228.326 25.4859C226.882 25.6087 225.587 25.4028 224.439 24.8681C223.3 24.3237 222.377 23.5124 221.672 22.4344C220.974 21.3466 220.561 20.0539 220.434 18.5563C220.299 16.969 220.478 15.5673 220.971 14.3512C221.472 13.1343 222.23 12.1621 223.243 11.4347C224.256 10.7072 225.47 10.2832 226.887 10.1627C228.367 10.0369 229.656 10.275 230.755 10.877C231.853 11.4701 232.712 12.3771 233.331 13.598C233.958 14.8182 234.292 16.3028 234.333 18.0516L231.521 18.2907L231.434 17.2684C231.273 15.584 230.844 14.365 230.148 13.6113C229.46 12.8568 228.48 12.5338 227.207 12.6421C225.799 12.7618 224.778 13.2957 224.145 14.2438C223.512 15.1918 223.267 16.5043 223.41 18.1813C223.546 19.7775 224.005 20.9849 224.788 21.8035C225.571 22.6131 226.63 22.9611 227.966 22.8474C228.845 22.7727 229.586 22.5109 230.189 22.0622C230.801 21.6037 231.254 20.9871 231.549 20.2123L234.381 20.8521C233.927 22.2004 233.156 23.2821 232.069 24.0972C230.982 24.9033 229.734 25.3662 228.326 25.4859ZM222.563 19.0527L222.376 16.8601L232.747 15.978L232.934 18.1706L222.563 19.0527Z" fill="#236FE3"/>
<path d="M238.195 24.448L237.506 4.61502L240.326 4.51703L241.015 24.3501L238.195 24.448Z" fill="#236FE3"/>
<path d="M250.901 24.1336L258.186 5.03486L262.244 5.23862L267.579 24.971L264.653 24.8241L259.732 6.81563L260.46 6.85219L253.827 24.2805L250.901 24.1336ZM254.397 19.9161L254.53 17.2734L264.669 17.7825L264.536 20.4252L254.397 19.9161Z" fill="#236FE3"/>
<path d="M274.449 26.2538C273.064 26.0876 271.943 25.613 271.085 24.8302C270.228 24.0384 269.628 23.0372 269.283 21.8266C268.939 20.6159 268.854 19.2868 269.028 17.8392C269.202 16.3916 269.595 15.1199 270.206 14.024C270.827 12.9292 271.642 12.1069 272.651 11.5572C273.67 10.9997 274.863 10.803 276.23 10.9671C277.588 11.1301 278.718 11.6058 279.621 12.394C280.533 13.1743 281.189 14.173 281.586 15.3901C281.985 16.5982 282.097 17.9306 281.922 19.3871C281.748 20.8347 281.324 22.1072 280.648 23.2045C279.983 24.2939 279.118 25.1147 278.055 25.6669C277 26.2202 275.798 26.4158 274.449 26.2538ZM267.688 25.0343L270.005 5.7329L272.82 6.0708L271.753 14.9575L271.432 14.9189L270.181 25.3336L267.688 25.0343ZM274.364 23.6739C275.258 23.7811 276.023 23.6418 276.658 23.2558C277.303 22.8708 277.814 22.3113 278.192 21.5771C278.58 20.8351 278.832 19.986 278.947 19.0299C279.06 18.0827 279.016 17.2072 278.813 16.4033C278.62 15.6005 278.251 14.9353 277.707 14.4077C277.163 13.8801 276.426 13.5605 275.497 13.4489C274.621 13.3438 273.871 13.4714 273.248 13.8316C272.634 14.193 272.142 14.7413 271.773 15.4765C271.412 16.2128 271.172 17.0814 271.052 18.0822C270.932 19.083 270.96 19.9837 271.135 20.7844C271.311 21.585 271.663 22.2392 272.191 22.7467C272.72 23.2543 273.444 23.5634 274.364 23.6739Z" fill="#236FE3"/>
<path d="M303.222 31.1463L308.52 12.4421L319.6 15.5803L318.831 18.295L310.466 15.9257L308.972 21.1993L315.778 23.1271L315.006 25.8548L308.199 23.927L305.937 31.9152L303.222 31.1463Z" fill="#236FE3"/>
<path d="M321.834 18.9467L322.7 16.3465L325.377 17.2377L324.511 19.8379L321.834 18.9467ZM316.474 35.0475L321.08 21.2139L323.757 22.105L319.151 35.9386L316.474 35.0475Z" fill="#236FE3"/>
<path d="M332.788 41.0147L335.407 34.3416C335.614 33.8138 335.78 33.2554 335.905 32.6663C336.041 32.0721 336.078 31.4869 336.014 30.9107C335.958 30.3378 335.762 29.816 335.425 29.3452C335.096 28.8777 334.571 28.5026 333.85 28.2199C333.381 28.0358 332.906 27.9411 332.424 27.9359C331.946 27.9223 331.481 28.0248 331.028 28.2434C330.583 28.4652 330.158 28.8206 329.754 29.3096C329.357 29.8019 329.001 30.4502 328.686 31.2545L327.294 29.9976C327.777 28.766 328.433 27.7715 329.262 27.014C330.095 26.2481 331.046 25.7706 332.116 25.5814C333.186 25.3922 334.332 25.5376 335.556 26.0177C336.494 26.3859 337.222 26.8457 337.741 27.3972C338.259 27.9487 338.618 28.5488 338.818 29.1977C339.029 29.8414 339.126 30.4934 339.109 31.1537C339.092 31.8139 339.012 32.4353 338.871 33.0179C338.729 33.6004 338.576 34.1011 338.412 34.52L335.452 42.0602L332.788 41.0147ZM323.25 37.2716L328.576 23.6993L330.926 24.6215L329.388 28.5424L329.702 28.6657L325.914 38.3171L323.25 37.2716Z" fill="#236FE3"/>
<path d="M341.358 45.2396C340.381 44.7785 339.648 44.2132 339.158 43.5439C338.672 42.8664 338.398 42.1499 338.337 41.3944C338.287 40.6346 338.432 39.8967 338.77 39.1805C339.085 38.5131 339.48 37.9829 339.954 37.5897C340.428 37.1966 340.98 36.9345 341.609 36.8036C342.242 36.6646 342.948 36.6446 343.727 36.7438C344.394 36.8496 345.128 37.0122 345.93 37.2317C346.732 37.4511 347.567 37.696 348.435 37.9663C349.311 38.2405 350.178 38.5108 351.038 38.7773L349.868 38.852C350.372 37.8261 350.514 36.9573 350.292 36.2457C350.083 35.5298 349.429 34.9124 348.33 34.3937C347.639 34.067 346.927 33.9301 346.195 33.9828C345.468 34.0274 344.815 34.3662 344.238 34.9992L342.203 33.1428C343.063 32.1652 344.106 31.558 345.332 31.321C346.567 31.0878 347.945 31.3306 349.467 32.0491C350.647 32.6063 351.577 33.2939 352.255 34.112C352.946 34.9258 353.289 35.8641 353.285 36.9271C353.293 37.4583 353.208 37.9756 353.03 38.4788C352.852 38.982 352.633 39.5103 352.371 40.0637L348.538 48.1818L346.28 47.1155L347.704 44.1002L347.959 44.6983C346.937 45.4501 345.885 45.8743 344.805 45.9711C343.736 46.0637 342.587 45.8198 341.358 45.2396ZM342.795 43.3653C343.52 43.7073 344.202 43.8751 344.842 43.8688C345.486 43.8543 346.06 43.7225 346.566 43.4736C347.072 43.2247 347.475 42.9076 347.777 42.5224C348.099 42.1971 348.384 41.7941 348.631 41.3135C348.886 40.8367 349.083 40.4518 349.221 40.1589L349.907 40.856C349.044 40.5976 348.259 40.3617 347.554 40.1481C346.849 39.9345 346.204 39.7497 345.621 39.5938C345.05 39.4335 344.526 39.3205 344.05 39.2548C343.642 39.2116 343.259 39.2102 342.902 39.2504C342.553 39.2945 342.239 39.4002 341.961 39.5675C341.691 39.7387 341.474 39.9992 341.308 40.3492C341.147 40.691 341.083 41.0487 341.115 41.4224C341.152 41.788 341.304 42.1388 341.574 42.4749C341.843 42.8111 342.25 43.1079 342.795 43.3653Z" fill="#236FE3"/>
<path d="M359.357 54.1103L362.842 47.8463C363.118 47.3508 363.357 46.8195 363.559 46.2523C363.774 45.6816 363.888 45.1065 363.902 44.527C363.923 43.9518 363.798 43.4084 363.526 42.8969C363.263 42.3897 362.793 41.9479 362.116 41.5715C361.676 41.3265 361.218 41.1693 360.741 41.0999C360.269 41.0226 359.794 41.0621 359.316 41.2182C358.845 41.3787 358.377 41.6743 357.911 42.105C357.453 42.54 357.013 43.135 356.593 43.89L355.381 42.4586C356.025 41.3025 356.808 40.4044 357.73 39.7643C358.657 39.1163 359.664 38.77 360.749 38.7252C361.835 38.6805 362.952 38.9776 364.1 39.6166C364.981 40.1067 365.642 40.6596 366.082 41.2753C366.522 41.891 366.798 42.5337 366.909 43.2034C367.033 43.8696 367.042 44.5287 366.937 45.1807C366.831 45.8328 366.67 46.438 366.452 46.9965C366.234 47.5549 366.015 48.0307 365.796 48.4239L361.858 55.5019L359.357 54.1103ZM350.403 49.128L357.493 36.3877L359.699 37.6152L357.651 41.2958L357.945 41.4599L352.904 50.5196L350.403 49.128Z" fill="#236FE3"/>
<path d="M367.637 59.6432C366.145 58.686 365.14 57.5766 364.624 56.315C364.107 55.0534 364.126 53.7561 364.682 52.4231L367.354 53.6079C367.098 54.3414 367.123 55.0687 367.43 55.7898C367.75 56.5081 368.319 57.1297 369.137 57.6545C369.88 58.1307 370.556 58.3509 371.167 58.3151C371.786 58.2842 372.265 58.0036 372.606 57.4733C372.805 57.1627 372.889 56.8641 372.859 56.5776C372.842 56.2883 372.654 55.9059 372.296 55.4304C371.938 54.9549 371.361 54.2798 370.564 53.4051C369.686 52.457 369.036 51.6284 368.614 50.9193C368.204 50.2076 368.001 49.5583 368.003 48.9716C368.017 48.3822 368.216 47.7882 368.6 47.1898C369.077 46.4474 369.689 45.926 370.438 45.6257C371.186 45.3253 372.014 45.252 372.92 45.4058C373.834 45.5644 374.772 45.9522 375.734 46.5694C376.674 47.1719 377.416 47.8565 377.962 48.6233C378.507 49.3901 378.832 50.192 378.936 51.029C379.046 51.8584 378.913 52.6659 378.537 53.4514L375.821 52.3348C376.117 51.6905 376.139 51.0472 375.888 50.405C375.637 49.7629 375.147 49.1861 374.416 48.6748C373.716 48.1828 373.055 47.9299 372.433 47.9159C371.816 47.8944 371.357 48.1184 371.055 48.5881C370.88 48.8608 370.816 49.1453 370.861 49.4416C370.914 49.7428 371.13 50.1384 371.511 50.6285C371.892 51.1185 372.485 51.7934 373.292 52.6529C374.152 53.5789 374.781 54.3991 375.178 55.1136C375.58 55.8205 375.766 56.48 375.737 57.0922C375.72 57.7016 375.51 58.3207 375.107 58.9495C374.329 60.1616 373.276 60.828 371.948 60.9489C370.627 61.0746 369.19 60.6394 367.637 59.6432Z" fill="#236FE3"/>
<path d="M382.95 69.8416L387.209 64.0755C387.546 63.6195 387.851 63.1231 388.124 62.5865C388.41 62.048 388.597 61.4922 388.685 60.9192C388.78 60.3515 388.725 59.7966 388.521 59.2545C388.325 58.7177 387.915 58.2194 387.293 57.7595C386.887 57.4601 386.453 57.2454 385.989 57.1156C385.531 56.9786 385.055 56.9568 384.56 57.0504C384.073 57.1494 383.571 57.3826 383.053 57.75C382.543 58.1227 382.031 58.6566 381.518 59.3515L380.499 57.7767C381.285 56.7126 382.177 55.9221 383.174 55.4054C384.176 54.8815 385.219 54.6669 386.301 54.7616C387.384 54.8563 388.454 55.294 389.511 56.0747C390.321 56.6735 390.906 57.3065 391.263 57.9735C391.621 58.6405 391.812 59.3132 391.837 59.9916C391.874 60.6682 391.799 61.323 391.611 61.9562C391.423 62.5894 391.185 63.169 390.897 63.6949C390.61 64.2208 390.332 64.6647 390.065 65.0267L385.252 71.542L382.95 69.8416ZM374.708 63.7538L386.258 48.1171L388.289 49.6169L382.057 58.0543L382.328 58.2548L377.01 65.4542L374.708 63.7538Z" fill="#236FE3"/>
<path d="M391.037 76.862C390.215 76.1618 389.654 75.4246 389.356 74.6505C389.064 73.8695 388.987 73.1063 389.125 72.3611C389.276 71.6148 389.608 70.9402 390.121 70.3372C390.6 69.7753 391.119 69.3666 391.68 69.111C392.24 68.8554 392.841 68.7466 393.483 68.7845C394.13 68.8157 394.817 68.9809 395.543 69.2802C396.159 69.5564 396.826 69.9053 397.542 70.3266C398.259 70.748 399.001 71.2025 399.768 71.6901C400.542 72.1835 401.309 72.6711 402.069 73.1529L400.92 72.9193C401.675 72.0608 402.038 71.2592 402.011 70.5144C401.996 69.7687 401.526 69.0019 400.6 68.2141C400.018 67.7182 399.367 67.4 398.647 67.2598C397.933 67.1128 397.214 67.2693 396.492 67.7294L395.013 65.406C396.098 64.6869 397.263 64.3733 398.509 64.465C399.762 64.5625 401.029 65.1568 402.31 66.248C403.304 67.0941 404.021 68.0007 404.463 68.9676C404.917 69.9336 405.003 70.929 404.721 71.9539C404.59 72.4688 404.373 72.9459 404.07 73.3851C403.767 73.8244 403.417 74.277 403.02 74.743L397.199 81.5778L395.298 79.9585L397.46 77.4199L397.55 78.0639C396.367 78.5225 395.241 78.6574 394.173 78.4685C393.117 78.2786 392.072 77.7431 391.037 76.862ZM392.914 75.4283C393.524 75.9477 394.138 76.2879 394.758 76.4489C395.383 76.6031 395.972 76.6261 396.526 76.5179C397.079 76.4098 397.551 76.2091 397.943 75.916C398.339 75.6863 398.719 75.3717 399.083 74.9723C399.454 74.5786 399.744 74.2585 399.954 74.0118L400.434 74.864C399.668 74.3891 398.973 73.9564 398.348 73.566C397.723 73.1755 397.149 72.8289 396.627 72.526C396.117 72.2221 395.641 71.9761 395.198 71.7882C394.816 71.64 394.447 71.5387 394.092 71.4842C393.743 71.4355 393.413 71.4556 393.101 71.5445C392.796 71.6392 392.517 71.8338 392.267 72.1285C392.021 72.4162 391.866 72.7447 391.8 73.1139C391.739 73.4763 391.795 73.8549 391.967 74.2497C392.139 74.6445 392.455 75.0374 392.914 75.4283Z" fill="#236FE3"/>
<path d="M405.939 89.9694L410.934 84.8274C411.329 84.4207 411.698 83.9699 412.041 83.4748C412.396 82.9796 412.656 82.4539 412.82 81.8978C412.99 81.348 413.01 80.7908 412.881 80.2262C412.759 79.6679 412.42 79.1191 411.864 78.5798C411.503 78.2286 411.101 77.9576 410.659 77.7667C410.224 77.5694 409.754 77.4839 409.252 77.5103C408.756 77.543 408.227 77.7066 407.665 78.0012C407.109 78.302 406.53 78.7623 405.928 79.3821L405.13 77.6848C406.052 76.7358 407.042 76.0722 408.099 75.6941C409.163 75.3095 410.225 75.2368 411.285 75.4759C412.345 75.7151 413.346 76.2925 414.288 77.208C415.012 77.9103 415.506 78.616 415.77 79.325C416.035 80.034 416.134 80.7263 416.068 81.4019C416.014 82.0773 415.852 82.7161 415.58 83.3183C415.309 83.9205 414.995 84.4629 414.64 84.9454C414.284 85.4279 413.949 85.8306 413.636 86.1534L407.992 91.9635L405.939 89.9694ZM398.589 82.8302L408.748 72.3719L410.559 74.1308L407.624 77.1521L407.866 77.3873L400.642 84.8243L398.589 82.8302Z" fill="#236FE3"/>
<path d="M413.171 98.2223C412.264 97.2104 411.731 96.1106 411.573 94.9229C411.421 93.7419 411.596 92.5629 412.1 91.3858C412.617 90.2094 413.418 89.1346 414.504 88.1613C415.596 87.1821 416.751 86.509 417.97 86.1421C419.195 85.7692 420.386 85.729 421.542 86.0215C422.712 86.3148 423.753 86.9707 424.666 87.9893C425.585 89.0146 426.106 90.101 426.228 91.2485C426.363 92.3967 426.158 93.5358 425.612 94.666C425.072 95.8029 424.259 96.8579 423.173 97.8312C422.088 98.8044 420.95 99.4976 419.761 99.9108C418.573 100.324 417.408 100.407 416.268 100.16C415.135 99.9069 414.102 99.261 413.171 98.2223ZM415.332 96.8106C415.951 97.5008 416.62 97.9165 417.339 98.0577C418.058 98.1989 418.795 98.1117 419.552 97.7961C420.308 97.4805 421.062 96.9862 421.812 96.3134C422.563 95.6405 423.133 94.9419 423.523 94.2175C423.919 93.4998 424.086 92.7823 424.023 92.065C423.966 91.3545 423.644 90.6708 423.055 90.0141C422.43 89.3172 421.745 88.8975 421.001 88.7549C420.257 88.6123 419.497 88.6888 418.723 88.9843C417.954 89.2865 417.215 89.756 416.505 90.3928C415.787 91.0357 415.234 91.7256 414.843 92.4628C414.465 93.2006 414.3 93.9405 414.349 94.6824C414.404 95.4311 414.731 96.1405 415.332 96.8106ZM416.374 101.189L424.185 94.1866L423.968 93.9454L430.633 87.9707L432.525 90.0816L418.051 103.058L416.374 101.189Z" fill="#236FE3"/>
<path d="M423.914 111.048C423.024 109.905 422.49 108.707 422.312 107.453C422.147 106.201 422.324 104.986 422.843 103.806C423.374 102.628 424.232 101.577 425.418 100.654C426.675 99.6747 427.947 99.0601 429.235 98.8098C430.529 98.5666 431.757 98.6711 432.919 99.1234C434.081 99.5757 435.099 100.363 435.973 101.485C436.886 102.656 437.389 103.867 437.484 105.116C437.586 106.36 437.294 107.574 436.608 108.759C435.928 109.95 434.866 111.04 433.422 112.028L431.688 109.802L432.497 109.171C433.821 108.117 434.609 107.093 434.861 106.098C435.118 105.111 434.855 104.113 434.069 103.104C433.201 101.99 432.197 101.426 431.057 101.412C429.917 101.399 428.683 101.909 427.356 102.943C426.092 103.928 425.33 104.971 425.071 106.074C424.82 107.172 425.106 108.249 425.93 109.307C426.472 110.003 427.095 110.481 427.8 110.742C428.518 111.005 429.282 111.048 430.093 110.873L431.101 113.596C429.723 113.95 428.396 113.894 427.12 113.428C425.851 112.956 424.783 112.163 423.914 111.048ZM426.163 102.709L427.899 101.356L434.295 109.568L432.559 110.92L426.163 102.709Z" fill="#236FE3"/>
<path d="M429.409 117.729L445.626 106.291L447.252 108.597L431.035 120.034L429.409 117.729Z" fill="#236FE3"/>
<path d="M435.843 126.932L455.794 122.484L457.861 125.983L444.337 141.31L442.847 138.788L455.16 124.756L455.531 125.383L437.333 129.454L435.843 126.932ZM441.289 127.525L443.567 126.179L448.731 134.92L446.453 136.265L441.289 127.525Z" fill="#236FE3"/>
<path d="M447.786 149.194C447.167 147.944 446.951 146.745 447.136 145.599C447.33 144.449 447.839 143.398 448.664 142.447C449.489 141.497 450.555 140.698 451.861 140.051C453.168 139.404 454.447 139.037 455.7 138.95C456.956 138.87 458.09 139.102 459.102 139.645C460.126 140.193 460.944 141.083 461.555 142.317C462.162 143.543 462.382 144.75 462.217 145.936C462.063 147.127 461.586 148.222 460.785 149.221C459.992 150.216 458.938 151.039 457.623 151.69C456.317 152.337 455.019 152.678 453.731 152.713C452.455 152.752 451.295 152.478 450.251 151.89C449.211 151.311 448.389 150.412 447.786 149.194ZM445.106 142.868L462.528 134.243L463.786 136.784L455.765 140.755L455.621 140.465L446.221 145.118L445.106 142.868ZM449.899 147.711C450.298 148.518 450.834 149.081 451.504 149.402C452.179 149.73 452.928 149.852 453.749 149.767C454.582 149.686 455.431 149.431 456.294 149.004C457.149 148.581 457.857 148.064 458.419 147.455C458.985 146.853 459.34 146.181 459.484 145.437C459.627 144.693 459.492 143.901 459.076 143.062C458.685 142.272 458.168 141.714 457.525 141.39C456.887 141.073 456.158 140.962 455.341 141.055C454.528 141.157 453.669 141.431 452.766 141.878C451.862 142.325 451.124 142.842 450.55 143.427C449.976 144.012 449.621 144.665 449.486 145.385C449.35 146.105 449.488 146.88 449.899 147.711Z" fill="#236FE3"/>
<path d="M459.392 176.05L477.949 170.259L481.38 181.252L478.686 182.092L476.096 173.793L470.864 175.426L472.972 182.179L470.265 183.023L468.158 176.27L460.232 178.744L459.392 176.05Z" fill="#236FE3"/>
<path d="M479.777 185.023L482.428 184.326L483.145 187.055L480.495 187.751L479.777 185.023ZM463.365 189.337L477.466 185.63L478.184 188.359L464.083 192.065L463.365 189.337Z" fill="#236FE3"/>
<path d="M467.034 205.103L474.049 203.626C474.604 203.509 475.161 203.341 475.722 203.122C476.294 202.91 476.803 202.619 477.249 202.249C477.697 201.887 478.025 201.437 478.233 200.896C478.443 200.365 478.469 199.72 478.309 198.963C478.205 198.469 478.023 198.02 477.763 197.615C477.512 197.208 477.171 196.875 476.739 196.617C476.309 196.367 475.779 196.207 475.148 196.138C474.519 196.077 473.782 196.136 472.936 196.314L473.222 194.46C474.517 194.188 475.708 194.19 476.797 194.466C477.894 194.741 478.815 195.274 479.561 196.064C480.307 196.854 480.815 197.892 481.086 199.178C481.294 200.164 481.31 201.026 481.134 201.762C480.958 202.498 480.653 203.127 480.221 203.651C479.799 204.181 479.308 204.62 478.746 204.968C478.185 205.317 477.622 205.592 477.057 205.793C476.493 205.995 475.99 206.142 475.55 206.235L467.624 207.904L467.034 205.103ZM464.922 195.077L479.19 192.072L479.71 194.543L475.588 195.411L475.658 195.741L465.512 197.877L464.922 195.077Z" fill="#236FE3"/>
<path d="M468.146 214.136C467.992 213.067 468.06 212.144 468.348 211.366C468.646 210.587 469.093 209.963 469.689 209.496C470.296 209.036 470.992 208.75 471.776 208.637C472.506 208.533 473.166 208.57 473.756 208.749C474.345 208.928 474.868 209.244 475.324 209.697C475.788 210.148 476.194 210.726 476.541 211.431C476.82 212.046 477.089 212.748 477.348 213.539C477.607 214.329 477.862 215.16 478.115 216.033C478.369 216.915 478.621 217.788 478.873 218.652L478.166 217.717C479.3 217.573 480.102 217.212 480.574 216.635C481.056 216.066 481.211 215.18 481.039 213.977C480.93 213.22 480.652 212.551 480.205 211.969C479.767 211.387 479.124 211.029 478.278 210.896L478.706 208.175C479.995 208.354 481.077 208.889 481.95 209.782C482.825 210.684 483.382 211.968 483.621 213.634C483.807 214.926 483.745 216.08 483.437 217.097C483.138 218.122 482.544 218.926 481.655 219.508C481.216 219.807 480.737 220.021 480.22 220.15C479.702 220.279 479.14 220.387 478.534 220.474L469.647 221.749L469.293 219.277L472.593 218.803L472.235 219.346C471.044 218.907 470.111 218.264 469.435 217.415C468.769 216.574 468.339 215.481 468.146 214.136ZM470.502 214.303C470.616 215.096 470.852 215.757 471.21 216.288C471.576 216.817 472.003 217.224 472.489 217.509C472.976 217.794 473.463 217.956 473.95 217.995C474.4 218.085 474.893 218.101 475.43 218.042C475.968 217.992 476.398 217.944 476.719 217.898L476.515 218.854C476.255 217.992 476.019 217.207 475.809 216.501C475.598 215.794 475.398 215.155 475.206 214.582C475.025 214.017 474.831 213.518 474.623 213.084C474.435 212.72 474.225 212.4 473.994 212.124C473.765 211.857 473.504 211.653 473.211 211.514C472.92 211.383 472.582 211.345 472.199 211.4C471.825 211.453 471.491 211.597 471.197 211.83C470.912 212.062 470.704 212.383 470.572 212.792C470.44 213.202 470.416 213.706 470.502 214.303Z" fill="#236FE3"/>
<path d="M470.721 234.905L477.87 234.38C478.436 234.339 479.011 234.247 479.596 234.105C480.191 233.971 480.735 233.751 481.226 233.444C481.719 233.146 482.104 232.743 482.383 232.235C482.662 231.736 482.774 231.101 482.717 230.329C482.68 229.827 482.56 229.357 482.356 228.921C482.162 228.484 481.868 228.108 481.475 227.794C481.082 227.489 480.578 227.26 479.962 227.107C479.347 226.962 478.609 226.922 477.747 226.985L478.278 225.186C479.598 225.09 480.778 225.251 481.82 225.671C482.87 226.09 483.712 226.741 484.346 227.624C484.979 228.507 485.344 229.604 485.44 230.914C485.514 231.92 485.414 232.775 485.141 233.481C484.868 234.187 484.482 234.77 483.984 235.231C483.495 235.7 482.949 236.07 482.346 236.34C481.743 236.609 481.148 236.806 480.562 236.931C479.975 237.055 479.458 237.134 479.009 237.167L470.931 237.76L470.721 234.905ZM469.971 224.686L484.512 223.619L484.697 226.136L480.496 226.445L480.521 226.782L470.18 227.541L469.971 224.686Z" fill="#236FE3"/>
</svg>
