<svg width="265" height="265" viewBox="0 0 265 265" fill="none" xmlns="http://www.w3.org/2000/svg">
<path d="M251.974 133.079L262.77 133.371L262.598 139.766L261.031 139.724L261.161 134.896L258.117 134.813L258.011 138.742L256.437 138.699L256.543 134.771L251.932 134.646L251.974 133.079Z" fill="#7D75EC"/>
<path d="M261.074 141.397L262.592 141.509L262.477 143.072L260.959 142.96L261.074 141.397ZM251.672 140.707L259.75 141.3L259.635 142.863L251.557 142.27L251.672 140.707Z" fill="#7D75EC"/>
<path d="M250.745 149.679L254.697 150.169C255.01 150.208 255.333 150.22 255.667 150.207C256.006 150.198 256.326 150.137 256.627 150.023C256.928 149.914 257.182 149.737 257.389 149.49C257.595 149.249 257.724 148.915 257.777 148.488C257.812 148.21 257.797 147.941 257.734 147.681C257.675 147.422 257.556 147.186 257.376 146.972C257.195 146.763 256.945 146.584 256.626 146.433C256.307 146.288 255.909 146.186 255.433 146.127L255.917 145.204C256.647 145.295 257.272 145.511 257.794 145.853C258.321 146.195 258.709 146.641 258.958 147.191C259.208 147.741 259.287 148.378 259.198 149.102C259.129 149.658 258.982 150.113 258.756 150.468C258.531 150.823 258.257 151.099 257.936 151.296C257.618 151.499 257.281 151.641 256.923 151.722C256.565 151.804 256.22 151.847 255.887 151.851C255.554 151.855 255.263 151.842 255.015 151.811L250.549 151.257L250.745 149.679ZM251.445 144.03L259.484 145.027L259.311 146.418L256.989 146.131L256.966 146.317L251.25 145.608L251.445 144.03Z" fill="#7D75EC"/>
<path d="M249.716 154.408C249.828 153.819 250.031 153.346 250.323 152.989C250.619 152.634 250.967 152.387 251.365 152.249C251.767 152.117 252.184 152.092 252.616 152.175C253.019 152.252 253.359 152.39 253.636 152.591C253.913 152.791 254.131 153.052 254.289 153.372C254.451 153.693 254.56 154.07 254.615 154.503C254.651 154.876 254.665 155.294 254.659 155.756C254.652 156.218 254.636 156.701 254.611 157.205C254.585 157.714 254.56 158.219 254.536 158.718L254.334 158.099C254.956 158.228 255.443 158.183 255.795 157.965C256.151 157.753 256.392 157.316 256.518 156.653C256.598 156.235 256.573 155.833 256.443 155.447C256.318 155.062 256.045 154.758 255.624 154.535L256.34 153.183C256.986 153.51 257.457 153.986 257.755 154.613C258.052 155.245 258.113 156.02 257.937 156.939C257.802 157.651 257.561 158.246 257.215 158.725C256.873 159.209 256.416 159.524 255.844 159.67C255.559 159.748 255.269 159.774 254.974 159.748C254.678 159.722 254.364 159.678 254.03 159.614L249.13 158.679L249.39 157.316L251.21 157.664L250.924 157.884C250.377 157.439 250.003 156.932 249.801 156.364C249.603 155.802 249.574 155.15 249.716 154.408ZM250.924 154.921C250.84 155.358 250.845 155.749 250.937 156.092C251.034 156.436 251.185 156.727 251.389 156.965C251.593 157.202 251.82 157.375 252.069 157.484C252.289 157.612 252.545 157.709 252.838 157.775C253.13 157.846 253.364 157.899 253.541 157.933L253.261 158.398C253.28 157.898 253.298 157.443 253.315 157.034C253.332 156.625 253.342 156.253 253.345 155.918C253.352 155.588 253.34 155.291 253.309 155.025C253.276 154.8 253.223 154.594 253.152 154.407C253.08 154.225 252.979 154.071 252.851 153.945C252.721 153.824 252.551 153.743 252.34 153.703C252.133 153.663 251.932 153.678 251.736 153.748C251.544 153.818 251.376 153.949 251.233 154.14C251.09 154.332 250.986 154.592 250.924 154.921Z" fill="#7D75EC"/>
<path d="M247.426 165.257L251.278 166.269C251.582 166.349 251.901 166.405 252.234 166.435C252.571 166.472 252.896 166.454 253.21 166.382C253.522 166.314 253.798 166.172 254.036 165.955C254.272 165.743 254.445 165.429 254.554 165.013C254.626 164.743 254.647 164.474 254.619 164.208C254.595 163.944 254.508 163.693 254.359 163.457C254.207 163.226 253.984 163.015 253.688 162.824C253.39 162.637 253.01 162.482 252.545 162.36L253.149 161.511C253.859 161.698 254.451 161.995 254.922 162.404C255.399 162.813 255.724 163.307 255.898 163.885C256.072 164.464 256.066 165.106 255.88 165.812C255.738 166.353 255.531 166.785 255.26 167.107C254.99 167.428 254.682 167.665 254.337 167.818C253.995 167.976 253.642 168.072 253.276 168.105C252.911 168.138 252.563 168.135 252.232 168.094C251.902 168.054 251.616 168.002 251.374 167.938L247.022 166.794L247.426 165.257ZM248.873 159.751L256.707 161.81L256.35 163.167L254.087 162.572L254.04 162.753L248.469 161.289L248.873 159.751Z" fill="#7D75EC"/>
<path d="M245.499 170.651C245.81 169.716 246.27 169.024 246.878 168.573C247.487 168.122 248.188 167.955 248.982 168.072L248.71 169.673C248.28 169.635 247.891 169.748 247.545 170.012C247.202 170.283 246.946 170.674 246.775 171.186C246.62 171.651 246.594 172.046 246.697 172.37C246.799 172.699 247.015 172.918 247.347 173.029C247.542 173.094 247.714 173.098 247.864 173.043C248.018 172.994 248.198 172.841 248.405 172.583C248.612 172.325 248.896 171.922 249.258 171.373C249.649 170.77 250.006 170.307 250.33 169.983C250.657 169.665 250.979 169.466 251.295 169.387C251.614 169.314 251.961 169.34 252.336 169.465C252.801 169.62 253.165 169.878 253.43 170.24C253.694 170.602 253.847 171.037 253.888 171.547C253.928 172.06 253.847 172.619 253.647 173.221C253.451 173.809 253.184 174.303 252.846 174.701C252.507 175.1 252.12 175.385 251.684 175.556C251.252 175.728 250.799 175.767 250.325 175.672L250.554 174.057C250.942 174.128 251.291 174.052 251.602 173.829C251.914 173.606 252.157 173.263 252.333 172.799C252.502 172.355 252.547 171.964 252.47 171.628C252.397 171.293 252.213 171.076 251.919 170.978C251.748 170.921 251.586 170.925 251.433 170.99C251.278 171.06 251.095 171.231 250.883 171.503C250.671 171.775 250.389 172.187 250.037 172.739C249.656 173.329 249.3 173.779 248.97 174.091C248.644 174.404 248.315 174.595 247.981 174.663C247.651 174.737 247.289 174.709 246.895 174.578C246.136 174.325 245.633 173.85 245.386 173.151C245.137 172.457 245.175 171.623 245.499 170.651Z" fill="#7D75EC"/>
<path d="M242.173 179.967L245.858 181.478C246.149 181.597 246.458 181.694 246.785 181.768C247.113 181.849 247.438 181.874 247.759 181.843C248.078 181.817 248.369 181.712 248.633 181.529C248.896 181.35 249.108 181.062 249.272 180.664C249.378 180.405 249.434 180.141 249.441 179.874C249.453 179.609 249.4 179.349 249.282 179.096C249.162 178.847 248.969 178.608 248.7 178.379C248.43 178.155 248.073 177.952 247.629 177.77L248.339 177.007C249.019 177.285 249.566 177.658 249.98 178.125C250.398 178.594 250.655 179.126 250.752 179.722C250.848 180.318 250.757 180.954 250.481 181.629C250.268 182.148 250.007 182.548 249.696 182.832C249.386 183.115 249.049 183.309 248.687 183.415C248.328 183.527 247.965 183.576 247.598 183.56C247.231 183.545 246.887 183.496 246.565 183.412C246.242 183.329 245.965 183.24 245.734 183.145L241.57 181.439L242.173 179.967ZM244.332 174.7L254.325 178.795L253.793 180.093L248.401 177.883L248.33 178.057L243.729 176.171L244.332 174.7Z" fill="#7D75EC"/>
<path d="M239.864 184.408C240.128 183.87 240.448 183.467 240.824 183.2C241.204 182.935 241.604 182.789 242.025 182.762C242.447 182.74 242.856 182.827 243.251 183.02C243.619 183.201 243.91 183.425 244.125 183.691C244.339 183.958 244.48 184.267 244.548 184.617C244.62 184.97 244.625 185.362 244.563 185.794C244.499 186.164 244.403 186.57 244.274 187.014C244.146 187.458 244.003 187.92 243.846 188.399C243.686 188.884 243.529 189.363 243.374 189.839L243.342 189.188C243.907 189.477 244.389 189.563 244.786 189.445C245.185 189.335 245.534 188.977 245.831 188.371C246.018 187.989 246.1 187.595 246.077 187.188C246.058 186.784 245.875 186.418 245.528 186.092L246.576 184.977C247.112 185.463 247.441 186.047 247.563 186.731C247.682 187.419 247.536 188.182 247.124 189.022C246.805 189.673 246.415 190.183 245.955 190.553C245.497 190.93 244.973 191.113 244.383 191.102C244.088 191.102 243.801 191.051 243.523 190.948C243.245 190.845 242.953 190.718 242.648 190.569L238.17 188.372L238.781 187.127L240.444 187.942L240.11 188.079C239.701 187.505 239.474 186.918 239.429 186.317C239.386 185.722 239.531 185.086 239.864 184.408ZM240.893 185.222C240.697 185.622 240.598 185.999 240.596 186.355C240.599 186.713 240.668 187.033 240.802 187.316C240.936 187.599 241.109 187.826 241.32 187.996C241.498 188.178 241.72 188.34 241.985 188.481C242.247 188.626 242.459 188.739 242.621 188.818L242.228 189.193C242.379 188.716 242.516 188.282 242.641 187.892C242.765 187.502 242.873 187.146 242.965 186.823C243.058 186.507 243.126 186.217 243.166 185.953C243.193 185.727 243.197 185.514 243.178 185.315C243.156 185.121 243.1 184.946 243.009 184.79C242.917 184.639 242.774 184.516 242.581 184.421C242.392 184.328 242.194 184.29 241.986 184.305C241.783 184.322 241.587 184.404 241.398 184.551C241.209 184.698 241.04 184.921 240.893 185.222Z" fill="#7D75EC"/>
<path d="M234.87 194.137L238.321 196.125C238.594 196.282 238.887 196.419 239.2 196.536C239.516 196.66 239.834 196.728 240.156 196.74C240.475 196.757 240.778 196.692 241.064 196.545C241.348 196.403 241.598 196.146 241.812 195.773C241.952 195.53 242.043 195.277 242.086 195.013C242.132 194.751 242.114 194.487 242.031 194.22C241.946 193.958 241.786 193.695 241.55 193.432C241.312 193.174 240.986 192.925 240.57 192.686L241.375 192.024C242.012 192.391 242.504 192.833 242.852 193.351C243.204 193.872 243.389 194.433 243.405 195.037C243.42 195.64 243.246 196.258 242.882 196.891C242.602 197.376 242.29 197.739 241.944 197.978C241.599 198.218 241.239 198.366 240.867 198.422C240.495 198.485 240.129 198.485 239.768 198.421C239.407 198.357 239.072 198.262 238.763 198.137C238.455 198.011 238.192 197.886 237.976 197.761L234.076 195.515L234.87 194.137ZM237.711 189.204L244.73 193.247L244.03 194.462L242.002 193.294L241.908 193.457L236.917 190.582L237.711 189.204Z" fill="#7D75EC"/>
<path d="M231.481 198.984C231.903 198.358 232.423 197.921 233.041 197.674C233.656 197.431 234.315 197.366 235.018 197.477C235.722 197.595 236.41 197.88 237.082 198.332C237.758 198.787 238.278 199.318 238.641 199.924C239.009 200.533 239.193 201.169 239.193 201.832C239.194 202.502 238.982 203.152 238.558 203.783C238.131 204.417 237.617 204.846 237.015 205.068C236.415 205.297 235.774 205.341 235.091 205.201C234.405 205.065 233.726 204.771 233.054 204.318C232.382 203.866 231.854 203.348 231.469 202.764C231.085 202.18 230.882 201.564 230.86 200.916C230.841 200.271 231.049 199.627 231.481 198.984ZM232.536 199.956C232.249 200.383 232.116 200.8 232.138 201.207C232.159 201.613 232.307 201.998 232.58 202.363C232.853 202.727 233.222 203.066 233.686 203.379C234.151 203.691 234.605 203.903 235.048 204.015C235.488 204.131 235.898 204.123 236.275 203.991C236.65 203.864 236.975 203.597 237.248 203.19C237.538 202.759 237.671 202.333 237.647 201.913C237.622 201.492 237.478 201.094 237.213 200.717C236.946 200.344 236.592 200.01 236.152 199.714C235.709 199.415 235.261 199.211 234.811 199.101C234.362 198.997 233.941 199.009 233.548 199.137C233.153 199.268 232.815 199.541 232.536 199.956ZM230.32 201.113L235.155 204.367L235.255 204.218L239.381 206.994L238.501 208.3L229.541 202.271L230.32 201.113Z" fill="#7D75EC"/>
<path d="M226.292 206.115C226.787 205.48 227.359 205.029 228.01 204.763C228.662 204.504 229.341 204.433 230.047 204.552C230.754 204.678 231.437 204.998 232.095 205.511C232.794 206.055 233.298 206.656 233.608 207.316C233.915 207.98 234.025 208.656 233.94 209.343C233.854 210.031 233.569 210.686 233.083 211.309C232.576 211.96 231.993 212.396 231.333 212.617C230.677 212.841 229.983 212.849 229.251 212.641C228.517 212.436 227.786 212.012 227.057 211.369L228.02 210.132L228.47 210.483C229.218 211.052 229.877 211.337 230.447 211.338C231.014 211.342 231.516 211.064 231.952 210.504C232.434 209.885 232.601 209.267 232.454 208.651C232.306 208.036 231.863 207.44 231.125 206.866C230.423 206.319 229.758 206.051 229.128 206.061C228.503 206.075 227.961 206.376 227.504 206.963C227.203 207.35 227.03 207.751 226.985 208.166C226.941 208.588 227.022 209.006 227.226 209.419L225.897 210.332C225.519 209.638 225.368 208.916 225.446 208.165C225.528 207.417 225.81 206.734 226.292 206.115ZM231.09 206.192L232.054 206.943L228.501 211.505L227.537 210.754L231.09 206.192Z" fill="#7D75EC"/>
<path d="M223.54 209.837L231.907 217.016L230.887 218.206L222.519 211.027L223.54 209.837Z" fill="#7D75EC"/>
<path d="M219.497 214.45L224.615 224.588L223.013 226.178L212.914 220.987L214.068 219.84L223.306 224.557L223.018 224.842L218.342 215.597L219.497 214.45ZM219.921 217.464L220.957 218.507L216.954 222.481L215.919 221.438L219.921 217.464Z" fill="#7D75EC"/>
<path d="M209.587 223.458C210.175 222.953 210.791 222.673 211.433 222.615C212.079 222.562 212.714 222.692 213.339 223.006C213.964 223.32 214.54 223.784 215.068 224.399C215.595 225.013 215.968 225.652 216.187 226.314C216.402 226.979 216.433 227.622 216.279 228.241C216.125 228.867 215.757 229.43 215.177 229.928C214.6 230.423 213.981 230.707 213.319 230.78C212.657 230.861 212.002 230.754 211.354 230.46C210.71 230.17 210.123 229.715 209.592 229.096C209.064 228.482 208.703 227.83 208.507 227.141C208.311 226.46 208.3 225.797 208.473 225.155C208.643 224.515 209.014 223.95 209.587 223.458ZM212.625 221.148L219.657 229.345L218.462 230.371L215.224 226.597L215.361 226.479L211.566 222.056L212.625 221.148ZM210.675 224.392C210.296 224.718 210.065 225.083 209.985 225.488C209.9 225.897 209.937 226.316 210.096 226.747C210.254 227.184 210.507 227.606 210.856 228.012C211.201 228.415 211.576 228.725 211.981 228.944C212.382 229.166 212.793 229.265 213.214 229.24C213.634 229.216 214.041 229.034 214.436 228.696C214.808 228.377 215.037 228.022 215.124 227.631C215.207 227.244 215.167 226.837 215.004 226.41C214.838 225.985 214.573 225.561 214.208 225.136C213.844 224.711 213.464 224.384 213.071 224.155C212.677 223.927 212.277 223.825 211.871 223.851C211.464 223.877 211.066 224.057 210.675 224.392Z" fill="#7D75EC"/>
<path d="M197.352 232.868L203.015 242.064L197.567 245.419L196.746 244.084L200.858 241.551L199.262 238.958L195.915 241.019L195.089 239.678L198.436 237.617L196.017 233.69L197.352 232.868Z" fill="#7D75EC"/>
<path d="M195.568 244.919L196.308 246.25L194.938 247.012L194.198 245.681L195.568 244.919ZM190.984 236.681L194.922 243.759L193.553 244.521L189.614 237.443L190.984 236.681Z" fill="#7D75EC"/>
<path d="M182.999 240.818L184.766 244.387C184.906 244.67 185.074 244.946 185.269 245.218C185.463 245.496 185.69 245.729 185.951 245.918C186.207 246.109 186.495 246.223 186.815 246.26C187.13 246.299 187.48 246.224 187.866 246.033C188.116 245.909 188.333 245.749 188.515 245.553C188.699 245.361 188.831 245.131 188.91 244.863C188.985 244.597 188.997 244.29 188.947 243.941C188.893 243.594 188.759 243.206 188.546 242.775L189.583 242.672C189.909 243.331 190.073 243.972 190.075 244.596C190.079 245.224 189.92 245.794 189.599 246.305C189.277 246.816 188.789 247.233 188.135 247.557C187.633 247.805 187.172 247.933 186.751 247.94C186.331 247.948 185.95 247.871 185.608 247.711C185.265 247.558 184.96 247.354 184.695 247.1C184.43 246.847 184.204 246.582 184.017 246.306C183.831 246.03 183.682 245.781 183.571 245.556L181.574 241.524L182.999 240.818ZM188.101 238.292L191.695 245.552L190.438 246.174L189.399 244.077L189.231 244.16L186.676 238.998L188.101 238.292Z" fill="#7D75EC"/>
<path d="M178.307 242.61C178.861 242.381 179.368 242.29 179.826 242.338C180.286 242.391 180.683 242.546 181.017 242.803C181.348 243.066 181.598 243.401 181.766 243.808C181.923 244.187 181.994 244.547 181.978 244.889C181.963 245.231 181.865 245.556 181.684 245.863C181.505 246.176 181.249 246.474 180.918 246.757C180.625 246.992 180.284 247.233 179.894 247.481C179.505 247.729 179.092 247.981 178.657 248.237C178.217 248.495 177.782 248.751 177.351 249.005L177.758 248.496C177.991 249.087 178.296 249.469 178.671 249.644C179.044 249.825 179.542 249.787 180.166 249.528C180.558 249.366 180.88 249.124 181.132 248.803C181.385 248.487 181.49 248.092 181.445 247.618L182.968 247.475C183.049 248.193 182.91 248.849 182.549 249.442C182.184 250.037 181.57 250.514 180.706 250.871C180.036 251.149 179.406 251.274 178.816 251.248C178.223 251.228 177.709 251.019 177.274 250.621C177.052 250.426 176.871 250.197 176.73 249.936C176.59 249.675 176.454 249.388 176.324 249.074L174.416 244.466L175.698 243.935L176.407 245.646L176.065 245.528C176.138 244.827 176.356 244.236 176.719 243.755C177.08 243.281 177.61 242.899 178.307 242.61ZM178.542 243.902C178.13 244.072 177.807 244.29 177.57 244.555C177.336 244.826 177.175 245.111 177.089 245.412C177.003 245.713 176.982 245.998 177.028 246.265C177.042 246.52 177.101 246.787 177.207 247.068C177.308 247.351 177.393 247.576 177.461 247.742L176.918 247.764C177.347 247.505 177.737 247.271 178.088 247.06C178.439 246.85 178.756 246.654 179.038 246.472C179.317 246.297 179.559 246.124 179.764 245.952C179.934 245.801 180.078 245.644 180.194 245.482C180.307 245.322 180.38 245.153 180.415 244.976C180.446 244.801 180.42 244.615 180.338 244.416C180.257 244.222 180.134 244.062 179.968 243.936C179.804 243.814 179.603 243.746 179.364 243.731C179.125 243.717 178.851 243.773 178.542 243.902Z" fill="#7D75EC"/>
<path d="M168.09 246.593L169.362 250.367C169.463 250.666 169.592 250.962 169.75 251.258C169.904 251.559 170.098 251.821 170.331 252.043C170.559 252.267 170.83 252.418 171.141 252.498C171.448 252.579 171.806 252.551 172.213 252.414C172.478 252.324 172.714 252.195 172.921 252.025C173.129 251.86 173.29 251.65 173.405 251.395C173.515 251.141 173.568 250.838 173.566 250.486C173.558 250.135 173.478 249.732 173.324 249.277L174.366 249.314C174.6 250.01 174.677 250.668 174.595 251.286C174.515 251.909 174.281 252.453 173.894 252.916C173.507 253.379 172.967 253.727 172.275 253.96C171.745 254.139 171.27 254.204 170.853 254.154C170.435 254.105 170.068 253.978 169.751 253.774C169.431 253.576 169.157 253.333 168.928 253.046C168.699 252.759 168.511 252.467 168.363 252.168C168.215 251.87 168.101 251.602 168.021 251.365L166.584 247.101L168.09 246.593ZM173.485 244.775L176.072 252.45L174.743 252.898L173.995 250.681L173.818 250.741L171.978 245.283L173.485 244.775Z" fill="#7D75EC"/>
<path d="M162.418 247.952C163.37 247.701 164.202 247.708 164.912 247.971C165.622 248.234 166.145 248.73 166.482 249.458L164.992 250.106C164.789 249.725 164.482 249.462 164.071 249.316C163.657 249.177 163.189 249.176 162.667 249.313C162.193 249.438 161.849 249.632 161.633 249.895C161.413 250.16 161.348 250.461 161.437 250.8C161.489 250.998 161.579 251.145 161.708 251.24C161.833 251.342 162.06 251.409 162.389 251.441C162.718 251.474 163.211 251.491 163.868 251.494C164.586 251.492 165.17 251.538 165.618 251.632C166.063 251.732 166.405 251.892 166.645 252.114C166.88 252.342 167.048 252.646 167.149 253.028C167.273 253.502 167.256 253.949 167.098 254.368C166.939 254.787 166.658 255.153 166.254 255.466C165.845 255.78 165.334 256.018 164.72 256.179C164.12 256.337 163.561 256.383 163.043 256.318C162.524 256.253 162.074 256.084 161.692 255.812C161.312 255.545 161.031 255.187 160.851 254.738L162.329 254.047C162.482 254.41 162.736 254.661 163.093 254.8C163.45 254.939 163.871 254.955 164.355 254.849C164.819 254.747 165.171 254.572 165.411 254.323C165.651 254.079 165.732 253.806 165.654 253.507C165.608 253.333 165.516 253.199 165.378 253.106C165.235 253.014 164.991 252.954 164.648 252.926C164.304 252.897 163.805 252.886 163.15 252.893C162.448 252.897 161.876 252.845 161.435 252.739C160.995 252.638 160.655 252.466 160.415 252.224C160.172 251.988 159.998 251.669 159.893 251.268C159.689 250.494 159.813 249.813 160.263 249.224C160.708 248.636 161.426 248.212 162.418 247.952Z" fill="#7D75EC"/>
<path d="M152.948 250.236L153.709 254.145C153.769 254.454 153.858 254.765 153.975 255.079C154.088 255.398 154.245 255.683 154.447 255.934C154.644 256.186 154.891 256.372 155.19 256.493C155.483 256.614 155.841 256.633 156.263 256.551C156.538 256.498 156.789 256.4 157.016 256.259C157.245 256.123 157.432 255.936 157.58 255.699C157.722 255.462 157.815 255.169 157.859 254.819C157.898 254.47 157.872 254.06 157.78 253.589L158.807 253.763C158.948 254.485 158.937 255.147 158.774 255.749C158.612 256.356 158.308 256.863 157.863 257.271C157.417 257.679 156.837 257.952 156.12 258.092C155.57 258.199 155.092 258.2 154.684 258.096C154.277 257.992 153.93 257.818 153.643 257.573C153.352 257.334 153.112 257.058 152.923 256.743C152.735 256.428 152.587 256.113 152.48 255.798C152.372 255.482 152.295 255.202 152.247 254.957L151.387 250.54L152.948 250.236ZM158.535 249.148L160.599 259.749L159.223 260.017L158.109 254.297L157.925 254.333L156.975 249.452L158.535 249.148Z" fill="#7D75EC"/>
<path d="M147.967 250.734C148.563 250.66 149.075 250.707 149.504 250.876C149.934 251.049 150.275 251.304 150.528 251.641C150.777 251.983 150.929 252.372 150.983 252.809C151.033 253.215 151.006 253.582 150.9 253.907C150.794 254.233 150.613 254.52 150.357 254.768C150.101 255.021 149.775 255.241 149.38 255.426C149.036 255.574 148.643 255.716 148.201 255.851C147.759 255.987 147.295 256.12 146.807 256.251C146.315 256.382 145.827 256.513 145.344 256.644L145.871 256.261C145.94 256.892 146.131 257.342 146.447 257.61C146.758 257.884 147.248 257.98 147.918 257.897C148.34 257.844 148.715 257.697 149.042 257.455C149.371 257.218 149.576 256.865 149.659 256.396L151.166 256.663C151.053 257.377 150.744 257.972 150.239 258.448C149.728 258.924 149.009 259.22 148.081 259.335C147.362 259.424 146.721 259.378 146.159 259.195C145.593 259.019 145.153 258.68 144.84 258.18C144.678 257.933 144.564 257.665 144.498 257.376C144.432 257.087 144.378 256.774 144.336 256.436L143.723 251.487L145.1 251.316L145.328 253.154L145.03 252.949C145.286 252.293 145.654 251.781 146.132 251.415C146.606 251.054 147.218 250.827 147.967 250.734ZM147.85 252.041C147.408 252.095 147.038 252.219 146.74 252.412C146.442 252.611 146.211 252.843 146.048 253.11C145.884 253.378 145.789 253.646 145.762 253.917C145.707 254.165 145.693 254.439 145.72 254.738C145.742 255.038 145.764 255.277 145.787 255.455L145.257 255.332C145.739 255.197 146.178 255.074 146.572 254.965C146.967 254.856 147.324 254.751 147.644 254.651C147.96 254.556 148.24 254.453 148.483 254.343C148.687 254.242 148.867 254.129 149.023 254.004C149.173 253.879 149.289 253.736 149.37 253.575C149.446 253.415 149.471 253.228 149.444 253.014C149.418 252.806 149.342 252.619 149.216 252.453C149.09 252.292 148.914 252.173 148.688 252.095C148.462 252.018 148.182 251.999 147.85 252.041Z" fill="#7D75EC"/>
<path d="M137.061 251.889L137.292 255.865C137.31 256.18 137.356 256.5 137.43 256.826C137.499 257.158 137.617 257.462 137.783 257.737C137.945 258.014 138.165 258.231 138.445 258.39C138.719 258.55 139.071 258.617 139.501 258.592C139.78 258.576 140.042 258.513 140.286 258.404C140.531 258.299 140.742 258.139 140.919 257.924C141.092 257.708 141.224 257.43 141.314 257.09C141.4 256.749 141.429 256.339 141.401 255.86L142.395 256.17C142.438 256.904 142.338 257.559 142.096 258.134C141.854 258.714 141.485 259.176 140.989 259.52C140.493 259.864 139.881 260.057 139.152 260.1C138.593 260.132 138.119 260.069 137.729 259.912C137.339 259.754 137.019 259.535 136.767 259.254C136.511 258.978 136.31 258.672 136.165 258.335C136.02 257.997 135.916 257.665 135.852 257.338C135.788 257.012 135.749 256.723 135.734 256.474L135.474 251.981L137.061 251.889ZM142.744 251.56L143.213 259.647L141.813 259.728L141.677 257.392L141.49 257.402L141.157 251.652L142.744 251.56Z" fill="#7D75EC"/>
<path d="M130.668 251.711C131.423 251.722 132.072 251.92 132.616 252.303C133.155 252.687 133.57 253.203 133.86 253.853C134.145 254.507 134.281 255.239 134.269 256.049C134.256 256.864 134.095 257.589 133.785 258.225C133.475 258.865 133.042 259.366 132.487 259.727C131.926 260.094 131.266 260.271 130.506 260.259C129.741 260.247 129.101 260.05 128.587 259.667C128.068 259.289 127.681 258.775 127.426 258.126C127.166 257.477 127.042 256.748 127.054 255.938C127.067 255.128 127.213 254.403 127.493 253.762C127.773 253.121 128.178 252.615 128.709 252.243C129.24 251.876 129.893 251.699 130.668 251.711ZM130.428 253.125C129.913 253.117 129.492 253.233 129.163 253.473C128.834 253.713 128.591 254.046 128.435 254.474C128.278 254.902 128.195 255.395 128.187 255.955C128.178 256.515 128.248 257.011 128.396 257.444C128.54 257.876 128.77 258.215 129.086 258.46C129.397 258.704 129.798 258.831 130.288 258.838C130.808 258.846 131.237 258.725 131.576 258.476C131.915 258.226 132.17 257.887 132.342 257.46C132.508 257.032 132.596 256.554 132.604 256.024C132.612 255.489 132.54 255.002 132.386 254.565C132.228 254.133 131.988 253.786 131.667 253.526C131.341 253.266 130.928 253.132 130.428 253.125ZM128.249 251.898L128.16 257.725L128.339 257.728L128.263 262.7L126.688 262.676L126.855 251.877L128.249 251.898Z" fill="#7D75EC"/>
<path d="M121.906 251.262C122.708 251.327 123.399 251.559 123.979 251.957C124.553 252.36 124.984 252.889 125.272 253.544C125.555 254.204 125.662 254.951 125.594 255.783C125.523 256.665 125.296 257.417 124.915 258.038C124.528 258.659 124.024 259.122 123.402 259.427C122.781 259.733 122.076 259.854 121.289 259.79C120.466 259.723 119.782 259.475 119.235 259.044C118.687 258.618 118.3 258.043 118.073 257.317C117.841 256.591 117.794 255.747 117.933 254.785L119.495 254.911L119.449 255.48C119.383 256.417 119.506 257.125 119.818 257.601C120.126 258.078 120.633 258.345 121.341 258.402C122.123 258.466 122.732 258.267 123.165 257.805C123.599 257.344 123.854 256.647 123.929 255.715C124.001 254.828 123.86 254.125 123.506 253.604C123.152 253.089 122.603 252.801 121.861 252.741C121.372 252.701 120.942 252.777 120.571 252.967C120.194 253.162 119.889 253.459 119.656 253.856L118.163 253.246C118.535 252.549 119.057 252.027 119.727 251.68C120.397 251.338 121.123 251.199 121.906 251.262ZM124.474 255.316L124.375 256.534L118.611 256.066L118.71 254.848L124.474 255.316Z" fill="#7D75EC"/>
<path d="M117.264 250.988L115.824 261.918L114.27 261.714L115.71 250.783L117.264 250.988Z" fill="#7D75EC"/>
<path d="M111.165 250.115L105.467 259.938L103.26 259.464L102.094 248.168L103.685 248.509L104.778 258.823L104.382 258.738L109.573 249.773L111.165 250.115ZM108.871 252.115L108.563 253.553L103.048 252.369L103.357 250.932L108.871 252.115Z" fill="#7D75EC"/>
<path d="M98.2701 246.739C99.0141 246.956 99.5857 247.318 99.9848 247.825C100.383 248.337 100.621 248.94 100.7 249.635C100.778 250.33 100.704 251.066 100.478 251.843C100.251 252.621 99.9203 253.282 99.4854 253.828C99.0457 254.371 98.5245 254.748 97.9218 254.958C97.3128 255.171 96.6411 255.17 95.9067 254.956C95.177 254.744 94.6007 254.38 94.1775 253.866C93.7482 253.356 93.4798 252.749 93.3723 252.046C93.2633 251.348 93.3228 250.607 93.5509 249.825C93.7775 249.047 94.1258 248.388 94.5957 247.848C95.0593 247.311 95.6077 246.94 96.2406 246.734C96.8688 246.526 97.5453 246.528 98.2701 246.739ZM101.865 248.021L98.8432 258.39L97.3311 257.949L98.7224 253.176L98.8952 253.226L100.526 247.631L101.865 248.021ZM98.0823 248.161C97.6023 248.021 97.1706 248.028 96.7872 248.182C96.3991 248.335 96.068 248.595 95.7941 248.963C95.514 249.334 95.2991 249.777 95.1494 250.291C95.0011 250.799 94.946 251.283 94.9841 251.742C95.0174 252.2 95.1592 252.598 95.4094 252.937C95.6597 253.275 96.0345 253.517 96.5337 253.663C97.0041 253.8 97.4265 253.798 97.8009 253.657C98.1705 253.515 98.4898 253.259 98.7589 252.889C99.0232 252.518 99.2337 252.064 99.3904 251.527C99.5471 250.989 99.6136 250.493 99.5899 250.038C99.5662 249.583 99.4326 249.193 99.1892 248.867C98.9457 248.54 98.5767 248.305 98.0823 248.161Z" fill="#7D75EC"/>
<path d="M83.7923 241.625L79.1812 251.391L73.3962 248.659L74.0654 247.242L78.433 249.304L79.7331 246.551L76.1793 244.873L76.8518 243.448L80.4055 245.126L82.3749 240.955L83.7923 241.625Z" fill="#7D75EC"/>
<path d="M72.7292 246.702L72.0186 248.049L70.6324 247.317L71.343 245.971L72.7292 246.702ZM77.1295 238.365L73.3489 245.528L71.9626 244.797L75.7432 237.633L77.1295 238.365Z" fill="#7D75EC"/>
<path d="M69.2987 233.905L67.2605 237.326C67.0993 237.597 66.9579 237.888 66.8363 238.2C66.7078 238.513 66.635 238.831 66.618 239.152C66.5967 239.471 66.6573 239.775 66.7997 240.064C66.9378 240.35 67.1916 240.603 67.561 240.823C67.8015 240.966 68.0535 241.061 68.3169 241.107C68.5777 241.158 68.8422 241.144 69.1104 241.065C69.3742 240.984 69.6391 240.827 69.9051 240.596C70.1667 240.361 70.4204 240.038 70.666 239.626L71.3156 240.441C70.9394 241.072 70.4899 241.558 69.9671 241.898C69.4417 242.243 68.8771 242.419 68.2735 242.426C67.6698 242.433 67.0544 242.25 66.4273 241.876C65.9462 241.589 65.5885 241.272 65.3541 240.922C65.1198 240.573 64.9771 240.212 64.9262 239.838C64.8685 239.466 64.8742 239.1 64.9433 238.74C65.0125 238.379 65.1122 238.046 65.2424 237.739C65.3727 237.433 65.5018 237.172 65.6297 236.957L67.9327 233.091L69.2987 233.905ZM74.1892 236.818L70.0437 243.777L68.8388 243.059L70.0364 241.049L69.8753 240.953L72.8232 236.005L74.1892 236.818Z" fill="#7D75EC"/>
<path d="M65.2628 230.965C65.7569 231.305 66.1083 231.681 66.3169 232.092C66.5228 232.507 66.6086 232.925 66.5745 233.344C66.5334 233.765 66.388 234.157 66.1384 234.519C65.9057 234.857 65.6418 235.112 65.3465 235.285C65.0512 235.458 64.7252 235.552 64.3686 235.568C64.0091 235.587 63.6202 235.535 63.2018 235.41C62.8458 235.293 62.4578 235.138 62.0377 234.945C61.6176 234.753 61.1819 234.544 60.7304 234.318C60.2749 234.089 59.8234 233.863 59.3761 233.64L60.0242 233.704C59.6557 234.221 59.5002 234.685 59.5577 235.095C59.6083 235.506 59.9115 235.903 60.4673 236.286C60.8173 236.527 61.1952 236.666 61.601 236.703C62.004 236.744 62.3922 236.616 62.7656 236.321L63.7146 237.522C63.1556 237.98 62.5292 238.22 61.8354 238.24C61.1376 238.257 60.4037 238 59.6337 237.47C59.0367 237.058 58.5889 236.598 58.2902 236.088C57.9845 235.58 57.8805 235.035 57.9782 234.453C58.0215 234.161 58.1144 233.885 58.2571 233.625C58.3998 233.365 58.5676 233.095 58.7605 232.815L61.5902 228.708L62.7327 229.495L61.6817 231.02L61.5955 230.67C62.2231 230.349 62.8376 230.211 63.4388 230.255C64.0331 230.3 64.6411 230.537 65.2628 230.965ZM64.3067 231.864C63.9402 231.611 63.5813 231.458 63.2298 231.404C62.8755 231.354 62.5486 231.375 62.249 231.466C61.9495 231.557 61.6998 231.695 61.5 231.879C61.2939 232.028 61.1016 232.224 60.9231 232.465C60.7406 232.704 60.5982 232.897 60.4961 233.045L60.1825 232.601C60.6327 232.821 61.0415 233.02 61.4091 233.201C61.7766 233.381 62.1133 233.54 62.4191 233.678C62.7179 233.817 62.995 233.926 63.2504 234.005C63.47 234.065 63.6796 234.1 63.8791 234.11C64.0746 234.117 64.256 234.088 64.4235 234.021C64.5868 233.951 64.7294 233.828 64.8514 233.651C64.9706 233.478 65.038 233.287 65.0536 233.08C65.0665 232.876 65.0141 232.67 64.8967 232.461C64.7792 232.253 64.5825 232.054 64.3067 231.864Z" fill="#7D75EC"/>
<path d="M56.3871 224.594L53.9171 227.718C53.7217 227.965 53.5433 228.235 53.3817 228.528C53.2132 228.822 53.0994 229.127 53.0403 229.444C52.9772 229.757 52.9974 230.066 53.1006 230.371C53.2 230.673 53.4183 230.957 53.7556 231.223C53.9752 231.397 54.2125 231.524 54.4676 231.605C54.7195 231.689 54.9836 231.71 55.2597 231.667C55.532 231.621 55.8152 231.501 56.1092 231.306C56.3993 231.108 56.6933 230.821 56.991 230.445L57.5279 231.338C57.072 231.914 56.5626 232.337 55.9995 232.606C55.4334 232.878 54.8506 232.978 54.2513 232.906C53.652 232.834 53.066 232.571 52.4933 232.119C52.0541 231.771 51.7412 231.409 51.5548 231.032C51.3683 230.655 51.2744 230.278 51.273 229.901C51.2646 229.525 51.3184 229.163 51.4343 228.814C51.5502 228.466 51.6929 228.149 51.8622 227.862C52.0316 227.575 52.1938 227.334 52.3489 227.138L55.1398 223.608L56.3871 224.594ZM60.8524 228.124L55.8287 234.478L54.7285 233.609L56.1798 231.773L56.0327 231.657L59.6051 227.138L60.8524 228.124Z" fill="#7D75EC"/>
<path d="M52.1498 220.585C52.8808 221.245 53.3306 221.944 53.4992 222.682C53.6678 223.421 53.5393 224.13 53.1137 224.81L51.7567 223.918C51.964 223.539 52.0161 223.138 51.9131 222.715C51.8031 222.293 51.5477 221.9 51.147 221.538C50.7833 221.21 50.4324 221.028 50.0943 220.992C49.7524 220.953 49.4642 221.063 49.2297 221.323C49.0923 221.475 49.0188 221.631 49.0092 221.791C48.9926 221.951 49.0608 222.177 49.2138 222.47C49.3668 222.764 49.6219 223.186 49.9792 223.738C50.3744 224.337 50.6554 224.85 50.8223 225.277C50.9821 225.705 51.0348 226.079 50.9804 226.4C50.9189 226.722 50.7557 227.03 50.491 227.323C50.1626 227.686 49.7796 227.917 49.342 228.013C48.9044 228.11 48.4442 228.075 47.9613 227.908C47.4748 227.738 46.9959 227.44 46.5246 227.015C46.0645 226.599 45.7198 226.157 45.4905 225.687C45.2613 225.217 45.156 224.748 45.1746 224.28C45.1899 223.815 45.3361 223.385 45.6133 222.988L47.0005 223.847C46.7799 224.173 46.7093 224.524 46.7885 224.899C46.8678 225.273 47.0844 225.634 47.4384 225.981C47.7775 226.314 48.1168 226.513 48.4564 226.577C48.7926 226.645 49.0646 226.563 49.2724 226.333C49.393 226.2 49.4544 226.05 49.4566 225.883C49.455 225.713 49.3722 225.477 49.208 225.174C49.0439 224.87 48.7798 224.447 48.4158 223.902C48.0284 223.317 47.7584 222.81 47.6056 222.382C47.4495 221.958 47.4072 221.58 47.4788 221.247C47.5433 220.915 47.7146 220.594 47.9927 220.286C48.5289 219.693 49.1666 219.423 49.9057 219.477C50.6411 219.529 51.3891 219.898 52.1498 220.585Z" fill="#7D75EC"/>
<path d="M45.0581 213.903L42.2014 216.678C41.9755 216.898 41.7633 217.142 41.5649 217.412C41.3595 217.681 41.2068 217.969 41.1069 218.275C41.0035 218.577 40.9831 218.886 41.0457 219.202C41.1048 219.514 41.2841 219.824 41.5837 220.133C41.7788 220.334 41.9975 220.491 42.2399 220.604C42.4786 220.72 42.7377 220.775 43.0171 220.769C43.2931 220.759 43.5895 220.676 43.9064 220.522C44.2199 220.364 44.5488 220.118 44.8931 219.783L45.3088 220.739C44.7816 221.251 44.2213 221.603 43.628 221.796C43.0312 221.992 42.4403 222.016 41.8555 221.866C41.2708 221.716 40.7241 221.379 40.2154 220.855C39.8253 220.454 39.5624 220.054 39.4267 219.656C39.2911 219.258 39.2472 218.872 39.295 218.498C39.3358 218.124 39.4364 217.771 39.5968 217.441C39.7572 217.111 39.94 216.815 40.1454 216.553C40.3507 216.291 40.5431 216.073 40.7224 215.898L43.9503 212.763L45.0581 213.903ZM49.0243 217.987L41.2775 225.512L40.3003 224.506L44.4804 220.445L44.3497 220.311L47.9165 216.846L49.0243 217.987Z" fill="#7D75EC"/>
<path d="M41.9437 210.042C42.3327 210.498 42.5748 210.952 42.6699 211.403C42.7612 211.857 42.7359 212.283 42.5942 212.679C42.4454 213.075 42.2035 213.416 41.8686 213.701C41.5564 213.967 41.2353 214.145 40.9053 214.236C40.5753 214.327 40.236 214.333 39.8876 214.255C39.5353 214.181 39.1733 214.03 38.8014 213.801C38.4881 213.595 38.1534 213.345 37.7975 213.05C37.4416 212.756 37.0749 212.441 36.6975 212.106C36.3168 211.767 35.9393 211.431 35.5651 211.1L36.1744 211.33C35.6845 211.734 35.4142 212.141 35.3635 212.552C35.3058 212.963 35.4958 213.425 35.9334 213.939C36.209 214.262 36.538 214.494 36.9204 214.635C37.299 214.779 37.7069 214.756 38.1441 214.568L38.7497 215.973C38.0909 216.272 37.4239 216.34 36.7487 216.18C36.0702 216.016 35.4279 215.578 34.8217 214.866C34.3516 214.314 34.0383 213.753 33.8818 213.184C33.7182 212.614 33.759 212.06 34.0043 211.523C34.1217 211.252 34.283 211.01 34.4882 210.795C34.6933 210.581 34.9253 210.364 35.1841 210.144L38.9813 206.91L39.8808 207.966L38.4705 209.167L38.4782 208.806C39.1674 208.659 39.7967 208.685 40.366 208.883C40.9283 209.081 41.4542 209.467 41.9437 210.042ZM40.7874 210.662C40.4989 210.323 40.1919 210.082 39.8664 209.939C39.5371 209.799 39.216 209.734 38.903 209.745C38.5901 209.755 38.3133 209.823 38.0726 209.949C37.8348 210.04 37.5985 210.179 37.3636 210.366C37.1255 210.549 36.9379 210.699 36.8008 210.816L36.6129 210.306C36.991 210.634 37.3341 210.933 37.6424 211.203C37.9506 211.472 38.2346 211.713 38.4942 211.925C38.7468 212.137 38.9862 212.314 39.2124 212.456C39.4089 212.571 39.6023 212.66 39.7924 212.721C39.9793 212.778 40.1623 212.797 40.3414 212.776C40.5172 212.751 40.6869 212.668 40.8506 212.529C41.0105 212.393 41.1249 212.226 41.1938 212.03C41.259 211.836 41.2618 211.624 41.2024 211.392C41.1429 211.16 41.0046 210.917 40.7874 210.662Z" fill="#7D75EC"/>
<path d="M34.9512 201.479L31.7479 203.845C31.4945 204.033 31.2515 204.246 31.0187 204.487C30.7789 204.726 30.589 204.991 30.4489 205.281C30.3058 205.566 30.2441 205.87 30.2637 206.191C30.2804 206.508 30.4165 206.84 30.672 207.186C30.8383 207.411 31.034 207.596 31.2589 207.741C31.4798 207.888 31.7292 207.977 32.007 208.008C32.2818 208.036 32.5866 207.994 32.9214 207.883C33.2533 207.769 33.6122 207.569 33.9983 207.284L34.282 208.286C33.6908 208.723 33.0883 208.997 32.4744 209.108C31.8566 209.223 31.268 209.167 30.7087 208.94C30.1493 208.712 29.6528 208.305 29.2191 207.718C28.8863 207.268 28.6795 206.836 28.5985 206.424C28.5175 206.011 28.5259 205.622 28.6235 205.258C28.7142 204.893 28.8611 204.557 29.0644 204.252C29.2676 203.946 29.4886 203.677 29.7273 203.445C29.966 203.213 30.1859 203.023 30.387 202.874L34.0066 200.2L34.9512 201.479ZM38.3333 206.058L31.8181 210.871L30.9848 209.743L32.867 208.352L32.7556 208.201L37.3887 204.779L38.3333 206.058Z" fill="#7D75EC"/>
<path d="M31.8768 196.458C32.2821 197.095 32.4741 197.746 32.453 198.411C32.4292 199.072 32.2257 199.703 31.8426 200.302C31.4525 200.9 30.9158 201.416 30.2324 201.851C29.5448 202.288 28.8505 202.552 28.1495 202.643C27.4443 202.736 26.7879 202.65 26.1805 202.384C25.5662 202.118 25.0551 201.663 24.6471 201.022C24.2364 200.377 24.0497 199.734 24.087 199.094C24.1173 198.452 24.3334 197.847 24.7354 197.277C25.1346 196.703 25.6759 196.198 26.3593 195.764C27.0427 195.329 27.729 195.052 28.4181 194.934C29.1072 194.815 29.753 194.875 30.3554 195.114C30.9536 195.356 31.4607 195.804 31.8768 196.458ZM30.5641 197.035C30.2876 196.601 29.9588 196.312 29.5776 196.169C29.1965 196.027 28.7842 196.007 28.3409 196.112C27.8976 196.216 27.4397 196.418 26.9673 196.719C26.4948 197.02 26.1188 197.351 25.8392 197.712C25.5569 198.07 25.4004 198.448 25.3697 198.847C25.3363 199.241 25.4512 199.645 25.7142 200.059C25.9933 200.498 26.3304 200.79 26.7254 200.936C27.1203 201.081 27.5435 201.108 27.9949 201.017C28.4435 200.921 28.8915 200.731 29.3386 200.446C29.79 200.159 30.1562 199.831 30.4374 199.463C30.7116 199.093 30.869 198.702 30.9097 198.291C30.9477 197.876 30.8325 197.457 30.5641 197.035ZM30.3905 194.541L25.4739 197.669L25.5705 197.821L21.3753 200.491L20.5298 199.162L29.6417 193.364L30.3905 194.541Z" fill="#7D75EC"/>
<path d="M27.5167 189.035C27.9029 189.741 28.0888 190.446 28.0744 191.149C28.0532 191.85 27.8478 192.501 27.4581 193.101C27.0617 193.7 26.4972 194.2 25.7646 194.6C24.9881 195.025 24.2355 195.248 23.5069 195.271C22.7759 195.289 22.1119 195.122 21.515 194.77C20.918 194.418 20.4301 193.896 20.051 193.203C19.6552 192.479 19.4871 191.77 19.5466 191.076C19.6018 190.385 19.8702 189.745 20.3521 189.157C20.8315 188.564 21.5111 188.062 22.391 187.649L23.143 189.024L22.6429 189.298C21.823 189.758 21.2995 190.249 21.0726 190.772C20.8433 191.291 20.899 191.861 21.2396 192.484C21.6163 193.173 22.1165 193.572 22.7403 193.681C23.3641 193.79 24.0862 193.62 24.9065 193.172C25.6874 192.745 26.1981 192.24 26.4385 191.659C26.6745 191.079 26.6138 190.463 26.2564 189.809C26.0213 189.379 25.722 189.061 25.3587 188.856C24.9886 188.648 24.5735 188.556 24.1134 188.579L23.8035 186.996C24.5907 186.925 25.3133 187.074 25.9713 187.443C26.625 187.815 27.1401 188.346 27.5167 189.035ZM25.5395 193.407L24.4669 193.993L21.6926 188.92L22.7652 188.333L25.5395 193.407Z" fill="#7D75EC"/>
<path d="M25.1056 184.835L15.1713 189.616L14.4916 188.204L24.4259 183.423L25.1056 184.835Z" fill="#7D75EC"/>
<path d="M22.4902 179.291L11.1497 179.884L10.3408 177.776L19.1659 170.629L19.7491 172.149L11.7068 178.698L11.5616 178.32L21.907 177.771L22.4902 179.291ZM19.5615 178.463L18.1891 178.989L16.1682 173.724L17.5406 173.197L19.5615 178.463Z" fill="#7D75EC"/>
<path d="M18.2728 166.728C18.498 167.469 18.5076 168.146 18.3014 168.757C18.0904 169.37 17.7155 169.899 17.1769 170.345C16.6382 170.791 15.9814 171.131 15.2063 171.367C14.4313 171.602 13.6967 171.687 13.0025 171.621C12.3069 171.55 11.7065 171.32 11.2013 170.93C10.6899 170.536 10.323 169.974 10.1007 169.242C9.87976 168.514 9.86878 167.833 10.0677 167.198C10.2604 166.559 10.6217 166.003 11.1517 165.528C11.6769 165.055 12.3293 164.7 13.1091 164.463C13.8842 164.228 14.6262 164.159 15.3354 164.257C16.0383 164.352 16.6491 164.608 17.1677 165.025C17.685 165.438 18.0533 166.005 18.2728 166.728ZM19.1649 170.438L8.83128 173.578L8.37347 172.071L13.1313 170.625L13.1836 170.798L18.7594 169.104L19.1649 170.438ZM16.9797 167.348C16.8344 166.869 16.5925 166.512 16.254 166.275C15.9141 166.033 15.5152 165.898 15.0572 165.87C14.593 165.839 14.105 165.901 13.5931 166.056C13.086 166.21 12.6507 166.429 12.2872 166.712C11.9223 166.99 11.6665 167.326 11.5199 167.721C11.3733 168.116 11.3756 168.562 11.5267 169.059C11.6692 169.528 11.9017 169.881 12.2243 170.117C12.5455 170.349 12.9344 170.476 13.3909 170.5C13.8459 170.518 14.3413 170.446 14.8771 170.283C15.413 170.12 15.8648 169.905 16.2326 169.636C16.6005 169.368 16.8543 169.042 16.9943 168.66C17.1343 168.278 17.1294 167.84 16.9797 167.348Z" fill="#7D75EC"/>
<path d="M14.5933 151.847L3.89702 153.34L3.01267 147.003L4.56512 146.787L5.23279 151.57L8.24855 151.15L7.7053 147.257L9.26518 147.04L9.80843 150.932L14.3767 150.294L14.5933 151.847Z" fill="#7D75EC"/>
<path d="M4.25881 145.241L2.74283 145.382L2.59796 143.821L4.11394 143.68L4.25881 145.241ZM13.646 144.37L5.58063 145.118L5.43576 143.558L13.5011 142.809L13.646 144.37Z" fill="#7D75EC"/>
<path d="M13.0775 135.341L9.09856 135.51C8.78384 135.523 8.4628 135.564 8.13543 135.633C7.80285 135.698 7.49737 135.811 7.219 135.973C6.94041 136.13 6.71942 136.347 6.55604 136.624C6.39244 136.896 6.31977 137.247 6.33801 137.677C6.3499 137.956 6.4086 138.219 6.51412 138.465C6.61465 138.711 6.77136 138.924 6.98423 139.105C7.1969 139.282 7.47292 139.417 7.81228 139.513C8.15144 139.604 8.5608 139.639 9.04037 139.619L8.71458 140.608C7.98024 140.64 7.32749 140.53 6.75632 140.279C6.18016 140.028 5.72379 139.652 5.38722 139.151C5.05065 138.65 4.86687 138.034 4.83589 137.305C4.81213 136.745 4.8821 136.272 5.04581 135.885C5.20952 135.497 5.43376 135.18 5.71852 134.933C5.99807 134.681 6.30754 134.485 6.64693 134.345C6.98631 134.206 7.3199 134.107 7.64769 134.048C7.97549 133.989 8.26427 133.954 8.51404 133.943L13.01 133.752L13.0775 135.341ZM13.319 141.028L5.22634 141.372L5.16682 139.971L7.50472 139.872L7.49676 139.684L13.2516 139.44L13.319 141.028Z" fill="#7D75EC"/>
<path d="M13.3181 129.875C13.3019 130.474 13.1784 130.974 12.9475 131.373C12.7117 131.771 12.4085 132.071 12.0379 132.271C11.6625 132.466 11.2549 132.557 10.8151 132.545C10.4052 132.534 10.0473 132.452 9.74135 132.299C9.43538 132.145 9.17879 131.923 8.97156 131.633C8.75934 131.342 8.59136 130.987 8.46762 130.569C8.37239 130.206 8.29093 129.796 8.22325 129.339C8.15557 128.882 8.0935 128.403 8.03703 127.901C7.9807 127.394 7.92423 126.893 7.86763 126.396L8.16712 126.974C7.53262 126.947 7.05914 127.069 6.74669 127.341C6.42937 127.608 6.2616 128.078 6.24336 128.753C6.23188 129.178 6.32131 129.57 6.51165 129.931C6.69699 130.291 7.01518 130.547 7.46623 130.699L6.97689 132.149C6.28754 131.93 5.74551 131.536 5.35079 130.965C4.9562 130.389 4.77154 129.634 4.7968 128.699C4.81638 127.974 4.95836 127.348 5.22272 126.82C5.48222 126.287 5.88274 125.902 6.4243 125.667C6.69272 125.544 6.97478 125.472 7.27048 125.45C7.56618 125.427 7.88397 125.421 8.22385 125.43L13.2095 125.565L13.172 126.952L11.3202 126.902L11.5674 126.639C12.1782 126.99 12.6289 127.43 12.9198 127.958C13.2058 128.481 13.3385 129.12 13.3181 129.875ZM12.0436 129.562C12.0556 129.118 11.9885 128.733 11.8422 128.409C11.6909 128.085 11.4954 127.822 11.2558 127.62C11.0161 127.419 10.7647 127.285 10.5014 127.217C10.2638 127.126 9.99517 127.071 9.69554 127.053C9.39606 127.03 9.15635 127.016 8.97642 127.011L9.17762 126.506C9.23922 127.003 9.29454 127.455 9.34358 127.861C9.39262 128.268 9.44267 128.637 9.49373 128.968C9.53993 129.295 9.59957 129.586 9.67265 129.844C9.74182 130.06 9.82659 130.255 9.92695 130.428C10.0275 130.596 10.1513 130.732 10.2986 130.836C10.446 130.935 10.6271 130.987 10.842 130.993C11.052 130.999 11.2483 130.951 11.4311 130.851C11.6088 130.751 11.7531 130.595 11.8639 130.383C11.9747 130.171 12.0346 129.897 12.0436 129.562Z" fill="#7D75EC"/>
<path d="M13.7973 119.019L9.83181 118.651C9.51816 118.622 9.1945 118.619 8.86083 118.643C8.52264 118.662 8.20472 118.733 7.90708 118.856C7.6099 118.974 7.36171 119.16 7.1625 119.412C6.96376 119.66 6.84452 119.998 6.80478 120.426C6.7789 120.705 6.80171 120.973 6.8732 121.231C6.93971 121.488 7.06625 121.721 7.25281 121.929C7.43984 122.132 7.69505 122.304 8.01845 122.444C8.34231 122.58 8.74322 122.67 9.22116 122.714L8.76513 123.651C8.03327 123.583 7.40125 123.386 6.86906 123.061C6.3319 122.735 5.93028 122.301 5.66423 121.759C5.39817 121.217 5.29887 120.582 5.36634 119.856C5.41809 119.298 5.55114 118.838 5.76549 118.477C5.97984 118.115 6.24474 117.831 6.5602 117.624C6.87114 117.412 7.20414 117.259 7.55922 117.167C7.9143 117.074 8.25821 117.021 8.59095 117.006C8.9237 116.992 9.21454 116.997 9.46347 117.02L13.9442 117.435L13.7973 119.019ZM13.2712 124.687L5.20584 123.938L5.33546 122.542L7.66545 122.758L7.68277 122.571L13.4181 123.104L13.2712 124.687Z" fill="#7D75EC"/>
<path d="M14.8262 113.267C14.6714 114.239 14.3305 114.998 13.8034 115.542C13.2763 116.085 12.6117 116.364 11.8095 116.378L11.8174 114.755C12.2479 114.722 12.6124 114.547 12.911 114.23C13.2054 113.907 13.395 113.479 13.4799 112.946C13.5569 112.462 13.5183 112.069 13.364 111.765C13.2105 111.458 12.9609 111.276 12.6153 111.221C12.4129 111.189 12.242 111.212 12.1029 111.291C11.9596 111.365 11.8067 111.545 11.6444 111.834C11.4821 112.122 11.2671 112.566 10.9994 113.166C10.7124 113.824 10.4355 114.34 10.1686 114.712C9.8975 115.079 9.61243 115.328 9.31334 115.457C9.0101 115.581 8.66343 115.612 8.27334 115.55C7.78943 115.473 7.38768 115.277 7.06809 114.963C6.7485 114.649 6.52689 114.244 6.40326 113.748C6.28042 113.248 6.26891 112.684 6.36873 112.057C6.46619 111.445 6.64933 110.914 6.91815 110.466C7.18697 110.018 7.52272 109.674 7.9254 109.434C8.32315 109.194 8.76375 109.081 9.24721 109.098L9.28377 110.729C8.88998 110.722 8.55761 110.854 8.28668 111.124C8.01574 111.395 7.83149 111.773 7.73393 112.259C7.63951 112.725 7.65799 113.118 7.78938 113.437C7.91583 113.756 8.13213 113.94 8.43828 113.989C8.61604 114.017 8.77529 113.987 8.91603 113.898C9.05755 113.804 9.21064 113.605 9.3753 113.303C9.53996 113 9.75121 112.547 10.009 111.945C10.2888 111.301 10.5662 110.799 10.8414 110.437C11.1117 110.075 11.4059 109.834 11.7239 109.712C12.0378 109.585 12.3997 109.554 12.8095 109.619C13.5996 109.745 14.1733 110.132 14.5307 110.782C14.8889 111.426 14.9874 112.254 14.8262 113.267Z" fill="#7D75EC"/>
<path d="M16.5224 103.77L12.6383 102.89C12.3311 102.82 12.0105 102.775 11.6765 102.756C11.3388 102.731 11.0143 102.76 10.7032 102.843C10.3932 102.922 10.1231 103.073 9.89272 103.298C9.66349 103.518 9.50136 103.837 9.40634 104.257C9.34447 104.53 9.33223 104.799 9.36964 105.063C9.40217 105.327 9.49741 105.574 9.65535 105.805C9.8144 106.031 10.0451 106.234 10.3475 106.415C10.6511 106.592 11.0369 106.733 11.505 106.839L10.9311 107.709C10.2143 107.546 9.61321 107.269 9.12782 106.877C8.63756 106.484 8.29573 106.002 8.10232 105.43C7.90891 104.858 7.89286 104.216 8.05418 103.504C8.17793 102.958 8.36956 102.52 8.62909 102.189C8.88861 101.858 9.18819 101.61 9.52783 101.446C9.86369 101.277 10.2137 101.169 10.5778 101.123C10.9419 101.077 11.2898 101.069 11.6216 101.098C11.9534 101.127 12.2412 101.169 12.485 101.224L16.8737 102.219L16.5224 103.77ZM15.2645 109.321L4.73145 106.935L5.04138 105.567L10.7248 106.855L10.7662 106.672L15.6158 107.771L15.2645 109.321Z" fill="#7D75EC"/>
<path d="M18.0972 98.8756C17.9249 99.4504 17.6753 99.9002 17.3483 100.225C17.0165 100.548 16.6457 100.758 16.2358 100.855C15.8225 100.945 15.4051 100.927 14.9836 100.8C14.5909 100.683 14.2668 100.51 14.0115 100.282C13.7562 100.054 13.5664 99.7728 13.4423 99.4381C13.3134 99.102 13.2438 98.7157 13.2336 98.2794C13.2364 97.9045 13.2647 97.4876 13.3187 97.0287C13.3727 96.5699 13.4379 96.091 13.5144 95.5919C13.5923 95.0881 13.6688 94.589 13.7438 94.0948L13.8819 94.7312C13.2765 94.5394 12.7876 94.5338 12.415 94.7144C12.0391 94.8889 11.7543 95.2994 11.5605 95.946C11.4385 96.3531 11.4224 96.7554 11.5121 97.1528C11.5969 97.5489 11.8372 97.8793 12.2329 98.144L11.382 99.4158C10.7737 99.0247 10.3535 98.5021 10.1215 97.8479C9.89095 97.189 9.90987 96.4117 10.1783 95.5161C10.3864 94.8216 10.687 94.254 11.08 93.8133C11.4697 93.3663 11.9567 93.0999 12.5409 93.014C12.8321 92.9655 13.1233 92.9693 13.4145 93.0252C13.7057 93.0812 14.0141 93.1579 14.3398 93.2555L19.1174 94.6872L18.7191 96.0163L16.9446 95.4846L17.252 95.2948C17.7497 95.7937 18.07 96.336 18.2129 96.9216C18.3525 97.5011 18.3139 98.1524 18.0972 98.8756ZM16.9483 98.2417C17.076 97.8154 17.1116 97.4268 17.055 97.0757C16.9936 96.7233 16.8735 96.4185 16.6948 96.1614C16.5161 95.9042 16.3084 95.7089 16.0718 95.5754C15.8663 95.425 15.6213 95.302 15.3368 95.2063C15.0537 95.1059 14.826 95.0298 14.6535 94.9781L14.9796 94.5434C14.9093 95.0391 14.8448 95.4895 14.786 95.8947C14.7272 96.2999 14.6792 96.6691 14.642 97.0025C14.6013 97.3296 14.5828 97.6268 14.5862 97.894C14.5963 98.1215 14.6273 98.3317 14.6791 98.5247C14.7323 98.7129 14.8164 98.8764 14.9313 99.0153C15.0478 99.1493 15.209 99.2472 15.4149 99.3089C15.6161 99.3692 15.8179 99.3749 16.0205 99.326C16.2183 99.2756 16.3983 99.1626 16.5606 98.9867C16.7229 98.8109 16.8521 98.5626 16.9483 98.2417Z" fill="#7D75EC"/>
<path d="M21.4534 88.3854L17.7247 86.9863C17.4298 86.8756 17.1182 86.788 16.7899 86.7236C16.4587 86.6527 16.1333 86.6375 15.8138 86.6778C15.496 86.7134 15.2078 86.8269 14.9491 87.0182C14.6922 87.2048 14.4882 87.4994 14.3371 87.902C14.2387 88.1642 14.1901 88.429 14.1912 88.6964C14.1877 88.9621 14.2485 89.2199 14.3737 89.4698C14.5006 89.715 14.7016 89.948 14.9766 90.1687C15.2534 90.3847 15.6164 90.577 16.0658 90.7456L15.3792 91.5294C14.6911 91.2711 14.1332 90.9149 13.7055 90.4607C13.2731 90.0048 12.9999 89.4803 12.8859 88.8875C12.7719 88.2947 12.8431 87.6565 13.0996 86.973C13.2963 86.4487 13.5457 86.0403 13.8477 85.7478C14.1497 85.4552 14.4801 85.2508 14.8389 85.1344C15.1947 85.0116 15.5561 84.9522 15.923 84.9564C16.2899 84.9606 16.6357 84.9996 16.9605 85.0734C17.2853 85.1472 17.5647 85.228 17.7988 85.3158L22.0119 86.8967L21.4534 88.3854ZM19.4536 93.715L11.8699 90.8694L12.3626 89.5563L14.5535 90.3784L14.6193 90.2028L20.0122 92.2264L19.4536 93.715Z" fill="#7D75EC"/>
<path d="M23.7631 83.5731C23.4509 84.2606 23.0104 84.7772 22.4416 85.1229C21.8748 85.4641 21.2357 85.6379 20.5244 85.6444C19.8106 85.6442 19.085 85.4767 18.3474 85.1418C17.6054 84.8048 17.005 84.3675 16.5463 83.8297C16.083 83.2898 15.7966 82.693 15.6871 82.0393C15.5752 81.3789 15.6763 80.7027 15.9905 80.0107C16.3068 79.3141 16.7432 78.8066 17.2996 78.4882C17.8536 78.1632 18.479 78.0133 19.1758 78.0387C19.8747 78.0596 20.5929 78.2374 21.3305 78.5724C22.068 78.9073 22.6746 79.331 23.1502 79.8435C23.6259 80.356 23.9282 80.9299 24.0571 81.565C24.1815 82.1981 24.0835 82.8675 23.7631 83.5731ZM22.5623 82.789C22.7752 82.3201 22.8374 81.887 22.7486 81.4898C22.6599 81.0926 22.4508 80.7368 22.1213 80.4224C21.7918 80.108 21.3721 79.8351 20.8622 79.6035C20.3523 79.372 19.8696 79.2379 19.414 79.2012C18.9604 79.16 18.5583 79.2355 18.2074 79.4276C17.8587 79.6152 17.583 79.9321 17.3804 80.3782C17.1654 80.8517 17.1047 81.2937 17.1984 81.7041C17.2921 82.1146 17.5006 82.4838 17.8239 82.8119C18.1493 83.1353 18.5532 83.4066 19.0358 83.6258C19.523 83.847 19.9976 83.9747 20.4599 84.0088C20.9196 84.0364 21.3327 83.9549 21.6993 83.7644C22.0679 83.5694 22.3556 83.2442 22.5623 82.789ZM24.5567 81.2812L19.2506 78.8717L19.1762 79.0356L14.6486 76.9796L15.2998 75.5456L25.1334 80.011L24.5567 81.2812Z" fill="#7D75EC"/>
<path d="M27.7765 75.4981C27.3929 76.2059 26.902 76.7445 26.3036 77.114C25.7032 77.4767 25.045 77.6574 24.3291 77.6561C23.6112 77.648 22.8853 77.445 22.1512 77.0471C21.3731 76.6253 20.777 76.1145 20.3628 75.5147C19.951 74.9104 19.7308 74.2621 19.7022 73.5698C19.6737 72.8776 19.8476 72.1842 20.2241 71.4896C20.6172 70.7643 21.1212 70.2384 21.7361 69.912C22.3465 69.5832 23.0296 69.4615 23.7852 69.5469C24.5432 69.6279 25.3343 69.9259 26.1584 70.4409L25.4115 71.8189L24.9104 71.5473C24.0792 71.1082 23.3824 70.9352 22.82 71.0285C22.26 71.1173 21.8108 71.4739 21.4725 72.0981C21.0984 72.7882 21.0348 73.4249 21.2818 74.008C21.5287 74.5912 22.0632 75.1055 22.8852 75.5511C23.6677 75.9752 24.3684 76.1304 24.9874 76.0167C25.602 75.9005 26.0869 75.5149 26.4419 74.86C26.6754 74.4292 26.78 74.0053 26.7557 73.5884C26.7295 73.1647 26.5816 72.766 26.312 72.3924L27.4733 71.273C27.9606 71.8954 28.2275 72.5833 28.2742 73.3366C28.3165 74.0875 28.1506 74.808 27.7765 75.4981ZM23.0312 76.2103L21.9565 75.6278L24.712 70.544L25.7867 71.1266L23.0312 76.2103Z" fill="#7D75EC"/>
<path d="M29.8209 71.456L20.391 65.7439L21.2031 64.4032L30.633 70.1153L29.8209 71.456Z" fill="#7D75EC"/>
<path d="M33.3006 65.8276L26.6316 56.6359L27.9596 54.8103L38.758 58.325L37.8006 59.6412L27.9296 56.4579L28.1679 56.1304L34.2579 64.5115L33.3006 65.8276ZM32.4015 62.9199L31.2127 62.0552L34.5304 57.4942L35.7192 58.3589L32.4015 62.9199Z" fill="#7D75EC"/>
<path d="M41.2928 55.7391C40.7946 56.3327 40.2332 56.7101 39.6085 56.8713C38.9799 57.0292 38.3318 57.0042 37.6642 56.7964C36.9965 56.5887 36.3525 56.2244 35.732 55.7037C35.1115 55.1831 34.6394 54.6139 34.3156 53.9963C33.9951 53.3749 33.8603 52.746 33.9111 52.1099C33.9613 51.4666 34.2323 50.852 34.724 50.266C35.2125 49.6838 35.7772 49.3026 36.418 49.1223C37.0582 48.935 37.7217 48.9338 38.4086 49.1186C39.0917 49.3001 39.7454 49.6529 40.3698 50.1768C40.9902 50.6975 41.453 51.2816 41.7581 51.9293C42.0625 52.5698 42.1816 53.2213 42.1154 53.8837C42.0523 54.5423 41.7781 55.1607 41.2928 55.7391ZM38.6714 58.513L30.3983 51.5707L31.4107 50.3642L35.2198 53.5605L35.1041 53.6984L39.5681 57.4444L38.6714 58.513ZM40.0672 54.9945C40.3886 54.6115 40.556 54.2135 40.5696 53.8006C40.5864 53.3839 40.4815 52.9761 40.255 52.5771C40.0278 52.1711 39.7093 51.7961 39.2995 51.4522C38.8935 51.1115 38.4728 50.8662 38.0373 50.7162C37.6051 50.5623 37.1836 50.5318 36.773 50.6245C36.3623 50.7172 35.9898 50.9627 35.6556 51.361C35.3406 51.7364 35.1722 52.1238 35.1504 52.5232C35.1317 52.9188 35.2373 53.3141 35.467 53.7093C35.7 54.1006 36.031 54.4762 36.46 54.8362C36.8889 55.1962 37.3163 55.4569 37.7421 55.6184C38.1679 55.7799 38.5791 55.8149 38.9757 55.7235C39.3723 55.632 39.7361 55.389 40.0672 54.9945Z" fill="#7D75EC"/>
<path d="M51.9999 44.2296L44.9084 36.0841L49.7334 31.8832L50.7626 33.0655L47.1198 36.237L49.1192 38.5336L52.0833 35.953L53.1175 37.1409L50.1534 39.7215L53.1821 43.2004L51.9999 44.2296Z" fill="#7D75EC"/>
<path d="M51.5746 32.2116L50.626 31.0208L51.8521 30.0441L52.8007 31.235L51.5746 32.2116ZM57.4486 39.5856L52.4018 33.25L53.6278 32.2733L58.6746 38.6089L57.4486 39.5856Z" fill="#7D75EC"/>
<path d="M64.8461 34.0386L62.527 30.801C62.3436 30.5449 62.1335 30.2987 61.8966 30.0625C61.6609 29.8192 61.399 29.6254 61.1111 29.4811C60.8273 29.3338 60.5247 29.2677 60.2033 29.2827C59.8859 29.2947 59.5525 29.4259 59.2029 29.6763C58.9753 29.8394 58.7875 30.0323 58.6396 30.2551C58.4888 30.4739 58.3958 30.7219 58.3607 30.9992C58.3297 31.2736 58.367 31.579 58.4727 31.9154C58.5824 32.2489 58.777 32.6107 59.0565 33.001L58.0499 33.27C57.6219 32.6725 57.3566 32.066 57.2541 31.4506C57.1486 30.8311 57.2135 30.2434 57.4488 29.6874C57.684 29.1314 58.0984 28.6409 58.6918 28.2158C59.1471 27.8897 59.5816 27.6891 59.9953 27.6142C60.409 27.5392 60.7973 27.5532 61.1601 27.6562C61.5241 27.7522 61.8574 27.9041 62.1599 28.1117C62.4624 28.3194 62.728 28.5443 62.9568 28.7864C63.1855 29.0284 63.3727 29.2511 63.5183 29.4543L66.1387 33.1127L64.8461 34.0386ZM60.2184 37.3535L55.5016 30.7685L56.6418 29.9518L58.0044 31.8541L58.1568 31.7449L61.511 36.4276L60.2184 37.3535Z" fill="#7D75EC"/>
<path d="M68.9969 31.5921C68.4872 31.9086 68.0023 32.0803 67.5421 32.107C67.0794 32.1295 66.6625 32.0411 66.2916 31.8418C65.9223 31.6356 65.6216 31.3455 65.3895 30.9717C65.1732 30.6234 65.0449 30.2793 65.0046 29.9395C64.9642 29.5996 65.0084 29.2632 65.1371 28.9302C65.2632 28.593 65.4669 28.2575 65.7483 27.9239C65.9987 27.6448 66.2961 27.3513 66.6405 27.0433C66.9848 26.7353 67.3509 26.4197 67.7388 26.0965C68.1309 25.7707 68.5187 25.4474 68.9023 25.1269L68.5843 25.6951C68.2578 25.1504 67.8952 24.8223 67.4964 24.7109C67.0993 24.5926 66.614 24.7115 66.0405 25.0675C65.6795 25.2917 65.4009 25.5824 65.2048 25.9396C65.0061 26.2925 64.9672 26.6992 65.0883 27.1596L63.6085 27.5487C63.4118 26.8528 63.4432 26.183 63.7027 25.5392C63.9664 24.8929 64.4954 24.3231 65.2898 23.8299C65.9057 23.4474 66.5068 23.2213 67.0932 23.1515C67.6812 23.0748 68.2225 23.1977 68.7171 23.5204C68.9673 23.677 69.183 23.8726 69.3641 24.1074C69.5452 24.3422 69.7254 24.604 69.9047 24.8929L72.5356 29.1301L71.3568 29.862L70.3796 28.2882L70.7356 28.3497C70.7781 29.0531 70.6588 29.6715 70.3779 30.205C70.0987 30.7315 69.6383 31.1939 68.9969 31.5921ZM68.5562 30.3562C68.9342 30.1215 69.2183 29.8539 69.4084 29.5534C69.5958 29.2486 69.7078 28.9408 69.7442 28.6298C69.7807 28.3188 69.7545 28.0349 69.6657 27.7781C69.6113 27.5293 69.5092 27.2749 69.3595 27.0148C69.2139 26.752 69.0937 26.5441 68.9988 26.3912L69.531 26.2815C69.15 26.6063 68.8033 26.901 68.4909 27.1656C68.1785 27.4302 67.8979 27.6751 67.6492 27.9001C67.4021 28.1183 67.1913 28.3286 67.0169 28.5311C66.8738 28.7082 66.7577 28.8862 66.6687 29.0651C66.5839 29.2413 66.5386 29.4196 66.5328 29.5997C66.5312 29.7773 66.5871 29.9574 66.7005 30.1401C66.8113 30.3185 66.9587 30.4564 67.1429 30.554C67.3244 30.6473 67.5342 30.6818 67.7722 30.6576C68.0102 30.6334 68.2716 30.5329 68.5562 30.3562Z" fill="#7D75EC"/>
<path d="M78.2658 26.0403L76.3939 22.5252C76.2459 22.2471 76.07 21.9754 75.8664 21.71C75.6648 21.4378 75.4308 21.2111 75.1645 21.0301C74.9025 20.8467 74.6113 20.7412 74.2907 20.7137C73.9746 20.6837 73.6267 20.7699 73.2472 20.972C73 21.1036 72.7885 21.2701 72.6124 21.4714C72.4341 21.6684 72.3092 21.902 72.2379 22.1722C72.1709 22.4401 72.1677 22.7478 72.228 23.0952C72.2928 23.4402 72.438 23.8246 72.6636 24.2482L71.6303 24.3821C71.2848 23.7334 71.1019 23.0972 71.0814 22.4737C71.0585 21.8457 71.2004 21.2717 71.5069 20.7516C71.8134 20.2315 72.2888 19.7999 72.9332 19.4568C73.4274 19.1935 73.8846 19.0521 74.3046 19.0323C74.7246 19.0126 75.1076 19.0777 75.4537 19.2276C75.8019 19.3708 76.1122 19.5652 76.3847 19.811C76.6572 20.0568 76.8908 20.3147 77.0856 20.5848C77.2805 20.855 77.4366 21.1004 77.5541 21.321L79.6692 25.293L78.2658 26.0403ZM73.2413 28.716L69.4342 21.5665L70.6721 20.9072L71.7719 22.9727L71.9374 22.8845L74.6447 27.9686L73.2413 28.716Z" fill="#7D75EC"/>
<path d="M83.8901 23.6107C82.9918 24.0147 82.1707 24.1454 81.4268 24.0029C80.683 23.8604 80.0852 23.4576 79.6336 22.7944L80.996 21.9105C81.2594 22.2526 81.6055 22.4615 82.0343 22.5374C82.4656 22.6066 82.9275 22.5305 83.42 22.309C83.8669 22.1081 84.1748 21.86 84.3436 21.5649C84.517 21.2676 84.5319 20.9594 84.3884 20.6402C84.3043 20.4532 84.191 20.3232 84.0486 20.2502C83.9086 20.1706 83.6737 20.1419 83.3438 20.1642C83.0139 20.1864 82.5245 20.2502 81.8757 20.3555C81.168 20.4764 80.5851 20.5274 80.1271 20.5085C79.6717 20.4831 79.3077 20.3808 79.0353 20.2017C78.7655 20.0161 78.5496 19.7431 78.3876 19.3829C78.1867 18.9359 78.1299 18.4927 78.2174 18.0532C78.3049 17.6137 78.5219 17.2064 78.8686 16.8312C79.2198 16.454 79.685 16.1352 80.2641 15.8748C80.8296 15.6206 81.3735 15.4829 81.8958 15.4619C82.4181 15.4409 82.8899 15.533 83.3111 15.7383C83.7303 15.9391 84.0657 16.2461 84.3172 16.6593L82.9733 17.5842C82.7632 17.2511 82.4707 17.0454 82.0957 16.9673C81.7207 16.8892 81.3033 16.9426 80.8437 17.1273C80.4023 17.3039 80.0839 17.5347 79.8887 17.8198C79.6914 18.1004 79.6563 18.3821 79.7834 18.6648C79.8572 18.829 79.9699 18.9455 80.1215 19.0144C80.2776 19.0813 80.5275 19.1005 80.8711 19.0721C81.2146 19.0437 81.7088 18.9723 82.3536 18.8578C83.0455 18.7386 83.618 18.695 84.071 18.7271C84.5219 18.7546 84.8854 18.868 85.1614 19.0674C85.4399 19.2601 85.6643 19.5457 85.8345 19.9242C86.1625 20.6539 86.153 21.3461 85.8061 22.001C85.4636 22.6538 84.825 23.1904 83.8901 23.6107Z" fill="#7D75EC"/>
<path d="M92.3785 19.9538L90.9794 16.2251C90.8687 15.9302 90.7297 15.6379 90.5623 15.3482C90.3978 15.0522 90.1953 14.797 89.9547 14.5829C89.7188 14.367 89.4437 14.2246 89.1295 14.1556C88.8199 14.0848 88.4638 14.125 88.0612 14.2761C87.7991 14.3744 87.5676 14.512 87.3669 14.6888C87.1645 14.8609 87.0103 15.0762 86.9045 15.3349C86.8033 15.5919 86.76 15.8965 86.7747 16.2488C86.7941 16.5993 86.8881 16.9993 87.0567 17.4487L86.0148 17.4471C85.7566 16.759 85.6578 16.1044 85.7186 15.4835C85.7776 14.8579 85.9928 14.3072 86.3643 13.8313C86.7358 13.3555 87.2633 12.9893 87.9468 12.7329C88.4711 12.5361 88.9428 12.4553 89.3618 12.4903C89.7808 12.5254 90.1521 12.6397 90.4758 12.8333C90.8024 13.0205 91.0848 13.2537 91.323 13.5328C91.5612 13.8119 91.7594 14.098 91.9174 14.3912C92.0755 14.6843 92.1984 14.9479 92.2863 15.182L93.8671 19.3952L92.3785 19.9538ZM87.0488 21.9536L83.2548 11.842L84.5679 11.3493L86.6151 16.8053L86.7906 16.7395L88.5375 21.395L87.0488 21.9536Z" fill="#7D75EC"/>
<path d="M97.2823 18.5727C96.7076 18.7449 96.1947 18.7838 95.7436 18.6893C95.291 18.59 94.9118 18.3957 94.6058 18.1064C94.3033 17.8108 94.0888 17.4522 93.9625 17.0308C93.8448 16.638 93.8109 16.2724 93.8608 15.9338C93.9108 15.5952 94.0414 15.282 94.2527 14.9943C94.4625 14.7017 94.7468 14.4312 95.1056 14.1828C95.4203 13.9788 95.7841 13.7733 96.197 13.566C96.6099 13.3588 97.0458 13.1498 97.5046 12.9393C97.9683 12.7272 98.4271 12.5167 98.8812 12.3075L98.4256 12.7729C98.2529 12.1617 97.9887 11.7503 97.6329 11.5385C97.2805 11.3205 96.781 11.3083 96.1344 11.5021C95.7273 11.6241 95.3824 11.8319 95.0998 12.1253C94.8157 12.414 94.6719 12.7964 94.6684 13.2725L93.1383 13.2612C93.1304 12.5381 93.3358 11.8997 93.7545 11.3462C94.178 10.7913 94.8376 10.3796 95.7333 10.1112C96.4278 9.9031 97.0671 9.84199 97.6514 9.92789C98.239 10.0076 98.7293 10.2678 99.1224 10.7085C99.323 10.925 99.48 11.1703 99.5934 11.4442C99.7068 11.7182 99.8123 12.018 99.9099 12.3437L101.342 17.1213L100.012 17.5196L99.4807 15.7451L99.8082 15.8975C99.6653 16.5876 99.3885 17.1533 98.978 17.5948C98.5708 18.03 98.0056 18.3559 97.2823 18.5727ZM97.18 17.2645C97.6063 17.1367 97.9504 16.9527 98.2125 16.7124C98.4731 16.4672 98.6616 16.1993 98.7781 15.9087C98.8945 15.618 98.9435 15.3371 98.9249 15.0661C98.9374 14.8118 98.9054 14.5395 98.8289 14.2492C98.7571 13.9576 98.6954 13.7255 98.6438 13.5531L99.1861 13.5863C98.7335 13.8002 98.3218 13.9941 97.9511 14.1678C97.5803 14.3415 97.2455 14.5045 96.9466 14.6567C96.6511 14.8027 96.3927 14.9506 96.1714 15.1004C95.987 15.234 95.8284 15.3755 95.6957 15.5249C95.5678 15.6728 95.4774 15.833 95.4247 16.0054C95.3768 16.1763 95.3837 16.3648 95.4454 16.5707C95.5057 16.7719 95.6119 16.9436 95.7642 17.0859C95.915 17.2234 96.1084 17.3116 96.3445 17.3504C96.5806 17.3893 96.8591 17.3606 97.18 17.2645Z" fill="#7D75EC"/>
<path d="M108.041 15.5516L107.161 11.6676C107.091 11.3604 106.993 11.0519 106.866 10.7422C106.744 10.4266 106.578 10.1463 106.368 9.90151C106.164 9.6556 105.911 9.47714 105.609 9.36613C105.312 9.25402 104.953 9.24547 104.534 9.3405C104.261 9.40237 104.013 9.50726 103.79 9.65516C103.566 9.79818 103.384 9.99065 103.244 10.2326C103.109 10.4734 103.025 10.7693 102.992 11.1203C102.963 11.4703 103.002 11.8793 103.108 12.3474L102.076 12.2045C101.914 11.4876 101.905 10.8258 102.049 10.2188C102.193 9.60702 102.481 9.09061 102.913 8.66959C103.346 8.24857 103.918 7.9574 104.63 7.79608C105.176 7.67233 105.655 7.65624 106.065 7.74782C106.475 7.83939 106.828 8.00307 107.122 8.23885C107.42 8.46864 107.668 8.73796 107.867 9.04681C108.065 9.35566 108.222 9.66603 108.339 9.97793C108.456 10.2898 108.542 10.5677 108.597 10.8115L109.591 15.2003L108.041 15.5516ZM102.489 16.8096L100.699 8.90982L102.067 8.59989L102.584 10.882L102.767 10.8406L104.04 16.4582L102.489 16.8096Z" fill="#7D75EC"/>
<path d="M113.48 14.7966C112.734 14.9124 112.061 14.8272 111.46 14.541C110.863 14.2541 110.368 13.8149 109.972 13.2236C109.581 12.6266 109.323 11.9278 109.199 11.1274C109.074 10.3221 109.111 9.58016 109.309 8.90171C109.506 8.21832 109.849 7.65162 110.335 7.20162C110.826 6.74592 111.447 6.45977 112.198 6.34317C112.954 6.22581 113.618 6.31252 114.189 6.6033C114.765 6.88838 115.233 7.32927 115.594 7.92598C115.959 8.52193 116.204 9.22011 116.329 10.0205C116.453 10.8209 116.431 11.5605 116.263 12.2393C116.095 12.9181 115.781 13.4855 115.321 13.9416C114.86 14.3927 114.246 14.6777 113.48 14.7966ZM113.478 13.3625C113.987 13.2835 114.383 13.098 114.666 12.806C114.95 12.5141 115.133 12.1441 115.215 11.6962C115.297 11.2483 115.296 10.7476 115.21 10.1943C115.124 9.64089 114.971 9.16364 114.752 8.76251C114.538 8.36061 114.254 8.06563 113.901 7.87756C113.553 7.68873 113.137 7.6319 112.653 7.70707C112.139 7.78685 111.736 7.97842 111.444 8.2818C111.152 8.58518 110.958 8.96197 110.861 9.4122C110.769 9.86166 110.763 10.3482 110.844 10.872C110.926 11.4006 111.08 11.8676 111.305 12.2729C111.534 12.6725 111.828 12.9734 112.189 13.1755C112.554 13.3769 112.984 13.4392 113.478 13.3625ZM115.832 14.2037L114.938 8.44521L114.76 8.47283L113.997 3.55919L115.554 3.31756L117.211 13.9897L115.832 14.2037Z" fill="#7D75EC"/>
<path d="M122.344 13.7156C121.542 13.7838 120.822 13.6694 120.185 13.3724C119.552 13.0699 119.039 12.6193 118.647 12.0203C118.26 11.416 118.03 10.6978 117.96 9.86585C117.885 8.98404 117.984 8.20531 118.258 7.52968C118.536 6.85363 118.957 6.31353 119.52 5.90938C120.083 5.50523 120.758 5.26968 121.545 5.20273C122.367 5.13281 123.083 5.26508 123.694 5.59954C124.304 5.92902 124.781 6.43291 125.125 7.11122C125.473 7.78911 125.659 8.61385 125.681 9.58545L124.119 9.71829L124.071 9.15034C123.981 8.21457 123.743 7.53733 123.356 7.11861C122.974 6.69947 122.43 6.51998 121.722 6.58015C120.94 6.64668 120.373 6.94329 120.022 7.46999C119.67 7.99668 119.534 8.72585 119.613 9.65749C119.688 10.5443 119.944 11.2151 120.379 11.6698C120.813 12.1196 121.402 12.3129 122.144 12.2498C122.633 12.2083 123.044 12.0628 123.379 11.8136C123.719 11.5589 123.971 11.2163 124.135 10.7858L125.708 11.1413C125.456 11.8903 125.028 12.4913 124.424 12.9441C123.82 13.3919 123.126 13.6491 122.344 13.7156ZM119.142 10.1416L119.039 8.92351L124.8 8.43345L124.904 9.65155L119.142 10.1416Z" fill="#7D75EC"/>
<path d="M127.494 13.1653L127.112 2.14698L128.678 2.09254L129.061 13.1109L127.494 13.1653Z" fill="#7D75EC"/>
<path d="M134.251 12.9987L138.298 2.38828L140.553 2.50149L143.517 13.4639L141.892 13.3823L139.157 3.3776L139.562 3.39791L135.877 13.0803L134.251 12.9987ZM136.194 10.6556L136.267 9.18749L141.9 9.47031L141.827 10.9385L136.194 10.6556Z" fill="#7D75EC"/>
<path d="M147.009 14.1613C146.24 14.0689 145.617 13.8052 145.14 13.3703C144.664 12.9305 144.331 12.3743 144.139 11.7017C143.948 11.0291 143.901 10.2907 143.997 9.48645C144.094 8.68222 144.312 7.9757 144.652 7.36689C144.997 6.75867 145.45 6.30186 146.01 5.99648C146.576 5.68673 147.239 5.57745 147.998 5.66863C148.753 5.75922 149.381 6.02345 149.882 6.46133C150.389 6.89485 150.753 7.44969 150.974 8.12585C151.196 8.79704 151.258 9.53723 151.161 10.3464C151.064 11.1507 150.829 11.8576 150.453 12.4672C150.083 13.0724 149.603 13.5284 149.012 13.8352C148.427 14.1426 147.759 14.2512 147.009 14.1613ZM143.253 13.4837L144.54 2.76072L146.104 2.94845L145.512 7.88551L145.333 7.86405L144.638 13.65L143.253 13.4837ZM146.962 12.7279C147.459 12.7875 147.883 12.7101 148.236 12.4957C148.595 12.2818 148.879 11.971 149.089 11.5631C149.304 11.1509 149.444 10.6792 149.508 10.148C149.571 9.62175 149.546 9.13534 149.434 8.68873C149.326 8.24273 149.121 7.87317 148.819 7.58006C148.517 7.28695 148.108 7.1094 147.591 7.04742C147.105 6.98901 146.688 7.05989 146.342 7.26003C146.001 7.46078 145.727 7.76538 145.522 8.17384C145.322 8.5829 145.189 9.06543 145.122 9.62144C145.055 10.1774 145.071 10.6779 145.168 11.1227C145.266 11.5675 145.462 11.9309 145.755 12.2129C146.048 12.4949 146.451 12.6666 146.962 12.7279Z" fill="#7D75EC"/>
<path d="M162.253 16.757L165.196 6.36578L171.351 8.10926L170.924 9.61743L166.277 8.30113L165.447 11.2309L169.228 12.3019L168.799 13.8173L165.018 12.7463L163.761 17.1842L162.253 16.757Z" fill="#7D75EC"/>
<path d="M172.323 9.90244L172.804 8.45788L174.291 8.95299L173.81 10.3976L172.323 9.90244ZM169.345 18.8473L171.903 11.162L173.391 11.6571L170.832 19.3425L169.345 18.8473Z" fill="#7D75EC"/>
<path d="M178.257 22.1147L179.712 18.4074C179.827 18.1142 179.919 17.8039 179.988 17.4767C180.064 17.1465 180.084 16.8214 180.049 16.5013C180.018 16.1831 179.909 15.8932 179.721 15.6316C179.539 15.3719 179.247 15.1635 178.847 15.0064C178.586 14.9041 178.322 14.8515 178.055 14.8486C177.789 14.8411 177.53 14.898 177.279 15.0194C177.032 15.1427 176.796 15.3402 176.571 15.6118C176.351 15.8853 176.153 16.2455 175.978 16.6923L175.204 15.994C175.473 15.3098 175.837 14.7573 176.298 14.3364C176.76 13.911 177.289 13.6457 177.883 13.5406C178.478 13.4355 179.115 13.5163 179.794 13.783C180.316 13.9875 180.72 14.243 181.008 14.5494C181.296 14.8558 181.496 15.1892 181.607 15.5496C181.724 15.9073 181.778 16.2695 181.768 16.6363C181.759 17.0032 181.715 17.3484 181.636 17.672C181.557 17.9956 181.472 18.2738 181.381 18.5065L179.737 22.6955L178.257 22.1147ZM172.958 20.0351L175.917 12.4949L177.222 13.0073L176.368 15.1856L176.542 15.2541L174.438 20.616L172.958 20.0351Z" fill="#7D75EC"/>
<path d="M182.713 24.342C182.171 24.0859 181.763 23.7718 181.491 23.4C181.221 23.0236 181.069 22.6255 181.035 22.2058C181.007 21.7837 181.088 21.3737 181.275 20.9758C181.45 20.6051 181.67 20.3105 181.933 20.0921C182.197 19.8737 182.503 19.7281 182.853 19.6554C183.204 19.5781 183.597 19.567 184.03 19.6221C184.4 19.6809 184.808 19.7713 185.253 19.8932C185.699 20.0151 186.163 20.1512 186.645 20.3013C187.131 20.4537 187.613 20.6038 188.091 20.7519L187.441 20.7934C187.721 20.2234 187.8 19.7408 187.677 19.3454C187.56 18.9477 187.197 18.6047 186.587 18.3165C186.202 18.135 185.807 18.059 185.401 18.0882C184.996 18.113 184.634 18.3012 184.313 18.6529L183.183 17.6215C183.66 17.0784 184.24 16.7411 184.921 16.6094C185.607 16.4799 186.373 16.6148 187.218 17.014C187.874 17.3235 188.39 17.7056 188.767 18.16C189.151 18.6122 189.342 19.1335 189.339 19.724C189.344 20.0191 189.297 20.3065 189.198 20.5861C189.099 20.8656 188.977 21.1591 188.832 21.4666L186.702 25.9767L185.448 25.3843L186.239 23.7091L186.38 24.0414C185.813 24.459 185.229 24.6947 184.628 24.7485C184.034 24.7999 183.396 24.6644 182.713 24.342ZM183.512 23.3008C183.914 23.4908 184.293 23.584 184.649 23.5805C185.006 23.5724 185.326 23.4993 185.607 23.361C185.888 23.2227 186.112 23.0465 186.279 22.8325C186.459 22.6518 186.617 22.4279 186.754 22.1609C186.896 21.896 187.005 21.6822 187.082 21.5194L187.463 21.9067C186.983 21.7632 186.547 21.6321 186.156 21.5134C185.764 21.3948 185.406 21.2921 185.082 21.2055C184.764 21.1165 184.473 21.0537 184.209 21.0171C183.982 20.9932 183.77 20.9924 183.571 21.0147C183.377 21.0392 183.203 21.0979 183.048 21.1909C182.898 21.286 182.777 21.4307 182.686 21.6251C182.596 21.815 182.56 22.0138 182.578 22.2214C182.599 22.4245 182.683 22.6194 182.833 22.8061C182.983 22.9929 183.209 23.1578 183.512 23.3008Z" fill="#7D75EC"/>
<path d="M192.447 29.1464L194.383 25.6664C194.537 25.3911 194.669 25.0959 194.782 24.7808C194.901 24.4638 194.964 24.1443 194.972 23.8223C194.984 23.5027 194.914 23.2009 194.763 22.9167C194.617 22.6349 194.356 22.3894 193.98 22.1804C193.735 22.0442 193.481 21.9569 193.216 21.9183C192.954 21.8754 192.69 21.8973 192.424 21.9841C192.163 22.0732 191.903 22.2374 191.644 22.4767C191.389 22.7184 191.145 23.0489 190.912 23.4684L190.238 22.6731C190.596 22.0309 191.031 21.5319 191.543 21.1763C192.058 20.8163 192.617 20.6239 193.221 20.5991C193.824 20.5742 194.444 20.7393 195.082 21.0942C195.571 21.3665 195.938 21.6737 196.183 22.0158C196.427 22.3579 196.581 22.7149 196.643 23.087C196.711 23.4571 196.716 23.8233 196.658 24.1855C196.599 24.5478 196.51 24.884 196.388 25.1943C196.267 25.5045 196.146 25.7688 196.024 25.9873L193.836 29.9195L192.447 29.1464ZM187.473 26.3784L191.411 19.3004L192.637 19.9824L191.499 22.0271L191.663 22.1183L188.862 27.1515L187.473 26.3784Z" fill="#7D75EC"/>
<path d="M196.781 32.0729C195.952 31.541 195.394 30.9247 195.107 30.2238C194.819 29.5229 194.83 28.8022 195.139 28.0616L196.624 28.7198C196.481 29.1274 196.495 29.5314 196.666 29.932C196.843 30.3311 197.16 30.6764 197.614 30.968C198.027 31.2325 198.402 31.3549 198.742 31.335C199.086 31.3178 199.352 31.162 199.541 30.8673C199.652 30.6948 199.699 30.5289 199.682 30.3697C199.672 30.209 199.568 29.9965 199.369 29.7324C199.17 29.4682 198.849 29.0931 198.407 28.6072C197.919 28.0804 197.558 27.6201 197.323 27.2262C197.096 26.8308 196.983 26.4701 196.984 26.1441C196.992 25.8166 197.103 25.4866 197.316 25.1542C197.58 24.7417 197.921 24.4521 198.336 24.2852C198.752 24.1184 199.212 24.0776 199.716 24.1631C200.223 24.2512 200.745 24.4667 201.279 24.8095C201.801 25.1443 202.213 25.5246 202.516 25.9506C202.819 26.3766 203 26.8221 203.058 27.2871C203.119 27.7479 203.045 28.1965 202.836 28.6329L201.327 28.0126C201.492 27.6546 201.504 27.2972 201.365 26.9405C201.225 26.5837 200.953 26.2633 200.547 25.9792C200.158 25.7059 199.79 25.5654 199.445 25.5576C199.102 25.5456 198.847 25.6701 198.68 25.931C198.583 26.0826 198.546 26.2406 198.572 26.4052C198.601 26.5725 198.721 26.7923 198.933 27.0646C199.144 27.3369 199.474 27.7118 199.922 28.1893C200.4 28.7037 200.749 29.1594 200.97 29.5564C201.193 29.9491 201.297 30.3155 201.281 30.6556C201.271 30.9942 201.155 31.3381 200.931 31.6875C200.499 32.3608 199.914 32.7311 199.176 32.7982C198.442 32.8681 197.643 32.6263 196.781 32.0729Z" fill="#7D75EC"/>
<path d="M205.045 37.5844L207.411 34.381C207.598 34.1276 207.768 33.8518 207.92 33.5537C208.079 33.2545 208.182 32.9458 208.231 32.6274C208.284 32.312 208.253 32.0037 208.14 31.7025C208.031 31.4043 207.804 31.1275 207.458 30.872C207.232 30.7056 206.991 30.5864 206.734 30.5143C206.479 30.4381 206.214 30.4261 205.94 30.4781C205.669 30.533 205.39 30.6626 205.103 30.8667C204.819 31.0738 204.535 31.3704 204.25 31.7564L203.684 30.8815C204.12 30.2903 204.616 29.8512 205.17 29.5641C205.726 29.2731 206.306 29.1538 206.907 29.2064C207.508 29.2591 208.103 29.5022 208.69 29.936C209.14 30.2687 209.465 30.6203 209.664 30.9909C209.862 31.3614 209.969 31.7352 209.982 32.1121C210.003 32.488 209.961 32.8518 209.857 33.2036C209.752 33.5553 209.62 33.8773 209.46 34.1695C209.3 34.4617 209.146 34.7083 208.998 34.9094L206.324 38.529L205.045 37.5844ZM200.466 34.2022L206.883 25.515L208.011 26.3483L204.549 31.0357L204.7 31.1471L201.745 35.1469L200.466 34.2022Z" fill="#7D75EC"/>
<path d="M209.256 41.2756C208.799 40.8866 208.487 40.477 208.322 40.047C208.159 39.6131 208.116 39.1891 208.193 38.7751C208.277 38.3604 208.462 37.9856 208.747 37.6507C209.013 37.3385 209.301 37.1114 209.613 36.9694C209.924 36.8274 210.258 36.767 210.614 36.7881C210.974 36.8054 211.355 36.8972 211.759 37.0634C212.101 37.2169 212.471 37.4107 212.87 37.6448C213.268 37.8789 213.68 38.1314 214.106 38.4023C214.536 38.6764 214.962 38.9473 215.384 39.215L214.746 39.0852C215.165 38.6083 215.367 38.1629 215.352 37.7491C215.344 37.3348 215.082 36.9088 214.568 36.4712C214.245 36.1956 213.883 36.0189 213.483 35.941C213.087 35.8593 212.687 35.9463 212.286 36.2019L211.464 34.911C212.067 34.5116 212.715 34.3373 213.407 34.3883C214.103 34.4424 214.807 34.7727 215.518 35.3789C216.07 35.8489 216.469 36.3526 216.714 36.8898C216.966 37.4264 217.014 37.9795 216.858 38.5489C216.785 38.8349 216.664 39.1 216.496 39.344C216.327 39.5881 216.133 39.8395 215.913 40.0984L212.679 43.8956L211.623 42.9959L212.824 41.5856L212.874 41.9433C212.217 42.1982 211.591 42.2731 210.998 42.1682C210.411 42.0627 209.83 41.7651 209.256 41.2756ZM210.298 40.4791C210.637 40.7677 210.979 40.9567 211.323 41.0461C211.67 41.1318 211.997 41.1446 212.305 41.0845C212.612 41.0244 212.874 40.9129 213.092 40.75C213.312 40.6224 213.523 40.4477 213.726 40.2258C213.931 40.0071 214.093 39.8292 214.209 39.6922L214.476 40.1656C214.051 39.9018 213.664 39.6614 213.317 39.4445C212.97 39.2276 212.651 39.035 212.361 38.8667C212.078 38.6978 211.813 38.5612 211.567 38.4568C211.355 38.3745 211.15 38.3182 210.953 38.2879C210.759 38.2609 210.575 38.272 210.402 38.3214C210.232 38.374 210.078 38.4821 209.939 38.6458C209.802 38.8057 209.716 38.9882 209.679 39.1933C209.646 39.3946 209.677 39.605 209.772 39.8243C209.868 40.0437 210.043 40.2619 210.298 40.4791Z" fill="#7D75EC"/>
<path d="M217.314 48.3718L220.089 45.5151C220.309 45.2892 220.514 45.0387 220.704 44.7636C220.902 44.4885 221.046 44.1964 221.137 43.8875C221.231 43.582 221.243 43.2725 221.171 42.9588C221.103 42.6486 220.915 42.3437 220.606 42.0441C220.405 41.849 220.182 41.6985 219.937 41.5924C219.695 41.4828 219.434 41.4353 219.155 41.45C218.879 41.4681 218.585 41.559 218.273 41.7227C217.964 41.8898 217.643 42.1455 217.308 42.4899L216.865 41.5469C217.377 41.0197 217.927 40.651 218.514 40.4409C219.105 40.2273 219.695 40.1869 220.284 40.3197C220.873 40.4526 221.429 40.7734 221.953 41.282C222.355 41.6722 222.629 42.0642 222.776 42.4581C222.923 42.852 222.978 43.2366 222.941 43.612C222.912 43.9872 222.821 44.3421 222.67 44.6767C222.52 45.0113 222.346 45.3126 222.148 45.5807C221.95 45.8487 221.764 46.0724 221.59 46.2518L218.455 49.4797L217.314 48.3718ZM213.231 44.4055L218.875 38.5952L219.881 39.5724L218.25 41.251L218.385 41.3816L214.372 45.5133L213.231 44.4055Z" fill="#7D75EC"/>
<path d="M221.101 52.7328C220.597 52.1706 220.301 51.5596 220.213 50.8998C220.129 50.2436 220.227 49.5886 220.507 48.9347C220.794 48.2811 221.239 47.684 221.842 47.1433C222.449 46.5992 223.09 46.2253 223.767 46.0214C224.448 45.8142 225.109 45.7919 225.752 45.9545C226.402 46.1174 226.98 46.4818 227.487 47.0477C227.998 47.6173 228.287 48.2208 228.355 48.8584C228.43 49.4963 228.316 50.1291 228.013 50.757C227.713 51.3886 227.261 51.9748 226.658 52.5155C226.055 53.0562 225.423 53.4413 224.763 53.6708C224.102 53.9004 223.455 53.9465 222.822 53.8093C222.192 53.6687 221.619 53.3099 221.101 52.7328ZM222.302 51.9485C222.646 52.332 223.017 52.5629 223.417 52.6414C223.816 52.7198 224.226 52.6714 224.646 52.496C225.066 52.3206 225.485 52.0461 225.902 51.6722C226.319 51.2984 226.636 50.9103 226.852 50.5078C227.073 50.1091 227.165 49.7105 227.13 49.312C227.099 48.9173 226.919 48.5375 226.592 48.1726C226.245 47.7854 225.865 47.5522 225.451 47.473C225.038 47.3938 224.616 47.4363 224.186 47.6005C223.759 47.7684 223.348 48.0292 222.953 48.383C222.555 48.7402 222.247 49.1235 222.03 49.533C221.82 49.9429 221.729 50.3539 221.756 50.7662C221.786 51.1821 221.968 51.5762 222.302 51.9485ZM222.881 54.3808L227.22 50.4907L227.1 50.3567L230.802 47.0373L231.853 48.2101L223.812 55.4195L222.881 54.3808Z" fill="#7D75EC"/>
<path d="M226.845 59.6081C226.35 58.973 226.054 58.3073 225.955 57.611C225.863 56.9156 225.961 56.2402 226.25 55.5848C226.545 54.9303 227.022 54.3465 227.68 53.8334C228.379 53.2896 229.085 52.9481 229.801 52.809C230.52 52.6739 231.202 52.732 231.848 52.9833C232.493 53.2345 233.059 53.6718 233.544 54.2951C234.051 54.9459 234.331 55.6185 234.384 56.3126C234.44 57.0037 234.278 57.6783 233.897 58.3363C233.519 58.9984 232.929 59.6037 232.127 60.1524L231.164 58.9158L231.613 58.5655C232.349 57.98 232.786 57.4109 232.926 56.8583C233.069 56.3096 232.923 55.7552 232.486 55.195C232.004 54.5757 231.446 54.2623 230.813 54.2549C230.18 54.2474 229.494 54.5309 228.757 55.1055C228.055 55.6524 227.632 56.2322 227.488 56.8449C227.348 57.4546 227.507 58.0533 227.965 58.6411C228.266 59.0276 228.612 59.2934 229.004 59.4383C229.402 59.584 229.827 59.6083 230.277 59.511L230.837 61.0236C230.072 61.2206 229.335 61.1895 228.626 60.9304C227.921 60.6682 227.327 60.2275 226.845 59.6081ZM228.094 54.975L229.059 54.2238L232.612 58.7859L231.647 59.5371L228.094 54.975Z" fill="#7D75EC"/>
<path d="M229.709 63.0765L238.718 56.722L239.622 58.003L230.612 64.3575L229.709 63.0765Z" fill="#7D75EC"/>
<path d="M233.128 67.9672L244.212 65.4961L245.36 67.4398L237.846 75.9551L237.019 74.5538L243.86 66.7581L244.066 67.1068L233.956 69.3685L233.128 67.9672ZM236.153 68.2966L237.419 67.5489L240.288 72.4049L239.022 73.1526L236.153 68.2966Z" fill="#7D75EC"/>
<path d="M239.582 80.0275C239.238 79.3329 239.118 78.6672 239.221 78.0303C239.329 77.3912 239.612 76.8076 240.07 76.2795C240.528 75.7513 241.12 75.3076 241.846 74.9482C242.572 74.5888 243.283 74.3848 243.978 74.3361C244.676 74.2919 245.306 74.4207 245.869 74.7226C246.438 75.0267 246.892 75.5215 247.231 76.2071C247.568 76.8882 247.691 77.5584 247.599 78.2177C247.513 78.8793 247.248 79.4876 246.803 80.0426C246.363 80.5954 245.778 81.0526 245.047 81.4142C244.321 81.7736 243.6 81.963 242.885 81.9826C242.176 82.0044 241.531 81.852 240.951 81.5255C240.373 81.2034 239.917 80.7041 239.582 80.0275ZM238.093 76.5132L247.772 71.7214L248.471 73.1329L244.015 75.3391L243.935 75.1778L238.712 77.7633L238.093 76.5132ZM240.756 79.2036C240.978 79.6517 241.275 79.9649 241.648 80.143C242.023 80.3256 242.438 80.3932 242.895 80.3458C243.358 80.3007 243.829 80.1594 244.308 79.922C244.783 79.6869 245.177 79.4 245.489 79.0613C245.804 78.7272 246.001 78.3534 246.081 77.94C246.16 77.5267 246.085 77.087 245.854 76.621C245.637 76.1818 245.35 75.8721 244.993 75.6918C244.638 75.516 244.233 75.454 243.779 75.5059C243.327 75.5622 242.85 75.7147 242.349 75.9631C241.847 76.2116 241.436 76.4984 241.118 76.8236C240.799 77.1488 240.602 77.5114 240.526 77.9114C240.451 78.3114 240.527 78.7421 240.756 79.2036Z" fill="#7D75EC"/>
<path d="M245.725 94.2579L256.035 91.0405L257.941 97.1476L256.444 97.6145L255.006 93.0038L252.099 93.911L253.27 97.6625L251.766 98.1317L250.595 94.3802L246.192 95.7542L245.725 94.2579Z" fill="#7D75EC"/>
<path d="M256.969 98.9731L258.442 98.586L258.84 100.102L257.368 100.489L256.969 98.9731ZM247.851 101.37L255.685 99.3106L256.084 100.827L248.25 102.886L247.851 101.37Z" fill="#7D75EC"/>
<path d="M249.853 110.001L253.75 109.18C254.058 109.115 254.368 109.021 254.679 108.9C254.997 108.782 255.28 108.62 255.527 108.414C255.776 108.214 255.959 107.963 256.074 107.663C256.191 107.368 256.205 107.01 256.116 106.589C256.059 106.315 255.958 106.065 255.813 105.84C255.674 105.614 255.484 105.429 255.244 105.286C255.005 105.147 254.711 105.058 254.36 105.02C254.011 104.986 253.601 105.018 253.132 105.117L253.29 104.088C254.01 103.936 254.671 103.937 255.276 104.091C255.886 104.244 256.398 104.539 256.812 104.978C257.226 105.417 257.509 105.994 257.659 106.709C257.775 107.256 257.783 107.735 257.686 108.144C257.588 108.553 257.419 108.903 257.178 109.193C256.944 109.488 256.671 109.732 256.359 109.925C256.047 110.119 255.735 110.272 255.421 110.384C255.107 110.496 254.828 110.577 254.584 110.629L250.18 111.556L249.853 110.001ZM248.679 104.43L256.606 102.761L256.895 104.133L254.605 104.616L254.643 104.799L249.007 105.986L248.679 104.43Z" fill="#7D75EC"/>
<path d="M250.405 114.708C250.319 114.115 250.357 113.602 250.517 113.169C250.682 112.737 250.931 112.39 251.262 112.131C251.599 111.875 251.986 111.716 252.421 111.654C252.827 111.595 253.194 111.616 253.521 111.715C253.849 111.815 254.139 111.99 254.392 112.242C254.65 112.493 254.876 112.814 255.068 113.206C255.224 113.547 255.373 113.937 255.517 114.376C255.661 114.816 255.803 115.278 255.943 115.762C256.084 116.252 256.224 116.737 256.364 117.217L255.971 116.698C256.601 116.618 257.047 116.417 257.309 116.097C257.577 115.781 257.663 115.288 257.567 114.62C257.507 114.2 257.352 113.828 257.104 113.505C256.861 113.181 256.504 112.982 256.033 112.908L256.271 111.397C256.988 111.496 257.588 111.794 258.074 112.29C258.56 112.791 258.869 113.504 259.002 114.429C259.105 115.147 259.071 115.788 258.899 116.354C258.734 116.923 258.404 117.369 257.91 117.693C257.666 117.859 257.4 117.978 257.112 118.05C256.824 118.121 256.512 118.181 256.176 118.229L251.239 118.938L251.042 117.564L252.875 117.301L252.676 117.603C252.015 117.359 251.496 117.002 251.121 116.53C250.75 116.063 250.512 115.456 250.405 114.708ZM251.713 114.801C251.777 115.241 251.908 115.609 252.107 115.904C252.31 116.198 252.547 116.424 252.818 116.582C253.088 116.74 253.358 116.83 253.629 116.852C253.879 116.902 254.153 116.911 254.451 116.878C254.75 116.85 254.989 116.824 255.167 116.798L255.054 117.33C254.909 116.85 254.779 116.414 254.662 116.022C254.545 115.63 254.433 115.274 254.327 114.956C254.226 114.642 254.118 114.365 254.003 114.124C253.898 113.922 253.782 113.744 253.654 113.591C253.526 113.442 253.381 113.329 253.219 113.251C253.057 113.179 252.869 113.158 252.656 113.188C252.449 113.218 252.263 113.298 252.1 113.427C251.941 113.556 251.826 113.734 251.752 113.962C251.679 114.19 251.666 114.469 251.713 114.801Z" fill="#7D75EC"/>
<path d="M251.792 125.939L255.764 125.648C256.078 125.625 256.397 125.574 256.722 125.495C257.053 125.42 257.355 125.298 257.628 125.127C257.902 124.962 258.116 124.738 258.271 124.456C258.426 124.179 258.487 123.826 258.456 123.397C258.435 123.118 258.369 122.857 258.256 122.615C258.148 122.372 257.984 122.163 257.766 121.989C257.548 121.819 257.268 121.692 256.926 121.607C256.584 121.527 256.174 121.504 255.695 121.539L255.99 120.54C256.723 120.486 257.379 120.576 257.958 120.809C258.541 121.042 259.009 121.404 259.361 121.894C259.713 122.385 259.915 122.994 259.969 123.722C260.01 124.281 259.955 124.756 259.803 125.148C259.651 125.54 259.437 125.864 259.16 126.12C258.888 126.381 258.585 126.586 258.25 126.736C257.915 126.886 257.585 126.996 257.259 127.065C256.933 127.134 256.645 127.177 256.396 127.196L251.908 127.525L251.792 125.939ZM251.375 120.262L259.453 119.669L259.556 121.068L257.222 121.239L257.236 121.426L251.491 121.848L251.375 120.262Z" fill="#7D75EC"/>
</svg>
