<svg width="255" height="80" viewBox="0 0 255 80" fill="none" xmlns="http://www.w3.org/2000/svg">
<path fill-rule="evenodd" clip-rule="evenodd" d="M14.314 0.242123C21.0679 -0.13756 27.7536 0.601123 34.3712 2.45817C39.21 4.26352 41.4972 8.45037 41.2329 15.0158C40.7051 15.7545 40.1773 16.4932 39.6494 17.2318C35.3445 16.7103 31.122 15.233 26.9817 12.7997C21.7671 11.2618 16.8407 12.2472 12.2027 15.7545C9.16892 20.2619 9.52076 24.2021 13.2584 27.5734C21.4189 31.7824 29.5121 36.2145 37.5382 40.8697C44.4393 48.9583 45.6708 58.5612 41.2329 69.6784C39.1866 73.5284 36.5475 76.2364 33.3156 77.8039C23.5587 81.3658 14.0579 80.3819 4.81323 74.8492C1.23777 71.8915 -0.345695 67.7061 0.0628389 62.2915C0.911576 60.3651 2.14319 59.3796 3.75759 59.3368C7.02955 61.1953 10.1965 63.4114 13.2584 65.985C20.3419 69.8483 26.8518 68.6161 32.7878 62.2915C33.8862 57.6585 33.0065 53.9651 30.1487 51.2113C24.304 47.704 18.322 44.7493 12.2027 42.3471C2.15787 37.6358 -1.53688 28.0329 1.11848 13.5384C4.19758 6.35399 8.59613 1.92189 14.314 0.242123Z" fill="#236FE3"/>
<path d="M100.309 33.284C102.846 17.7033 109.25 8.55483 118.823 4.37213C127.889 3.53735 134.364 6.02014 138.982 11.3088C143.878 16.9141 147.214 26.2601 148.372 40.0953C146.806 55.7161 142.92 65.5373 137.559 70.7075C132.61 75.4807 125.591 77.009 115.367 73.9527C103.774 66.1013 98.4156 53.0062 100.309 33.284Z" stroke="#236FE3" stroke-width="8.4299"/>
<path fill-rule="evenodd" clip-rule="evenodd" d="M49.1506 1.7195C63.9338 1.47278 78.7128 1.7195 93.4876 2.45818C96.4064 6.84005 96.0549 10.7802 92.4319 14.2771C87.1653 15.0143 81.8871 15.261 76.5973 15.0158C76.7736 35.2129 76.5973 55.4026 76.0695 75.5878C72.8514 81.4707 69.6844 81.4707 66.5687 75.5878C66.041 55.4026 65.865 35.2129 66.0409 15.0158C60.3998 15.261 54.7697 15.0143 49.1506 14.2771C46.4046 10.0962 46.4046 5.91079 49.1506 1.7195Z" fill="#236FE3"/>
<path fill-rule="evenodd" clip-rule="evenodd" d="M194.83 0.241736C199.955 -0.550133 202.242 2.4046 201.692 9.10594C197.469 16.9847 193.247 24.865 189.024 32.7438C187.089 29.0504 185.153 25.357 183.218 21.6636C186.97 14.3462 190.841 7.20604 194.83 0.241736Z" fill="#236FE3"/>
<path fill-rule="evenodd" clip-rule="evenodd" d="M247.61 0.241836C251.307 -0.250128 253.771 1.96592 254.999 6.88999C251.05 16.1176 246.476 24.7351 241.276 32.7439C239.641 28.8983 237.882 25.2049 235.998 21.6637C239.677 14.3019 243.547 7.16182 247.61 0.241836Z" fill="#236FE3"/>
<path fill-rule="evenodd" clip-rule="evenodd" d="M158.938 0.241699C162.788 0.421938 165.78 2.88323 167.911 7.62853C173.606 18.2936 179.061 29.1287 184.273 40.1306C178.355 52.1194 172.197 63.9384 165.8 75.5874C163.553 79.9575 160.739 80.9414 157.354 78.5421C156.101 76.2611 155.75 73.7983 156.299 71.1553C161.888 60.6719 167.342 50.0851 172.661 39.3919C167.693 29.6827 162.591 20.0798 157.354 10.5833C156.475 6.63722 157.003 3.19052 158.938 0.241699Z" fill="#236FE3"/>
<path fill-rule="evenodd" clip-rule="evenodd" d="M240.22 47.5176C241.272 47.3905 242.151 47.8839 242.86 48.9949C246.327 56.3138 250.198 63.2072 254.472 69.6781C255.704 77.8036 253.416 81.005 247.61 79.2809C243.355 72.5382 239.484 65.3981 235.998 57.8591C237.464 54.3607 238.871 50.914 240.22 47.5176Z" fill="#236FE3"/>
<path fill-rule="evenodd" clip-rule="evenodd" d="M210.661 0.241696C213.988 -0.557559 216.627 0.919808 218.578 4.6738C224.941 16.2859 231.098 28.1048 237.052 40.1306C230.746 52.6498 224.235 64.9607 217.523 77.0648C211.135 82.3936 208.319 79.9323 209.077 69.6779C214.734 60.0396 220.188 50.1915 225.44 40.1306C220.54 30.5632 215.438 21.207 210.133 12.0606C207.909 7.81911 208.084 3.88045 210.661 0.241696Z" fill="#236FE3"/>
<path fill-rule="evenodd" clip-rule="evenodd" d="M188.497 47.5176C193.379 54.2544 197.777 61.6412 201.692 69.6781C202.924 77.8036 200.637 81.0051 194.831 79.281C191.264 72.4999 187.569 65.8517 183.746 59.3365C184.455 54.9103 186.038 50.9702 188.497 47.5176Z" fill="#236FE3"/>
</svg>
