<svg width="190" height="80" viewBox="0 0 190 80" fill="none" xmlns="http://www.w3.org/2000/svg">
<g clip-path="url(#clip0_442_7790)">
<path d="M0 0.845711H39.7825V12.1776H14.6386V33.6575H39.7825V45.1586H14.6386V78.8161H0V0.845711Z" fill="#236FE3"/>
<path d="M62.1708 12.1776H44.6045V0.845711H93.859V12.1776H76.6372V78.8161H62.1708V12.1776Z" fill="#236FE3"/>
<mask id="mask0_442_7790" style="mask-type:luminance" maskUnits="userSpaceOnUse" x="95" y="0" width="47" height="81">
<path d="M95.9258 80.3384H141.736V9.91821e-05H95.9258V80.3384Z" fill="white"/>
</mask>
<g mask="url(#mask0_442_7790)">
<path d="M97.648 63.7632C100.403 65.4546 106.776 68.499 114.353 68.499C120.725 68.499 126.408 65.1163 126.408 57.167C126.408 51.5857 123.136 49.2178 116.075 45.3277C108.67 41.4377 108.67 41.4377 108.67 41.4377C100.92 37.2093 95.9258 30.9514 95.9258 20.9725C95.9258 6.93449 107.464 -0.169106 120.725 -0.169106C129.164 -0.169106 135.019 1.8605 137.258 2.70616C136.569 14.5455 136.569 14.5455 136.569 14.5455C133.125 13.1924 128.475 11.1628 121.759 11.1628C114.525 11.1628 110.909 15.0529 110.909 20.296C110.909 26.2157 114.698 28.4144 119.175 30.7823C127.786 35.518 127.786 35.518 127.786 35.518C136.914 40.592 141.392 45.4969 141.392 56.4905C141.392 72.389 130.025 80 114.87 80C106.948 80 100.748 78.8161 96.9591 76.4482" fill="#236FE3"/>
</g>
<mask id="mask1_442_7790" style="mask-type:luminance" maskUnits="userSpaceOnUse" x="149" y="0" width="41" height="80">
<path d="M149.486 79.1544H189.441V0.845688H149.486V79.1544Z" fill="white"/>
</mask>
<g mask="url(#mask1_442_7790)">
<path d="M149.486 0.845566H189.268V12.1775H163.952V33.8265H189.268V45.1585H163.952V67.484H189.268V78.816H149.486V0.845566Z" fill="#236FE3"/>
</g>
</g>
<defs>
<clipPath id="clip0_442_7790">
<rect width="189.268" height="80" fill="white"/>
</clipPath>
</defs>
</svg>
