<svg width="226" height="57" viewBox="0 0 226 57" fill="none" xmlns="http://www.w3.org/2000/svg">
<path d="M26.1932 56.1158C20.8372 56.1158 16.2128 54.9504 12.3198 52.6196C8.45157 50.2887 5.46363 47.028 3.35596 42.8375C1.27309 38.647 0.231652 33.7745 0.231652 28.2202C0.231652 22.6658 1.27309 17.7934 3.35596 13.6029C5.46363 9.41232 8.45157 6.15163 12.3198 3.82079C16.2128 1.48996 20.8372 0.324538 26.1932 0.324538C32.3426 0.324538 37.5002 1.8495 41.666 4.89942C45.8565 7.94934 48.8073 12.0779 50.5182 17.2851L40.327 20.1118C39.3351 16.8636 37.6614 14.3467 35.3058 12.5614C32.9501 10.7513 29.9126 9.84625 26.1932 9.84625C22.7961 9.84625 19.957 10.6025 17.6757 12.1151C15.4193 13.6277 13.7207 15.7601 12.5801 18.5125C11.4395 21.2649 10.8692 24.5008 10.8692 28.2202C10.8692 31.9396 11.4395 35.1755 12.5801 37.9279C13.7207 40.6802 15.4193 42.8127 17.6757 44.3253C19.957 45.8378 22.7961 46.5941 26.1932 46.5941C29.9126 46.5941 32.9501 45.6891 35.3058 43.8789C37.6614 42.0688 39.3351 39.552 40.327 36.3285L50.5182 39.1553C48.8073 44.3625 45.8565 48.491 41.666 51.5409C37.5002 54.5909 32.3426 56.1158 26.1932 56.1158ZM46.0967 55L62.4622 1.44036H77.563L93.9285 55H83.5141L68.934 7.76337H70.8681L56.5111 55H46.0967ZM55.916 43.8417V34.3944H84.1836V43.8417H55.916ZM114.689 56.1158C109.333 56.1158 104.709 54.9504 100.816 52.6196C96.9476 50.2887 93.9597 47.028 91.852 42.8375C89.7691 38.647 88.7277 33.7745 88.7277 28.2202C88.7277 22.6658 89.7691 17.7934 91.852 13.6029C93.9597 9.41232 96.9476 6.15163 100.816 3.82079C104.709 1.48996 109.333 0.324538 114.689 0.324538C120.839 0.324538 125.996 1.8495 130.162 4.89942C134.353 7.94934 137.303 12.0779 139.014 17.2851L128.823 20.1118C127.831 16.8636 126.157 14.3467 123.802 12.5614C121.446 10.7513 118.409 9.84625 114.689 9.84625C111.292 9.84625 108.453 10.6025 106.172 12.1151C103.915 13.6277 102.217 15.7601 101.076 18.5125C99.9355 21.2649 99.3652 24.5008 99.3652 28.2202C99.3652 31.9396 99.9355 35.1755 101.076 37.9279C102.217 40.6802 103.915 42.8127 106.172 44.3253C108.453 45.8378 111.292 46.5941 114.689 46.5941C118.409 46.5941 121.446 45.6891 123.802 43.8789C126.157 42.0688 127.831 39.552 128.823 36.3285L139.014 39.1553C137.303 44.3625 134.353 48.491 130.162 51.5409C125.996 54.5909 120.839 56.1158 114.689 56.1158ZM169.014 55V46.6685H145.731V37.2212L162.617 1.44036H174.221L157.335 37.2212H169.014V23.8313H179.28V37.2212H184.041V46.6685H179.28V55H169.014ZM205.408 56.1158C201.44 56.1158 197.969 55.2852 194.993 53.6238C192.018 51.9625 189.699 49.644 188.038 46.6685C186.377 43.693 185.546 40.2215 185.546 36.2541V20.1862C185.546 16.2189 186.377 12.7474 188.038 9.77186C189.699 6.79633 192.018 4.47789 194.993 2.81655C197.969 1.15521 201.44 0.324538 205.408 0.324538C209.375 0.324538 212.846 1.15521 215.822 2.81655C218.798 4.47789 221.116 6.79633 222.777 9.77186C224.439 12.7474 225.269 16.2189 225.269 20.1862V36.2541C225.269 40.2215 224.439 43.693 222.777 46.6685C221.116 49.644 218.798 51.9625 215.822 53.6238C212.846 55.2852 209.375 56.1158 205.408 56.1158ZM205.408 46.5197C207.193 46.5197 208.805 46.0982 210.243 45.2551C211.681 44.4121 212.822 43.2714 213.665 41.8333C214.508 40.3951 214.929 38.7833 214.929 36.998V19.368C214.929 17.5826 214.508 15.9709 213.665 14.5327C212.822 13.0945 211.681 11.9539 210.243 11.1109C208.805 10.2678 207.193 9.84625 205.408 9.84625C203.622 9.84625 202.011 10.2678 200.572 11.1109C199.134 11.9539 197.994 13.0945 197.15 14.5327C196.307 15.9709 195.886 17.5826 195.886 19.368V36.998C195.886 38.7833 196.307 40.3951 197.15 41.8333C197.994 43.2714 199.134 44.4121 200.572 45.2551C202.011 46.0982 203.622 46.5197 205.408 46.5197Z" fill="#111111"/>
</svg>
