<svg width="131" height="80" viewBox="0 0 131 80" fill="none" xmlns="http://www.w3.org/2000/svg">
<mask id="mask0_442_7766" style="mask-type:luminance" maskUnits="userSpaceOnUse" x="63" y="0" width="68" height="61">
<path d="M63.9956 0H130.456V60.271H63.9956V0Z" fill="white"/>
</mask>
<g mask="url(#mask0_442_7766)">
<path d="M98.4859 0L70.3806 57.3217C70.0331 58.0275 69.4249 58.6464 68.6257 59.1075C67.8264 59.5687 66.8684 59.8535 65.8613 59.9292V59.9567H95.5715C97.8976 59.9567 99.889 58.8585 100.63 57.3235L128.745 0H98.4859Z" fill="#236FE3"/>
</g>
<path d="M63.4401 59.0867C65.1631 59.0867 66.672 58.4508 67.5951 57.4878C67.6911 57.3873 68.0283 57.0365 68.2671 56.5596L78.5758 35.524L72.5451 23.2392C72.1939 22.6171 71.6249 22.076 70.8972 21.6721C70.1695 21.2682 69.3095 21.0161 68.4064 20.9419C67.5032 20.8677 66.5898 20.9742 65.7607 21.2502C64.9317 21.5263 64.2171 21.9619 63.6912 22.5119C63.5927 22.6124 63.1915 23.0601 63.0192 23.4402L52.7104 44.4685L58.7682 56.8026C59.1611 57.4805 59.813 58.0581 60.6433 58.4641C61.4736 58.87 62.4459 59.0865 63.4401 59.0867Z" fill="#236FE3"/>
<mask id="mask1_442_7766" style="mask-type:luminance" maskUnits="userSpaceOnUse" x="0" y="18" width="67" height="62">
<path d="M0 18.2433H66.4603V79.9998H0V18.2433Z" fill="white"/>
</mask>
<g mask="url(#mask1_442_7766)">
<path d="M65.6447 20.0416H35.6071C33.281 20.0416 31.2897 21.1343 30.5389 22.6765L2.43359 79.9983H32.6927L60.8005 22.6784C61.1651 21.9326 61.8205 21.2843 62.6832 20.8161C63.5459 20.3478 64.5768 20.0807 65.6447 20.0489V20.0416Z" fill="#236FE3"/>
</g>
</svg>
