<svg width="67" height="80" viewBox="0 0 67 80" fill="none" xmlns="http://www.w3.org/2000/svg">
<path d="M0 40V0L22.0432 0.0551057L44.0863 0.110211L45.9719 0.581878C55.1142 2.86878 61.8198 8.7008 65.1011 17.2192C65.891 19.2698 66.6155 22.5921 66.7486 24.774L66.8571 26.5535H60.1966H53.5361L53.4325 25.7015C53.0882 22.8706 52.1942 20.6153 50.592 18.5357C48.9895 16.4558 46.5783 14.7694 43.9067 13.8601L42.4701 13.3712L27.9692 13.3203L13.4683 13.2694V39.9987V66.728H20.1127H26.7571V73.364V80H13.3785H0V40Z" fill="#236FE3"/>
<path d="M37.8855 73.2144V66.4288L40.1825 66.3053C41.4458 66.2373 42.9734 66.0591 43.5771 65.9091C47.2829 64.9888 50.8716 61.9903 52.5429 58.4179C53.9408 55.4297 53.8904 55.9008 53.9629 45.1401L54.0275 35.5555H60.4422H66.8569L66.7915 45.9656L66.726 56.3757L66.2776 58.3018C65.0172 63.7148 62.8298 67.8566 59.2065 71.6906C56.2656 74.8024 53.0159 76.9685 49.1812 78.3729C46.3174 79.4217 44.4325 79.7701 40.9626 79.8919L37.8855 80V73.2144Z" fill="#236FE3"/>
</svg>
