<svg width="247" height="62" viewBox="0 0 247 62" fill="none" xmlns="http://www.w3.org/2000/svg">
<path d="M28.8552 61.2212C22.9935 61.2212 17.9324 59.9457 13.6718 57.3948C9.43841 54.8439 6.16836 51.2753 3.86168 46.6891C1.58214 42.1029 0.442365 36.7704 0.442365 30.6916C0.442365 24.6128 1.58214 19.2803 3.86168 14.6941C6.16836 10.1079 9.43841 6.53934 13.6718 3.98842C17.9324 1.43751 22.9935 0.162054 28.8552 0.162054C35.5853 0.162054 41.2299 1.831 45.7889 5.1689C50.3752 8.5068 53.6045 13.0252 55.477 18.724L44.3235 21.8177C43.238 18.2627 41.4063 15.5082 38.8282 13.5544C36.2502 11.5733 32.9258 10.5828 28.8552 10.5828C25.1374 10.5828 22.0302 11.4105 19.5335 13.0659C17.064 14.7213 15.2051 17.0551 13.9568 20.0673C12.7085 23.0796 12.0843 26.621 12.0843 30.6916C12.0843 34.7622 12.7085 38.3037 13.9568 41.3159C15.2051 44.3282 17.064 46.662 19.5335 48.3174C22.0302 49.9727 25.1374 50.8004 28.8552 50.8004C32.9258 50.8004 36.2502 49.8099 38.8282 47.8289C41.4063 45.8479 43.238 43.0934 44.3235 39.5655L55.477 42.6592C53.6045 48.3581 50.3752 52.8764 45.7889 56.2143C41.2299 59.5522 35.5853 61.2212 28.8552 61.2212ZM50.6381 60L68.5487 1.38323H85.0754L102.986 60H91.5884L75.6316 8.30327H77.7483L62.0358 60H50.6381ZM61.3845 47.7882V37.4488H92.3211V47.7882H61.3845ZM125.707 61.2212C119.845 61.2212 114.784 59.9457 110.524 57.3948C106.29 54.8439 103.02 51.2753 100.714 46.6891C98.434 42.1029 97.2942 36.7704 97.2942 30.6916C97.2942 24.6128 98.434 19.2803 100.714 14.6941C103.02 10.1079 106.29 6.53934 110.524 3.98842C114.784 1.43751 119.845 0.162054 125.707 0.162054C132.437 0.162054 138.082 1.831 142.641 5.1689C147.227 8.5068 150.456 13.0252 152.329 18.724L141.175 21.8177C140.09 18.2627 138.258 15.5082 135.68 13.5544C133.102 11.5733 129.778 10.5828 125.707 10.5828C121.989 10.5828 118.882 11.4105 116.385 13.0659C113.916 14.7213 112.057 17.0551 110.809 20.0673C109.56 23.0796 108.936 26.621 108.936 30.6916C108.936 34.7622 109.56 38.3037 110.809 41.3159C112.057 44.3282 113.916 46.662 116.385 48.3174C118.882 49.9727 121.989 50.8004 125.707 50.8004C129.778 50.8004 133.102 49.8099 135.68 47.8289C138.258 45.8479 140.09 43.0934 141.175 39.5655L152.329 42.6592C150.456 48.3581 147.227 52.8764 142.641 56.2143C138.082 59.5522 132.437 61.2212 125.707 61.2212ZM185.161 60V50.8818H159.679V40.5425L178.16 1.38323H190.86L172.38 40.5425H185.161V25.8883H196.396V40.5425H201.607V50.8818H196.396V60H185.161ZM224.991 61.2212C220.649 61.2212 216.85 60.3121 213.593 58.4939C210.337 56.6757 207.8 54.1383 205.981 50.8818C204.163 47.6253 203.254 43.8261 203.254 39.4841V21.8991C203.254 17.5571 204.163 13.7579 205.981 10.5014C207.8 7.24491 210.337 4.70756 213.593 2.88936C216.85 1.07115 220.649 0.162054 224.991 0.162054C229.333 0.162054 233.132 1.07115 236.389 2.88936C239.645 4.70756 242.183 7.24491 244.001 10.5014C245.819 13.7579 246.728 17.5571 246.728 21.8991V39.4841C246.728 43.8261 245.819 47.6253 244.001 50.8818C242.183 54.1383 239.645 56.6757 236.389 58.4939C233.132 60.3121 229.333 61.2212 224.991 61.2212ZM224.991 50.719C226.945 50.719 228.709 50.2577 230.283 49.335C231.857 48.4123 233.105 47.164 234.028 45.59C234.951 44.0161 235.412 42.2521 235.412 40.2983V21.0036C235.412 19.0497 234.951 17.2857 234.028 15.7118C233.105 14.1378 231.857 12.8895 230.283 11.9668C228.709 11.0441 226.945 10.5828 224.991 10.5828C223.037 10.5828 221.273 11.0441 219.699 11.9668C218.125 12.8895 216.877 14.1378 215.954 15.7118C215.032 17.2857 214.57 19.0497 214.57 21.0036V40.2983C214.57 42.2521 215.032 44.0161 215.954 45.59C216.877 47.164 218.125 48.4123 219.699 49.335C221.273 50.2577 223.037 50.719 224.991 50.719Z" fill="#236FE3"/>
</svg>
