<svg width="73" height="80" viewBox="0 0 73 80" fill="none" xmlns="http://www.w3.org/2000/svg">
<path fill-rule="evenodd" clip-rule="evenodd" d="M25.1396 29.4361V79.9999H25.2106L35.4524 65.8195V15.0404L25.1396 29.4361ZM0.501465 63.4559V79.9999H10.7439V49.3465L0.501465 63.4559ZM12.6778 46.5532V79.9999H23.134V32.0858L12.6778 46.5532ZM47.7707 29.4361V79.9999L37.3862 65.8195V15.0404L47.7707 29.4361ZM72.4806 63.4559V79.9999H62.2388V49.3465L72.4806 63.4559ZM60.1615 46.5532V79.9999H49.777V32.0858L60.1615 46.5532Z" fill="#236FE3"/>
<path fill-rule="evenodd" clip-rule="evenodd" d="M72.8385 0V17.4758L62.2388 31.5853V0H72.8385ZM60.1614 34.235V0H49.777V28.5769L56.9386 38.5324L60.1614 34.235ZM47.7706 0.286204L38.389 12.8197L47.7706 25.8554V0.286204ZM0 0V17.4758L10.6714 31.5853V0H0ZM12.6777 34.1633V0H23.1339V28.5769L15.9716 38.5324L12.6777 34.1633ZM25.0678 0.286204L34.4495 12.8197L25.0678 25.8554V0.286204Z" fill="#236FE3"/>
</svg>
