<svg width="120" height="132" viewBox="0 0 120 132" fill="none" xmlns="http://www.w3.org/2000/svg">
<path fill-rule="evenodd" clip-rule="evenodd" d="M41.369 48.4394V131.646H41.4859L58.3393 108.311V24.7504L41.369 48.4394ZM0.825317 104.421V131.646H17.68V81.2032L0.825317 104.421ZM20.8623 76.6068V131.646H38.0687V52.7997L20.8623 76.6068ZM78.61 48.4394V131.646L61.5216 108.311V24.7504L78.61 48.4394ZM119.272 104.421V131.646H102.418V81.2032L119.272 104.421ZM98.9999 76.6068V131.646H81.9115V52.7997L98.9999 76.6068Z" fill="black"/>
<path fill-rule="evenodd" clip-rule="evenodd" d="M119.861 0.000244141V28.7578L102.418 51.9759V0.000244141H119.861ZM98.9996 56.3362V0.000244141H81.9113V47.0254L93.6962 63.4079L98.9996 56.3362ZM78.6098 0.471212L63.1716 21.096L78.6098 42.547V0.471212ZM0 0.000244141V28.7578L17.5605 51.9759V0.000244141H0ZM20.862 56.2182V0.000244141H38.0684V47.0254L26.2823 63.4079L20.862 56.2182ZM41.2507 0.471212L56.6889 21.096L41.2507 42.547V0.471212Z" fill="#A6A8AA"/>
</svg>
