<svg width="219" height="80" viewBox="0 0 219 80" fill="none" xmlns="http://www.w3.org/2000/svg">
<path d="M3.6499 3.4227H156.056L174.458 26.1238L192.861 3.4227H215.349L185.703 39.9974L215.349 76.5786H192.861L174.458 53.8776L156.056 76.5786H3.6499V3.4227Z" fill="#236FE3"/>
<path d="M21.6931 62.0278V18.0114H29.0807C43.9665 18.0114 50.7475 24.8059 50.7475 39.7518C50.7475 55.4201 44.4702 62.0287 29.2804 62.0287L21.6931 62.0278ZM89.3203 47.9886L98.6322 18.5528L108.048 47.9886H89.3203ZM7.81946 72.9012H29.7895C53.0776 72.9012 64.8171 61.7561 64.8171 39.7518C64.8171 18.1904 53.0769 7.05305 30.2925 7.05305H7.81909L7.81946 72.9012ZM162.798 39.9706L136.098 72.9143L154.493 72.9292L172.199 51.0696L181.2 39.9708L172.199 28.8789L154.493 7.05194H136.098L162.798 39.9706ZM68.1576 72.9012H81.3191L85.9751 58.498H111.387L115.947 72.9012H129.819L107.641 7.04979H90.335L68.1576 72.9012Z" fill="#EFEFEF"/>
</svg>
