<svg width="66" height="80" viewBox="0 0 66 80" fill="none" xmlns="http://www.w3.org/2000/svg">
<g clip-path="url(#clip0_442_7783)">
<path d="M63.3714 27.272C62.905 27.632 54.6709 32.248 54.6709 42.512C54.6709 54.384 65.1485 58.584 65.4621 58.688C65.4138 58.944 63.7976 64.44 59.9379 70.04C56.4963 74.968 52.9019 79.888 47.434 79.888C41.966 79.888 40.5588 76.728 34.2465 76.728C28.0951 76.728 25.9079 79.992 20.9064 79.992C15.9048 79.992 12.415 75.432 8.40246 69.832C3.7547 63.256 -0.000488281 53.04 -0.000488281 43.344C-0.000488281 27.792 10.1635 19.544 20.1666 19.544C25.4818 19.544 29.9124 23.016 33.2495 23.016C36.4257 23.016 41.379 19.336 47.4259 19.336C49.7176 19.336 57.9517 19.544 63.3714 27.272ZM44.5552 12.752C47.056 9.8 48.8251 5.704 48.8251 1.608C48.8251 1.04 48.7768 0.464 48.6723 0C44.6035 0.152 39.7627 2.696 36.8438 6.064C34.5521 8.656 32.4132 12.752 32.4132 16.904C32.4132 17.528 32.5177 18.152 32.566 18.352C32.8233 18.4 33.2414 18.456 33.6595 18.456C37.3102 18.456 41.9017 16.024 44.5552 12.752Z" fill="#236FE3"/>
</g>
<defs>
<clipPath id="clip0_442_7783">
<rect width="65.4545" height="80" fill="white"/>
</clipPath>
</defs>
</svg>
