<svg width="165" height="136" viewBox="0 0 165 136" fill="none" xmlns="http://www.w3.org/2000/svg">
<mask id="mask0_442_8189" style="mask-type:luminance" maskUnits="userSpaceOnUse" x="80" y="0" width="85" height="103">
<path d="M80.757 0H164.619V102.448H80.757V0Z" fill="white"/>
</mask>
<g mask="url(#mask0_442_8189)">
<path d="M124.277 0L88.8131 97.4354C88.3746 98.6351 87.6072 99.687 86.5986 100.471C85.5901 101.255 84.3813 101.739 83.1105 101.868V101.914H120.6C123.535 101.914 126.048 100.048 126.983 97.4385L162.46 0H124.277Z" fill="#0996C7"/>
</g>
<path d="M80.0513 100.436C82.2255 100.436 84.1295 99.3549 85.2942 97.718C85.4154 97.5472 85.8409 96.9509 86.1422 96.1402L99.1501 60.3839L91.5404 39.5022C91.0972 38.4448 90.3792 37.5251 89.4609 36.8385C88.5427 36.1519 87.4575 35.7234 86.3179 35.5973C85.1783 35.4712 84.0257 35.6521 82.9796 36.1214C81.9334 36.5906 81.0318 37.3311 80.3681 38.266C80.2439 38.4368 79.7376 39.1978 79.5202 39.8438L66.5122 75.5877L74.1561 96.5533C74.6519 97.7056 75.4745 98.6874 76.5222 99.3774C77.5699 100.067 78.7968 100.435 80.0513 100.436Z" fill="#0996C7"/>
<mask id="mask1_442_8189" style="mask-type:luminance" maskUnits="userSpaceOnUse" x="0" y="31" width="84" height="105">
<path d="M0 31.0104H83.8621V135.984H0V31.0104Z" fill="white"/>
</mask>
<g mask="url(#mask1_442_8189)">
<path d="M82.8318 34.0667H44.9292C41.994 34.0667 39.4813 35.9241 38.5339 38.5456L3.06958 135.981H41.2517L76.7192 38.5487C77.1793 37.2811 78.0063 36.1791 79.0949 35.3831C80.1835 34.5872 81.4843 34.1332 82.8318 34.0791V34.0667Z" fill="#0996C7"/>
</g>
</svg>
