<svg width="240" height="97" viewBox="0 0 240 97" fill="none" xmlns="http://www.w3.org/2000/svg">
<path d="M4 4.15002H171.02L191.187 31.6751L211.354 4.15002H235.999L203.51 48.4968L235.999 92.8516H211.354L191.187 65.3265L171.02 92.8516H4V4.15002Z" fill="#00539F"/>
<path d="M23.7732 75.2086V21.8388H31.8692C48.1824 21.8388 55.6136 30.0771 55.6136 48.1991C55.6136 67.1968 48.7344 75.2098 32.088 75.2098L23.7732 75.2086ZM97.8852 58.1861L108.09 22.4953L118.409 58.1861H97.8852ZM8.56925 88.3927H32.646C58.1672 88.3927 71.0324 74.8792 71.0324 48.1991C71.0324 22.0558 58.1664 8.55181 33.1972 8.55181H8.56885L8.56925 88.3927ZM178.409 48.4643L149.149 88.4085L169.307 88.4266L188.711 61.9218L198.575 48.4646L188.711 35.0156L169.307 8.55046H149.149L178.409 48.4643ZM74.6933 88.3927H89.1169L94.2193 70.9287H122.068L127.065 88.3927H142.268L117.963 8.54785H98.9972L74.6933 88.3927Z" fill="white"/>
</svg>
