<svg width="251" height="80" viewBox="0 0 251 80" fill="none" xmlns="http://www.w3.org/2000/svg">
<path fill-rule="evenodd" clip-rule="evenodd" d="M92.4198 0L76.3379 80H90.5885L99.5451 35.5911H105.144L115.322 80H130.386L120.207 35.5911H115.322L138.629 0H122.344L99.647 34.8044L106.669 0H92.4198Z" fill="#111111"/>
<path fill-rule="evenodd" clip-rule="evenodd" d="M141.887 0L125.806 80H140.056L149.011 35.5911H154.611L164.788 80H179.853L169.676 35.5911H164.788L188.096 0H171.81L149.114 34.8044L156.136 0H141.887ZM54.3535 80H68.6041L84.686 0H70.4354L54.3535 80ZM220.666 80H234.917L251 0H236.748L220.666 80Z" fill="#111111"/>
<path fill-rule="evenodd" clip-rule="evenodd" d="M175.476 80H213.237L216.085 65.8267H192.573L196.543 45.9865H218.429L221.277 31.8111H199.394L203.058 13.5423H226.468L229.319 0H191.556L175.476 80ZM62.6988 0H50.8926L39.7989 55.2735L32.9795 0H16.0832L0 80H11.9095L23.4111 21.8889L30.637 80H46.6183L62.6988 0Z" fill="#111111"/>
</svg>
