<svg width="235" height="102" viewBox="0 0 235 102" fill="none" xmlns="http://www.w3.org/2000/svg">
<g clip-path="url(#clip0_442_8201)">
<path d="M0 1.07827H49.3949V15.5265H18.1756V42.9134H49.3949V57.5772H18.1756V100.491H0V1.07827Z" fill="#236FE3"/>
<path d="M77.1929 15.5265H55.3821V1.07827H116.538V15.5265H95.1547V100.491H77.1929V15.5265Z" fill="#236FE3"/>
<mask id="mask0_442_8201" style="mask-type:luminance" maskUnits="userSpaceOnUse" x="119" y="0" width="57" height="103">
<path d="M119.104 102.431H175.983V0.000106812H119.104V102.431Z" fill="white"/>
</mask>
<g mask="url(#mask0_442_8201)">
<path d="M121.242 81.2981C124.663 83.4545 132.575 87.3362 141.984 87.3362C149.896 87.3362 156.952 83.0233 156.952 72.8879C156.952 65.7717 152.889 62.7526 144.122 57.7928C134.927 52.833 134.927 52.833 134.927 52.833C125.305 47.4419 119.104 39.463 119.104 26.74C119.104 8.84144 133.431 -0.215643 149.896 -0.215643C160.373 -0.215643 167.643 2.3721 170.423 3.45032C169.568 18.5455 169.568 18.5455 169.568 18.5455C165.291 16.8203 159.518 14.2326 151.178 14.2326C142.198 14.2326 137.707 19.1924 137.707 25.8774C137.707 33.4249 142.411 36.2283 147.971 39.2474C158.663 45.2854 158.663 45.2854 158.663 45.2854C169.996 51.7548 175.555 58.0085 175.555 72.0254C175.555 92.296 161.442 102 142.625 102C132.789 102 125.091 100.49 120.387 97.4715" fill="#236FE3"/>
</g>
<mask id="mask1_442_8201" style="mask-type:luminance" maskUnits="userSpaceOnUse" x="185" y="1" width="51" height="100">
<path d="M185.605 100.922H235.214V1.07822H185.605V100.922Z" fill="white"/>
</mask>
<g mask="url(#mask1_442_8201)">
<path d="M185.605 1.07803H235V15.5262H203.567V43.1288H235V57.577H203.567V86.0421H235V100.49H185.605V1.07803Z" fill="#236FE3"/>
</g>
</g>
<defs>
<clipPath id="clip0_442_8201">
<rect width="235" height="102" fill="white"/>
</clipPath>
</defs>
</svg>
