<svg width="129" height="157" viewBox="0 0 129 157" fill="none" xmlns="http://www.w3.org/2000/svg">
<g clip-path="url(#clip0_442_8187)">
<path d="M124.895 53.5213C123.976 54.2278 107.748 63.2867 107.748 83.4298C107.748 106.729 128.397 114.971 129.015 115.175C128.92 115.678 125.735 126.463 118.128 137.453C111.345 147.125 104.261 156.78 93.4846 156.78C82.7082 156.78 79.9349 150.579 67.4945 150.579C55.371 150.579 51.0604 156.984 41.2032 156.984C31.3459 156.984 24.4681 148.035 16.5601 137.045C7.40013 124.14 -0.000732422 104.091 -0.000732422 85.0626C-0.000732422 54.5418 20.0307 38.3551 39.7452 38.3551C50.2205 38.3551 58.9526 45.1689 65.5294 45.1689C71.7892 45.1689 81.5514 37.9469 93.4688 37.9469C97.9854 37.9469 114.213 38.3551 124.895 53.5213ZM87.8112 25.0258C92.7398 19.2325 96.2263 11.1941 96.2263 3.1557C96.2263 2.041 96.1312 0.9106 95.9252 0C87.9063 0.2983 78.366 5.2909 72.6133 11.9006C68.0967 16.9874 63.8812 25.0258 63.8812 33.1741C63.8812 34.3987 64.0872 35.6233 64.1823 36.0158C64.6894 36.11 65.5135 36.2199 66.3376 36.2199C73.5324 36.2199 82.5814 31.4471 87.8112 25.0258Z" fill="#236FE3"/>
</g>
<defs>
<clipPath id="clip0_442_8187">
<rect width="129" height="157" fill="white"/>
</clipPath>
</defs>
</svg>
