<svg width="89" height="70" viewBox="0 0 89 70" fill="none" xmlns="http://www.w3.org/2000/svg">
<g clip-path="url(#clip0_161_2070)">
<path d="M16.7549 69.16V64.606C16.7549 62.8639 15.7008 61.7232 13.8913 61.7232C12.9865 61.7232 12.0027 62.0238 11.3263 63.0142C10.7993 62.183 10.0438 61.7232 8.91067 61.7232C8.15524 61.7232 7.3998 61.9531 6.80248 62.7843V61.8735H5.22134V69.16H6.80248V65.1365C6.80248 63.8455 7.47886 63.2353 8.53295 63.2353C9.58705 63.2353 10.1141 63.9162 10.1141 65.1365V69.16H11.6952V65.1365C11.6952 63.8455 12.4507 63.2353 13.4257 63.2353C14.4798 63.2353 15.0068 63.9162 15.0068 65.1365V69.16H16.7549ZM40.2085 61.8735H37.6435V59.6716H36.0624V61.8735H34.6305V63.3149H36.0624V66.6575C36.0624 68.3288 36.7387 69.3104 38.5483 69.3104C39.2246 69.3104 39.9801 69.0805 40.5071 68.7798L40.0503 67.4092C39.5936 67.7098 39.0665 67.7894 38.6888 67.7894C37.9334 67.7894 37.6347 67.3296 37.6347 66.5779V63.3149H40.1997V61.8735H40.2085ZM53.6306 61.7143C52.7258 61.7143 52.1197 62.1742 51.742 62.7755V61.8647H50.1609V69.1512H51.742V65.0481C51.742 63.8366 52.269 63.1469 53.2529 63.1469C53.5515 63.1469 53.9292 63.2265 54.2367 63.2972L54.6935 61.7762C54.3772 61.7143 53.9292 61.7143 53.6306 61.7143ZM33.3481 62.4748C32.5926 61.9443 31.5385 61.7143 30.4054 61.7143C28.5959 61.7143 27.3924 62.6252 27.3924 64.0665C27.3924 65.278 28.2972 65.9678 29.8783 66.1888L30.6338 66.2684C31.4595 66.4188 31.9163 66.6487 31.9163 67.0289C31.9163 67.5595 31.3102 67.9397 30.2561 67.9397C29.202 67.9397 28.3675 67.5595 27.8404 67.1792L27.085 68.3907C27.9107 69.0009 29.0439 69.3015 30.177 69.3015C32.2852 69.3015 33.4974 68.3111 33.4974 66.9493C33.4974 65.6583 32.5136 64.9774 31.0115 64.7474L30.2561 64.6679C29.5797 64.5883 29.0526 64.4379 29.0526 63.987C29.0526 63.4564 29.5797 63.1557 30.4142 63.1557C31.3189 63.1557 32.2237 63.536 32.6805 63.7659L33.3481 62.4748ZM75.4152 61.7143C74.5104 61.7143 73.9043 62.1742 73.5266 62.7755V61.8647H71.9454V69.1512H73.5266V65.0481C73.5266 63.8366 74.0536 63.1469 75.0375 63.1469C75.3361 63.1469 75.7138 63.2265 76.0213 63.2972L76.4781 61.7939C76.1706 61.7143 75.7226 61.7143 75.4152 61.7143ZM55.2117 65.5168C55.2117 67.7187 56.7226 69.3104 59.0592 69.3104C60.1133 69.3104 60.8687 69.0805 61.6241 68.4791L60.8687 67.1881C60.2626 67.6479 59.6653 67.869 58.9801 67.869C57.6976 67.869 56.7929 66.9582 56.7929 65.5168C56.7929 64.1461 57.6976 63.2353 58.9801 63.1646C59.6565 63.1646 60.2626 63.3945 60.8687 63.8455L61.6241 62.5544C60.8687 61.9442 60.1133 61.7232 59.0592 61.7232C56.7226 61.7143 55.2117 63.3149 55.2117 65.5168ZM69.8373 65.5168V61.8735H68.2561V62.7843C67.7291 62.1034 66.9736 61.7232 65.9898 61.7232C63.9519 61.7232 62.3708 63.3149 62.3708 65.5168C62.3708 67.7187 63.9519 69.3104 65.9898 69.3104C67.0439 69.3104 67.7994 68.9301 68.2561 68.2492V69.16H69.8373V65.5168ZM64.031 65.5168C64.031 64.2257 64.8567 63.1646 66.2182 63.1646C67.5007 63.1646 68.4055 64.155 68.4055 65.5168C68.4055 66.8078 67.5007 67.869 66.2182 67.869C64.8655 67.7894 64.031 66.799 64.031 65.5168ZM45.11 61.7143C43.0018 61.7143 41.4909 63.2353 41.4909 65.5079C41.4909 67.7894 43.0018 69.3015 45.189 69.3015C46.2431 69.3015 47.2972 69.0009 48.1317 68.3111L47.3763 67.1704C46.7702 67.6302 46.0148 67.9309 45.2681 67.9309C44.2843 67.9309 43.3092 67.4711 43.0809 66.1888H48.4304C48.4304 65.9589 48.4304 65.8086 48.4304 65.5787C48.5007 63.2353 47.1391 61.7143 45.11 61.7143ZM45.11 63.085C46.0938 63.085 46.7702 63.6951 46.9195 64.827H43.1511C43.3005 63.8455 43.9768 63.085 45.11 63.085ZM84.3925 65.5168V58.9907H82.8114V62.7843C82.2843 62.1034 81.5289 61.7232 80.5451 61.7232C78.5072 61.7232 76.926 63.3149 76.926 65.5168C76.926 67.7187 78.5072 69.3104 80.5451 69.3104C81.5992 69.3104 82.3546 68.9301 82.8114 68.2492V69.16H84.3925V65.5168ZM78.5862 65.5168C78.5862 64.2257 79.4119 63.1646 80.7735 63.1646C82.056 63.1646 82.9607 64.155 82.9607 65.5168C82.9607 66.8078 82.056 67.869 80.7735 67.869C79.4119 67.7894 78.5862 66.799 78.5862 65.5168ZM25.6532 65.5168V61.8735H24.072V62.7843C23.545 62.1034 22.7896 61.7232 21.8057 61.7232C19.7678 61.7232 18.1867 63.3149 18.1867 65.5168C18.1867 67.7187 19.7678 69.3104 21.8057 69.3104C22.8598 69.3104 23.6153 68.9301 24.072 68.2492V69.16H25.6532V65.5168ZM19.7766 65.5168C19.7766 64.2257 20.6023 63.1646 21.9639 63.1646C23.2463 63.1646 24.1511 64.155 24.1511 65.5168C24.1511 66.8078 23.2463 67.869 21.9639 67.869C20.6023 67.7894 19.7766 66.799 19.7766 65.5168Z" fill="#EFEFEF"/>
<path d="M56.5733 6.53467H32.821V49.4934H56.5733V6.53467Z" fill="#C4C7C8"/>
<path d="M34.4022 28.0142C34.4022 19.2863 38.478 11.5399 44.7323 6.53485C40.1294 2.89158 34.3231 0.689697 27.9898 0.689697C12.9865 0.689697 0.846863 12.9106 0.846863 28.0142C0.846863 43.1179 12.9865 55.3388 27.9898 55.3388C34.3231 55.3388 40.1294 53.1369 44.7323 49.4936C38.4692 44.5593 34.4022 36.7422 34.4022 28.0142Z" fill="#EFEFEF"/>
<path d="M88.6177 28.0142C88.6177 43.1179 76.4781 55.3388 61.4748 55.3388C55.1415 55.3388 49.3352 53.1369 44.7323 49.4936C51.0656 44.4797 55.0624 36.7422 55.0624 28.0142C55.0624 19.2863 50.9866 11.5399 44.7323 6.53485C49.3264 2.89158 55.1327 0.689697 61.466 0.689697C76.4781 0.689697 88.6177 12.9902 88.6177 28.0142Z" fill="#EFEFEF"/>
</g>
<defs>
<clipPath id="clip0_161_2070">
<rect width="87.7708" height="68.6208" fill="white" transform="translate(0.846863 0.689697)"/>
</clipPath>
</defs>
</svg>
