<svg width="25" height="26" viewBox="0 0 25 26" fill="none" xmlns="http://www.w3.org/2000/svg">
<g clip-path="url(#clip0_442_5442)">
<path d="M17.311 0.5H17.4888C17.6316 2.26305 16.9586 3.5804 16.1408 4.53438C15.3383 5.48178 14.2394 6.40063 12.4621 6.26121C12.3435 4.52341 13.0175 3.30376 13.8343 2.35197C14.5918 1.46496 15.9805 0.675647 17.311 0.5ZM22.6913 18.8507V18.9001C22.1918 20.4128 21.4793 21.7093 20.6099 22.9125C19.8162 24.0048 18.8435 25.4748 17.1068 25.4748C15.6061 25.4748 14.6093 24.5098 13.0713 24.4834C11.4444 24.4571 10.5497 25.2903 9.06221 25.5H8.55503C7.46272 25.3419 6.5812 24.4769 5.93899 23.6974C4.0453 21.3943 2.58194 18.4192 2.30969 14.6121V13.4935C2.42496 10.7687 3.7489 8.5534 5.50866 7.47976C6.43739 6.90891 7.71412 6.42258 9.13576 6.63995C9.74503 6.73436 10.3675 6.94294 10.9131 7.14932C11.4301 7.34802 12.0767 7.70041 12.6893 7.68175C13.1043 7.66967 13.517 7.45341 13.9353 7.30082C15.1604 6.85841 16.3614 6.35123 17.9444 6.58945C19.8469 6.87707 21.1972 7.72237 22.0315 9.02654C20.4221 10.0508 19.1498 11.5943 19.3672 14.2301C19.5604 16.6244 20.9524 18.0251 22.6913 18.8507Z" fill="#236FE3"/>
</g>
<defs>
<clipPath id="clip0_442_5442">
<rect width="25" height="25" fill="white" transform="translate(0 0.5)"/>
</clipPath>
</defs>
</svg>
