<svg width="27" height="28" viewBox="0 0 27 28" fill="none" xmlns="http://www.w3.org/2000/svg">
<path d="M7.98262 7.54347C7.39565 9.30434 7.16085 11.3 7.04347 13.4131H12.9131V7.54347H7.98262ZM5.86958 14.5869H0C0.117373 16.7 0.704347 18.6957 1.6435 20.4565H6.6913C6.22175 18.6957 5.98695 16.7 5.86958 14.5869ZM8.33479 6.36958H12.9131V1.20435C11.0348 1.55652 9.39132 3.55219 8.33479 6.36958ZM14.0869 1.20435V6.36958H18.6652C17.6087 3.55219 15.9652 1.55652 14.0869 1.20435ZM19.0174 7.54347H14.0869V13.4131H19.9565C19.8391 11.3 19.6044 9.30434 19.0174 7.54347ZM21.1304 14.5869C21.1304 16.7 20.7782 18.6957 20.3087 20.4565H25.3565C26.2957 18.6957 26.8826 16.7 27 14.5869H21.1304ZM7.04347 14.5869C7.16085 16.7 7.39565 18.6957 7.98262 20.4565H12.9131V14.5869H7.04347ZM1.6435 7.54347C0.704347 9.30434 0.117373 11.3 0 13.4131H5.86958C5.98695 11.3 6.22175 9.30434 6.6913 7.54347H1.6435ZM8.33479 21.6304C9.39132 24.4478 11.0348 26.4435 12.9131 26.7957V21.6304H8.33479ZM7.04347 21.6304H2.34784C4.34351 24.4478 7.27827 26.5609 10.8 27.2652C9.27389 26.2087 7.98262 24.213 7.04347 21.6304ZM19.8391 21.6304C19.0174 24.213 17.7261 26.2087 16.0826 27.2652C19.6043 26.5609 22.6565 24.5652 24.5347 21.6304H19.8391ZM16.2 0.734802C17.7261 1.79132 19.0174 3.78699 19.9565 6.36958H24.6522C22.6565 3.55219 19.7217 1.43915 16.2 0.734802ZM2.46522 6.36958H7.16085C7.98257 3.78699 9.27389 1.79132 10.9174 0.734802C7.39565 1.43915 4.34346 3.43476 2.46522 6.36958ZM14.0869 21.6304V26.7957C15.9652 26.4435 17.6087 24.4478 18.6652 21.6304H14.0869ZM14.0869 14.5869V20.4565H19.0174C19.6044 18.6957 19.8391 16.7 19.9565 14.5869H14.0869ZM25.3565 7.54347H20.3087C20.7782 9.30434 21.013 11.3 21.1304 13.4131H27C26.8826 11.3 26.2957 9.30434 25.3565 7.54347Z" fill="#EFEFEF"/>
</svg>
