<svg width="148" height="54" viewBox="0 0 148 54" fill="none" xmlns="http://www.w3.org/2000/svg">
<g clip-path="url(#clip0_161_2076)">
<path fill-rule="evenodd" clip-rule="evenodd" d="M37.0197 46.4423C41.5913 46.4423 46.551 47.9679 52.0423 52.7025C52.5924 53.1765 53.3248 52.5873 52.8439 51.9982C47.4488 45.3676 42.4587 44.1054 37.4821 43.039C31.3934 41.7323 28.263 38.3981 26.081 34.738C25.6473 34.0106 25.4516 34.139 25.4128 35.0754C25.3638 36.2192 25.4465 37.7349 25.7098 39.2259C25.4634 39.2358 25.217 39.2341 24.9673 39.2341C16.2595 39.2341 9.19881 32.3617 9.19881 23.8846C9.19881 15.4093 16.2595 8.53845 24.9689 8.53845C33.6767 8.53845 40.7374 15.4093 40.7374 23.8846C40.7374 24.4886 40.707 25.086 40.6361 25.6702C39.4852 25.4678 37.2189 25.4448 35.6292 25.5781C35.0318 25.6291 35.1162 25.9006 35.5684 25.9796C40.7813 26.8963 44.3606 30.0412 45.1807 35.7469C45.1976 35.8785 45.3765 35.9164 45.4456 35.8028C47.6622 32.2037 48.8297 28.083 48.8224 23.8846C48.8224 11.0646 38.1419 0.668701 24.9689 0.668701C11.7943 0.668701 1.11377 11.063 1.11377 23.8846C1.11377 36.708 11.7943 47.1039 24.9689 47.1039C28.4622 47.1039 31.9318 46.4423 37.0197 46.4423ZM38.795 38.013C39.8565 38.8852 40.1788 39.9237 39.6185 40.656C39.3064 41.0575 38.8001 41.2797 38.1926 41.2797C37.5999 41.2798 37.026 41.0772 36.5708 40.707C35.6056 39.8858 35.3221 38.5561 35.9515 37.8007C36.1979 37.5045 36.5978 37.3415 37.0771 37.3415C37.6593 37.3415 38.2702 37.5802 38.795 38.013ZM43.6923 35.7946C43.8475 36.8116 43.5185 37.2329 43.186 37.2329C42.8232 37.2329 42.3693 36.8215 41.8343 36.0069C41.3044 35.2038 41.1103 34.2822 41.3736 33.8165C41.5457 33.5087 41.9086 33.3738 42.3659 33.5433C43.2518 33.8675 43.5978 35.1873 43.6923 35.7946ZM76.7581 30.479L74.0074 27.2583C73.9429 27.1824 73.9019 27.0901 73.8893 26.9923C73.8766 26.8944 73.8929 26.7951 73.9361 26.7059C73.9794 26.6168 74.0478 26.5415 74.1333 26.4889C74.2189 26.4364 74.318 26.4087 74.4192 26.4091H80.172C80.4454 25.6159 80.6007 24.7684 80.6007 23.8863C80.6007 19.8543 77.5158 16.3769 73.2834 16.3769C69.0511 16.3769 65.9662 19.8543 65.9662 23.8863C65.9662 27.9183 69.0511 31.3479 73.2834 31.3479C74.566 31.3479 75.7405 31.0286 76.7598 30.4773L76.7581 30.479ZM89.2021 35.918C89.5008 36.2406 89.2561 36.7573 88.8055 36.7573H82.5278C82.4017 36.7575 82.277 36.7306 82.1627 36.6785C82.0484 36.6265 81.9472 36.5506 81.8663 36.4562L80.8032 35.2104C78.5642 36.6264 75.9521 37.3787 73.2834 37.3761C65.6405 37.3761 59.4236 31.3249 59.4236 23.8863C59.4236 16.4477 65.6405 10.3965 73.2834 10.3965C80.9264 10.3965 87.1433 16.4477 87.1433 23.8863C87.1433 26.5688 86.3333 29.067 84.941 31.1702L89.2021 35.918ZM147.201 11.0202H142.076C141.896 11.0206 141.723 11.0906 141.596 11.2149C141.468 11.3392 141.397 11.5076 141.396 11.6834V36.0941C141.396 36.4611 141.7 36.7573 142.076 36.7573H147.201C147.578 36.7573 147.883 36.4611 147.883 36.0941V11.6817C147.883 11.5054 147.811 11.3363 147.684 11.2116C147.556 11.0869 147.382 11.0169 147.201 11.0169V11.0202ZM138.578 11.0202H132.847C132.702 11.0196 132.56 11.0646 132.442 11.1484C132.325 11.2322 132.238 11.3504 132.194 11.4859L127.658 25.9121L122.671 11.4695C122.626 11.3377 122.539 11.2233 122.423 11.1423C122.307 11.0614 122.168 11.0181 122.025 11.0185H118.025C117.883 11.018 117.743 11.0613 117.627 11.1422C117.511 11.2231 117.423 11.3376 117.377 11.4695L112.392 25.9121L107.856 11.4859C107.813 11.3501 107.726 11.2315 107.609 11.1474C107.491 11.0633 107.349 11.0181 107.203 11.0185H101.471C101.363 11.0187 101.257 11.0437 101.161 11.0915C101.065 11.1392 100.982 11.2084 100.919 11.2934C100.855 11.3775 100.814 11.4753 100.797 11.5784C100.781 11.6815 100.79 11.7869 100.824 11.8858L109.245 36.3097C109.338 36.5796 109.599 36.7606 109.891 36.7606H114.441C114.735 36.7606 114.995 36.5796 115.087 36.3113L120.025 22.0414L124.961 36.3097C125.054 36.5796 125.316 36.7606 125.608 36.7606H130.159C130.452 36.7606 130.712 36.5796 130.805 36.3097L139.226 11.8858C139.26 11.787 139.269 11.6817 139.253 11.5786C139.237 11.4756 139.196 11.3778 139.133 11.2934C139.07 11.2083 138.986 11.139 138.89 11.0913C138.794 11.0435 138.688 11.0186 138.58 11.0185L138.578 11.0202ZM98.654 11.6834V36.0941C98.654 36.4611 98.3503 36.7573 97.9723 36.7573H92.8489C92.6684 36.7573 92.4952 36.6875 92.3674 36.5632C92.2396 36.4388 92.1676 36.2702 92.1671 36.0941V11.6817C92.1671 11.3148 92.4709 11.0169 92.8489 11.0169H97.9723C98.3486 11.0169 98.654 11.3148 98.654 11.6834Z" fill="#EFEFEF"/>
</g>
<defs>
<clipPath id="clip0_161_2076">
<rect width="146.817" height="52.6625" fill="white" transform="translate(0.617676 0.668701)"/>
</clipPath>
</defs>
</svg>
