<svg width="320" height="474" viewBox="0 0 320 474" fill="none" xmlns="http://www.w3.org/2000/svg">
<path d="M357 213.694C331.651 308.19 282.922 465.164 290.794 337.085C300.634 176.986 233.359 159.074 181.164 205.733C128.97 252.392 145.655 428.412 93.7811 331.557C41.9074 234.701 -6.54366 181.851 23.0832 195.34C64.8576 214.359 24.7945 337.085 -10.3941 305.242C-21.6328 295.072 -42.9087 228.215 -52 195.34" stroke="#EFEFEF" stroke-opacity="0.81" stroke-width="0.127796"/>
<path d="M357 206.097C331.651 300.594 282.922 457.568 290.794 329.489C300.634 169.39 233.359 151.478 181.164 198.137C128.97 244.795 145.655 420.816 93.7811 323.96C41.9074 227.105 -6.54366 174.254 23.0832 187.743C64.8576 206.763 24.7945 329.489 -10.3941 297.646C-21.6328 287.476 -42.9087 220.618 -52 187.743" stroke="#EFEFEF" stroke-opacity="0.81" stroke-width="0.127796"/>
<path d="M357 198.501C331.651 292.998 282.922 449.971 290.794 321.892C300.634 161.793 233.359 143.881 181.164 190.54C128.97 237.199 145.655 413.219 93.7811 316.364C41.9074 219.508 -6.54366 166.658 23.0832 180.147C64.8576 199.167 24.7945 321.892 -10.3941 290.049C-21.6328 279.879 -42.9087 213.022 -52 180.147" stroke="#EFEFEF" stroke-opacity="0.81" stroke-width="0.127796"/>
<path d="M357 190.904C331.651 285.4 282.922 442.374 290.794 314.295C300.634 154.196 233.359 136.284 181.164 182.943C128.97 229.602 145.655 405.622 93.7811 308.767C41.9074 211.911 -6.54366 159.061 23.0832 172.55C64.8576 191.569 24.7945 314.295 -10.3941 282.452C-21.6328 272.282 -42.9087 205.425 -52 172.55" stroke="#EFEFEF" stroke-opacity="0.81" stroke-width="0.127796"/>
<path d="M357 183.307C331.651 277.804 282.922 434.778 290.794 306.699C300.634 146.6 233.359 128.688 181.164 175.347C128.97 222.005 145.655 398.026 93.7811 301.17C41.9074 204.315 -6.54366 151.464 23.0832 164.953C64.8576 183.973 24.7945 306.699 -10.3941 274.856C-21.6328 264.686 -42.9087 197.828 -52 164.953" stroke="#EFEFEF" stroke-opacity="0.81" stroke-width="0.127796"/>
<path d="M357 175.711C331.651 270.208 282.922 427.182 290.794 299.103C300.634 139.003 233.359 121.092 181.164 167.75C128.97 214.409 145.655 390.43 93.7811 293.574C41.9074 196.719 -6.54366 143.868 23.0832 157.357C64.8576 176.377 24.7945 299.103 -10.3941 267.26C-21.6328 257.089 -42.9087 190.232 -52 157.357" stroke="#EFEFEF" stroke-opacity="0.81" stroke-width="0.127796"/>
<path d="M357 168.115C331.651 262.611 282.922 419.585 290.794 291.506C300.634 131.407 233.359 113.495 181.164 160.154C128.97 206.813 145.655 382.833 93.7811 285.978C41.9074 189.122 -6.54366 136.272 23.0832 149.761C64.8576 168.78 24.7945 291.506 -10.3941 259.663C-21.6328 249.493 -42.9087 182.635 -52 149.761" stroke="#EFEFEF" stroke-opacity="0.81" stroke-width="0.127796"/>
<path d="M357 160.518C331.651 255.015 282.922 411.989 290.794 283.909C300.634 123.81 233.359 105.898 181.164 152.557C128.97 199.216 145.655 375.236 93.7811 278.381C41.9074 181.525 -6.54366 128.675 23.0832 142.164C64.8576 161.184 24.7945 283.909 -10.3941 252.066C-21.6328 241.896 -42.9087 175.039 -52 142.164" stroke="#EFEFEF" stroke-opacity="0.81" stroke-width="0.127796"/>
<path d="M357 152.921C331.651 247.418 282.922 404.392 290.794 276.313C300.634 116.213 233.359 98.3017 181.164 144.96C128.97 191.619 145.655 367.64 93.7811 270.784C41.9074 173.929 -6.54366 121.078 23.0832 134.567C64.8576 153.587 24.7945 276.313 -10.3941 244.47C-21.6328 234.299 -42.9087 167.442 -52 134.567" stroke="#EFEFEF" stroke-opacity="0.81" stroke-width="0.127796"/>
<path d="M357 145.325C331.651 239.822 282.922 396.796 290.794 268.716C300.634 108.617 233.359 90.7055 181.164 137.364C128.97 184.023 145.655 360.044 93.7811 263.188C41.9074 166.332 -6.54366 113.482 23.0832 126.971C64.8576 145.991 24.7945 268.716 -10.3941 236.873C-21.6328 226.703 -42.9087 159.846 -52 126.971" stroke="#EFEFEF" stroke-opacity="0.81" stroke-width="0.127796"/>
<path d="M357 137.728C331.651 232.225 282.922 389.199 290.794 261.12C300.634 101.02 233.359 83.1088 181.164 129.768C128.97 176.426 145.655 352.447 93.7811 255.591C41.9074 158.736 -6.54366 105.885 23.0832 119.374C64.8576 138.394 24.7945 261.12 -10.3941 229.277C-21.6328 219.107 -42.9087 152.249 -52 119.374" stroke="#EFEFEF" stroke-opacity="0.81" stroke-width="0.127796"/>
<path d="M357 130.132C331.651 224.628 282.922 381.602 290.794 253.523C300.634 93.4238 233.359 75.5121 181.164 122.171C128.97 168.83 145.655 344.85 93.7811 247.995C41.9074 151.139 -6.54366 98.2887 23.0832 111.778C64.8576 130.797 24.7945 253.523 -10.3941 221.68C-21.6328 211.51 -42.9087 144.653 -52 111.778" stroke="#EFEFEF" stroke-opacity="0.81" stroke-width="0.127796"/>
<path d="M357 122.535C331.651 217.032 282.922 374.006 290.794 245.926C300.634 85.8271 233.359 67.9154 181.164 114.574C128.97 161.233 145.655 337.254 93.7811 240.398C41.9074 143.542 -6.54366 90.692 23.0832 104.181C64.8576 123.201 24.7945 245.926 -10.3941 214.083C-21.6328 203.913 -42.9087 137.056 -52 104.181" stroke="#EFEFEF" stroke-opacity="0.81" stroke-width="0.127796"/>
<path d="M357 114.939C331.651 209.436 282.922 366.409 290.794 238.33C300.634 78.2309 233.359 60.3192 181.164 106.978C128.97 153.637 145.655 329.657 93.7811 232.802C41.9074 135.946 -6.54366 83.0958 23.0832 96.5848C64.8576 115.605 24.7945 238.33 -10.3941 206.487C-21.6328 196.317 -42.9087 129.46 -52 96.5848" stroke="#EFEFEF" stroke-opacity="0.81" stroke-width="0.127796"/>
<path d="M357 107.342C331.651 201.839 282.922 358.813 290.794 230.733C300.634 70.6342 233.359 52.7226 181.164 99.3813C128.97 146.04 145.655 322.061 93.7811 225.205C41.9074 128.35 -6.54366 75.4991 23.0832 88.9881C64.8576 108.008 24.7945 230.733 -10.3941 198.89C-21.6328 188.72 -42.9087 121.863 -52 88.9881" stroke="#EFEFEF" stroke-opacity="0.81" stroke-width="0.127796"/>
<path d="M357 99.7458C331.651 194.243 282.922 351.217 290.794 223.137C300.634 63.038 233.359 45.1264 181.164 91.7851C128.97 138.444 145.655 314.465 93.7811 217.609C41.9074 120.753 -6.54366 67.9029 23.0832 81.3919C64.8576 100.412 24.7945 223.137 -10.3941 191.294C-21.6328 181.124 -42.9087 114.267 -52 81.3919" stroke="#EFEFEF" stroke-opacity="0.81" stroke-width="0.127796"/>
<path d="M357 92.1492C331.651 186.646 282.922 343.62 290.794 215.541C300.634 55.4413 233.359 37.5297 181.164 84.1884C128.97 130.847 145.655 306.868 93.7811 210.012C41.9074 113.157 -6.54366 60.3062 23.0832 73.7953C64.8576 92.8151 24.7945 215.541 -10.3941 183.698C-21.6328 173.527 -42.9087 106.67 -52 73.7953" stroke="#EFEFEF" stroke-opacity="0.81" stroke-width="0.127796"/>
<path d="M357 84.553C331.651 179.05 282.922 336.024 290.794 207.944C300.634 47.8452 233.359 29.9335 181.164 76.5922C128.97 123.251 145.655 299.272 93.7811 202.416C41.9074 105.56 -6.54366 52.71 23.0832 66.1991C64.8576 85.2189 24.7945 207.944 -10.3941 176.101C-21.6328 165.931 -42.9087 99.0739 -52 66.1991" stroke="#EFEFEF" stroke-opacity="0.81" stroke-width="0.127796"/>
<path d="M357 76.9558C331.651 171.453 282.922 328.427 290.794 200.347C300.634 40.248 233.359 22.3363 181.164 68.9951C128.97 115.654 145.655 291.674 93.7811 194.819C41.9074 97.9633 -6.54366 45.1129 23.0832 58.6019C64.8576 77.6217 24.7945 200.347 -10.3941 168.504C-21.6328 158.334 -42.9087 91.4768 -52 58.6019" stroke="#EFEFEF" stroke-opacity="0.81" stroke-width="0.127796"/>
<path d="M357 69.3596C331.651 163.856 282.922 320.83 290.794 192.751C300.634 32.6518 233.359 14.7401 181.164 61.3989C128.97 108.058 145.655 284.078 93.7811 187.223C41.9074 90.3671 -6.54366 37.5167 23.0832 51.0057C64.8576 70.0255 24.7945 192.751 -10.3941 160.908C-21.6328 150.738 -42.9087 83.8806 -52 51.0057" stroke="#EFEFEF" stroke-opacity="0.81" stroke-width="0.127796"/>
<path d="M357 61.7634C331.651 156.26 282.922 313.234 290.794 185.155C300.634 25.0556 233.359 7.14395 181.164 53.8027C128.97 100.461 145.655 276.482 93.7811 179.627C41.9074 82.7709 -6.54366 29.9205 23.0832 43.4095C64.8576 62.4293 24.7945 185.155 -10.3941 153.312C-21.6328 143.142 -42.9087 76.2844 -52 43.4095" stroke="#EFEFEF" stroke-opacity="0.81" stroke-width="0.127796"/>
<path d="M357 54.1667C331.651 148.664 282.922 305.637 290.794 177.558C300.634 17.4589 233.359 -0.452732 181.164 46.206C128.97 92.8648 145.655 268.885 93.7811 172.03C41.9074 75.1742 -6.54366 22.3238 23.0832 35.8128C64.8576 54.8326 24.7945 177.558 -10.3941 145.715C-21.6328 135.545 -42.9087 68.6877 -52 35.8128" stroke="#EFEFEF" stroke-opacity="0.81" stroke-width="0.127796"/>
<path d="M357 46.5701C331.651 141.067 282.922 298.041 290.794 169.961C300.634 9.86224 233.359 -8.04941 181.164 38.6093C128.97 85.2681 145.655 261.289 93.7811 164.433C41.9074 67.5776 -6.54366 14.7271 23.0832 28.2162C64.8576 47.236 24.7945 169.961 -10.3941 138.119C-21.6328 127.948 -42.9087 61.091 -52 28.2162" stroke="#EFEFEF" stroke-opacity="0.81" stroke-width="0.127796"/>
<path d="M357 38.9734C331.651 133.47 282.922 290.444 290.794 162.365C300.634 2.26556 233.359 -15.6461 181.164 31.0127C128.97 77.6714 145.655 253.692 93.7811 156.836C41.9074 59.9809 -6.54366 7.13045 23.0832 20.6195C64.8576 39.6393 24.7945 162.365 -10.3941 130.522C-21.6328 120.352 -42.9087 53.4944 -52 20.6195" stroke="#EFEFEF" stroke-opacity="0.81" stroke-width="0.127796"/>
<path d="M357 31.3772C331.651 125.874 282.922 282.848 290.794 154.769C300.634 -5.33063 233.359 -23.2423 181.164 23.4165C128.97 70.0752 145.655 246.096 93.7811 149.24C41.9074 52.3847 -6.54366 -0.465739 23.0832 13.0233C64.8576 32.0431 24.7945 154.769 -10.3941 122.926C-21.6328 112.755 -42.9087 45.8982 -52 13.0233" stroke="#EFEFEF" stroke-opacity="0.81" stroke-width="0.127796"/>
<path d="M357 301.803C331.651 396.3 282.922 553.274 290.794 425.195C300.634 265.096 233.359 247.184 181.164 293.843C128.97 340.501 145.655 516.522 93.7811 419.667C41.9074 322.811 -6.54366 269.961 23.0832 283.45C64.8576 302.469 24.7945 425.195 -10.3941 393.352C-21.6328 383.182 -42.9087 316.324 -52 283.45" stroke="#EFEFEF" stroke-opacity="0.81" stroke-width="0.127796"/>
<path d="M357 294.207C331.651 388.704 282.922 545.678 290.794 417.599C300.634 257.499 233.359 239.588 181.164 286.247C128.97 332.905 145.655 508.926 93.7811 412.07C41.9074 315.215 -6.54366 262.364 23.0832 275.853C64.8576 294.873 24.7945 417.599 -10.3941 385.756C-21.6328 375.586 -42.9087 308.728 -52 275.853" stroke="#EFEFEF" stroke-opacity="0.81" stroke-width="0.127796"/>
<path d="M357 286.61C331.651 381.107 282.922 538.081 290.794 410.001C300.634 249.902 233.359 231.991 181.164 278.649C128.97 325.308 145.655 501.329 93.7811 404.473C41.9074 307.618 -6.54366 254.767 23.0832 268.256C64.8576 287.276 24.7945 410.001 -10.3941 378.159C-21.6328 367.988 -42.9087 301.131 -52 268.256" stroke="#EFEFEF" stroke-opacity="0.81" stroke-width="0.127796"/>
<path d="M357 279.014C331.651 373.511 282.922 530.485 290.794 402.405C300.634 242.306 233.359 224.394 181.164 271.053C128.97 317.712 145.655 493.733 93.7811 396.877C41.9074 300.021 -6.54366 247.171 23.0832 260.66C64.8576 279.68 24.7945 402.405 -10.3941 370.562C-21.6328 360.392 -42.9087 293.535 -52 260.66" stroke="#EFEFEF" stroke-opacity="0.81" stroke-width="0.127796"/>
<path d="M357 271.418C331.651 365.915 282.922 522.888 290.794 394.809C300.634 234.71 233.359 216.798 181.164 263.457C128.97 310.116 145.655 486.136 93.7811 389.281C41.9074 292.425 -6.54366 239.575 23.0832 253.064C64.8576 272.084 24.7945 394.809 -10.3941 362.966C-21.6328 352.796 -42.9087 285.939 -52 253.064" stroke="#EFEFEF" stroke-opacity="0.81" stroke-width="0.127796"/>
<path d="M357 263.821C331.651 358.317 282.922 515.291 290.794 387.212C300.634 227.113 233.359 209.201 181.164 255.86C128.97 302.519 145.655 478.539 93.7811 381.684C41.9074 284.828 -6.54366 231.978 23.0832 245.467C64.8576 264.486 24.7945 387.212 -10.3941 355.369C-21.6328 345.199 -42.9087 278.342 -52 245.467" stroke="#EFEFEF" stroke-opacity="0.81" stroke-width="0.127796"/>
<path d="M357 256.224C331.651 350.721 282.922 507.695 290.794 379.616C300.634 219.517 233.359 201.605 181.164 248.264C128.97 294.922 145.655 470.943 93.7811 374.087C41.9074 277.232 -6.54366 224.381 23.0832 237.87C64.8576 256.89 24.7945 379.616 -10.3941 347.773C-21.6328 337.603 -42.9087 270.745 -52 237.87" stroke="#EFEFEF" stroke-opacity="0.81" stroke-width="0.127796"/>
<path d="M357 248.627C331.651 343.124 282.922 500.098 290.794 372.019C300.634 211.919 233.359 194.008 181.164 240.666C128.97 287.325 145.655 463.346 93.7811 366.49C41.9074 269.635 -6.54366 216.784 23.0832 230.273C64.8576 249.293 24.7945 372.019 -10.3941 340.176C-21.6328 330.005 -42.9087 263.148 -52 230.273" stroke="#EFEFEF" stroke-opacity="0.81" stroke-width="0.127796"/>
<path d="M357 241.031C331.651 335.528 282.922 492.502 290.794 364.423C300.634 204.324 233.359 186.412 181.164 233.071C128.97 279.73 145.655 455.75 93.7811 358.895C41.9074 262.039 -6.54366 209.189 23.0832 222.678C64.8576 241.697 24.7945 364.423 -10.3941 332.58C-21.6328 322.41 -42.9087 255.552 -52 222.678" stroke="#EFEFEF" stroke-opacity="0.81" stroke-width="0.127796"/>
<path d="M357 233.435C331.651 327.932 282.922 484.906 290.794 356.826C300.634 196.727 233.359 178.815 181.164 225.474C128.97 272.133 145.655 448.153 93.7811 351.298C41.9074 254.442 -6.54366 201.592 23.0832 215.081C64.8576 234.101 24.7945 356.826 -10.3941 324.983C-21.6328 314.813 -42.9087 247.956 -52 215.081" stroke="#EFEFEF" stroke-opacity="0.81" stroke-width="0.127796"/>
<path d="M357 225.838C331.651 320.335 282.922 477.308 290.794 349.229C300.634 189.13 233.359 171.218 181.164 217.877C128.97 264.536 145.655 440.556 93.7811 343.701C41.9074 246.845 -6.54366 193.995 23.0832 207.484C64.8576 226.504 24.7945 349.229 -10.3941 317.386C-21.6328 307.216 -42.9087 240.359 -52 207.484" stroke="#EFEFEF" stroke-opacity="0.81" stroke-width="0.127796"/>
<path d="M357 218.242C331.651 312.739 282.922 469.713 290.794 341.633C300.634 181.534 233.359 163.622 181.164 210.281C128.97 256.94 145.655 432.961 93.7811 336.105C41.9074 239.249 -6.54366 186.399 23.0832 199.888C64.8576 218.908 24.7945 341.633 -10.3941 309.79C-21.6328 299.62 -42.9087 232.763 -52 199.888" stroke="#EFEFEF" stroke-opacity="0.81" stroke-width="0.127796"/>
</svg>
