<svg width="121" height="40" viewBox="0 0 121 40" fill="none" xmlns="http://www.w3.org/2000/svg">
<path fill-rule="evenodd" clip-rule="evenodd" d="M86.5664 9.63697C89.2976 9.63697 91.5114 7.49167 91.5114 4.84585C91.5114 2.19912 89.2976 0.052002 86.5664 0.052002C83.8379 0.052002 81.625 2.19912 81.625 4.84585C81.625 7.49167 83.8379 9.63697 86.5664 9.63697ZM48.6905 12.2239C48.4685 12.7679 46.862 17.1655 42.9776 21.7245V2.23267L32.6279 4.21658V39.5452H42.9776V28.6247C45.9749 32.9833 47.4547 39.5452 47.4547 39.5452H59.8522C58.6265 34.6036 53.2621 25.491 53.2621 25.491C58.076 19.5738 60.1907 13.2684 60.5274 12.2239H48.6905ZM75.9001 11.8557C66.6303 12.1441 61.9247 16.1763 61.9247 24.1908V39.5452H72.0377V27.0243C72.0377 22.2241 72.6863 20.1677 78.5607 19.9718V11.9963C77.5717 11.7923 75.9001 11.8557 75.9001 11.8557ZM15.2698 16.1146C14.0028 16.033 11.0679 15.8498 11.0679 13.2884C11.0679 10.1973 15.2927 10.1973 16.8781 10.1973C19.6644 10.1973 23.2736 10.9952 25.8507 11.7424C25.8507 11.7424 27.2883 12.2338 28.5113 12.738L28.626 12.7679V4.30272L28.47 4.25739C25.4278 3.22553 21.8919 2.23267 15.334 2.23267C4.02742 2.23267 0.0218506 8.61782 0.0218506 14.089C0.0218506 17.2426 1.41545 24.6632 14.3643 25.5191C15.4615 25.5853 18.3744 25.7467 18.3744 28.3944C18.3744 30.5796 15.99 31.8689 11.9789 31.8689C7.58252 31.8689 3.31823 30.7818 0.728283 29.7517V38.4699C4.60541 39.4555 8.97612 39.9478 14.1001 39.9478C25.1553 39.9478 30.1058 33.9063 30.1058 27.9183C30.1058 21.1288 24.5635 16.7185 15.2698 16.1146ZM81.5543 39.5452H91.5857V12.2547H81.5543V39.5452ZM110.474 3.97268V39.5452H120.507V2.23358L110.474 3.97268ZM95.8353 3.97268L105.858 2.23267V39.5452H95.8353V3.97268Z" fill="white"/>
</svg>
