<svg width="376" height="60" viewBox="0 0 376 60" fill="none" xmlns="http://www.w3.org/2000/svg">
<circle cx="29.9796" cy="29.8445" r="29.8445" fill="#EFEFEF"/>
<mask id="mask0_442_7478" style="mask-type:alpha" maskUnits="userSpaceOnUse" x="4" y="4" width="52" height="52">
<circle cx="30.141" cy="30.0056" r="25.6353" fill="#D9D9D9" stroke="black" stroke-width="0.106084"/>
</mask>
<g mask="url(#mask0_442_7478)">
<circle cx="43.5961" cy="30" r="43.6" fill="#EFEFEF"/>
<g clip-path="url(#clip0_442_7478)">
<path fill-rule="evenodd" clip-rule="evenodd" d="M13.2127 33.8429C13.1672 33.8825 13.1105 33.9069 13.0505 33.913C12.9905 33.9191 12.9301 33.9065 12.8775 33.8769C12.4067 33.4852 12.3213 33.3045 12.0653 32.9316C11.2857 33.725 10.7345 33.9623 9.72651 33.9623C8.53251 33.9621 7.60352 33.2252 7.60352 31.7514C7.60352 30.6002 8.23116 29.818 9.11 29.4338C9.87951 29.0961 10.9542 29.0345 11.7765 28.9417V28.7584C11.7765 28.4207 11.8029 28.0214 11.6045 27.729C11.4312 27.4678 11.1024 27.3611 10.8085 27.3611C10.2674 27.3611 9.7854 27.6385 9.66734 28.2123C9.66006 28.2774 9.63151 28.3383 9.58612 28.3855C9.54073 28.4327 9.48104 28.4637 9.41628 28.4735L8.05294 28.3242C8.01925 28.3194 7.9869 28.3078 7.95783 28.2901C7.92877 28.2725 7.9036 28.249 7.88387 28.2213C7.86414 28.1936 7.85026 28.1622 7.84307 28.1289C7.83587 28.0957 7.83552 28.0613 7.84203 28.0279C8.15719 26.3607 9.66368 25.8573 11.0132 25.8573C11.7037 25.8573 12.6051 26.0406 13.1475 26.5628C13.8367 27.2081 13.7751 28.0693 13.7751 29.0047V31.2129C13.7751 31.8783 14.0513 32.1695 14.3112 32.5274C14.4016 32.6529 14.4216 32.8098 14.3112 32.9039C13.9447 33.2131 13.5823 33.5269 13.224 33.8455L13.2127 33.8429ZM11.7829 30.3855C11.7829 30.9379 11.7954 31.3986 11.518 31.892C11.292 32.2912 10.9342 32.5372 10.5351 32.5372C9.99152 32.5372 9.67382 32.1229 9.67382 31.5078C9.67382 30.3001 10.7572 30.0803 11.7829 30.0803V30.3879V30.3855ZM17.0971 33.7877H15.6796C15.616 33.7844 15.5557 33.7584 15.5096 33.7144C15.4636 33.6704 15.4348 33.6113 15.4286 33.5479V26.2664C15.4309 26.1963 15.4605 26.1298 15.5112 26.0812C15.5619 26.0326 15.6296 26.0058 15.6998 26.0065H17.0217C17.0871 26.0101 17.1488 26.0378 17.1952 26.0841C17.2415 26.1304 17.2691 26.1921 17.2727 26.2575V27.208H17.2991C17.6431 26.2877 18.2922 25.8597 19.1659 25.8597C20.0397 25.8597 20.6085 26.2878 21.0063 27.208C21.1368 26.8601 21.3574 26.5532 21.6456 26.3188C21.9339 26.0844 22.2792 25.9308 22.6464 25.874C23.0135 25.8171 23.3892 25.859 23.7348 25.9952C24.0804 26.1315 24.3836 26.3572 24.6131 26.6494C25.0638 27.2621 24.971 28.1558 24.971 28.9317V33.5252C24.9703 33.5605 24.9627 33.5952 24.9486 33.6275C24.9344 33.6597 24.9141 33.6889 24.8887 33.7133C24.8632 33.7376 24.8333 33.7568 24.8004 33.7695C24.7676 33.7823 24.7326 33.7885 24.6974 33.7877H23.2799C23.2127 33.7842 23.1494 33.7553 23.1028 33.7068C23.0561 33.6582 23.0297 33.5938 23.0289 33.5265V29.6674C23.0289 29.3611 23.0552 28.5953 22.9887 28.304C22.8833 27.8145 22.5656 27.6763 22.1551 27.6763C21.971 27.6819 21.7926 27.7414 21.642 27.8474C21.4914 27.9534 21.3751 28.1012 21.3077 28.2726C21.162 28.6417 21.1745 29.2532 21.1745 29.6674V33.5254C21.1739 33.5605 21.1663 33.5952 21.1523 33.6274C21.1383 33.6596 21.118 33.6887 21.0927 33.7131C21.0674 33.7375 21.0375 33.7566 21.0048 33.7694C20.9721 33.7823 20.9372 33.7885 20.9021 33.7879H19.4811C19.414 33.784 19.3509 33.755 19.3043 33.7065C19.2577 33.6581 19.2312 33.5938 19.2301 33.5267V29.6675C19.2301 28.8553 19.3556 27.6588 18.3512 27.6588C17.3468 27.6588 17.3719 28.8225 17.3719 29.6675V33.5255C17.3712 33.5607 17.3636 33.5955 17.3495 33.6277C17.3354 33.66 17.315 33.6892 17.2896 33.7135C17.2642 33.7379 17.2342 33.7571 17.2014 33.7698C17.1686 33.7826 17.1335 33.7888 17.0983 33.788M32.899 32.5221C32.6392 32.1643 32.3629 31.8731 32.3629 31.209V28.9995C32.3629 28.0628 32.4294 27.2029 31.7353 26.5576C31.1916 26.0354 30.2902 25.8521 29.601 25.8521C28.2515 25.8521 26.745 26.3542 26.4286 28.0227C26.422 28.0563 26.4223 28.0908 26.4295 28.1243C26.4367 28.1577 26.4507 28.1893 26.4705 28.2172C26.4904 28.2451 26.5157 28.2686 26.545 28.2863C26.5743 28.304 26.6069 28.3156 26.6407 28.3202L28.0155 28.4683C28.0802 28.4583 28.1398 28.4273 28.1852 28.3801C28.2305 28.3329 28.2591 28.2721 28.2666 28.2071C28.3859 27.6334 28.8655 27.3559 29.4065 27.3559C29.6989 27.3559 30.0342 27.4638 30.2025 27.725C30.4021 28.0162 30.3757 28.4155 30.3757 28.7532V28.9327C29.5534 29.0242 28.4776 29.0858 27.7092 29.4235C26.8204 29.8077 26.1964 30.5898 26.1964 31.7423C26.1964 33.215 27.1254 33.9518 28.3192 33.9518C29.3236 33.9518 29.8784 33.7146 30.6568 32.9211C30.9155 33.2977 30.9996 33.4748 31.4703 33.8665C31.5228 33.8959 31.5831 33.9085 31.643 33.9026C31.7029 33.8968 31.7596 33.8728 31.8055 33.8338C32.0879 33.5827 32.6026 33.1346 32.8927 32.8922C33.0145 32.8059 32.9945 32.6527 32.899 32.5221ZM30.112 31.8856C29.8873 32.2836 29.5282 32.5296 29.1303 32.5296C28.5868 32.5296 28.2691 32.1153 28.2691 31.5014C28.2691 30.2925 29.3525 30.074 30.3781 30.074V30.3803C30.3781 30.9341 30.3881 31.3935 30.112 31.8856ZM34.0992 27.2821V26.2413C34.0976 26.2063 34.1034 26.1712 34.1162 26.1385C34.129 26.1058 34.1485 26.0762 34.1735 26.0515C34.1984 26.0267 34.2283 26.0075 34.2611 25.9951C34.2939 25.9826 34.329 25.9771 34.3641 25.979H39.0255C39.0606 25.9778 39.0956 25.9837 39.1283 25.9964C39.1611 26.0091 39.1909 26.0282 39.216 26.0528C39.2411 26.0773 39.261 26.1067 39.2744 26.1391C39.2879 26.1716 39.2946 26.2064 39.2942 26.2415V27.1341C39.2942 27.2835 39.1687 27.4794 38.944 27.7883L36.5285 31.2356C37.4249 31.2143 38.3727 31.3486 39.1874 31.8069C39.2613 31.8463 39.3235 31.9046 39.3676 31.9758C39.4116 32.047 39.4361 32.1286 39.4385 32.2123V33.3272C39.4385 33.4803 39.2715 33.6573 39.0944 33.5657C38.3324 33.174 37.4876 32.9704 36.6308 32.9719C35.774 32.9735 34.93 33.18 34.1694 33.5744C34.0073 33.6611 33.8379 33.4865 33.8379 33.3334V32.2725C33.823 32.0224 33.8834 31.7737 34.0111 31.5582L36.8095 27.5409H34.369C34.3338 27.5422 34.2987 27.5364 34.2659 27.5238C34.233 27.5112 34.2031 27.4921 34.1778 27.4675C34.1526 27.443 34.1326 27.4136 34.119 27.3811C34.1055 27.3486 34.0987 27.3137 34.0991 27.2785M43.3191 27.3348C42.2733 27.3348 42.2068 28.7584 42.2068 29.6472C42.2068 30.5361 42.1943 32.4342 43.3053 32.4342C44.4164 32.4342 44.4578 30.9027 44.4578 29.9686C44.4578 29.3559 44.4314 28.6203 44.2456 28.039C44.0861 27.5369 43.7686 27.3348 43.3191 27.3348ZM43.3053 25.8483C45.4107 25.8483 46.5494 27.6561 46.5494 29.9535C46.5494 32.1744 45.2939 33.9358 43.3053 33.9358C41.2401 33.9358 40.1153 32.1279 40.1153 29.877C40.1153 27.6261 41.2539 25.8483 43.3053 25.8483ZM49.2936 33.7726H47.88C47.8128 33.7691 47.7495 33.7402 47.7028 33.6917C47.6562 33.6432 47.6298 33.5787 47.629 33.5114V26.2299C47.6362 26.1632 47.6682 26.1017 47.7187 26.0575C47.7691 26.0134 47.8344 25.9898 47.9014 25.9914H49.2171C49.3369 25.9952 49.4396 26.0783 49.4682 26.1947V27.3083H49.4958C49.8926 26.3128 50.4486 25.8381 51.4279 25.8381C52.0632 25.8381 52.6833 26.0679 53.0839 26.6956C53.4543 27.2781 53.4543 28.2585 53.4543 28.9628V33.5438C53.4442 33.6085 53.4111 33.6673 53.361 33.7093C53.3109 33.7513 53.2472 33.7737 53.1818 33.7724H51.7556C51.6936 33.7697 51.6345 33.7454 51.5887 33.7036C51.5428 33.6618 51.513 33.6053 51.5046 33.5438V29.5905C51.5046 28.7945 51.5974 27.6295 50.617 27.6295C50.4387 27.6377 50.2665 27.697 50.121 27.8003C49.9754 27.9036 49.8626 28.0465 49.7959 28.212C49.5975 28.6564 49.5712 29.1009 49.5712 29.593V33.5112C49.5685 33.5822 49.5381 33.6493 49.4865 33.6982C49.4349 33.747 49.3661 33.7737 49.2951 33.7724M60.8335 27.0975C60.1127 27.1032 59.4133 27.3434 58.8411 27.7818V31.9246C59.4755 32.4017 60.1297 32.6398 60.8034 32.6389C62.171 32.6389 62.8547 31.7183 62.8547 29.877C62.8547 28.0357 62.181 27.1088 60.8334 27.0962L60.8335 27.0975ZM58.7369 26.9041C59.0932 26.5899 59.5003 26.3386 59.9409 26.1609C60.3571 25.9951 60.801 25.9099 61.249 25.9098C61.6943 25.9016 62.1361 25.9907 62.5433 26.171C62.9271 26.347 63.2633 26.6122 63.5239 26.9444C63.8075 27.3124 64.0172 27.7319 64.1415 28.1796C64.2921 28.7103 64.3648 29.2601 64.3575 29.8117C64.3644 30.375 64.2865 30.9362 64.1264 31.4764C63.9925 31.9347 63.7731 32.3636 63.4799 32.7405C63.2075 33.0831 62.8618 33.3603 62.4681 33.5516C62.0544 33.7436 61.6022 33.8385 61.1462 33.829C60.2938 33.8431 59.4688 33.5283 58.8424 32.9502V36.4352C58.8483 36.4757 58.8447 36.5169 58.8319 36.5557C58.819 36.5945 58.7972 36.6298 58.7683 36.6587C58.7394 36.6876 58.7042 36.7094 58.6654 36.7222C58.6266 36.7351 58.5853 36.7387 58.5449 36.7328H57.666C57.6256 36.7387 57.5843 36.7351 57.5455 36.7222C57.5067 36.7094 57.4714 36.6876 57.4425 36.6587C57.4136 36.6298 57.3919 36.5945 57.379 36.5557C57.3662 36.5169 57.3626 36.4757 57.3685 36.4352V26.4282C57.3629 26.3878 57.3667 26.3466 57.3797 26.308C57.3926 26.2693 57.4144 26.2342 57.4432 26.2053C57.472 26.1765 57.5072 26.1548 57.5458 26.1418C57.5845 26.1288 57.6256 26.125 57.666 26.1306H58.3202C58.3624 26.1266 58.405 26.1313 58.4454 26.1442C58.4858 26.1572 58.5232 26.1782 58.5552 26.2061C58.5872 26.2339 58.6133 26.2679 58.6318 26.3061C58.6503 26.3442 58.6609 26.3858 58.6629 26.4282L58.7369 26.9041ZM68.066 32.7519C68.4164 32.7474 68.7634 32.6824 69.0917 32.5598C69.4601 32.4242 69.8059 32.2338 70.1173 31.9948V30.4771C69.8596 30.4165 69.599 30.3696 69.3364 30.3365C69.0729 30.3019 68.8074 30.2843 68.5416 30.2838C67.4202 30.2838 66.8598 30.7152 66.8606 31.5781C66.8606 31.9547 66.9649 32.2447 67.1732 32.448C67.3819 32.6515 67.6793 32.7528 68.066 32.7519ZM66.3259 27.4263L66.2142 27.4639C66.1739 27.4783 66.1315 27.4859 66.0887 27.4865C65.9632 27.4865 65.8954 27.3973 65.8954 27.2178V26.8198C65.8858 26.7193 65.9068 26.6182 65.9557 26.5299C66.0199 26.4579 66.1016 26.4038 66.1929 26.3729C66.5705 26.2195 66.9644 26.1096 67.3668 26.0452C67.8279 25.9617 68.2955 25.9197 68.7641 25.9197C69.7056 25.9197 70.3995 26.1126 70.8455 26.4985C71.2916 26.8843 71.5152 27.484 71.5159 28.2974V33.3769C71.5215 33.4173 71.5177 33.4584 71.5047 33.4971C71.4917 33.5357 71.47 33.5709 71.4411 33.5997C71.4123 33.6285 71.3772 33.6503 71.3385 33.6633C71.2999 33.6762 71.2587 33.6801 71.2183 33.6744H70.578C70.5378 33.6784 70.4972 33.6742 70.4587 33.662C70.4202 33.6498 70.3846 33.6299 70.354 33.6034C70.3235 33.577 70.2986 33.5446 70.281 33.5082C70.2634 33.4719 70.2534 33.4323 70.2516 33.392L70.1762 32.9011C69.826 33.2045 69.4265 33.4457 68.9949 33.6141C68.5856 33.7782 68.149 33.8633 67.708 33.8652C66.995 33.8652 66.4301 33.6643 66.0132 33.2626C65.5964 32.8608 65.3871 32.3232 65.3854 31.6494C65.3854 30.9262 65.6432 30.3487 66.1587 29.9169C66.6742 29.4851 67.3681 29.2695 68.2403 29.2704C68.8723 29.2801 69.5011 29.3643 70.1134 29.5214V28.5447C70.1134 28.009 69.9944 27.6324 69.7568 27.4148C69.5191 27.1971 69.1026 27.0879 68.5077 27.0871C67.7679 27.0944 67.033 27.2087 66.3259 27.4263ZM76.3543 34.9916C76.0856 35.6753 75.7755 36.1663 75.424 36.4642C75.0725 36.7622 74.6122 36.9107 74.0431 36.9099C73.7572 36.9137 73.4721 36.8786 73.1956 36.8056C73.1027 36.7857 73.0189 36.7359 72.9571 36.6637C72.9008 36.5729 72.8748 36.4665 72.883 36.36V35.9733C72.883 35.7849 72.9571 35.6908 73.1065 35.6908C73.1816 35.6942 73.2563 35.7039 73.3299 35.7197C73.4622 35.7425 73.5962 35.7526 73.7304 35.7498C74.0461 35.7697 74.3582 35.6747 74.6093 35.4824C74.8176 35.3042 75.006 34.9769 75.1742 34.5007L75.4567 33.7474L72.5918 26.6656C72.538 26.5528 72.5032 26.4318 72.4888 26.3077C72.4888 26.1896 72.5579 26.1295 72.6959 26.1295H73.5886C73.7029 26.1185 73.8178 26.1444 73.9163 26.2036C74.0002 26.2974 74.0608 26.4097 74.0932 26.5313L76.1759 32.3L78.1847 26.5313C78.2171 26.4097 78.2776 26.2974 78.3617 26.2036C78.4603 26.1445 78.5751 26.1185 78.6894 26.1295H79.5218C79.6611 26.1295 79.7302 26.1898 79.7302 26.3077C79.7152 26.4319 79.68 26.5528 79.6259 26.6656L76.3543 34.9916Z" fill="#232F3E"/>
<path fill-rule="evenodd" clip-rule="evenodd" d="M36.0226 36.6424C33.3598 38.6072 29.4944 39.6554 26.175 39.6554C21.7343 39.6781 17.4451 38.0417 14.148 35.0668C13.897 34.8421 14.1204 34.5345 14.4205 34.7089C17.8453 36.7013 22.0786 37.9015 26.4551 37.9015C29.6095 37.8843 32.7295 37.2444 35.636 36.0185C36.0854 35.8276 36.4633 36.3147 36.0227 36.6461M37.1298 35.3819C37.4713 35.8176 36.7532 37.6154 36.4306 38.4176C36.3327 38.6599 36.5423 38.7578 36.7621 38.5745C38.1895 37.3794 38.5586 34.876 38.2686 34.5145C37.9786 34.153 35.4816 33.8466 33.9575 34.9174C33.7228 35.0819 33.7629 35.3091 34.024 35.2777C34.8814 35.1747 36.7922 34.9451 37.1325 35.3819" fill="#FF9900"/>
</g>
</g>
<circle cx="93.4282" cy="29.6041" r="29.6041" fill="#EFEFEF"/>
<mask id="mask1_442_7478" style="mask-type:alpha" maskUnits="userSpaceOnUse" x="68" y="4" width="52" height="52">
<circle cx="93.588" cy="29.7639" r="25.4288" fill="#D9D9D9" stroke="black" stroke-width="0.10523"/>
</mask>
<g mask="url(#mask1_442_7478)">
<circle cx="93.4001" cy="40.6" r="40.6" fill="#EFEFEF"/>
<g clip-path="url(#clip1_442_7478)">
<path d="M93.4025 51.2543L98.6295 21.8457C103.612 21.8457 105.183 22.3923 105.41 24.6232C105.41 24.6232 108.752 23.3765 110.438 20.8445C103.86 17.7951 97.2506 17.6576 97.2506 17.6576L93.3938 22.3569L93.4025 22.3563L89.5458 17.6569C89.5458 17.6569 82.9362 17.7945 76.359 20.8439C78.0432 23.3759 81.3868 24.6226 81.3868 24.6226C81.615 22.3916 83.1846 21.845 88.1334 21.8415L93.4025 51.2543Z" fill="#E82127"/>
<path d="M93.4005 16.3002C98.718 16.2595 104.804 17.1231 111.035 19.8398C111.868 18.3403 112.082 17.6776 112.082 17.6776C105.271 14.9818 98.8924 14.0593 93.3998 14.0361C87.9074 14.0593 81.5293 14.982 74.7192 17.6776C74.7192 17.6776 75.023 18.4939 75.7653 19.8398C81.9947 17.1231 88.0822 16.2595 93.3998 16.3002H93.4005Z" fill="#E82127"/>
</g>
</g>
<circle cx="156.636" cy="29.6041" r="29.6041" fill="#EFEFEF"/>
<mask id="mask2_442_7478" style="mask-type:alpha" maskUnits="userSpaceOnUse" x="131" y="4" width="52" height="52">
<circle cx="156.795" cy="29.7639" r="25.4288" fill="#D9D9D9" stroke="black" stroke-width="0.10523"/>
</mask>
<g mask="url(#mask2_442_7478)">
<circle cx="156.796" cy="28.8" r="29.6" fill="#EFEFEF"/>
<path d="M135.516 27.9192H138.07L142.412 35.7754L146.755 27.9192H149.254V40.828H147.171V30.9346L143.362 37.7856H141.407L137.599 30.9346V40.828H135.516V27.9192ZM155.782 32.7323C154.288 32.7323 153.388 33.8568 153.173 35.2494H158.244C158.14 33.8149 157.312 32.7323 155.782 32.7323ZM151.107 36.0427C151.107 33.1126 153.001 30.9801 155.819 30.9801C158.59 30.9801 160.245 33.0856 160.245 36.199V36.7713H153.173C153.424 38.2861 154.429 39.3068 156.05 39.3068C157.343 39.3068 158.151 38.9123 158.917 38.1908L160.024 39.5464C158.981 40.5053 157.655 41.0583 155.976 41.0583C152.926 41.0583 151.107 38.8341 151.107 36.0427ZM162.771 32.9171H160.854V31.2111H162.771V28.3898H164.782V31.2111H167.695V32.9171H164.782V37.2411C164.782 38.7175 165.254 39.2421 166.414 39.2421C166.943 39.2421 167.247 39.1966 167.695 39.122V40.8095C167.137 40.9674 166.604 41.0399 166.026 41.0399C163.856 41.0399 162.771 39.8542 162.771 37.4807V32.9171ZM176.16 34.5762C175.756 33.5569 174.856 32.8062 173.532 32.8062C171.812 32.8062 170.711 34.0267 170.711 36.0149C170.711 37.9534 171.724 39.2329 173.45 39.2329C174.806 39.2329 175.774 38.4439 176.16 37.4622V34.5762ZM178.17 40.828H176.197V39.4817C175.645 40.2743 174.642 41.0583 173.016 41.0583C170.402 41.0583 168.654 38.8697 168.654 36.0149C168.654 33.1332 170.443 30.9801 173.127 30.9801C174.453 30.9801 175.494 31.5103 176.197 32.4465V31.2111H178.17V40.828Z" fill="#192830"/>
<path d="M148.817 21.1605C148.817 21.941 148.989 22.5403 149.213 22.9028C149.506 23.3776 149.944 23.5788 150.39 23.5788C150.966 23.5788 151.493 23.4359 152.508 22.032C153.321 20.9067 154.279 19.3273 154.924 18.3371L156.016 16.6595C156.774 15.4944 157.652 14.1993 158.659 13.3214C159.481 12.6049 160.367 12.2068 161.259 12.2068C162.757 12.2068 164.183 13.0747 165.275 14.7025C166.47 16.4853 167.05 18.7309 167.05 21.0482C167.05 22.4258 166.779 23.438 166.317 24.2377C165.87 25.0111 165 25.7838 163.537 25.7838V23.5788C164.79 23.5788 165.103 22.4272 165.103 21.1093C165.103 19.2313 164.665 17.1471 163.7 15.6579C163.016 14.6016 162.128 13.9562 161.152 13.9562C160.097 13.9562 159.247 14.7523 158.293 16.1718C157.785 16.926 157.264 17.8452 156.679 18.8823L156.035 20.0232C154.741 22.317 154.414 22.8395 153.767 23.7018C152.633 25.2116 151.665 25.7838 150.39 25.7838C148.878 25.7838 147.922 25.1291 147.33 24.1425C146.847 23.3385 146.609 22.2836 146.609 21.0816L148.817 21.1605Z" fill="#0081FB"/>
<path d="M148.35 14.8582C149.362 13.2979 150.823 12.2068 152.499 12.2068C153.469 12.2068 154.433 12.494 155.441 13.3164C156.542 14.2156 157.717 15.6963 159.182 18.1366L159.707 19.0124C160.975 21.125 161.697 22.2118 162.119 22.7244C162.662 23.3826 163.042 23.5788 163.536 23.5788C164.79 23.5788 165.102 22.4272 165.102 21.1093L167.05 21.0482C167.05 22.4258 166.779 23.438 166.316 24.2377C165.87 25.0111 165 25.7838 163.536 25.7838C162.627 25.7838 161.82 25.5862 160.929 24.7453C160.244 24.0998 159.443 22.9532 158.826 21.9225L156.993 18.8602C156.073 17.3234 155.23 16.1775 154.741 15.6586C154.216 15.1006 153.541 14.4267 152.463 14.4267C151.591 14.4267 150.85 15.0388 150.23 15.9749L148.35 14.8582Z" fill="url(#paint0_linear_442_7478)"/>
<path d="M152.463 14.4267C151.591 14.4267 150.85 15.0388 150.23 15.9749C149.354 17.2978 148.817 19.2683 148.817 21.1605C148.817 21.941 148.989 22.5403 149.213 22.9028L147.33 24.1425C146.847 23.3385 146.609 22.2836 146.609 21.0816C146.609 18.8958 147.209 16.6175 148.35 14.8582C149.362 13.2979 150.823 12.2068 152.499 12.2068L152.463 14.4267Z" fill="url(#paint1_linear_442_7478)"/>
</g>
<circle cx="219.845" cy="29.6041" r="29.6041" fill="#EFEFEF"/>
<mask id="mask3_442_7478" style="mask-type:alpha" maskUnits="userSpaceOnUse" x="194" y="4" width="52" height="52">
<circle cx="220.004" cy="29.7639" r="25.4288" fill="#D9D9D9" stroke="black" stroke-width="0.10523"/>
</mask>
<g mask="url(#mask3_442_7478)">
<circle cx="220" cy="28.3999" r="29.6" fill="#EFEFEF"/>
<g clip-path="url(#clip2_442_7478)">
<path d="M231.985 23.436C231.803 23.5764 228.582 25.3766 228.582 29.3796C228.582 34.0097 232.68 35.6477 232.803 35.6882C232.784 35.7881 232.152 37.9315 230.642 40.1155C229.296 42.0374 227.89 43.9562 225.752 43.9562C223.613 43.9562 223.063 42.7238 220.594 42.7238C218.188 42.7238 217.333 43.9968 215.376 43.9968C213.42 43.9968 212.055 42.2184 210.486 40.0344C208.668 37.4698 207.199 33.4855 207.199 29.7041C207.199 23.6388 211.175 20.4221 215.087 20.4221C217.166 20.4221 218.899 21.7762 220.204 21.7762C221.446 21.7762 223.383 20.341 225.748 20.341C226.645 20.341 229.865 20.4221 231.985 23.436ZM224.626 17.7732C225.604 16.6219 226.296 15.0245 226.296 13.427C226.296 13.2055 226.277 12.9809 226.236 12.7999C224.645 12.8592 222.751 13.8514 221.61 15.1649C220.713 16.1758 219.877 17.7732 219.877 19.3925C219.877 19.6358 219.918 19.8792 219.937 19.9572C220.037 19.9759 220.201 19.9978 220.364 19.9978C221.792 19.9978 223.588 19.0493 224.626 17.7732Z" fill="#111111"/>
</g>
</g>
<circle cx="283.053" cy="29.6041" r="29.6041" fill="#EFEFEF"/>
<mask id="mask4_442_7478" style="mask-type:alpha" maskUnits="userSpaceOnUse" x="257" y="4" width="52" height="52">
<circle cx="283.212" cy="29.7639" r="25.3735" fill="#D9D9D9" stroke="black" stroke-width="0.215929"/>
</mask>
<g mask="url(#mask4_442_7478)">
<circle cx="283.201" cy="30" r="29.6" fill="#EFEFEF"/>
<g clip-path="url(#clip3_442_7478)">
<path d="M266.539 35.46C265.845 35.5814 265.139 35.6178 264.41 35.7148L262.183 29.2105V35.994C261.49 36.0668 260.857 36.1638 260.2 36.2609V23.8346H262.049L264.58 30.8852V23.8346H266.539V35.46ZM270.371 28.3853C271.125 28.3853 272.281 28.3488 272.975 28.3488V30.2904C272.111 30.2904 271.101 30.2904 270.371 30.3268V33.215C271.515 33.1422 272.658 33.0451 273.814 33.0087V34.8773L268.424 35.3022V23.8346H273.814V25.7762H270.371V28.3853ZM281.053 25.7763H279.033V34.7077C278.376 34.7077 277.719 34.7077 277.087 34.7319V25.7763H275.067V23.8346H281.053L281.053 25.7763ZM284.216 28.2518H286.88V30.1934H284.216V34.5985H282.306V23.8346H287.744V25.7762H284.216V28.2518ZM290.907 32.8995C292.015 32.9237 293.134 33.0088 294.217 33.0694V34.9867C292.477 34.8774 290.737 34.7684 288.961 34.7319V23.8346H290.907V32.8995ZM295.859 35.1202C296.479 35.1567 297.136 35.1931 297.769 35.2658V23.8346H295.859V35.1202ZM306.298 23.8346L303.828 29.7444L306.298 36.2609C305.568 36.1638 304.838 36.0303 304.108 35.909L302.709 32.3171L301.285 35.6178C300.579 35.4964 299.898 35.46 299.193 35.3629L301.699 29.6715L299.436 23.8346H301.528L302.806 27.0989L304.169 23.8346H306.298Z" fill="#D81F26"/>
</g>
</g>
<circle cx="346.261" cy="29.6041" r="29.6041" fill="#EFEFEF"/>
<mask id="mask5_442_7478" style="mask-type:alpha" maskUnits="userSpaceOnUse" x="320" y="4" width="52" height="52">
<circle cx="346.42" cy="29.7639" r="25.3735" fill="#D9D9D9" stroke="black" stroke-width="0.215929"/>
</mask>
<g mask="url(#mask5_442_7478)">
<circle cx="346.399" cy="29.9995" r="29.6" fill="#EFEFEF"/>
<g clip-path="url(#clip4_442_7478)">
<path d="M334.208 34.7676H331.658L330.878 32.8807H326.628L325.917 34.7676H323.409L327.241 25.2368H329.986L334.208 34.7676ZM328.648 27.5142L327.255 31.2174H330.181L328.648 27.5142ZM343.471 25.2368H345.534V34.7676H343.165V28.8144L340.601 31.8048H340.238L337.675 28.8144V34.7676H335.306V25.2368H337.368L340.419 28.7724L343.471 25.2368ZM351.537 25.2368C355.006 25.2368 356.789 27.4026 356.789 30.0159C356.789 32.7549 355.062 34.7676 351.272 34.7676H347.342V25.2368H351.537ZM349.711 33.0208H351.257C353.64 33.0208 354.351 31.3995 354.351 30.0018C354.351 28.3666 353.473 26.9834 351.23 26.9834H349.711V33.0208H349.711Z" fill="#111111"/>
<path d="M366.403 27.4967H361.503L358.516 24.5004H369.391V35.4069L366.403 32.4109V27.4967ZM361.499 32.4144V28.0971L358.424 31.1812V35.4988H362.728L365.804 32.4144H361.499Z" fill="#00A76D"/>
</g>
</g>
<defs>
<linearGradient id="paint0_linear_442_7478" x1="150.945" y1="20.5236" x2="165.02" y2="21.2344" gradientUnits="userSpaceOnUse">
<stop stop-color="#0064E1"/>
<stop offset="0.4" stop-color="#0064E1"/>
<stop offset="0.83" stop-color="#0073EE"/>
<stop offset="1" stop-color="#0082FB"/>
</linearGradient>
<linearGradient id="paint1_linear_442_7478" x1="149.808" y1="22.0874" x2="149.808" y2="16.8983" gradientUnits="userSpaceOnUse">
<stop stop-color="#0082FB"/>
<stop offset="1" stop-color="#0064E0"/>
</linearGradient>
<clipPath id="clip0_442_7478">
<rect width="72.1267" height="72.1267" fill="white" transform="translate(7.60352 -6.13379)"/>
</clipPath>
<clipPath id="clip1_442_7478">
<rect width="41.0591" height="53.1276" fill="white" transform="translate(72.871 14.0361)"/>
</clipPath>
<clipPath id="clip2_442_7478">
<rect width="25.6" height="31.2" fill="white" transform="translate(207.2 12.7999)"/>
</clipPath>
<clipPath id="clip3_442_7478">
<rect width="46.0976" height="12.433" fill="white" transform="translate(260.2 23.8313)"/>
</clipPath>
<clipPath id="clip4_442_7478">
<rect width="46.0019" height="10.9984" fill="white" transform="translate(323.399 24.5004)"/>
</clipPath>
</defs>
</svg>
