<svg width="30" height="19" viewBox="0 0 30 19" fill="none" xmlns="http://www.w3.org/2000/svg">
<path d="M23.5476 12.9098C22.9683 11.7074 20.896 10.0385 18.8938 8.4259C17.7771 7.52714 16.7218 6.67741 16.0491 6.00767C15.8806 5.83869 15.6285 5.7848 15.4059 5.86441C14.9915 6.01381 14.7356 6.12888 14.534 6.21825C14.2265 6.35536 14.1232 6.40191 13.7087 6.44352C13.6185 6.45239 13.5313 6.48104 13.4535 6.5274C13.3757 6.57376 13.3091 6.63669 13.2586 6.71167C12.3891 8.00588 11.4888 7.89568 10.8874 7.69491C10.6955 7.63126 10.6611 7.54918 10.6427 7.47084C10.5135 6.93333 11.1617 5.68195 12.0017 4.84564C14.0002 2.85472 15.0308 2.35636 17.2077 3.3249C19.6772 4.42442 22.1517 5.28523 22.1763 5.29378C22.2526 5.32038 22.3335 5.33172 22.4142 5.32715C22.4949 5.32259 22.5739 5.3022 22.6467 5.26716C22.7195 5.23212 22.7846 5.18312 22.8383 5.12297C22.892 5.06282 22.9333 4.9927 22.9597 4.91664C23.0704 4.59706 22.9019 4.2481 22.5809 4.1367C22.5563 4.12815 20.131 3.28449 17.7107 2.20575C14.8906 0.950692 13.3434 1.77718 11.1333 3.97875C10.2921 4.81626 9.14955 6.51085 9.44472 7.75368C9.57138 8.28264 9.94529 8.67447 10.5012 8.85688C11.8946 9.31483 13.1662 8.87645 14.1133 7.62512C14.5044 7.56514 14.7171 7.47698 15.0369 7.33372C15.1791 7.26974 15.3227 7.20851 15.4673 7.15006C16.1708 7.80758 17.1203 8.57283 18.1201 9.37728C19.928 10.8331 21.9782 12.4837 22.4394 13.4387C22.667 13.9101 22.4222 14.2175 22.2562 14.3583C22.0127 14.5664 21.6794 14.6325 21.4986 14.5064C21.2994 14.3705 21.0399 14.3619 20.8345 14.4844C20.7334 14.5443 20.6517 14.6319 20.5992 14.7368C20.5466 14.8416 20.5254 14.9593 20.5381 15.0758C20.5799 15.4651 20.222 15.688 20.067 15.7651C19.6735 15.9635 19.2627 15.9292 19.1089 15.7872C18.9367 15.628 18.6895 15.5815 18.4707 15.6623C18.2518 15.7443 18.0992 15.9451 18.0771 16.1777C18.0402 16.5793 17.7413 16.965 17.3514 17.1156C17.1633 17.1866 16.8902 17.2295 16.6455 17.0066C16.5705 16.9393 16.4801 16.8912 16.3821 16.8664C16.2842 16.8417 16.1817 16.8411 16.0835 16.8646C15.9852 16.8885 15.8943 16.9362 15.819 17.0035C15.7437 17.0708 15.6863 17.1556 15.6518 17.2503C15.6285 17.3115 15.5755 17.4585 15 17.4585C14.5904 17.4585 13.8537 17.183 13.4934 16.9454C13.0617 16.6626 10.3548 14.6521 8.01685 12.7028C7.68848 12.4273 7.12028 11.8371 6.6185 11.3155C6.17327 10.8526 5.76621 10.4327 5.55711 10.2563C5.29515 10.0359 4.90774 10.069 4.69006 10.3286C4.47116 10.5869 4.5031 10.9739 4.76264 11.1918C4.95329 11.3522 5.32225 11.7403 5.72931 12.1628C6.27785 12.7333 6.84478 13.3235 7.22607 13.6419C9.51609 15.5508 12.2685 17.6115 12.817 17.9703C13.2696 18.2666 14.2449 18.6829 15 18.6829C15.6063 18.6829 16.0725 18.5445 16.3959 18.2739C16.8288 18.4417 17.3208 18.4429 17.7942 18.2592C18.3539 18.0437 18.8138 17.6091 19.0745 17.0826C19.5591 17.1854 20.1138 17.1132 20.618 16.861C21.1112 16.6137 21.4678 16.2353 21.6449 15.7933C22.1344 15.819 22.6386 15.6463 23.0555 15.29C23.7616 14.6889 23.9559 13.7534 23.5476 12.9098Z" fill="#EFEFEF"/>
<path d="M12.5403 2.7655H7.00594C6.6665 2.7655 6.39099 3.03979 6.39099 3.37774C6.39099 3.71568 6.6665 3.98997 7.00594 3.98997H12.5403C12.8798 3.98997 13.1553 3.71568 13.1553 3.37774C13.1553 3.03979 12.8798 2.7655 12.5403 2.7655ZM25.3493 11.6071C25.1587 11.3267 24.7775 11.2496 24.4958 11.4406L22.6978 12.643C22.4162 12.8315 22.3411 13.2123 22.5306 13.4927C22.5871 13.576 22.6633 13.6443 22.7525 13.6914C22.8417 13.7386 22.9412 13.7633 23.0422 13.7633C23.1591 13.7633 23.2783 13.7303 23.3841 13.6593L25.1822 12.4569C25.4637 12.2683 25.5387 11.8875 25.3493 11.6071ZM21.5318 14.5286C21.0916 14.1834 19.1225 12.1765 17.905 10.9129C17.67 10.668 17.2802 10.6595 17.0354 10.8946C16.7894 11.1284 16.7821 11.5165 17.017 11.7602C17.3331 12.0884 20.1211 14.9817 20.7693 15.4911C20.8775 15.5761 21.0114 15.6223 21.1493 15.6221C21.3301 15.6221 21.5109 15.5413 21.6339 15.3882C21.8442 15.1237 21.7987 14.738 21.5318 14.5286ZM19.0746 15.7567C18.3379 15.1702 16.487 13.2123 16.0688 12.7593C15.8375 12.5095 15.4501 12.4948 15.1992 12.7226C14.9496 12.9515 14.9324 13.3397 15.1623 13.5883C15.1845 13.6115 17.3933 15.9857 18.3059 16.713C18.415 16.7993 18.5502 16.8464 18.6896 16.8465C18.8692 16.8465 19.0487 16.7669 19.1704 16.6175C19.3821 16.353 19.339 15.9673 19.0746 15.7567ZM16.6272 16.9897C15.7503 16.2539 13.9559 14.3523 13.6054 13.9789C13.373 13.7315 12.9831 13.718 12.7359 13.9495C12.4875 14.1809 12.4751 14.5678 12.7063 14.8152C13.2106 15.3527 14.9275 17.1649 15.8339 17.9264C15.9446 18.0197 16.0849 18.0709 16.2299 18.0709C16.4045 18.0709 16.5792 17.9962 16.701 17.853C16.9199 17.5934 16.8866 17.2077 16.6272 16.9897Z" fill="#EFEFEF"/>
<path d="M7.42901 1.70882C6.375 0.714564 2.16028 0.39252 0.893545 0.317849C0.718924 0.309297 0.557793 0.366807 0.434826 0.483147C0.373806 0.540393 0.325195 0.609461 0.291982 0.686105C0.258769 0.762749 0.241658 0.845348 0.241699 0.928821V11.9487C0.241699 12.2866 0.517207 12.5609 0.856649 12.5609H4.54623C4.81188 12.5609 5.04802 12.3907 5.1304 12.1385C5.22016 11.8642 7.33925 5.38946 7.61839 2.20592C7.63441 2.01979 7.56552 1.83612 7.42901 1.70882ZM4.09731 11.3365H1.47154V1.58513C3.44795 1.74062 5.58053 2.07856 6.35534 2.45324C6.02944 5.13474 4.55482 9.899 4.09731 11.3365ZM29.1434 1.54105C24.315 1.54105 21.6363 2.77161 21.5244 2.82303C21.3646 2.8977 21.2452 3.03608 21.1961 3.20385C21.1469 3.37162 21.1714 3.55161 21.2637 3.70095C22.0237 4.91928 24.4035 11.6855 24.861 13.336C24.8968 13.4652 24.9742 13.5791 25.0813 13.6602C25.1884 13.7414 25.3192 13.7854 25.4538 13.7853H29.1434C29.4829 13.7853 29.7584 13.511 29.7584 13.1731V2.15323C29.7584 2.07282 29.7426 1.99318 29.7117 1.91887C29.6808 1.84456 29.6355 1.77705 29.5784 1.72019C29.5213 1.66333 29.4535 1.61824 29.3788 1.5875C29.3042 1.55676 29.2242 1.54098 29.1434 1.54105ZM28.5285 12.5609H25.9138C25.3309 10.6704 23.609 5.74083 22.6485 3.70342C23.5869 3.38631 25.6027 2.8414 28.5285 2.77287V12.5609Z" fill="#EFEFEF"/>
</svg>
