<svg width="29" height="21" viewBox="0 0 29 21" fill="none" xmlns="http://www.w3.org/2000/svg">
<mask id="mask0_976_985" style="mask-type:luminance" maskUnits="userSpaceOnUse" x="0" y="0" width="29" height="21">
<path d="M0.5 0.0649414H28.5V20.9351H0.5V0.0649414Z" fill="white"/>
</mask>
<g mask="url(#mask0_976_985)">
<path d="M12.4168 11.1333C12.1382 10.956 12.1002 10.766 12.1002 10.6394C12.1002 10.2848 11.8216 10.0062 11.467 10.0062C11.1124 10.0062 10.8338 10.2848 10.8338 10.6394C10.8338 11.2853 11.163 11.8551 11.7582 12.2097C12.0622 12.3997 12.4548 12.501 12.86 12.5643V13.2355C12.86 13.5901 13.1386 13.8687 13.4932 13.8687C13.8478 13.8687 14.1264 13.5901 14.1264 13.2355V12.5643C15.2155 12.3744 16.1526 11.7158 16.1526 10.6267C16.1526 9.2717 14.7849 8.86645 13.6958 8.53719C12.7334 8.24592 12.1002 8.03063 12.1002 7.61272C12.1002 7.0555 12.9233 6.90354 13.3539 6.90354C13.9998 6.90354 14.6709 7.16948 14.6709 7.61272C14.6709 7.96731 14.9496 8.24592 15.3041 8.24592C15.6587 8.24592 15.9373 7.96731 15.9373 7.61272C15.9373 6.67559 15.2028 5.9664 14.1264 5.72579V5.02927C14.1264 4.67468 13.8478 4.39607 13.4932 4.39607C13.1386 4.39607 12.86 4.67468 12.86 5.02927V5.70046C12.4294 5.76378 12.0368 5.86509 11.7202 6.06772C11.1504 6.42231 10.8338 6.97952 10.8338 7.61272C10.8338 9.00575 12.2141 9.411 13.3286 9.75293C14.2657 10.0315 14.8862 10.2468 14.8862 10.6394C14.8862 11.3739 13.1133 11.5639 12.4168 11.1333ZM4.70442 15.0085L7.26254 15.1731H7.30053C7.62979 15.1731 7.9084 14.9198 7.93373 14.5779C7.93956 14.4946 7.92871 14.4109 7.90181 14.3318C7.87491 14.2527 7.83251 14.1798 7.77709 14.1173C7.72166 14.0548 7.65433 14.004 7.57902 13.9678C7.50371 13.9317 7.42195 13.9109 7.33852 13.9067L4.7804 13.7421C4.45114 13.7294 4.13454 13.9827 4.10921 14.3373C4.08388 14.6919 4.34983 14.9831 4.70442 15.0085ZM20.3444 4.13013L22.9025 4.29476H22.9405C23.2698 4.29476 23.5484 4.04148 23.5737 3.69956C23.5795 3.61622 23.5687 3.53256 23.5418 3.45348C23.5149 3.37439 23.4725 3.30146 23.4171 3.23896C23.3616 3.17646 23.2943 3.12564 23.219 3.08948C23.1437 3.05332 23.0619 3.03254 22.9785 3.02837L20.4204 2.86374C20.0658 2.85107 19.7745 3.10435 19.7492 3.45894C19.7239 3.81353 19.9898 4.1048 20.3444 4.13013Z" fill="#EFEFEF"/>
<path d="M1.95635 17.5159C2.12099 17.5539 2.32361 17.5919 2.52623 17.6425V18.377C2.52623 19.2635 3.12144 20.0107 3.98259 20.2006C5.173 20.4666 7.42718 20.9098 9.09882 20.9351H9.2128C11.7583 20.9351 15.4941 20.0233 15.7221 19.96C15.874 19.922 19.4073 18.8836 21.6995 18.8836C23.0545 18.8836 24.8401 19.2382 26.0938 19.5421C26.6891 19.6814 27.2969 19.5421 27.7782 19.1748C28.2467 18.8076 28.5127 18.2504 28.5127 17.6678V5.15585C28.5127 4.23138 27.8541 3.45888 26.955 3.30691C26.8157 3.28159 26.6511 3.25626 26.4864 3.23093V2.47109C26.4864 1.54662 25.8279 0.774122 24.9288 0.622155C23.7004 0.419532 21.3702 0.0649414 19.6732 0.0649414C17.1658 0.0649414 13.4046 0.799451 13.3666 0.812114C13.2146 0.837442 9.50407 1.62261 7.08526 1.55929C5.7682 1.55929 4.00792 1.29334 2.76685 1.09072C2.49052 1.04327 2.2072 1.05631 1.9364 1.12895C1.6656 1.20158 1.41378 1.33208 1.1983 1.51145C0.982817 1.69082 0.808798 1.91479 0.688242 2.16792C0.567687 2.42104 0.503464 2.6973 0.5 2.97765V15.6796C0.5 16.5661 1.09521 17.3132 1.95635 17.5032V17.5159ZM26.7397 4.56064C27.031 4.6113 27.2336 4.86458 27.2336 5.16851V17.6678C27.2336 17.9464 27.069 18.1111 26.9803 18.1871C26.803 18.3264 26.5877 18.377 26.3725 18.3264C25.0554 18.0098 23.1685 17.6298 21.6868 17.6298C19.2553 17.6298 15.7474 18.643 15.3295 18.7569C15.1775 18.7949 11.5176 19.7067 9.09882 19.6687C7.54116 19.6561 5.38829 19.2255 4.24853 18.9722C4.11638 18.9393 3.99932 18.8625 3.91651 18.7543C3.83369 18.6462 3.79002 18.5132 3.79263 18.377V17.8831C4.8564 18.0731 6.07214 18.2377 7.07259 18.2504H7.18657C9.6687 18.2504 13.2146 17.4019 13.6958 17.2753C13.8478 17.2373 17.381 16.1988 19.6732 16.1988C21.0283 16.1988 22.8012 16.5534 24.0676 16.8573C24.6628 16.9966 25.2707 16.8573 25.7519 16.4901C26.2205 16.1228 26.4864 15.5656 26.4864 14.9831V4.50999L26.7524 4.54798L26.7397 4.56064ZM1.7664 2.97765C1.7664 2.71171 1.91836 2.55974 1.99435 2.48376C2.12099 2.38244 2.27295 2.31912 2.43758 2.31912H2.55156C3.83062 2.53441 5.66689 2.78769 7.07259 2.81302C9.63071 2.83835 13.4426 2.07851 13.6072 2.04052C13.6452 2.04052 17.3304 1.31867 19.6606 1.31867C21.2689 1.31867 23.5104 1.6606 24.7135 1.85056C25.0048 1.90121 25.2074 2.15449 25.2074 2.45843V14.9577C25.2074 15.2364 25.0427 15.401 24.9541 15.477C24.7768 15.6163 24.5615 15.6669 24.3462 15.6163C23.0165 15.2997 21.1296 14.9198 19.6606 14.9198C17.2291 14.9198 13.7212 15.9329 13.3033 16.0468C13.1513 16.0848 9.54206 16.9587 7.1739 16.9587H7.07259C5.51493 16.946 3.36205 16.5154 2.2223 16.2621C2.08758 16.2321 1.96736 16.1565 1.88198 16.048C1.7966 15.9396 1.7513 15.8049 1.75373 15.6669V2.97765H1.7664Z" fill="#EFEFEF"/>
</g>
</svg>
