<svg width="28" height="27" viewBox="0 0 28 27" fill="none" xmlns="http://www.w3.org/2000/svg">
<g clip-path="url(#clip0_216_409)">
<path d="M4.66666 7.875C4.66666 7.57663 4.78957 7.29048 5.00837 7.07951C5.22716 6.86853 5.5239 6.75 5.83332 6.75H8.16666C8.47608 6.75 8.77282 6.86853 8.99161 7.07951C9.21041 7.29048 9.33332 7.57663 9.33332 7.875V11.25C9.33332 11.5484 9.21041 11.8345 8.99161 12.0455C8.77282 12.2565 8.47608 12.375 8.16666 12.375H5.83332C5.5239 12.375 5.22716 12.2565 5.00837 12.0455C4.78957 11.8345 4.66666 11.5484 4.66666 11.25V7.875Z" stroke="#EFEFEF" stroke-width="1.6" stroke-linecap="round" stroke-linejoin="round"/>
<path d="M7 4.5V6.75" stroke="#EFEFEF" stroke-width="1.6" stroke-linecap="round" stroke-linejoin="round"/>
<path d="M7 12.375V22.5" stroke="#EFEFEF" stroke-width="1.6" stroke-linecap="round" stroke-linejoin="round"/>
<path d="M11.6667 16.875C11.6667 16.5766 11.7896 16.2905 12.0084 16.0795C12.2272 15.8685 12.5239 15.75 12.8333 15.75H15.1667C15.4761 15.75 15.7728 15.8685 15.9916 16.0795C16.2104 16.2905 16.3333 16.5766 16.3333 16.875V20.25C16.3333 20.5484 16.2104 20.8345 15.9916 21.0455C15.7728 21.2565 15.4761 21.375 15.1667 21.375H12.8333C12.5239 21.375 12.2272 21.2565 12.0084 21.0455C11.7896 20.8345 11.6667 20.5484 11.6667 20.25V16.875Z" stroke="#EFEFEF" stroke-width="1.6" stroke-linecap="round" stroke-linejoin="round"/>
<path d="M14 4.5V15.75" stroke="#EFEFEF" stroke-width="1.6" stroke-linecap="round" stroke-linejoin="round"/>
<path d="M14 21.375V22.5" stroke="#EFEFEF" stroke-width="1.6" stroke-linecap="round" stroke-linejoin="round"/>
<path d="M18.6667 6.75C18.6667 6.45163 18.7896 6.16548 19.0084 5.95451C19.2272 5.74353 19.5239 5.625 19.8333 5.625H22.1667C22.4761 5.625 22.7728 5.74353 22.9916 5.95451C23.2104 6.16548 23.3333 6.45163 23.3333 6.75V11.25C23.3333 11.5484 23.2104 11.8345 22.9916 12.0455C22.7728 12.2565 22.4761 12.375 22.1667 12.375H19.8333C19.5239 12.375 19.2272 12.2565 19.0084 12.0455C18.7896 11.8345 18.6667 11.5484 18.6667 11.25V6.75Z" stroke="#EFEFEF" stroke-width="1.6" stroke-linecap="round" stroke-linejoin="round"/>
<path d="M21 4.5V5.625" stroke="#EFEFEF" stroke-width="1.6" stroke-linecap="round" stroke-linejoin="round"/>
<path d="M21 12.375V22.5" stroke="#EFEFEF" stroke-width="1.6" stroke-linecap="round" stroke-linejoin="round"/>
</g>
<defs>
<clipPath id="clip0_216_409">
<rect width="28" height="27" fill="white"/>
</clipPath>
</defs>
</svg>
