<svg width="100" height="100" viewBox="0 0 100 100" fill="none" xmlns="http://www.w3.org/2000/svg">
<path d="M49.9992 46.7965C54.2563 46.7965 58.4178 45.5341 61.9575 43.169C65.4972 40.8038 68.256 37.4421 69.8851 33.5091C71.5142 29.576 71.9404 25.2481 71.1098 21.0728C70.2792 16.8975 68.2291 13.0623 65.2189 10.0521C62.2086 7.04189 58.3732 4.99197 54.1979 4.16154C50.0226 3.33111 45.6947 3.75748 41.7617 5.38671C37.8287 7.01595 34.4671 9.77489 32.1021 13.3146C29.7371 16.8544 28.4748 21.0159 28.475 25.2731C28.4816 30.9795 30.7515 36.4504 34.7866 40.4854C38.8218 44.5204 44.2927 46.7901 49.9992 46.7965ZM49.9992 7.65587C53.4837 7.65556 56.89 8.68851 59.7874 10.6241C62.6848 12.5597 64.9432 15.311 66.277 18.5301C67.6108 21.7492 67.96 25.2915 67.2806 28.7091C66.6012 32.1267 64.9236 35.2661 62.4599 37.7302C59.9963 40.1944 56.8573 41.8727 53.4399 42.5529C50.0224 43.2331 46.48 42.8846 43.2607 41.5515C40.0413 40.2185 37.2895 37.9607 35.3532 35.0637C33.417 32.1667 32.3833 28.7607 32.3828 25.2762C32.3874 20.6051 34.2447 16.1265 37.5473 12.8231C40.8499 9.51979 45.3281 7.66145 49.9992 7.65587ZM94.9851 86.1754L94.3781 84.5481C94.1972 84.0626 93.8309 83.6689 93.3597 83.4535C92.8885 83.2381 92.3511 83.2187 91.8656 83.3996C91.3801 83.5805 90.9864 83.9468 90.771 84.418C90.5557 84.8892 90.5363 85.4266 90.7172 85.9121L91.3258 87.5418C92.5976 90.9488 92.3086 91.6301 92.2383 91.7316C92.168 91.8332 91.6297 92.3434 87.9914 92.3434H11.9914C8.36562 92.3434 7.82968 91.8363 7.75937 91.7348C7.68906 91.6332 7.40077 90.9535 8.67265 87.5504L9.00077 86.6715C14.2133 72.709 16.8297 65.7027 21.3984 62.3434C25.9117 59.0231 32.9766 58.8731 47.2578 58.8691C47.7758 58.8691 48.2726 58.6634 48.6389 58.2971C49.0052 57.9308 49.2109 57.434 49.2109 56.916C49.2109 56.398 49.0052 55.9012 48.6389 55.535C48.2726 55.1687 47.7758 54.9629 47.2578 54.9629C17.5273 54.9715 16.3516 55.8223 5.34374 85.3074L5.01562 86.1856C3.78437 89.4801 3.23359 92.0637 4.55234 93.9637C5.87109 95.8637 8.47968 96.252 11.9937 96.252H87.9937C91.5148 96.252 94.1297 95.8613 95.4492 93.9621C96.7687 92.0629 96.2164 89.4731 94.9851 86.1754Z" fill="#7D75EC"/>
<path d="M54.6003 56.557C53.1573 60.4961 51.6315 71.1453 68.5573 84.9398C71.2878 87.1633 72.9323 88.5055 74.9792 88.5055C77.0261 88.5055 78.6714 87.1633 81.4019 84.9398C98.3308 71.1453 96.8018 60.4961 95.3589 56.557C94.4599 54.079 92.8242 51.9354 90.6714 50.4142C88.5186 48.8929 85.9519 48.0668 83.3159 48.0469C81.6817 48.0594 80.0738 48.4597 78.6245 49.2149C77.1752 49.97 75.9258 51.0584 74.9792 52.3906C74.0323 51.0581 72.7826 49.9695 71.3329 49.2143C69.8831 48.4592 68.2747 48.059 66.6401 48.0469C64.0039 48.064 61.4362 48.889 59.2834 50.4107C57.1306 51.9324 55.4961 54.0776 54.6003 56.557ZM73.1214 57.3016C73.2487 57.694 73.4971 58.0361 73.8308 58.2787C74.1646 58.5213 74.5666 58.652 74.9792 58.652C75.3918 58.652 75.7938 58.5213 76.1276 58.2787C76.4613 58.0361 76.7097 57.694 76.837 57.3016C77.9206 53.9609 80.3089 52.0125 83.3886 51.9547C85.2149 51.9757 86.9908 52.5574 88.4757 53.6209C89.9606 54.6844 91.083 56.1784 91.6909 57.9008C92.8456 61.0531 93.9151 69.7047 78.9347 81.9109C77.1636 83.3531 75.6339 84.5992 74.9792 84.5992C74.3245 84.5992 72.7917 83.3492 71.0245 81.9109C56.0433 69.7047 57.1128 61.0516 58.2675 57.9008C58.8695 56.2028 59.9706 54.7264 61.4264 53.665C62.8821 52.6037 64.6245 52.007 66.4253 51.9531H66.5698C69.6503 52.0125 72.0378 53.9609 73.1245 57.3016H73.1214Z" fill="#7D75EC"/>
<path d="M67.1404 68.2922L72.3553 73.5071C72.7215 73.8732 73.2182 74.0789 73.7361 74.0789C74.254 74.0789 74.7507 73.8732 75.117 73.5071L82.817 65.8071C83.1728 65.4387 83.3696 64.9453 83.3652 64.4332C83.3607 63.9211 83.1553 63.4313 82.7932 63.0691C82.4311 62.707 81.9412 62.5016 81.4291 62.4971C80.917 62.4927 80.4236 62.6896 80.0553 63.0453L73.7365 69.3641L69.9029 65.5305C69.7219 65.3478 69.5065 65.2027 69.2692 65.1034C69.0319 65.0042 68.7774 64.9528 68.5202 64.9522C68.263 64.9516 68.0082 65.0018 67.7704 65.0999C67.5327 65.1981 67.3166 65.3422 67.1348 65.524C66.9529 65.7059 66.8087 65.9219 66.7105 66.1596C66.6123 66.3973 66.562 66.6521 66.5625 66.9093C66.563 67.1665 66.6144 67.4211 66.7135 67.6584C66.8127 67.8957 66.9578 68.1111 67.1404 68.2922Z" fill="#7D75EC"/>
</svg>
