<svg width="109" height="109" viewBox="0 0 109 109" fill="none" xmlns="http://www.w3.org/2000/svg">
<path d="M96.1672 50.5096C92.4582 48.6553 85.5042 48.6338 85.21 48.6338C84.7865 48.6338 84.3804 48.802 84.0809 49.1014C83.7815 49.4009 83.6133 49.807 83.6133 50.2305C83.6133 50.6539 83.7815 51.0601 84.0809 51.3595C84.3804 51.6589 84.7865 51.8271 85.21 51.8271C87.0044 51.8274 92.2145 52.1037 94.7392 53.3659C95.1166 53.5445 95.549 53.5681 95.9436 53.4317C96.3383 53.2954 96.6639 53.0099 96.8506 52.6364C97.0373 52.2629 97.0703 51.8312 96.9426 51.4336C96.8149 51.0361 96.5365 50.7044 96.1672 50.5096Z" fill="#111111" fill-opacity="0.3"/>
<path d="M104.127 73.2427L97.5331 71.3586C97.394 71.3184 97.2718 71.2342 97.1846 71.1186C97.0974 71.0031 97.0501 70.8624 97.0496 70.7176V68.5166C97.592 68.1419 98.1026 67.7231 98.5762 67.2645C100.895 65.0147 102.171 61.997 102.171 58.767V55.7297L102.809 54.4547C103.511 53.047 103.877 51.496 103.878 49.9231V41.6949C103.878 41.2714 103.71 40.8653 103.411 40.5659C103.111 40.2664 102.705 40.0982 102.282 40.0982H86.9169C81.3298 40.0982 76.7841 44.6438 76.7841 50.2309V50.3261C76.7857 51.6339 77.0901 52.9236 77.6736 54.0941L78.4913 55.7295V58.3374C78.4913 62.4705 80.528 66.1788 83.613 68.4103L83.6134 70.7172C83.6134 71.0729 83.6134 71.2203 82.295 71.5971L79.0774 72.5163L69.7696 69.1318C69.7868 68.9089 69.7569 68.6849 69.682 68.4743C69.607 68.2637 69.4886 68.0713 69.3344 67.9094L66.3601 64.7846V59.539C66.6769 59.28 66.9853 59.0109 67.2849 58.7323C71.0371 55.2154 73.189 50.2499 73.189 45.1092V40.92C74.322 38.4545 74.8962 35.8455 74.8962 33.1586V16.0869C74.8962 15.6634 74.728 15.2573 74.4285 14.9579C74.1291 14.6585 73.723 14.4902 73.2995 14.4902H49.3985C40.9872 14.4902 34.1442 21.3334 34.1442 29.7445V33.159C34.1442 35.8459 34.7184 38.4549 35.8514 40.9204V44.5248C35.8514 50.4934 38.5053 55.8706 42.6803 59.4157V64.7848L39.706 67.9096C39.5519 68.0715 39.4335 68.264 39.3585 68.4745C39.2835 68.6851 39.2537 68.9091 39.2709 69.132L29.447 72.7041C28.7459 72.9594 28.0821 73.3072 27.4731 73.7383L25.9305 72.967C30.5226 70.9682 31.9772 68.157 32.0471 68.0173C32.1579 67.7956 32.2157 67.5512 32.2157 67.3033C32.2157 67.0554 32.1579 66.8109 32.0471 66.5893C30.896 64.2871 30.7565 60.0673 30.6445 56.6768C30.6073 55.5481 30.5719 54.4817 30.5045 53.5322C29.9601 45.8737 24.138 40.0982 16.9614 40.0982C9.78488 40.0982 3.96253 45.8735 3.41838 53.5322C3.3509 54.4819 3.31556 55.5483 3.2783 56.6773C3.16632 60.0676 3.02667 64.2868 1.87578 66.589C1.7649 66.8107 1.70717 67.0552 1.70717 67.3031C1.70717 67.5509 1.7649 67.7954 1.87578 68.0171C1.94561 68.1568 3.39731 70.9622 7.99851 72.9634L3.71366 75.1057C1.42296 76.2519 0 78.5543 0 81.1152V92.9113C0 93.3347 0.168221 93.7409 0.467657 94.0403C0.767092 94.3397 1.17321 94.5079 1.59668 94.5079C2.02015 94.5079 2.42627 94.3397 2.7257 94.0403C3.02514 93.7409 3.19336 93.3347 3.19336 92.9113V81.1152C3.19336 79.7714 3.93997 78.5633 5.14173 77.9623L10.4774 75.2946L12.3334 77.0584C13.5808 78.2472 15.2383 78.9096 16.9614 78.908C18.6845 78.9094 20.342 78.247 21.5895 77.0584L23.4452 75.2948L25.185 76.1646C24.3658 77.4754 23.9008 79.0125 23.9008 80.6226V92.9117C23.9008 93.3352 24.069 93.7413 24.3685 94.0407C24.6679 94.3401 25.074 94.5084 25.4975 94.5084C25.9209 94.5084 26.3271 94.3401 26.6265 94.0407C26.9259 93.7413 27.0942 93.3352 27.0942 92.9117V80.6226C27.0942 78.4307 28.4782 76.4546 30.5383 75.7054L40.8959 71.9392L45.2075 78.407C45.478 78.8143 45.8359 79.1562 46.2551 79.4079C46.6742 79.6596 47.1442 79.8148 47.6309 79.8621C48.1174 79.9113 48.6088 79.8513 49.0693 79.6867C49.5297 79.5221 49.9477 79.2569 50.2929 78.9105L52.9233 76.28V92.9119C52.9233 93.3354 53.0916 93.7415 53.391 94.0409C53.6904 94.3404 54.0965 94.5086 54.52 94.5086C54.9435 94.5086 55.3496 94.3404 55.649 94.0409C55.9485 93.7415 56.1167 93.3354 56.1167 92.9119V76.28L58.7472 78.9105C59.053 79.2176 59.4166 79.4612 59.8169 79.6273C60.2172 79.7934 60.6464 79.8788 61.0798 79.8785C61.189 79.8785 61.2989 79.8732 61.4089 79.8623C61.8956 79.815 62.3656 79.6599 62.7849 79.4082C63.2041 79.1565 63.562 78.8146 63.8325 78.4072L68.1444 71.9396L78.5017 75.7059C80.5616 76.455 81.9459 78.4311 81.9459 80.623V92.9121C81.9459 93.3356 82.1141 93.7417 82.4135 94.0411C82.713 94.3406 83.1191 94.5088 83.5425 94.5088C83.966 94.5088 84.3721 94.3406 84.6716 94.0411C84.971 93.7417 85.1392 93.3356 85.1392 92.9121V80.623C85.1392 78.403 84.2572 76.3209 82.7776 74.7811L83.1721 74.6685C83.57 74.5548 84.1129 74.3991 84.6579 74.132L88.7345 78.2086V92.9121C88.7345 93.3356 88.9027 93.7417 89.2022 94.0411C89.5016 94.3406 89.9077 94.5088 90.3312 94.5088C90.7547 94.5088 91.1608 94.3406 91.4602 94.0411C91.7597 93.7417 91.9279 93.3356 91.9279 92.9121V78.2086L95.9762 74.1603C96.1914 74.2697 96.4175 74.3621 96.6555 74.43L103.25 76.3141C104.755 76.7441 105.807 78.1379 105.807 79.7035V92.9121C105.807 93.3356 105.975 93.7417 106.274 94.0411C106.574 94.3406 106.98 94.5088 107.403 94.5088C107.827 94.5088 108.233 94.3406 108.532 94.0411C108.832 93.7417 109 93.3356 109 92.9121V79.7035C109 76.7192 106.996 74.0626 104.127 73.2427ZM10.2432 70.4226C7.25659 69.3479 5.75848 67.9151 5.11896 67.1328C5.55496 65.9929 5.83767 64.6875 6.02906 63.3095C6.90958 65.4207 8.38427 67.223 10.2432 68.5089V70.4226ZM19.3901 74.7438C18.0282 76.0378 15.8948 76.0376 14.5334 74.7436L13.0485 73.3326C13.3043 72.8527 13.4377 72.3171 13.4368 71.7734V70.0715C14.5779 70.4276 15.7665 70.6083 16.9618 70.6073C18.1875 70.6073 19.3709 70.4187 20.4867 70.0726L20.4865 71.7731C20.4865 72.3309 20.624 72.8633 20.8748 73.333L19.3901 74.7438ZM16.9623 67.414C12.1944 67.414 8.31572 63.5351 8.31572 58.7674C8.31572 58.344 8.1475 57.9379 7.84806 57.6384C7.54863 57.339 7.14251 57.1708 6.71904 57.1708C6.62963 57.1708 6.54234 57.1799 6.45697 57.1942L6.47081 56.7833C6.50636 55.6854 6.54064 54.6484 6.60387 53.759C6.80782 50.8901 7.95423 48.2464 9.83193 46.3146C11.7264 44.3654 14.2586 43.292 16.9618 43.292C19.6651 43.292 22.197 44.3654 24.0918 46.3146C25.9695 48.2464 27.1159 50.8901 27.3198 53.759C27.3828 54.6482 27.4173 55.685 27.4535 56.7827L27.4631 57.0675C25.7259 54.391 23.0431 52.4186 19.5766 51.3048C16.3741 50.2759 13.6197 50.3395 13.5034 50.3425C13.0854 50.3541 12.6886 50.5292 12.3983 50.8302L9.51749 53.8179C9.37194 53.9689 9.25755 54.147 9.18085 54.3422C9.10415 54.5373 9.06663 54.7457 9.07045 54.9553C9.07426 55.165 9.11933 55.3718 9.20309 55.564C9.28684 55.7563 9.40763 55.9301 9.55858 56.0757C9.70952 56.2212 9.88765 56.3356 10.0828 56.4123C10.2779 56.489 10.4863 56.5265 10.6959 56.5227C10.9056 56.5189 11.1124 56.4738 11.3047 56.39C11.4969 56.3063 11.6707 56.1855 11.8163 56.0346L14.2134 53.5486C16.2778 53.6496 22.9194 54.4219 25.5024 60.1097C24.8524 64.3011 21.2499 67.414 16.9623 67.414ZM23.6796 70.4279L23.6798 68.5236C25.5578 67.2317 27.0218 65.424 27.8953 63.3186C28.0867 64.6935 28.3692 65.9959 28.8043 67.1332C28.1684 67.9081 26.6633 69.3536 23.6796 70.4279ZM39.0448 44.5246V40.5632C39.0448 40.3227 38.9905 40.0854 38.886 39.8689C37.8586 37.7413 37.3376 35.4838 37.3376 33.159V29.7447C37.3376 23.0942 42.7482 17.6838 49.3985 17.6838H71.7028V33.1593C71.7028 35.484 71.1819 37.7415 70.1545 39.8691C70.05 40.0856 69.9957 40.323 69.9957 40.5634V45.1097C69.9957 49.4337 68.2574 53.4443 65.1011 56.4029C64.7103 56.7693 64.3011 57.1156 63.8753 57.4407C63.8659 57.4471 63.857 57.4541 63.8478 57.4607C60.891 59.7056 57.2693 60.7967 53.4871 60.5517C45.3885 60.0273 39.0448 52.9875 39.0448 44.5246ZM48.0349 76.6522C48.0239 76.6632 47.9981 76.6894 47.9459 76.6839C47.9295 76.683 47.9135 76.678 47.8994 76.6695C47.8852 76.661 47.8734 76.6492 47.8648 76.6351L42.8992 69.1865L44.4971 67.5075L52.0303 72.6566L48.0349 76.6522ZM54.5202 70.4905L45.8737 64.5802V61.5997C48.1109 62.8092 50.616 63.5656 53.2803 63.738C53.7012 63.7653 54.1196 63.7787 54.5366 63.7787C57.5897 63.7787 60.528 63.0489 63.1668 61.6636V64.5802L54.5202 70.4905ZM61.1756 76.6356C61.1671 76.6497 61.1552 76.6615 61.1411 76.67C61.1269 76.6785 61.111 76.6834 61.0945 76.6843C61.0423 76.6909 61.0168 76.6635 61.0055 76.6526L57.0102 72.6573L64.5433 67.5079L66.1415 69.1869L61.1756 76.6356ZM90.3312 75.2884L86.7078 71.6652C86.771 71.378 86.8068 71.0636 86.8066 70.7168L86.8064 70.043C87.9451 70.4188 89.1367 70.6093 90.3359 70.6071C91.5294 70.6078 92.7163 70.4283 93.8562 70.0747V70.7176C93.8562 71.0361 93.8963 71.3482 93.9716 71.6482L90.3312 75.2884ZM96.3524 64.973C94.6601 66.6152 92.4245 67.4825 90.0642 67.4097C85.4436 67.2711 81.6846 63.2013 81.6846 58.3378V55.3529C81.6847 55.105 81.627 54.8605 81.516 54.6388L80.5297 52.6662C80.1674 51.9393 79.9784 51.1385 79.9775 50.3263V50.2312C79.9775 46.4047 83.0906 43.2918 86.9169 43.2918H100.685V49.9233C100.684 51.0005 100.433 52.0628 99.9526 53.0268L99.1466 54.6388C99.0357 54.8605 98.978 55.105 98.978 55.3529V58.7672C98.978 61.126 98.0455 63.3299 96.3524 64.973Z" fill="#111111" fill-opacity="0.3"/>
<path d="M100.574 81.0716C100.15 81.0716 99.7441 81.2398 99.4446 81.5392C99.1452 81.8387 98.977 82.2448 98.977 82.6682V92.9115C98.977 93.3349 99.1452 93.7411 99.4446 94.0405C99.7441 94.3399 100.15 94.5082 100.574 94.5082C100.997 94.5082 101.403 94.3399 101.703 94.0405C102.002 93.7411 102.17 93.3349 102.17 92.9115V82.6682C102.17 82.2448 102.002 81.8387 101.703 81.5392C101.403 81.2398 100.997 81.0716 100.574 81.0716ZM8.4248 83.1822C8.00134 83.1822 7.59522 83.3504 7.29578 83.6498C6.99635 83.9493 6.82812 84.3554 6.82812 84.7788V92.9115C6.82812 93.3349 6.99635 93.7411 7.29578 94.0405C7.59522 94.3399 8.00134 94.5082 8.4248 94.5082C8.84827 94.5082 9.25439 94.3399 9.55383 94.0405C9.85326 93.7411 10.0215 93.3349 10.0215 92.9115V84.7788C10.0215 84.3554 9.85326 83.9493 9.55383 83.6498C9.25439 83.3504 8.84827 83.1822 8.4248 83.1822ZM67.5988 33.7377C61.56 27.6988 48.9251 28.8533 43.7727 29.63C42.1499 29.8746 40.9722 31.2479 40.9722 32.8955V36.5738C40.9722 36.9973 41.1404 37.4034 41.4398 37.7028C41.7393 38.0023 42.1454 38.1705 42.5688 38.1705C42.9923 38.1705 43.3984 38.0023 43.6979 37.7028C43.9973 37.4034 44.1655 36.9973 44.1655 36.5738V32.8953C44.1655 32.841 44.2013 32.7946 44.249 32.7873C46.307 32.4772 50.3909 31.9986 54.6221 32.2807C59.6012 32.6121 63.2075 33.862 65.3409 35.9956C65.6403 36.295 66.0464 36.4632 66.4699 36.4632C66.8933 36.4632 67.2994 36.295 67.5988 35.9956C67.8982 35.6962 68.0664 35.2901 68.0664 34.8666C68.0664 34.4432 67.8982 34.0371 67.5988 33.7377ZM35.7402 84.4861C35.3167 84.4861 34.9106 84.6543 34.6111 84.9538C34.3117 85.2532 34.1435 85.6593 34.1435 86.0828V92.9117C34.1435 93.3352 34.3117 93.7413 34.6111 94.0407C34.9106 94.3402 35.3167 94.5084 35.7402 94.5084C36.1636 94.5084 36.5697 94.3402 36.8692 94.0407C37.1686 93.7413 37.3368 93.3352 37.3368 92.9117V86.0828C37.3368 85.6593 37.1686 85.2532 36.8692 84.9538C36.5697 84.6543 36.1636 84.4861 35.7402 84.4861ZM73.2988 84.4861C72.8753 84.4861 72.4692 84.6543 72.1697 84.9538C71.8703 85.2532 71.7021 85.6593 71.7021 86.0828V92.9117C71.7021 93.3352 71.8703 93.7413 72.1697 94.0407C72.4692 94.3402 72.8753 94.5084 73.2988 94.5084C73.7222 94.5084 74.1283 94.3402 74.4278 94.0407C74.7272 93.7413 74.8954 93.3352 74.8954 92.9117V86.0828C74.8954 85.6593 74.7272 85.2532 74.4278 84.9538C74.1283 84.6543 73.7222 84.4861 73.2988 84.4861Z" fill="#111111" fill-opacity="0.3"/>
</svg>
