<svg width="109" height="109" viewBox="0 0 109 109" fill="none" xmlns="http://www.w3.org/2000/svg">
<path d="M14.5126 54.7652C14.0664 55.7347 12.9138 56.1369 11.9554 55.6543L2.75788 50.9964C1.92335 50.573 0.904451 50.9079 0.481863 51.7424C0.0592751 52.5769 0.393301 53.5958 1.22783 54.0184L10.427 58.6771C11.3787 59.1604 12.4548 59.3429 13.5126 59.2006C14.5705 59.0582 15.56 58.5977 16.3501 57.88C17.4399 59.1299 18.337 60.644 18.9752 62.3608C19.6014 63.9977 20.5193 65.5056 21.6985 66.8685L21.2719 67.3801C19.278 69.7719 19.5409 73.2629 21.8708 75.3279C23.2873 76.5838 25.3068 77.1575 27.4262 76.4767C27.718 77.5405 28.3133 78.4964 29.1395 79.2274C30.2631 80.2229 31.7248 80.7845 33.5072 80.6057C33.55 82.4989 34.3445 84.0613 35.5897 85.1831C37.0933 86.5366 39.1603 87.1719 41.3826 86.606C41.5851 87.8663 42.181 89.0709 43.2084 89.9822C45.564 92.0692 49.1874 91.8631 51.2878 89.4969L52.9575 87.6151C53.4167 87.6798 53.8755 87.7205 54.3313 87.7205C56.9826 87.7205 59.5239 86.636 61.379 84.6879C62.4164 85.0041 63.4947 85.1657 64.5792 85.1673C67.8464 85.1673 71.0268 83.7096 73.1853 81.0894C73.696 81.1965 74.2084 81.2595 74.7173 81.2595C77.5862 81.2595 80.308 79.6045 81.5676 76.8241L82.4333 74.9111C82.4384 74.9111 82.4433 74.9119 82.4484 74.9119C84.8551 74.9119 87.2318 73.6071 88.4378 71.2249C90.2127 67.6717 88.1251 61.5737 92.114 58.8608C93.5508 60.7615 96.1415 61.3868 98.2764 60.3079L107.761 55.5996C108.163 55.3997 108.47 55.0483 108.613 54.6225C108.756 54.1968 108.724 53.7316 108.524 53.3293C108.109 52.4939 107.095 52.1475 106.254 52.5659L96.7595 57.2793C95.9795 57.671 95.0417 57.3421 94.6506 56.5597C82.2544 31.8378 82.8071 33.0553 82.7081 32.6913C82.5418 31.9857 82.8818 31.263 83.5426 30.9281L100.226 22.3739C100.424 22.2725 100.6 22.1331 100.744 21.9637C100.888 21.7942 100.997 21.5981 101.065 21.3864C101.134 21.1747 101.159 20.9517 101.141 20.73C101.123 20.5083 101.062 20.2924 100.96 20.0945C100.533 19.2617 99.5122 18.9292 98.6809 19.36L82.006 27.9091C80.5228 28.6595 79.5656 30.0629 79.3444 31.6428C76.5045 31.9008 74.5105 30.7046 72.2486 29.3457C68.9124 27.3426 65.1336 25.0749 58.7224 27.9248C58.502 28.0232 58.2972 28.1062 58.0794 28.202C55.1113 26.6141 52.1651 25.4885 49.0931 24.816C43.8008 23.6958 40.3252 25.9833 35.9273 28.5625C33.9119 29.7757 31.4208 30.1583 29.1248 29.6729C29.0924 28.6778 28.7764 27.7126 28.2139 26.8911C27.6514 26.0696 26.8658 25.4259 25.9498 25.0359L8.8936 17.7187C8.03522 17.3523 7.03932 17.7476 6.66974 18.6077C6.58202 18.8121 6.53542 19.0317 6.53263 19.2541C6.52983 19.4765 6.57089 19.6973 6.65345 19.9038C6.73601 20.1104 6.85846 20.2986 7.0138 20.4578C7.16914 20.6169 7.35433 20.744 7.55877 20.8315L24.6132 28.1492C25.4999 28.5297 25.9523 29.4973 25.6734 30.3788C25.5463 30.7605 26.4153 28.8262 14.5126 54.7652ZM24.1178 72.793C23.6612 72.3916 23.3799 71.8273 23.3343 71.221C23.2887 70.6147 23.4824 70.0146 23.8739 69.5494L25.8861 67.1361C26.7315 66.1208 28.2473 66.0133 29.2298 66.8847C29.6865 67.2861 29.9678 67.8504 30.0134 68.4567C30.059 69.063 29.8653 69.6631 29.4737 70.1283L27.4606 72.5416C26.6457 73.5188 25.1425 73.7023 24.1178 72.793ZM31.3859 76.6917C30.4213 75.838 30.3291 74.3608 31.1884 73.3919L35.1128 68.9689C35.9658 68.009 37.4446 67.9138 38.4111 68.7705C38.6411 68.9741 38.8287 69.2211 38.9631 69.4973C39.0976 69.7735 39.1763 70.0735 39.1947 70.3801C39.2132 70.6867 39.171 70.994 39.0705 71.2843C38.9701 71.5746 38.8135 71.8423 38.6095 72.072L34.6851 76.4941C33.829 77.4577 32.3512 77.5469 31.3859 76.6917ZM37.8567 82.6654C36.6415 81.5709 36.5389 79.6879 37.6598 78.4706L44.9981 70.4987C46.0845 69.3176 47.9477 69.2195 49.154 70.3109C49.2319 70.4804 51.5373 72.4905 49.455 74.672C49.2924 74.8425 41.8107 82.6805 41.9687 82.5106C41.4396 83.0689 40.7129 83.3978 39.9443 83.4267C39.1757 83.4556 38.4263 83.1823 37.8567 82.6654ZM45.4556 87.4474C45.2257 87.2437 45.0381 86.9967 44.9036 86.7206C44.7691 86.4444 44.6904 86.1444 44.672 85.8377C44.6536 85.5311 44.6958 85.2238 44.7962 84.9335C44.8966 84.6432 45.0533 84.3756 45.2572 84.1459L49.7394 79.2785C50.6791 78.7201 51.7589 78.8862 52.4806 79.5261C53.4452 80.3798 53.5374 81.8571 52.6782 82.8259L48.7537 87.2489C47.8979 88.2133 46.4183 88.3002 45.4556 87.4474ZM56.6054 81.9703C56.7186 82.1185 56.8436 82.2607 57.0084 82.3686L58.0992 83.0842C57.4363 83.574 56.6858 83.9149 55.8958 84.1173C56.2746 83.4568 56.516 82.7265 56.6054 81.9703ZM70.5041 32.2506C73.0399 33.7751 75.8933 35.4595 80.015 34.963L90.5088 55.8616C88.4964 57.0698 87.1301 59.2679 86.413 62.4263C86.1141 62.1958 85.8014 61.9803 85.4629 61.7966L65.7173 51.1333L60.3118 45.7766C57.8959 42.5106 53.8112 41.0376 49.8514 42.0061L46.2372 42.9183C44.622 43.3202 42.9529 43.0482 41.547 42.1583C40.1493 41.275 39.1973 39.8972 38.865 38.2737C38.7311 37.4085 38.5537 37.3868 38.875 37.192C44.7825 36.809 51.5279 34.8474 60.1019 31.019C64.896 28.8829 67.3723 30.369 70.5041 32.2506ZM37.679 31.4624C41.2711 29.2688 44.3452 27.276 48.3793 28.1286C50.251 28.5378 52.0776 29.153 53.901 29.942C47.9556 32.2727 43.0206 33.5288 38.6674 33.8104C36.4646 33.9388 34.9314 36.0062 35.38 38.1491L35.5479 38.9579C36.0657 41.4879 37.5536 43.6415 39.737 45.0219C41.927 46.4063 44.5215 46.8266 47.0564 46.2062L50.6706 45.294C53.3156 44.6397 56.0555 45.6537 57.6475 47.8718C57.7765 48.0511 63.2727 53.5275 63.714 53.8485C64.1764 54.19 75.1239 60.0456 83.8507 64.7758C85.587 65.7191 86.3192 67.8855 85.4122 69.7025C84.5705 71.3639 82.5257 72.0122 80.8983 71.1225L70.0111 65.1513C69.816 65.0443 69.6018 64.9767 69.3806 64.9525C69.1594 64.9282 68.9357 64.9478 68.7221 65.0101C68.5085 65.0724 68.3092 65.1762 68.1357 65.3155C67.9623 65.4549 67.8179 65.627 67.711 65.8221C67.495 66.2161 67.4443 66.6798 67.5701 67.1111C67.6959 67.5425 67.9879 67.9062 68.3818 68.1222L79.1224 74.0129L78.4824 75.4276C77.5627 77.4579 75.2331 78.3974 73.2059 77.5846C73.2052 77.5843 73.2045 77.5839 73.2038 77.5835C73.201 77.5822 73.1985 77.5807 73.1957 77.5797C73.0203 77.5043 72.8442 77.4328 72.6575 77.3257L61.9019 71.2792C61.0831 70.8185 60.0542 71.1097 59.5952 71.9251C59.1362 72.7405 59.4257 73.7736 60.2411 74.2317L69.9015 79.6628C67.6906 81.7442 64.3938 82.3916 61.5189 81.1418C60.5915 80.7447 59.8219 80.141 58.8665 79.5372C58.085 79.0228 57.0354 79.2428 56.5219 80.0243C56.5143 80.036 56.5143 80.0496 56.507 80.0615C56.2522 78.88 55.6495 77.8077 54.7272 76.9908C54.1568 76.4844 53.4904 76.0977 52.7676 75.8538C53.3822 74.8195 53.7011 73.6357 53.6562 72.4007C53.5493 69.5066 51.5554 67.97 51.424 67.7956C48.8527 65.4709 44.8523 65.6544 42.506 68.205L42.2042 68.5331C41.8814 67.663 41.3733 66.8696 40.6586 66.2358C38.4207 64.2517 35.0636 64.369 32.9347 66.3938C32.6107 65.6382 32.1361 64.9335 31.4768 64.3492C29.3992 62.5098 26.208 62.368 23.9675 64.2959C23.1901 63.3309 22.5795 62.2982 22.146 61.1652C21.2372 58.7216 19.8626 56.6008 18.1748 54.9077L28.2503 32.9518C31.606 33.7202 34.9546 33.1009 37.679 31.4624Z" fill="#7D75EC"/>
</svg>
