<svg width="109" height="109" viewBox="0 0 109 109" fill="none" xmlns="http://www.w3.org/2000/svg">
<g clip-path="url(#clip0_406_1978)">
<path d="M67.1837 82.8079H41.8156C38.9902 82.8079 36.6917 85.1064 36.6917 87.9318V92.6432C36.6917 95.2413 38.636 97.3927 41.1458 97.722C41.0077 98.1904 40.9376 98.6763 40.9376 99.1646V103.876C40.9376 106.701 43.2361 109 46.0615 109H62.9379C65.7632 109 68.0618 106.701 68.0618 103.876V99.1646C68.0618 98.6636 67.9882 98.1799 67.8536 97.722C70.3634 97.3927 72.3077 95.2415 72.3077 92.6432V87.9318C72.3077 85.1064 70.0091 82.8079 67.1837 82.8079ZM64.3353 103.876C64.3353 104.647 63.7085 105.274 62.9379 105.274H46.0615C45.2908 105.274 44.664 104.647 44.664 103.876V99.1646C44.664 98.3939 45.2908 97.7672 46.0615 97.7672H62.9379C63.7085 97.7672 64.3353 98.3939 64.3353 99.1646V103.876ZM68.5812 92.6432C68.5812 93.4139 67.9544 94.0407 67.1837 94.0407H41.8156C41.0449 94.0407 40.4182 93.4139 40.4182 92.6432V87.9318C40.4182 87.1611 41.0449 86.5344 41.8156 86.5344H67.1837C67.9544 86.5344 68.5812 87.1611 68.5812 87.9318V92.6432ZM69.609 80.2799L66.0199 79.2777C66.9741 75.8598 68.5299 72.792 70.6438 70.1594C72.6396 67.6741 75.2346 65.7556 77.256 63.292C79.0661 61.0854 80.5299 58.5607 81.6043 55.9198C84.0224 49.9758 84.4204 43.3228 82.7616 37.1245C79.5457 25.108 68.7787 16.7881 56.4582 16.0461C42.3035 15.1969 29.194 24.177 25.9789 38.1824C24.4385 44.8929 25.2902 52.092 28.438 58.2216C31.6896 64.5536 38.0558 68.2803 41.2026 74.6221C41.9279 76.0836 42.526 77.6504 42.9804 79.2779L39.3911 80.2801C38.9995 78.8773 38.4858 77.5307 37.8644 76.2783C36.2254 72.9753 33.6045 70.6823 31.0574 68.1082C28.329 65.3509 26.0921 62.1109 24.4739 58.5863C21.3122 51.6998 20.667 43.7349 22.5764 36.409C26.5596 21.1257 41.0948 11.3879 56.6827 12.3263C62.5762 12.681 68.2122 14.5138 72.9817 17.6256C77.6526 20.6737 81.452 24.9112 83.9688 29.8802C86.6148 35.1045 87.8127 41.0348 87.433 47.0305C87.0075 53.7514 84.4223 60.3592 80.1538 65.6357C78.1513 68.1113 75.542 70.0118 73.5502 72.4927C71.7527 74.7302 70.4269 77.3502 69.609 80.2799ZM53.534 0H57.2605V8.03875H53.534V0ZM21.3688 14.0885L23.9997 11.4504L29.6977 17.1321L27.0668 19.7705L21.3688 14.0885ZM8.61719 43.0175H16.6746V46.744H8.61719V43.0175ZM92.3248 44.8088H100.382V48.5353H92.3248V44.8088ZM80.5684 18.4331L86.2664 12.7511L88.8973 15.3895L83.1993 21.0715L80.5684 18.4331Z" fill="#7D75EC"/>
<path d="M44.3335 50.3976C43.6404 50.3976 42.8916 50.2854 42.0859 50.0287L43.2165 46.4778C45.8045 47.3023 46.8384 44.9565 46.9479 44.6863L50.4018 46.0851C49.7241 47.759 47.6901 50.3976 44.3335 50.3976ZM48.3525 32.9166C48.22 32.4056 47.8846 32.1464 47.3559 32.1464V28.4199C50.417 28.4199 51.7273 30.8407 51.9926 32.1208L48.3437 32.8768L48.3525 32.9166ZM64.6643 50.3976C61.3072 50.3976 59.2737 47.759 58.5957 46.0849L60.3229 45.3855L62.0434 44.6705C62.308 45.2895 63.3596 47.249 65.7813 46.4778L66.9119 50.0287C66.1067 50.2849 65.3574 50.3976 64.6643 50.3976Z" fill="#7D75EC"/>
<path d="M77.3288 44.0499C77.3288 40.891 75.681 38.0512 73.0221 36.4486C73.2371 34.5436 72.7489 32.6238 71.6047 31.0004C70.446 29.3566 68.7697 28.2342 66.856 27.7815C66.6247 26.4579 66.0201 25.228 65.1131 24.2366C63.7585 22.7574 61.8215 21.9092 59.7987 21.9092C58.8032 21.9073 57.8183 22.1122 56.9061 22.5107C55.9939 22.9092 55.1744 23.4927 54.4994 24.2243C53.8243 23.4927 53.0048 22.9092 52.0926 22.5107C51.1804 22.1122 50.1955 21.9074 49.2001 21.9092C47.177 21.9092 45.2402 22.7577 43.8856 24.2366C42.9786 25.2279 42.3739 26.4578 42.1428 27.7815C40.2292 28.2342 38.5528 29.3568 37.3941 31.0004C36.2498 32.6238 35.7616 34.5436 35.9766 36.4486C33.3175 38.0512 31.6699 40.8908 31.6699 44.0499C31.6699 46.7561 32.8792 49.2377 34.9262 50.9079C33.6657 53.3189 33.7498 56.1846 35.2606 58.6625C36.8085 61.2014 39.4047 62.6156 42.2336 62.5664C42.5111 63.7161 43.0734 64.7774 43.8688 65.6527C45.2246 67.143 47.1677 67.998 49.2001 67.998C50.1955 67.9999 51.1805 67.7951 52.0926 67.3966C53.0048 66.9981 53.8244 66.4145 54.4994 65.6829C55.1744 66.4145 55.9939 66.998 56.9061 67.3965C57.8183 67.795 58.8033 67.9998 59.7987 67.998C61.831 67.998 63.7742 67.143 65.1299 65.6527C65.9254 64.7775 66.4877 63.7161 66.7651 62.5664C66.8075 62.5671 66.8497 62.5674 66.8918 62.5674C69.669 62.5671 72.2137 61.1632 73.7381 58.6625C75.2487 56.1846 75.3328 53.3189 74.0726 50.9079C76.1196 49.2377 77.3288 46.7561 77.3288 44.0499ZM52.6359 35.8074C51.3696 35.2361 49.7937 35.0465 47.91 35.6462L49.0405 39.1971C51.1511 38.5249 52.2204 39.9259 52.6357 40.7073V53.0173C51.7876 52.6097 50.8199 52.3863 49.7497 52.4974L50.137 56.2039C51.2657 56.0851 52.2271 57.3048 52.6357 57.9193V60.9384C52.6357 62.7765 51.0943 64.2718 49.1996 64.2718C48.2002 64.2718 47.286 63.8716 46.6253 63.1454C46.1029 62.5711 45.811 61.8617 45.7724 61.1115C46.9935 59.401 48.1469 56.335 46.298 53.3659L43.1347 55.3356C43.958 56.6578 43.2922 58.0748 42.8422 58.7789C40.7442 59.1134 39.2086 57.9807 38.4417 56.723C37.6335 55.3976 37.3361 53.3699 38.9252 51.6545C39.7294 50.4858 39.5438 49.5044 38.3681 48.7102C36.5346 47.8256 35.3957 46.0399 35.3957 44.0499C35.3957 42.0705 36.5232 40.305 38.3052 39.4223C39.1912 39.6559 40.9347 40.3488 40.9347 42.1879H44.6612C44.6612 38.4977 41.8752 36.651 39.6723 35.9408C39.5866 34.9647 39.8496 33.9837 40.4391 33.1478C41.2496 31.9977 42.5348 31.3191 43.9648 31.2855C45.154 31.1334 45.7582 30.458 45.777 29.2592C45.6955 28.3353 45.9997 27.4456 46.6332 26.7536C47.293 26.0328 48.2046 25.6359 49.1994 25.6359C51.094 25.6359 52.6354 27.1312 52.6354 28.9693V35.8074H52.6359ZM70.63 48.7102C69.4543 49.5044 69.2686 50.4858 70.0729 51.6545C71.6617 53.3697 71.3643 55.3973 70.5564 56.723C69.7894 57.981 68.2548 59.1138 66.1558 58.7791C65.7061 58.0751 65.04 56.6581 65.8633 55.3356L62.7 53.3659C60.8512 56.335 62.0045 59.4012 63.2257 61.1115C63.187 61.8617 62.8952 62.5711 62.3728 63.1454C61.7122 63.8716 60.7978 64.2718 59.7984 64.2718C57.9038 64.2718 56.3624 62.7765 56.3624 60.9384V57.9213C56.7702 57.3132 57.7405 56.0861 58.861 56.2037L59.2483 52.4972C58.1781 52.3866 57.2106 52.6102 56.3624 53.0175V40.7019C56.7257 40.0207 57.8024 38.5098 59.9575 39.1969L61.088 35.646C59.2045 35.046 57.6287 35.2354 56.3621 35.8065V28.9688C56.3621 27.1307 57.9035 25.6355 59.7982 25.6355C60.793 25.6355 61.7045 26.0323 62.3644 26.7532C62.9981 27.4451 63.3021 28.3348 63.2205 29.2588C63.2394 30.4575 63.8436 31.133 65.0328 31.2851C66.4628 31.3188 67.7478 31.9975 68.5585 33.1474C69.148 33.9833 69.4107 34.9643 69.3252 35.9404C67.1224 36.6505 64.3364 38.4972 64.3364 42.1874H68.0629C68.0629 40.3484 69.8064 39.6555 70.6924 39.4219C72.4744 40.3048 73.6019 42.0702 73.6019 44.0495C73.6023 46.0399 72.4634 47.8256 70.63 48.7102C72.4634 47.8256 70.0978 48.9668 70.63 48.7102Z" fill="#7D75EC"/>
<path d="M60.391 33.1863L56.9277 31.8113C57.4278 30.5517 59.033 28.4199 61.8763 28.4199V32.1464C60.8333 32.1464 60.3955 33.1761 60.391 33.1863Z" fill="#7D75EC"/>
</g>
<defs>
<clipPath id="clip0_406_1978">
<rect width="109" height="109" fill="white"/>
</clipPath>
</defs>
</svg>
