<svg width="117" height="38" viewBox="0 0 117 38" fill="none" xmlns="http://www.w3.org/2000/svg">
<path d="M44.667 0.895559L29.4177 37.1903H19.4646L11.9656 8.22799C11.5039 6.44169 11.1094 5.79194 9.7251 5.03348C7.45752 3.81069 3.72761 2.66347 0.434326 1.94927L0.664815 0.895784H16.6782C18.7205 0.895784 20.5567 2.25451 21.0184 4.59683L24.9835 25.6035L34.7774 0.895784L44.667 0.895559ZM83.6535 25.335C83.6977 15.761 70.3719 15.24 70.4677 10.9568C70.4936 9.64935 71.7359 8.26589 74.4567 7.91662C75.8078 7.73733 79.5259 7.60593 83.74 9.53566L85.3916 1.84261C83.1243 1.02174 80.2099 0.235596 76.5876 0.235596C67.284 0.235596 60.7346 5.17146 60.6793 12.2338C60.6183 17.4566 65.3521 20.3708 68.9227 22.1101C72.5892 23.8898 73.8151 25.0261 73.8021 26.6223C73.778 29.0583 70.8768 30.1229 68.1705 30.1708C63.4367 30.2443 60.6911 28.8949 58.4984 27.8764L56.7942 35.8338C58.9903 36.8396 63.057 37.7129 67.2654 37.7645C77.1537 37.764 83.6224 32.8808 83.6535 25.335ZM108.222 37.1905H116.93L109.332 0.895784H101.293C99.4865 0.895784 97.9636 1.94655 97.2854 3.55628L83.1689 37.1905H93.0494L95.0107 31.7701H107.089L108.222 37.1905ZM97.7184 24.331L102.675 10.7031L105.527 24.331H97.7184ZM58.1191 0.895559L50.3307 37.1903H40.9157L48.7059 0.895559H58.1191Z" fill="#EFEFEF"/>
</svg>
