<svg width="191" height="44" viewBox="0 0 191 44" fill="none" xmlns="http://www.w3.org/2000/svg">
<path fill-rule="evenodd" clip-rule="evenodd" d="M43.6535 29.48C44.5569 29.877 45.5454 29.9359 46.2522 29.9359C48.3403 29.9359 49.9193 28.6292 49.9193 24.0352C49.9193 20.4329 48.6211 19.27 46.7309 19.27C45.6009 19.27 44.7827 19.583 43.6535 20.2057V29.48ZM43.6831 18.1074C44.5279 17.655 45.967 17.0573 47.4918 17.0573C50.9919 17.0573 52.8834 19.4965 52.8834 24.0352C52.8834 29.3399 50.3427 31.9209 46.2522 31.9209C44.7551 31.9209 42.4408 31.4387 40.7464 30.5289V10.7324L43.6831 10.0244V18.1074ZM12.2763 17.3646H12.4747L16.3117 31.5201H19.3601L23.9342 11.4095H20.6316L17.7522 26.4154H17.5546L13.6311 11.4095H11.1183L7.44973 26.4154H7.25231L4.0909 11.4095H0.930237L5.503 31.5201H8.54919L12.2763 17.3646ZM34.4067 22.9597H27.9444C28.2534 20.1248 29.5809 18.792 31.3025 18.792C32.8262 18.792 34.2664 19.9823 34.4067 22.9597ZM36.6643 30.4499V28.2939C35.113 29.228 33.7019 29.768 32.178 29.7677C29.2699 29.7677 27.8878 28.2642 27.8878 24.8614H37.089V23.8118C37.089 19.1895 34.9143 16.8903 31.3872 16.8903C27.1534 16.8903 24.9805 20.0106 24.9805 24.3239C24.9805 28.8048 26.928 31.7548 31.6684 31.7548C33.7019 31.7548 35.3944 31.187 36.6643 30.4499ZM65.7279 27.2535H65.5866L59.2652 11.3976H55.8489V31.5097H58.3895V17.2701H58.6425L64.4025 31.5097H66.2073L71.9659 16.9292H72.2205V31.5097H75.2687V11.3976H71.7668L65.7279 27.2535ZM87.7227 24.323C87.7227 20.494 86.1716 18.8781 84.2525 18.8781C82.3901 18.8781 80.78 20.494 80.78 24.323C80.78 28.2094 82.2495 29.7677 84.2525 29.7677C86.2552 29.7677 87.7227 28.2094 87.7227 24.323ZM77.8176 24.323C77.8176 19.3574 80.5278 16.8903 84.2525 16.8903C87.9791 16.8903 90.688 19.3574 90.688 24.323C90.688 29.1723 88.1198 31.7548 84.2525 31.7548C80.3858 31.7548 77.8176 29.1723 77.8176 24.323ZM92.9202 18.9909C94.1901 18.224 96.8726 16.8903 100.117 16.8903C103.504 16.8903 104.772 18.224 104.772 21.1447V31.4142H101.839V21.798C101.839 19.5576 100.74 19.1605 99.2986 19.1605C98.1711 19.1605 96.7297 19.6717 95.8555 20.1823V31.4142H92.9202V18.9909ZM117.448 22.9597H110.985C111.297 20.1248 112.622 18.792 114.344 18.792C115.868 18.792 117.31 19.9823 117.448 22.9597ZM119.706 30.4499V28.2939C118.156 29.228 116.743 29.768 115.22 29.7677C112.313 29.7677 110.93 28.2642 110.93 24.8614H120.132V23.8118C120.132 19.1895 117.958 16.8903 114.429 16.8903C110.195 16.8903 108.023 20.0106 108.023 24.3239C108.023 28.8048 109.971 31.7548 114.71 31.7548C116.743 31.7548 118.437 31.187 119.706 30.4499ZM134.877 16.8903H131.856L128.64 27.3283H128.471L124.859 16.8903H121.753L127.173 31.0709C126.494 33.1712 125.31 34.7037 123.39 34.7037V37.0279C126.635 37.0279 128.355 34.9855 129.768 31.0709L134.877 16.8903Z" fill="#EFEFEF"/>
<path d="M168.613 0.219971C172.064 0.219971 175.347 1.0106 178.293 2.42489C178.755 2.63336 179.22 2.88285 179.681 3.13257L177.661 4.92207L174.632 1.80145L169.414 6.37784L166.34 3.09045L156.744 11.6202L162.888 18.3189L160.489 20.3989L166.551 27.0976L164.152 29.1765L172.823 38.7047L177.955 34.0446L182.418 39.0387C181.534 39.7045 180.566 40.3717 179.515 40.953C176.315 42.7419 172.611 43.7802 168.655 43.7802C156.491 43.7802 146.602 34.0045 146.602 21.9814C146.559 10.0394 156.449 0.219971 168.613 0.219971ZM164.572 20.6491L169.833 15.9887L174.548 21.1895L169.285 25.8492L164.572 20.6491ZM168.319 29.6362L173.537 24.9349L178.293 30.135L173.032 34.7956L168.319 29.6362ZM160.828 11.7872L166.088 7.127L170.801 12.3276L165.54 16.9877L160.828 11.7872ZM170.464 9.29L174.379 5.79523L177.915 9.66481L174 13.2009L170.464 9.29ZM177.452 25.3085L181.365 21.8135L184.901 25.7235L180.986 29.2208L177.452 25.3085ZM180.902 33.173L184.817 29.6773L188.35 33.5466L184.437 37.0824L180.902 33.173ZM182.502 15.1982L185.111 12.868L187.467 15.4486L184.858 17.7778L182.502 15.1982ZM179.135 7.50092L181.744 5.12987L184.102 7.75064L181.491 10.0806L179.135 7.50092ZM185.826 22.8961L188.436 20.5661L190.835 23.1458L188.184 25.4751L185.826 22.8961ZM174.084 17.1125L177.999 13.6174L181.534 17.4863L177.62 20.9818L174.084 17.1125Z" fill="#EFEFEF"/>
</svg>
