<svg width="60" height="60" viewBox="0 0 60 60" fill="none" xmlns="http://www.w3.org/2000/svg">
<circle cx="30" cy="30" r="30" fill="#EFEFEF"/>
<path d="M28.9643 42.7857C28.5036 42.7857 28.1964 42.6321 27.8893 42.325L21.7464 36.1821C21.1321 35.5678 21.1321 34.6464 21.7464 34.0321C22.3607 33.4178 23.2821 33.4178 23.8964 34.0321L28.9643 39.1L46.3178 21.7464C46.9321 21.1321 47.8536 21.1321 48.4678 21.7464C49.0821 22.3607 49.0821 23.2821 48.4678 23.8964L30.0393 42.325C29.7321 42.6321 29.425 42.7857 28.9643 42.7857Z" fill="#236FE3"/>
<path d="M20.825 40.175L14.6821 34.0321C14.0678 33.4178 13.1464 33.4178 12.5321 34.0321C11.9178 34.6464 11.9178 35.5679 12.5321 36.1821L18.675 42.325C19.2893 42.9393 20.2107 42.9393 20.825 42.325C21.4393 41.7107 21.4393 40.7893 20.825 40.175ZM42.325 18.675C41.7107 18.0607 40.7893 18.0607 40.175 18.675L27.8893 30.9607C27.275 31.575 27.275 32.4964 27.8893 33.1107C28.5036 33.725 29.425 33.725 30.0393 33.1107L42.325 20.825C42.9393 20.2107 42.9393 19.2893 42.325 18.675Z" fill="#7D75EC"/>
</svg>
