<svg width="99" height="48" viewBox="0 0 99 48" fill="none" xmlns="http://www.w3.org/2000/svg">
<g clip-path="url(#clip0_168_2098)">
<path d="M90.8383 2.87868C91.6678 3.65033 92.0641 4.16672 92.1456 5.31241C92.1511 5.71413 92.1502 6.11597 92.1442 6.51767C92.1455 6.73802 92.1468 6.95838 92.1481 7.18541C92.1508 7.91128 92.1452 8.63682 92.1392 9.36267C92.1388 9.86822 92.1388 10.3738 92.1392 10.8793C92.1388 11.9377 92.1345 12.996 92.1271 14.0544C92.1179 15.4107 92.1169 16.7669 92.1186 18.1232C92.1194 19.1667 92.1165 20.2102 92.1126 21.2537C92.1109 21.7538 92.1102 22.2539 92.1104 22.754C92.11 23.4529 92.105 24.1515 92.0988 24.8503C92.0994 25.0568 92.1001 25.2632 92.1008 25.4759C92.0855 26.5849 92.0152 27.3229 91.3034 28.2243C90.8188 28.5958 90.8188 28.5958 90.2514 28.9173C90.0363 29.0414 89.8211 29.1655 89.5995 29.2933C89.3655 29.4245 89.1316 29.5558 88.8905 29.691C88.3874 29.9799 87.8844 30.269 87.3815 30.5582C87.1832 30.6715 87.1832 30.6715 86.9808 30.7871C85.4932 31.6369 84.0205 32.512 82.5474 33.387C78.9841 35.5031 78.9841 35.5031 77.3493 36.4381C78.3256 36.1256 79.2489 35.7577 80.1801 35.328C80.3168 35.2652 80.4536 35.2025 80.5944 35.1378C81.0441 34.9314 81.4933 34.724 81.9425 34.5167C82.5864 34.2203 83.2305 33.9245 83.8748 33.6293C84.1255 33.5144 84.1255 33.5144 84.3813 33.3972C85.6399 32.8223 86.9045 32.2624 88.1719 31.7078C88.5358 31.5481 88.8997 31.3883 89.2637 31.2285C89.7947 30.9955 90.326 30.7633 90.8583 30.5332C91.353 30.3194 91.8465 30.1031 92.34 29.8863C92.4876 29.8233 92.6353 29.7604 92.7875 29.6956C93.5539 29.3559 93.8483 29.1831 94.3268 28.459C94.4031 27.8759 94.4031 27.8759 94.4009 27.2157C94.4056 26.962 94.4102 26.7084 94.4149 26.447C94.4176 26.1734 94.4203 25.8999 94.4231 25.618C94.4276 25.3377 94.4321 25.0574 94.4367 24.7687C94.4506 23.872 94.4614 22.9753 94.4721 22.0785C94.481 21.4712 94.4901 20.8639 94.4994 20.2566C94.5217 18.7665 94.5415 17.2763 94.5593 15.7862C95.1215 15.7671 95.6831 15.7532 96.2455 15.7422C96.4041 15.7363 96.5626 15.7304 96.726 15.7243C97.3881 15.7145 97.9441 15.7425 98.5589 16.0011C99.2535 16.8114 99.1074 17.717 99.0985 18.7526C99.1001 18.9847 99.1018 19.2168 99.1035 19.4559C99.1076 20.2247 99.1048 20.9934 99.1017 21.7623C99.1023 22.2957 99.1032 22.8291 99.1044 23.3626C99.1058 24.4814 99.1038 25.6001 99.0994 26.719C99.0941 28.154 99.0972 29.5889 99.1027 31.0239C99.1061 32.1258 99.105 33.2276 99.1026 34.3294C99.102 34.8586 99.1028 35.3877 99.1049 35.9168C99.1073 36.6563 99.1037 37.3955 99.0985 38.1349C99.1004 38.3543 99.1023 38.5736 99.1042 38.7996C99.1016 39.0013 99.099 39.203 99.0963 39.4108C99.0959 39.5855 99.0956 39.7603 99.0952 39.9403C98.9249 40.6494 98.6172 40.9279 98.0479 41.3664C97.4608 41.4846 97.4608 41.4846 96.7872 41.4856C96.5313 41.4883 96.2753 41.4909 96.0116 41.4936C95.7319 41.4917 95.4522 41.4898 95.164 41.4879C94.8686 41.4895 94.5731 41.4912 94.2688 41.4929C93.4591 41.4972 92.6495 41.4955 91.8398 41.4925C90.992 41.4901 90.1443 41.4923 89.2965 41.4938C87.8726 41.4955 86.4488 41.4933 85.0249 41.4888C83.3796 41.4837 81.7344 41.4854 80.0891 41.4905C78.6759 41.4948 77.2627 41.4954 75.8495 41.4929C75.0057 41.4915 74.162 41.4913 73.3182 41.4944C72.3772 41.4976 71.4364 41.4931 70.4954 41.4879C70.0766 41.4907 70.0766 41.4907 69.6492 41.4936C68.6001 41.4828 67.7937 41.461 66.828 41.0307C66.2003 40.1062 66.2507 39.2655 66.2571 38.1676C66.2539 37.9386 66.2507 37.7095 66.2475 37.4735C66.2388 36.7158 66.2388 35.9583 66.2396 35.2005C66.2371 34.6738 66.2343 34.1471 66.2312 33.6204C66.2264 32.516 66.2261 31.4117 66.2287 30.3073C66.2314 28.8924 66.2203 27.4781 66.2055 26.0633C66.1961 24.9753 66.1952 23.8874 66.1968 22.7993C66.1963 22.2778 66.1928 21.7562 66.1863 21.2347C66.1783 20.5047 66.1821 19.7757 66.1889 19.0457C66.1841 18.8306 66.1792 18.6155 66.1742 18.3939C66.1929 17.5094 66.2109 16.9512 66.8218 16.2856C67.2933 15.9234 67.7654 15.614 68.2791 15.3168C68.5264 15.1592 68.7736 15.0015 69.0283 14.8391C69.3887 14.6286 69.3887 14.6286 69.7563 14.4138C69.8894 14.3356 70.0225 14.2574 70.1596 14.1768C70.5884 13.925 71.0181 13.6749 71.4479 13.4247C71.7511 13.247 72.0542 13.0691 72.3573 12.8911C72.9643 12.5347 73.5715 12.1787 74.179 11.823C75.3171 11.1558 76.4497 10.4793 77.5819 9.80178C79.8976 8.41807 82.2195 7.0449 84.5426 5.67377C84.6792 5.59303 84.8159 5.51229 84.9568 5.4291C85.3532 5.19495 85.7497 4.96104 86.1463 4.72714C87.0142 4.20944 87.8727 3.67701 88.7274 3.13737C89.491 2.72829 90.0019 2.68009 90.8383 2.87868ZM82.4658 16.2555C82.1053 16.9831 82.1658 17.5648 82.2332 18.3677C82.5609 19.0694 82.5609 19.0694 83.1635 19.5411C84.0613 19.8046 84.5678 19.861 85.4456 19.5264C86.1049 18.9371 86.2668 18.5368 86.4195 17.6636C86.2646 16.8665 86.0969 16.4097 85.5473 15.8155C84.3801 15.2266 83.4761 15.4982 82.4658 16.2555Z" fill="#EFEFEF"/>
<path d="M5.71824 24.2349C6.25547 24.2349 6.7927 24.2349 7.34621 24.2349C7.88711 25.7751 8.30206 27.3246 8.67167 28.9147C8.72126 29.1248 8.77085 29.3349 8.82194 29.5514C9.00454 30.3262 9.1855 31.1015 9.36665 31.8767C9.77437 33.6143 10.1821 35.352 10.6022 37.1423C11.6766 32.8829 12.7511 28.6234 13.8581 24.2349C14.4721 24.2349 15.0861 24.2349 15.7187 24.2349C15.8111 26.0468 15.9022 27.8588 15.9916 29.6709C16.0332 30.5129 16.0752 31.3549 16.1183 32.1968C16.3145 36.037 16.4745 39.8668 16.4164 43.7134C15.9559 43.7134 15.4954 43.7134 15.021 43.7134C14.8299 42.146 14.7293 40.5929 14.6721 39.0152C14.6527 38.5237 14.6334 38.0322 14.614 37.5407C14.5846 36.7733 14.5556 36.006 14.5268 35.2386C14.4985 34.4929 14.4691 33.7472 14.4395 33.0015C14.4313 32.7717 14.4231 32.5419 14.4146 32.3051C14.406 32.0912 14.3975 31.8773 14.3887 31.6568C14.3816 31.4693 14.3746 31.2818 14.3673 31.0887C14.3304 30.4946 14.3304 30.4946 14.0907 29.6325C13.1697 33.2724 12.2487 36.9124 11.2999 40.6626C10.8394 40.6626 10.3789 40.6626 9.90446 40.6626C8.98349 37.0227 8.06252 33.3827 7.11365 29.6325C6.95217 30.4472 6.84614 31.11 6.81567 31.9219C6.80712 32.1366 6.79858 32.3512 6.78978 32.5724C6.78153 32.8018 6.77329 33.0311 6.76479 33.2673C6.75535 33.5061 6.74591 33.7448 6.73618 33.9907C6.70608 34.7528 6.67717 35.5148 6.64851 36.277C6.61981 37.0365 6.59081 37.7961 6.56084 38.5557C6.54222 39.0276 6.52432 39.4996 6.50724 39.9717C6.4576 41.2319 6.35816 42.4644 6.18337 43.7134C5.72289 43.7134 5.2624 43.7134 4.78796 43.7134C4.87423 41.5895 4.96113 39.4657 5.04882 37.3418C5.08953 36.3554 5.13003 35.3689 5.17003 34.3824C5.20873 33.4283 5.248 32.4742 5.28765 31.5202C5.3026 31.1583 5.31734 30.7965 5.33187 30.4346C5.41517 28.3634 5.52523 26.2993 5.71824 24.2349Z" fill="#EFEFEF"/>
<path d="M37.115 2.17456C37.8825 2.17456 38.6499 2.17456 39.4407 2.17456C39.4407 8.60248 39.4407 15.0304 39.4407 21.6531C38.9034 21.6531 38.3662 21.6531 37.8127 21.6531C37.6592 21.4982 37.5057 21.3433 37.3476 21.1838C37.1557 21.2999 36.9638 21.4161 36.7661 21.5358C35.5303 22.0703 34.5961 22.0738 33.3358 21.6091C32.0534 20.7562 31.4363 19.6188 31.0682 18.1329C30.5681 15.1218 30.6879 11.5581 32.4636 8.98032C33.3816 7.92166 34.6011 7.68529 35.9522 7.57223C36.2591 7.64968 36.5661 7.72712 36.8824 7.80691C36.9592 5.94824 37.0359 4.08956 37.115 2.17456ZM34.6294 10.1244C33.1585 12.1301 33.2108 14.5645 33.3939 16.9595C33.6151 18.0952 33.8797 19.0237 34.7893 19.7757C35.5286 19.8709 36.0075 19.8575 36.6877 19.5433C37.3512 18.8109 37.2388 18.0103 37.2222 17.0686C37.222 16.8727 37.2218 16.6769 37.2215 16.4751C37.2201 16.0615 37.2165 15.6478 37.2107 15.2342C37.2022 14.5996 37.2012 13.9653 37.2013 13.3306C37.199 12.929 37.1963 12.5273 37.1931 12.1256C37.1926 11.9352 37.1921 11.7447 37.1916 11.5485C37.215 10.5059 37.215 10.5059 36.6499 9.68437C35.7566 9.54416 35.3769 9.59816 34.6294 10.1244Z" fill="#EFEFEF"/>
<path d="M10.3697 0.297363C11.1372 0.297363 11.9047 0.297363 12.6954 0.297363C12.3744 1.95209 11.8726 3.46466 11.2773 5.03774C8.25564 13.1211 8.25564 13.1211 7.81149 21.6534C7.04402 21.6534 6.27654 21.6534 5.48581 21.6534C5.50069 21.492 5.51557 21.3306 5.53089 21.1643C5.96559 15.1692 3.96928 10.2109 1.69927 4.75149C1.61622 4.54927 1.53317 4.34706 1.44761 4.13872C1.37394 3.96264 1.30028 3.78655 1.22438 3.60512C1.06702 3.11354 1.06702 3.11354 1.06702 2.17481C1.91124 2.17481 2.75546 2.17481 3.62527 2.17481C4.62298 5.04027 5.6207 7.90573 6.64865 10.858C7.2254 9.40306 7.78321 7.966 8.28026 6.48525C8.34089 6.30626 8.40152 6.12726 8.46399 5.94284C8.65405 5.38129 8.84328 4.81946 9.03247 4.25761C9.16263 3.87257 9.29285 3.48754 9.42312 3.10254C9.7393 2.1677 10.0547 1.2326 10.3697 0.297363Z" fill="#EFEFEF"/>
<path d="M28.3647 8.20283C29.3595 9.63139 29.2696 11.1316 29.2532 12.8066C29.2525 13.0599 29.2518 13.3131 29.2512 13.574C29.2486 14.3798 29.2427 15.1856 29.2368 15.9913C29.2345 16.5389 29.2323 17.0865 29.2304 17.6341C29.2253 18.9738 29.2173 20.3134 29.2077 21.653C28.4403 21.653 27.6728 21.653 26.8821 21.653C26.8762 21.3297 26.8704 21.0063 26.8644 20.6732C26.8425 19.4752 26.8192 18.2773 26.7955 17.0794C26.7854 16.5606 26.7757 16.0418 26.7664 15.523C26.753 14.778 26.7382 14.0329 26.7231 13.2879C26.7192 13.0554 26.7153 12.8229 26.7113 12.5834C26.7067 12.3673 26.702 12.1512 26.6972 11.9286C26.6918 11.6432 26.6918 11.6432 26.6863 11.3522C26.6662 10.8127 26.6662 10.8127 26.4169 10.1536C25.2922 10.0546 25.2922 10.0546 24.2782 10.4765C23.6276 11.4315 23.7184 12.3605 23.7169 13.4942C23.7131 13.7272 23.7093 13.9603 23.7053 14.2005C23.694 14.9441 23.689 15.6876 23.6842 16.4313C23.6777 16.9359 23.6707 17.4404 23.6633 17.9449C23.6461 19.1809 23.6346 20.4169 23.6261 21.653C22.8586 21.653 22.0911 21.653 21.3004 21.653C21.3004 17.0838 21.3004 12.5145 21.3004 7.80681C22.0679 7.80681 22.8354 7.80681 23.6261 7.80681C23.7028 8.03914 23.7796 8.27148 23.8587 8.51085C24.0313 8.39952 24.204 8.2882 24.3819 8.1735C25.6705 7.43472 27.1102 7.3034 28.3647 8.20283Z" fill="#EFEFEF"/>
<path d="M17.9281 8.32025C19.1419 9.69811 19.0513 11.2372 19.071 12.99C19.0755 13.2381 19.08 13.4861 19.0846 13.7417C19.0985 14.5307 19.1093 15.3197 19.1201 16.1087C19.1289 16.645 19.138 17.1813 19.1473 17.7176C19.1696 19.0294 19.1892 20.3412 19.2073 21.6531C18.5165 21.6531 17.8258 21.6531 17.1142 21.6531C17.0374 21.4207 16.9607 21.1884 16.8816 20.949C16.7809 21.0604 16.6801 21.1717 16.5763 21.2864C15.8519 21.9632 15.058 21.9566 14.1044 21.9354C13.1826 21.8437 12.5486 21.5549 11.9377 20.8427C11.0122 19.3407 11.0959 17.4888 11.3 15.786C11.7888 14.589 12.3325 13.9455 13.3931 13.2046C14.5059 12.7758 15.463 12.6863 16.649 12.7352C16.4955 11.8059 16.342 10.8765 16.1839 9.91901C14.6663 9.81155 13.9705 10.0342 12.6954 10.8577C12.5419 10.8577 12.3884 10.8577 12.2302 10.8577C12.1535 10.0833 12.0767 9.30884 11.9977 8.51092C13.8522 7.66696 16.1209 6.92674 17.9281 8.32025ZM14.0908 15.3167C13.4365 16.3449 13.5066 17.4219 13.6256 18.6022C13.8311 19.3413 13.8311 19.3413 14.3233 19.7756C15.072 19.9042 15.5274 19.8578 16.2248 19.5584C16.9276 18.7519 16.7461 17.8305 16.7072 16.7981C16.703 16.5886 16.6988 16.3791 16.6944 16.1633C16.6835 15.6461 16.6682 15.1295 16.649 14.6126C15.6018 14.5768 14.9924 14.7506 14.0908 15.3167Z" fill="#EFEFEF"/>
<path d="M48.0167 8.54038C49.5138 10.5843 49.4412 12.8359 49.4412 15.3168C47.5992 15.3168 45.7573 15.3168 43.8595 15.3168C43.9531 15.9775 43.9531 15.9775 44.0485 16.6516C44.0836 16.8993 44.1187 17.1471 44.1548 17.4023C44.332 18.1644 44.5728 18.6722 45.0224 19.3064C45.7387 19.6678 46.3218 19.5936 47.1155 19.5411C47.6894 19.348 48.198 19.1066 48.7435 18.837C49.1701 19.5635 49.3586 20.1058 49.2086 20.9492C47.8887 21.9851 46.402 22.0247 44.7898 21.8879C43.5254 21.4708 42.678 20.679 41.999 19.5411C40.8933 16.687 40.9674 13.1916 41.9554 10.306C42.527 9.02251 43.3097 8.12707 44.6299 7.58698C45.9104 7.55694 46.9785 7.76601 48.0167 8.54038ZM45.0224 9.68445C44.0659 10.6772 43.8673 11.3254 43.845 12.6766C43.8498 12.9283 43.8546 13.18 43.8595 13.4394C44.8573 13.4394 45.855 13.4394 46.8829 13.4394C46.9614 11.7366 46.9614 11.7366 46.4178 10.1538C46.2643 9.99892 46.1108 9.84403 45.9527 9.68445C45.6457 9.68445 45.3387 9.68445 45.0224 9.68445Z" fill="#EFEFEF"/>
<path d="M50.3714 7.80688C51.1388 7.80688 51.9063 7.80688 52.697 7.80688C53.3302 9.19497 53.874 10.5726 54.325 12.0311C54.4388 11.7507 54.4388 11.7507 54.5549 11.4646C55.0619 10.224 55.5646 8.99418 56.1856 7.80688C56.8763 7.80688 57.567 7.80688 58.2787 7.80688C58.1243 9.36675 57.4396 10.7163 56.7947 12.1233C56.1663 13.602 56.1093 14.5129 56.6507 16.0207C56.7293 16.2409 56.8078 16.4611 56.8888 16.6879C57.1575 17.4089 57.4394 18.1231 57.7263 18.8369C57.9186 19.3208 58.1106 19.8048 58.3023 20.289C58.387 20.5005 58.4718 20.7119 58.5591 20.9298C58.7438 21.4184 58.7438 21.4184 58.7438 21.6531C57.8996 21.6531 57.0554 21.6531 56.1856 21.6531C55.9128 20.9643 55.6417 20.2748 55.3716 19.585C55.2939 19.3894 55.2163 19.1938 55.1363 18.9923C55.0628 18.804 54.9894 18.6157 54.9137 18.4216C54.8455 18.2483 54.7773 18.0751 54.707 17.8965C54.5576 17.4288 54.5576 17.4288 54.5576 16.7248C54.4041 16.7248 54.2506 16.7248 54.0925 16.7248C54.0688 16.8782 54.0451 17.0315 54.0207 17.1896C53.8115 18.1113 53.484 18.9678 53.1476 19.849C53.0821 20.0228 53.0166 20.1966 52.9491 20.3756C52.7884 20.8018 52.6265 21.2275 52.4645 21.6531C51.697 21.6531 50.9295 21.6531 50.1388 21.6531C50.4701 20.4428 50.809 19.3089 51.3607 18.1824C52.5958 15.7212 52.5958 15.7212 52.3741 13.0751C52.1124 12.4586 51.8263 11.862 51.5126 11.2708C51.1984 10.6555 50.9757 10.0141 50.7493 9.36165C50.6755 9.16138 50.6018 8.96111 50.5258 8.75478C50.3714 8.27625 50.3714 8.27625 50.3714 7.80688Z" fill="#EFEFEF"/>
<path d="M35.08 29.8966C35.8982 30.4595 36.07 30.8034 36.4173 31.7447C36.5108 32.6643 36.4985 33.5769 36.4854 34.5004C36.4845 34.7641 36.4835 35.0277 36.4824 35.2994C36.4786 36.1387 36.4698 36.9779 36.4609 37.8171C36.4574 38.3873 36.4542 38.9575 36.4514 39.5277C36.4437 40.923 36.432 42.3182 36.4173 43.7135C35.9568 43.7135 35.4963 43.7135 35.0219 43.7135C35.0198 43.5161 35.0198 43.5161 35.0178 43.3147C35.0028 41.9402 34.9832 40.5658 34.9609 39.1915C34.9531 38.6791 34.9466 38.1667 34.9413 37.6543C34.9335 36.9162 34.9213 36.1782 34.9083 35.44C34.9068 35.2124 34.9054 34.9847 34.9038 34.7502C34.8754 33.416 34.7027 32.4634 34.0916 31.2754C33.1674 31.2022 32.6259 31.1749 31.8241 31.6714C30.5696 32.9725 30.4959 34.0137 30.4841 35.7609C30.4778 36.1022 30.4778 36.1022 30.4714 36.4504C30.4589 37.1749 30.451 37.8993 30.4432 38.6238C30.4355 39.116 30.4275 39.6081 30.4191 40.1002C30.3994 41.3046 30.3839 42.509 30.3705 43.7135C29.8333 43.7135 29.2961 43.7135 28.7426 43.7135C28.7426 39.1442 28.7426 34.575 28.7426 29.8673C29.203 29.8673 29.6635 29.8673 30.138 29.8673C30.2147 30.2545 30.2915 30.6417 30.3705 31.0407C30.48 30.9587 30.5894 30.8767 30.7021 30.7923C30.8469 30.6855 30.9917 30.5787 31.1409 30.4687C31.2839 30.3625 31.4269 30.2563 31.5743 30.1469C32.6859 29.4143 33.8606 29.4707 35.08 29.8966Z" fill="#EFEFEF"/>
<path d="M24.1202 29.8961C25.4018 30.7395 26.0903 31.7359 26.5177 33.1973C27.1682 36.4524 27.1212 39.9265 25.254 42.7743C24.1445 43.8418 23.3874 44.0374 21.8899 44.0091C20.9754 43.9138 20.5625 43.6571 19.9049 43.009C18.2161 40.4503 18.0026 37.4146 18.4368 34.4431C18.7595 32.8266 19.3351 31.3669 20.5154 30.2042C21.6985 29.4816 22.8235 29.4251 24.1202 29.8961ZM20.6635 32.1403C19.4493 34.386 19.5881 37.6587 20.073 40.1002C20.3896 41.0587 20.7318 41.7147 21.3876 42.4809C22.1953 42.8691 22.5521 42.8403 23.3935 42.5396C24.4089 41.8009 24.8269 40.9776 25.1368 39.7876C25.5543 37.0511 25.6928 33.8064 24.033 31.4802C23.4068 30.9904 23.4068 30.9904 22.594 30.8642C21.6028 31.0748 21.2983 31.3822 20.6635 32.1403Z" fill="#EFEFEF"/>
<path d="M47.1154 29.867C47.5759 29.867 48.0364 29.867 48.5109 29.867C49.498 33.2786 50.2981 36.7257 51.0691 40.1929C51.1459 40.1929 51.2226 40.1929 51.3017 40.1929C51.3303 40.067 51.3589 39.9411 51.3884 39.8114C51.6854 38.5055 51.9836 37.1998 52.2825 35.8944C52.3941 35.4066 52.5053 34.9187 52.6162 34.4308C52.7753 33.731 52.9355 33.0315 53.0959 32.332C53.1456 32.1125 53.1952 31.893 53.2464 31.6668C53.293 31.4648 53.3395 31.2628 53.3875 31.0546C53.4283 30.8759 53.4691 30.6971 53.5111 30.513C53.6274 30.1016 53.6274 30.1016 53.8599 29.867C54.2474 29.8574 54.6353 29.8569 55.0228 29.867C54.8744 31.5833 54.5385 33.2098 54.1388 34.8833C54.0743 35.1566 54.0097 35.4298 53.9432 35.7114C53.8068 36.2867 53.6697 36.8618 53.532 37.4368C53.3229 38.3122 53.1173 39.1883 52.9119 40.0646C52.7785 40.6257 52.6448 41.1867 52.5108 41.7477C52.4502 42.0074 52.3896 42.2671 52.3272 42.5346C51.292 46.8125 51.292 46.8125 49.6737 47.9374C48.9646 48.029 48.2908 48.0077 47.5806 47.9374C47.5806 47.4728 47.5806 47.0081 47.5806 46.5293C47.83 46.5293 48.0794 46.5293 48.3364 46.5293C49.297 46.2774 49.297 46.2774 49.8045 45.5173C50.8619 42.7254 48.8742 38.2566 48.1829 35.4862C48.007 34.7798 47.8328 34.073 47.6587 33.3661C47.6042 33.15 47.5497 32.9339 47.4936 32.7112C47.4438 32.509 47.3941 32.3067 47.3429 32.0983C47.2989 31.9218 47.2548 31.7453 47.2094 31.5634C47.1061 30.9885 47.0995 30.4501 47.1154 29.867Z" fill="#EFEFEF"/>
<path d="M43.1618 29.6324C44.3675 30.0618 44.8934 30.61 45.4874 31.7445C46.1234 33.5092 45.9854 35.287 45.9526 37.1422C43.9571 37.1422 41.9617 37.1422 39.9058 37.1422C40.1138 39.7944 40.1138 39.7944 41.3012 42.0705C42.2943 42.5621 42.7308 42.6044 43.7868 42.2612C44.4054 41.9196 44.9491 41.5881 45.4874 41.1318C45.6409 41.5965 45.7944 42.0611 45.9526 42.5399C44.5933 43.7286 43.757 44.0349 41.9353 44.0131C41.0339 43.9205 40.566 43.6267 39.9058 43.0093C38.1505 40.7952 38.0746 37.7432 38.3496 35.0246C38.6076 33.195 38.9676 31.592 40.4 30.3511C41.4017 29.626 41.9198 29.5489 43.1618 29.6324ZM40.6035 32.2139C39.9909 33.5369 39.9058 34.4688 39.9058 35.9688C41.4408 35.9688 42.9757 35.9688 44.5572 35.9688C44.5795 34.3288 44.5795 34.3288 44.2519 32.8446C44.1953 32.6519 44.1386 32.4592 44.0802 32.2607C43.8433 31.7068 43.6299 31.4121 43.1618 31.0405C41.8784 30.8153 41.3705 31.1889 40.6035 32.2139Z" fill="#EFEFEF"/>
</g>
<defs>
<clipPath id="clip0_168_2098">
<rect width="98.1438" height="47.875" fill="white" transform="translate(0.834351 0.0625)"/>
</clipPath>
</defs>
</svg>
