<svg width="60" height="60" fill="none" xmlns="http://www.w3.org/2000/svg"><circle cx="30" cy="30" r="30" fill="#EFEFEF"/><g clip-path="url(#clip0_175_2149)"><path d="M49.284 40.522H37.292l4.896-15.63 3.335 10.684a1.677 1.677 0 003.2-1L43.78 18.734a1.675 1.675 0 00-1.218-1.132l-8.058-1.892a5.049 5.049 0 00-3.242-3.688V9.675a1.676 1.676 0 10-3.354 0v2.345a5.05 5.05 0 00-2.256 1.61l-8.446-1.982a1.677 1.677 0 00-1.984 1.134L8.194 35.38a1.67 1.67 0 00-.154.703v.109c.06 4.803 3.985 8.693 8.802 8.693 4.854 0 8.802-3.948 8.802-8.802 0-.227-.046-.452-.135-.661l-6.215-19.837 5.26 1.234a5.035 5.035 0 005.03 4.975 5.035 5.035 0 004.479-2.743l6 1.409-6.59 21.037a1.68 1.68 0 00-.061.272 1.67 1.67 0 00-.056.43c0 4.853 3.949 8.802 8.802 8.802s8.802-3.949 8.802-8.802c0-.926-.75-1.676-1.676-1.676zm-32.442 1.01a5.458 5.458 0 01-5.185-3.773h10.37a5.458 5.458 0 01-5.185 3.772zm4.835-7.126h-9.668l4.816-15.488 4.852 15.488zm7.907-15.966a1.678 1.678 0 01-1.677-1.677 1.68 1.68 0 011.677-1.677c.925 0 1.677.752 1.677 1.677s-.752 1.677-1.677 1.677zm12.574 29.207a5.458 5.458 0 01-5.185-3.772h10.37a5.458 5.458 0 01-5.185 3.772z" fill="#236FE3"/></g><defs><clipPath id="clip0_175_2149"><path fill="#fff" transform="translate(8 8)" d="M0 0h43v43H0z"/></clipPath></defs></svg>