<svg width="60" height="60" fill="none" xmlns="http://www.w3.org/2000/svg"><rect width="60" height="60" rx="30" fill="#EFEFEF"/><g clip-path="url(#clip0_177_2263)" fill="#236FE3"><path d="M46.604 40.228a1.64 1.64 0 00-2.296.337c-.299.401-.614.79-.946 1.166a1.64 1.64 0 002.458 2.173c.393-.445.767-.905 1.12-1.38a1.64 1.64 0 00-.336-2.296zm2.743-7.694a1.64 1.64 0 00-1.952 1.254c-.106.488-.233.972-.38 1.45a1.64 1.64 0 103.134.969 20.96 20.96 0 00.453-1.721 1.64 1.64 0 00-1.255-1.952zm-10.64 12.948c-.437.244-.885.47-1.34.675a1.64 1.64 0 001.35 2.99c.54-.243 1.071-.51 1.59-.8a1.64 1.64 0 10-1.6-2.865zM28.359 16.875V29.32l-6.016 6.017a1.64 1.64 0 102.32 2.32l6.497-6.497a1.64 1.64 0 00.48-1.16V16.875a1.64 1.64 0 10-3.28 0z"/><path d="M49.36 12.527a1.64 1.64 0 00-1.641 1.641v4.556C43.9 12.734 37.23 9 30 9a20.863 20.863 0 00-14.85 6.15A20.863 20.863 0 009 30c0 5.61 2.184 10.883 6.15 14.85A20.863 20.863 0 0030 51l.041-.002.041.002c.591 0 1.188-.025 1.775-.074a1.64 1.64 0 00-.274-3.27c-.496.042-1 .063-1.501.063l-.041.002-.041-.002c-9.77 0-17.719-7.949-17.719-17.719 0-9.77 7.949-17.719 17.719-17.719a17.761 17.761 0 0115.253 8.696H40.74a1.64 1.64 0 100 3.28h5.009a5.219 5.219 0 002.877-.86A5.249 5.249 0 0051 19.006v-4.839a1.64 1.64 0 00-1.64-1.64z"/></g><defs><clipPath id="clip0_177_2263"><path fill="#fff" transform="translate(9 9)" d="M0 0h42v42H0z"/></clipPath></defs></svg>