<svg width="60" height="60" fill="none" xmlns="http://www.w3.org/2000/svg"><circle cx="30" cy="30" r="30" fill="#EFEFEF"/><path d="M35.154 47.78a1.64 1.64 0 01-.934 2.124A15.844 15.844 0 0128.375 51c-2.493 0-4.931-.587-7.247-1.745-2.163-1.08-4.12-2.605-5.817-4.533C11.936 40.89 10 35.882 10 30.984V18.105a1.64 1.64 0 01.97-1.497l16.652-7.464a1.64 1.64 0 011.337-.003l16.816 7.465a1.64 1.64 0 01.975 1.5v12.878c0 .85-.115 1.654-.225 2.432l-.037.258a1.64 1.64 0 11-3.25-.457l.038-.264c.1-.695.193-1.352.193-1.969V19.172l-15.173-6.735-15.015 6.73v11.817c0 8.759 7.194 16.735 15.094 16.735 1.622 0 3.145-.286 4.655-.873a1.64 1.64 0 012.124.934zm14.221-1.58c0 1.282-.5 2.487-1.406 3.394A4.768 4.768 0 0144.575 51a4.768 4.768 0 01-3.39-1.401l-8.378-8.251c-1.133.494-2.404.75-3.311.752h-.014c-2.593 0-4.913-1.212-6.536-3.414-1.341-1.82-2.109-4.265-2.105-6.709.002-.94.174-1.903.527-2.942a1.641 1.641 0 012.715-.632l4.013 4.022 2.093-.475.495-2.129-3.953-4.035a1.64 1.64 0 01.647-2.703c.993-.335 1.898-.492 2.85-.493h.02c2.943 0 5.834 1.133 7.735 3.035 1.553 1.553 2.372 3.496 2.369 5.619-.002.993-.316 2.227-.805 3.295l8.411 8.256.011.011a4.768 4.768 0 011.406 3.394zm-3.281 0c0-.403-.157-.783-.44-1.07L36.351 36a1.64 1.64 0 01-.18-2.133c.513-.708.897-1.972.898-2.629.002-1.25-.471-2.357-1.407-3.293-1.038-1.038-2.538-1.741-4.165-1.982l2.16 2.205a1.641 1.641 0 01.425 1.52l-.93 4.006a1.64 1.64 0 01-1.235 1.229l-3.98.903a1.64 1.64 0 01-1.524-.442l-2.212-2.217c.18 1.334.663 2.593 1.385 3.572.7.95 1.943 2.08 3.895 2.08h.009c.705-.002 1.964-.342 2.643-.829a1.636 1.636 0 012.107.165l9.251 9.11.01.009c.286.287.667.445 1.073.445.406 0 .787-.158 1.074-.445a1.508 1.508 0 00.445-1.074z" fill="#236FE3"/></svg>