<svg width="60" height="60" fill="none" xmlns="http://www.w3.org/2000/svg"><circle cx="30" cy="30" r="30" fill="#EFEFEF"/><path fill-rule="evenodd" clip-rule="evenodd" d="M25.546 11.768a9.771 9.771 0 00-4.963-2.586 9.923 9.923 0 00-5.6.537 9.644 9.644 0 00-4.35 3.48A9.283 9.283 0 009 18.45v7.35c0 .557.227 1.091.63 1.485.405.394.953.615 1.524.615.571 0 1.119-.221 1.523-.615.404-.394.63-.928.63-1.485v-7.35c0-1.392.568-2.728 1.578-3.712a5.455 5.455 0 013.807-1.538c1.428 0 2.798.553 3.808 1.538a5.184 5.184 0 011.577 3.712v5.25h-3.23a4.364 4.364 0 00-3.047 1.23 4.147 4.147 0 00-1.262 2.97v18.9c0 1.114.454 2.182 1.262 2.97A4.364 4.364 0 0020.846 51h25.846a4.364 4.364 0 003.046-1.23A4.147 4.147 0 0051 46.8V27.9a4.147 4.147 0 00-1.262-2.97 4.364 4.364 0 00-3.046-1.23H28.385v-5.25c0-1.24-.251-2.47-.738-3.616a9.437 9.437 0 00-2.101-3.066zM46.692 27.9v18.9H20.846V27.9h25.846zM33.77 32.45c-.571 0-1.119.222-1.523.616-.404.394-.63.928-.63 1.485v6.3c0 .557.226 1.09.63 1.485.404.394.952.615 1.523.615.572 0 1.12-.221 1.523-.615.404-.394.631-.928.631-1.485v-6.3c0-.557-.227-1.091-.63-1.485a2.182 2.182 0 00-1.524-.615z" fill="#236FE3"/></svg>