<svg width="60" height="60" fill="none" xmlns="http://www.w3.org/2000/svg"><circle cx="30" cy="30" r="30" fill="#EFEFEF"/><path d="M34.753 12.533c-2.553.055-5.077.475-7.059 1.28-.99.402-1.852.897-2.516 1.556-.663.658-1.132 1.539-1.134 2.526v.009l.049 9.48c.001.262.102.513.279.698a.917.917 0 00.666.286.918.918 0 00.663-.294c.175-.187.273-.439.272-.701l-.005-1.022c.726.51 1.59.908 2.526 1.225 1.907.644 4.178.95 6.459.95 2.28.001 4.566-.303 6.496-.946.999-.332 1.912-.756 2.679-1.3l.013 2.404c-.42.817-1.587 1.652-3.258 2.208-1.684.56-3.811.856-5.93.855a20.21 20.21 0 01-2.848-.197.894.894 0 00-.695.197.977.977 0 00-.241.29 1.023 1.023 0 00-.093.752.982.982 0 00.439.6.91.91 0 00.348.123c1.033.141 2.004.213 3.09.213 2.28 0 4.566-.304 6.496-.947 1.012-.336 1.934-.769 2.707-1.325l.012 2.384a.578.578 0 00-.014.027c-.412.823-1.588 1.666-3.27 2.227-1.684.56-3.812.855-5.93.855-.996 0-1.898-.065-2.851-.193a.894.894 0 00-.694.199.976.976 0 00-.24.29 1.025 1.025 0 00-.092.752c.032.125.088.243.163.345.076.103.17.19.277.254a.909.909 0 00.347.122 22.76 22.76 0 003.089.209c2.28 0 4.566-.304 6.496-.947 1.026-.341 1.956-.782 2.734-1.348l.013 2.348c-.005.33-.19.667-.824 1.09-.635.422-1.651.815-2.865 1.092-2.427.555-5.641.684-8.422.368a.895.895 0 00-.69.213 1.004 1.004 0 00-.346.664 1.04 1.04 0 00.203.727.928.928 0 00.63.363c2.985.34 6.327.215 9.024-.402 1.349-.308 2.537-.731 3.47-1.353.935-.623 1.684-1.56 1.7-2.736v-.019l-.114-21.091a.906.906 0 00-.005-.1c-.105-1.047-.624-1.957-1.343-2.646-.72-.688-1.636-1.194-2.67-1.582-2.07-.777-4.639-1.087-7.191-1.032zm.038 1.978c2.377-.051 4.776.262 6.521.917.873.328 1.575.74 2.037 1.183.457.437.679.866.734 1.375l.003.43c-.453.792-1.584 1.593-3.203 2.132-1.683.56-3.811.855-5.93.855-2.117-.001-4.231-.297-5.884-.856-1.652-.559-2.77-1.394-3.134-2.192a1.934 1.934 0 00-.01-.02l-.002-.434c0-.365.142-.693.544-1.093.403-.4 1.064-.809 1.903-1.15 1.679-.68 4.045-1.095 6.421-1.147zm9.31 6.647l.012 2.365c-.437.805-1.585 1.623-3.23 2.17-1.684.56-3.811.856-5.93.855-2.117 0-4.231-.297-5.884-.856-1.633-.552-2.74-1.376-3.116-2.165l-.012-2.338c.73.52 1.605.921 2.553 1.241 1.907.645 4.178.95 6.459.951 2.28 0 4.566-.304 6.496-.947.986-.327 1.89-.742 2.651-1.276z" fill="#236FE3"/><path d="M21.173 27.982c-5.2 0-9.437 4.46-9.437 9.934 0 5.475 4.236 9.934 9.437 9.934s9.438-4.46 9.438-9.934c0-5.474-4.237-9.934-9.438-9.934zm0 1.978c4.186 0 7.558 3.55 7.558 7.956 0 4.406-3.372 7.956-7.558 7.956-4.185 0-7.558-3.55-7.558-7.956 0-4.405 3.373-7.956 7.558-7.956z" fill="#236FE3"/><path d="M21.173 31.269a.898.898 0 00-.36.075.938.938 0 00-.305.215 1.033 1.033 0 00-.275.7v.288a2.996 2.996 0 00-1.827 1.975c-.293.975-.096 2.133.578 2.884.965.786 1.947 1.55 2.905 2.346.512.491.337 1.482-.31 1.744-.55.275-1.246-.096-1.4-.707-.238-.6-1.064-.767-1.497-.304-.358.334-.366.915-.133 1.328a2.934 2.934 0 001.684 1.584v.177c0 .262.1.514.276.7a.917.917 0 00.664.289c.25 0 .488-.104.665-.29.176-.185.275-.437.275-.7v-.169c1.093-.39 1.918-1.515 1.955-2.74.055-1.014-.412-2.035-1.198-2.623-.02-.018-.22-.177-.307-.248l-2.236-1.795c-.41-.574-.044-1.48.617-1.608.526-.146 1.067.235 1.23.762.289.575 1.126.662 1.517.16.324-.364.282-.928.035-1.323a2.953 2.953 0 00-1.613-1.44v-.29c0-.13-.024-.259-.072-.379a.993.993 0 00-.203-.321.902.902 0 00-.665-.29z" fill="#236FE3"/></svg>