<svg width="60" height="60" fill="none" xmlns="http://www.w3.org/2000/svg"><circle cx="30" cy="30" r="30" fill="#EFEFEF"/><g clip-path="url(#clip0_334_1664)" stroke="#236FE3" stroke-width="2.5" stroke-linecap="round" stroke-linejoin="round"><path d="M13.5 20.833a3.667 3.667 0 107.333 0 3.667 3.667 0 00-7.333 0zM33.667 35.5a3.667 3.667 0 107.333 0 3.667 3.667 0 00-7.333 0zM35.5 19a5.5 5.5 0 1011 0 5.5 5.5 0 00-11 0zm-22 22a5.5 5.5 0 1011 0 5.5 5.5 0 00-11 0zm11-1.833l9.167-2.75m-13.75-12.834l14.318 9.845M20.833 20.833L35.5 19"/></g><defs><clipPath id="clip0_334_1664"><path fill="#fff" transform="translate(8 8)" d="M0 0h44v44H0z"/></clipPath></defs></svg>