<svg width="60" height="60" fill="none" xmlns="http://www.w3.org/2000/svg"><circle cx="30" cy="30" r="30" fill="#EFEFEF"/><g clip-path="url(#clip0_334_1635)" fill="#236FE3"><path d="M45.022 39.254a1.484 1.484 0 00-2.077.305c-.27.363-.556.715-.856 1.054a1.484 1.484 0 002.225 1.967c.355-.402.693-.82 1.013-1.25a1.484 1.484 0 00-.305-2.076zm2.483-6.962a1.485 1.485 0 00-1.766 1.135c-.097.442-.212.88-.345 1.312a1.484 1.484 0 102.836.877c.159-.514.295-1.033.41-1.558a1.484 1.484 0 00-1.135-1.766zm-9.628 11.716c-.395.22-.8.424-1.212.61a1.484 1.484 0 001.222 2.706c.489-.22.969-.463 1.438-.724a1.484 1.484 0 10-1.448-2.592zm-9.361-25.883v11.26l-5.443 5.443a1.484 1.484 0 102.099 2.1l5.878-5.878c.278-.279.434-.656.434-1.05V18.125a1.484 1.484 0 00-2.968 0z"/><path d="M47.516 14.191c-.82 0-1.485.665-1.485 1.485v4.122A19.044 19.044 0 0030 11a18.876 18.876 0 00-13.435 5.565A18.876 18.876 0 0011 30c0 5.075 1.976 9.846 5.565 13.435A18.876 18.876 0 0030 49l.037-.002.037.002c.535 0 1.075-.023 1.606-.067a1.485 1.485 0 00-.248-2.958c-.448.037-.905.056-1.358.056l-.037.002-.037-.002c-8.84 0-16.031-7.191-16.031-16.031S21.16 13.969 30 13.969a16.07 16.07 0 0113.8 7.867h-4.082a1.484 1.484 0 000 2.969h4.532a4.721 4.721 0 002.603-.78A4.749 4.749 0 0049 20.055v-4.38c0-.819-.665-1.484-1.484-1.484z"/></g><defs><clipPath id="clip0_334_1635"><path fill="#fff" transform="translate(11 11)" d="M0 0h38v38H0z"/></clipPath></defs></svg>