<svg width="60" height="60" fill="none" xmlns="http://www.w3.org/2000/svg"><circle cx="30" cy="30" r="30" fill="#EFEFEF"/><g clip-path="url(#clip0_334_1589)"><path d="M22.566 15.289a4.247 4.247 0 00-2.23-.51h-3.467v5.226h-1.25v1.734h1.25v1.276h-1.25v1.438h1.25v1.613h1.881v-1.613h2.311v-1.438H18.75V21.74h1.613a4.166 4.166 0 001.733-.31c.447-.18.847-.46 1.169-.819.294-.327.518-.712.658-1.129a3.46 3.46 0 00.202-1.21 4.03 4.03 0 00-.363-1.665 2.85 2.85 0 00-1.196-1.317zm-.537 3.79a1.46 1.46 0 01-.591.671c-.31.192-.671.285-1.035.269H18.75v-3.494h1.693c.38-.023.756.076 1.075.282.24.173.427.41.538.686.093.249.143.513.147.779 0 .278-.059.553-.174.806zm21.11 22.413c.215.467.32.977.31 1.491a3.266 3.266 0 01-.39 1.626 2.903 2.903 0 01-1.035 1.102c-.449.288-.952.48-1.478.565v1.343h-1.828v-1.384a3.87 3.87 0 01-1.895-.954 4.207 4.207 0 01-1.115-1.747l1.707-.631c.212.476.534.896.94 1.223a2.25 2.25 0 001.344.47c.483.037.962-.107 1.344-.403a1.438 1.438 0 00.484-1.17c.01-.327-.1-.647-.31-.9a2.594 2.594 0 00-.806-.631 9.41 9.41 0 00-1.102-.51 18.01 18.01 0 01-1.142-.484 5.373 5.373 0 01-1.035-.632 2.756 2.756 0 01-.739-.927 2.862 2.862 0 01-.282-1.344 2.754 2.754 0 01.672-1.814 3.158 3.158 0 011.935-1.021v-1.344h1.828v1.344a2.98 2.98 0 012.391 2.27l-1.68.552a1.693 1.693 0 00-.644-.807 1.84 1.84 0 00-1.156-.336c-.381-.024-.76.08-1.075.296a.994.994 0 00-.39.86c-.005.27.097.53.283.726.219.222.479.4.766.524.334.17.68.319 1.034.443.39.146.77.312 1.142.497.388.187.753.417 1.089.686.343.28.626.628.833 1.02zM19.422 9.336a11.085 11.085 0 1011.086 11.086A11.1 11.1 0 0019.422 9.336zm0 20.156a9.07 9.07 0 119.07-9.07 9.084 9.084 0 01-9.07 9.07zm20.156 0a11.086 11.086 0 1011.086 11.086 11.1 11.1 0 00-11.086-11.086zm0 20.156a9.07 9.07 0 119.07-9.07 9.084 9.084 0 01-9.07 9.07zm-6.302-33.795l-.968-.242.498-1.962.98.256a17.146 17.146 0 0112.31 12.308l.255.981-1.962.498-.242-.968a15.104 15.104 0 00-10.871-10.87zm-7.552 29.294l.968.242-.498 1.962-.98-.256a17.146 17.146 0 01-12.31-12.308l-.255-.981 1.962-.498.242.968a15.104 15.104 0 0010.871 10.87z" fill="#236FE3"/></g><defs><clipPath id="clip0_334_1589"><path fill="#fff" transform="translate(8 9)" d="M0 0h43v43H0z"/></clipPath></defs></svg>