<svg width="177" height="42" fill="none" xmlns="http://www.w3.org/2000/svg"><path d="M23.87 23.663c.173.442.213.925.115 1.39a2.504 2.504 0 01-2.204 2.098c-.516.049-1.142 0-1.88-.134l-1.275-.25a2.735 2.735 0 01-.77-.213.4.4 0 01-.16-.276c.014-.32.053-.64.116-.953l.707-3.786 2.262.419c.991.191 1.71.423 2.155.69.45.267.756.615.934 1.015zm.12-7.959c-.4-.222-1.165-.436-2.285-.645l-1.91-.361-.8 4.262 1.915.361c1 .183 1.755.24 2.266.16.454-.058.88-.252 1.222-.556a1.97 1.97 0 00.578-1.105 2.008 2.008 0 00-.124-1.243 1.801 1.801 0 00-.862-.873zM40.94 21c0 2.661-.523 5.296-1.539 7.755a20.258 20.258 0 01-4.383 6.574 20.209 20.209 0 01-6.56 4.392 20.172 20.172 0 01-7.74 1.54 20.17 20.17 0 01-14.294-5.934A20.29 20.29 0 01.507 21 20.29 20.29 0 016.424 6.673 20.17 20.17 0 0120.72.74a20.173 20.173 0 0114.298 5.93 20.26 20.26 0 014.383 6.574A20.297 20.297 0 0140.94 21zm-11.897-5.353a4.557 4.557 0 00-1.716-1.902 5.747 5.747 0 00-1.111-.548l.573-3.078-2.95-.556-.543 2.877-1.897-.356.542-2.878-2.955-.556-.543 2.881-4.51-.846-.45 2.418.69.13c.32.03.63.133.906.298a.69.69 0 01.28.4c.03.342.001.685-.084 1.016l-1.822 9.745c-.036.335-.13.66-.28.962a.751.751 0 01-.41.276 2.289 2.289 0 01-.95-.066l-.693-.116-.45 2.41 4.507.837-.533 2.877 2.955.556.533-2.877 1.68.312.218.04-.533 2.877 2.95.548.587-3.113a9.44 9.44 0 001.373-.12c1.098-.219 1.996-.668 2.702-1.35a4.31 4.31 0 001.311-2.4 4.147 4.147 0 00-1.373-3.969 7.647 7.647 0 00-1.742-1.033c.809-.12 1.48-.33 2.018-.646a4.084 4.084 0 001.995-2.757 3.66 3.66 0 00-.276-2.293zm37.352 9.9c0 7.327-4.782 15.7-14.897 15.7-5.333 0-8-2.316-8-6.311 0-1.39.228-2.766.503-4.098l4.555-22.812h6.662l-2.662 12.867h.093a9.034 9.034 0 016.942-3.193c4.693.013 6.804 3.839 6.804 7.847zm-6.946 1.381c0-2.16-.92-3.87-2.938-3.87-2.395 0-4.733 2.445-5.52 6.364l-.413 1.844c-.093.74-.275 1.523-.23 2.494.044 1.604 1.008 2.485 2.528 2.485 3.822-.013 6.573-5.353 6.573-9.317zm8.754 13.825h6.622L79.1 18.216h-6.62l-4.276 22.537zm9.013-32.34a3.756 3.756 0 00-2.698 1.088 3.773 3.773 0 00-1.12 2.69c0 1.977 1.378 3.228 3.214 3.228 2.12 0 3.906-1.385 3.906-3.732.004-1.99-1.378-3.273-3.302-3.273zm15.91 3.497l-6.76 1.576-.92 4.735H82.55l-.92 5.024h2.853l-1.751 8.988a22.042 22.042 0 00-.458 4.19c0 2.81 1.889 4.837 5.84 4.837 1.422 0 3.07-.187 3.906-.503l.791-5.21c-.604.093-1.24.093-1.84.093-1.43 0-1.893-.793-1.893-1.898 0-.783.182-1.941.369-2.859l1.524-7.652h4.773l.973-5.024h-4.781l1.19-6.297zm3.786 20.095c0 5.844 3.906 9.206 9.461 9.206 2.676 0 4.973-.463 6.391-1.153l-.045-5.073c-1.155.463-2.528.922-4.457.922-2.489 0-4.413-1.572-4.413-4.659 0-4.23 2.889-8.248 7.63-8.248 1.338 0 2.258.231 3.04.552l1.604-5.068c-.964-.419-2.622-.793-4.546-.793-8.555.022-14.665 6.293-14.665 14.314zm42.525-5.028c0 8.248-5.604 14.283-13.426 14.283-5.692 0-9.519-3.732-9.519-9.312 0-7.83 5.422-14.235 13.426-14.235 6.03 0 9.519 4.147 9.519 9.264zm-6.848.04c0-2.07-.867-4.28-3.538-4.28-3.813 0-5.742 5.576-5.688 9.072 0 2.628 1.284 4.378 3.586 4.378 3.626.005 5.64-5.295 5.64-9.17zm17.842-18.603a3.749 3.749 0 00-3.521 2.32 3.772 3.772 0 00-.287 1.456c0 1.978 1.386 3.23 3.222 3.23 2.124 0 3.906-1.386 3.906-3.733.005-1.99-1.382-3.273-3.32-3.273zm-8.999 32.339h6.613l4.284-22.537h-6.622l-4.275 22.537zm29.655-23.04c-2.99 0-5.79 1.292-7.901 4.24h-.093l.462-3.732h-5.875a139.669 139.669 0 01-1.205 7.33l-2.857 15.206h6.621l1.885-10.003c.92-4.962 3.453-7.696 5.617-7.696 1.658 0 2.209 1.109 2.209 2.676 0 .838-.094 1.76-.24 2.535l-2.338 12.488h6.617l2.489-13.085c.182-1.105.369-2.806.369-3.808-.009-3.893-2.08-6.15-5.76-6.15z" fill="#EFEFEF"/></svg>