<svg width="40" height="40" fill="none" xmlns="http://www.w3.org/2000/svg"><circle cx="20" cy="20" r="20" fill="#EFEFEF"/><g clip-path="url(#clip0_442_8396)"><path d="M32.252 26.49l-3.758-3.759a2.678 2.678 0 00-1.903-.778c-.751 0-1.461.296-1.998.832l-1.462 1.463c-1.137-.632-2.648-1.5-4.216-3.07-1.567-1.567-2.436-3.073-3.071-4.216l1.464-1.463c1.089-1.09 1.111-2.84.05-3.9L13.601 7.84a2.666 2.666 0 00-1.903-.783 2.81 2.81 0 00-1.963.798c-.323.26-1.942 1.69-2.546 4.637-.845 4.127 1.097 8.097 6.701 13.704 6.261 6.258 11.606 6.745 13.095 6.745.31 0 .497-.02.547-.025 2.92-.342 3.965-1.639 4.729-2.586.989-1.227.985-2.842-.01-3.84zm-1.247 2.829c-.718.89-1.395 1.73-3.66 1.995-.002 0-.126.014-.36.014-1.332 0-6.132-.452-11.954-6.272-5.168-5.171-6.982-8.717-6.261-12.24.526-2.57 1.924-3.663 1.978-3.705l.048-.035.043-.043a1.21 1.21 0 01.859-.361c.292 0 .562.11.761.309l3.758 3.758c.433.432.41 1.159-.05 1.62l-1.656 1.654-.027.029c-.432.475-.381 1.117-.144 1.536.686 1.238 1.626 2.933 3.434 4.741 1.802 1.802 3.494 2.74 4.729 3.425.123.07.378.186.698.186.377 0 .723-.16.98-.45l1.553-1.554c.232-.232.536-.36.857-.36.293 0 .564.11.763.308l3.755 3.757c.477.478.28 1.21-.104 1.688zM22.752 11.01c1.386.16 3.018 1 4.158 2.14 1.15 1.15 1.991 2.798 2.143 4.2a.807.807 0 001.604-.175c-.192-1.771-1.19-3.75-2.607-5.167-1.402-1.402-3.362-2.399-5.114-2.6a.807.807 0 10-.184 1.602zm-.754 3.38c.75.086 1.787.642 2.467 1.322.685.685 1.242 1.732 1.324 2.49a.807.807 0 101.604-.174c-.14-1.293-.999-2.668-1.788-3.457-.781-.782-2.143-1.637-3.423-1.784a.806.806 0 10-.184 1.602z" fill="#236FE3"/></g><defs><clipPath id="clip0_442_8396"><path fill="#fff" transform="translate(7 7)" d="M0 0h26v26H0z"/></clipPath></defs></svg>