<svg width="40" height="40" fill="none" xmlns="http://www.w3.org/2000/svg"><circle cx="20" cy="20" r="20" fill="#EFEFEF"/><path d="M30.715 11H9.285A2.284 2.284 0 007 13.275v13.65A2.284 2.284 0 009.285 29.2h21.43A2.283 2.283 0 0033 26.925v-13.65A2.282 2.282 0 0030.715 11zm-.32 1.517l-8.78 8.694a2.276 2.276 0 01-1.615.666c-.61 0-1.184-.237-1.617-.668l-8.778-8.692h20.79zm-21.872 14.1V13.584l6.584 6.519-6.584 6.512zm1.083 1.066l6.58-6.51 1.12 1.11A3.792 3.792 0 0020 23.393a3.791 3.791 0 002.692-1.109l1.121-1.11 6.58 6.51H9.607zm21.87-1.067l-6.583-6.512 6.584-6.52v13.032z" fill="#236FE3"/></svg>