<svg width="1920" height="747" fill="none" xmlns="http://www.w3.org/2000/svg"><path d="M1081 1.562c77.6 253.271 226.76 673.992 202.66 330.714-30.12-429.098 175.82-477.105 335.6-352.05 159.77 125.054 108.69 596.825 267.49 337.233 158.79-259.593 307.1-401.243 216.41-365.09-127.88 50.978-5.24 379.907 102.48 294.561 34.4-27.258 99.53-206.449 127.36-294.56" stroke="#EFEFEF" stroke-opacity=".5"/><path d="M1081 13.413c77.6 253.271 226.76 673.992 202.66 330.714-30.12-429.098 175.82-477.105 335.6-352.05 159.77 125.054 108.69 596.825 267.49 337.233 158.79-259.593 307.1-401.243 216.41-365.09-127.88 50.978-5.24 379.907 102.48 294.561 34.4-27.258 99.53-206.449 127.36-294.56" stroke="#EFEFEF" stroke-opacity=".5"/><path d="M1081 25.264c77.6 253.27 226.76 673.992 202.66 330.713-30.12-429.098 175.82-477.104 335.6-352.05 159.77 125.055 108.69 596.826 267.49 337.234 158.79-259.593 307.1-401.243 216.41-365.09-127.88 50.978-5.24 379.906 102.48 294.561 34.4-27.258 99.53-206.45 127.36-294.56" stroke="#EFEFEF" stroke-opacity=".5"/><path d="M1081 37.115c77.6 253.27 226.76 673.992 202.66 330.713-30.12-429.098 175.82-477.105 335.6-352.05 159.77 125.055 108.69 596.826 267.49 337.233 158.79-259.592 307.1-401.242 216.41-365.089-127.88 50.977-5.24 379.906 102.48 294.561 34.4-27.258 99.53-206.45 127.36-294.56" stroke="#EFEFEF" stroke-opacity=".5"/><path d="M1081 47.18c77.6 247.729 226.76 659.245 202.66 323.478-30.12-419.709 175.82-466.665 335.6-344.347 159.77 122.318 108.69 583.766 267.49 329.854 158.79-253.912 307.1-392.462 216.41-357.1-127.88 49.861-5.24 371.593 102.48 288.115 34.4-26.662 99.53-201.932 127.36-288.115" stroke="#EFEFEF" stroke-opacity=".5"/><path d="M1081 59.031c77.6 247.729 226.76 659.244 202.66 323.477-30.12-419.708 175.82-466.665 335.6-344.346 159.77 122.318 108.69 583.766 267.49 329.854 158.79-253.912 307.1-392.463 216.41-357.1-127.88 49.861-5.24 371.592 102.48 288.114 34.4-26.661 99.53-201.931 127.36-288.114" stroke="#EFEFEF" stroke-opacity=".5"/><path d="M1081 70.882c77.6 247.729 226.76 659.244 202.66 323.477-30.12-419.708 175.82-466.665 335.6-344.346 159.77 122.318 108.69 583.766 267.49 329.853 158.79-253.912 307.1-392.462 216.41-357.1-127.88 49.862-5.24 371.593 102.48 288.115 34.4-26.661 99.53-201.931 127.36-288.115" stroke="#EFEFEF" stroke-opacity=".5"/><path d="M1081 82.733c77.6 247.728 226.76 659.244 202.66 323.477-30.12-419.709 175.82-466.665 335.6-344.347 159.77 122.319 108.69 583.766 267.49 329.854 158.79-253.912 307.1-392.462 216.41-357.1-127.88 49.861-5.24 371.593 102.48 288.115 34.4-26.662 99.53-201.932 127.36-288.115" stroke="#EFEFEF" stroke-opacity=".5"/><path d="M1081 94.584c77.6 247.728 226.76 659.244 202.66 323.477-30.12-419.709 175.82-466.665 335.6-344.347 159.77 122.319 108.69 583.766 267.49 329.854 158.79-253.912 307.1-392.462 216.41-357.1-127.88 49.861-5.24 371.593 102.48 288.115 34.4-26.662 99.53-201.932 127.36-288.115" stroke="#EFEFEF" stroke-opacity=".5"/><path d="M1081 106.434c77.6 247.729 226.76 659.244 202.66 323.478-30.12-419.71 175.82-466.665 335.6-344.347 159.77 122.318 108.69 583.766 267.49 329.854 158.79-253.912 307.1-392.462 216.41-357.1-127.88 49.861-5.24 371.593 102.48 288.115 34.4-26.662 99.53-201.932 127.36-288.115" stroke="#EFEFEF" stroke-opacity=".5"/><path d="M1081 118.285c77.6 247.729 226.76 659.244 202.66 323.477-30.12-419.708 175.82-466.665 335.6-344.346 159.77 122.318 108.69 583.766 267.49 329.854 158.79-253.913 307.1-392.463 216.41-357.1-127.88 49.861-5.24 371.592 102.48 288.114 34.4-26.661 99.53-201.931 127.36-288.115" stroke="#EFEFEF" stroke-opacity=".5"/><path d="M1081 130.136c77.6 247.729 226.76 659.244 202.66 323.477-30.12-419.708 175.82-466.665 335.6-344.346 159.77 122.318 108.69 583.766 267.49 329.854 158.79-253.913 307.1-392.463 216.41-357.1-127.88 49.861-5.24 371.592 102.48 288.114 34.4-26.661 99.53-201.931 127.36-288.115" stroke="#EFEFEF" stroke-opacity=".5"/><path d="M1081 141.987c77.6 247.728 226.76 659.244 202.66 323.477-30.12-419.709 175.82-466.665 335.6-344.347 159.77 122.319 108.69 583.766 267.49 329.854 158.79-253.912 307.1-392.462 216.41-357.1-127.88 49.861-5.24 371.593 102.48 288.115 34.4-26.662 99.53-201.932 127.36-288.115" stroke="#EFEFEF" stroke-opacity=".5"/><path d="M1081 153.838c77.6 247.728 226.76 659.244 202.66 323.477-30.12-419.709 175.82-466.665 335.6-344.347 159.77 122.319 108.69 583.766 267.49 329.854 158.79-253.912 307.1-392.462 216.41-357.1-127.88 49.861-5.24 371.593 102.48 288.115 34.4-26.662 99.53-201.932 127.36-288.115" stroke="#EFEFEF" stroke-opacity=".5"/><path d="M1081 165.688c77.6 247.729 226.76 659.244 202.66 323.478-30.12-419.709 175.82-466.665 335.6-344.347 159.77 122.318 108.69 583.766 267.49 329.854 158.79-253.912 307.1-392.462 216.41-357.1-127.88 49.861-5.24 371.593 102.48 288.115 34.4-26.662 99.53-201.932 127.36-288.115" stroke="#EFEFEF" stroke-opacity=".5"/><path d="M1081 177.539c77.6 247.729 226.76 659.244 202.66 323.477-30.12-419.708 175.82-466.665 335.6-344.346 159.77 122.318 108.69 583.766 267.49 329.854 158.79-253.912 307.1-392.463 216.41-357.101-127.88 49.862-5.24 371.593 102.48 288.115 34.4-26.661 99.53-201.931 127.36-288.115" stroke="#EFEFEF" stroke-opacity=".5"/><path d="M1081 189.39c77.6 247.729 226.76 659.244 202.66 323.477-30.12-419.708 175.82-466.665 335.6-344.346 159.77 122.318 108.69 583.766 267.49 329.853 158.79-253.912 307.1-392.462 216.41-357.1-127.88 49.862-5.24 371.593 102.48 288.115 34.4-26.661 99.53-201.931 127.36-288.115" stroke="#EFEFEF" stroke-opacity=".5"/><path d="M1081 201.241c77.6 247.728 226.76 659.244 202.66 323.477-30.12-419.709 175.82-466.665 335.6-344.347 159.77 122.319 108.69 583.766 267.49 329.854 158.79-253.912 307.1-392.462 216.41-357.1-127.88 49.861-5.24 371.593 102.48 288.115 34.4-26.662 99.53-201.932 127.36-288.115" stroke="#EFEFEF" stroke-opacity=".5"/><path d="M-171 96.368C-85.766 349.64 78.086 770.362 51.617 427.082 18.53-2.016 244.743-50.023 420.247 75.032s119.4 596.826 293.826 337.233C888.498 152.673 1051.41 11.023 951.794 47.176c-140.466 50.977-5.754 379.906 112.566 294.561 37.79-27.258 109.33-206.449 139.9-294.56" stroke="#EFEFEF" stroke-opacity=".5"/><path d="M-171 108.219C-85.766 361.49 78.086 782.211 51.617 438.933 18.53 9.835 244.743-38.172 420.247 86.883s119.4 596.825 293.826 337.233C888.498 164.524 1051.41 22.874 951.794 59.027c-140.466 50.977-5.754 379.906 112.566 294.56 37.79-27.258 109.33-206.449 139.9-294.56" stroke="#EFEFEF" stroke-opacity=".5"/><path d="M-171 120.07C-85.766 373.341 78.086 794.062 51.617 450.784 18.53 21.686 244.743-26.321 420.247 98.734s119.4 596.825 293.826 337.233C888.498 176.374 1051.41 34.725 951.794 70.877c-140.466 50.978-5.754 379.907 112.566 294.561 37.79-27.258 109.33-206.449 139.9-294.56" stroke="#EFEFEF" stroke-opacity=".5"/><path d="M-171 131.921c85.234 253.27 249.086 673.992 222.617 330.713C18.53 33.536 244.743-14.471 420.247 110.584s119.4 596.826 293.826 337.233C888.498 188.225 1051.41 46.575 951.794 82.728c-140.466 50.977-5.754 379.906 112.566 294.561 37.79-27.258 109.33-206.449 139.9-294.56" stroke="#EFEFEF" stroke-opacity=".5"/><path d="M-171 141.987C-85.766 389.715 78.086 801.231 51.617 465.464 18.53 45.755 244.743-1.201 420.247 121.117c175.504 122.319 119.4 583.766 293.826 329.854 174.425-253.912 337.337-392.462 237.721-357.1-140.466 49.861-5.754 371.593 112.566 288.115 37.79-26.662 109.33-201.932 139.9-288.115" stroke="#EFEFEF" stroke-opacity=".5"/><path d="M-171 153.838C-85.766 401.566 78.086 813.082 51.617 477.315 18.53 57.606 244.743 10.65 420.247 132.968c175.504 122.319 119.4 583.766 293.826 329.854C888.498 208.91 1051.41 70.36 951.794 105.722c-140.466 49.861-5.754 371.593 112.566 288.115 37.79-26.662 109.33-201.932 139.9-288.115" stroke="#EFEFEF" stroke-opacity=".5"/><path d="M-171 165.688C-85.766 413.417 78.086 824.932 51.617 489.166 18.53 69.457 244.743 22.501 420.247 144.819c175.504 122.318 119.4 583.766 293.826 329.854 174.425-253.912 337.337-392.462 237.721-357.1-140.466 49.861-5.754 371.593 112.566 288.115 37.79-26.662 109.33-201.932 139.9-288.115" stroke="#EFEFEF" stroke-opacity=".5"/><path d="M-171 177.539C-85.766 425.268 78.086 836.783 51.617 501.016 18.53 81.308 244.743 34.351 420.247 156.67c175.504 122.318 119.4 583.766 293.826 329.854C888.498 232.612 1051.41 94.061 951.794 129.423c-140.466 49.862-5.754 371.593 112.566 288.115 37.79-26.661 109.33-201.931 139.9-288.115" stroke="#EFEFEF" stroke-opacity=".5"/><path d="M-171 189.39C-85.766 437.119 78.086 848.634 51.617 512.867 18.53 93.159 244.743 46.202 420.247 168.521c175.504 122.318 119.4 583.766 293.826 329.853 174.425-253.912 337.337-392.462 237.721-357.1-140.466 49.862-5.754 371.593 112.566 288.115 37.79-26.661 109.33-201.931 139.9-288.115" stroke="#EFEFEF" stroke-opacity=".5"/><path d="M-171 201.241C-85.766 448.969 78.086 860.485 51.617 524.718 18.53 105.009 244.743 58.053 420.247 180.371c175.504 122.319 119.4 583.766 293.826 329.854 174.425-253.912 337.337-392.462 237.721-357.1-140.466 49.861-5.754 371.593 112.566 288.115 37.79-26.662 109.33-201.932 139.9-288.115" stroke="#EFEFEF" stroke-opacity=".5"/><path d="M-171 213.091C-85.766 460.82 78.086 872.335 51.617 536.569 18.53 116.86 244.743 69.904 420.247 192.222c175.504 122.318 119.4 583.766 293.826 329.854 174.425-253.912 337.337-392.462 237.721-357.1-140.466 49.861-5.754 371.593 112.566 288.115 37.79-26.662 109.33-201.932 139.9-288.115" stroke="#EFEFEF" stroke-opacity=".5"/><path d="M-171 224.942C-85.766 472.671 78.086 884.186 51.617 548.419 18.53 128.711 244.743 81.755 420.247 204.073c175.504 122.318 119.4 583.766 293.826 329.854 174.425-253.912 337.337-392.463 237.721-357.1-140.466 49.861-5.754 371.592 112.566 288.115 37.79-26.662 109.33-201.932 139.9-288.115" stroke="#EFEFEF" stroke-opacity=".5"/><path d="M-171 236.793C-85.766 484.522 78.086 896.037 51.617 560.27 18.53 140.562 244.743 93.605 420.247 215.924c175.504 122.318 119.4 583.766 293.826 329.853 174.425-253.912 337.337-392.462 237.721-357.1-140.466 49.862-5.754 371.593 112.566 288.115 37.79-26.661 109.33-201.931 139.9-288.115" stroke="#EFEFEF" stroke-opacity=".5"/><path d="M-171 248.644C-85.766 496.373 78.086 907.888 51.617 572.121 18.53 152.412 244.743 105.456 420.247 227.774c175.504 122.319 119.4 583.766 293.826 329.854 174.425-253.912 337.337-392.462 237.721-357.1-140.466 49.862-5.754 371.593 112.566 288.115 37.79-26.662 109.33-201.932 139.9-288.115" stroke="#EFEFEF" stroke-opacity=".5"/><path d="M-171 260.495C-85.766 508.223 78.086 919.739 51.617 583.972 18.53 164.263 244.743 117.307 420.247 239.625c175.504 122.319 119.4 583.766 293.826 329.854 174.425-253.912 337.337-392.462 237.721-357.1-140.466 49.861-5.754 371.593 112.566 288.115 37.79-26.662 109.33-201.932 139.9-288.115" stroke="#EFEFEF" stroke-opacity=".5"/><path d="M-171 272.346C-85.766 520.074 78.086 931.59 51.617 595.823 18.53 176.114 244.743 129.158 420.247 251.476c175.504 122.318 119.4 583.766 293.826 329.854 174.425-253.912 337.337-392.462 237.721-357.1-140.466 49.861-5.754 371.593 112.566 288.115 37.79-26.662 109.33-201.932 139.9-288.115" stroke="#EFEFEF" stroke-opacity=".5"/><path d="M-171 284.196C-85.766 531.925 78.086 943.44 51.617 607.673 18.53 187.965 244.743 141.008 420.247 263.327c175.504 122.318 119.4 583.766 293.826 329.854 174.425-253.912 337.337-392.463 237.721-357.1-140.466 49.861-5.754 371.592 112.566 288.114 37.79-26.661 109.33-201.931 139.9-288.114" stroke="#EFEFEF" stroke-opacity=".5"/><path d="M-171 296.047C-85.766 543.776 78.086 955.291 51.617 619.524 18.53 199.816 244.743 152.859 420.247 275.178c175.504 122.318 119.4 583.766 293.826 329.853 174.425-253.912 337.337-392.462 237.721-357.1-140.466 49.862-5.754 371.593 112.566 288.115 37.79-26.661 109.33-201.931 139.9-288.115" stroke="#EFEFEF" stroke-opacity=".5"/></svg>