<svg width="40" height="40" fill="none" xmlns="http://www.w3.org/2000/svg"><circle cx="20" cy="20" r="20" fill="#EFEFEF"/><path d="M20 10.943a5.674 5.674 0 00-5.667 5.667A5.673 5.673 0 0020 22.277a5.673 5.673 0 005.667-5.667A5.674 5.674 0 0020 10.943zm0 9.81a4.147 4.147 0 01-4.143-4.143A4.147 4.147 0 0120 12.467a4.148 4.148 0 014.143 4.143A4.147 4.147 0 0120 20.753z" fill="#236FE3"/><path d="M20 7c-5.299 0-9.61 4.31-9.61 9.61 0 3.056 2.563 7.608 4.09 10.05 1.006 1.607 2.086 3.136 3.042 4.305C19.057 32.843 19.606 33 20 33c.4 0 .919-.157 2.449-2.036.958-1.176 2.038-2.704 3.043-4.302 1.538-2.448 4.118-7.01 4.118-10.052C29.61 11.31 25.299 7 20 7zm4.435 18.475c-1.971 3.2-3.78 5.36-4.444 5.913-.667-.535-2.447-2.646-4.445-5.903-2.308-3.762-3.631-6.997-3.631-8.875 0-4.459 3.627-8.086 8.085-8.086 4.458 0 8.085 3.627 8.085 8.086 0 1.868-1.33 5.099-3.65 8.865z" fill="#236FE3"/></svg>