<svg width="377" height="60" fill="none" xmlns="http://www.w3.org/2000/svg"><circle cx="30.48" cy="29.845" r="29.845" fill="#EFEFEF"/><path d="M30.616 38.22v-2.07" stroke="#14044D" stroke-width=".131" stroke-linecap="round" stroke-linejoin="round"/><path fill-rule="evenodd" clip-rule="evenodd" d="M30.616 27.07l10.636 4.799-10.636 6.35V27.072z" fill="#14044D" fill-opacity=".796" stroke="#14044D" stroke-width=".044" stroke-linecap="round" stroke-linejoin="round"/><path fill-rule="evenodd" clip-rule="evenodd" d="M30.616 27.07v11.15L20 31.889l10.616-4.818z" fill="url(#paint0_linear_486_12996)" fill-opacity=".796" stroke="#14044D" stroke-width=".044" stroke-linecap="round" stroke-linejoin="round"/><path d="M30.616 38.22V47l10.617-15.13-10.617 6.35z" fill="#37367B" fill-opacity=".797" stroke="#14044D" stroke-width=".044" stroke-linecap="round" stroke-linejoin="round"/><path d="M20 31.889l10.616 15.11V38.22L20 31.89z" fill="#716B94" fill-opacity=".801" stroke="#14044D" stroke-width=".044" stroke-linecap="round" stroke-linejoin="round"/><path fill-rule="evenodd" clip-rule="evenodd" d="M30.616 27.07l10.617 4.799-10.617 6.35L20 31.89l10.616-4.818z" fill="url(#paint1_linear_486_12996)" fill-opacity=".816" stroke="#14044D" stroke-width=".044" stroke-linecap="round" stroke-linejoin="round"/><path fill-rule="evenodd" clip-rule="evenodd" d="M30.616 25l10.617 4.819-10.617 6.31L20 29.82 30.616 25z" fill="#37367B" fill-opacity=".919" stroke="#14044D" stroke-width=".044" stroke-linecap="round" stroke-linejoin="round"/><path d="M41.233 29.819L30.616 12v24.15l10.617-6.331z" fill="#37367B" fill-opacity=".799" stroke="#14044D" stroke-width=".044" stroke-linecap="round" stroke-linejoin="round"/><path d="M30.616 12L20 29.819l10.616 6.33V12z" fill="#716B94" fill-opacity=".801" stroke="#14044D" stroke-width=".044" stroke-linecap="round" stroke-linejoin="round"/><circle cx="93.928" cy="29.604" r="29.604" fill="#EFEFEF"/><g clip-path="url(#clip0_486_12996)" fill-rule="evenodd" clip-rule="evenodd"><path d="M81.41 13.172l-7.38 15.41a.297.297 0 00.065.348l19.929 18.986a.305.305 0 00.42 0l19.929-18.985a.3.3 0 00.065-.348l-7.379-15.41a.298.298 0 00-.272-.173H81.684a.3.3 0 00-.274.172z" fill="#50AF95"/><path d="M96.795 30.164c-.143.01-.883.054-2.531.054-1.312 0-2.243-.039-2.57-.054-5.068-.222-8.851-1.099-8.851-2.15 0-1.05 3.783-1.925 8.851-2.15v3.426c.332.024 1.28.08 2.592.08 1.574 0 2.362-.065 2.504-.079v-3.425c5.058.224 8.832 1.101 8.832 2.149s-3.773 1.925-8.832 2.148h.005zm0-4.653v-3.066h7.058v-4.676H84.636v4.676h7.057v3.065c-5.736.262-10.05 1.392-10.05 2.745 0 1.354 4.314 2.483 10.05 2.746v9.826h5.1v-9.83c5.723-.262 10.03-1.39 10.03-2.743 0-1.352-4.303-2.48-10.03-2.744l.002.001z" fill="#fff"/></g><circle cx="157.136" cy="29.604" r="29.604" fill="#EFEFEF"/><path d="M174.271 33.733c-2.391 9.375-12.107 15.08-21.7 12.743-9.59-2.337-15.427-11.833-13.035-21.207 2.391-9.377 12.106-15.083 21.697-12.745 9.593 2.337 15.43 11.834 13.038 21.21z" fill="#F7931A"/><path d="M164.798 27.007c.357-2.328-1.458-3.58-3.938-4.415l.805-3.155-1.965-.478-.783 3.071a85.79 85.79 0 00-1.574-.362l.789-3.091-1.964-.479-.805 3.153a65.88 65.88 0 01-1.254-.288l.002-.01-2.71-.66-.522 2.05s1.457.326 1.427.347c.795.194.939.708.915 1.116l-.916 3.594c.054.014.125.033.204.064-.066-.016-.136-.034-.208-.05l-1.285 5.033c-.097.237-.344.591-.9.456.02.028-1.428-.348-1.428-.348l-.975 2.198 2.556.623c.476.116.942.238 1.401.353l-.813 3.19 1.962.48.805-3.157c.537.142 1.057.273 1.566.397l-.802 3.141 1.964.479.813-3.184c3.35.62 5.869.37 6.93-2.592.854-2.384-.043-3.76-1.805-4.657 1.283-.289 2.25-1.114 2.508-2.819zm-4.489 6.152c-.607 2.384-4.714 1.095-6.046.772l1.079-4.227c1.331.325 5.602.968 4.967 3.455zm.608-6.186c-.554 2.169-3.973 1.067-5.082.797l.978-3.834c1.109.27 4.681.774 4.104 3.037z" fill="#fff"/><circle cx="220.345" cy="29.604" r="29.604" fill="#EFEFEF"/><g clip-path="url(#clip1_486_12996)"><path fill-rule="evenodd" clip-rule="evenodd" d="M220.5 12c9.666 0 17.5 7.834 17.5 17.5S230.166 47 220.5 47 203 39.166 203 29.5 210.834 12 220.5 12z" fill="#F0B90B"/><path d="M212.618 29.5l.013 4.627 3.932 2.314v2.71l-6.233-3.656v-7.348l2.288 1.353zm0-4.627v2.696l-2.29-1.354v-2.697l2.29-1.355 2.301 1.355-2.301 1.355zm5.587-1.355l2.289-1.355 2.301 1.355-2.301 1.355-2.289-1.355z" fill="#fff"/><path d="M214.273 33.168V30.46l2.29 1.355v2.696l-2.29-1.342zm3.932 4.243l2.289 1.355 2.301-1.355v2.697l-2.301 1.355-2.289-1.355v-2.697zm7.875-13.893l2.289-1.355 2.301 1.355v2.697l-2.301 1.354v-2.696l-2.289-1.355zm2.289 10.61l.013-4.628 2.29-1.355v7.348l-6.233 3.656v-2.71l3.93-2.312z" fill="#fff"/><path d="M226.727 33.168l-2.289 1.342v-2.696l2.289-1.355v2.71z" fill="#fff"/><path d="M226.727 25.832l.013 2.709-3.943 2.314v4.638l-2.29 1.342-2.29-1.342v-4.638l-3.943-2.314v-2.71l2.3-1.354 3.919 2.325 3.943-2.325 2.301 1.355h-.01zm-12.454-4.626l6.221-3.668 6.233 3.668-2.289 1.354-3.944-2.325-3.931 2.325-2.29-1.354z" fill="#fff"/></g><circle cx="283.553" cy="29.604" r="29.604" fill="#EFEFEF"/><g clip-path="url(#clip2_486_12996)"><path d="M284.5 47c9.698 0 17.5-7.802 17.5-17.5S294.198 12 284.5 12 267 19.802 267 29.5 274.802 47 284.5 47z" fill="#2775CA"/><path d="M289.313 32.27c0-2.551-1.532-3.426-4.594-3.79-2.188-.293-2.625-.876-2.625-1.897 0-1.02.729-1.677 2.187-1.677 1.313 0 2.042.438 2.407 1.532a.547.547 0 00.51.364h1.167c.291 0 .51-.219.51-.51v-.073a3.643 3.643 0 00-3.281-2.99v-1.75c0-.291-.219-.51-.584-.583h-1.093c-.292 0-.511.218-.584.583v1.677c-2.187.292-3.573 1.75-3.573 3.573 0 2.407 1.459 3.354 4.521 3.719 2.042.364 2.698.802 2.698 1.969 0 1.166-1.021 1.968-2.406 1.968-1.896 0-2.552-.802-2.771-1.895-.073-.292-.292-.438-.51-.438h-1.24a.498.498 0 00-.51.51v.074c.291 1.822 1.458 3.135 3.864 3.5v1.75c0 .291.219.51.584.583h1.093c.292 0 .511-.219.584-.584v-1.75c2.187-.364 3.646-1.895 3.646-3.864z" fill="#fff"/><path d="M280.781 39.927c-5.687-2.041-8.604-8.385-6.489-14 1.093-3.063 3.5-5.396 6.489-6.49.292-.145.438-.364.438-.729v-1.02c0-.292-.146-.511-.438-.584-.073 0-.218 0-.291.073-6.927 2.188-10.719 9.552-8.532 16.48a13.118 13.118 0 008.532 8.53c.291.146.583 0 .656-.291.073-.073.073-.146.073-.292v-1.02c0-.22-.219-.511-.438-.657zm7.729-22.75c-.291-.146-.583 0-.656.292-.073.073-.073.145-.073.291v1.021c0 .292.219.584.438.73 5.687 2.041 8.604 8.385 6.489 14-1.093 3.062-3.5 5.395-6.489 6.489-.292.146-.438.364-.438.73v1.02c0 .292.146.51.438.583.073 0 .219 0 .291-.072 6.928-2.188 10.719-9.553 8.532-16.48-1.313-4.156-4.521-7.291-8.532-8.604z" fill="#fff"/></g><circle cx="346.761" cy="29.604" r="29.604" fill="#EFEFEF"/><g clip-path="url(#clip3_486_12996)"><path d="M333.497 37.928a1.31 1.31 0 01.926-.383h31.923c.584 0 .875.704.463 1.117l-6.306 6.306a1.311 1.311 0 01-.926.382h-31.923a.654.654 0 01-.463-1.116l6.306-6.306z" fill="url(#paint2_linear_486_12996)"/><path d="M333.497 14.382c.252-.241.583-.382.925-.382h31.924c.583 0 .875.704.463 1.116l-6.307 6.307a1.307 1.307 0 01-.925.382h-31.923a.654.654 0 01-.463-1.116l6.306-6.307z" fill="url(#paint3_linear_486_12996)"/><path d="M360.503 26.08a1.311 1.311 0 00-.926-.383h-31.923a.654.654 0 00-.463 1.117l6.306 6.306c.242.241.574.382.926.382h31.923a.654.654 0 00.463-1.116l-6.306-6.307z" fill="url(#paint4_linear_486_12996)"/></g><defs><linearGradient id="paint0_linear_486_12996" x1="20" y1="32.645" x2="30.616" y2="32.645" gradientUnits="userSpaceOnUse"><stop stop-color="#716B94"/><stop offset="1" stop-color="#37367B"/></linearGradient><linearGradient id="paint1_linear_486_12996" x1="20" y1="32.645" x2="41.233" y2="32.645" gradientUnits="userSpaceOnUse"><stop stop-color="#716B94"/><stop offset="1" stop-color="#37367B"/></linearGradient><linearGradient id="paint2_linear_486_12996" x1="363.297" y1="10.233" x2="341.203" y2="52.551" gradientUnits="userSpaceOnUse"><stop stop-color="#00FFA3"/><stop offset="1" stop-color="#DC1FFF"/></linearGradient><linearGradient id="paint3_linear_486_12996" x1="353.636" y1="5.189" x2="331.542" y2="47.507" gradientUnits="userSpaceOnUse"><stop stop-color="#00FFA3"/><stop offset="1" stop-color="#DC1FFF"/></linearGradient><linearGradient id="paint4_linear_486_12996" x1="358.436" y1="7.695" x2="336.342" y2="50.013" gradientUnits="userSpaceOnUse"><stop stop-color="#00FFA3"/><stop offset="1" stop-color="#DC1FFF"/></linearGradient><clipPath id="clip0_486_12996"><path fill="#fff" transform="translate(74 13)" d="M0 0h40.469v35H0z"/></clipPath><clipPath id="clip1_486_12996"><path fill="#fff" transform="translate(203 12)" d="M0 0h35v35H0z"/></clipPath><clipPath id="clip2_486_12996"><path fill="#fff" transform="translate(267 12)" d="M0 0h35v35H0z"/></clipPath><clipPath id="clip3_486_12996"><path fill="#fff" transform="translate(327 14)" d="M0 0h40v31.35H0z"/></clipPath></defs></svg>