<svg width="377" height="60" fill="none" xmlns="http://www.w3.org/2000/svg"><circle cx="30.48" cy="29.845" r="29.845" fill="#EFEFEF"/><path d="M23.421 27.67H48.31 23.42zm1.297-6.825h22.295-22.295zm-.887 2.275h24.067-24.067zm4.906 13.647h14.256v-.001H28.737zM35.865 14c-.246 0-.49.009-.731.023h1.462a12.83 12.83 0 00-.731-.023zM23.416 25.394h24.897-24.897z" fill="#C42126"/><path d="M39.56 18.571h5.968a12.56 12.56 0 00-2.445-2.274H38.6c.371.653.69 1.423.96 2.274z" fill="#E7E7E7"/><path d="M38.6 16.297h4.483a12.431 12.431 0 00-6.487-2.274h-.385c1.134.142 1.655.982 2.39 2.274z" fill="#DC3027"/><path d="M47.899 23.12a12.414 12.414 0 00-.887-2.274h-6.867c.14.73.25 1.493.33 2.274H47.9z" fill="#E7E7E7"/><path d="M39.76 20.846h7.252a12.508 12.508 0 00-1.484-2.275h-6.335c.223.707.413 1.47.566 2.274z" fill="#DC3027"/><path d="M40.739 27.669h7.57c.036-.385.056-.775.056-1.169 0-.373-.02-.74-.052-1.105H40.74c.025.757.024 1.516-.002 2.274z" fill="#E7E7E7"/><path d="M48.314 25.394a12.55 12.55 0 00-.415-2.274h-7.742c.077.745.129 1.507.154 2.274h8.003z" fill="#DC3027"/><path d="M40.015 32.217h6.965c.374-.726.676-1.488.9-2.274h-7.529a26.9 26.9 0 01-.336 2.274z" fill="#E7E7E7"/><path d="M47.881 29.943c.213-.743.356-1.504.428-2.274h-7.806a31.95 31.95 0 01-.16 2.274h7.538z" fill="#DC3027"/><path d="M42.993 36.766a12.576 12.576 0 002.482-2.274h-5.864c-.275.855-.6 1.624-.978 2.274h4.36z" fill="#E7E7E7"/><path d="M39.39 34.492h6.085a12.511 12.511 0 001.505-2.275h-7.016a19.794 19.794 0 01-.574 2.275zm-3.978 4.5l-.076-.004.076.003zm.453.008c2.65 0 5.105-.827 7.128-2.233h-4.524C37.666 38.15 37.136 39 35.865 39z" fill="#DC3027"/><path d="M39.014 16.297H28.648a12.567 12.567 0 00-2.447 2.274h13.772c-.27-.851-.588-1.621-.959-2.274z" fill="#F3F4F5"/><path d="M28.648 16.297h10.366c-.734-1.292-1.669-2.132-2.803-2.274h-1.077a12.43 12.43 0 00-6.486 2.274z" fill="#E73625"/><path d="M23.831 23.12H40.87a27.22 27.22 0 00-.33-2.274H24.718c-.37.727-.667 1.489-.887 2.274z" fill="#F3F4F5"/><path d="M26.201 18.571a12.52 12.52 0 00-1.483 2.274H40.54a20.04 20.04 0 00-.567-2.274H26.202z" fill="#E73625"/><path d="M23.365 26.5c0 .394.02.784.056 1.169h17.602c.026-.756.026-1.518.001-2.274H23.416c-.032.364-.051.732-.051 1.105z" fill="#F3F4F5"/><path d="M23.416 25.394h17.608a32.12 32.12 0 00-.154-2.274H23.831a12.436 12.436 0 00-.415 2.274z" fill="#E73625"/><path d="M40.864 29.943H23.849c.225.786.527 1.548.901 2.274h15.777c.141-.73.254-1.491.337-2.274z" fill="#F3F4F5"/><path d="M23.85 29.943h17.014c.079-.744.132-1.506.159-2.274H23.42c.072.77.215 1.53.428 2.274z" fill="#E73625"/><path d="M28.737 36.766h10.24c.377-.65.702-1.42.976-2.274H26.255c.721.866 1.556 1.63 2.482 2.274z" fill="#F3F4F5"/><path d="M24.75 32.217c.42.814.924 1.577 1.505 2.275h13.698c.226-.706.418-1.47.574-2.275H24.75zm10.586 6.771l.076.003c.15.005.301.009.453.009 1.271 0 2.308-.85 3.11-2.233H28.738a12.434 12.434 0 006.599 2.221z" fill="#E73625"/><path d="M35.606 14.007c-6.405.13-11.626 5.076-12.188 11.367h12.189V14.007z" fill="#283991"/><path d="M25.866 21.082l.19.587h.617l-.499.362.191.587-.499-.363-.499.363.19-.587-.498-.362h.617l.19-.587zm0 2.072l.19.587h.617l-.499.362.191.587-.499-.363-.499.363.19-.587-.498-.363h.617l.19-.586zm2.072-5.18l.19.587h.617l-.499.362.19.587-.498-.363-.499.363.19-.587-.499-.362h.617l.191-.587zm0 2.072l.19.587h.617l-.499.362.19.587-.498-.363-.499.363.19-.587-.499-.362h.617l.191-.587zm0 2.072l.19.587h.617l-.499.362.19.587-.498-.363-.499.363.19-.587-.499-.362h.617l.191-.587zm-3.645 1.536l-.19-.587.498-.363h-.616l-.014-.042c-.068.21-.13.422-.185.636l.008-.007.499.363zm1.074-3.108l.5-.363.498.363-.19-.587.498-.363h-.617l-.19-.586-.19.586h-.228l-.124.194.234.17-.19.586zm2.571-3.47l.499.362-.19-.587.498-.362h-.356c-.303.226-.595.465-.875.718l-.075.23.5-.362zm1.573-.674l.5-.363.498.363-.19-.587.498-.362H30.2l-.026-.08c-.209.108-.415.219-.617.337l.144.105-.19.587zm.5.536l.19.586h.616l-.499.363.19.587-.498-.363-.499.363.19-.587-.498-.363h.616l.191-.586zm0 2.072l.19.586h.616l-.499.363.19.587-.498-.363-.499.363.19-.587-.498-.363h.616l.191-.586zm0 2.072l.19.587h.616l-.499.362.19.587-.498-.363-.499.363.19-.587-.498-.362h.616l.191-.587zm0 2.072l.19.587h.616l-.499.362.19.587-.498-.363-.499.363.19-.587-.498-.363h.616l.191-.586zm2.071-7.252l.19.587h.617l-.498.362.19.587-.499-.363-.5.363.192-.587-.5-.362h.617l.191-.587zm0 2.072l.19.587h.617l-.498.362.19.587-.499-.363-.5.363.192-.587-.5-.362h.617l.191-.587zm0 2.072l.19.587h.617l-.498.362.19.587-.499-.363-.5.363.192-.587-.5-.362h.617l.191-.587zm0 2.072l.19.587h.617l-.498.362.19.587-.499-.363-.5.363.192-.587-.5-.362h.617l.191-.587zm2.072-7.252l.19.587h.617l-.499.362.19.587-.498-.363-.5.363.192-.587-.5-.362h.617l.191-.587zm0 2.072l.19.586h.617l-.499.363.19.587-.498-.363-.5.363.192-.587-.5-.363h.617l.191-.586zm0 2.072l.19.586h.617l-.499.363.19.587-.498-.363-.5.363.192-.587-.5-.363h.617l.191-.586zm0 2.072l.19.587h.617l-.499.362.19.587-.498-.363-.5.363.192-.587-.5-.362h.617l.191-.587zm0 2.072l.19.587h.617l-.499.362.19.587-.498-.363-.5.363.192-.587-.5-.363h.617l.191-.586z" fill="#EFEFEF"/><path d="M23.5 21v25C30.404 46 36 40.404 36 33.5S30.404 21 23.5 21z" fill="#214391"/><path d="M23.5 21C16.596 21 11 26.596 11 33.5S16.596 46 23.5 46s6.904-25 0-25z" fill="#2B479D"/><path d="M23.479 23.168l.304.938h.987l-.798.58.305.938-.799-.58-.798.58.305-.938-.798-.58h.987l.305-.938zm0 17.713l.304.939h.987l-.798.58.305.938-.799-.58-.798.58.305-.938-.798-.58h.987l.305-.939zm4.86-16.143l.306.938h.986l-.798.58.305.939-.798-.58-.798.58.304-.939-.798-.58h.987l.305-.938zm3.318 3.272l.305.938h.986l-.798.58.305.939-.798-.58-.799.58.305-.938-.798-.58h.987l.305-.939zm.079 8.268l.304.939h.987l-.798.58.305.938-.798-.58-.799.58.305-.938-.798-.58h.987l.305-.939zM15.42 28.01l.305.938h.987l-.798.58.304.939-.797-.58-.799.58.305-.938-.798-.58h.987l.305-.939zm17.005 3.943l.305.939h.987l-.798.58.305.938-.798-.58-.799.58.305-.939-.798-.58h.986l.306-.938zm-17.758 0l.304.939h.987l-.798.58.305.938-.798-.58-.799.58.305-.939-.798-.58h.987l.305-.938zm.646 4.325l.305.939h.987l-.798.58.304.938-.798-.58-.798.58.305-.938-.798-.58h.987l.304-.939zm13.17 3.412l.305.938h.987l-.799.58.305.939-.798-.58-.799.58.306-.938-.799-.58h.987l.305-.94zm-9.708-14.952l.304.938h.987l-.798.58.305.939-.798-.58-.798.58.304-.939-.798-.58h.987l.305-.938zm-.36 14.892l.305.939h.986l-.798.58.305.938-.798-.58-.799.58.305-.939-.798-.58h.987l.305-.938z" fill="#F8D12E"/><circle cx="93.928" cy="29.604" r="29.604" fill="#EFEFEF"/><path d="M112.749 25.5c0 6.765-5.484 12.249-12.25 12.249-6.765 0-12.249-5.484-12.249-12.25 0-6.765 5.484-12.249 12.249-12.249 6.766 0 12.25 5.484 12.25 12.25z" fill="url(#paint0_linear_489_13196)" stroke="#9C9C9C" stroke-width=".5"/><path d="M100.499 30.104a4.604 4.604 0 10.001-9.209 4.604 4.604 0 00-.001 9.21z" fill="#EC1C24"/><path d="M76.056 33.67h24.889-24.889zm1.297-6.825h22.294-22.294zm-.887 2.275h24.067-24.067zm4.906 13.647h14.256v-.001H81.373zM88.5 20c-.246 0-.49.009-.731.023h1.462A12.828 12.828 0 0088.5 20zM76.052 31.394h24.896-24.896z" fill="#C42126"/><path d="M92.195 24.571h5.968a12.56 12.56 0 00-2.445-2.274h-4.483c.371.653.69 1.423.96 2.274z" fill="#E7E7E7"/><path d="M91.235 22.297h4.483a12.43 12.43 0 00-6.487-2.274h-.385c1.134.142 1.655.982 2.39 2.274z" fill="#DC3027"/><path d="M100.534 29.12a12.397 12.397 0 00-.887-2.274H92.78c.14.73.25 1.493.33 2.274h7.424z" fill="#E7E7E7"/><path d="M92.394 26.846h7.253a12.514 12.514 0 00-1.484-2.275h-6.335c.223.707.413 1.47.566 2.274z" fill="#DC3027"/><path d="M93.374 33.669h7.57c.036-.385.056-.775.056-1.169 0-.373-.02-.74-.052-1.105h-7.573c.025.757.025 1.516-.001 2.274z" fill="#E7E7E7"/><path d="M100.949 31.394c-.068-.77-.207-1.53-.415-2.274h-7.742c.077.745.129 1.507.154 2.274h8.003z" fill="#DC3027"/><path d="M92.65 38.217h6.965c.374-.726.676-1.488.901-2.274h-7.53a26.89 26.89 0 01-.336 2.274z" fill="#E7E7E7"/><path d="M100.516 35.943c.213-.743.356-1.504.428-2.274h-7.806a31.95 31.95 0 01-.16 2.274h7.538z" fill="#DC3027"/><path d="M95.628 42.766a12.577 12.577 0 002.482-2.274h-5.864c-.275.855-.6 1.624-.978 2.274h4.36z" fill="#E7E7E7"/><path d="M92.025 40.492h6.085a12.511 12.511 0 001.505-2.275h-7.016a19.794 19.794 0 01-.574 2.275zm-3.978 4.5l-.076-.004.076.003zM88.5 45c2.65 0 5.105-.827 7.128-2.233h-4.524C90.3 44.15 89.77 45 88.5 45z" fill="#DC3027"/><path d="M91.65 22.297H81.282a12.564 12.564 0 00-2.447 2.274h13.772c-.27-.851-.588-1.621-.959-2.274z" fill="#F3F4F5"/><path d="M81.283 22.297h10.366c-.734-1.292-1.669-2.132-2.803-2.274H87.77a12.43 12.43 0 00-6.486 2.274z" fill="#E73625"/><path d="M76.466 29.12h17.039a27.262 27.262 0 00-.33-2.274H77.353c-.37.727-.667 1.488-.887 2.274z" fill="#F3F4F5"/><path d="M78.837 24.571a12.516 12.516 0 00-1.484 2.274h15.822a20.04 20.04 0 00-.567-2.274H78.836z" fill="#E73625"/><path d="M76 32.5c0 .394.02.784.056 1.169h17.602c.026-.756.026-1.518.001-2.274H76.051c-.032.364-.051.732-.051 1.105z" fill="#F3F4F5"/><path d="M76.052 31.394h17.607a32.122 32.122 0 00-.154-2.274H76.466a12.435 12.435 0 00-.414 2.274z" fill="#E73625"/><path d="M93.499 35.943H76.484c.225.786.527 1.548.901 2.274h15.777c.141-.73.254-1.492.337-2.274z" fill="#F3F4F5"/><path d="M76.484 35.943H93.5c.079-.744.132-1.506.159-2.274H76.055c.072.77.215 1.53.428 2.274z" fill="#E73625"/><path d="M81.372 42.766h10.24c.377-.65.702-1.42.976-2.274H78.89c.721.866 1.556 1.63 2.482 2.274z" fill="#F3F4F5"/><path d="M77.385 38.217c.42.814.924 1.577 1.505 2.275h13.698c.227-.706.418-1.47.574-2.275H77.385zm10.586 6.771l.076.003c.15.005.301.009.453.009 1.271 0 2.308-.85 3.11-2.233H81.373a12.434 12.434 0 006.599 2.221z" fill="#E73625"/><path d="M88.241 20.007c-6.405.13-11.626 5.076-12.188 11.367h12.189V20.007z" fill="#283991"/><path d="M78.501 27.082l.19.587h.617l-.499.362.191.587-.499-.363-.499.363.19-.587-.498-.362h.617l.19-.587zm0 2.072l.19.587h.617l-.499.362.191.587-.499-.363-.499.363.19-.587-.498-.363h.617l.19-.586zm2.072-5.18l.19.587h.617l-.499.362.19.587-.498-.363-.499.363.19-.587-.499-.362h.617l.191-.587zm0 2.072l.19.587h.617l-.499.362.19.587-.498-.363-.499.363.19-.587-.499-.362h.617l.191-.587zm0 2.072l.19.587h.617l-.499.362.19.587-.498-.363-.499.363.19-.587-.499-.362h.617l.191-.587zm-3.645 1.536l-.19-.587.498-.363h-.616l-.014-.042c-.068.21-.13.422-.185.635l.008-.006.499.363zm1.074-3.108l.5-.363.498.363-.19-.587.498-.363h-.617l-.19-.586-.19.586h-.228l-.124.194.234.17-.19.586zm2.571-3.47l.499.362-.19-.587.498-.362h-.356c-.303.226-.594.465-.875.718l-.075.23.5-.362zm1.573-.674l.5-.363.498.363-.19-.587.498-.362h-.617l-.025-.08a13.1 13.1 0 00-.618.337l.144.105-.19.587zm.5.536l.19.586h.616l-.499.363.19.587-.498-.363-.499.363.19-.587-.498-.363h.616l.191-.586zm0 2.072l.19.586h.616l-.499.363.19.587-.498-.363-.499.363.19-.587-.498-.363h.616l.191-.586zm0 2.072l.19.587h.616l-.499.362.19.587-.498-.363-.499.363.19-.587-.498-.362h.616l.191-.587zm0 2.072l.19.587h.616l-.499.362.19.587-.498-.363-.499.363.19-.587-.498-.363h.616l.191-.586zm2.071-7.252l.19.587h.617l-.498.362.19.587-.499-.363-.499.363.19-.587-.499-.362h.617l.191-.587zm0 2.072l.19.587h.617l-.498.362.19.587-.499-.363-.499.363.19-.587-.499-.362h.617l.191-.587zm0 2.072l.19.587h.617l-.498.362.19.587-.499-.363-.499.363.19-.587-.499-.362h.617l.191-.587zm0 2.072l.19.587h.617l-.498.362.19.587-.499-.363-.499.363.19-.587-.499-.362h.617l.191-.587zm2.072-7.252l.19.587h.617l-.499.362.19.587-.498-.363-.499.363.19-.587-.499-.362h.617l.191-.587zm0 2.072l.19.586h.617l-.499.363.19.587-.498-.363-.499.363.19-.587-.499-.363h.617l.191-.586zm0 2.072l.19.586h.617l-.499.363.19.587-.498-.363-.499.363.19-.587-.499-.363h.617l.191-.586zm0 2.072l.19.587h.617l-.499.362.19.587-.498-.363-.499.363.19-.587-.499-.362h.617l.191-.587zm0 2.072l.19.587h.617l-.499.362.19.587-.498-.363-.499.363.19-.587-.499-.363h.617l.191-.586z" fill="#EFEFEF"/><circle cx="157.136" cy="29.604" r="29.604" fill="#EFEFEF"/><path d="M151.056 27.67h24.889-24.889zm1.297-6.825h22.294-22.294zm-.887 2.275h24.067-24.067zm4.906 13.647h14.256l.001-.001h-14.257zM163.5 14c-.246 0-.489.009-.731.023h1.462A12.842 12.842 0 00163.5 14zm-12.448 11.394h24.896-24.896z" fill="#C42126"/><path d="M167.194 18.571h5.969a12.583 12.583 0 00-2.445-2.274h-4.483c.371.653.69 1.423.959 2.274z" fill="#E7E7E7"/><path d="M166.235 16.297h4.482a12.426 12.426 0 00-6.486-2.274h-.385c1.134.142 1.655.982 2.389 2.274z" fill="#DC3027"/><path d="M175.534 23.12a12.372 12.372 0 00-.887-2.274h-6.867c.14.73.249 1.493.331 2.274h7.423z" fill="#E7E7E7"/><path d="M167.394 20.846h7.253a12.489 12.489 0 00-1.484-2.275h-6.335c.223.707.413 1.47.566 2.274z" fill="#DC3027"/><path d="M168.374 27.669h7.57c.036-.385.056-.775.056-1.169 0-.373-.02-.74-.052-1.105h-7.573c.025.757.024 1.516-.001 2.274z" fill="#E7E7E7"/><path d="M175.949 25.394a12.54 12.54 0 00-.415-2.274h-7.742c.077.745.129 1.507.154 2.274h8.003z" fill="#DC3027"/><path d="M167.65 32.217h6.965c.374-.726.676-1.488.901-2.274h-7.529a27.061 27.061 0 01-.337 2.274z" fill="#E7E7E7"/><path d="M175.516 29.943c.213-.743.356-1.504.428-2.274h-7.806c-.027.768-.08 1.53-.159 2.274h7.537z" fill="#DC3027"/><path d="M170.628 36.766a12.543 12.543 0 002.482-2.274h-5.864c-.275.855-.6 1.624-.978 2.274h4.36z" fill="#E7E7E7"/><path d="M167.025 34.492h6.085a12.537 12.537 0 001.505-2.275h-7.016a19.94 19.94 0 01-.574 2.275zm-3.978 4.5l-.076-.004.076.003zm.453.008c2.65 0 5.105-.827 7.128-2.233h-4.524C165.301 38.15 164.771 39 163.5 39z" fill="#DC3027"/><path d="M166.649 16.297h-10.366a12.56 12.56 0 00-2.446 2.274h13.771c-.269-.851-.588-1.621-.959-2.274z" fill="#F3F4F5"/><path d="M156.283 16.297h10.366c-.734-1.292-1.669-2.132-2.803-2.274h-1.077a12.426 12.426 0 00-6.486 2.274z" fill="#E73625"/><path d="M151.466 23.12h17.039a27.179 27.179 0 00-.33-2.274h-15.822a12.37 12.37 0 00-.887 2.274z" fill="#F3F4F5"/><path d="M153.837 18.571a12.49 12.49 0 00-1.484 2.274h15.822a20.06 20.06 0 00-.567-2.274h-13.771z" fill="#E73625"/><path d="M151 26.5c0 .394.021.784.056 1.169h17.602c.026-.756.026-1.518.001-2.274h-17.607A12.6 12.6 0 00151 26.5z" fill="#F3F4F5"/><path d="M151.052 25.394h17.607a32.002 32.002 0 00-.154-2.274h-17.039a12.452 12.452 0 00-.414 2.274z" fill="#E73625"/><path d="M168.499 29.943h-17.015c.225.786.527 1.548.901 2.274h15.777c.141-.73.254-1.491.337-2.274z" fill="#F3F4F5"/><path d="M151.484 29.943h17.015c.079-.744.132-1.506.159-2.274h-17.602c.072.77.215 1.53.428 2.274z" fill="#E73625"/><path d="M156.372 36.766h10.239c.378-.65.703-1.42.977-2.274H153.89c.721.866 1.556 1.63 2.482 2.274z" fill="#F3F4F5"/><path d="M152.385 32.217c.42.814.924 1.577 1.505 2.275h13.698c.227-.706.418-1.47.574-2.275h-15.777zm10.586 6.771l.076.003c.15.005.301.009.453.009 1.271 0 2.308-.85 3.111-2.233h-10.239a12.437 12.437 0 006.599 2.221z" fill="#E73625"/><path d="M163.241 14.007c-6.405.13-11.626 5.076-12.188 11.367h12.189V14.007h-.001z" fill="#283991"/><path d="M153.501 21.082l.191.587h.617l-.5.362.191.587-.499-.363-.499.363.191-.587-.499-.362h.617l.19-.587zm0 2.072l.191.587h.617l-.5.362.191.587-.499-.363-.499.363.191-.587-.499-.363h.617l.19-.586zm2.072-5.18l.191.587h.616l-.499.362.191.587-.499-.363-.499.363.191-.587-.5-.362h.617l.191-.587zm0 2.072l.191.587h.616l-.499.362.191.587-.499-.363-.499.363.191-.587-.5-.362h.617l.191-.587zm0 2.072l.191.587h.616l-.499.362.191.587-.499-.363-.499.363.191-.587-.5-.362h.617l.191-.587zm-3.645 1.536l-.191-.587.499-.363h-.616l-.014-.042c-.068.21-.13.422-.185.636l.008-.007.499.363zm1.074-3.108l.499-.363.499.363-.191-.587.499-.363h-.617l-.19-.586-.191.586h-.227l-.124.194.234.17-.191.586zm2.571-3.47l.499.362-.191-.587.499-.362h-.356a12.13 12.13 0 00-.875.718l-.075.23.499-.362zm1.573-.674l.499-.363.499.363-.191-.587.499-.362h-.617l-.026-.08a12.16 12.16 0 00-.617.337l.144.105-.19.587zm.499.536l.191.586h.616l-.499.363.191.587-.499-.363-.499.363.191-.587-.5-.363h.617l.191-.586zm0 2.072l.191.586h.616l-.499.363.191.587-.499-.363-.499.363.191-.587-.5-.363h.617l.191-.586zm0 2.072l.191.587h.616l-.499.362.191.587-.499-.363-.499.363.191-.587-.5-.362h.617l.191-.587zm0 2.072l.191.587h.616l-.499.362.191.587-.499-.363-.499.363.191-.587-.5-.363h.617l.191-.586zm2.072-7.252l.191.587h.616l-.498.362.19.587-.499-.363-.499.363.191-.587-.5-.362h.617l.191-.587zm0 2.072l.191.587h.616l-.498.362.19.587-.499-.363-.499.363.191-.587-.5-.362h.617l.191-.587zm0 2.072l.191.587h.616l-.498.362.19.587-.499-.363-.499.363.191-.587-.5-.362h.617l.191-.587zm0 2.072l.191.587h.616l-.498.362.19.587-.499-.363-.499.363.191-.587-.5-.362h.617l.191-.587zm2.072-7.252l.191.587h.616l-.499.362.191.587-.499-.363-.499.363.191-.587-.5-.362h.617l.191-.587zm0 2.072l.191.586h.616l-.499.363.191.587-.499-.363-.499.363.191-.587-.5-.363h.617l.191-.586zm0 2.072l.191.586h.616l-.499.363.191.587-.499-.363-.499.363.191-.587-.5-.363h.617l.191-.586zm0 2.072l.191.587h.616l-.499.362.191.587-.499-.363-.499.363.191-.587-.5-.362h.617l.191-.587zm0 2.072l.191.587h.616l-.499.362.191.587-.499-.363-.499.363.191-.587-.5-.363h.617l.191-.586z" fill="#EFEFEF"/><path d="M141.202 26.417a12.44 12.44 0 00-1.791 3.896h5.686l-3.895-3.896zm6.797-4.917a12.456 12.456 0 00-3.948 1.962l3.948 3.948V21.5zm-3.655 22.246a12.447 12.447 0 003.655 1.753v-5.407l-3.655 3.654zm-4.789-6.555a12.432 12.432 0 001.856 3.685l3.686-3.685h-5.542z" fill="#29337A"/><path d="M141.408 26.127c-.07.096-.139.193-.207.29l3.896 3.896h-5.686c-.092.35-.167.708-.229 1.07h7.483l-5.257-5.256zm2.646 17.413c.096.071.193.139.29.206l3.655-3.654v5.407c.351.103.708.191 1.071.263v-7.237l-5.016 5.015zm-4.777-7.42c.078.363.169.72.278 1.07h5.541l-3.685 3.687c.4.547.845 1.06 1.328 1.536l6.293-6.293h-9.755zm8.722-14.62v5.91l-3.948-3.948a12.62 12.62 0 00-1.525 1.34l6.544 6.544V21.238c-.363.072-.72.16-1.071.262z" fill="#EFEFEF"/><path d="M147.999 37.153l-.037.038h.037v-.038zm1.033-1.033h.038v-.037l-.038.037zm4.811-4.737h-.036v.037l.036-.037zm-5.807-1.07l-.037-.037v.037h.037zm1.034 1.034v.036h.037l-.037-.037z" fill="#D32030"/><path d="M154.877 42.732v2.802a12.429 12.429 0 003.706-1.736l-3.037-3.036c-.242.852-.331 1.293-.669 1.97zm.685-16.007l3.315-3.315a12.457 12.457 0 00-4-1.945v2.879c.39.78.423 1.373.685 2.38zm5.976 14.224a12.467 12.467 0 001.908-3.758h-5.667l3.759 3.758zm2.051-10.636a12.466 12.466 0 00-1.842-3.968l-3.969 3.968h5.811z" fill="#252F6C"/><path d="M156.292 36.332l.859.859 4.112 4.112c.093-.117.186-.234.275-.353l-3.758-3.759h5.666c.108-.35.2-.708.277-1.07h-7.351c-.012.151-.065.06-.08.211zm-.859-8.98l3.726-3.727a12.749 12.749 0 00-.282-.215l-3.315 3.315c.035.131-.161.492-.129.627zm-.556-3.239v-2.648c-.353-.099-.71-.182-1.071-.25v1.293c.399.431.756.974 1.071 1.605zm1.331 7.27h7.61a12.6 12.6 0 00-.229-1.07h-5.811l3.969-3.969a12.535 12.535 0 00-1.297-1.567l-4.471 4.47a21.9 21.9 0 01.229 2.136zm-.842 9.198l3.217 3.217a12.537 12.537 0 001.509-1.224l-4.231-4.231a22.057 22.057 0 01-.495 2.238zm-1.559 3.763v1.44c.36-.068.717-.15 1.07-.25v-2.802c-.315.632-.672 1.18-1.07 1.612z" fill="#E7E7E7"/><path d="M155.979 29.247l4.47-4.47a12.508 12.508 0 00-1.29-1.152l-3.512 3.513c.156.652.227 1.4.332 2.11z" fill="#D71F28"/><path d="M151.5 46zm0 0c.788 0 1.559-.076 2.307-.216v-1.44c-.657.712-1.425 1.656-2.307 1.656z" fill="#D32030"/><path d="M163.818 31.383h-7.511c.099 1.568.087 3.18-.036 4.737h7.452a12.54 12.54 0 00.095-4.737zm-7.526 4.95c-.069.738-.311 1.313-.432 2.01l4.232 4.231c.419-.396.81-.821 1.171-1.271l-4.112-4.112-.859-.859z" fill="#D71F28"/><path d="M153.807 22.6v-1.384A12.566 12.566 0 00151.5 21c.882 0 1.65.889 2.307 1.6z" fill="#D32030"/><path d="M154.877 43.273c.338-.678.628-1.457.871-2.31l-.871-.87v3.18zm.979-16.842c-.263-1.007-.589-1.923-.979-2.704v3.683l.979-.979z" fill="#29337A"/><path d="M156.535 36.574c.014-.15.027-.302.039-.454h-.493l.454.454zm-1.658-9.164v-3.683c-.315-.631-.672-1.174-1.071-1.606v6.857l2.15-2.15a18.267 18.267 0 00-.1-.397l-.979.979zm-1.034 3.973h2.767a30.156 30.156 0 00-.261-2.506l-2.506 2.506zm-.036 13.496c.398-.432.755-.975 1.07-1.606v-3.18l.871.87c.2-.7.367-1.448.503-2.23l-2.444-2.444v8.59z" fill="#EFEFEF"/><path d="M153.807 44.879v-8.59l2.444 2.444c.12-.697.214-1.42.284-2.159l-.455-.454h.494c.123-1.557.135-3.169.036-4.737h-2.767l2.506-2.506a24.237 24.237 0 00-.393-2.05l-2.149 2.15v-6.856C153.15 21.41 152.382 21 151.5 21a12.574 12.574 0 00-2.43.238v10.108l-6.544-6.543c-.403.415-.776.858-1.118 1.324l4.186 4.186 1.071 1.07h-7.483A12.616 12.616 0 00139 33.5c0 .9.097 1.775.277 2.62h9.755l-6.293 6.293c.412.406.852.782 1.315 1.127l5.016-5.015v7.237a12.606 12.606 0 002.43.238c.882 0 1.65-.41 2.307-1.121z" fill="#E51D35"/><circle cx="220.344" cy="29.604" r="29.604" fill="#EFEFEF"/><path d="M214.056 27.67h24.889-24.889zm1.297-6.825h22.294-22.294zm-.887 2.275h24.067-24.067zm4.906 13.647h14.256l.001-.001h-14.257zM226.5 14c-.246 0-.489.009-.731.023h1.462A12.842 12.842 0 00226.5 14zm-12.448 11.394h24.896-24.896z" fill="#C42126"/><path d="M230.194 18.571h5.969a12.583 12.583 0 00-2.445-2.274h-4.483c.371.653.69 1.423.959 2.274z" fill="#E7E7E7"/><path d="M229.235 16.297h4.482a12.426 12.426 0 00-6.486-2.274h-.385c1.134.142 1.655.982 2.389 2.274z" fill="#DC3027"/><path d="M238.534 23.12a12.372 12.372 0 00-.887-2.274h-6.867c.14.73.249 1.493.331 2.274h7.423z" fill="#E7E7E7"/><path d="M230.394 20.846h7.253a12.489 12.489 0 00-1.484-2.275h-6.335c.223.707.413 1.47.566 2.274z" fill="#DC3027"/><path d="M231.374 27.669h7.57c.036-.385.056-.775.056-1.169 0-.373-.02-.74-.052-1.105h-7.573c.025.757.024 1.516-.001 2.274z" fill="#E7E7E7"/><path d="M238.949 25.394a12.54 12.54 0 00-.415-2.274h-7.742c.077.745.129 1.507.154 2.274h8.003z" fill="#DC3027"/><path d="M230.65 32.217h6.965c.374-.726.676-1.488.901-2.274h-7.529a27.061 27.061 0 01-.337 2.274z" fill="#E7E7E7"/><path d="M238.516 29.943c.213-.743.356-1.504.428-2.274h-7.806c-.027.768-.08 1.53-.159 2.274h7.537z" fill="#DC3027"/><path d="M233.628 36.766a12.543 12.543 0 002.482-2.274h-5.864c-.275.855-.6 1.624-.978 2.274h4.36z" fill="#E7E7E7"/><path d="M230.025 34.492h6.085a12.537 12.537 0 001.505-2.275h-7.016a19.94 19.94 0 01-.574 2.275zm-3.978 4.5l-.076-.004.076.003zm.453.008c2.65 0 5.105-.827 7.128-2.233h-4.524C228.301 38.15 227.771 39 226.5 39z" fill="#DC3027"/><path d="M229.649 16.297h-10.366a12.56 12.56 0 00-2.446 2.274h13.771c-.269-.851-.588-1.621-.959-2.274z" fill="#F3F4F5"/><path d="M219.283 16.297h10.366c-.734-1.292-1.669-2.132-2.803-2.274h-1.077a12.426 12.426 0 00-6.486 2.274z" fill="#E73625"/><path d="M214.466 23.12h17.039a27.179 27.179 0 00-.33-2.274h-15.822a12.37 12.37 0 00-.887 2.274z" fill="#F3F4F5"/><path d="M216.837 18.571a12.49 12.49 0 00-1.484 2.274h15.822a20.06 20.06 0 00-.567-2.274h-13.771z" fill="#E73625"/><path d="M214 26.5c0 .394.021.784.056 1.169h17.602c.026-.756.026-1.518.001-2.274h-17.607A12.6 12.6 0 00214 26.5z" fill="#F3F4F5"/><path d="M214.052 25.394h17.607a32.002 32.002 0 00-.154-2.274h-17.039a12.452 12.452 0 00-.414 2.274z" fill="#E73625"/><path d="M231.499 29.943h-17.015c.225.786.527 1.548.901 2.274h15.777c.141-.73.254-1.491.337-2.274z" fill="#F3F4F5"/><path d="M214.484 29.943h17.015c.079-.744.132-1.506.159-2.274h-17.602c.072.77.215 1.53.428 2.274z" fill="#E73625"/><path d="M219.372 36.766h10.239c.378-.65.703-1.42.977-2.274H216.89c.721.866 1.556 1.63 2.482 2.274z" fill="#F3F4F5"/><path d="M215.385 32.217c.42.814.924 1.577 1.505 2.275h13.698c.227-.706.418-1.47.574-2.275h-15.777zm10.586 6.771l.076.003c.15.005.301.009.453.009 1.271 0 2.308-.85 3.111-2.233h-10.239a12.437 12.437 0 006.599 2.221z" fill="#E73625"/><path d="M226.241 14.007c-6.405.13-11.626 5.076-12.188 11.367h12.189V14.007h-.001z" fill="#283991"/><path d="M216.501 21.082l.191.587h.617l-.5.362.191.587-.499-.363-.499.363.191-.587-.499-.362h.617l.19-.587zm0 2.072l.191.587h.617l-.5.362.191.587-.499-.363-.499.363.191-.587-.499-.363h.617l.19-.586zm2.072-5.18l.191.587h.616l-.499.362.191.587-.499-.363-.499.363.191-.587-.5-.362h.617l.191-.587zm0 2.072l.191.587h.616l-.499.362.191.587-.499-.363-.499.363.191-.587-.5-.362h.617l.191-.587zm0 2.072l.191.587h.616l-.499.362.191.587-.499-.363-.499.363.191-.587-.5-.362h.617l.191-.587zm-3.645 1.536l-.191-.587.499-.363h-.616l-.014-.042c-.068.21-.13.422-.185.636l.008-.007.499.363zm1.074-3.108l.499-.363.499.363-.191-.587.499-.363h-.617l-.19-.586-.191.586h-.227l-.124.194.234.17-.191.586zm2.571-3.47l.499.362-.191-.587.499-.362h-.356a12.13 12.13 0 00-.875.718l-.075.23.499-.362zm1.573-.674l.499-.363.499.363-.191-.587.499-.362h-.617l-.026-.08a12.16 12.16 0 00-.617.337l.144.105-.19.587zm.499.536l.191.586h.616l-.499.363.191.587-.499-.363-.499.363.191-.587-.5-.363h.617l.191-.586zm0 2.072l.191.586h.616l-.499.363.191.587-.499-.363-.499.363.191-.587-.5-.363h.617l.191-.586zm0 2.072l.191.587h.616l-.499.362.191.587-.499-.363-.499.363.191-.587-.5-.362h.617l.191-.587zm0 2.072l.191.587h.616l-.499.362.191.587-.499-.363-.499.363.191-.587-.5-.363h.617l.191-.586zm2.072-7.252l.191.587h.616l-.498.362.19.587-.499-.363-.499.363.191-.587-.5-.362h.617l.191-.587zm0 2.072l.191.587h.616l-.498.362.19.587-.499-.363-.499.363.191-.587-.5-.362h.617l.191-.587zm0 2.072l.191.587h.616l-.498.362.19.587-.499-.363-.499.363.191-.587-.5-.362h.617l.191-.587zm0 2.072l.191.587h.616l-.498.362.19.587-.499-.363-.499.363.191-.587-.5-.362h.617l.191-.587zm2.072-7.252l.191.587h.616l-.499.362.191.587-.499-.363-.499.363.191-.587-.5-.362h.617l.191-.587zm0 2.072l.191.586h.616l-.499.363.191.587-.499-.363-.499.363.191-.587-.5-.363h.617l.191-.586zm0 2.072l.191.586h.616l-.499.363.191.587-.499-.363-.499.363.191-.587-.5-.363h.617l.191-.586zm0 2.072l.191.587h.616l-.499.362.191.587-.499-.363-.499.363.191-.587-.5-.362h.617l.191-.587zm0 2.072l.191.587h.616l-.499.362.191.587-.499-.363-.499.363.191-.587-.5-.363h.617l.191-.586z" fill="#EFEFEF"/><path d="M214.5 21v25c6.904 0 12.5-5.596 12.5-12.5S221.404 21 214.5 21z" fill="#252F6B"/><path d="M214.5 21c-6.904 0-12.5 5.596-12.5 12.5 0 6.903 5.596 12.5 12.5 12.5s6.904-25 0-25z" fill="#273375"/><path d="M210.573 40.162l.842-1.051-1.302.236-.452-1.262-.491 1.262-1.329-.236.845 1.028-.877 1.026 1.337-.21.451 1.235.491-1.234 1.364.243-.879-1.037zm9.963.928l.478-.596-.738.134-.256-.715-.278.715-.754-.134.479.582-.497.582.758-.119.255.7.279-.7.772.139-.498-.588zm0-13.158l.478-.596-.738.134-.256-.715-.278.715-.754-.134.479.583-.497.581.758-.119.255.7.279-.7.772.139-.498-.588zm3.092 3.404l.478-.596-.738.134-.256-.715-.278.715-.754-.134.479.582-.497.582.758-.119.255.7.279-.7.772.138-.498-.587zm-5.767 1.513l.478-.596-.738.134-.256-.714-.278.714-.753-.134.478.582-.497.582.758-.119.256.7.278-.7.773.139-.499-.588z" fill="#F3F4F5"/><path d="M204.625 25.84c-.196.253-.383.513-.56.78h1.34l-.78-.78zm6.455 7.66h1.204l-1.204-1.204V33.5zm-3.991-10.065a13.08 13.08 0 00-.831.67l.831.83v-1.5zM205.884 33.5h1.205v-1.205l-1.205 1.205zM214.5 21a12.5 12.5 0 00-3.42.478v3.457l3.42-3.42V21zm0 11.348v-1.736h-1.735l1.735 1.736zM202.516 33.5l2.888-2.888h-3.065A12.549 12.549 0 00202 33.5h.516zm10.248-6.88h1.736v-1.736l-1.736 1.736z" fill="#29337A"/><path d="M214.5 32.712v-.364l-1.735-1.736h1.735v-.621h-2.721l2.721 2.721zm-9.095-6.092h-1.34c-.134.203-.262.41-.383.621h2.632l-1.563-1.562a28.29 28.29 0 00-.126.161l.78.78zm1.684 5.675V33.5h.621v-2.114l-2.114 2.114h.288l1.205-1.205zm3.991-10.818c-.208.06-.416.124-.621.194v4.174l4.041-4.04v-.289l-3.42 3.42v-3.459zm-4.013 9.135l.022-.022.599-.6h-5.185c-.06.206-.115.414-.164.622h3.065l-2.888 2.888h1.663l2.888-2.888zm7.433-3.37v-.622h-1.736l1.736-1.736v-1.663l-4.02 4.02h4.02zm-7.411-2.306l-.831-.83c-.294.259-.577.531-.846.816l1.677 1.677.018.018.603.603v-4.213a12.58 12.58 0 00-.621.428v1.5zm3.991 7.36l1.204 1.204h1.587l-3.412-3.412V33.5h.621v-1.204z" fill="#EFEFEF"/><path d="M212.4 30.612l-.621-.621h2.721v-2.75h-4.02l-.021.021v-.02h.021l4.02-4.02v-1.418l-4.041 4.041v-4.174a12.48 12.48 0 00-2.749 1.336v4.213l.021.021h-.021v-.02l-.604-.604.004.003h-.021v-.02l-1.677-1.677c-.23.244-.45.497-.66.758l1.562 1.562h-2.632a12.398 12.398 0 00-1.179 2.749h5.185l.022-.022v.022h-.022l-.599.6v.021h-.022l-2.888 2.888h1.417l2.114-2.114V33.5h2.749v-3.412l3.412 3.412h.469c.053-.056.108-.111.16-.169v-.619l-2.1-2.1z" fill="#D32030"/><path d="M207.089 30.612v-.022l-.022.022h.022zm.621-.643l-.022.022h.022v-.022zm2.749-2.707l.021-.02h-.021v.02zm-3.37-.642h.021l-.003-.003-.018-.018v.021zm.642.621l-.021-.02v.02h.021z" fill="#D32030"/><circle cx="283.553" cy="29.604" r="29.604" fill="#EFEFEF"/><path d="M278.056 27.67h24.889-24.889zm1.297-6.825h22.294-22.294zm-.887 2.275h24.067-24.067zm4.906 13.647h14.256l.001-.001h-14.257zM290.5 14c-.246 0-.489.009-.731.023h1.462A12.842 12.842 0 00290.5 14zm-12.448 11.394h24.896-24.896z" fill="#C42126"/><path d="M294.194 18.571h5.969a12.583 12.583 0 00-2.445-2.274h-4.483c.371.653.69 1.423.959 2.274z" fill="#E7E7E7"/><path d="M293.235 16.297h4.482a12.426 12.426 0 00-6.486-2.274h-.385c1.134.142 1.655.982 2.389 2.274z" fill="#DC3027"/><path d="M302.534 23.12a12.372 12.372 0 00-.887-2.274h-6.867c.14.73.249 1.493.331 2.274h7.423z" fill="#E7E7E7"/><path d="M294.394 20.846h7.253a12.489 12.489 0 00-1.484-2.275h-6.335c.223.707.413 1.47.566 2.274z" fill="#DC3027"/><path d="M295.374 27.669h7.57c.036-.385.056-.775.056-1.169 0-.373-.02-.74-.052-1.105h-7.573c.025.757.024 1.516-.001 2.274z" fill="#E7E7E7"/><path d="M302.949 25.394a12.54 12.54 0 00-.415-2.274h-7.742c.077.745.129 1.507.154 2.274h8.003z" fill="#DC3027"/><path d="M294.65 32.217h6.965c.374-.726.676-1.488.901-2.274h-7.529a27.061 27.061 0 01-.337 2.274z" fill="#E7E7E7"/><path d="M302.516 29.943c.213-.743.356-1.504.428-2.274h-7.806c-.027.768-.08 1.53-.159 2.274h7.537z" fill="#DC3027"/><path d="M297.628 36.766a12.57 12.57 0 002.482-2.274h-5.865c-.274.855-.599 1.624-.977 2.274h4.36z" fill="#E7E7E7"/><path d="M294.025 34.492h6.085a12.537 12.537 0 001.505-2.275h-7.016a19.94 19.94 0 01-.574 2.275zm-3.978 4.5l-.076-.004.076.003zm.453.008c2.65 0 5.105-.827 7.128-2.233h-4.524C292.301 38.15 291.771 39 290.5 39z" fill="#DC3027"/><path d="M293.649 16.297h-10.366a12.56 12.56 0 00-2.446 2.274h13.771c-.269-.851-.588-1.621-.959-2.274z" fill="#F3F4F5"/><path d="M283.283 16.297h10.366c-.734-1.292-1.669-2.132-2.803-2.274h-1.077a12.426 12.426 0 00-6.486 2.274z" fill="#E73625"/><path d="M278.466 23.12h17.039a27.179 27.179 0 00-.33-2.274h-15.822a12.37 12.37 0 00-.887 2.274z" fill="#F3F4F5"/><path d="M280.837 18.571a12.49 12.49 0 00-1.484 2.274h15.822a20.06 20.06 0 00-.567-2.274h-13.771z" fill="#E73625"/><path d="M278 26.5c0 .394.021.784.056 1.169h17.602c.026-.756.026-1.518.001-2.274h-17.607A12.6 12.6 0 00278 26.5z" fill="#F3F4F5"/><path d="M278.052 25.394h17.607a32.002 32.002 0 00-.154-2.274h-17.039a12.452 12.452 0 00-.414 2.274z" fill="#E73625"/><path d="M295.499 29.943h-17.015c.225.786.527 1.548.901 2.274h15.777c.141-.73.254-1.491.337-2.274z" fill="#F3F4F5"/><path d="M278.484 29.943h17.015c.079-.744.132-1.506.159-2.274h-17.602c.072.77.215 1.53.428 2.274z" fill="#E73625"/><path d="M283.372 36.766h10.239c.378-.65.703-1.42.977-2.274H280.89c.721.866 1.556 1.63 2.482 2.274z" fill="#F3F4F5"/><path d="M279.385 32.217c.42.814.924 1.577 1.505 2.275h13.698c.227-.706.418-1.47.574-2.275h-15.777zm10.586 6.771l.076.003c.15.005.301.009.453.009 1.271 0 2.308-.85 3.111-2.233h-10.239a12.437 12.437 0 006.599 2.221z" fill="#E73625"/><path d="M290.241 14.007c-6.405.13-11.626 5.076-12.188 11.367h12.189V14.007h-.001z" fill="#283991"/><path d="M280.501 21.082l.19.587h.617l-.499.362.191.587-.499-.363-.499.363.191-.587-.499-.362h.617l.19-.587zm0 2.072l.19.587h.617l-.499.362.191.587-.499-.363-.499.363.191-.587-.499-.363h.617l.19-.586zm2.072-5.18l.191.587h.616l-.499.362.191.587-.499-.363-.499.363.191-.587-.5-.362h.617l.191-.587zm0 2.072l.191.587h.616l-.499.362.191.587-.499-.363-.499.363.191-.587-.5-.362h.617l.191-.587zm0 2.072l.191.587h.616l-.499.362.191.587-.499-.363-.499.363.191-.587-.5-.362h.617l.191-.587zm-3.645 1.536l-.191-.587.499-.363h-.616l-.014-.042c-.068.21-.13.422-.185.636l.008-.007.499.363zm1.074-3.108l.499-.363.499.363-.191-.587.499-.363h-.617l-.19-.586-.191.586h-.227l-.124.194.234.17-.191.586zm2.571-3.47l.499.362-.191-.587.499-.362h-.356a12.13 12.13 0 00-.875.718l-.075.23.499-.362zm1.573-.674l.499-.363.499.363-.191-.587.499-.362h-.617l-.026-.08c-.209.108-.415.219-.618.337l.145.105-.19.587zm.499.536l.191.586h.616l-.499.363.191.587-.499-.363-.499.363.191-.587-.5-.363h.617l.191-.586zm0 2.072l.191.586h.616l-.499.363.191.587-.499-.363-.499.363.191-.587-.5-.363h.617l.191-.586zm0 2.072l.191.587h.616l-.499.362.191.587-.499-.363-.499.363.191-.587-.5-.362h.617l.191-.587zm0 2.072l.191.587h.616l-.499.362.191.587-.499-.363-.499.363.191-.587-.5-.363h.617l.191-.586zm2.072-7.252l.191.587h.616l-.498.362.19.587-.499-.363-.499.363.191-.587-.5-.362h.617l.191-.587zm0 2.072l.191.587h.616l-.498.362.19.587-.499-.363-.499.363.191-.587-.5-.362h.617l.191-.587zm0 2.072l.191.587h.616l-.498.362.19.587-.499-.363-.499.363.191-.587-.5-.362h.617l.191-.587zm0 2.072l.191.587h.616l-.498.362.19.587-.499-.363-.499.363.191-.587-.5-.362h.617l.191-.587zm2.072-7.252l.191.587h.616l-.499.362.191.587-.499-.363-.499.363.191-.587-.5-.362h.617l.191-.587zm0 2.072l.191.586h.616l-.499.363.191.587-.499-.363-.499.363.191-.587-.5-.363h.617l.191-.586zm0 2.072l.191.586h.616l-.499.363.191.587-.499-.363-.499.363.191-.587-.5-.363h.617l.191-.586zm0 2.072l.191.587h.616l-.499.362.191.587-.499-.363-.499.363.191-.587-.5-.362h.617l.191-.587zm0 2.072l.191.587h.616l-.499.362.191.587-.499-.363-.499.363.191-.587-.5-.363h.617l.191-.586z" fill="#EFEFEF"/><path d="M278.5 46c6.904 0 12.5-5.596 12.5-12.5 0-6.903-5.596-12.499-12.5-12.499-6.903 0-12.499 5.596-12.499 12.5 0 6.903 5.596 12.499 12.499 12.499z" fill="#EFEFEF"/><path d="M266 33.5c0 4.698 2.594 8.79 6.426 10.925v-21.85C268.594 24.711 266 28.801 266 33.5z" fill="#D32027"/><path d="M278.5 46c-.144 0-.283-.005-.424-.008.141.005.282.008.424.008z" fill="#EFEFEF"/><path d="M278.5 21h-.012.012c6.903 0 6.903 25 0 25 2.201 0 4.267-.571 6.064-1.57V22.57A12.442 12.442 0 00278.5 21z" fill="#E7E7E7"/><path d="M284.564 22.57v21.86C288.402 42.296 291 38.202 291 33.5c0-4.703-2.598-8.797-6.436-10.93z" fill="#B52025"/><path d="M278.5 21h-.012a12.44 12.44 0 00-6.062 1.575v21.85a12.42 12.42 0 005.65 1.567c.142.003.28.008.424.008 6.903 0 6.903-25 0-25z" fill="#F3F1F2"/><path d="M283.351 33.274c-.172-.164-.525-.146-.588-.419-.083-.67.225-1.06.42-1.509-.985.23-1.762.61-1.761-.503-.565.692-1.173 1.383-1.424 1.258-.357-.21.342-1.99.418-2.934-.345.158-1.005.503-1.005.503s-.601-1.175-.919-1.754v-.006l-.001.003-.002-.003v.006c-.318.58-.919 1.754-.919 1.754s-.661-.345-1.005-.503c.076.945.774 2.724.418 2.934-.251.125-.859-.566-1.424-1.258 0 1.113-.776.734-1.761.503.195.448.503.838.419 1.51-.062.272-.415.254-.587.418 1.143 1.142 3.123 1.99 2.18 2.934l2.543-.238c.083.86-.186 1.914.047 2.5h.179c.238-.607-.034-1.64.049-2.5l2.543.238c-.943-.943 1.037-1.792 2.18-2.934z" fill="#D32027"/><circle cx="346.761" cy="29.604" r="29.604" fill="#EFEFEF"/><path d="M353.501 39C360.404 39 366 33.404 366 26.5c0-6.903-5.596-12.499-12.499-12.499-6.904 0-12.5 5.596-12.5 12.5 0 6.903 5.596 12.499 12.5 12.499z" fill="#EFEFEF"/><path d="M365.286 22.332l-.004-.01c-1.6-4.511-5.715-7.83-10.659-8.27 1.913 1.048 2.471 4.371 2.961 8.28a34.59 34.59 0 01.006 8.286c-.485 3.93-1.046 7.277-2.967 8.33 4.953-.441 9.074-3.771 10.667-8.294l.012-.036a12.498 12.498 0 00-.016-8.286z" fill="#D32027"/><path d="M358.227 22.332c-.489-3.909-1.691-7.232-3.604-8.28A12.738 12.738 0 00353.5 14c-5.438 0-10.062 3.473-11.782 8.321l-.004.011A12.475 12.475 0 00341 26.5a12.476 12.476 0 00.71 4.154c1.712 4.86 6.343 8.346 11.79 8.346.378 0 .752-.019 1.122-.052 1.922-1.053 3.126-4.4 3.612-8.33a34.54 34.54 0 00-.007-8.286z" fill="#DB2727"/><path d="M351.341 20.055h4.299v12.894h-4.299V20.055z" fill="#EFEFEF"/><path d="M347.044 24.353h12.894v4.298h-12.894v-4.298z" fill="#EFEFEF"/><path d="M329.056 34.67h24.889-24.889zm1.297-6.825h22.294-22.294zm-.887 2.275h24.067-24.067zm4.906 13.647h14.256l.001-.001h-14.257zM341.5 21c-.246 0-.489.009-.731.023h1.462A12.842 12.842 0 00341.5 21zm-12.448 11.394h24.896-24.896z" fill="#C42126"/><path d="M345.194 25.571h5.969a12.583 12.583 0 00-2.445-2.274h-4.483c.371.653.69 1.423.959 2.274z" fill="#E7E7E7"/><path d="M344.235 23.297h4.482a12.426 12.426 0 00-6.486-2.274h-.385c1.134.142 1.655.982 2.389 2.274z" fill="#DC3027"/><path d="M353.534 30.12a12.372 12.372 0 00-.887-2.274h-6.867c.14.73.249 1.493.331 2.274h7.423z" fill="#E7E7E7"/><path d="M345.394 27.846h7.253a12.489 12.489 0 00-1.484-2.275h-6.335c.223.707.413 1.47.566 2.274z" fill="#DC3027"/><path d="M346.374 34.669h7.57c.036-.385.056-.775.056-1.169 0-.373-.02-.74-.052-1.105h-7.573c.025.757.024 1.516-.001 2.274z" fill="#E7E7E7"/><path d="M353.949 32.394a12.54 12.54 0 00-.415-2.274h-7.742c.077.745.129 1.507.154 2.274h8.003z" fill="#DC3027"/><path d="M345.65 39.217h6.965c.374-.726.676-1.488.901-2.274h-7.529a27.061 27.061 0 01-.337 2.274z" fill="#E7E7E7"/><path d="M353.516 36.943c.213-.743.356-1.504.428-2.274h-7.806c-.027.768-.08 1.53-.159 2.274h7.537z" fill="#DC3027"/><path d="M348.628 43.766a12.57 12.57 0 002.482-2.274h-5.865c-.274.855-.599 1.624-.977 2.274h4.36z" fill="#E7E7E7"/><path d="M345.025 41.492h6.085a12.537 12.537 0 001.505-2.275h-7.016a19.94 19.94 0 01-.574 2.275zm-3.978 4.5l-.076-.004.076.003zm.453.008c2.65 0 5.105-.827 7.128-2.233h-4.524C343.301 45.15 342.771 46 341.5 46z" fill="#DC3027"/><path d="M344.649 23.297h-10.366a12.56 12.56 0 00-2.446 2.274h13.771c-.269-.851-.588-1.621-.959-2.274z" fill="#F3F4F5"/><path d="M334.283 23.297h10.366c-.734-1.292-1.669-2.132-2.803-2.274h-1.077a12.426 12.426 0 00-6.486 2.274z" fill="#E73625"/><path d="M329.466 30.12h17.039a27.179 27.179 0 00-.33-2.274h-15.822a12.37 12.37 0 00-.887 2.274z" fill="#F3F4F5"/><path d="M331.837 25.571a12.49 12.49 0 00-1.484 2.274h15.822a20.06 20.06 0 00-.567-2.274h-13.771z" fill="#E73625"/><path d="M329 33.5c0 .394.021.784.056 1.169h17.602c.026-.756.026-1.518.001-2.274h-17.607A12.6 12.6 0 00329 33.5z" fill="#F3F4F5"/><path d="M329.052 32.394h17.607a32.002 32.002 0 00-.154-2.274h-17.039a12.452 12.452 0 00-.414 2.274z" fill="#E73625"/><path d="M346.499 36.943h-17.015c.225.786.527 1.548.901 2.274h15.777c.141-.73.254-1.492.337-2.274z" fill="#F3F4F5"/><path d="M329.484 36.943h17.015c.079-.744.132-1.506.159-2.274h-17.602c.072.77.215 1.53.428 2.274z" fill="#E73625"/><path d="M334.372 43.766h10.239c.378-.65.703-1.42.977-2.274H331.89c.721.866 1.556 1.63 2.482 2.274z" fill="#F3F4F5"/><path d="M330.385 39.217c.42.814.924 1.577 1.505 2.275h13.698c.227-.706.418-1.47.574-2.275h-15.777zm10.586 6.771l.076.003c.15.005.301.009.453.009 1.271 0 2.308-.85 3.111-2.233h-10.239a12.437 12.437 0 006.599 2.221z" fill="#E73625"/><path d="M341.241 21.007c-6.405.13-11.626 5.076-12.188 11.367h12.189V21.007h-.001z" fill="#283991"/><path d="M331.501 28.082l.19.587h.617l-.499.362.191.587-.499-.363-.499.363.191-.587-.499-.362h.617l.19-.587zm0 2.072l.19.587h.617l-.499.362.191.587-.499-.363-.499.363.191-.587-.499-.363h.617l.19-.586zm2.072-5.18l.191.587h.616l-.499.362.191.587-.499-.363-.499.363.191-.587-.5-.362h.617l.191-.587zm0 2.072l.191.587h.616l-.499.362.191.587-.499-.363-.499.363.191-.587-.5-.362h.617l.191-.587zm0 2.072l.191.587h.616l-.499.362.191.587-.499-.363-.499.363.191-.587-.5-.362h.617l.191-.587zm-3.645 1.536l-.191-.587.499-.363h-.616l-.014-.042c-.068.21-.13.422-.185.636l.008-.007.499.363zm1.074-3.108l.499-.363.499.363-.191-.587.499-.363h-.617l-.19-.586-.191.586h-.227l-.124.194.234.17-.191.586zm2.571-3.47l.499.362-.191-.587.499-.362h-.356a12.13 12.13 0 00-.875.718l-.075.23.499-.362zm1.573-.674l.499-.363.499.363-.191-.587.499-.362h-.617l-.026-.08c-.209.108-.415.219-.618.337l.145.105-.19.587zm.499.536l.191.586h.616l-.499.363.191.587-.499-.363-.499.363.191-.587-.5-.363h.617l.191-.586zm0 2.072l.191.586h.616l-.499.363.191.587-.499-.363-.499.363.191-.587-.5-.363h.617l.191-.586zm0 2.072l.191.587h.616l-.499.362.191.587-.499-.363-.499.363.191-.587-.5-.362h.617l.191-.587zm0 2.072l.191.587h.616l-.499.362.191.587-.499-.363-.499.363.191-.587-.5-.363h.617l.191-.586zm2.072-7.252l.191.587h.616l-.498.362.19.587-.499-.363-.499.363.191-.587-.5-.362h.617l.191-.587zm0 2.072l.191.587h.616l-.498.362.19.587-.499-.363-.499.363.191-.587-.5-.362h.617l.191-.587zm0 2.072l.191.587h.616l-.498.362.19.587-.499-.363-.499.363.191-.587-.5-.362h.617l.191-.587zm0 2.072l.191.587h.616l-.498.362.19.587-.499-.363-.499.363.191-.587-.5-.362h.617l.191-.587zm2.072-7.252l.191.587h.616l-.499.362.191.587-.499-.363-.499.363.191-.587-.5-.362h.617l.191-.587zm0 2.072l.191.586h.616l-.499.363.191.587-.499-.363-.499.363.191-.587-.5-.363h.617l.191-.586zm0 2.072l.191.586h.616l-.499.363.191.587-.499-.363-.499.363.191-.587-.5-.363h.617l.191-.586zm0 2.072l.191.587h.616l-.499.362.191.587-.499-.363-.499.363.191-.587-.5-.362h.617l.191-.587zm0 2.072l.191.587h.616l-.499.362.191.587-.499-.363-.499.363.191-.587-.5-.363h.617l.191-.586z" fill="#EFEFEF"/><defs><linearGradient id="paint0_linear_489_13196" x1="87.999" y1="26.499" x2="112.999" y2="26.499" gradientUnits="userSpaceOnUse"><stop stop-color="#F3F2F2"/><stop offset="1" stop-color="#EFECEC"/></linearGradient></defs></svg>