<svg width="25" height="25" fill="none" xmlns="http://www.w3.org/2000/svg"><path d="M21.094 1.563h-3.125V.78a.782.782 0 00-1.563 0v.781H8.594v-.78a.782.782 0 00-1.563 0v.78H3.906A3.125 3.125 0 00.781 4.688v17.188C.781 23.6 2.181 25 3.906 25h17.188c1.726 0 3.125-1.4 3.125-3.125V4.687c0-1.725-1.4-3.125-3.125-3.125zm1.562 20.312c0 .863-.699 1.563-1.562 1.563H3.906c-.863 0-1.562-.7-1.562-1.563V7.812h20.312v14.063zm0-15.625H2.344V4.687c0-.863.699-1.562 1.562-1.562h3.125v.781a.782.782 0 001.563 0v-.781h7.812v.781a.782.782 0 001.563 0v-.781h3.125c.863 0 1.562.7 1.562 1.562V6.25z" fill="#EFEFEF"/></svg>