<svg width="1920" height="824" fill="none" xmlns="http://www.w3.org/2000/svg"><path d="M1092 741.438c77.6-253.271 226.76-673.992 202.66-330.714-30.12 429.098 175.82 477.105 335.6 352.05 159.77-125.054 108.69-596.825 267.49-337.233 158.79 259.593 307.1 401.242 216.41 365.089-127.88-50.977-5.24-379.906 102.48-294.56 34.4 27.258 99.53 206.449 127.36 294.56" stroke="#EFEFEF" stroke-opacity=".5"/><path d="M1092 729.587c77.6-253.271 226.76-673.992 202.66-330.714-30.12 429.098 175.82 477.105 335.6 352.05 159.77-125.054 108.69-596.825 267.49-337.233 158.79 259.593 307.1 401.243 216.41 365.089-127.88-50.977-5.24-379.906 102.48-294.56 34.4 27.258 99.53 206.449 127.36 294.56" stroke="#EFEFEF" stroke-opacity=".5"/><path d="M1092 717.736c77.6-253.27 226.76-673.992 202.66-330.713-30.12 429.098 175.82 477.104 335.6 352.05 159.77-125.055 108.69-596.826 267.49-337.234 158.79 259.593 307.1 401.243 216.41 365.089-127.88-50.977-5.24-379.905 102.48-294.56 34.4 27.258 99.53 206.449 127.36 294.56" stroke="#EFEFEF" stroke-opacity=".5"/><path d="M1092 705.885c77.6-253.27 226.76-673.992 202.66-330.713-30.12 429.098 175.82 477.105 335.6 352.05 159.77-125.055 108.69-596.826 267.49-337.233 158.79 259.592 307.1 401.242 216.41 365.089-127.88-50.977-5.24-379.906 102.48-294.561 34.4 27.258 99.53 206.449 127.36 294.561" stroke="#EFEFEF" stroke-opacity=".5"/><path d="M1092 695.819c77.6-247.728 226.76-659.243 202.66-323.477-30.12 419.709 175.82 466.665 335.6 344.347 159.77-122.318 108.69-583.766 267.49-329.854 158.79 253.912 307.1 392.462 216.41 357.1-127.88-49.861-5.24-371.593 102.48-288.115 34.4 26.662 99.53 201.932 127.36 288.115" stroke="#EFEFEF" stroke-opacity=".5"/><path d="M1092 683.969c77.6-247.729 226.76-659.244 202.66-323.477-30.12 419.708 175.82 466.665 335.6 344.346 159.77-122.318 108.69-583.766 267.49-329.854 158.79 253.912 307.1 392.463 216.41 357.1-127.88-49.861-5.24-371.592 102.48-288.114 34.4 26.661 99.53 201.931 127.36 288.114" stroke="#EFEFEF" stroke-opacity=".5"/><path d="M1092 672.118c77.6-247.729 226.76-659.244 202.66-323.477-30.12 419.708 175.82 466.665 335.6 344.346 159.77-122.318 108.69-583.766 267.49-329.853 158.79 253.912 307.1 392.462 216.41 357.1-127.88-49.862-5.24-371.593 102.48-288.115 34.4 26.661 99.53 201.931 127.36 288.115" stroke="#EFEFEF" stroke-opacity=".5"/><path d="M1092 660.267c77.6-247.728 226.76-659.244 202.66-323.477-30.12 419.709 175.82 466.665 335.6 344.347 159.77-122.319 108.69-583.766 267.49-329.854 158.79 253.912 307.1 392.462 216.41 357.1-127.88-49.861-5.24-371.593 102.48-288.115 34.4 26.662 99.53 201.932 127.36 288.115" stroke="#EFEFEF" stroke-opacity=".5"/><path d="M1092 648.416c77.6-247.728 226.76-659.244 202.66-323.477-30.12 419.709 175.82 466.665 335.6 344.347 159.77-122.319 108.69-583.766 267.49-329.854 158.79 253.912 307.1 392.462 216.41 357.1-127.88-49.862-5.24-371.593 102.48-288.115 34.4 26.662 99.53 201.932 127.36 288.115" stroke="#EFEFEF" stroke-opacity=".5"/><path d="M1092 636.566c77.6-247.729 226.76-659.245 202.66-323.478-30.12 419.709 175.82 466.665 335.6 344.347 159.77-122.318 108.69-583.766 267.49-329.854 158.79 253.912 307.1 392.463 216.41 357.1-127.88-49.861-5.24-371.593 102.48-288.115 34.4 26.662 99.53 201.932 127.36 288.115" stroke="#EFEFEF" stroke-opacity=".5"/><path d="M1092 624.715c77.6-247.729 226.76-659.244 202.66-323.477-30.12 419.708 175.82 466.665 335.6 344.346 159.77-122.318 108.69-583.766 267.49-329.854 158.79 253.913 307.1 392.463 216.41 357.101-127.88-49.862-5.24-371.593 102.48-288.115 34.4 26.661 99.53 201.931 127.36 288.115" stroke="#EFEFEF" stroke-opacity=".5"/><path d="M1092 612.864c77.6-247.729 226.76-659.244 202.66-323.477-30.12 419.708 175.82 466.665 335.6 344.346 159.77-122.318 108.69-583.766 267.49-329.854 158.79 253.913 307.1 392.463 216.41 357.101-127.88-49.862-5.24-371.593 102.48-288.115 34.4 26.661 99.53 201.931 127.36 288.115" stroke="#EFEFEF" stroke-opacity=".5"/><path d="M1092 601.013c77.6-247.728 226.76-659.244 202.66-323.477-30.12 419.709 175.82 466.665 335.6 344.347 159.77-122.319 108.69-583.766 267.49-329.854 158.79 253.912 307.1 392.462 216.41 357.1-127.88-49.861-5.24-371.593 102.48-288.115 34.4 26.662 99.53 201.932 127.36 288.115" stroke="#EFEFEF" stroke-opacity=".5"/><path d="M1092 589.162c77.6-247.728 226.76-659.244 202.66-323.477-30.12 419.709 175.82 466.665 335.6 344.347 159.77-122.319 108.69-583.766 267.49-329.854 158.79 253.912 307.1 392.462 216.41 357.1-127.88-49.861-5.24-371.593 102.48-288.115 34.4 26.662 99.53 201.932 127.36 288.115" stroke="#EFEFEF" stroke-opacity=".5"/><path d="M1092 577.312c77.6-247.729 226.76-659.245 202.66-323.478-30.12 419.709 175.82 466.665 335.6 344.347 159.77-122.318 108.69-583.766 267.49-329.854 158.79 253.912 307.1 392.462 216.41 357.1-127.88-49.861-5.24-371.593 102.48-288.115 34.4 26.662 99.53 201.932 127.36 288.115" stroke="#EFEFEF" stroke-opacity=".5"/><path d="M1092 565.461c77.6-247.729 226.76-659.244 202.66-323.477-30.12 419.708 175.82 466.665 335.6 344.346 159.77-122.318 108.69-583.766 267.49-329.854 158.79 253.912 307.1 392.463 216.41 357.101-127.88-49.862-5.24-371.593 102.48-288.115 34.4 26.661 99.53 201.931 127.36 288.115" stroke="#EFEFEF" stroke-opacity=".5"/><path d="M1092 553.61c77.6-247.729 226.76-659.244 202.66-323.477-30.12 419.709 175.82 466.665 335.6 344.346 159.77-122.318 108.69-583.766 267.49-329.853 158.79 253.912 307.1 392.462 216.41 357.1-127.88-49.862-5.24-371.593 102.48-288.115 34.4 26.661 99.53 201.931 127.36 288.115" stroke="#EFEFEF" stroke-opacity=".5"/><path d="M1092 541.759c77.6-247.728 226.76-659.244 202.66-323.477-30.12 419.709 175.82 466.665 335.6 344.347 159.77-122.319 108.69-583.766 267.49-329.854 158.79 253.912 307.1 392.462 216.41 357.1-127.88-49.861-5.24-371.593 102.48-288.115 34.4 26.662 99.53 201.932 127.36 288.115" stroke="#EFEFEF" stroke-opacity=".5"/><path d="M-160 646.632C-74.766 393.361 89.086-27.361 62.617 315.918c-33.087 429.098 193.126 477.105 368.63 352.05s119.4-596.826 293.826-337.233c174.425 259.592 337.337 401.242 237.721 365.089-140.466-50.977-5.754-379.906 112.566-294.561 37.79 27.258 109.33 206.449 139.9 294.561" stroke="#EFEFEF" stroke-opacity=".5"/><path d="M-160 634.781C-74.766 381.51 89.086-39.211 62.617 304.067c-33.087 429.098 193.126 477.105 368.63 352.05s119.4-596.825 293.826-337.233c174.425 259.592 337.337 401.242 237.721 365.089-140.466-50.977-5.754-379.906 112.566-294.56 37.79 27.258 109.33 206.449 139.9 294.56" stroke="#EFEFEF" stroke-opacity=".5"/><path d="M-160 622.93C-74.766 369.659 89.086-51.062 62.617 292.216c-33.087 429.098 193.126 477.105 368.63 352.05s119.4-596.825 293.826-337.233c174.425 259.593 337.337 401.242 237.721 365.089-140.466-50.977-5.754-379.906 112.566-294.56 37.79 27.258 109.33 206.449 139.9 294.56" stroke="#EFEFEF" stroke-opacity=".5"/><path d="M-160 611.079C-74.766 357.809 89.086-62.913 62.617 280.366 29.53 709.464 255.743 757.47 431.247 632.416c175.504-125.055 119.4-596.826 293.826-337.233 174.425 259.592 337.337 401.242 237.721 365.088-140.466-50.976-5.754-379.905 112.566-294.56 37.79 27.258 109.33 206.449 139.9 294.56" stroke="#EFEFEF" stroke-opacity=".5"/><path d="M-160 601.013C-74.766 353.285 89.086-58.231 62.617 277.536 29.53 697.245 255.743 744.201 431.247 621.883c175.504-122.319 119.4-583.766 293.826-329.854 174.425 253.912 337.337 392.462 237.721 357.1-140.466-49.861-5.754-371.593 112.566-288.115 37.79 26.662 109.33 201.932 139.9 288.115" stroke="#EFEFEF" stroke-opacity=".5"/><path d="M-160 589.162C-74.766 341.434 89.086-70.082 62.617 265.685 29.53 685.394 255.743 732.35 431.247 610.032c175.504-122.319 119.4-583.766 293.826-329.854 174.425 253.912 337.337 392.462 237.721 357.1-140.466-49.861-5.754-371.593 112.566-288.115 37.79 26.662 109.33 201.932 139.9 288.115" stroke="#EFEFEF" stroke-opacity=".5"/><path d="M-160 577.312C-74.766 329.583 89.086-81.933 62.617 253.834 29.53 673.543 255.743 720.499 431.247 598.181c175.504-122.318 119.4-583.766 293.826-329.854 174.425 253.912 337.337 392.462 237.721 357.1-140.466-49.861-5.754-371.593 112.566-288.115 37.79 26.662 109.33 201.932 139.9 288.115" stroke="#EFEFEF" stroke-opacity=".5"/><path d="M-160 565.461C-74.766 317.732 89.086-93.783 62.617 241.984 29.53 661.692 255.743 708.649 431.247 586.33c175.504-122.318 119.4-583.766 293.826-329.854 174.425 253.912 337.337 392.463 237.721 357.101-140.466-49.862-5.754-371.593 112.566-288.115 37.79 26.661 109.33 201.931 139.9 288.115" stroke="#EFEFEF" stroke-opacity=".5"/><path d="M-160 553.61C-74.766 305.881 89.086-105.634 62.617 230.133 29.53 649.842 255.743 696.798 431.247 574.479c175.504-122.318 119.4-583.766 293.826-329.853 174.425 253.912 337.337 392.462 237.721 357.1-140.466-49.862-5.754-371.593 112.566-288.115 37.79 26.661 109.33 201.931 139.9 288.115" stroke="#EFEFEF" stroke-opacity=".5"/><path d="M-160 541.759C-74.766 294.031 89.086-117.485 62.617 218.282 29.53 637.991 255.743 684.947 431.247 562.629c175.504-122.319 119.4-583.766 293.826-329.854 174.425 253.912 337.337 392.462 237.721 357.1-140.466-49.861-5.754-371.593 112.566-288.115 37.79 26.662 109.33 201.932 139.9 288.115" stroke="#EFEFEF" stroke-opacity=".5"/><path d="M-160 529.909C-74.766 282.18 89.086-129.335 62.617 206.431 29.53 626.14 255.743 673.096 431.247 550.778c175.504-122.318 119.4-583.766 293.826-329.854 174.425 253.912 337.337 392.462 237.721 357.1-140.466-49.861-5.754-371.593 112.566-288.115 37.79 26.662 109.33 201.932 139.9 288.115" stroke="#EFEFEF" stroke-opacity=".5"/><path d="M-160 518.058C-74.766 270.329 89.086-141.186 62.617 194.581 29.53 614.289 255.743 661.245 431.247 538.927c175.504-122.318 119.4-583.766 293.826-329.854 174.425 253.912 337.337 392.463 237.721 357.1-140.466-49.861-5.754-371.592 112.566-288.115 37.79 26.662 109.33 201.932 139.9 288.115" stroke="#EFEFEF" stroke-opacity=".5"/><path d="M-160 506.207C-74.766 258.478 89.086-153.037 62.617 182.73 29.53 602.438 255.743 649.395 431.247 527.076c175.504-122.318 119.4-583.765 293.826-329.853 174.425 253.912 337.337 392.462 237.721 357.1-140.466-49.862-5.754-371.593 112.566-288.115 37.79 26.661 109.33 201.931 139.9 288.115" stroke="#EFEFEF" stroke-opacity=".5"/><path d="M-160 494.356C-74.766 246.627 89.086-164.888 62.617 170.879 29.53 590.588 255.743 637.544 431.247 515.226c175.504-122.319 119.4-583.766 293.826-329.854 174.425 253.912 337.337 392.462 237.721 357.1-140.466-49.862-5.754-371.593 112.566-288.115 37.79 26.662 109.33 201.932 139.9 288.115" stroke="#EFEFEF" stroke-opacity=".5"/><path d="M-160 482.505C-74.766 234.777 89.086-176.739 62.617 159.028 29.53 578.737 255.743 625.693 431.247 503.375c175.504-122.319 119.4-583.766 293.826-329.854 174.425 253.912 337.337 392.462 237.721 357.1-140.466-49.861-5.754-371.593 112.566-288.115 37.79 26.662 109.33 201.932 139.9 288.115" stroke="#EFEFEF" stroke-opacity=".5"/><path d="M-160 470.654C-74.766 222.926 89.086-188.59 62.617 147.177 29.53 566.886 255.743 613.842 431.247 491.524c175.504-122.318 119.4-583.766 293.826-329.854 174.425 253.912 337.337 392.462 237.721 357.1-140.466-49.861-5.754-371.593 112.566-288.115 37.79 26.662 109.33 201.932 139.9 288.115" stroke="#EFEFEF" stroke-opacity=".5"/><path d="M-160 458.804C-74.766 211.075 89.086-200.44 62.617 135.327 29.53 555.035 255.743 601.992 431.247 479.673c175.504-122.318 119.4-583.766 293.826-329.854 174.425 253.912 337.337 392.463 237.721 357.1-140.466-49.861-5.754-371.592 112.566-288.114 37.79 26.661 109.33 201.931 139.9 288.114" stroke="#EFEFEF" stroke-opacity=".5"/><path d="M-160 446.953C-74.766 199.224 89.086-212.291 62.617 123.476 29.53 543.184 255.743 590.141 431.247 467.822c175.504-122.318 119.4-583.766 293.826-329.853 174.425 253.912 337.337 392.462 237.721 357.1-140.466-49.862-5.754-371.593 112.566-288.115 37.79 26.661 109.33 201.931 139.9 288.115" stroke="#EFEFEF" stroke-opacity=".5"/></svg>