<svg width="252" height="78" fill="none" xmlns="http://www.w3.org/2000/svg"><path d="M80.373 35.222v-22.94h9.272c.223 0 .5.01.828.031.33.011.643.043.94.096 1.275.202 2.337.637 3.187 1.306a6.148 6.148 0 011.927 2.533c.425 1.02.638 2.146.638 3.378 0 1.242-.213 2.373-.638 3.393a6.148 6.148 0 01-1.927 2.533c-.85.67-1.912 1.105-3.187 1.306a12.14 12.14 0 01-.956.096c-.329.021-.6.032-.812.032h-5.942v8.236h-3.33zm3.33-11.39h5.815c.212 0 .446-.011.7-.032a5.42 5.42 0 00.75-.112c.679-.16 1.226-.451 1.64-.876.414-.436.712-.935.892-1.498a5.352 5.352 0 000-3.361 3.724 3.724 0 00-.892-1.482c-.414-.435-.961-.732-1.64-.892a4.075 4.075 0 00-.75-.127 8.468 8.468 0 00-.7-.032h-5.815v8.411zM104.679 35.7c-1.274 0-2.342-.234-3.202-.7-.86-.479-1.513-1.105-1.96-1.88a5.237 5.237 0 01-.653-2.582c0-.87.154-1.635.462-2.294a4.423 4.423 0 011.37-1.672c.606-.468 1.349-.845 2.231-1.131a24.41 24.41 0 012.597-.59c.966-.17 1.98-.33 3.042-.478 1.073-.149 2.135-.297 3.187-.446l-1.211.67c.021-1.35-.266-2.348-.86-2.996-.585-.658-1.594-.988-3.027-.988-.903 0-1.732.213-2.486.638-.754.414-1.279 1.104-1.577 2.07l-3.106-.955c.424-1.476 1.232-2.65 2.421-3.52 1.2-.872 2.793-1.307 4.78-1.307 1.54 0 2.878.265 4.014.796a4.95 4.95 0 012.517 2.485 5.23 5.23 0 01.51 1.785c.064.626.096 1.3.096 2.023v10.594h-2.948v-3.935l.574.51c-.712 1.317-1.62 2.3-2.724 2.947-1.094.638-2.443.956-4.047.956zm.59-2.724c.945 0 1.757-.165 2.437-.494.68-.34 1.227-.77 1.641-1.29.414-.52.685-1.063.812-1.625a5.69 5.69 0 00.303-1.72c.032-.638.048-1.148.048-1.53l1.083.398a649.1 649.1 0 01-2.867.43 72.52 72.52 0 00-2.342.383c-.691.116-1.307.26-1.848.43a6.21 6.21 0 00-1.227.573 2.81 2.81 0 00-.844.813c-.202.318-.303.706-.303 1.163 0 .446.112.86.335 1.242.223.372.563.67 1.019.892.457.223 1.041.335 1.753.335zm22.537 2.246a14.255 14.255 0 01-3.186.271c-1.041-.032-1.971-.234-2.788-.605a3.797 3.797 0 01-1.848-1.753 5.124 5.124 0 01-.606-2.166 89.875 89.875 0 01-.032-2.518V13.237h3.346v15.055c0 .69.005 1.29.016 1.8.021.51.133.94.334 1.29.383.66.988 1.036 1.817 1.132.839.085 1.821.048 2.947-.112v2.82zm-11.757-14.529v-2.676h11.757v2.676h-11.757zm15.384 14.53V18.016h2.964v4.174l-.415-.542a6.34 6.34 0 01.829-1.514c.34-.467.733-.85 1.179-1.147a5.026 5.026 0 011.449-.732 6.36 6.36 0 011.657-.319 6.325 6.325 0 011.625.08v3.122c-.563-.149-1.189-.191-1.88-.127a4.117 4.117 0 00-1.88.653 4.23 4.23 0 00-1.29 1.274 5.413 5.413 0 00-.669 1.673 8.655 8.655 0 00-.207 1.928v8.682h-3.362zm19.483.477c-1.721 0-3.213-.388-4.477-1.163-1.264-.775-2.241-1.843-2.931-3.202-.68-1.37-1.02-2.947-1.02-4.732 0-1.794.351-3.372 1.051-4.731.701-1.37 1.684-2.432 2.948-3.186 1.264-.765 2.74-1.147 4.429-1.147 1.72 0 3.212.387 4.476 1.163 1.264.775 2.241 1.842 2.931 3.202.691 1.36 1.036 2.926 1.036 4.7 0 1.794-.35 3.377-1.051 4.747-.691 1.36-1.668 2.427-2.932 3.202-1.264.765-2.751 1.147-4.46 1.147zm0-3.138c1.646 0 2.872-.553 3.68-1.657.817-1.115 1.226-2.55 1.226-4.302 0-1.794-.414-3.228-1.242-4.3-.818-1.084-2.039-1.626-3.664-1.626-1.116 0-2.034.255-2.757.765-.722.499-1.258 1.195-1.609 2.087-.35.881-.525 1.906-.525 3.075 0 1.805.414 3.25 1.242 4.333.829 1.083 2.045 1.625 3.649 1.625zm24.02 2.66v-8.46c0-.668-.059-1.353-.176-2.054a6.146 6.146 0 00-.637-1.976 3.742 3.742 0 00-1.322-1.465c-.563-.372-1.301-.558-2.215-.558-.594 0-1.157.1-1.688.303a3.515 3.515 0 00-1.402.94c-.393.435-.707 1.009-.94 1.72-.223.712-.335 1.577-.335 2.597l-2.071-.78c0-1.562.292-2.937.876-4.127.585-1.2 1.424-2.135 2.518-2.804 1.093-.669 2.416-1.003 3.966-1.003 1.19 0 2.188.19 2.995.573.808.383 1.461.887 1.96 1.514a6.78 6.78 0 011.163 2.023c.265.733.446 1.45.542 2.15.095.701.143 1.317.143 1.848v9.56h-3.377zm-12.092 0V18.017h2.979v4.97h.398v12.235h-3.377zm26.102.462c-1.189 0-2.187-.191-2.995-.573-.807-.383-1.465-.882-1.975-1.498a7.174 7.174 0 01-1.147-2.039 10.466 10.466 0 01-.542-2.15 13.978 13.978 0 01-.143-1.849v-9.558h3.377v8.459c0 .67.053 1.36.16 2.071.116.701.329 1.354.637 1.96a3.9 3.9 0 001.322 1.465c.574.372 1.317.558 2.23.558a4.95 4.95 0 001.689-.287 3.54 3.54 0 001.386-.956c.404-.435.717-1.009.94-1.72.234-.712.351-1.578.351-2.597l2.071.78c0 1.562-.293 2.942-.877 4.143-.584 1.19-1.423 2.118-2.517 2.788-1.094.669-2.416 1.003-3.967 1.003zm5.688-.462v-4.97h-.398V18.017h3.361v17.205h-2.963zm14.011.462c-2.093 0-3.797-.462-5.114-1.386-1.317-.924-2.124-2.225-2.422-3.903l3.409-.526a3.45 3.45 0 001.466 2.12c.775.509 1.737.764 2.884.764 1.04 0 1.853-.213 2.437-.637.595-.425.892-1.01.892-1.753 0-.435-.106-.786-.318-1.051-.202-.276-.632-.537-1.291-.78-.658-.245-1.662-.548-3.011-.909-1.476-.382-2.65-.791-3.521-1.227-.86-.446-1.476-.96-1.848-1.545-.361-.595-.541-1.312-.541-2.15 0-1.041.276-1.95.828-2.725.553-.775 1.328-1.375 2.326-1.8 1.009-.425 2.188-.637 3.537-.637 1.317 0 2.49.207 3.521.621 1.03.414 1.864 1.004 2.501 1.768.637.754 1.019 1.641 1.147 2.66l-3.409.622c-.117-.828-.505-1.481-1.163-1.96-.659-.477-1.514-.738-2.565-.78-1.009-.043-1.827.128-2.454.51-.626.372-.94.887-.94 1.545 0 .383.117.706.351.972.244.265.711.52 1.402.765.69.244 1.71.536 3.059.876 1.444.371 2.591.786 3.441 1.242.849.447 1.455.983 1.816 1.61.372.616.557 1.364.557 2.246 0 1.7-.621 3.032-1.864 3.998-1.232.967-2.936 1.45-5.113 1.45zM80.692 67.222v-22.94h3.33v22.94h-3.33zm20.189 0v-8.46c0-.668-.058-1.353-.175-2.054a6.17 6.17 0 00-.637-1.976 3.742 3.742 0 00-1.323-1.465c-.563-.372-1.3-.558-2.214-.558-.595 0-1.158.1-1.689.303a3.519 3.519 0 00-1.402.94c-.393.435-.706 1.009-.94 1.72-.223.712-.334 1.577-.334 2.597l-2.071-.78c0-1.562.292-2.937.876-4.127.584-1.2 1.423-2.135 2.517-2.804 1.094-.669 2.416-1.003 3.967-1.003 1.19 0 2.188.19 2.995.573.807.383 1.46.887 1.96 1.514.509.616.897 1.29 1.162 2.023a10.4 10.4 0 01.542 2.15c.096.702.144 1.318.144 1.849v9.558h-3.378zm-12.091 0V50.017h2.979v4.97h.398v12.235H88.79zm24.27 0l-6.245-17.205h3.361l4.573 13.031 4.572-13.031h3.361l-6.245 17.205h-3.377zm19.501.478c-1.71 0-3.213-.372-4.508-1.115a7.93 7.93 0 01-3.011-3.138c-.712-1.35-1.068-2.91-1.068-4.684 0-1.88.351-3.51 1.052-4.891.711-1.38 1.699-2.448 2.963-3.202s2.735-1.131 4.413-1.131c1.752 0 3.245.409 4.477 1.226 1.232.808 2.15 1.96 2.756 3.457.616 1.498.86 3.277.732 5.337h-3.329v-1.21c-.021-1.997-.404-3.473-1.147-4.43-.733-.955-1.853-1.433-3.362-1.433-1.667 0-2.92.526-3.759 1.577-.839 1.052-1.259 2.57-1.259 4.556 0 1.89.42 3.356 1.259 4.397.839 1.03 2.049 1.546 3.632 1.546 1.041 0 1.938-.234 2.692-.701.765-.478 1.36-1.158 1.785-2.04l3.265 1.036c-.669 1.54-1.683 2.735-3.042 3.585-1.36.839-2.873 1.258-4.541 1.258zm-6.133-8.14v-2.597h12.283v2.596h-12.283zm24.093 8.124c-2.092 0-3.797-.462-5.114-1.386-1.317-.924-2.124-2.225-2.421-3.903l3.409-.526a3.45 3.45 0 001.466 2.12c.775.509 1.736.764 2.883.764 1.041 0 1.854-.213 2.438-.637.594-.425.892-1.01.892-1.753 0-.435-.106-.786-.319-1.051-.202-.276-.632-.537-1.29-.78-.659-.245-1.662-.548-3.011-.909-1.476-.382-2.65-.791-3.521-1.227-.86-.446-1.476-.96-1.848-1.545-.361-.595-.542-1.312-.542-2.15 0-1.041.277-1.95.829-2.725.552-.775 1.327-1.375 2.326-1.8 1.009-.425 2.188-.637 3.536-.637 1.317 0 2.491.207 3.521.621 1.03.414 1.864 1.004 2.501 1.768.638.754 1.02 1.641 1.147 2.66l-3.409.622c-.117-.828-.504-1.481-1.163-1.96-.658-.477-1.513-.737-2.565-.78-1.009-.042-1.826.127-2.453.51-.627.372-.94.887-.94 1.545 0 .383.117.706.351.972.244.265.711.52 1.401.765.691.244 1.71.536 3.059.876 1.445.372 2.592.786 3.441 1.242.85.447 1.455.983 1.816 1.61.372.615.558 1.364.558 2.246 0 1.7-.621 3.032-1.864 3.998-1.232.967-2.937 1.45-5.114 1.45zm20.348-.462a14.25 14.25 0 01-3.186.271c-1.041-.032-1.97-.234-2.788-.605a3.797 3.797 0 01-1.848-1.753 5.135 5.135 0 01-.605-2.166 89.875 89.875 0 01-.032-2.517V45.237h3.346v15.055c0 .69.005 1.29.015 1.8.022.51.133.94.335 1.29.382.66.988 1.036 1.816 1.132.839.085 1.822.048 2.947-.112v2.82zm-11.757-14.529v-2.676h11.757v2.676h-11.757zm36 14.53l.016-10.722c0-1.243-.319-2.21-.956-2.9-.637-.7-1.476-1.051-2.517-1.051-.638 0-1.222.148-1.753.446-.52.286-.945.722-1.274 1.306-.319.574-.478 1.296-.478 2.167l-1.609-.813c-.021-1.21.233-2.273.765-3.186a5.614 5.614 0 012.198-2.119c.924-.51 1.96-.764 3.107-.764 1.858 0 3.297.557 4.317 1.672 1.019 1.115 1.529 2.597 1.529 4.445l-.016 11.518h-3.329zm-20.631 0V50.016h2.963v4.97h.383v12.235h-3.346zm10.323 0l.016-10.659c0-1.253-.318-2.235-.956-2.947-.626-.711-1.471-1.067-2.533-1.067-1.051 0-1.901.36-2.549 1.083-.637.722-.955 1.667-.955 2.836l-1.594-1.02c0-1.126.271-2.13.813-3.01a5.85 5.85 0 012.198-2.088c.924-.51 1.971-.764 3.139-.764 1.221 0 2.262.26 3.122.78a4.928 4.928 0 011.96 2.15c.457.925.685 1.997.685 3.219l-.016 11.486h-3.33zm25.203.477c-1.71 0-3.213-.372-4.508-1.115a7.93 7.93 0 01-3.011-3.138c-.712-1.35-1.068-2.91-1.068-4.684 0-1.88.351-3.51 1.052-4.891.711-1.38 1.699-2.448 2.963-3.202s2.735-1.131 4.413-1.131c1.752 0 3.245.409 4.477 1.226 1.232.808 2.15 1.96 2.756 3.457.616 1.498.86 3.277.732 5.337h-3.329v-1.21c-.021-1.997-.404-3.473-1.147-4.43-.733-.955-1.853-1.433-3.362-1.433-1.667 0-2.92.526-3.759 1.577-.839 1.052-1.259 2.57-1.259 4.556 0 1.89.42 3.356 1.259 4.397.839 1.03 2.049 1.546 3.632 1.546 1.041 0 1.938-.234 2.692-.701.765-.478 1.36-1.158 1.785-2.04l3.265 1.036c-.669 1.54-1.683 2.735-3.042 3.585-1.36.839-2.873 1.258-4.541 1.258zm-6.133-8.14v-2.597h12.283v2.596h-12.283zm29.123 7.662v-8.46c0-.668-.059-1.353-.176-2.054a6.146 6.146 0 00-.637-1.976 3.742 3.742 0 00-1.322-1.465c-.563-.372-1.301-.558-2.214-.558-.595 0-1.158.1-1.689.303a3.522 3.522 0 00-1.402.94c-.393.435-.706 1.009-.94 1.72-.223.712-.335 1.577-.335 2.597l-2.071-.78c0-1.562.292-2.937.877-4.127.584-1.2 1.423-2.135 2.517-2.804 1.094-.669 2.416-1.003 3.967-1.003 1.189 0 2.187.19 2.995.573.807.383 1.46.887 1.959 1.514.51.616.898 1.29 1.163 2.023.266.733.446 1.45.542 2.15.095.702.143 1.318.143 1.849v9.558h-3.377zm-12.092 0V50.017h2.979v4.97h.398v12.235h-3.377zm29.464 0a14.25 14.25 0 01-3.186.271c-1.041-.032-1.97-.234-2.788-.605a3.797 3.797 0 01-1.848-1.753 5.124 5.124 0 01-.606-2.166 90.166 90.166 0 01-.031-2.517V45.237h3.345v15.055c0 .69.005 1.29.016 1.8.021.51.133.94.335 1.29.382.66.987 1.036 1.816 1.132.839.085 1.821.048 2.947-.112v2.82zm-11.757-14.529v-2.676h11.757v2.676h-11.757z" fill="#EFEFEF"/><path d="M60.522 17.998c-13.847-13.668-36.29-13.668-50.137 0a34.673 34.673 0 000 49.49c13.847 13.668 36.29 13.668 50.137 0a34.673 34.673 0 000-49.49zm-5.273 44.28a27.957 27.957 0 01-12.386 7.108c-.202.055-.41.105-.618.16-.202.05-.41.1-.624.14a4.12 4.12 0 01-.377.083c-.129.027-.264.06-.399.083l-.73.133-.642.1c-8.433 1.199-17.315-1.404-23.809-7.808-4.97-4.9-7.68-11.188-8.13-17.608-.022-.272-.033-.55-.044-.822v-.027a33.192 33.192 0 01-.017-1.499 26.99 26.99 0 011.608-8.834 27.416 27.416 0 016.583-10.278c8.338-8.23 20.627-10.183 30.843-5.854a27.713 27.713 0 016.819 4.123 26.613 26.613 0 011.923 1.731 27.33 27.33 0 016.746 10.744 27.681 27.681 0 011.45 8.58c.051 7.141-2.681 14.3-8.196 19.744z" fill="#5F5AA2"/><path d="M60.522 18.26c-13.847-13.669-36.29-13.669-50.137 0a34.672 34.672 0 000 49.49c13.847 13.667 36.29 13.667 50.137 0a34.672 34.672 0 000-49.49zM55.25 62.537a27.957 27.957 0 01-12.386 7.11c-.202.055-.41.105-.618.16-.202.05-.41.1-.624.139a4.12 4.12 0 01-.377.083c-.129.028-.264.061-.399.083l-.73.133-.642.1c-8.433 1.199-17.315-1.404-23.809-7.808-4.97-4.9-7.68-11.187-8.13-17.608-.022-.272-.033-.55-.044-.821v-.028a33.192 33.192 0 01-.017-1.498 26.99 26.99 0 011.608-8.835 27.415 27.415 0 016.583-10.278c8.338-8.23 20.627-10.183 30.843-5.854a27.71 27.71 0 016.819 4.123 26.59 26.59 0 011.923 1.731 27.329 27.329 0 016.746 10.744 27.68 27.68 0 011.45 8.58c.051 7.142-2.681 14.3-8.196 19.744z" fill="#5F5AA2" opacity=".5"/><path d="M21.554 37.477V57.59c-4.289-1.98-8.04-5.779-9.533-12.032v-8.08h9.533zm12.015-7.319v28.809a20.113 20.113 0 01-3.897.383c-1.827 0-3.751-.258-5.637-.823v-28.37h9.534zm12.019-7.076v25.561c-1.313 4.468-4.76 7.975-9.533 9.64v-35.2h9.533z" fill="#337FC6"/><path d="M62.256 14.176v28.147c0 .523-.014 1.046-.05 1.564-.369 6.195-2.953 12.285-7.74 17.01a26.564 26.564 0 01-11.772 6.758l-.59.15c-.194.05-.392.095-.59.136-.12.028-.24.055-.36.078a9.53 9.53 0 01-.382.077c-.23.045-.465.086-.695.127l-.608.096a26.66 26.66 0 01-1.88.2c-.203.014-.405.027-.613.032a24.02 24.02 0 01-2.216.018 21.656 21.656 0 01-.76-.036c-6.248-.377-12.385-2.92-17.163-7.636-4.728-4.662-7.303-10.638-7.731-16.741-.019-.26-.032-.523-.042-.782v-.023c.019-.405.046-.81.083-1.224 1.33 15.25 13.513 20.516 23.157 19.338 9.38-1.11 16.503-7.959 16.162-17.578 0-.077-.004-.154-.009-.236V14.176h13.8z" fill="#337FC6"/><path d="M69.746 19.988h-29.13L55.18 0l14.567 19.988z" fill="#337FC6"/><path d="M68.587 19.192h-6.33v23.13c0 .524-.015 1.047-.051 1.565-.369 6.194-2.953 12.284-7.74 17.01a26.564 26.564 0 01-11.772 6.758l-.59.15c-.194.05-.392.095-.59.136-.12.027-.24.055-.36.077a9.782 9.782 0 01-.381.078c-.23.045-.466.086-.696.127l-.608.096a25.71 25.71 0 01-1.88.2c-.203.014-.405.027-.613.031-.737.042-1.48.046-2.216.019a21.877 21.877 0 01-.76-.036c.71-.041 1.423-.114 2.128-.214l.608-.095c.231-.041.466-.083.697-.128a9.56 9.56 0 00.382-.077c.12-.023.24-.05.36-.077.197-.041.395-.087.589-.137l.59-.15a26.567 26.567 0 0011.772-6.758c4.787-4.725 7.372-10.815 7.74-17.01.036-.517.05-1.04.05-1.564l-.009-23.13-.188-13.54 9.868 13.539z" fill="#337FC6"/><path d="M48.457 43.651c.005.083.01.16.01.238h-.01v-.238zm13.799-1.328v1.565h-.05c.036-.519.05-1.041.05-1.565z" fill="#FFEC00"/></svg>