<svg width="240" height="78" fill="none" xmlns="http://www.w3.org/2000/svg"><circle cx="39" cy="39" r="39" fill="#EFEFEF"/><mask id="a" style="mask-type:alpha" maskUnits="userSpaceOnUse" x="1" y="1" width="76" height="76"><circle cx="38.92" cy="38.761" r="37.325" fill="url(#paint0_linear_1479_2336)"/></mask><g mask="url(#a)"><path d="M30.927 61.248l-.002.004-.003 15.33c0 5.716-4.633 10.35-10.35 10.35-5.715 0-10.35-4.634-10.35-10.35v-14.88c0-11.662 9.488-21.15 21.15-21.15h16.484c.519 0 1.026.038 1.523.112-10.375 1.123-18.452 9.912-18.452 20.584z" fill="#236FE3"/><path d="M49.047 40.664c-10.375 1.123-18.451 9.913-18.451 20.585l-.002.003-.004 15.331c0 5.715-4.633 10.35-10.35 10.35-.176 0-.352-.004-.527-.013 5.547-.254 9.966-4.835 9.966-10.443l.004-15.489.002-.004c0-10.002 7.022-18.367 16.405-20.431h1.434c.519 0 1.026.037 1.523.111z" fill="#EFEFEF"/><path d="M58.205 50.902A10.35 10.35 0 0148.122 61.25H30.927c0-10.672 8.076-19.462 18.452-20.585.689.1 1.357.27 1.996.502.086.033.174.065.26.1 3.847 1.51 6.57 5.255 6.57 9.636z" fill="#162630"/><path opacity=".3" d="M51.374 41.166c-11.89.537-18.556 8.836-18.556 20.083h-1.891c0-10.672 8.076-19.462 18.451-20.585.69.101 1.357.27 1.996.502z" fill="#EFEFEF"/><path d="M44.855 17.707C25.41 18.535 9.901 34.562 9.901 54.211V38.857c0-11.68 9.47-21.15 21.15-21.15h13.804z" fill="#162630"/><path d="M67.243 27.92c.076 5.778-4.586 10.487-10.348 10.487H30.601c-8.124.162-15.181 4.742-18.87 11.427a21.646 21.646 0 00-1.37 2.996 7.035 7.035 0 00-.091.247l-.002.007-.094.263c-.06.18-.12.365-.181.561l-.092.303c0-19.649 15.508-35.676 34.954-36.504H56.74c5.688 0 10.43 4.526 10.503 10.213z" fill="#236FE3"/><path d="M46.565 17.708c-17.764.756-32.995 14.053-35.253 32.927-.53.957-.568 1.157-.95 2.196l-.092.246-.002.008-.093.262a23.178 23.178 0 00-.274.864c0-19.648 15.509-35.676 34.954-36.503h1.71z" fill="#EFEFEF"/><path opacity=".3" d="M44.856 17.706C25.41 18.534 9.902 34.561 9.902 54.21v-8.2c1.476-6.621 4.737-12.738 9.536-17.732 5.121-5.332 11.582-8.966 18.648-10.572h6.77z" fill="#EFEFEF"/></g><path d="M99.157 18.088c-1.735 0-3.046.398-3.932 1.193-.867.777-1.301 1.916-1.301 3.417v2.169h8.677v2.332h-8.677v7.674h-2.712V22.671c0-2.188.687-3.896 2.061-5.125 1.392-1.248 3.326-1.871 5.803-1.871 1.085 0 2.097.126 3.037.38.94.234 1.754.587 2.44 1.057l-.894 2.25c-1.212-.85-2.712-1.274-4.502-1.274zm7.753 2.413h2.603v14.372h-2.603V20.501zm1.302-2.766c-.506 0-.931-.162-1.275-.488a1.624 1.624 0 01-.488-1.193c0-.47.163-.868.488-1.193a1.733 1.733 0 011.275-.515c.506 0 .922.162 1.247.488.344.307.515.696.515 1.166 0 .488-.171.904-.515 1.247-.325.326-.741.488-1.247.488zm13.946 2.63c1.826 0 3.272.534 4.339 1.6 1.084 1.05 1.626 2.595 1.626 4.637v8.271h-2.603v-7.972c0-1.392-.334-2.44-1.003-3.146-.669-.705-1.627-1.057-2.874-1.057-1.41 0-2.522.415-3.336 1.247-.813.814-1.22 1.989-1.22 3.525v7.403h-2.603V20.501h2.495v2.17c.524-.742 1.229-1.311 2.115-1.709.904-.398 1.925-.596 3.064-.596zm24.421.136v14.372h-2.495v-2.278a5.638 5.638 0 01-2.196 1.817c-.886.416-1.862.624-2.929.624-1.392 0-2.639-.308-3.742-.922a6.726 6.726 0 01-2.603-2.576c-.615-1.121-.922-2.405-.922-3.85 0-1.447.307-2.721.922-3.824a6.726 6.726 0 012.603-2.576c1.103-.615 2.35-.922 3.742-.922 1.031 0 1.98.198 2.847.596a5.42 5.42 0 012.17 1.709V20.5h2.603zm-7.403 12.257c.904 0 1.726-.208 2.468-.624a4.59 4.59 0 001.735-1.79c.416-.777.624-1.663.624-2.657s-.208-1.87-.624-2.63a4.36 4.36 0 00-1.735-1.79c-.742-.416-1.564-.623-2.468-.623-.922 0-1.754.207-2.495.623-.723.416-1.301 1.012-1.735 1.79-.416.76-.624 1.636-.624 2.63s.208 1.88.624 2.658a4.854 4.854 0 001.735 1.79c.741.415 1.573.623 2.495.623zm20.002-12.392c1.826 0 3.272.533 4.339 1.6 1.085 1.048 1.627 2.594 1.627 4.636v8.271h-2.603v-7.972c0-1.392-.335-2.44-1.004-3.146-.668-.705-1.627-1.057-2.874-1.057-1.41 0-2.522.415-3.335 1.247-.814.814-1.22 1.989-1.22 3.525v7.403h-2.604V20.501h2.495v2.17c.524-.742 1.229-1.311 2.115-1.709.904-.398 1.925-.596 3.064-.596zm14.905 14.67a12.38 12.38 0 01-3.389-.461c-1.085-.326-1.935-.732-2.549-1.22l1.084-2.061c.633.452 1.401.813 2.305 1.084a9.485 9.485 0 002.739.407c2.278 0 3.417-.65 3.417-1.952 0-.434-.154-.778-.461-1.03-.307-.254-.696-.435-1.166-.543-.452-.127-1.103-.262-1.953-.407-1.157-.18-2.106-.389-2.847-.623a4.375 4.375 0 01-1.871-1.194c-.524-.56-.786-1.346-.786-2.359 0-1.301.542-2.34 1.627-3.118 1.084-.796 2.54-1.193 4.366-1.193.958 0 1.916.117 2.874.352.958.235 1.744.552 2.359.95l-1.112 2.06c-1.175-.76-2.558-1.139-4.149-1.139-1.102 0-1.943.181-2.521.543-.579.361-.868.84-.868 1.437 0 .47.163.84.488 1.111.325.272.723.47 1.193.597a32.1 32.1 0 002.034.434c1.157.199 2.088.416 2.793.65a4.078 4.078 0 011.844 1.14c.506.542.759 1.301.759 2.277 0 1.302-.56 2.342-1.681 3.119-1.103.76-2.612 1.139-4.529 1.139zm-66.384 7.855v18.982h-2.712v-8.46h-10.9v8.46h-2.712V42.891h2.712v8.163h10.9V42.89h2.712zm18.86 4.61v14.372h-2.495v-2.278a5.631 5.631 0 01-2.196 1.817c-.886.416-1.862.624-2.929.624-1.392 0-2.639-.308-3.742-.922a6.733 6.733 0 01-2.603-2.576c-.614-1.121-.922-2.405-.922-3.85 0-1.447.308-2.721.922-3.824a6.733 6.733 0 012.603-2.576c1.103-.615 2.35-.922 3.742-.922 1.031 0 1.98.199 2.848.596.867.38 1.591.95 2.169 1.709V47.5h2.603zm-7.403 12.257c.904 0 1.727-.208 2.468-.624a4.584 4.584 0 001.735-1.79c.416-.777.624-1.663.624-2.657s-.208-1.87-.624-2.63a4.354 4.354 0 00-1.735-1.79c-.741-.416-1.564-.623-2.468-.623-.922 0-1.753.207-2.494.623-.723.416-1.302 1.012-1.736 1.79-.416.76-.623 1.636-.623 2.63s.207 1.88.623 2.658a4.856 4.856 0 001.736 1.79c.741.415 1.572.623 2.494.623zm20.003-12.392c1.826 0 3.272.533 4.338 1.6 1.085 1.048 1.627 2.594 1.627 4.636v8.271h-2.603v-7.972c0-1.392-.334-2.44-1.003-3.146-.669-.705-1.627-1.057-2.875-1.057-1.41 0-2.521.416-3.335 1.247-.813.814-1.22 1.989-1.22 3.525v7.403h-2.603V47.501h2.494v2.17c.525-.742 1.23-1.311 2.115-1.709.904-.398 1.926-.596 3.065-.596zm24.421-5.613v20.12h-2.495v-2.278a5.645 5.645 0 01-2.196 1.817c-.886.416-1.862.624-2.929.624-1.392 0-2.639-.308-3.742-.922a6.72 6.72 0 01-2.603-2.576c-.615-1.121-.922-2.405-.922-3.85 0-1.447.307-2.721.922-3.824a6.72 6.72 0 012.603-2.576c1.103-.615 2.35-.922 3.742-.922 1.03 0 1.979.199 2.847.596a5.41 5.41 0 012.169 1.709v-7.918h2.604zm-7.403 18.005c.904 0 1.726-.208 2.467-.624a4.586 4.586 0 001.736-1.79c.416-.777.624-1.663.624-2.657s-.208-1.87-.624-2.63a4.356 4.356 0 00-1.736-1.79c-.741-.416-1.563-.623-2.467-.623-.922 0-1.754.207-2.495.623-.723.416-1.301 1.012-1.735 1.79-.416.76-.624 1.636-.624 2.63s.208 1.88.624 2.658a4.854 4.854 0 001.735 1.79c.741.415 1.573.623 2.495.623zm18.809 0c1.717 0 3.1-.579 4.149-1.736l1.41 1.682c-.633.759-1.437 1.337-2.413 1.735-.959.398-2.034.597-3.227.597-1.519 0-2.866-.308-4.041-.922-1.175-.633-2.088-1.51-2.738-2.63-.633-1.121-.95-2.387-.95-3.797 0-1.392.308-2.648.922-3.769a6.733 6.733 0 012.576-2.603c1.103-.633 2.342-.95 3.715-.95 1.302 0 2.486.299 3.553.895a6.559 6.559 0 012.549 2.468c.632 1.067.958 2.296.976 3.688l-11.416 2.224c.361.994.967 1.762 1.817 2.304.867.543 1.907.814 3.118.814zm-.597-10.196c-.903 0-1.717.208-2.44.624a4.329 4.329 0 00-1.654 1.762c-.398.742-.597 1.61-.597 2.604v.27l9.193-1.735c-.235-1.048-.759-1.898-1.573-2.549-.813-.65-1.79-.976-2.929-.976zm15.086 12.474c-1.392 0-2.468-.38-3.227-1.14-.76-.776-1.139-1.861-1.139-3.253v-15.89h2.603v15.673c0 .777.181 1.374.542 1.79.38.415.94.623 1.681.623.452 0 .877-.09 1.275-.27l.136 2.141a5.436 5.436 0 01-1.871.326zm19.98-19.361c2.531 0 4.529.74 5.993 2.223 1.464 1.464 2.196 3.57 2.196 6.318v10.657h-2.711V56.64h-10.955v5.233h-2.658V51.216c0-2.748.732-4.854 2.197-6.318 1.464-1.482 3.443-2.224 5.938-2.224zm5.478 11.605v-3.308c0-1.934-.488-3.398-1.465-4.393-.958-.994-2.295-1.491-4.013-1.491-1.717 0-3.064.497-4.04 1.491-.958.995-1.437 2.459-1.437 4.393v3.308h10.955zm15.478-6.914c1.392 0 2.639.307 3.742.922a6.533 6.533 0 012.576 2.576c.633 1.103.949 2.377.949 3.823 0 1.446-.316 2.73-.949 3.85a6.533 6.533 0 01-2.576 2.577c-1.103.614-2.35.922-3.742.922-1.067 0-2.043-.208-2.929-.624a5.638 5.638 0 01-2.196-1.817v2.278h-2.495v-20.12h2.603v7.918a5.42 5.42 0 012.17-1.709c.867-.398 1.817-.596 2.847-.596zm-.217 12.392c.922 0 1.745-.208 2.468-.624a4.59 4.59 0 001.735-1.79c.434-.777.651-1.663.651-2.657s-.217-1.87-.651-2.63a4.36 4.36 0 00-1.735-1.79c-.723-.416-1.546-.623-2.468-.623-.904 0-1.726.207-2.468.623a4.36 4.36 0 00-1.735 1.79c-.416.76-.624 1.636-.624 2.63s.208 1.88.624 2.658a4.59 4.59 0 001.735 1.79 4.968 4.968 0 002.468.623z" fill="#EFEFEF"/><defs><linearGradient id="paint0_linear_1479_2336" x1="76.246" y1="76.086" x2="-8.856" y2="-10.135" gradientUnits="userSpaceOnUse"><stop stop-color="#fff"/><stop offset=".365" stop-color="#C8C8C8"/><stop offset=".458" stop-color="#C8C8C8"/><stop offset=".53" stop-color="#C8C8C8"/><stop offset="1" stop-color="#fff"/></linearGradient></defs></svg>