<svg width="186" height="60" fill="none" xmlns="http://www.w3.org/2000/svg"><circle cx="30.951" cy="30" r="30" fill="#EFEFEF"/><mask id="a" style="mask-type:alpha" maskUnits="userSpaceOnUse" x="2" y="1" width="58" height="58"><circle cx="30.89" cy="29.816" r="28.712" fill="url(#paint0_linear_1392_57482)"/></mask><g mask="url(#a)"><path d="M24.741 47.114l-.001.003-.003 11.793a7.962 7.962 0 01-15.923 0V47.463c0-8.97 7.298-16.27 16.27-16.27h12.68c.398 0 .789.03 1.17.087-7.98.864-14.193 7.625-14.193 15.834z" fill="#236FE3"/><path d="M38.68 31.28c-7.981.864-14.194 7.625-14.194 15.834l-.001.003-.003 11.793a7.962 7.962 0 01-8.367 7.952 8.043 8.043 0 007.666-8.034l.003-11.914.002-.003c0-7.694 5.4-14.129 12.619-15.717h1.103c.4 0 .79.029 1.172.086z" fill="#EFEFEF"/><path d="M45.724 39.155a7.962 7.962 0 01-7.756 7.96H24.74c0-8.21 6.212-14.971 14.193-15.835.53.077 1.044.208 1.536.386l.2.076a7.965 7.965 0 015.054 7.413z" fill="#162630"/><path opacity=".3" d="M40.47 31.666c-9.147.413-14.274 6.797-14.274 15.448h-1.455c0-8.21 6.212-14.97 14.193-15.834.53.077 1.044.207 1.536.386z" fill="#EFEFEF"/><path d="M35.456 13.62C20.498 14.257 8.568 26.585 8.568 41.7V29.889c0-8.985 7.284-16.27 16.27-16.27h10.618z" fill="#162630"/><path d="M52.677 21.476a7.96 7.96 0 01-7.96 8.067H24.491c-6.249.125-11.678 3.647-14.515 8.79a16.606 16.606 0 00-1.124 2.494l-.002.006a17.83 17.83 0 00-.212.634l-.07.232c0-15.114 11.93-27.442 26.887-28.08h9.143c4.376 0 8.023 3.482 8.08 7.857z" fill="#236FE3"/><path d="M36.771 13.62c-13.665.582-25.38 10.81-27.118 25.328-.407.737-.437.89-.73 1.69a26.04 26.04 0 00-.071.19l-.002.005-.072.202c-.047.138-.092.281-.14.432-.023.076-.047.152-.07.232 0-15.114 11.93-27.442 26.888-28.08h1.315z" fill="#EFEFEF"/><path opacity=".3" d="M35.456 13.62C20.498 14.257 8.568 26.585 8.568 41.7v-6.307a28.649 28.649 0 017.336-13.641c3.939-4.102 8.908-6.897 14.344-8.132h5.208z" fill="#EFEFEF"/></g><path d="M77.226 14.222c-1.335 0-2.343.306-3.025.918-.667.598-1.001 1.474-1.001 2.628v1.668h6.675v1.794H73.2v5.903h-2.086v-9.386c0-1.683.528-2.997 1.585-3.942 1.071-.96 2.56-1.44 4.464-1.44.835 0 1.613.098 2.336.292.724.181 1.35.452 1.878.814l-.689 1.731c-.931-.653-2.086-.98-3.462-.98zm5.964 1.856h2.002v11.055H83.19V16.078zm1-2.127a1.37 1.37 0 01-.98-.376 1.248 1.248 0 01-.375-.918c0-.361.125-.667.376-.918.264-.264.59-.396.98-.396s.709.125.96.376c.264.236.396.535.396.897 0 .375-.132.695-.397.96-.25.25-.57.375-.96.375zm10.728 2.023c1.405 0 2.517.41 3.338 1.23.834.807 1.251 1.996 1.251 3.567v6.362h-2.002v-6.132c0-1.07-.257-1.877-.772-2.42-.514-.542-1.251-.813-2.21-.813-1.085 0-1.94.32-2.566.96-.626.625-.94 1.529-.94 2.71v5.695h-2.002V16.078h1.92v1.669a3.903 3.903 0 011.626-1.314c.696-.306 1.481-.46 2.357-.46zm18.786.104v11.055h-1.919v-1.752a4.333 4.333 0 01-1.69 1.398 5.23 5.23 0 01-2.252.48c-1.071 0-2.031-.237-2.879-.71a5.17 5.17 0 01-2.002-1.981c-.473-.862-.71-1.85-.71-2.962 0-1.113.237-2.093.71-2.941a5.17 5.17 0 012.002-1.982c.848-.473 1.808-.71 2.879-.71.792 0 1.522.154 2.19.46.667.292 1.223.73 1.668 1.314v-1.669h2.003zm-5.695 9.428c.696 0 1.328-.16 1.899-.48a3.532 3.532 0 001.335-1.376c.319-.598.479-1.28.479-2.044 0-.765-.16-1.44-.479-2.024a3.355 3.355 0 00-1.335-1.376 3.816 3.816 0 00-1.899-.48c-.709 0-1.348.16-1.919.48a3.537 3.537 0 00-1.335 1.377c-.319.584-.479 1.258-.479 2.023 0 .765.16 1.446.479 2.044a3.736 3.736 0 001.335 1.377c.571.32 1.21.48 1.919.48zm15.387-9.532c1.404 0 2.517.41 3.337 1.23.835.807 1.252 1.996 1.252 3.567v6.362h-2.003v-6.132c0-1.07-.257-1.877-.771-2.42-.515-.542-1.252-.813-2.212-.813-1.084 0-1.939.32-2.565.96-.626.625-.939 1.529-.939 2.71v5.695h-2.002V16.078h1.919v1.669a3.898 3.898 0 011.627-1.314c.695-.306 1.481-.46 2.357-.46zm11.465 11.285a9.514 9.514 0 01-2.607-.355c-.835-.25-1.488-.563-1.961-.939l.834-1.585c.487.348 1.078.626 1.773.834a7.302 7.302 0 002.107.313c1.752 0 2.628-.5 2.628-1.502 0-.333-.118-.598-.354-.792a2.153 2.153 0 00-.897-.417 15.769 15.769 0 00-1.502-.313c-.89-.14-1.62-.3-2.19-.48a3.366 3.366 0 01-1.439-.918c-.404-.43-.605-1.036-.605-1.815 0-1 .417-1.8 1.251-2.398.835-.612 1.954-.918 3.358-.918.738 0 1.475.09 2.212.271.737.18 1.341.424 1.814.73l-.855 1.585c-.904-.584-1.968-.876-3.191-.876-.849 0-1.495.14-1.94.418-.445.278-.668.646-.668 1.105 0 .362.125.647.376.855.25.209.556.362.918.46.375.097.896.208 1.564.333.89.153 1.606.32 2.148.5a3.138 3.138 0 011.419.877c.389.417.584 1 .584 1.752 0 1-.431 1.8-1.293 2.398-.849.584-2.01.877-3.484.877zm-51.065 6.273v14.601H81.71v-6.508h-8.385v6.508H71.24v-14.6h2.086v6.278h8.385v-6.279h2.086zm14.508 3.546v11.055h-1.919v-1.752a4.335 4.335 0 01-1.69 1.398c-.68.32-1.432.48-2.252.48-1.07 0-2.03-.237-2.879-.71a5.173 5.173 0 01-2.002-1.981c-.473-.862-.71-1.85-.71-2.962 0-1.113.237-2.093.71-2.941a5.173 5.173 0 012.002-1.982c.849-.473 1.808-.71 2.879-.71a5.19 5.19 0 012.19.46c.668.292 1.224.73 1.669 1.314v-1.669h2.002zm-5.694 9.428a3.81 3.81 0 001.898-.48 3.529 3.529 0 001.335-1.376c.32-.598.48-1.28.48-2.044 0-.765-.16-1.44-.48-2.023a3.352 3.352 0 00-1.335-1.377 3.812 3.812 0 00-1.898-.48c-.71 0-1.35.16-1.92.48a3.533 3.533 0 00-1.334 1.377c-.32.584-.48 1.258-.48 2.023 0 .765.16 1.446.48 2.044a3.732 3.732 0 001.335 1.377c.57.32 1.21.48 1.919.48zm15.386-9.532c1.405 0 2.517.41 3.337 1.23.835.807 1.252 1.996 1.252 3.567v6.362h-2.002v-6.132c0-1.07-.258-1.877-.772-2.42-.515-.542-1.252-.813-2.211-.813-1.085 0-1.94.32-2.566.96-.626.625-.939 1.529-.939 2.71v5.695h-2.002V37.078h1.919v1.669a3.904 3.904 0 011.627-1.314c.695-.306 1.481-.46 2.357-.46zm18.785-4.318v15.477h-1.919v-1.752a4.337 4.337 0 01-1.689 1.398c-.682.32-1.432.48-2.253.48-1.071 0-2.03-.237-2.878-.71a5.172 5.172 0 01-2.003-1.981c-.473-.862-.709-1.85-.709-2.962 0-1.113.236-2.093.709-2.941a5.172 5.172 0 012.003-1.982c.848-.473 1.807-.71 2.878-.71a5.19 5.19 0 012.19.46c.668.292 1.224.73 1.669 1.314v-6.09h2.002zm-5.694 13.85a3.81 3.81 0 001.898-.48 3.532 3.532 0 001.335-1.376c.32-.598.48-1.28.48-2.044 0-.765-.16-1.44-.48-2.023a3.355 3.355 0 00-1.335-1.377 3.812 3.812 0 00-1.898-.48c-.709 0-1.349.16-1.919.48a3.537 3.537 0 00-1.335 1.377c-.32.584-.48 1.258-.48 2.023 0 .765.16 1.446.48 2.044a3.736 3.736 0 001.335 1.377c.57.32 1.21.48 1.919.48zm14.469 0c1.321 0 2.384-.445 3.191-1.335l1.085 1.294a4.66 4.66 0 01-1.857 1.335c-.737.306-1.564.459-2.482.459-1.168 0-2.204-.237-3.108-.71a5.275 5.275 0 01-2.107-2.023c-.486-.862-.73-1.836-.73-2.92 0-1.071.237-2.037.709-2.9a5.18 5.18 0 011.982-2.002c.848-.487 1.801-.73 2.858-.73 1.001 0 1.912.23 2.732.688a5.039 5.039 0 011.961 1.898c.487.82.737 1.766.751 2.837l-8.782 1.71c.278.766.744 1.357 1.398 1.774.667.417 1.467.625 2.399.625zm-.459-7.843a3.7 3.7 0 00-1.878.48 3.33 3.33 0 00-1.272 1.356c-.306.57-.459 1.238-.459 2.002v.21l7.071-1.336a3.382 3.382 0 00-1.21-1.96c-.625-.501-1.376-.752-2.252-.752zm11.604 9.596c-1.071 0-1.899-.292-2.483-.877-.584-.597-.876-1.432-.876-2.503V32.656h2.003v12.056c0 .598.139 1.057.417 1.377.292.32.723.48 1.293.48.348 0 .675-.07.981-.209l.104 1.648a4.18 4.18 0 01-1.439.25zm15.369-14.894c1.947 0 3.484.57 4.61 1.71 1.126 1.127 1.69 2.747 1.69 4.86v8.198h-2.086v-4.025h-8.427v4.025h-2.044v-8.197c0-2.114.563-3.734 1.689-4.86 1.127-1.14 2.649-1.71 4.568-1.71zm4.214 8.928v-2.545c0-1.488-.376-2.614-1.127-3.379-.737-.765-1.766-1.147-3.087-1.147-1.321 0-2.357.382-3.108 1.147-.737.765-1.105 1.891-1.105 3.38v2.544h8.427zm11.906-5.32c1.071 0 2.03.237 2.879.71a5.03 5.03 0 011.981 1.982c.487.848.73 1.828.73 2.94 0 1.113-.243 2.1-.73 2.963a5.03 5.03 0 01-1.981 1.981c-.849.473-1.808.71-2.879.71a5.24 5.24 0 01-2.253-.48 4.337 4.337 0 01-1.689-1.398v1.752h-1.919V32.656h2.002v6.09A4.162 4.162 0 01176 37.434a5.192 5.192 0 012.19-.46zm-.167 9.533c.709 0 1.342-.16 1.898-.48a3.518 3.518 0 001.335-1.376c.334-.598.501-1.28.501-2.044 0-.765-.167-1.44-.501-2.023a3.343 3.343 0 00-1.335-1.377c-.556-.32-1.189-.48-1.898-.48a3.81 3.81 0 00-1.898.48 3.35 3.35 0 00-1.335 1.377c-.32.584-.48 1.258-.48 2.023 0 .765.16 1.446.48 2.044.32.584.765 1.043 1.335 1.377.57.32 1.203.48 1.898.48z" fill="#EFEFEF"/><defs><linearGradient id="paint0_linear_1392_57482" x1="59.601" y1="58.528" x2="-5.861" y2="-7.796" gradientUnits="userSpaceOnUse"><stop stop-color="#fff"/><stop offset=".365" stop-color="#C8C8C8"/><stop offset=".458" stop-color="#C8C8C8"/><stop offset=".53" stop-color="#C8C8C8"/><stop offset="1" stop-color="#fff"/></linearGradient></defs></svg>