<svg width="196" height="60" fill="none" xmlns="http://www.w3.org/2000/svg"><path d="M62.306 27.556V9.713h7.212c.173 0 .388.008.644.025.256.008.5.033.731.074.992.157 1.818.496 2.478 1.016a4.783 4.783 0 011.5 1.97c.33.793.495 1.669.495 2.627 0 .966-.165 1.846-.495 2.64a4.783 4.783 0 01-1.5 1.97c-.66.52-1.486.858-2.478 1.015a10.514 10.514 0 01-1.375.099h-4.622v6.407h-2.59zm2.59-8.86h4.523c.165 0 .347-.008.545-.025.207-.016.4-.045.582-.086.53-.124.954-.352 1.277-.682a3 3 0 00.694-1.165 4.165 4.165 0 000-2.614 2.896 2.896 0 00-.694-1.152c-.322-.34-.748-.57-1.277-.694a3.169 3.169 0 00-.582-.1 6.571 6.571 0 00-.545-.024h-4.523v6.542zm16.315 9.231c-.991 0-1.821-.181-2.49-.545-.67-.372-1.178-.859-1.524-1.462a4.073 4.073 0 01-.508-2.007c0-.678.12-1.273.359-1.785.24-.512.595-.945 1.066-1.3.47-.364 1.049-.657 1.734-.88a19.024 19.024 0 012.02-.459c.752-.132 1.54-.256 2.367-.372.834-.115 1.66-.23 2.478-.347l-.942.52c.016-1.048-.207-1.825-.67-2.329-.453-.512-1.238-.768-2.353-.768a3.87 3.87 0 00-1.933.496c-.587.322-.996.859-1.227 1.61l-2.416-.743c.33-1.148.958-2.06 1.883-2.738.934-.678 2.173-1.016 3.717-1.016 1.198 0 2.239.206 3.123.62a3.851 3.851 0 011.958 1.932c.214.438.347.9.396 1.388.05.487.075 1.012.075 1.574v8.24H86.03v-3.061l.446.396c-.553 1.025-1.26 1.789-2.119 2.293-.85.495-1.9.743-3.147.743zm.459-2.119c.735 0 1.367-.128 1.895-.384.53-.264.954-.599 1.277-1.003.322-.405.532-.826.632-1.264a4.44 4.44 0 00.235-1.338c.025-.496.037-.892.037-1.19l.843.31c-.818.124-1.561.235-2.23.334-.67.1-1.277.199-1.822.298-.537.09-1.016.202-1.437.334a4.852 4.852 0 00-.954.446 2.186 2.186 0 00-.657.632c-.157.248-.236.55-.236.905 0 .347.087.669.26.966.174.29.438.52.794.694.355.174.81.26 1.363.26zm17.529 1.748c-.843.165-1.67.235-2.479.21-.81-.025-1.532-.181-2.168-.47a2.956 2.956 0 01-1.437-1.364 3.987 3.987 0 01-.471-1.685 69.288 69.288 0 01-.025-1.957V10.456h2.602v11.71c0 .537.004 1.003.013 1.4.016.396.103.73.26 1.003.297.512.768.806 1.412.88.653.066 1.417.037 2.293-.087v2.194zm-9.145-11.3v-2.082H99.2v2.081h-9.145zm11.966 11.3V14.173h2.305v3.247l-.322-.421c.165-.43.38-.822.644-1.177.264-.364.57-.661.917-.893a3.906 3.906 0 011.127-.57 4.95 4.95 0 011.289-.248 4.922 4.922 0 011.264.063v2.428a4.195 4.195 0 00-1.462-.099 3.197 3.197 0 00-1.462.508 3.281 3.281 0 00-1.004.991c-.24.389-.413.822-.52 1.301a6.69 6.69 0 00-.162 1.5v6.753h-2.614zm15.153.371c-1.338 0-2.499-.301-3.482-.904a6.098 6.098 0 01-2.28-2.49c-.529-1.066-.793-2.293-.793-3.68 0-1.397.273-2.624.818-3.68.545-1.066 1.309-1.893 2.292-2.48.983-.594 2.131-.891 3.445-.891 1.338 0 2.499.301 3.482.904a6.097 6.097 0 012.28 2.49c.536 1.058.805 2.277.805 3.656 0 1.396-.273 2.627-.818 3.693a6.097 6.097 0 01-2.28 2.49c-.983.595-2.139.892-3.469.892zm0-2.44c1.28 0 2.234-.43 2.862-1.29.636-.867.954-1.982.954-3.345 0-1.396-.322-2.511-.966-3.345-.636-.843-1.586-1.264-2.85-1.264-.868 0-1.582.198-2.144.595-.562.388-.979.929-1.251 1.623-.273.685-.409 1.483-.409 2.391 0 1.404.322 2.528.966 3.37.645.843 1.59 1.264 2.838 1.264zm18.682 2.069v-6.58a9.7 9.7 0 00-.136-1.598 4.797 4.797 0 00-.496-1.537 2.903 2.903 0 00-1.028-1.14c-.438-.289-1.012-.434-1.723-.434-.462 0-.9.079-1.313.236a2.728 2.728 0 00-1.09.731c-.306.339-.55.785-.732 1.338-.173.554-.26 1.227-.26 2.02l-1.611-.607c0-1.215.228-2.284.682-3.21.454-.933 1.107-1.66 1.958-2.18.851-.52 1.879-.78 3.085-.78.925 0 1.702.148 2.329.445.628.298 1.136.69 1.525 1.177a5.28 5.28 0 01.904 1.574c.207.57.347 1.128.421 1.673.075.545.112 1.024.112 1.437v7.435h-2.627zm-9.405 0V14.173h2.317v3.866h.31v9.517h-2.627zm20.302.359c-.925 0-1.701-.149-2.329-.446-.628-.298-1.14-.686-1.537-1.165a5.605 5.605 0 01-.892-1.586 8.15 8.15 0 01-.421-1.673 10.865 10.865 0 01-.112-1.437v-7.434h2.627v6.579c0 .52.042 1.057.124 1.61a5.23 5.23 0 00.496 1.525c.248.47.59.85 1.028 1.14.446.289 1.025.434 1.735.434.463 0 .9-.075 1.313-.224a2.75 2.75 0 001.078-.743c.314-.339.558-.785.731-1.338.182-.554.273-1.227.273-2.02l1.611.607c0 1.215-.227 2.288-.682 3.222a5.137 5.137 0 01-1.957 2.168c-.851.52-1.88.78-3.086.78zm4.424-.36V23.69h-.31v-9.517h2.615v13.383h-2.305zm10.897.36c-1.627 0-2.953-.36-3.977-1.078-1.025-.719-1.652-1.73-1.884-3.036l2.652-.409a2.68 2.68 0 001.14 1.648c.603.397 1.351.595 2.243.595.809 0 1.441-.165 1.895-.496.463-.33.694-.784.694-1.363 0-.338-.082-.61-.247-.817-.157-.215-.492-.418-1.004-.608s-1.293-.425-2.342-.706c-1.148-.297-2.061-.615-2.738-.954-.669-.347-1.149-.747-1.438-1.202-.281-.462-.421-1.02-.421-1.673 0-.81.215-1.515.644-2.118.43-.604 1.033-1.07 1.809-1.4.785-.331 1.702-.496 2.751-.496 1.024 0 1.937.16 2.739.483.801.322 1.449.78 1.945 1.375a3.88 3.88 0 01.892 2.07l-2.652.483c-.09-.644-.392-1.152-.904-1.524-.512-.372-1.177-.574-1.995-.607-.785-.033-1.421.099-1.908.396-.488.29-.731.69-.731 1.202 0 .297.091.55.272.756.19.206.554.405 1.091.595.537.19 1.33.417 2.379.681 1.123.29 2.015.611 2.676.967.661.347 1.132.764 1.413 1.251.289.48.433 1.062.433 1.747 0 1.322-.483 2.359-1.449 3.11-.959.752-2.284 1.128-3.978 1.128zm-99.519 24.64V34.714h2.59v17.843h-2.59zm15.703 0v-6.579c0-.52-.045-1.053-.136-1.598a4.791 4.791 0 00-.496-1.537c-.24-.47-.582-.85-1.028-1.14-.438-.289-1.012-.434-1.723-.434-.462 0-.9.079-1.313.236a2.735 2.735 0 00-1.09.731c-.306.339-.55.785-.731 1.338-.174.554-.26 1.227-.26 2.02l-1.611-.607c0-1.215.227-2.284.681-3.21.454-.933 1.107-1.66 1.958-2.18.85-.52 1.88-.78 3.085-.78.925 0 1.702.148 2.33.445.627.298 1.135.69 1.524 1.177a5.27 5.27 0 01.904 1.574c.207.57.347 1.127.421 1.673.075.545.112 1.024.112 1.437v7.435h-2.627zm-9.404 0V39.174h2.317v3.866h.31v9.517h-2.627zm18.877 0l-4.858-13.382h2.615l3.556 10.136 3.556-10.136h2.615l-4.858 13.383H87.73zm15.167.372c-1.33 0-2.499-.289-3.506-.867a6.17 6.17 0 01-2.342-2.441c-.554-1.05-.83-2.264-.83-3.643 0-1.462.272-2.73.817-3.804.554-1.074 1.322-1.904 2.305-2.49.983-.587 2.127-.88 3.432-.88 1.363 0 2.524.318 3.482.954.958.628 1.673 1.524 2.144 2.689.479 1.164.669 2.548.57 4.15h-2.59v-.941c-.016-1.553-.314-2.701-.892-3.445-.57-.743-1.442-1.115-2.615-1.115-1.296 0-2.271.409-2.924 1.227-.652.818-.979 1.999-.979 3.544 0 1.47.327 2.61.98 3.42.652.8 1.593 1.201 2.824 1.201.81 0 1.508-.181 2.094-.545.595-.372 1.058-.9 1.388-1.586l2.54.806c-.52 1.197-1.309 2.127-2.366 2.787-1.058.653-2.235.98-3.532.98zm-4.77-6.331v-2.02h9.553v2.02h-9.553zm18.739 6.319c-1.627 0-2.953-.36-3.977-1.078-1.025-.719-1.652-1.73-1.884-3.036l2.652-.409a2.68 2.68 0 001.14 1.648c.603.397 1.35.595 2.243.595.809 0 1.441-.165 1.895-.496.463-.33.694-.784.694-1.363 0-.338-.082-.61-.248-.817-.157-.215-.491-.418-1.003-.608-.512-.19-1.293-.425-2.342-.706-1.148-.297-2.061-.615-2.738-.954-.67-.347-1.149-.748-1.438-1.202-.281-.462-.421-1.02-.421-1.673 0-.81.215-1.515.644-2.118.43-.604 1.033-1.07 1.809-1.4.785-.331 1.702-.496 2.751-.496 1.024 0 1.937.16 2.738.483.802.322 1.45.78 1.946 1.375.495.587.793 1.277.892 2.07l-2.652.483c-.091-.644-.392-1.153-.904-1.524-.512-.372-1.177-.574-1.995-.607-.785-.033-1.421.099-1.908.396-.488.29-.731.69-.731 1.202 0 .297.09.55.272.756.19.206.554.405 1.091.595.537.19 1.33.417 2.379.681 1.123.29 2.015.611 2.676.967.661.347 1.132.764 1.413 1.251.289.48.433 1.062.433 1.747 0 1.322-.483 2.359-1.449 3.11-.959.752-2.284 1.128-3.978 1.128zm15.826-.36a11.08 11.08 0 01-2.478.211c-.809-.025-1.532-.181-2.168-.47a2.955 2.955 0 01-1.437-1.364 3.977 3.977 0 01-.471-1.685 67.4 67.4 0 01-.025-1.958V35.456h2.602v11.71c0 .537.004 1.003.012 1.4.017.396.104.73.261 1.003.297.512.768.806 1.412.88.653.066 1.417.037 2.292-.087v2.194zm-9.144-11.3v-2.082h9.144v2.082h-9.144zm28 11.3l.012-8.338c0-.967-.248-1.719-.743-2.256-.496-.545-1.149-.817-1.958-.817-.496 0-.95.115-1.363.347-.405.223-.735.561-.991 1.016-.248.446-.372 1.007-.372 1.685l-1.252-.632c-.016-.942.182-1.768.595-2.478.421-.71.991-1.26 1.71-1.648.719-.397 1.524-.595 2.416-.595 1.446 0 2.565.434 3.358 1.301.793.867 1.19 2.02 1.19 3.457l-.013 8.959h-2.589zm-16.047 0V39.174h2.305v3.866h.298v9.517h-2.603zm8.03 0l.012-8.289c0-.975-.248-1.739-.743-2.292-.488-.554-1.144-.83-1.97-.83-.818 0-1.479.28-1.983.842-.496.562-.743 1.297-.743 2.206l-1.24-.793c0-.876.211-1.657.632-2.342a4.559 4.559 0 011.71-1.623c.719-.397 1.533-.595 2.441-.595.95 0 1.76.202 2.429.607a3.837 3.837 0 011.524 1.673c.355.718.533 1.553.533 2.503l-.013 8.934h-2.589zm19.602.372c-1.33 0-2.499-.289-3.507-.867a6.164 6.164 0 01-2.341-2.441c-.554-1.05-.831-2.264-.831-3.643 0-1.462.273-2.73.818-3.804.554-1.074 1.322-1.904 2.305-2.49.983-.587 2.127-.88 3.432-.88 1.363 0 2.524.318 3.482.954.958.628 1.673 1.524 2.144 2.689.479 1.164.669 2.548.569 4.15h-2.589v-.941c-.017-1.553-.314-2.701-.892-3.445-.57-.743-1.442-1.115-2.615-1.115-1.297 0-2.271.409-2.924 1.227-.653.818-.979 1.999-.979 3.544 0 1.47.326 2.61.979 3.42.653.8 1.594 1.201 2.825 1.201.81 0 1.508-.181 2.094-.545.595-.372 1.057-.9 1.388-1.586l2.54.806c-.52 1.197-1.309 2.127-2.367 2.787-1.057.653-2.234.98-3.531.98zm-4.77-6.331v-2.02h9.553v2.02h-9.553zm22.651 5.96v-6.58a9.7 9.7 0 00-.137-1.598 4.771 4.771 0 00-.495-1.537c-.24-.47-.583-.85-1.029-1.14-.437-.289-1.012-.434-1.722-.434-.463 0-.9.079-1.313.236a2.738 2.738 0 00-1.091.731c-.305.339-.549.785-.731 1.338-.173.554-.26 1.227-.26 2.02l-1.611-.607c0-1.215.227-2.284.682-3.21a5.122 5.122 0 011.957-2.18c.851-.52 1.88-.78 3.086-.78.925 0 1.701.148 2.329.445.628.298 1.136.69 1.524 1.177a5.27 5.27 0 01.905 1.574 8.15 8.15 0 01.421 1.673c.074.545.112 1.024.112 1.437v7.435h-2.627zm-9.405 0V39.173h2.317v3.866h.31v9.517h-2.627zm22.916 0a11.08 11.08 0 01-2.478.21c-.809-.025-1.532-.181-2.168-.47a2.955 2.955 0 01-1.437-1.364 3.977 3.977 0 01-.471-1.685 67.4 67.4 0 01-.025-1.958V35.456h2.602v11.71c0 .537.004 1.003.012 1.4.017.396.104.73.261 1.003.297.512.768.806 1.412.88.653.066 1.417.037 2.292-.087v2.194zm-9.144-11.3v-2.083h9.144v2.082h-9.144z" fill="#EFEFEF"/><path d="M46.913 13.845C36.18 3.33 18.783 3.33 8.05 13.845a26.529 26.529 0 000 38.069c10.733 10.514 28.13 10.514 38.863 0a26.529 26.529 0 000-38.07zm-4.087 34.06a21.71 21.71 0 01-9.6 5.468c-.158.043-.319.082-.48.124a8.022 8.022 0 01-.484.107 3.229 3.229 0 01-.292.064c-.1.021-.205.047-.31.064l-.566.102-.497.077c-6.536.922-13.422-1.08-18.455-6.006C8.29 44.135 6.19 39.3 5.841 34.36a13.304 13.304 0 01-.035-.632v-.02c-.013-.38-.018-.77-.013-1.153.03-2.301.444-4.598 1.246-6.796a21.069 21.069 0 015.103-7.906c6.463-6.33 15.989-7.833 23.907-4.504a21.513 21.513 0 015.286 3.172c.514.414 1.007.858 1.49 1.332a21 21 0 015.23 8.264 21.146 21.146 0 011.124 6.6c.04 5.494-2.078 11-6.353 15.188z" fill="#5F5AA2"/><path d="M46.913 14.046C36.18 3.53 18.783 3.53 8.05 14.046a26.529 26.529 0 000 38.069c10.733 10.514 28.13 10.514 38.863 0a26.529 26.529 0 000-38.07zm-4.087 34.06a21.71 21.71 0 01-9.6 5.468c-.158.043-.319.082-.48.124a8.022 8.022 0 01-.484.107 3.195 3.195 0 01-.292.064c-.1.021-.205.047-.31.064l-.566.102-.497.077c-6.536.922-13.422-1.08-18.455-6.006C8.29 44.336 6.19 39.5 5.841 34.561a13.304 13.304 0 01-.035-.632v-.02c-.013-.38-.018-.77-.013-1.154a20.6 20.6 0 011.246-6.795 21.07 21.07 0 015.103-7.906c6.463-6.33 15.989-7.833 23.907-4.504a21.509 21.509 0 015.286 3.172c.514.414 1.007.858 1.49 1.332a21 21 0 015.23 8.264 21.147 21.147 0 011.124 6.6c.04 5.494-2.078 11-6.353 15.188z" fill="#5F5AA2" opacity=".5"/><path d="M16.708 28.829v15.47c-3.325-1.523-6.233-4.445-7.39-9.255V28.83h7.39zm9.312-5.631V45.36a15.71 15.71 0 01-3.02.294 15.41 15.41 0 01-4.37-.632V23.198h7.39zm9.317-5.442v19.662c-1.018 3.437-3.689 6.134-7.39 7.415V17.756h7.39z" fill="#337FC6"/><path d="M48.258 10.905v21.651c0 .402-.011.805-.04 1.204-.285 4.765-2.289 9.45-6 13.084a20.629 20.629 0 01-9.124 5.198l-.458.116c-.15.038-.303.073-.457.105-.093.02-.185.042-.278.06a7.57 7.57 0 01-.296.058c-.18.035-.361.067-.54.099l-.471.073c-.482.07-.968.12-1.457.154-.158.01-.314.021-.475.024-.572.032-1.147.035-1.718.014a17.016 17.016 0 01-.59-.027c-4.842-.29-9.6-2.246-13.303-5.874-3.664-3.586-5.66-8.183-5.993-12.878-.014-.2-.025-.402-.032-.602v-.017c.014-.311.036-.623.064-.941 1.032 11.73 10.475 15.78 17.95 14.875 7.271-.854 12.793-6.122 12.528-13.521 0-.06-.003-.12-.007-.182V10.905h10.697z" fill="#337FC6"/><path d="M54.064 15.376h-22.58L42.771 0l11.292 15.376z" fill="#337FC6"/><path d="M53.165 14.763h-4.907v17.793c0 .402-.011.805-.04 1.204-.285 4.765-2.289 9.45-6 13.084a20.63 20.63 0 01-9.124 5.198l-.457.116a9.9 9.9 0 01-.458.105c-.092.02-.185.042-.278.06-.096.02-.197.04-.296.058-.179.035-.361.067-.54.099l-.471.073c-.482.07-.968.12-1.457.154-.157.01-.314.021-.475.024a18.75 18.75 0 01-1.718.014 17.028 17.028 0 01-.59-.027c.55-.032 1.104-.088 1.65-.165l.472-.073c.179-.032.361-.063.54-.098.1-.018.2-.039.296-.06.093-.017.186-.038.278-.059a8.47 8.47 0 00.458-.105l.457-.115a20.631 20.631 0 009.125-5.199c3.71-3.635 5.714-8.32 6-13.084.028-.399.039-.801.039-1.203l-.007-17.793-.147-10.415 7.65 10.414z" fill="#337FC6"/><path d="M37.561 33.578c.004.063.007.122.007.18h-.007v-.18zm10.697-1.022v1.204h-.04c.029-.399.04-.801.04-1.204z" fill="#236FE3"/></svg>