<svg width="110" height="110" fill="none" xmlns="http://www.w3.org/2000/svg"><path d="M66.748 70.18a14.56 14.56 0 002.99-8.85c0-8.094-6.611-14.678-14.74-14.678-8.127 0-14.74 6.584-14.74 14.678a14.56 14.56 0 002.992 8.85 21.658 21.658 0 00-9.928 18.216v9.184a6.108 6.108 0 006.102 6.101h31.151a6.108 6.108 0 006.101-6.101v-9.184c0-7.41-3.764-14.24-9.928-18.216zm-11.75-20.712c5.832 0 10.695 4.187 11.722 9.696-3.387.294-6.696-1.382-8.512-4.418-.44-.783-1.612-.92-2.219-.258a15.463 15.463 0 01-12.706 4.644c1.04-5.493 5.896-9.664 11.716-9.664zM44.875 62.032a18.25 18.25 0 0011.906-4.425c2.472 3.055 6.255 4.687 10.124 4.369-.34 6.24-5.549 11.214-11.905 11.214-6.368 0-11.586-4.99-11.908-11.247.595.059 1.19.089 1.783.089zM73.86 97.58a3.289 3.289 0 01-3.285 3.285H39.424a3.289 3.289 0 01-3.286-3.285v-9.184A18.847 18.847 0 0145.2 72.28a14.714 14.714 0 009.8 3.727c3.759 0 7.192-1.411 9.799-3.726a18.846 18.846 0 019.062 16.115v9.184zm-44.797-.105a1.643 1.643 0 100-3.286 1.643 1.643 0 000 3.286z" fill="#236FE3"/><path d="M38.268 68.006a21.665 21.665 0 00-4.844-4.265 14.558 14.558 0 002.992-8.853c0-8.093-6.612-14.677-14.74-14.677-8.127 0-14.74 6.584-14.74 14.677 0 3.322 1.116 6.389 2.992 8.851A21.658 21.658 0 000 81.954v9.184a6.108 6.108 0 006.101 6.102H23.32a1.408 1.408 0 000-2.816H6.101a3.289 3.289 0 01-3.285-3.286v-9.184a18.847 18.847 0 019.062-16.114 14.713 14.713 0 009.799 3.725c3.759 0 7.192-1.41 9.799-3.725a18.858 18.858 0 014.637 3.98 1.407 1.407 0 102.155-1.814zM21.677 43.027c5.83 0 10.693 4.185 11.72 9.694-3.387.294-6.696-1.381-8.511-4.417-.44-.783-1.612-.918-2.22-.258A15.463 15.463 0 019.962 52.69c1.04-5.493 5.896-9.663 11.716-9.663zm0 23.722c-6.369 0-11.587-4.992-11.908-11.248a18.254 18.254 0 0013.689-4.335c2.472 3.054 6.254 4.685 10.124 4.367-.338 6.241-5.548 11.216-11.905 11.216zm59.261 30.726a1.643 1.643 0 100-3.286 1.643 1.643 0 000 3.286zm19.133-33.735a14.558 14.558 0 002.992-8.85c0-8.094-6.612-14.678-14.74-14.678s-14.74 6.584-14.74 14.677c0 3.323 1.116 6.39 2.993 8.853a21.664 21.664 0 00-4.845 4.265 1.408 1.408 0 002.155 1.813 18.853 18.853 0 014.638-3.98 14.713 14.713 0 009.799 3.726 14.71 14.71 0 009.798-3.725 18.848 18.848 0 019.063 16.115v9.184a3.29 3.29 0 01-3.286 3.285H86.68a1.408 1.408 0 000 2.816h17.218A6.108 6.108 0 00110 91.14v-9.184c0-7.41-3.765-14.24-9.929-18.216zM88.323 43.028c5.82 0 10.676 4.17 11.715 9.663a15.462 15.462 0 01-12.705-4.643c-.608-.66-1.779-.525-2.22.258-1.814 3.034-5.124 4.71-8.51 4.416 1.026-5.508 5.89-9.694 11.72-9.694zm0 23.722c-6.357 0-11.568-4.975-11.906-11.216 3.87.318 7.653-1.313 10.125-4.367a18.253 18.253 0 0013.689 4.335c-.322 6.256-5.54 11.248-11.908 11.248zM73.748 6.32c-8.128 0-14.74 6.584-14.74 14.677s6.612 14.677 14.74 14.677c8.127 0 14.74-6.584 14.74-14.677S81.875 6.32 73.748 6.32zm0 2.816c5.83 0 10.694 4.186 11.72 9.695-3.386.293-6.696-1.382-8.511-4.417-.44-.783-1.612-.918-2.219-.258A15.46 15.46 0 0162.033 18.8c1.039-5.493 5.895-9.663 11.715-9.663zm0 23.722c-6.368 0-11.587-4.991-11.908-11.248a18.253 18.253 0 0013.689-4.335C78 20.33 81.783 21.96 85.653 21.642c-.338 6.242-5.548 11.216-11.905 11.216zM36.2 6.32c-8.128 0-14.74 6.584-14.74 14.677s6.612 14.677 14.74 14.677c8.127 0 14.74-6.584 14.74-14.677S44.328 6.32 36.2 6.32zm0 2.816c5.83 0 10.694 4.186 11.72 9.695-3.386.293-6.696-1.382-8.511-4.417-.44-.783-1.612-.918-2.219-.258A15.46 15.46 0 0124.486 18.8c1.039-5.493 5.895-9.663 11.715-9.663zm0 23.722c-6.368 0-11.587-4.991-11.908-11.248a18.253 18.253 0 0013.689-4.335c2.472 3.054 6.254 4.685 10.124 4.367-.338 6.242-5.548 11.216-11.905 11.216z" fill="#236FE3"/></svg>