<svg width="125" height="125" fill="none" xmlns="http://www.w3.org/2000/svg"><g clip-path="url(#clip0_403_6033)" fill="#236FE3"><path d="M62.474 95.85C44.1 95.85 29.126 80.9 29.126 62.5c0-18.4 14.95-33.35 33.35-33.35 18.4 0 33.35 14.95 33.35 33.35 0 18.4-14.975 33.35-33.35 33.35zm0-64.2c-17 0-30.849 13.85-30.849 30.85s13.825 30.85 30.85 30.85c17 0 30.85-13.85 30.85-30.85s-13.85-30.85-30.85-30.85z"/><path d="M30.4 63.474c-.7 0-1.25-.55-1.25-1.25s.55-1.25 1.25-1.25l64.175-.175c.7 0 1.25.55 1.25 1.25s-.55 1.25-1.25 1.25l-64.175.175zm32.25-13.975h-.2c-8.675-.05-16.85-3.4-23.05-9.45-.5-.475-.5-1.274-.025-1.774s1.275-.5 1.775-.026c5.75 5.575 13.324 8.7 21.324 8.725 8.026.05 15.65-2.975 21.45-8.524.5-.476 1.3-.45 1.776.05.475.5.45 1.3-.05 1.775a33.159 33.159 0 01-23 9.224zm21.9 37.575c-.326 0-.65-.125-.9-.375-5.575-5.775-13.05-9.1-21.05-9.4-8-.3-15.725 2.476-21.725 7.825-.526.45-1.3.425-1.776-.1-.449-.525-.424-1.3.101-1.775a33.248 33.248 0 0123.475-8.45c8.65.325 16.725 3.95 22.75 10.175.475.5.475 1.3-.025 1.775-.225.2-.55.325-.85.325z"/><path d="M62.575 95.25c-.7 0-1.25-.55-1.25-1.25l-.1-63.6c0-.7.55-1.25 1.25-1.25s1.25.55 1.25 1.25l.1 63.6c0 .7-.55 1.25-1.25 1.25z"/><path d="M62.474 95.25c-.224 0-.474-.075-.674-.2-10.425-6.7-16.875-19.275-16.875-32.85 0-13.525 6.476-26.125 16.875-32.85.425-.275.95-.275 1.35 0 10.425 6.725 16.875 19.3 16.875 32.85 0 13.525-6.475 26.125-16.875 32.85-.2.125-.45.2-.675.2zm0-63.35c-9.299 6.376-15.049 17.9-15.049 30.3 0 12.425 5.75 23.95 15.05 30.3 9.3-6.375 15.05-17.9 15.05-30.3 0-12.4-5.75-23.925-15.05-30.3zm.701-22.7c-2.55 0-4.6-2.075-4.6-4.6 0-2.525 2.05-4.6 4.6-4.6s4.6 2.075 4.6 4.6c0 2.525-2.05 4.6-4.6 4.6zm0-6.7c-1.15 0-2.1.95-2.1 2.1 0 1.15.95 2.1 2.1 2.1 1.15 0 2.1-.95 2.1-2.1 0-1.15-.925-2.1-2.1-2.1zM22.05 25.7a4.635 4.635 0 01-3.274-1.35 4.572 4.572 0 01-1.351-3.275c0-1.25.476-2.4 1.35-3.275a4.614 4.614 0 013.275-1.35h.025c1.225 0 2.375.5 3.225 1.375a4.557 4.557 0 011.35 3.25c0 1.25-.475 2.4-1.35 3.274a4.579 4.579 0 01-3.25 1.351zm0-6.75c-.576 0-1.1.225-1.5.625-.4.4-.6.925-.6 1.5s.225 1.1.6 1.5c.8.8 2.174.8 3 0 .4-.4.6-.924.6-1.5 0-.575-.225-1.1-.6-1.5-.4-.4-.925-.625-1.5-.625zM4.6 66.425c-2.55 0-4.6-2.076-4.6-4.6 0-2.525 2.075-4.6 4.6-4.6 2.55 0 4.6 2.075 4.6 4.6 0 2.525-2.05 4.6-4.6 4.6zm0-6.7c-1.15 0-2.1.95-2.1 2.1 0 1.15.95 2.1 2.1 2.1 1.15 0 2.1-.95 2.1-2.1 0-1.15-.925-2.1-2.1-2.1zm16.5 47.825a4.64 4.64 0 01-3.275-1.35 4.558 4.558 0 01-1.35-3.25 4.614 4.614 0 017.874-3.275 4.573 4.573 0 011.351 3.275c0 1.25-.476 2.4-1.35 3.275a4.665 4.665 0 01-3.25 1.325zm0-6.7c-.55 0-1.1.2-1.5.6a2.1 2.1 0 00-.626 1.5c0 .575.226 1.1.625 1.5.802.8 2.177.8 3 0 .401-.4.601-.925.601-1.5s-.226-1.101-.6-1.5a2.197 2.197 0 00-1.5-.6zM61.825 125c-2.55 0-4.6-2.075-4.6-4.6 0-2.525 2.075-4.6 4.6-4.6 2.55 0 4.6 2.075 4.6 4.6 0 2.525-2.05 4.6-4.6 4.6zm0-6.7c-1.15 0-2.1.95-2.1 2.1 0 1.15.95 2.1 2.1 2.1 1.15 0 2.1-.95 2.1-2.1 0-1.15-.95-2.1-2.1-2.1zm41.125-9.75c-1.25 0-2.4-.5-3.25-1.375a4.556 4.556 0 01-1.35-3.25c0-1.25.475-2.4 1.35-3.275 1.8-1.8 4.725-1.8 6.525 0a4.573 4.573 0 011.35 3.275c0 1.25-.475 2.4-1.35 3.275a4.723 4.723 0 01-3.275 1.35zm0-6.725a2.12 2.12 0 00-1.5.6c-.4.4-.6.925-.6 1.5 0 .576.225 1.101.6 1.5.399.4.9.625 1.475.625.575 0 1.101-.225 1.5-.625.4-.399.6-.925.6-1.5s-.225-1.1-.6-1.5c-.375-.399-.925-.6-1.475-.6zm17.45-34.05a4.603 4.603 0 01-4.6-4.6c0-2.524 2.075-4.6 4.6-4.6 2.55 0 4.6 2.075 4.6 4.6 0 2.525-2.075 4.6-4.6 4.6zm0-6.7c-1.15 0-2.1.95-2.1 2.1 0 1.15.95 2.1 2.1 2.1 1.15 0 2.1-.95 2.1-2.1 0-1.15-.95-2.1-2.1-2.1zm-16.5-34.4a4.64 4.64 0 01-3.275-1.35 4.572 4.572 0 01-1.35-3.275c0-1.25.475-2.4 1.35-3.275a4.615 4.615 0 016.525 0c.875.85 1.35 2 1.35 3.225 0 1.25-.475 2.4-1.35 3.3-.875.924-2.051 1.375-3.25 1.375zm0-6.725c-.551 0-1.1.2-1.5.6-.4.4-.6.924-.6 1.5 0 .575.225 1.1.6 1.5.8.8 2.175.8 3 0 .4-.4.625-.95.625-1.524 0-.552-.225-1.076-.625-1.476-.4-.4-.95-.6-1.5-.6z"/><path d="M63.175 21.95c-.7 0-1.25-.55-1.25-1.25V7.95c0-.7.55-1.25 1.25-1.25s1.25.55 1.25 1.25V20.7c0 .7-.55 1.25-1.25 1.25zM33.45 33.7c-.325 0-.65-.126-.875-.376l-9.025-9c-.5-.475-.5-1.275 0-1.775.476-.5 1.275-.5 1.775 0l9.024 9c.5.476.5 1.275 0 1.775-.274.25-.6.375-.899.375zM20.724 63.073H8c-.7 0-1.25-.55-1.25-1.25s.55-1.25 1.25-1.25h12.724c.7 0 1.25.55 1.25 1.25s-.573 1.25-1.25 1.25zm2.75 38.725c-.323 0-.649-.125-.875-.375-.5-.5-.5-1.274 0-1.774l9-9c.5-.5 1.276-.5 1.776 0s.5 1.274 0 1.774l-9 9a1.21 1.21 0 01-.9.375zm38.351 16.5c-.7 0-1.25-.55-1.25-1.25v-12.75c0-.7.55-1.25 1.25-1.25s1.25.55 1.25 1.25v12.75c0 .675-.55 1.25-1.25 1.25zm38.75-15.5c-.325 0-.65-.125-.875-.375l-9.025-9c-.5-.475-.5-1.274 0-1.774s1.275-.5 1.775 0l9.025 9c.5.474.5 1.274 0 1.774-.25.25-.574.375-.9.375zM117 64.424h-12.724c-.701 0-1.25-.55-1.25-1.25s.549-1.25 1.25-1.25H117c.7 0 1.25.55 1.25 1.25s-.55 1.25-1.25 1.25zm-24.475-29.75c-.325 0-.65-.125-.875-.375-.5-.5-.5-1.274 0-1.774l9.001-9c.5-.5 1.274-.5 1.774 0s.5 1.274 0 1.774l-9 9c-.25.25-.575.375-.9.375z"/></g><defs><clipPath id="clip0_403_6033"><path fill="#fff" d="M0 0h125v125H0z"/></clipPath></defs></svg>