<svg width="105" height="105" fill="none" xmlns="http://www.w3.org/2000/svg"><path d="M1.643 85.698H24.61v.604c0 1.008.806 1.713 1.813 1.814h51.981c1.007 0 1.713-.806 1.813-1.814v-.604h22.969A1.808 1.808 0 00105 83.885v-6.347c0-9.872-6.145-18.636-15.413-21.96 7.555-4.433 10.175-14.205 5.742-21.76-4.432-7.555-14.204-10.174-21.76-5.742-1.107.604-2.115 1.41-3.021 2.216-3.023-9.973-13.5-15.614-23.472-12.592a18.788 18.788 0 00-12.592 12.592c-6.347-6.145-16.42-5.943-22.566.303-7.253 7.454-5.44 19.744 3.526 24.882C6.176 58.8.031 67.666.031 77.437v6.347c-.201 1.108.604 1.914 1.612 1.914zm74.949-1.209H28.036v-7.656c0-12.39 9.973-22.464 22.364-22.364h3.627c12.39 0 22.364 10.074 22.364 22.364.2.1.2 7.757.2 7.656zM31.159 55.577c3.022-1.712 5.44-4.432 6.85-7.756a16.514 16.514 0 005.037 4.13 26.301 26.301 0 00-9.066 4.835 14.034 14.034 0 00-2.82-1.209zm30.423-3.626a20.087 20.087 0 005.037-4.13c1.31 3.223 3.727 5.943 6.85 7.757a79.022 79.022 0 00-2.82 1.209 26.296 26.296 0 00-9.067-4.836zM95.43 63.536c3.727 3.727 5.843 8.764 5.843 14.002v4.635H80.118v-5.34c0-6.75-2.821-13.297-6.75-17.427 7.455-3.325 16.22-1.713 22.062 4.13zm-24.278-28.71c3.828-5.642 11.585-7.052 17.226-3.224 5.641 3.828 7.052 11.585 3.224 17.226-3.828 5.641-11.585 7.052-17.227 3.224-2.72-1.814-4.533-4.735-5.137-7.959 1.108-2.115 2.015-5.943 1.914-9.268zM53.624 20.52c8.462.705 14.506 8.059 14.002 16.118-.705 11.383-12.794 17.73-22.565 12.491-4.936-2.619-8.059-7.857-8.059-13.398 0-8.764 7.555-16.017 16.622-15.211zM10.81 41.776c0-6.85 5.641-12.39 12.491-12.39 4.03 0 7.858 2.015 10.175 5.44-.201 3.022.504 6.346 1.914 9.267-1.31 6.75-7.757 11.182-14.506 9.973-5.843-1.209-10.074-6.346-10.074-12.29zM3.355 77.538c0-10.98 8.865-19.845 19.846-19.845 2.72 0 5.54.604 8.059 1.713-3.93 4.13-6.75 10.678-6.75 17.427v5.34H3.355v-4.635z" fill="#236FE3"/></svg>