<svg width="100" height="100" fill="none" xmlns="http://www.w3.org/2000/svg"><g clip-path="url(#clip0_403_6011)" fill="#236FE3"><path d="M100 61.39a24.009 24.009 0 00-7.638-17.59C89.32 20.604 69.67 3.183 46.395 3.183c-18.036 0-33.69 10.446-41.363 25.652a1.6 1.6 0 00-.23.453A46.876 46.876 0 000 49.998a46.89 46.89 0 004.562 20.234c.057.218.159.414.294.586 7.608 15.394 23.365 25.998 41.539 25.998 11.187 0 21.95-4.072 30.39-11.466C89.634 85.054 100 74.424 100 61.39zM3.27 51.614h11.038c.137 5.864 1.009 11.462 2.5 16.592H7.19a43.616 43.616 0 01-3.92-16.592zM7.364 31.4h9.564c-1.56 5.238-2.48 10.968-2.62 16.984H3.269A43.64 43.64 0 017.365 31.4zm37.493 61.911c-4.436-1.526-8.84-9.525-11.28-21.878h11.28v21.878zM33.003 68.206c-.795-4.968-1.28-10.538-1.355-16.592h13.21v16.592H33.003zM31.65 48.385c.076-6.215.587-11.917 1.42-16.984h11.79v16.984H31.65zm2.007-20.212C36.111 16.042 40.47 8.198 44.858 6.687v21.486H33.656zm14.43-21.426c4.215 1.63 8.559 9.211 11.029 21.426H48.087V6.747zm6.541 1.468c7.062 3.165 13.07 10.317 16.764 19.958h-9.02c-1.715-8.662-4.425-15.608-7.744-19.958zM38.15 8.23c-3.326 4.368-6.027 11.333-7.734 19.943h-9.008c3.66-9.505 9.628-16.74 16.742-19.943zM29.833 31.4c-.846 5.212-1.338 10.937-1.413 16.984H17.536c.147-6.055 1.114-11.799 2.74-16.984h9.556zM17.537 51.614H28.42c.073 5.895.543 11.485 1.35 16.592h-9.612c-1.555-5.083-2.48-10.688-2.622-16.592zm12.803 19.82c1.703 8.79 4.433 15.9 7.81 20.335-7.212-3.247-13.246-10.637-16.892-20.335h9.082zM54.757 91.72c2.227-2.95 4.188-7.12 5.766-12.36a23.858 23.858 0 004.9 3.373c-3.132 4.159-6.762 7.2-10.666 8.987zm-6.67 1.54V71.434h6.573a24.079 24.079 0 003.272 5.236c-2.47 9.084-6.107 15.157-9.845 16.589zm0-25.053V51.614h6.451a24.08 24.08 0 00-1.09 16.591h-5.361zm8.194-19.821h-8.194V31.4h11.616c.584 3.552 1.012 7.443 1.249 11.643a24.128 24.128 0 00-4.671 5.34zm7.762-7.569a109.52 109.52 0 00-1.09-9.415h9.558a58.937 58.937 0 011.556 6.116 23.457 23.457 0 00-10.024 3.3zm13.292-3.374a62.612 62.612 0 00-1.45-6.04h9.555a43.514 43.514 0 013.168 9.527 23.458 23.458 0 00-11.273-3.487zm6.423-9.27h-8.93C72.04 20.41 67.833 14.036 62.75 9.668c8.829 3.656 16.235 10.183 21.008 18.506zM30.178 9.615c-5.148 4.41-9.381 10.847-12.181 18.559H9.054c4.788-8.319 12.216-14.897 21.124-18.559zM8.831 71.434h9.027c2.797 7.885 7.084 14.466 12.32 18.95-9.048-3.718-16.57-10.446-21.347-18.95zM68.46 84.042c1.178.413 2.398.733 3.651.955a42.964 42.964 0 01-9.339 5.32c2.032-1.756 3.937-3.857 5.688-6.275zm7.772-1.905c-11.325 0-20.538-9.307-20.538-20.747a20.78 20.78 0 012.764-10.377 1.62 1.62 0 00.26-.447c3.616-5.948 10.114-9.924 17.514-9.924 11.325 0 20.538 9.307 20.538 20.748 0 11.44-9.212 20.747-20.538 20.747z"/><path d="M73.456 69.654l-5.804-4.229a2.075 2.075 0 01-.83-1.357 2.091 2.091 0 01.962-2.102 2.063 2.063 0 012.299.089l4.305 3.137 10.71-11.806a2.065 2.065 0 013.57 1.316c.03.545-.154 1.08-.512 1.49l-11.957 13.18c-.374.94-1.668.94-2.743.282z"/></g><defs><clipPath id="clip0_403_6011"><path fill="#fff" d="M0 0h100v100H0z"/></clipPath></defs></svg>