<svg width="1920" height="812" fill="none" xmlns="http://www.w3.org/2000/svg"><path d="M1081 68.427c-77.6 252.771-226.761 672.662-202.664 330.061C908.457-29.764 702.519-77.676 542.745 47.132 382.971 171.941 434.046 642.781 275.254 383.7 116.462 124.62-31.853-16.75 58.839 19.332 186.716 70.208 64.077 398.488-43.64 313.31-78.042 286.107-143.171 107.269-171 19.331" stroke="#EFEFEF" stroke-opacity=".5"/><path d="M1081 80.254c-77.6 252.771-226.761 672.663-202.664 330.062C908.457-17.936 702.519-65.848 542.745 58.96 382.971 183.768 434.046 654.608 275.254 395.528 116.462 136.448-31.853-4.922 58.839 31.159 186.716 82.036 64.077 410.316-43.64 325.14-78.042 297.934-143.171 119.097-171 31.159" stroke="#EFEFEF" stroke-opacity=".5"/><path d="M1081 92.082c-77.6 252.771-226.761 672.663-202.664 330.061C908.457-6.108 702.519-54.021 542.745 70.788 382.971 195.596 434.046 666.436 275.254 407.356 116.462 148.275-31.853 6.905 58.839 42.986c127.877 50.877 5.238 379.157-102.478 293.98C-78.042 309.762-143.171 130.924-171 42.986" stroke="#EFEFEF" stroke-opacity=".5"/><path d="M1081 103.909c-77.6 252.771-226.761 672.663-202.664 330.062C908.457 5.719 702.519-42.193 542.745 82.615 382.971 207.423 434.046 678.263 275.254 419.183 116.462 160.102-31.853 18.732 58.839 54.814 186.716 105.69 64.077 433.971-43.64 348.793-78.042 321.589-143.171 142.751-171 54.814" stroke="#EFEFEF" stroke-opacity=".5"/><path d="M1081 113.955c-77.6 247.24-226.761 657.944-202.664 322.839C908.457 17.914 702.519-28.95 542.745 93.127 382.971 215.204 434.046 675.742 275.254 422.33 116.462 168.919-31.853 30.642 58.839 65.934c127.877 49.763 5.238 370.86-102.478 287.547C-78.042 326.872-143.171 151.948-171 65.934" stroke="#EFEFEF" stroke-opacity=".5"/><path d="M1081 125.783c-77.6 247.24-226.761 657.943-202.664 322.839C908.457 29.741 702.519-17.123 542.745 104.954S434.046 687.569 275.254 434.158C116.462 180.746-31.853 42.469 58.839 77.762c127.877 49.763 5.238 370.86-102.478 287.546C-78.042 338.699-143.171 163.775-171 77.762" stroke="#EFEFEF" stroke-opacity=".5"/><path d="M1081 137.61c-77.6 247.24-226.761 657.944-202.664 322.839C908.457 41.569 702.519-5.295 542.745 116.782 382.971 238.859 434.046 699.396 275.254 445.985 116.462 192.574-31.853 54.297 58.839 89.589c127.877 49.763 5.238 370.86-102.478 287.547C-78.042 350.527-143.171 175.602-171 89.589" stroke="#EFEFEF" stroke-opacity=".5"/><path d="M1081 149.437c-77.6 247.24-226.761 657.944-202.664 322.84C908.457 53.396 702.519 6.532 542.745 128.609S434.046 711.224 275.254 457.812C116.462 204.401-31.853 66.124 58.839 101.417c127.877 49.763 5.238 370.86-102.478 287.546C-78.042 362.354-143.171 187.43-171 101.417" stroke="#EFEFEF" stroke-opacity=".5"/><path d="M1081 161.265c-77.6 247.24-226.761 657.944-202.664 322.839C908.457 65.224 702.519 18.36 542.745 140.437 382.971 262.514 434.046 723.051 275.254 469.64 116.462 216.229-31.853 77.952 58.839 113.244c127.877 49.763 5.238 370.86-102.478 287.547C-78.042 374.182-143.171 199.257-171 113.244" stroke="#EFEFEF" stroke-opacity=".5"/><path d="M1081 173.092c-77.6 247.24-226.761 657.944-202.664 322.839 30.121-418.88-175.817-465.744-335.591-343.667-159.774 122.077-108.699 582.615-267.491 329.203C116.462 228.056-31.853 89.779 58.839 125.071c127.877 49.764 5.238 370.86-102.478 287.547C-78.042 386.009-143.171 211.085-171 125.071" stroke="#EFEFEF" stroke-opacity=".5"/><path d="M1081 184.92c-77.6 247.24-226.761 657.944-202.664 322.839C908.457 88.878 702.519 42.014 542.745 164.091 382.971 286.169 434.046 746.706 275.254 493.295 116.462 239.883-31.853 101.606 58.839 136.899c127.877 49.763 5.238 370.86-102.478 287.547C-78.042 397.837-143.171 222.912-171 136.899" stroke="#EFEFEF" stroke-opacity=".5"/><path d="M1081 196.747c-77.6 247.24-226.761 657.944-202.664 322.839 30.121-418.88-175.817-465.744-335.591-343.667-159.774 122.077-108.699 582.615-267.491 329.203C116.462 251.711-31.853 113.434 58.839 148.726c127.877 49.763 5.238 370.86-102.478 287.547C-78.042 409.664-143.171 234.74-171 148.726" stroke="#EFEFEF" stroke-opacity=".5"/><path d="M1081 208.575c-77.6 247.239-226.761 657.943-202.664 322.839 30.121-418.881-175.817-465.745-335.591-343.668S434.046 770.361 275.254 516.949C116.462 263.538-31.853 125.261 58.839 160.554 186.716 210.317 64.077 531.414-43.64 448.1-78.042 421.491-143.171 246.567-171 160.554" stroke="#EFEFEF" stroke-opacity=".5"/><path d="M1081 220.402c-77.6 247.24-226.761 657.944-202.664 322.839C908.457 124.36 702.519 77.497 542.745 199.574 382.971 321.651 434.046 782.188 275.254 528.777 116.462 275.366-31.853 137.089 58.839 172.381c127.877 49.763 5.238 370.86-102.478 287.547C-78.042 433.319-143.171 258.395-171 172.381" stroke="#EFEFEF" stroke-opacity=".5"/><path d="M1081 232.23c-77.6 247.24-226.761 657.943-202.664 322.839 30.121-418.881-175.817-465.745-335.591-343.668S434.046 794.016 275.254 540.605C116.462 287.193-31.853 148.916 58.839 184.209c127.877 49.763 5.238 370.86-102.478 287.546C-78.042 445.146-143.171 270.222-171 184.209" stroke="#EFEFEF" stroke-opacity=".5"/><path d="M1081 244.057c-77.6 247.24-226.761 657.944-202.664 322.839 30.121-418.881-175.817-465.745-335.591-343.667-159.774 122.077-108.699 582.614-267.491 329.203C116.462 299.021-31.853 160.744 58.839 196.036c127.877 49.763 5.238 370.86-102.478 287.547C-78.042 456.974-143.171 282.049-171 196.036" stroke="#EFEFEF" stroke-opacity=".5"/><path d="M1081 255.884c-77.6 247.24-226.761 657.944-202.664 322.839 30.121-418.881-175.817-465.744-335.591-343.667-159.774 122.077-108.699 582.615-267.491 329.203C116.462 310.848-31.853 172.571 58.839 207.863c127.877 49.763 5.238 370.86-102.478 287.547C-78.042 468.801-143.171 293.877-171 207.863" stroke="#EFEFEF" stroke-opacity=".5"/><path d="M1081 267.712c-77.6 247.24-226.761 657.943-202.664 322.839 30.121-418.881-175.817-465.745-335.591-343.668S434.046 829.498 275.254 576.087C116.462 322.675-31.853 184.398 58.839 219.691c127.877 49.763 5.238 370.86-102.478 287.546C-78.042 480.628-143.171 305.704-171 219.691" stroke="#EFEFEF" stroke-opacity=".5"/><path d="M2333 163.046c-85.23 252.771-249.09 672.663-222.62 330.062 33.09-428.252-193.12-476.164-368.63-351.356-175.5 124.808-119.4 595.648-293.82 336.568-174.43-259.081-337.34-400.45-237.72-364.369 140.46 50.876 5.75 379.157-112.57 293.979-37.79-27.204-109.332-206.041-139.901-293.979" stroke="#EFEFEF" stroke-opacity=".5"/><path d="M2333 174.874c-85.23 252.771-249.09 672.662-222.62 330.061 33.09-428.252-193.12-476.164-368.63-351.356-175.5 124.808-119.4 595.649-293.82 336.568-174.43-259.08-337.34-400.45-237.72-364.369 140.46 50.877 5.75 379.157-112.57 293.98-37.79-27.204-109.332-206.042-139.901-293.98" stroke="#EFEFEF" stroke-opacity=".5"/><path d="M2333 186.701c-85.23 252.771-249.09 672.663-222.62 330.062 33.09-428.252-193.12-476.164-368.63-351.356-175.5 124.808-119.4 595.648-293.82 336.568-174.43-259.081-337.34-400.451-237.72-364.369 140.46 50.876 5.75 379.157-112.57 293.979-37.79-27.204-109.332-206.042-139.901-293.979" stroke="#EFEFEF" stroke-opacity=".5"/><path d="M2333 198.528c-85.23 252.771-249.09 672.663-222.62 330.062 33.09-428.252-193.12-476.164-368.63-351.356-175.5 124.808-119.4 595.649-293.82 336.568-174.43-259.08-337.34-400.451-237.72-364.369 140.46 50.877 5.75 379.157-112.57 293.98-37.79-27.205-109.332-206.042-139.901-293.98" stroke="#EFEFEF" stroke-opacity=".5"/><path d="M2333 208.575c-85.23 247.239-249.09 657.943-222.62 322.839 33.09-418.881-193.12-465.745-368.63-343.668-175.5 122.077-119.4 582.615-293.82 329.203-174.43-253.411-337.34-391.688-237.72-356.395 140.46 49.763 5.75 370.86-112.57 287.546-37.79-26.609-109.332-201.533-139.901-287.546" stroke="#EFEFEF" stroke-opacity=".5"/><path d="M2333 220.402c-85.23 247.24-249.09 657.944-222.62 322.839 33.09-418.881-193.12-465.744-368.63-343.667-175.5 122.077-119.4 582.614-293.82 329.203-174.43-253.411-337.34-391.688-237.72-356.396 140.46 49.763 5.75 370.86-112.57 287.547-37.79-26.609-109.332-201.533-139.901-287.547" stroke="#EFEFEF" stroke-opacity=".5"/><path d="M2333 232.23c-85.23 247.24-249.09 657.943-222.62 322.839 33.09-418.881-193.12-465.745-368.63-343.668-175.5 122.077-119.4 582.615-293.82 329.204-174.43-253.412-337.34-391.689-237.72-356.396 140.46 49.763 5.75 370.86-112.57 287.546-37.79-26.609-109.332-201.533-139.901-287.546" stroke="#EFEFEF" stroke-opacity=".5"/><path d="M2333 244.057c-85.23 247.24-249.09 657.944-222.62 322.839 33.09-418.881-193.12-465.745-368.63-343.667-175.5 122.077-119.4 582.614-293.82 329.203-174.43-253.411-337.34-391.688-237.72-356.396 140.46 49.763 5.75 370.86-112.57 287.547-37.79-26.609-109.332-201.534-139.901-287.547" stroke="#EFEFEF" stroke-opacity=".5"/><path d="M2333 255.884c-85.23 247.24-249.09 657.944-222.62 322.839 33.09-418.881-193.12-465.744-368.63-343.667-175.5 122.077-119.4 582.615-293.82 329.203-174.43-253.411-337.34-391.688-237.72-356.396 140.46 49.763 5.75 370.86-112.57 287.547-37.79-26.609-109.332-201.533-139.901-287.547" stroke="#EFEFEF" stroke-opacity=".5"/><path d="M2333 267.712c-85.23 247.24-249.09 657.943-222.62 322.839 33.09-418.881-193.12-465.745-368.63-343.668-175.5 122.077-119.4 582.615-293.82 329.204-174.43-253.412-337.34-391.689-237.72-356.396 140.46 49.763 5.75 370.86-112.57 287.546-37.79-26.609-109.332-201.533-139.901-287.546" stroke="#EFEFEF" stroke-opacity=".5"/><path d="M2333 279.539c-85.23 247.24-249.09 657.944-222.62 322.839 33.09-418.881-193.12-465.744-368.63-343.667-175.5 122.077-119.4 582.614-293.82 329.203-174.43-253.411-337.34-391.688-237.72-356.396 140.46 49.763 5.75 370.86-112.57 287.547-37.79-26.609-109.332-201.534-139.901-287.547" stroke="#EFEFEF" stroke-opacity=".5"/><path d="M2333 291.366c-85.23 247.24-249.09 657.944-222.62 322.84 33.09-418.881-193.12-465.745-368.63-343.668-175.5 122.077-119.4 582.615-293.82 329.203-174.43-253.411-337.34-391.688-237.72-356.395 140.46 49.763 5.75 370.86-112.57 287.546-37.79-26.609-109.332-201.533-139.901-287.546" stroke="#EFEFEF" stroke-opacity=".5"/><path d="M2333 303.194c-85.23 247.24-249.09 657.944-222.62 322.839 33.09-418.881-193.12-465.745-368.63-343.668-175.5 122.078-119.4 582.615-293.82 329.204-174.43-253.412-337.34-391.689-237.72-356.396 140.46 49.763 5.75 370.86-112.57 287.547-37.79-26.609-109.332-201.534-139.901-287.547" stroke="#EFEFEF" stroke-opacity=".5"/><path d="M2333 315.021c-85.23 247.24-249.09 657.944-222.62 322.839 33.09-418.88-193.12-465.744-368.63-343.667-175.5 122.077-119.4 582.615-293.82 329.203C1273.5 369.985 1110.59 231.708 1210.21 267c140.46 49.764 5.75 370.86-112.57 287.547C1059.85 527.938 988.308 353.014 957.739 267" stroke="#EFEFEF" stroke-opacity=".5"/><path d="M2333 326.849c-85.23 247.24-249.09 657.943-222.62 322.839 33.09-418.881-193.12-465.745-368.63-343.668-175.5 122.077-119.4 582.615-293.82 329.204-174.43-253.412-337.34-391.689-237.72-356.396 140.46 49.763 5.75 370.86-112.57 287.546-37.79-26.609-109.332-201.533-139.901-287.546" stroke="#EFEFEF" stroke-opacity=".5"/><path d="M2333 338.676c-85.23 247.24-249.09 657.944-222.62 322.839 33.09-418.881-193.12-465.744-368.63-343.667-175.5 122.077-119.4 582.615-293.82 329.203-174.43-253.411-337.34-391.688-237.72-356.396 140.46 49.763 5.75 370.86-112.57 287.547-37.79-26.609-109.332-201.533-139.901-287.547" stroke="#EFEFEF" stroke-opacity=".5"/><path d="M2333 350.504c-85.23 247.24-249.09 657.946-222.62 322.839 33.09-418.881-193.12-465.745-368.63-343.668-175.5 122.077-119.4 582.615-293.82 329.204-174.43-253.412-337.34-391.689-237.72-356.396 140.46 49.763 5.75 370.86-112.57 287.546-37.79-26.609-109.332-201.533-139.901-287.546" stroke="#EFEFEF" stroke-opacity=".5"/><path d="M2333 362.331c-85.23 247.24-249.09 657.939-222.62 322.839 33.09-418.881-193.12-465.745-368.63-343.667-175.5 122.077-119.4 582.614-293.82 329.203-174.43-253.411-337.34-391.688-237.72-356.396 140.46 49.763 5.75 370.86-112.57 287.547-37.79-26.609-109.332-201.534-139.901-287.547" stroke="#EFEFEF" stroke-opacity=".5"/></svg>