<svg width="376" height="60" fill="none" xmlns="http://www.w3.org/2000/svg"><circle cx="30.214" cy="30" r="30" fill="#EFEFEF"/><path d="M18.104 30V15l8.118.02 8.118.021.694.177c3.367.858 5.836 3.045 7.045 6.24.29.768.557 2.014.606 2.832l.04.668H37.82l-.038-.32c-.127-1.062-.456-1.907-1.047-2.687-.59-.78-1.478-1.413-2.462-1.753l-.529-.184-5.34-.019-5.34-.019v20.047h4.894V45h-9.854V30z" fill="#13A3D7"/><path d="M32.056 42.455v-2.544l.846-.047c.465-.025 1.028-.092 1.25-.148 1.365-.345 2.687-1.47 3.302-2.81.515-1.12.496-.943.523-4.979L38 28.333h4.724l-.024 3.904-.024 3.904-.165.722c-.464 2.03-1.27 3.583-2.604 5.02-1.083 1.168-2.28 1.98-3.692 2.507-1.055.393-1.749.524-3.027.57l-1.133.04v-2.545z" fill="#13A3D7"/><circle cx="93.818" cy="29.604" r="29.604" fill="#EFEFEF"/><circle cx="94.078" cy="29.5" r="29.5" fill="#EFEFEF"/><path d="M69.179 19.898h36.188l4.369 5.96 4.37-5.96h5.339l-7.039 9.601 7.039 9.603h-5.339l-4.37-5.96-4.369 5.96H69.179V19.898z" fill="#00539F"/><path d="M73.463 35.282V23.728h1.754c3.535 0 5.145 1.784 5.145 5.707 0 4.113-1.49 5.848-5.097 5.848h-1.802zm16.058-3.685l2.21-7.727 2.237 7.727H89.52zm-19.352 6.54h5.217c5.53 0 8.317-2.926 8.317-8.702 0-5.66-2.788-8.584-8.198-8.584h-5.336v17.286zm36.799-8.645l-6.34 8.648 4.368.004 4.204-5.738 2.137-2.914-2.137-2.911-4.204-5.73h-4.368l6.34 8.641zm-22.472 8.645h3.125l1.106-3.781h6.033l1.083 3.78h3.294l-5.266-17.285h-4.11l-5.265 17.286z" fill="#fff"/><circle cx="157.182" cy="29.604" r="29.604" fill="#EFEFEF"/><path fill-rule="evenodd" clip-rule="evenodd" d="M151.041 20l-3.259 18h2.887l1.815-9.992h1.135L155.682 38h3.052l-2.063-9.992h-.989L160.404 20h-3.299l-4.6 7.831L153.928 20h-2.887z" fill="#111"/><path fill-rule="evenodd" clip-rule="evenodd" d="M161.065 20l-3.259 18h2.888l1.814-9.992h1.135L165.705 38h3.053l-2.062-9.992h-.991L170.429 20h-3.301l-4.599 7.831L163.952 20h-2.887zm-17.738 18h2.887l3.259-18h-2.888l-3.258 18zm33.702 0h2.887l3.26-18h-2.888l-3.259 18z" fill="#111"/><path fill-rule="evenodd" clip-rule="evenodd" d="M167.871 38h7.652l.577-3.189h-4.764l.804-4.464h4.435l.578-3.19h-4.435l.743-4.11h4.743l.578-3.047h-7.652l-3.259 18zm-22.853-18h-2.393l-2.248 12.437L138.995 20h-3.424l-3.259 18h2.414l2.33-13.075L138.521 38h3.238l3.259-18z" fill="#111"/><circle cx="220.286" cy="29.5" r="29.5" fill="#EFEFEF"/><mask id="a" style="mask-type:luminance" maskUnits="userSpaceOnUse" x="219" y="15" width="20" height="23"><path d="M219.92 15h18.501v22.602H219.92V15z" fill="#fff"/></mask><g mask="url(#a)"><path d="M229.521 15l-7.823 21.496a1.507 1.507 0 01-1.259.977v.01h8.271c.648 0 1.202-.411 1.408-.987L237.945 15h-8.424z" fill="#0996C7"/></g><path d="M219.765 37.157c.479 0 .899-.238 1.156-.6.027-.037.121-.168.187-.347l2.87-7.889-1.679-4.606a1.418 1.418 0 00-2.465-.273 1.614 1.614 0 00-.187.348l-2.869 7.886 1.686 4.625a1.415 1.415 0 001.301.856z" fill="#0996C7"/><mask id="b" style="mask-type:luminance" maskUnits="userSpaceOnUse" x="202" y="21" width="19" height="24"><path d="M202.104 21.841h18.501V45h-18.501V21.841z" fill="#fff"/></mask><g mask="url(#b)"><path d="M220.378 22.516h-8.362a1.5 1.5 0 00-1.411.988l-7.824 21.495h8.424l7.824-21.495a1.499 1.499 0 011.349-.986v-.002z" fill="#0996C7"/></g><circle cx="283.286" cy="29.5" r="29.5" fill="#EFEFEF"/><path fill-rule="evenodd" clip-rule="evenodd" d="M277.394 26v18.893h.026l3.827-5.299V20.62L277.394 26zm-9.207 12.71v6.183h3.828V33.439l-3.828 5.272zm4.55-6.315v12.498h3.907V26.989l-3.907 5.406zM285.85 26v18.894l-3.88-5.299V20.62l3.88 5.38zm9.233 12.712v6.182h-3.827V33.439l3.827 5.272zm-4.603-6.316v12.498h-3.88V26.989l3.88 5.406z" fill="#000"/><path fill-rule="evenodd" clip-rule="evenodd" d="M295.217 15v6.53l-3.961 5.272V15h3.961zm-4.737 12.792V15h-3.88v10.678l2.676 3.72 1.204-1.606zm-4.63-12.685l-3.506 4.683 3.506 4.871v-9.554zM268 15v6.53l3.987 5.272V15H268zm4.737 12.765V15h3.907v10.678l-2.676 3.72-1.231-1.633zm4.63-12.658l3.505 4.683-3.505 4.871v-9.554z" fill="#A6A8AA"/><path fill-rule="evenodd" clip-rule="evenodd" d="M296.876 43.689c0-.054 0-.08.08-.08.188 0 .241.107.241.213 0 .161-.053.241-.214.241-.107 0-.107 0-.107-.053v-.321zm-.187.642c0 .16 0 .187-.081.214h-.027c-.027 0-.027.053 0 .053h.429c.026 0 .026-.053 0-.053h-.054c-.08 0-.08-.053-.08-.214v-.16c0-.028 0-.028.053-.028.054 0 .081 0 .081.027.053.054.133.188.187.241.08.134.16.188.321.188h.053c.027 0 .027-.027 0-.027 0 0-.053 0-.107-.054-.08-.053-.16-.187-.267-.401-.027-.027-.027-.027-.027-.054a.272.272 0 00.187-.267c0-.214-.187-.268-.375-.268h-.401c-.027.054-.027.054 0 .08h.027c.08.028.08.028.08.188l.001.535zm.321.669c.562 0 .963-.401.963-.937a.942.942 0 00-.963-.963c-.536 0-.937.428-.937.963 0 .535.401.937.937.937zm-.803-.937c0-.455.348-.829.803-.829.455 0 .803.375.803.83 0 .48-.348.856-.803.856-.455 0-.803-.375-.803-.857z" fill="#000"/><circle cx="346.286" cy="29.5" r="29.5" fill="#EFEFEF"/><path fill-rule="evenodd" clip-rule="evenodd" d="M322.919 21.05a12.452 12.452 0 014.09.451c.987.368 1.453 1.222 1.399 2.561l-.323.452c-.877-.106-1.739-.407-2.583-.904-1.063-.313-2.068-.112-3.014.603-.618.919-.547 1.723.216 2.41 1.664.858 3.314 1.762 4.951 2.711 1.407 1.65 1.658 3.608.753 5.875-.417.785-.955 1.337-1.614 1.657-1.99.726-3.927.526-5.812-.602-.73-.604-1.052-1.457-.969-2.561.173-.393.424-.594.753-.603.667.38 1.313.831 1.938 1.356 1.444.788 2.772.536 3.982-.753.224-.945.045-1.698-.538-2.26a24.53 24.53 0 00-3.66-1.807c-2.048-.961-2.801-2.92-2.26-5.875.628-1.465 1.525-2.369 2.691-2.712z" fill="#5D5D5D"/><path d="M340.455 27.787c.517-3.177 1.823-5.043 3.776-5.895 1.848-.17 3.169.336 4.111 1.414.998 1.143 1.678 3.049 1.914 5.87-.319 3.186-1.112 5.189-2.205 6.243-1.009.973-2.44 1.285-4.525.662-2.364-1.602-3.457-4.272-3.071-8.294z" stroke="#5D5D5D" stroke-width="1.719"/><path fill-rule="evenodd" clip-rule="evenodd" d="M330.023 21.35c3.015-.05 6.028 0 9.041.151.595.894.524 1.697-.215 2.41-1.074.15-2.15.201-3.229.151.036 4.119 0 8.236-.108 12.352-.656 1.2-1.302 1.2-1.937 0-.108-4.116-.144-8.233-.108-12.352-1.15.05-2.298 0-3.444-.15-.56-.853-.56-1.706 0-2.561z" fill="#5D5D5D"/><path fill-rule="evenodd" clip-rule="evenodd" d="M359.73 21.05c1.045-.162 1.511.44 1.399 1.807l-2.583 4.82-1.184-2.26a107.578 107.578 0 012.368-4.368zm10.763 0c.754-.101 1.256.35 1.507 1.355a34.807 34.807 0 01-2.798 5.272 29.075 29.075 0 00-1.077-2.26 73.855 73.855 0 012.368-4.368zm-18.082 0c.785.036 1.395.538 1.83 1.506a154.992 154.992 0 013.336 6.627 184.942 184.942 0 01-3.767 7.231c-.458.891-1.032 1.092-1.722.602a2.135 2.135 0 01-.215-1.506 255.047 255.047 0 003.336-6.477 214.002 214.002 0 00-3.121-5.875c-.179-.805-.072-1.507.323-2.109zm16.575 9.64c.215-.026.394.075.538.301a34.42 34.42 0 002.368 4.218c.252 1.657-.215 2.31-1.399 1.958a38.242 38.242 0 01-2.368-4.368c.299-.713.586-1.416.861-2.109zm-6.028-9.64c.679-.164 1.217.138 1.615.903a196.779 196.779 0 013.767 7.23 214.284 214.284 0 01-3.982 7.532c-1.303 1.087-1.877.585-1.723-1.506a138.345 138.345 0 003.337-6.025 125.331 125.331 0 00-3.121-5.725c-.454-.864-.418-1.668.107-2.41zm-4.519 9.64a30.287 30.287 0 012.69 4.519c.252 1.657-.215 2.31-1.399 1.958a100.546 100.546 0 00-2.26-4.067 5.612 5.612 0 01.969-2.41z" fill="#1F75BA"/></svg>