<svg width="598" height="598" fill="none" xmlns="http://www.w3.org/2000/svg"><path d="M298.396 568.912l-1.709 23.247-9.396-.689a13.792 13.792 0 01-.837-.094 6.587 6.587 0 01-.945-.167c-1.277-.299-2.32-.819-3.132-1.56a6.241 6.241 0 01-1.764-2.711c-.355-1.064-.486-2.221-.395-3.47.093-1.259.392-2.389.899-3.391a6.244 6.244 0 012.142-2.423c.911-.615 2.019-.978 3.326-1.087.304-.021.63-.03.976-.026.335.003.61.012.825.028l6.022.442.613-8.347 3.375.248zm-4.223 11.295l-5.892-.432a8.806 8.806 0 00-.713-.02 5.31 5.31 0 00-.767.058c-.701.11-1.277.366-1.728.765a3.932 3.932 0 00-1.016 1.452 5.431 5.431 0 00-.25 3.406 3.79 3.79 0 00.794 1.568c.387.472.919.814 1.596 1.026.232.082.482.143.749.185.257.04.493.068.708.084l5.893.432.626-8.524zm-21.745-13.489c1.281.184 2.321.573 3.119 1.167.796.605 1.363 1.329 1.7 2.173.324.853.419 1.75.284 2.69-.126.876-.391 1.623-.796 2.241a4.493 4.493 0 01-1.62 1.485c-.676.382-1.478.654-2.407.816-.801.114-1.7.186-2.696.218-.997.032-2.04.045-3.13.042-1.1-.005-2.19-.009-3.269-.011l1.314-.498c-.216 1.353-.072 2.399.433 3.136.492.747 1.46 1.223 2.902 1.43.908.13 1.772.036 2.592-.283.818-.307 1.446-.926 1.885-1.855l2.987 1.409c-.641 1.424-1.622 2.488-2.945 3.192-1.332.703-2.998.911-4.995.625-1.549-.222-2.857-.682-3.923-1.38a5.028 5.028 0 01-2.173-2.863 5.321 5.321 0 01-.255-1.868c.026-.639.092-1.322.196-2.049l1.53-10.655 2.964.425-.568 3.958-.503-.596c.906-1.222 1.961-2.079 3.166-2.571 1.192-.483 2.595-.609 4.208-.378zm-.987 2.655c-.95-.136-1.791-.088-2.523.145-.732.244-1.345.598-1.836 1.061-.492.464-.843.97-1.052 1.518a5.761 5.761 0 00-.553 1.686 32.564 32.564 0 00-.269 1.532l-1.032-.557c1.08-.009 2.062-.015 2.946-.019a74.05 74.05 0 002.411-.047 14.245 14.245 0 001.921-.166 6.323 6.323 0 001.316-.4c.385-.174.707-.406.967-.695.249-.292.406-.667.472-1.126a2.46 2.46 0 00-.157-1.299c-.17-.406-.469-.754-.896-1.044-.428-.29-.999-.486-1.715-.589zm-22.209-5.718a14.511 14.511 0 013.231.349c1.032.233 1.919.615 2.663 1.144a3.861 3.861 0 011.502 2.107c.233.782.294 1.541.183 2.278a91.215 91.215 0 01-.457 2.517l-2.957 15.173-3.337-.649 2.926-15.015c.134-.688.245-1.288.334-1.798.078-.513.05-.963-.083-1.352-.253-.731-.784-1.224-1.592-1.481-.82-.247-1.807-.401-2.961-.46l.548-2.813zm8.903 16.772l-.52 2.67-11.726-2.282.52-2.669 11.726 2.281zm-13.229-17.389l-4.19 16.973-2.924-.72 1.017-4.118.277.635a6.48 6.48 0 01-1.186 1.292c-.449.378-.93.66-1.443.844a5.113 5.113 0 01-1.608.371 6.457 6.457 0 01-1.713-.089 6.425 6.425 0 01-1.583-.474l.76-3.08c.519.284 1.127.478 1.824.583.686.102 1.357.04 2.013-.187a4.295 4.295 0 001.584-.944 5.497 5.497 0 001.067-1.487 8.814 8.814 0 00.674-1.851l2.114-8.565 3.317.817zm-18.81-5.002c1.661.546 2.979 1.393 3.953 2.542.974 1.149 1.578 2.489 1.813 4.021.221 1.538.048 3.168-.518 4.89-.57 1.732-1.409 3.143-2.518 4.233-1.111 1.1-2.397 1.814-3.856 2.141-1.463.337-3.01.238-4.64-.297-1.661-.546-2.978-1.393-3.952-2.542-.974-1.149-1.579-2.489-1.813-4.02-.235-1.531-.071-3.153.492-4.865.57-1.732 1.411-3.149 2.523-4.249 1.098-1.093 2.38-1.813 3.846-2.161 1.463-.337 3.02-.235 4.67.307zm-.996 3.03c-1.589-.522-2.949-.378-4.079.432-1.143.817-1.993 2.071-2.55 3.763-.57 1.732-.625 3.247-.166 4.545.446 1.305 1.453 2.215 3.021 2.731 1.077.353 2.045.399 2.904.136.855-.253 1.594-.755 2.216-1.505.618-.739 1.113-1.673 1.483-2.801.574-1.742.633-3.268.177-4.576-.456-1.309-1.458-2.217-3.006-2.725zm-23.43-10.812l-3.32 7.928a12.683 12.683 0 00-.643 1.995 6.25 6.25 0 00-.178 2.101c.051.688.272 1.319.664 1.892.382.569 1.001 1.033 1.857 1.391a4.796 4.796 0 001.702.378 3.574 3.574 0 001.683-.331c.539-.254 1.058-.669 1.557-1.244.488-.579.932-1.347 1.333-2.302l1.634 1.543c-.612 1.463-1.426 2.638-2.441 3.524-1.018.895-2.172 1.442-3.46 1.641-1.288.198-2.659-.007-4.112-.615-1.115-.466-1.976-1.037-2.583-1.712-.606-.675-1.021-1.404-1.243-2.187a6.872 6.872 0 01-.295-2.352c.038-.791.15-1.533.336-2.228.186-.694.383-1.29.591-1.788l3.753-8.958 3.165 1.324zm11.335 4.741l-6.754 16.125-2.793-1.168 1.952-4.658-.374-.157 4.803-11.466 3.166 1.324zm-24.703-10.629c1.077.548 1.893 1.181 2.448 1.899.555.718.921 1.473 1.099 2.266.163.797.196 1.588.098 2.374a10.584 10.584 0 01-.501 2.197 14.12 14.12 0 01-.723 1.739l-4.408 8.655-3.059-1.556 3.902-7.659c.308-.606.578-1.256.81-1.949a6.816 6.816 0 00.327-2.068 3.959 3.959 0 00-.522-1.936c-.348-.6-.935-1.111-1.762-1.532a5.02 5.02 0 00-1.662-.518 3.603 3.603 0 00-1.696.227c-.567.208-1.115.583-1.645 1.125-.54.536-1.045 1.266-1.515 2.189l-1.516-1.66c.72-1.414 1.622-2.53 2.704-3.347 1.078-.808 2.266-1.263 3.566-1.365 1.299-.102 2.651.204 4.055.919zm-5.364-2.202l-2.292 4.501.361.183-5.643 11.078-3.044-1.549 7.934-15.578 2.684 1.365zm-13.524-7.337c1.823 1.094 3.066 2.388 3.73 3.882.664 1.493.686 3.048.066 4.665l-3.245-1.325a3.5 3.5 0 00-.168-2.612c-.408-.849-1.112-1.574-2.111-2.174-.907-.544-1.726-.784-2.458-.719-.74.059-1.305.412-1.694 1.059-.228.379-.319.74-.273 1.082.031.346.27.798.715 1.355.446.557 1.162 1.346 2.148 2.365 1.086 1.105 1.895 2.075 2.425 2.91.516.838.783 1.609.801 2.312.003.707-.215 1.426-.654 2.156-.545.907-1.261 1.553-2.148 1.939-.887.387-1.876.504-2.968.352-1.102-.158-2.24-.589-3.415-1.295-1.147-.688-2.061-1.483-2.742-2.382s-1.099-1.849-1.253-2.848c-.161-.99-.03-1.962.393-2.917l3.296 1.242c-.332.783-.337 1.554-.013 2.315.323.76.932 1.434 1.826 2.021.856.564 1.658.844 2.404.839.74.004 1.283-.281 1.628-.854.2-.333.268-.676.203-1.03-.074-.359-.347-.825-.821-1.399-.473-.574-1.209-1.361-2.206-2.363-1.064-1.079-1.846-2.039-2.347-2.881-.507-.833-.754-1.617-.74-2.351-.001-.731.229-1.48.69-2.248.89-1.48 2.129-2.316 3.717-2.508 1.58-.197 3.318.274 5.214 1.412zm-17.718-10.216l-13.231 19.191-2.787-1.919 13.232-19.19 2.786 1.918zm-16.775-11.879l-5.407 6.682a12.58 12.58 0 00-1.175 1.735 6.255 6.255 0 00-.759 1.967 3.79 3.79 0 00.108 2.003c.207.653.672 1.271 1.394 1.854.47.38.979.66 1.528.839a3.583 3.583 0 001.709.153c.589-.093 1.203-.346 1.842-.759.631-.419 1.273-1.032 1.924-1.837l1.138 1.939c-.997 1.233-2.107 2.133-3.329 2.7-1.229.575-2.49.777-3.782.607-1.292-.17-2.551-.75-3.777-1.74-.94-.76-1.607-1.549-2-2.366-.394-.817-.587-1.633-.581-2.447a6.85 6.85 0 01.374-2.341c.258-.748.574-1.43.946-2.044.373-.615.729-1.132 1.068-1.552l6.109-7.55 2.67 2.157zm9.556 7.721l-10.997 13.591-2.354-1.902 3.177-3.927-.315-.254 7.82-9.664 2.669 2.156zm-20.12-16.009l-7.261 17.117-2.502-2.324 5.616-12.857-12.423 6.532-2.502-2.325 16.558-8.479 2.514 2.336zm-15.367-14.881c1.184 1.272 1.947 2.647 2.291 4.125a8.055 8.055 0 01-.252 4.411c-.512 1.462-1.428 2.807-2.748 4.033-1.399 1.3-2.855 2.167-4.368 2.601-1.52.425-2.999.429-4.435.01-1.436-.418-2.735-1.252-3.896-2.5-1.213-1.303-1.942-2.696-2.186-4.178-.252-1.475-.03-2.955.666-4.441.688-1.494 1.843-2.907 3.465-4.237l2.305 2.477-.901.837c-1.472 1.397-2.306 2.703-2.503 3.917-.204 1.206.215 2.37 1.26 3.492 1.153 1.24 2.412 1.809 3.776 1.706 1.363-.103 2.784-.842 4.262-2.215 1.408-1.308 2.208-2.634 2.402-3.978.186-1.336-.268-2.593-1.364-3.77-.72-.775-1.515-1.281-2.385-1.518-.885-.239-1.803-.211-2.753.083l-1.49-3.146c1.61-.567 3.201-.639 4.775-.215 1.565.43 2.925 1.266 4.079 2.506zm-1.814 10.193l-1.933 1.796-8.502-9.136 1.933-1.796 8.502 9.136zM96.398 476.14c1.343 1.648 2.074 3.286 2.191 4.916.118 1.63-.39 3.101-1.52 4.411l-2.604-2.348c.567-.739.81-1.577.729-2.513-.096-.938-.513-1.858-1.249-2.762-.668-.819-1.357-1.323-2.067-1.51-.717-.196-1.368-.056-1.954.421-.343.279-.55.588-.624.926-.088.336-.017.841.213 1.517.23.675.637 1.659 1.218 2.953.647 1.408 1.078 2.595 1.294 3.56.2.964.19 1.779-.031 2.447-.237.666-.686 1.268-1.347 1.806-.82.668-1.714 1.033-2.679 1.095-.966.062-1.936-.163-2.912-.677-.983-.522-1.907-1.314-2.773-2.377-.845-1.037-1.436-2.094-1.77-3.171-.336-1.077-.406-2.112-.213-3.104.185-.986.639-1.856 1.36-2.61l2.679 2.286c-.578.624-.844 1.348-.798 2.173.046.825.39 1.666 1.032 2.521.614.822 1.273 1.357 1.977 1.605.695.255 1.302.171 1.82-.251a1.44 1.44 0 00.542-.899c.052-.363-.047-.895-.298-1.595-.25-.7-.675-1.691-1.273-2.971-.635-1.376-1.045-2.545-1.23-3.507-.194-.955-.16-1.776.102-2.463.246-.688.717-1.314 1.412-1.88 1.339-1.09 2.788-1.455 4.347-1.097 1.553.351 3.028 1.383 4.426 3.098zm-14.05-16.922c.825.76 1.538 1.576 2.137 2.448.6.872.993 1.754 1.18 2.647a3.86 3.86 0 01-.327 2.567c-.36.731-.83 1.33-1.412 1.796a89.36 89.36 0 01-2.044 1.538l-12.471 9.135-2.01-2.741 12.34-9.039c.566-.415 1.055-.78 1.466-1.094.405-.324.69-.674.857-1.049.31-.709.255-1.431-.165-2.167-.434-.739-1.055-1.521-1.862-2.348l2.311-1.693zm-4.844 18.356l-2.194 1.607-7.066-9.632 2.194-1.607 7.066 9.632zm-8.611-38.138l-9.43 5.455c-1.092.634-1.779 1.406-2.06 2.318-.29.918-.17 1.834.361 2.748.326.56.755.997 1.287 1.312.518.311 1.117.462 1.799.453.667-.013 1.383-.241 2.148-.685l.108 1.828c-1.053.636-2.117.954-3.19.953a5.717 5.717 0 01-2.985-.85c-.92-.552-1.673-1.332-2.259-2.339-.949-1.633-1.194-3.182-.734-4.646.459-1.465 1.5-2.668 3.125-3.611l10.13-5.861 1.7 2.925zm10.535 18.123l-15.12 8.776-1.513-2.603 4.368-2.535-.196-.336 10.752-6.241 1.709 2.939zm-5.272-9.068l-9.374 5.422c-1.101.639-1.802 1.42-2.102 2.343-.305.913-.187 1.837.356 2.77.537.923 1.288 1.485 2.253 1.686.96.192 1.954-.011 2.98-.606l-.082 1.919c-.99.574-2.01.848-3.061.822a5.942 5.942 0 01-2.957-.867c-.92-.551-1.678-1.34-2.274-2.367-.624-1.073-.927-2.12-.909-3.141a5.004 5.004 0 01.89-2.818c.579-.873 1.405-1.62 2.478-2.243l10.102-5.845 1.7 2.925zm-12.93-23.184c.76 1.563 1.088 3.101.984 4.615a8.051 8.051 0 01-1.531 4.144c-.917 1.249-2.186 2.267-3.807 3.054-1.718.834-3.364 1.237-4.938 1.21-1.578-.038-2.992-.467-4.243-1.287-1.251-.82-2.25-1.997-2.995-3.531-.778-1.601-1.068-3.146-.867-4.635.19-1.484.835-2.835 1.935-4.053 1.095-1.227 2.613-2.24 4.552-3.038l1.48 3.043-1.107.537c-1.816.906-2.995 1.91-3.538 3.014-.549 1.094-.488 2.33.182 3.708.741 1.524 1.779 2.436 3.113 2.736 1.334.3 2.908.009 4.724-.872 1.728-.839 2.88-1.873 3.46-3.102.568-1.224.501-2.558-.202-4.005-.462-.951-1.075-1.667-1.837-2.149-.776-.486-1.662-.728-2.657-.725l-.504-3.444c1.705-.072 3.248.324 4.628 1.19 1.371.87 2.427 2.066 3.168 3.59zm-4.716 9.218l-2.374 1.152-5.457-11.224 2.374-1.153 5.457 11.225zm-5.972-30.701l-8.002 3.138c-.633.248-1.26.558-1.88.928a6.25 6.25 0 00-1.631 1.336 3.789 3.789 0 00-.896 1.794c-.142.67-.044 1.437.295 2.301a4.81 4.81 0 00.914 1.485c.378.431.848.757 1.41.977.558.21 1.217.294 1.977.251.755-.053 1.616-.269 2.58-.647l.031 2.248c-1.477.579-2.886.813-4.229.702-1.352-.107-2.548-.554-3.587-1.34-1.04-.787-1.847-1.913-2.423-3.38-.441-1.125-.631-2.14-.57-3.045.062-.905.297-1.71.704-2.415a6.873 6.873 0 011.482-1.85 10.61 10.61 0 011.834-1.31 14.029 14.029 0 011.695-.822l9.042-3.545 1.254 3.194zm4.491 11.436l-16.276 6.382-1.106-2.817 4.702-1.844-.148-.377 11.574-4.538 1.254 3.194zm-11.123-29.026a14.49 14.49 0 011.295 2.979c.307 1.013.415 1.973.323 2.881a3.86 3.86 0 01-1.088 2.348c-.564.588-1.194 1.017-1.89 1.285a87.25 87.25 0 01-2.413.847l-14.65 4.935-1.087-3.221 14.497-4.883a92.368 92.368 0 001.728-.599c.484-.186.862-.433 1.134-.741.51-.582.677-1.287.5-2.115-.19-.836-.546-1.77-1.065-2.802l2.716-.914zm-10.173 16.032l-2.577.868-3.818-11.32 2.577-.868 3.818 11.32zm.27-50.243l-23.122 2.954-1.196-9.345a13.51 13.51 0 01-.075-.839 6.654 6.654 0 01-.024-.96c.039-1.31.34-2.437.905-3.379a6.238 6.238 0 012.305-2.269c.973-.56 2.08-.919 3.322-1.078 1.252-.16 2.42-.091 3.502.206a6.257 6.257 0 012.802 1.616c.784.771 1.36 1.785 1.727 3.044.081.294.155.611.22.951.064.329.11.6.137.814l.766 5.99 8.301-1.061.43 3.356zm-11.91-1.889l-.75-5.861a8.568 8.568 0 00-.123-.702 5.384 5.384 0 00-.209-.741c-.248-.664-.613-1.178-1.094-1.541a3.932 3.932 0 00-1.625-.706 5.428 5.428 0 00-3.388.433 3.781 3.781 0 00-1.378 1.09c-.386.473-.615 1.063-.688 1.769a4.14 4.14 0 00-.031.771c.01.259.03.496.058.71l.75 5.861 8.478-1.083zm8.965-23.653c.075 1.293-.1 2.389-.523 3.289-.434.901-1.032 1.6-1.792 2.098a5.31 5.31 0 01-2.58.814c-.883.052-1.668-.06-2.354-.333a4.5 4.5 0 01-1.777-1.292c-.51-.587-.936-1.319-1.279-2.196a24.85 24.85 0 01-.75-2.6c-.23-.97-.45-1.989-.664-3.058-.214-1.079-.427-2.148-.64-3.206l.75 1.189c-1.37.058-2.365.407-2.988 1.048-.633.632-.908 1.675-.823 3.129.053.916.317 1.744.792 2.484.465.74 1.196 1.233 2.194 1.478l-.787 3.207c-1.523-.344-2.76-1.094-3.714-2.249-.954-1.167-1.49-2.757-1.606-4.772-.09-1.562.1-2.935.572-4.119a5.028 5.028 0 012.373-2.699 5.295 5.295 0 011.78-.622 20.091 20.091 0 012.046-.216l10.747-.622.173 2.989-3.991.232.483-.612c1.378.644 2.428 1.508 3.15 2.59.71 1.072 1.113 2.422 1.208 4.049zm-2.798-.438c-.056-.959-.27-1.774-.645-2.444-.384-.669-.853-1.199-1.405-1.588-.553-.39-1.118-.633-1.696-.729a5.803 5.803 0 00-1.764-.206c-.648.005-1.166.019-1.554.041l.34-1.122c.224 1.057.426 2.018.605 2.884.18.865.356 1.649.526 2.353.16.693.34 1.309.545 1.849.189.454.407.857.654 1.211.247.342.538.612.874.808.335.186.734.266 1.197.239a2.467 2.467 0 001.241-.412c.364-.248.646-.611.845-1.087.2-.476.278-1.075.237-1.797zm1.196-23.226c.224 1.099.325 2.178.3 3.236-.024 1.058-.222 2.003-.593 2.837a3.86 3.86 0 01-1.766 1.892c-.72.383-1.452.594-2.197.632-.755.027-1.607.044-2.557.052l-15.459.119-.026-3.399 15.297-.118a91.6 91.6 0 001.829-.031c.518-.025.954-.142 1.308-.35.667-.393 1.045-1.011 1.135-1.854.08-.853.035-1.851-.136-2.993l2.865-.023zm-14.67 12.06l-2.72.021-.092-11.946 2.72-.021.092 11.946zm14.444-16.98l-17.466-.741.127-3.009 4.238.18-.568.397a6.398 6.398 0 01-1.5-.906 4.691 4.691 0 01-1.114-1.246 5.12 5.12 0 01-.682-1.503 6.456 6.456 0 01-.252-1.696 6.425 6.425 0 01.151-1.646l3.17.134c-.175.565-.245 1.2-.21 1.903a4.18 4.18 0 00.582 1.937 4.29 4.29 0 001.238 1.365 5.51 5.51 0 001.67.751 8.788 8.788 0 001.947.293l8.814.375-.145 3.412zm1.222-19.702c-.209 1.735-.78 3.194-1.716 4.375-.936 1.181-2.13 2.038-3.586 2.57-1.465.52-3.097.672-4.897.456-1.81-.218-3.36-.762-4.646-1.634-1.297-.873-2.25-1.992-2.857-3.359-.619-1.367-.825-2.903-.62-4.606.208-1.736.78-3.195 1.715-4.376.935-1.181 2.13-2.038 3.586-2.57 1.455-.532 3.077-.69 4.867-.475 1.81.217 3.365.762 4.662 1.635 1.288.861 2.246 1.976 2.875 3.345.618 1.367.824 2.913.617 4.639zm-3.167-.38c.2-1.661-.209-2.965-1.225-3.913-1.026-.96-2.423-1.546-4.191-1.759-1.81-.217-3.308.028-4.49.734-1.192.693-1.887 1.86-2.084 3.499-.135 1.125.011 2.083.438 2.873.416.789 1.053 1.415 1.91 1.876.847.46 1.86.761 3.039.903 1.821.218 3.329-.025 4.522-.729 1.193-.705 1.887-1.866 2.081-3.484zm5.96-24.814l-8.431-1.674a12.817 12.817 0 00-2.083-.232 6.254 6.254 0 00-2.096.245 3.798 3.798 0 00-1.722 1.027c-.482.488-.814 1.187-.995 2.097a4.789 4.789 0 00-.033 1.743c.086.567.305 1.094.66 1.583.355.478.865.903 1.528 1.277.665.363 1.505.645 2.522.847l-1.189 1.91c-1.556-.309-2.869-.872-3.938-1.69-1.08-.819-1.846-1.841-2.296-3.063-.45-1.223-.522-2.607-.214-4.152.235-1.186.624-2.143 1.165-2.871.54-.729 1.173-1.28 1.896-1.654a6.874 6.874 0 012.247-.758c.783-.12 1.533-.158 2.25-.115a14.21 14.21 0 011.871.223l9.527 1.891-.67 3.366zm-2.396 12.051L13.7 261.647l.59-2.969 4.954.984.079-.397 12.194 2.421-.67 3.366zm5.611-26.667c-.325 1.164-.785 2.089-1.38 2.775-.595.685-1.264 1.193-2.006 1.524-.75.318-1.52.506-2.31.566-.79.06-1.54.041-2.252-.057a14.135 14.135 0 01-1.848-.364l-9.356-2.61.924-3.305 8.28 2.309c.654.183 1.344.32 2.07.41a6.851 6.851 0 002.092-.089 3.96 3.96 0 001.796-.894c.52-.459.905-1.136 1.155-2.03a5.027 5.027 0 00.181-1.731 3.592 3.592 0 00-.556-1.617c-.316-.514-.792-.977-1.427-1.39-.633-.423-1.448-.774-2.446-1.052l1.33-1.814c1.528.427 2.8 1.089 3.814 1.989 1.005.896 1.685 1.971 2.04 3.224.357 1.253.323 2.639-.101 4.156zm1.102-5.692l-4.864-1.357-.11.39-11.974-3.34.919-3.29 16.84 4.698-.81 2.899zm4.473-14.402c-.71 2.004-1.731 3.48-3.063 4.428s-2.852 1.281-4.56.997l.653-3.444a3.505 3.505 0 002.527-.685c.75-.57 1.321-1.405 1.71-2.503.353-.997.425-1.847.217-2.551-.206-.713-.664-1.196-1.376-1.448-.418-.147-.79-.164-1.116-.051-.333.1-.728.424-1.185.972-.458.547-1.088 1.406-1.892 2.576-.867 1.284-1.657 2.27-2.37 2.956-.718.673-1.42 1.089-2.106 1.247-.693.144-1.44.074-2.244-.21-.997-.353-1.774-.925-2.329-1.717-.555-.791-.867-1.737-.935-2.837-.065-1.111.131-2.312.589-3.604.447-1.261 1.043-2.315 1.79-3.161.746-.847 1.593-1.445 2.542-1.797.939-.355 1.918-.42 2.938-.197l-.562 3.476c-.833-.169-1.59-.019-2.271.45-.681.469-1.22 1.199-1.618 2.192-.383.952-.498 1.793-.344 2.523.143.726.53 1.2 1.161 1.423.367.13.716.128 1.05-.006.337-.144.74-.505 1.208-1.084.468-.578 1.094-1.456 1.877-2.633.846-1.257 1.632-2.215 2.358-2.874.716-.663 1.435-1.061 2.158-1.195.716-.147 1.496-.071 2.34.227 1.628.576 2.694 1.623 3.199 3.14.508 1.508.392 3.304-.346 5.39zm6.549-19.508l-21.403-9.235 1.342-3.105 21.403 9.234-1.342 3.106zm8.336-18.647l-7.619-3.982a12.612 12.612 0 00-1.933-.809 6.243 6.243 0 00-2.08-.356 3.802 3.802 0 00-1.942.5c-.6.332-1.115.909-1.545 1.731a4.792 4.792 0 00-.524 1.663 3.57 3.57 0 00.186 1.704c.207.559.576 1.111 1.107 1.656.535.536 1.262 1.044 2.18 1.524l-1.678 1.497c-1.406-.735-2.507-1.646-3.303-2.731-.806-1.091-1.252-2.286-1.34-3.586-.086-1.3.236-2.647.966-4.043.56-1.071 1.203-1.88 1.928-2.427.725-.546 1.487-.897 2.286-1.051a6.886 6.886 0 012.37-.095c.785.106 1.516.281 2.192.525.676.244 1.254.49 1.732.74l8.608 4.499-1.592 3.041zm-5.699 10.885l-15.493-8.098 1.403-2.682 4.476 2.339.188-.358 11.018 5.759-1.592 3.04zm11.694-22.749l-18.218-3.76 1.792-2.908 13.714 2.984-8.84-10.894 1.793-2.908 11.56 14.564-1.8 2.922zm11.566-17.935c-1.017 1.409-2.217 2.426-3.601 3.051a8.065 8.065 0 01-4.378.614c-1.535-.215-3.033-.85-4.495-1.905-1.549-1.117-2.684-2.375-3.404-3.773-.715-1.407-1.007-2.855-.876-4.344.13-1.489.695-2.925 1.693-4.307 1.043-1.444 2.268-2.43 3.675-2.958 1.398-.535 2.894-.607 4.489-.215 1.6.382 3.211 1.239 4.834 2.568l-1.982 2.743-.997-.72c-1.658-1.169-3.102-1.732-4.332-1.688-1.224.036-2.285.675-3.182 1.917-.992 1.373-1.305 2.718-.937 4.034.367 1.316 1.369 2.565 3.005 3.745 1.558 1.124 3.016 1.65 4.373 1.577 1.348-.079 2.493-.77 3.434-2.073.62-.857.961-1.735 1.025-2.634.06-.914-.145-1.808-.62-2.682l2.797-2.075c.871 1.467 1.253 3.013 1.144 4.637-.118 1.619-.672 3.115-1.665 4.488zm-10.357.213l-2.14-1.543 7.308-10.117 2.14 1.543-7.308 10.117zm21.058-15.165c-1.355 1.638-2.821 2.674-4.398 3.107-1.577.433-3.12.222-4.626-.631l1.796-3.009a3.507 3.507 0 002.61.224c.901-.277 1.723-.865 2.466-1.763.674-.814 1.034-1.588 1.08-2.32.052-.741-.213-1.352-.795-1.833-.341-.282-.684-.425-1.03-.431-.347-.021-.83.148-1.447.505-.618.358-1.505.947-2.662 1.77-1.256.908-2.336 1.562-3.241 1.962-.907.385-1.71.534-2.408.447-.7-.103-1.378-.425-2.035-.968-.816-.674-1.348-1.478-1.598-2.412-.25-.934-.217-1.929.097-2.986.32-1.065.918-2.125 1.791-3.181.853-1.031 1.776-1.816 2.768-2.354.991-.539 1.993-.81 3.005-.814 1.003-.011 1.946.264 2.827.824l-1.722 3.071c-.724-.444-1.487-.564-2.288-.357-.8.206-1.558.707-2.273 1.502-.687.763-1.083 1.513-1.19 2.251-.114.731.086 1.31.602 1.736.3.247.629.365.988.354.367-.019.869-.22 1.507-.602.639-.383 1.528-.992 2.668-1.828 1.227-.89 2.294-1.52 3.202-1.889.9-.377 1.712-.504 2.437-.381.724.108 1.43.447 2.12 1.017 1.332 1.1 1.974 2.449 1.926 4.047-.041 1.59-.767 3.238-2.177 4.942zm13.826-17.034a14.462 14.462 0 01-1.985 2.572c-.739.758-1.528 1.315-2.369 1.673a3.863 3.863 0 01-2.582.181c-.788-.21-1.468-.554-2.04-1.033a90.905 90.905 0 01-1.907-1.704L76.722 109.6l2.298-2.505 11.282 10.331c.517.473.97.881 1.36 1.223.396.334.795.546 1.196.635.757.165 1.455-.029 2.095-.584.64-.57 1.287-1.331 1.94-2.284l2.114 1.935zm-18.962-1.165l-2.006-1.837 8.075-8.804 2.005 1.836-8.074 8.805zm35.626-15.797l-7.204-8.172c-.836-.946-1.729-1.467-2.679-1.564-.958-.105-1.833.192-2.625.892a3.573 3.573 0 00-1.035 1.518c-.203.568-.234 1.186-.092 1.852.144.65.508 1.307 1.094 1.97l-1.772.464c-.831-.908-1.352-1.888-1.562-2.94a5.7 5.7 0 01.249-3.091c.36-1.01.978-1.9 1.851-2.671 1.416-1.25 2.888-1.794 4.415-1.63 1.527.163 2.912.948 4.156 2.355l7.74 8.778-2.536 2.239zm-15.715 13.874l-11.58-13.097 2.257-1.993 3.346 3.784.29-.257 8.235 9.313-2.548 2.25zm7.864-6.942l-7.161-8.124c-.844-.954-1.748-1.487-2.712-1.6-.956-.12-1.839.176-2.648.89-.8.707-1.205 1.554-1.212 2.539 0 .978.394 1.912 1.18 2.801l-1.9.296c-.757-.857-1.227-1.803-1.407-2.839a5.936 5.936 0 01.27-3.067c.36-1.01.986-1.907 1.876-2.692.93-.822 1.898-1.324 2.903-1.506a5.017 5.017 0 012.94.32c.97.396 1.866 1.059 2.688 1.988l7.719 8.755-2.536 2.239zm20.187-17.208c-1.382 1.052-2.826 1.677-4.332 1.873a8.066 8.066 0 01-4.368-.684c-1.406-.652-2.655-1.695-3.747-3.128-1.158-1.52-1.879-3.053-2.162-4.6-.275-1.554-.134-3.024.424-4.411.558-1.387 1.515-2.597 2.872-3.63 1.417-1.078 2.875-1.665 4.375-1.763 1.494-.105 2.946.26 4.358 1.099 1.42.83 2.713 2.118 3.879 3.862l-2.692 2.049-.746-.979c-1.247-1.6-2.465-2.558-3.655-2.874-1.181-.321-2.382-.018-3.601.91-1.348 1.026-2.038 2.222-2.069 3.588-.031 1.366.565 2.852 1.788 4.457 1.165 1.527 2.406 2.454 3.726 2.779 1.313.316 2.609-.012 3.889-.986.841-.64 1.423-1.382 1.745-2.223.324-.857.386-1.772.187-2.746l3.279-1.173c.407 1.657.323 3.246-.253 4.77-.583 1.514-1.548 2.784-2.897 3.81zm-9.973-2.805l-1.599-2.099 9.932-7.557 1.599 2.098-9.932 7.558zm28.911-11.886l-4.67-7.216a12.636 12.636 0 00-1.284-1.657 6.255 6.255 0 00-1.634-1.334 3.802 3.802 0 00-1.937-.52c-.686-.007-1.419.241-2.198.745a4.782 4.782 0 00-1.274 1.19 3.56 3.56 0 00-.678 1.574c-.095.588-.046 1.25.148 1.986.202.73.585 1.53 1.148 2.4l-2.199.476c-.861-1.332-1.371-2.666-1.53-4.003-.164-1.346.037-2.606.601-3.78s1.508-2.189 2.831-3.044c1.015-.655 1.973-1.043 2.873-1.162.9-.119 1.736-.049 2.508.21a6.886 6.886 0 012.109 1.085c.631.479 1.181.991 1.65 1.536.468.546.849 1.045 1.142 1.498l5.277 8.154-2.883 1.862zm-10.319 6.668l-9.498-14.677 2.542-1.643 2.744 4.24.34-.22 6.754 10.438-2.882 1.862zm26.258-16.666a14.462 14.462 0 01-2.668 1.853c-.933.5-1.854.793-2.763.88a3.864 3.864 0 01-2.516-.605c-.689-.439-1.233-.972-1.633-1.601a89.663 89.663 0 01-1.305-2.2l-7.719-13.394 2.946-1.695 7.639 13.253c.35.608.659 1.134.927 1.577.277.438.594.76.949.966.671.386 1.396.412 2.174.076.782-.35 1.628-.881 2.539-1.592l1.43 2.482zm-17.726-6.832l-1.358-2.356 10.355-5.959 1.358 2.357-10.355 5.959zm41.836-6.459l-8.112-21.852 8.834-3.275c.212-.079.479-.166.8-.262.317-.106.627-.186.929-.24 1.286-.259 2.452-.22 3.498.118a6.251 6.251 0 012.732 1.732c.766.822 1.366 1.819 1.802 2.993.439 1.183.637 2.336.592 3.457a6.24 6.24 0 01-.94 3.094c-.573.937-1.431 1.727-2.574 2.37-.268.145-.561.288-.877.428-.306.137-.56.242-.763.317l-5.661 2.099 2.912 7.846-3.172 1.175zm-.856-12.026l5.54-2.053c.203-.076.422-.168.657-.278.245-.114.47-.238.674-.371.591-.392 1.009-.863 1.253-1.414a3.914 3.914 0 00.321-1.742 5.589 5.589 0 00-.339-1.704 5.447 5.447 0 00-.85-1.498 3.785 3.785 0 00-1.374-1.096c-.548-.269-1.175-.359-1.879-.27-.245.021-.498.07-.758.143-.25.07-.477.142-.679.217l-5.54 2.053 2.974 8.013zm24.884 3.424c-1.242.367-2.349.446-3.322.239-.976-.219-1.793-.641-2.451-1.268a5.329 5.329 0 01-1.381-2.327c-.251-.848-.321-1.638-.211-2.368a4.49 4.49 0 01.854-2.024c.455-.63 1.071-1.211 1.847-1.744a24.86 24.86 0 012.361-1.322c.892-.444 1.835-.89 2.827-1.341a979.24 979.24 0 002.976-1.352l-.987 1c-.368-1.32-.935-2.21-1.701-2.67-.759-.474-1.837-.504-3.234-.092a5.06 5.06 0 00-2.239 1.337c-.615.62-.928 1.444-.94 2.472l-3.302-.038c-.012-1.56.437-2.936 1.345-4.127.918-1.194 2.345-2.077 4.281-2.649 1.5-.443 2.881-.57 4.141-.379a5.033 5.033 0 013.169 1.697c.432.47.769 1 1.011 1.592a20.2 20.2 0 01.677 1.944l3.053 10.323-2.872.848-1.134-3.834.706.331c-.314 1.488-.916 2.707-1.806 3.656-.882.936-2.105 1.634-3.668 2.096zm-.21-2.824c.921-.272 1.665-.666 2.233-1.183.564-.526.973-1.103 1.227-1.73.253-.626.361-1.231.323-1.816a5.798 5.798 0 00-.201-1.764 32.21 32.21 0 00-.394-1.504l1.171.076c-.979.458-1.869.873-2.671 1.245-.801.372-1.525.72-2.172 1.046-.639.313-1.198.63-1.677.951-.399.287-.742.59-1.03.912a2.853 2.853 0 00-.588 1.035c-.105.368-.092.775.04 1.22.128.435.356.806.684 1.114.324.299.741.49 1.251.576.509.086 1.11.027 1.804-.178zm23.147-4.187a14.49 14.49 0 01-3.085 1.019c-1.037.214-2.003.233-2.899.059a3.862 3.862 0 01-2.24-1.297 5.22 5.22 0 01-1.11-1.998 90.165 90.165 0 01-.625-2.48l-3.591-15.037 3.307-.788 3.553 14.879c.163.682.31 1.274.44 1.775.142.499.353.898.636 1.197.533.56 1.22.79 2.062.69.849-.114 1.811-.383 2.886-.806l.666 2.787zm-15.05-11.588l-.631-2.645 11.62-2.771.632 2.645-11.621 2.771zm18.439 10.554l-3.278-17.173 2.958-.563.795 4.166-.517-.462a6.438 6.438 0 01.539-1.669 4.7 4.7 0 01.958-1.369c.374-.4.81-.736 1.307-1.007a6.476 6.476 0 011.593-.633c.554-.15 1.1-.226 1.638-.23l.594 3.117c-.59-.041-1.223.035-1.9.23-.666.193-1.25.53-1.752 1.01a4.29 4.29 0 00-1.045 1.517 5.47 5.47 0 00-.349 1.797c-.023.63.031 1.285.16 1.963l1.654 8.666-3.355.64zm19.37-3.323c-1.737.195-3.288-.028-4.652-.667-1.364-.64-2.472-1.607-3.323-2.902-.842-1.306-1.364-2.86-1.566-4.662-.204-1.812-.029-3.444.525-4.896.552-1.463 1.423-2.647 2.614-3.552 1.19-.915 2.637-1.468 4.342-1.66 1.737-.194 3.288.028 4.652.668 1.365.64 2.472 1.607 3.324 2.901.851 1.295 1.377 2.837 1.578 4.628.204 1.813.029 3.45-.523 4.913-.543 1.451-1.408 2.64-2.597 3.566-1.189.915-2.647 1.47-4.374 1.663zm-.356-3.169c1.662-.186 2.838-.883 3.528-2.09.7-1.218.95-2.713.751-4.482-.204-1.813-.784-3.213-1.743-4.203-.948-1-2.243-1.41-3.884-1.225-1.126.126-2.025.487-2.696 1.084-.673.586-1.135 1.349-1.388 2.29-.254.93-.315 1.984-.182 3.164.205 1.823.787 3.234 1.746 4.234s2.249 1.41 3.868 1.228zm25.72.082l-.299-8.59a12.668 12.668 0 00-.251-2.081 6.259 6.259 0 00-.717-1.984 3.8 3.8 0 00-1.394-1.442c-.585-.357-1.341-.52-2.268-.488a4.797 4.797 0 00-1.705.367 3.573 3.573 0 00-1.39 1.004c-.384.456-.682 1.05-.894 1.78-.201.73-.284 1.614-.248 2.65l-2.13-.72c-.056-1.586.192-2.993.744-4.221.55-1.24 1.369-2.218 2.457-2.936 1.087-.719 2.418-1.105 3.992-1.16 1.208-.042 2.229.117 3.062.477.833.36 1.514.85 2.043 1.468.54.607.957 1.279 1.253 2.014.295.734.504 1.456.626 2.164.122.709.192 1.333.211 1.872l.337 9.707-3.429.119zm-12.279.426l-.608-17.472 3.025-.105.176 5.047.404-.014.432 12.425-3.429.12zm27.704-.683c-1.208-.052-2.213-.289-3.016-.712-.803-.423-1.45-.958-1.941-1.605a7.292 7.292 0 01-1.076-2.12 10.648 10.648 0 01-.458-2.207 14.402 14.402 0 01-.066-1.882l.412-9.704 3.429.146-.365 8.588c-.028.68-.004 1.382.073 2.11a6.85 6.85 0 00.562 2.016 3.973 3.973 0 001.28 1.545c.566.402 1.313.623 2.24.662a5.022 5.022 0 001.726-.218 3.6 3.6 0 001.449-.91c.428-.425.771-.994 1.028-1.707.268-.712.424-1.586.468-2.62l2.069.881c-.068 1.585-.424 2.974-1.068 4.167-.645 1.183-1.536 2.09-2.676 2.722-1.139.632-2.496.915-4.07.848zm5.793-.224l.215-5.046-.405-.017.528-12.421 3.412.145-.741 17.467-3.009-.128zm15.499 1.046c-2.113-.237-3.782-.897-5.007-1.979-1.225-1.082-1.893-2.487-2.003-4.215l3.503-.145a3.502 3.502 0 001.239 2.306c.725.602 1.667.968 2.825 1.098 1.051.119 1.896-.004 2.534-.367.648-.361 1.015-.917 1.099-1.668.05-.44-.018-.806-.202-1.098-.173-.302-.578-.613-1.215-.934-.637-.322-1.616-.741-2.937-1.258-1.448-.554-2.586-1.1-3.416-1.638-.818-.548-1.382-1.138-1.691-1.77-.297-.642-.398-1.386-.303-2.233.118-1.051.5-1.937 1.145-2.657.646-.72 1.497-1.238 2.553-1.554 1.067-.315 2.281-.396 3.643-.243 1.33.15 2.492.492 3.485 1.027.993.535 1.768 1.224 2.325 2.069.558.833.844 1.772.857 2.816l-3.513.241c-.024-.85-.342-1.553-.952-2.11-.611-.558-1.445-.917-2.502-1.08-1.014-.157-1.859-.078-2.535.237-.675.305-1.05.79-1.124 1.454-.044.386.038.727.243 1.021.217.296.66.606 1.329.931.67.325 1.666.736 2.99 1.232 1.416.539 2.527 1.087 3.333 1.645.808.546 1.358 1.156 1.652 1.83.305.664.408 1.441.308 2.331-.192 1.716-.971 2.992-2.335 3.827-1.354.836-3.13 1.13-5.328.884zm20.84 1.969l4.107-22.946 3.331.595-4.107 22.946-3.331-.596zm19.776 3.744l2.155-8.32c.171-.659.288-1.348.351-2.067a6.258 6.258 0 00-.123-2.105 3.795 3.795 0 00-.928-1.778c-.459-.51-1.137-.88-2.036-1.112a4.788 4.788 0 00-1.738-.132 3.578 3.578 0 00-1.619.568c-.497.328-.952.813-1.363 1.453-.401.643-.731 1.466-.99 2.47l-1.839-1.295c.398-1.536 1.036-2.815 1.913-3.836.881-1.032 1.944-1.738 3.191-2.118 1.246-.38 2.632-.372 4.158.022 1.17.303 2.103.745 2.8 1.326.696.582 1.211 1.244 1.542 1.988.344.735.554 1.497.629 2.286.074.788.069 1.54-.016 2.253a14.073 14.073 0 01-.329 1.854l-2.435 9.402-3.323-.859zm-11.895-3.076l4.383-16.924 2.931.758L353.569 22l.392.101-3.117 12.035-3.323-.86zm24.547 6.095l-.495-18.589 3.241 1.078.223 14.03 8.593-11.097 3.241 1.078-11.546 14.584-3.257-1.084zm20.761 7.363c-1.603-.67-2.866-1.608-3.788-2.812a8.053 8.053 0 01-1.591-4.122c-.137-1.543.142-3.146.838-4.808.738-1.762 1.707-3.153 2.906-4.172 1.209-1.015 2.554-1.628 4.035-1.84 1.48-.21 3.007.013 4.58.671 1.643.687 2.881 1.655 3.715 2.905.838 1.24 1.247 2.68 1.227 4.32-.011 1.645-.48 3.408-1.409 5.29l-3.121-1.306.476-1.135c.764-1.88.985-3.413.663-4.6-.312-1.183-1.174-2.07-2.588-2.662-1.563-.654-2.944-.652-4.144.004-1.199.657-2.188 1.916-2.968 3.777-.742 1.772-.924 3.31-.546 4.614.382 1.295 1.314 2.252 2.798 2.873.975.408 1.908.54 2.799.398.904-.148 1.729-.552 2.473-1.211l2.655 2.25c-1.232 1.182-2.652 1.904-4.26 2.167-1.603.253-3.187.053-4.75-.6zm-2.554-10.034l1.02-2.434 11.514 4.816-1.02 2.434-11.514-4.816zm19.09 16.8c-1.902-.95-3.242-2.143-4.019-3.58-.777-1.438-.92-2.987-.428-4.647l3.338 1.07a3.501 3.501 0 00.37 2.59c.473.816 1.231 1.484 2.274 2.005.946.472 1.781.648 2.505.527.734-.116 1.27-.512 1.608-1.188.197-.395.26-.762.188-1.1-.058-.342-.331-.774-.819-1.295-.487-.52-1.262-1.252-2.324-2.192-1.168-1.017-2.049-1.922-2.643-2.713-.58-.796-.905-1.544-.978-2.243-.058-.705.104-1.438.485-2.2.473-.947 1.137-1.646 1.991-2.1.855-.454 1.832-.648 2.933-.58 1.11.071 2.278.413 3.504 1.026 1.198.598 2.17 1.318 2.919 2.163.748.844 1.238 1.758 1.47 2.742.236.974.181 1.954-.167 2.938l-3.381-.982c.27-.806.215-1.576-.167-2.31-.381-.732-1.04-1.357-1.977-1.873-.898-.496-1.718-.713-2.462-.65-.738.053-1.257.38-1.556.978a1.439 1.439 0 00-.123 1.042c.101.352.41.796.926 1.331.517.535 1.311 1.264 2.383 2.185 1.144.993 1.999 1.89 2.563 2.691.57.791.877 1.553.92 2.287.058.728-.113 1.493-.514 2.294-.772 1.545-1.943 2.474-3.511 2.788-1.56.32-3.329-.015-5.308-1.004zm19.896 9.664a14.481 14.481 0 01-2.953-1.355c-.905-.55-1.625-1.193-2.162-1.93a3.856 3.856 0 01-.757-2.474c.028-.815.211-1.555.55-2.218.353-.668.764-1.415 1.232-2.242l7.621-13.45 2.959 1.674-7.541 13.31c-.346.61-.642 1.143-.888 1.599-.236.461-.353.897-.35 1.308.008.773.355 1.41 1.039 1.909.7.495 1.587.953 2.663 1.376l-1.413 2.492zm-3.12-18.728l1.341-2.366 10.397 5.883-1.34 2.366-10.398-5.883zm23.457 31.072l6.36-8.845c.735-1.026 1.044-2.012.926-2.96-.111-.955-.597-1.74-1.457-2.356a3.581 3.581 0 00-1.712-.668c-.6-.071-1.208.037-1.826.325-.603.285-1.162.787-1.678 1.506l-.848-1.622c.699-1.013 1.538-1.74 2.518-2.18a5.715 5.715 0 013.071-.449c1.065.125 2.071.527 3.019 1.206 1.536 1.099 2.395 2.41 2.577 3.935.182 1.523-.274 3.049-1.368 4.575l-6.831 9.502-2.751-1.969zm-17.046-12.2l10.185-14.21 2.448 1.752-2.942 4.105.316.226-7.243 10.104-2.764-1.978zm8.529 6.105l6.323-8.792c.741-1.035 1.06-2.035.955-3-.097-.957-.584-1.75-1.462-2.379-.868-.622-1.784-.826-2.747-.613-.954.22-1.777.812-2.468 1.777l-.713-1.784c.666-.93 1.484-1.599 2.454-2.006a5.946 5.946 0 013.052-.424c1.065.126 2.08.534 3.045 1.225 1.01.722 1.715 1.553 2.118 2.491.409.93.525 1.909.346 2.935-.17 1.033-.616 2.054-1.339 3.063l-6.813 9.477-2.751-1.97zm21.562 15.94c-1.335-1.111-2.267-2.378-2.795-3.8a8.055 8.055 0 01-.31-4.407c.322-1.516 1.06-2.966 2.214-4.35 1.223-1.467 2.557-2.512 4.003-3.134 1.454-.615 2.92-.806 4.397-.573 1.478.233 2.872.895 4.183 1.986 1.368 1.139 2.268 2.428 2.698 3.867.437 1.431.404 2.928-.097 4.49-.493 1.57-1.46 3.117-2.9 4.642l-2.6-2.164.788-.946c1.282-1.572 1.944-2.972 1.985-4.202.05-1.222-.514-2.324-1.692-3.304-1.302-1.084-2.623-1.488-3.963-1.213-1.339.275-2.655 1.188-3.947 2.738-1.23 1.476-1.856 2.892-1.878 4.25-.015 1.35.596 2.539 1.832 3.567.813.677 1.666 1.078 2.558 1.203.909.124 1.815-.02 2.721-.431l1.876 2.93c-1.524.768-3.093 1.041-4.708.82-1.607-.228-3.062-.885-4.365-1.969zm.507-10.34l1.689-2.027 9.593 7.984-1.69 2.027-9.592-7.984zm18.108 25.478l5.991-6.164c.474-.487.916-1.027 1.328-1.62a6.258 6.258 0 00.934-1.891c.204-.66.229-1.327.074-2.004-.147-.67-.554-1.327-1.22-1.973a4.78 4.78 0 00-1.445-.975 3.581 3.581 0 00-1.688-.307c-.595.039-1.23.235-1.904.588-.667.36-1.361.913-2.083 1.655l-.957-2.034c1.105-1.138 2.292-1.933 3.561-2.386 1.276-.461 2.549-.548 3.821-.262 1.271.287 2.472.979 3.603 2.076.867.842 1.46 1.688 1.778 2.538.317.85.436 1.68.356 2.49a6.85 6.85 0 01-.585 2.296 10.593 10.593 0 01-1.128 1.95 14.145 14.145 0 01-1.204 1.449l-6.77 6.964-2.462-2.39zm-8.817-8.557L484.627 79.4l2.172 2.108-3.52 3.621.29.282-8.665 8.915-2.463-2.39zm22.155 21.811a14.508 14.508 0 01-2.407-2.182c-.697-.797-1.19-1.628-1.479-2.493a3.861 3.861 0 01.025-2.587c.273-.768.671-1.418 1.194-1.949a89.5 89.5 0 011.852-1.764l11.324-10.523 2.316 2.489-11.206 10.412c-.514.478-.957.897-1.329 1.257-.365.369-.608.749-.729 1.142-.226.739-.087 1.451.415 2.133.518.683 1.225 1.388 2.123 2.115l-2.099 1.95zm2.677-18.794l1.992-1.851 8.138 8.745-1.992 1.851-8.138-8.745zm15.332 38.622l19.438-12.865 5.205 7.853c.125.188.271.428.438.719.176.285.325.568.447.85.544 1.192.772 2.336.682 3.431a6.238 6.238 0 01-1.065 3.053c-.625.932-1.46 1.743-2.504 2.434-1.052.697-2.13 1.151-3.232 1.363a6.26 6.26 0 01-3.229-.212c-1.044-.344-2.009-1-2.895-1.966-.203-.228-.409-.48-.618-.756a13.02 13.02 0 01-.483-.67l-3.336-5.033-6.979 4.619-1.869-2.82zm11.521-3.568l3.264 4.925c.119.18.259.372.421.576.167.213.338.403.514.571.517.487 1.071.786 1.664.899a3.93 3.93 0 001.77-.085 5.566 5.566 0 001.583-.717 5.445 5.445 0 001.265-1.168c.376-.468.627-.997.754-1.586.137-.595.082-1.225-.165-1.89a4.129 4.129 0 00-.312-.706 8.275 8.275 0 00-.367-.611l-3.264-4.925-7.127 4.717zm2.912 25.829c-.638-1.127-.966-2.187-.984-3.182-.008-.999.219-1.89.681-2.673a5.317 5.317 0 011.955-1.868c.771-.436 1.524-.682 2.261-.74a4.493 4.493 0 012.165.375c.717.301 1.422.77 2.118 1.406a25 25 0 011.822 2c.634.77 1.283 1.587 1.946 2.451a1253.9 1253.9 0 001.991 2.594l-1.198-.736c1.203-.656 1.942-1.409 2.217-2.259.29-.846.076-1.902-.642-3.17a5.054 5.054 0 00-1.809-1.878c-.744-.46-1.617-.579-2.621-.358l-.711-3.225c1.519-.363 2.961-.237 4.327.379 1.371.625 2.554 1.816 3.549 3.572.771 1.361 1.207 2.677 1.306 3.948a5.021 5.021 0 01-.937 3.468c-.359.526-.8.974-1.322 1.344-.523.37-1.103.735-1.742 1.096l-9.369 5.301-1.476-2.605 3.48-1.969-.164.762c-1.521.03-2.845-.282-3.971-.934-1.111-.648-2.069-1.681-2.872-3.099zm2.705-.842c.473.836 1.026 1.472 1.657 1.908.641.431 1.296.699 1.963.805.668.106 1.283.074 1.844-.095a5.794 5.794 0 001.674-.593 33.63 33.63 0 001.376-.723l.19 1.157c-.667-.85-1.273-1.623-1.816-2.32a76.6 76.6 0 00-1.511-1.879 14.328 14.328 0 00-1.307-1.419 6.334 6.334 0 00-1.121-.797 2.856 2.856 0 00-1.142-.34c-.382-.019-.776.086-1.18.314a2.457 2.457 0 00-.931.918c-.217.383-.31.832-.278 1.347.031.516.225 1.088.582 1.717zm9.314 21.54a14.52 14.52 0 01-1.695-2.773c-.444-.96-.682-1.897-.716-2.808a3.855 3.855 0 01.753-2.475 5.208 5.208 0 011.695-1.534 92.76 92.76 0 012.273-1.172l13.831-6.906 1.52 3.041-13.686 6.834c-.627.313-1.17.59-1.629.831-.454.251-.794.547-1.021.89-.425.646-.492 1.368-.203 2.164.304.801.785 1.677 1.441 2.628l-2.563 1.28zm7.865-17.28l2.433-1.215 5.343 10.685-2.433 1.215-5.343-10.685zm-6.502 19.411l15.973-7.106 1.226 2.751-3.876 1.723.332-.608a6.421 6.421 0 011.748.144 4.719 4.719 0 011.552.621c.476.272.902.62 1.28 1.043.391.428.718.897.981 1.406.272.505.471 1.019.598 1.541l-2.899 1.29c-.095-.584-.315-1.184-.659-1.798a4.19 4.19 0 00-1.384-1.475 4.286 4.286 0 00-1.717-.671 5.499 5.499 0 00-1.829.069 8.79 8.79 0 00-1.876.604l-8.06 3.586-1.39-3.12zm8.01 18.791c-.583-1.648-.718-3.209-.404-4.682.314-1.473 1.005-2.771 2.073-3.893 1.081-1.115 2.477-1.975 4.186-2.579 1.72-.608 3.349-.807 4.89-.596 1.55.207 2.9.788 4.052 1.743 1.161.952 2.028 2.236 2.601 3.853.584 1.648.718 3.209.405 4.682-.314 1.473-1.005 2.771-2.074 3.893-1.068 1.121-2.451 1.983-4.15 2.584-1.72.608-3.354.808-4.905.601-1.536-.2-2.89-.775-4.062-1.723-1.161-.951-2.032-2.246-2.612-3.883zm3.007-1.064c.558 1.577 1.503 2.565 2.835 2.964 1.346.405 2.858.311 4.537-.283 1.719-.608 2.952-1.49 3.699-2.647.76-1.151.865-2.504.313-4.06-.378-1.068-.934-1.862-1.667-2.381-.723-.523-1.572-.801-2.545-.834-.963-.037-2.005.142-3.124.538-1.729.612-2.973 1.498-3.729 2.659-.757 1.16-.863 2.508-.319 4.044zm5.457 23.901l8.296-2.246a12.652 12.652 0 001.969-.718 6.235 6.235 0 001.768-1.15 3.797 3.797 0 001.086-1.686c.215-.65.201-1.424-.042-2.319a4.783 4.783 0 00-.746-1.576 3.573 3.573 0 00-1.295-1.125c-.531-.27-1.177-.425-1.937-.465-.757-.03-1.636.091-2.636.362l.215-2.239c1.531-.414 2.958-.493 4.28-.236 1.332.254 2.472.828 3.419 1.723.947.895 1.627 2.103 2.04 3.624.316 1.167.394 2.196.234 3.089-.161.894-.482 1.668-.964 2.324a6.847 6.847 0 01-1.675 1.678c-.648.455-1.303.822-1.965 1.102-.662.28-1.253.491-1.774.632l-9.375 2.538-.898-3.312zm-3.216-11.858l16.875-4.569.792 2.921-4.875 1.32.106.391-12 3.249-.898-3.312zm7.262 27.796c-.222-1.188-.217-2.221.014-3.098.231-.878.607-1.629 1.127-2.253a7.28 7.28 0 011.823-1.525 10.582 10.582 0 012.047-.942 13.936 13.936 0 011.819-.488l9.547-1.782.631 3.373-8.45 1.577c-.668.125-1.348.307-2.039.546a6.844 6.844 0 00-1.838 1.001 3.971 3.971 0 00-1.217 1.594c-.264.642-.311 1.42-.141 2.332a5.03 5.03 0 00.602 1.633c.301.493.705.895 1.214 1.206.51.322 1.141.528 1.894.618.754.101 1.64.056 2.659-.134l-.393 2.214c-1.56.291-2.993.257-4.301-.103-1.297-.361-2.382-1.026-3.255-1.994-.872-.968-1.453-2.226-1.743-3.775zm1.523 5.594l4.965-.926-.074-.398 12.221-2.281.627 3.358-17.185 3.207-.554-2.96zm2.467 15.279c-.245-2.112.021-3.887.799-5.324.778-1.438 1.997-2.405 3.655-2.901l.931 3.379a3.506 3.506 0 00-1.967 1.727c-.423.843-.568 1.843-.433 3 .122 1.051.432 1.846.929 2.386.499.55 1.123.782 1.873.695.44-.051.781-.199 1.024-.445.255-.236.467-.7.637-1.394.169-.693.357-1.741.563-3.145.213-1.535.488-2.767.825-3.697.349-.921.797-1.603 1.343-2.046.558-.435 1.26-.701 2.107-.799 1.051-.122 2 .05 2.847.517s1.544 1.179 2.09 2.137c.547.968.9 2.133 1.058 3.495.154 1.329.083 2.538-.214 3.626s-.794 1.999-1.491 2.731c-.687.732-1.537 1.222-2.551 1.47l-1.027-3.368c.822-.215 1.436-.683 1.841-1.404.405-.72.568-1.614.487-2.68-.075-1.023-.343-1.829-.802-2.416-.449-.589-1.006-.845-1.67-.768a1.444 1.444 0 00-.94.468c-.239.277-.442.779-.607 1.504-.166.726-.341 1.789-.526 3.19-.206 1.501-.489 2.708-.85 3.619-.351.909-.821 1.583-1.411 2.021-.579.448-1.312.723-2.202.826-1.715.199-3.134-.272-4.255-1.413-1.12-1.13-1.808-2.794-2.063-4.991zm2.679 19.31l23.276-1.258.183 3.379-23.276 1.257-.183-3.378zm.918 22.497l8.593.232a12.78 12.78 0 002.092-.122 6.252 6.252 0 002.024-.593 3.8 3.8 0 001.525-1.303c.393-.562.602-1.306.627-2.234a4.764 4.764 0 00-.261-1.724 3.573 3.573 0 00-.916-1.449c-.431-.411-1.005-.745-1.722-1.002-.716-.246-1.593-.383-2.628-.411l.85-2.082c1.585.042 2.974.377 4.167 1.003 1.203.626 2.129 1.504 2.778 2.633.65 1.13.953 2.482.911 4.057-.033 1.208-.255 2.217-.665 3.026-.411.81-.941 1.459-1.591 1.949a6.902 6.902 0 01-2.087 1.126c-.752.25-1.485.413-2.2.491-.714.078-1.341.11-1.881.095l-9.709-.262.093-3.43zm.333-12.282l17.476.471-.082 3.026-5.049-.136-.011.405-12.427-.336.093-3.43zm-.383 24.445l17.995-4.705-.316 3.401-13.615 3.404 12.755 5.848-.316 3.401-16.821-7.932.318-3.417zm-2.382 21.473c.286-1.714.91-3.158 1.873-4.332a8.056 8.056 0 013.65-2.493c1.471-.487 3.095-.583 4.873-.286 1.884.315 3.459.939 4.725 1.872 1.265.944 2.169 2.113 2.713 3.505.544 1.393.675 2.93.394 4.612-.293 1.756-.953 3.184-1.979 4.281-1.016 1.1-2.324 1.828-3.927 2.184-1.604.367-3.428.314-5.471-.158l.558-3.337 1.213.203c2.005.312 3.548.176 4.631-.409 1.081-.575 1.747-1.618 2-3.129.279-1.671-.037-3.015-.951-4.032-.913-1.017-2.365-1.691-4.355-2.023-1.895-.317-3.434-.141-4.618.525-1.173.669-1.892 1.796-2.157 3.382-.175 1.043-.091 1.982.251 2.816.351.846.933 1.556 1.745 2.129l-1.585 3.1c-1.431-.929-2.459-2.145-3.083-3.649-.613-1.503-.78-3.09-.5-4.761zm9.186-4.785l2.603.434-2.058 12.31-2.603-.435 2.058-12.309zm-12.113 23.131c.494-2.067 1.353-3.643 2.577-4.727 1.224-1.084 2.701-1.575 4.43-1.473l-.285 3.493a3.51 3.51 0 00-2.441.949c-.686.646-1.165 1.536-1.436 2.67-.246 1.028-.227 1.881.055 2.559.279.688.786 1.119 1.521 1.294.431.103.802.081 1.115-.067.32-.134.679-.498 1.076-1.091s.933-1.514 1.608-2.762c.726-1.369 1.407-2.432 2.043-3.19.644-.745 1.299-1.233 1.964-1.462.673-.217 1.424-.227 2.253-.029 1.029.245 1.861.732 2.497 1.461.636.728 1.047 1.636 1.231 2.723.182 1.097.113 2.312-.205 3.645-.311 1.302-.793 2.413-1.445 3.333-.653.921-1.432 1.606-2.338 2.056-.896.452-1.863.621-2.901.506l.191-3.516c.846.08 1.583-.149 2.211-.687.628-.538 1.087-1.322 1.377-2.351.28-.987.305-1.835.075-2.545-.219-.707-.654-1.138-1.305-1.293a1.444 1.444 0 00-1.043.117c-.321.179-.683.581-1.087 1.206-.405.624-.934 1.563-1.588 2.816-.708 1.34-1.389 2.376-2.041 3.108-.641.735-1.314 1.207-2.019 1.416-.696.222-1.48.229-2.351.022-1.68-.401-2.851-1.329-3.513-2.785-.664-1.445-.739-3.244-.226-5.396zm-5.083 22.224c.106-1.116.324-2.177.655-3.182s.795-1.852 1.393-2.542a3.868 3.868 0 012.24-1.297c.801-.157 1.563-.146 2.286.034.731.193 1.552.425 2.462.693l14.826 4.379-.964 3.26-14.671-4.333a84.722 84.722 0 00-1.758-.502c-.503-.126-.955-.142-1.354-.046-.752.183-1.294.665-1.626 1.444-.325.793-.572 1.761-.741 2.904l-2.748-.812zm17.547-7.274l2.608.77-3.388 11.456-2.608-.77 3.388-11.456zm-24.633 28.89l10.06 4.181c1.167.483 2.198.56 3.094.23.906-.326 1.562-.977 1.966-1.954a3.58 3.58 0 00.263-1.819c-.066-.6-.31-1.168-.73-1.704-.415-.522-1.031-.952-1.848-1.29l1.388-1.195c1.145.451 2.043 1.103 2.694 1.956a5.703 5.703 0 011.134 2.887c.119 1.065-.044 2.137-.49 3.213-.724 1.745-1.807 2.879-3.251 3.403-1.443.523-3.033.426-4.768-.292l-10.807-4.491 1.295-3.125zm8.027-19.365l16.153 6.686-1.153 2.781-4.666-1.931-.149.358-11.487-4.754 1.302-3.14zm-4.017 9.69l10 4.156c1.177.487 2.223.57 3.139.248.912-.311 1.575-.966 1.988-1.963.409-.987.401-1.924-.025-2.813-.431-.879-1.194-1.545-2.291-1.999l1.577-1.099c1.057.437 1.894 1.081 2.511 1.932a5.935 5.935 0 011.104 2.875c.119 1.065-.049 2.146-.503 3.243-.475 1.146-1.125 2.022-1.948 2.627a5.01 5.01 0 01-2.781 1.004c-1.046.07-2.142-.133-3.288-.607l-10.778-4.479 1.295-3.125zm-10.854 25.082c.783-1.552 1.809-2.745 3.076-3.58a8.066 8.066 0 014.227-1.296c1.549-.029 3.129.362 4.738 1.173 1.706.86 3.025 1.923 3.957 3.191.927 1.276 1.443 2.66 1.549 4.152.105 1.491-.226 2.998-.994 4.52-.803 1.59-1.857 2.756-3.163 3.5-1.296.748-2.763 1.055-4.399.919-1.64-.126-3.366-.718-5.178-1.776l1.525-3.02 1.098.554c1.822.893 3.336 1.222 4.544.984 1.203-.227 2.15-1.025 2.84-2.393.763-1.513.86-2.89.29-4.132-.57-1.242-1.756-2.317-3.558-3.225-1.715-.865-3.237-1.154-4.566-.869-1.319.29-2.34 1.153-3.065 2.588-.476.944-.675 1.865-.596 2.763.083.912.428 1.763 1.033 2.551l-2.435 2.489c-1.091-1.311-1.711-2.778-1.859-4.399-.139-1.617.173-3.182.936-4.694zm10.195-1.842l2.356 1.188-5.623 11.142-2.356-1.188 5.623-11.142zm-20.921 23.642l7.354 4.451c.581.352 1.208.662 1.879.929a6.268 6.268 0 002.052.486 3.8 3.8 0 001.971-.378c.62-.294 1.17-.837 1.651-1.631a4.79 4.79 0 00.626-1.626 3.566 3.566 0 00-.078-1.713c-.172-.571-.505-1.145-1.001-1.722-.501-.568-1.195-1.121-2.081-1.657l1.77-1.389c1.357.822 2.398 1.799 3.125 2.932.735 1.139 1.106 2.36 1.111 3.663.006 1.302-.4 2.627-1.217 3.975-.626 1.033-1.318 1.8-2.076 2.3-.757.501-1.54.803-2.348.907a6.88 6.88 0 01-2.371-.054 10.639 10.639 0 01-2.155-.661 14.138 14.138 0 01-1.682-.848l-8.308-5.029 1.778-2.935zm6.369-10.507l14.956 9.053-1.569 2.589-4.32-2.615-.21.346-10.636-6.438 1.779-2.935zm-15.35 25.024c.436-1.034.962-1.98 1.58-2.839.618-.859 1.315-1.528 2.093-2.007a3.87 3.87 0 012.526-.564c.811.09 1.535.33 2.171.719.639.403 1.352.87 2.14 1.4l12.829 8.626-1.899 2.82-12.694-8.536a84.513 84.513 0 00-1.527-1.007c-.442-.272-.868-.421-1.278-.45-.772-.051-1.434.245-1.985.889-.548.659-1.074 1.508-1.578 2.547l-2.378-1.598zm18.924-1.672l2.256 1.518-6.672 9.909-2.257-1.518 6.673-9.909zm-35.346 25.2l16.902 16.052-6.493 6.827c-.156.164-.357.36-.603.587a6.686 6.686 0 01-.729.626c-1.041.797-2.106 1.274-3.193 1.431a6.245 6.245 0 01-3.217-.353c-1.048-.4-2.027-1.032-2.934-1.894-.916-.869-1.6-1.817-2.054-2.843a6.244 6.244 0 01-.517-3.192c.102-1.094.525-2.18 1.269-3.26.177-.249.377-.505.599-.771.215-.257.397-.464.545-.62l4.162-4.375-6.069-5.763 2.332-2.452zm6.061 10.422l-4.072 4.281a8.657 8.657 0 00-.468.539c-.17.21-.317.42-.442.629-.358.612-.526 1.219-.503 1.821.031.61.19 1.178.478 1.705a5.6 5.6 0 001.055 1.381 5.46 5.46 0 001.422.971 3.782 3.782 0 001.716.38c.611 0 1.213-.195 1.807-.584a4.28 4.28 0 00.618-.462 8.62 8.62 0 00.514-.494l4.072-4.281-6.197-5.886zm-24.411 8.459c.955-.875 1.916-1.432 2.881-1.673.973-.232 1.893-.211 2.76.063.866.29 1.62.785 2.262 1.485.598.652 1.007 1.33 1.229 2.035.221.704.262 1.435.122 2.193-.133.765-.431 1.558-.895 2.377-.42.692-.933 1.433-1.541 2.224a90.166 90.166 0 01-1.952 2.446c-.702.847-1.395 1.687-2.081 2.52l.448-1.332c.91 1.025 1.811 1.576 2.701 1.653.89.092 1.872-.354 2.947-1.338a5.064 5.064 0 001.425-2.182c.28-.828.2-1.706-.241-2.634l2.985-1.416c.695 1.398.896 2.83.603 4.299-.301 1.475-1.196 2.895-2.685 4.258-1.154 1.056-2.339 1.776-3.555 2.158a5.036 5.036 0 01-3.593-.134 5.304 5.304 0 01-1.607-.986 20.273 20.273 0 01-1.462-1.45l-7.275-7.933 2.208-2.023 2.703 2.947-.78.012c-.371-1.475-.365-2.834.017-4.077.382-1.228 1.174-2.392 2.376-3.492zm1.429 2.444c-.708.649-1.204 1.33-1.487 2.043-.276.721-.39 1.418-.343 2.092.047.674.216 1.265.507 1.774.214.506.533 1.005.954 1.497.414.499.752.891 1.015 1.178l-1.085.445c.678-.841 1.296-1.604 1.853-2.29a73.86 73.86 0 001.492-1.893c.438-.562.801-1.092 1.09-1.591a6.27 6.27 0 00.525-1.271c.11-.407.135-.803.075-1.188-.068-.377-.258-.736-.572-1.078a2.458 2.458 0 00-1.104-.701c-.422-.126-.881-.115-1.377.031-.495.147-1.009.464-1.543.952zm-18.759 13.769a14.473 14.473 0 012.32-2.275c.836-.648 1.695-1.092 2.576-1.33a3.864 3.864 0 012.583.176 5.21 5.21 0 011.878 1.304c.498.569 1.05 1.219 1.655 1.95l9.855 11.911-2.621 2.165-9.751-11.786a92.26 92.26 0 00-1.179-1.399c-.347-.385-.713-.65-1.098-.794-.726-.268-1.444-.171-2.155.29-.712.477-1.458 1.142-2.237 1.995l-1.826-2.207zm18.621 3.765l1.733 2.095-9.209 7.609-1.734-2.095 9.21-7.609zm-20.425-1.95l10.545 13.944-2.402 1.814-2.558-3.382.667.185c.167.578.252 1.155.256 1.734a4.689 4.689 0 01-.253 1.651 5.103 5.103 0 01-.726 1.482 6.478 6.478 0 01-1.148 1.273 6.432 6.432 0 01-1.367.93l-1.913-2.531c.547-.224 1.081-.573 1.602-1.047a4.175 4.175 0 001.124-1.681 4.287 4.287 0 00.265-1.823 5.506 5.506 0 00-.482-1.765 8.826 8.826 0 00-1.014-1.689l-5.321-7.037 2.725-2.058zm-16.089 11.742c1.472-.943 2.961-1.43 4.468-1.46 1.507-.03 2.929.347 4.265 1.131 1.334.798 2.49 1.961 3.47 3.486.985 1.535 1.551 3.076 1.697 4.623.153 1.556-.105 3.003-.772 4.34-.662 1.347-1.715 2.484-3.159 3.41-1.472.943-2.961 1.43-4.468 1.46-1.507.03-2.929-.347-4.265-1.131-1.337-.784-2.492-1.934-3.466-3.451-.985-1.535-1.554-3.08-1.706-4.636-.156-1.541.094-2.989.75-4.345.661-1.347 1.723-2.489 3.186-3.427zm1.723 2.684c-1.408.902-2.155 2.047-2.239 3.434-.087 1.402.35 2.852 1.312 4.351.985 1.535 2.126 2.534 3.424 2.997 1.294.478 2.636.271 4.026-.62.954-.611 1.6-1.333 1.938-2.165.344-.823.421-1.712.231-2.667-.184-.946-.597-1.918-1.238-2.917-.991-1.544-2.138-2.552-3.441-3.024-1.304-.472-2.641-.269-4.013.611zm-23.144 11.37l4.07 7.571c.322.599.704 1.184 1.146 1.755a6.227 6.227 0 001.521 1.461c.567.394 1.197.62 1.889.677.683.062 1.433-.127 2.251-.566a4.8 4.8 0 001.366-1.082c.383-.427.651-.932.803-1.515.142-.579.146-1.243.013-1.992-.143-.744-.459-1.572-.95-2.485l2.23-.296c.751 1.397 1.151 2.768 1.201 4.113.054 1.355-.247 2.595-.904 3.72-.658 1.124-1.681 2.059-3.069 2.804-1.065.572-2.05.881-2.957.927-.907.045-1.734-.092-2.482-.413a6.883 6.883 0 01-2.015-1.252 10.669 10.669 0 01-1.52-1.664 14.081 14.081 0 01-1.017-1.585l-4.6-8.555 3.024-1.623zm10.825-5.811l8.278 15.398-2.667 1.431-2.391-4.448-.357.191-5.887-10.949 3.024-1.623zm-24.478 12.85c1.106-.487 2.113-.718 3.02-.693.907.025 1.724.22 2.451.583a7.33 7.33 0 011.903 1.427 10.634 10.634 0 011.385 1.777c.376.613.673 1.166.891 1.66l3.919 8.886-3.141 1.383-3.468-7.864a14.347 14.347 0 00-.997-1.861 6.836 6.836 0 00-1.396-1.56 3.98 3.98 0 00-1.831-.822c-.685-.11-1.453.021-2.302.395a5.017 5.017 0 00-1.453.959c-.411.405-.71.89-.897 1.456-.197.57-.253 1.231-.169 1.984.075.758.321 1.61.739 2.558l-2.246.122c-.64-1.451-.935-2.854-.883-4.209.055-1.345.454-2.553 1.197-3.623.743-1.07 1.836-1.923 3.278-2.558zm-5.1 2.759l2.038 4.621.37-.163 5.017 11.375-3.126 1.376-7.054-15.996 2.755-1.213zm-13.551 5.584c1.999-.724 3.787-.873 5.366-.446 1.578.427 2.8 1.391 3.665 2.891l-3.075 1.682a3.502 3.502 0 00-2.134-1.517c-.917-.219-1.924-.13-3.02.267-.994.36-1.697.844-2.108 1.452-.421.612-.502 1.273-.245 1.983.151.416.374.714.669.894.288.194.789.294 1.503.299.714.006 1.778-.053 3.191-.174 1.543-.146 2.806-.161 3.789-.047.976.129 1.743.408 2.301.837.551.443.972 1.065 1.262 1.867.361.994.412 1.957.153 2.889-.259.931-.792 1.773-1.599 2.524-.816.755-1.869 1.366-3.158 1.832-1.258.456-2.451.664-3.579.625-1.127-.039-2.128-.314-3.002-.824-.87-.499-1.542-1.214-2.017-2.144l3.041-1.773c.399.751.996 1.241 1.79 1.469.795.229 1.702.182 2.721-.142.979-.308 1.701-.753 2.168-1.335.469-.572.59-1.173.362-1.802a1.442 1.442 0 00-.671-.807c-.326-.169-.861-.251-1.605-.245-.744.005-1.819.079-3.225.221-1.509.145-2.749.146-3.719.004-.966-.132-1.73-.435-2.292-.909-.569-.459-1.006-1.11-1.311-1.952-.589-1.624-.457-3.112.395-4.465.843-1.349 2.304-2.401 4.384-3.154zm-19.157 7.356l6.527 22.378-3.249.946-6.526-22.378 3.248-.946zm-20.591 5.72l1.741 8.418c.137.666.336 1.335.597 2.009a6.277 6.277 0 001.04 1.835c.431.539.971.934 1.618 1.186.636.255 1.409.288 2.318.1a4.78 4.78 0 001.618-.648c.489-.299.89-.707 1.202-1.223.301-.514.495-1.149.581-1.905.076-.754.009-1.639-.201-2.653l2.221.351c.322 1.554.314 2.982-.023 4.286-.334 1.314-.977 2.417-1.927 3.307-.951.891-2.198 1.495-3.741 1.814-1.184.244-2.217.259-3.099.044-.882-.214-1.635-.582-2.261-1.103a6.894 6.894 0 01-1.574-1.774 10.621 10.621 0 01-.981-2.029 14.145 14.145 0 01-.523-1.809l-1.967-9.512 3.361-.694zm12.033-2.484l3.54 17.12-2.965.613-1.023-4.946-.396.081-2.517-12.174 3.361-.694zm-25.153 5.417l8.64 16.471-3.385.459-6.385-12.497-2.822 13.745-3.385.459 3.936-18.176 3.401-.461zm-20.348 2.36c1.733-.113 3.282.164 4.645.831a8.057 8.057 0 013.262 2.982c.812 1.32 1.276 2.879 1.395 4.678.125 1.906-.122 3.582-.741 5.029-.629 1.447-1.559 2.595-2.791 3.443-1.231.849-2.697 1.329-4.398 1.441-1.777.117-3.317-.199-4.621-.946-1.303-.736-2.311-1.844-3.025-3.322-.724-1.477-1.091-3.264-1.099-5.362l3.376-.222.081 1.228c.155 2.023.641 3.494 1.458 4.414.807.92 1.975 1.33 3.504 1.23 1.691-.111 2.926-.727 3.707-1.849.78-1.122 1.105-2.69.972-4.704-.126-1.916-.649-3.374-1.569-4.374-.919-.989-2.181-1.43-3.786-1.325-1.055.069-1.949.366-2.683.89-.743.535-1.301 1.264-1.673 2.186l-3.38-.832c.576-1.606 1.524-2.885 2.846-3.837 1.322-.941 2.829-1.468 4.52-1.579zm6.761 7.846l.173 2.633-12.454.818-.173-2.633 12.454-.818z" fill="#EFEFEF"/></svg>