<svg width="599" height="599" fill="none" xmlns="http://www.w3.org/2000/svg"><path d="M571.586 300.826l22.499.608-.36 13.328-3.266-.088.272-10.062-6.343-.172-.222 8.188-3.281-.089.221-8.187-9.609-.26.089-3.266zm18.913 18.733l3.164.233-.239 3.258-3.164-.233.239-3.258zm-19.595-1.438l16.836 1.236-.24 3.258-16.835-1.236.239-3.258zm-1.974 19.417l8.237 1.021c.651.081 1.325.107 2.022.078a6.062 6.062 0 002-.382 3.665 3.665 0 001.587-1.111c.43-.503.7-1.2.81-2.089a4.63 4.63 0 00-.091-1.681 3.45 3.45 0 00-.746-1.478c-.377-.435-.897-.81-1.562-1.123-.666-.303-1.495-.516-2.488-.639l1.01-1.922c1.52.188 2.824.638 3.912 1.351 1.098.713 1.907 1.643 2.426 2.789.52 1.146.686 2.474.499 3.984-.144 1.158-.45 2.107-.92 2.846-.47.74-1.04 1.315-1.71 1.726a6.65 6.65 0 01-2.111.888c-.745.17-1.465.259-2.159.268-.694.008-1.3-.02-1.817-.084l-9.307-1.153.408-3.289zm1.459-11.773l16.753 2.076-.36 2.901-4.839-.6-.048.388-11.913-1.477.407-3.288zm-3.8 23.19c.234-1.229.656-2.214 1.264-2.958.619-.741 1.343-1.255 2.172-1.542a5.126 5.126 0 012.607-.155c.84.16 1.548.449 2.126.866a4.344 4.344 0 011.361 1.628c.339.67.565 1.456.68 2.358.074.778.104 1.648.09 2.611a84.284 84.284 0 01-.098 3.02 1104.78 1104.78 0 00-.156 3.153l-.422-1.29c1.296.268 2.311.176 3.044-.279.742-.441 1.245-1.353 1.509-2.735a4.878 4.878 0 00-.158-2.512c-.26-.803-.829-1.437-1.706-1.901l1.492-2.818c1.345.68 2.328 1.674 2.948 2.981.619 1.316.746 2.932.381 4.846-.283 1.484-.785 2.725-1.506 3.722a4.851 4.851 0 01-2.858 1.969 5.104 5.104 0 01-1.813.164 19.688 19.688 0 01-1.967-.28l-10.21-1.948.541-2.84 3.793.723-.597.459c-1.138-.927-1.918-1.983-2.34-3.167-.413-1.171-.472-2.53-.177-4.075zm2.517 1.069c-.174.911-.164 1.724.028 2.439.203.718.517 1.324.942 1.819.425.495.898.856 1.417 1.082a5.6 5.6 0 001.602.608c.608.148 1.097.257 1.465.327l-.583.971c.04-1.043.078-1.99.113-2.843.035-.852.056-1.628.062-2.327a13.838 13.838 0 00-.075-1.86 6.172 6.172 0 00-.327-1.288 2.76 2.76 0 00-.628-.963c-.27-.253-.625-.421-1.065-.505a2.374 2.374 0 00-1.259.094c-.399.146-.749.419-1.047.818-.299.399-.514.942-.645 1.628zm-7.57 23.001l8.027 2.11c.635.167 1.3.283 1.994.347.702.077 1.38.039 2.034-.112a3.67 3.67 0 001.72-.889c.493-.442.854-1.096 1.082-1.962a4.635 4.635 0 00.134-1.678 3.45 3.45 0 00-.543-1.565c-.315-.481-.781-.922-1.398-1.321-.619-.389-1.413-.711-2.38-.965l1.257-1.771c1.481.39 2.714 1.01 3.697 1.861.993.854 1.67 1.883 2.032 3.088.362 1.205.35 2.543-.037 4.014-.296 1.129-.727 2.029-1.291 2.699-.564.671-1.206 1.165-1.925 1.482-.712.33-1.448.53-2.21.599a10.29 10.29 0 01-2.176-.023 13.505 13.505 0 01-1.789-.325l-9.07-2.384.842-3.205zm3.016-11.473l16.326 4.291-.743 2.827-4.716-1.24-.099.378-11.61-3.051.842-3.205zm-7.442 24.247c.648-1.948 1.607-3.391 2.875-4.331 1.268-.939 2.729-1.288 4.384-1.044l-.568 3.336a3.379 3.379 0 00-2.426.708c-.715.564-1.25 1.379-1.606 2.447-.322.969-.376 1.791-.162 2.467.211.685.663 1.143 1.355 1.373.406.135.765.145 1.078.03.319-.103.695-.423 1.126-.96.432-.537 1.024-1.378 1.779-2.521.813-1.256 1.557-2.222 2.233-2.898.681-.662 1.352-1.076 2.011-1.241.665-.152 1.389-.098 2.17.162.969.323 1.728.861 2.279 1.616.551.754.869 1.662.955 2.723.083 1.071-.085 2.234-.503 3.49-.408 1.225-.964 2.254-1.669 3.084-.705.831-1.512 1.425-2.421 1.781-.9.359-1.844.44-2.833.243l.479-3.366c.807.148 1.535-.011 2.184-.475.649-.465 1.156-1.181 1.522-2.146.352-.926.447-1.74.285-2.442-.152-.699-.534-1.15-1.147-1.354a1.395 1.395 0 00-1.013.025c-.323.145-.705.501-1.147 1.068-.441.567-1.029 1.426-1.763 2.576-.794 1.23-1.535 2.169-2.223 2.818-.679.653-1.366 1.05-2.061 1.192-.688.155-1.443.096-2.264-.177-1.581-.526-2.63-1.518-3.144-2.974-.518-1.446-.44-3.183.235-5.21zm-7.382 20.763l7.68 3.147c.607.249 1.251.451 1.931.606a6.05 6.05 0 002.03.156 3.667 3.667 0 001.823-.655c.547-.373.99-.974 1.33-1.803a4.62 4.62 0 00.353-1.645 3.453 3.453 0 00-.331-1.623c-.249-.519-.654-1.017-1.213-1.493-.563-.468-1.307-.891-2.233-1.27l1.48-1.59c1.417.581 2.557 1.358 3.419 2.331.873.976 1.409 2.086 1.609 3.328.201 1.242.013 2.567-.564 3.975-.443 1.08-.988 1.915-1.635 2.505-.648.591-1.349.996-2.103 1.216a6.63 6.63 0 01-2.27.303 10.232 10.232 0 01-2.154-.308 13.535 13.535 0 01-1.731-.558l-8.677-3.556 1.256-3.066zm4.499-10.977l20.826 8.535-1.108 2.704-11.238-4.605-.148.361-9.589-3.929 1.257-3.066zm-9.925 21.716c.551-1.122 1.218-1.962 2.001-2.518.793-.551 1.627-.856 2.502-.914a5.136 5.136 0 012.556.54c.767.376 1.374.842 1.821 1.398a4.34 4.34 0 01.882 1.93c.15.735.161 1.553.033 2.453a24 24 0 01-.603 2.542 86.634 86.634 0 01-.894 2.887c-.332 1.009-.66 2.009-.983 2.999l-.067-1.355c1.179.601 2.183.78 3.01.536.833-.23 1.559-.977 2.178-2.24.39-.795.561-1.616.513-2.464-.04-.843-.421-1.605-1.143-2.284l2.184-2.324c1.117 1.012 1.802 2.23 2.055 3.654.249 1.434-.056 3.025-.914 4.775-.666 1.356-1.478 2.421-2.436 3.192a4.857 4.857 0 01-3.277 1.144 5.137 5.137 0 01-1.792-.322 19.824 19.824 0 01-1.823-.79l-9.333-4.577 1.274-2.596 3.466 1.7-.697.285c-.853-1.196-1.326-2.42-1.419-3.673-.089-1.239.213-2.565.906-3.978zm2.145 1.696c-.408.833-.614 1.62-.618 2.361.006.745.148 1.413.428 2.003.279.59.639 1.062 1.08 1.418a5.61 5.61 0 001.385 1.01c.548.303.99.537 1.327.702l-.819.783c.314-.995.6-1.899.86-2.712.259-.813.484-1.556.675-2.228.195-.659.335-1.263.419-1.814.057-.471.065-.914.025-1.328a2.757 2.757 0 00-.351-1.095c-.193-.316-.491-.572-.894-.769a2.368 2.368 0 00-1.239-.242c-.424.035-.832.206-1.226.512-.394.306-.744.773-1.052 1.399zm-13.199 19.889l7.192 4.142c.569.328 1.18.614 1.833.858.657.258 1.321.4 1.992.425a3.669 3.669 0 001.893-.406c.592-.297 1.111-.833 1.559-1.61a4.624 4.624 0 00.569-1.584 3.44 3.44 0 00-.113-1.652c-.177-.547-.512-1.095-1.002-1.642-.496-.538-1.177-1.056-2.044-1.556l1.678-1.378c1.327.764 2.353 1.686 3.079 2.765.734 1.085 1.118 2.256 1.151 3.513.033 1.258-.33 2.546-1.089 3.864-.582 1.012-1.234 1.767-1.954 2.266-.72.499-1.469.807-2.246.925a6.645 6.645 0 01-2.29-.002 10.269 10.269 0 01-2.094-.593 13.644 13.644 0 01-1.641-.783l-8.127-4.68 1.654-2.872zm5.921-10.28l14.628 8.425-1.459 2.533-4.226-2.434-.195.338-10.402-5.991 1.654-2.871zm-13.788 21.775c.879-1.305 1.962-2.215 3.25-2.73 1.283-.506 2.656-.643 4.12-.412 1.468.247 2.901.841 4.302 1.783 1.409.949 2.492 2.055 3.25 3.318.766 1.269 1.149 2.594 1.149 3.976.002 1.396-.438 2.751-1.323 4.065-.89 1.323-1.961 2.215-3.215 2.678-1.25.477-2.587.57-4.011.278-1.429-.284-2.844-.897-4.245-1.84-1.4-.942-2.501-2.022-3.302-3.239-.801-1.217-1.225-2.501-1.271-3.851-.038-1.344.395-2.686 1.296-4.026zm2.198 2.025c-.599.891-.876 1.759-.831 2.606.046.847.353 1.651.922 2.41.569.76 1.338 1.466 2.306 2.117.968.652 1.914 1.094 2.838 1.326.918.241 1.771.225 2.558-.05.781-.265 1.457-.821 2.027-1.668.605-.9.882-1.787.831-2.663-.051-.876-.352-1.707-.904-2.492-.557-.777-1.294-1.474-2.21-2.091-.925-.622-1.857-1.048-2.795-1.278-.936-.215-1.813-.19-2.632.076-.825.274-1.528.843-2.11 1.707zm-4.619 2.412l10.076 6.781.21-.311 8.597 5.785-1.832 2.723-18.674-12.566 1.623-2.412zm-9.304 11.765c1.031-1.324 2.225-2.263 3.582-2.818a7.777 7.777 0 014.244-.438c1.473.262 2.896.928 4.269 1.997 1.455 1.134 2.506 2.388 3.152 3.763.639 1.383.87 2.791.692 4.224-.178 1.433-.773 2.799-1.785 4.098-1.057 1.356-2.273 2.265-3.648 2.725-1.368.467-2.814.483-4.338.049-1.53-.426-3.055-1.309-4.573-2.65l2.008-2.577.937.73c1.558 1.187 2.931 1.781 4.12 1.782 1.181.009 2.227-.57 3.136-1.738 1.005-1.29 1.354-2.577 1.046-3.861-.308-1.283-1.231-2.523-2.768-3.721-1.463-1.14-2.851-1.698-4.162-1.677-1.304.029-2.432.655-3.386 1.88-.628.806-.988 1.642-1.081 2.507-.091.88.077 1.75.503 2.61l-2.771 1.904c-.788-1.446-1.102-2.952-.94-4.516.17-1.558.758-2.983 1.763-4.273zm9.999.16l2.01 1.566-7.405 9.507-2.01-1.566 7.405-9.507zm-16.67 8.776l17.438 14.961-2.127 2.48-17.438-14.961 2.127-2.48zm-9.346 10.668l10.666 21.127-3.339 3.314-21.048-10.819 2.407-2.39 19.25 9.829-.599.595-9.744-19.267 2.407-2.389zm.883 6.281l2.159 2.174-8.342 8.281-2.158-2.174 8.341-8.281zm-22.747 13.682c1.226-1.052 2.509-1.637 3.848-1.757 1.346-.111 2.67.16 3.972.814 1.303.654 2.503 1.621 3.602 2.903 1.1 1.281 1.877 2.611 2.333 3.991.448 1.387.512 2.725.192 4.016-.322 1.306-1.087 2.478-2.297 3.516-1.202 1.031-2.493 1.623-3.872 1.777-1.38.167-2.744-.055-4.094-.668-1.343-.606-2.568-1.553-3.674-2.842-1.099-1.281-1.852-2.639-2.26-4.074-.408-1.421-.432-2.801-.071-4.14.353-1.333 1.127-2.512 2.321-3.536zm6.332-4.815l14.655 17.083-2.491 2.137-6.748-7.865.285-.244-7.908-9.218 2.207-1.893zm-4.064 6.762c-.791.678-1.271 1.44-1.439 2.284-.176.851-.098 1.725.232 2.623.329.911.857 1.791 1.583 2.637.719.838 1.501 1.485 2.345 1.942.837.463 1.693.669 2.569.617.876-.051 1.725-.429 2.548-1.135.775-.665 1.253-1.404 1.433-2.218.173-.807.09-1.656-.249-2.546-.346-.884-.899-1.769-1.659-2.655-.76-.885-1.55-1.567-2.371-2.043-.821-.477-1.654-.688-2.501-.635-.846.054-1.677.43-2.491 1.129zm-30.682 19.925l11.802 19.165-11.352 6.991-1.713-2.781 8.571-5.279-3.328-5.403-6.974 4.295-1.721-2.795 6.974-4.295-5.04-8.185 2.781-1.713zm-4.877 25.819l1.543 2.773-2.855 1.588-1.543-2.772 2.855-1.589zm-9.553-17.168l8.208 14.751-2.855 1.588-8.208-14.751 2.855-1.588zm-17.26 8.973l3.682 7.438a12.27 12.27 0 001.049 1.731 6.03 6.03 0 001.42 1.459 3.656 3.656 0 001.8.713c.657.082 1.387-.076 2.19-.473a4.634 4.634 0 001.353-1.001c.384-.4.658-.879.824-1.437.156-.554.182-1.195.077-1.922-.113-.723-.392-1.533-.836-2.429l2.161-.215c.68 1.373 1.021 2.709 1.026 4.009.008 1.31-.323 2.497-.993 3.561-.671 1.065-1.688 1.935-3.051 2.61-1.046.517-2.007.784-2.883.799-.876.015-1.67-.144-2.382-.478a6.625 6.625 0 01-1.903-1.273 10.241 10.241 0 01-1.413-1.655 13.543 13.543 0 01-.93-1.562l-4.161-8.405 2.97-1.47zm10.632-5.264l7.489 15.129-2.62 1.297-2.163-4.371-.35.173-5.326-10.757 2.97-1.471zm-21.857 9.704c1.155-.478 2.21-.667 3.165-.567.96.11 1.787.433 2.482.969a5.131 5.131 0 011.561 2.094c.327.789.475 1.54.443 2.253a4.34 4.34 0 01-.614 2.03c-.373.651-.906 1.272-1.597 1.863-.61.489-1.32.992-2.133 1.509a86.8 86.8 0 01-2.578 1.576c-.917.537-1.824 1.071-2.721 1.6l.846-1.061c.487 1.231 1.122 2.028 1.904 2.392.777.378 1.815.297 3.115-.241a4.88 4.88 0 002.014-1.511c.528-.658.745-1.481.652-2.469l3.174-.3c.17 1.498-.121 2.865-.873 4.101-.761 1.24-2.041 2.232-3.842 2.978-1.395.578-2.708.84-3.938.785a4.858 4.858 0 01-3.214-1.307 5.12 5.12 0 01-1.132-1.426 19.71 19.71 0 01-.846-1.798l-3.978-9.604 2.672-1.106 1.477 3.567-.711-.247c.15-1.461.605-2.692 1.363-3.694.752-.989 1.855-1.784 3.309-2.386zm.488 2.691c-.857.355-1.531.809-2.024 1.363-.488.563-.823 1.158-1.003 1.785-.18.628-.222 1.22-.126 1.778a5.6 5.6 0 00.371 1.673c.211.59.388 1.058.531 1.405l-1.131.045a749.62 749.62 0 012.438-1.466 72.58 72.58 0 001.979-1.226 13.63 13.63 0 001.513-1.084c.355-.315.653-.642.897-.98a2.76 2.76 0 00.46-1.053c.064-.365.01-.754-.162-1.168a2.37 2.37 0 00-.77-1.001c-.341-.253-.761-.395-1.259-.426-.497-.031-1.069.088-1.714.355zm-23.135 6.165l2.651 7.865c.209.622.478 1.24.807 1.856a6.026 6.026 0 001.211 1.636 3.664 3.664 0 001.689.949c.64.169 1.384.11 2.233-.176a4.628 4.628 0 001.476-.811c.433-.344.77-.781 1.008-1.313.229-.528.341-1.159.335-1.894-.016-.732-.183-1.571-.503-2.519l2.17.077c.49 1.451.649 2.821.479 4.11-.167 1.299-.654 2.431-1.462 3.396-.807.965-1.931 1.69-3.373 2.176-1.106.373-2.094.508-2.964.406-.871-.103-1.636-.367-2.296-.793a6.662 6.662 0 01-1.716-1.517 10.252 10.252 0 01-1.177-1.83 13.584 13.584 0 01-.713-1.673L378.659 560l3.14-1.058zm11.241-3.79l5.393 15.997-2.77.933-1.558-4.621-.37.125-3.835-11.375 3.14-1.059zm-24.596 7.126c1.986-.521 3.718-.508 5.198.04 1.48.548 2.571 1.582 3.272 3.1l-3.104 1.349a3.382 3.382 0 00-1.919-1.645c-.863-.29-1.839-.293-2.927-.006-.988.259-1.706.663-2.154 1.212-.459.552-.595 1.18-.41 1.886.109.413.297.719.565.918.26.212.733.351 1.419.419.686.067 1.714.104 3.084.11 1.496-.005 2.711.09 3.646.286.928.209 1.641.544 2.139 1.006.491.474.841 1.109 1.051 1.905.259.988.224 1.918-.107 2.792-.33.873-.916 1.636-1.758 2.288-.851.655-1.917 1.151-3.197 1.487-1.249.328-2.415.425-3.496.289-1.08-.136-2.019-.488-2.814-1.054-.793-.557-1.377-1.303-1.752-2.239l3.08-1.44c.318.757.848 1.28 1.592 1.569.744.29 1.62.323 2.629.101.968-.211 1.701-.576 2.201-1.095.502-.509.67-1.076.506-1.701a1.392 1.392 0 00-.575-.835c-.298-.191-.805-.316-1.521-.376-.716-.059-1.756-.082-3.121-.068-1.463.007-2.655-.1-3.575-.321-.917-.211-1.626-.569-2.125-1.074-.506-.492-.869-1.156-1.089-1.992-.424-1.613-.167-3.032.771-4.259.928-1.225 2.425-2.108 4.491-2.652zm-21.078 5.113l1.586 8.147c.126.644.31 1.293.554 1.946a6.06 6.06 0 00.984 1.783c.41.525.927.913 1.549 1.164.611.252 1.357.293 2.237.121a4.61 4.61 0 001.569-.608 3.442 3.442 0 001.174-1.168c.297-.493.491-1.104.583-1.833.081-.727.026-1.582-.165-2.564l2.141.364c.293 1.503.269 2.883-.07 4.138-.338 1.265-.971 2.322-1.899 3.172-.928.849-2.138 1.42-3.632 1.71-1.145.223-2.143.227-2.992.01-.849-.217-1.572-.581-2.17-1.09a6.644 6.644 0 01-1.5-1.731 10.307 10.307 0 01-.925-1.969 13.655 13.655 0 01-.484-1.753l-1.793-9.206 3.253-.633zm11.645-2.267l4.301 22.093-2.869.558-2.321-11.921-.383.075-1.981-10.172 3.253-.633zm-23.605 3.605c1.241-.154 2.308-.055 3.202.296.895.362 1.607.893 2.135 1.594.519.713.834 1.524.947 2.434.105.848.048 1.611-.173 2.289a4.336 4.336 0 01-1.132 1.795c-.533.528-1.211.984-2.035 1.37-.718.309-1.537.605-2.457.887-.921.282-1.889.56-2.905.833-1.027.274-2.043.547-3.049.819l1.098-.798c.142 1.316.542 2.254 1.199 2.813.649.57 1.671.769 3.067.596a4.89 4.89 0 002.343-.92c.684-.495 1.113-1.23 1.285-2.207l3.141.555c-.236 1.489-.88 2.729-1.933 3.721-1.064.993-2.562 1.609-4.496 1.849-1.5.185-2.835.088-4.005-.292a4.853 4.853 0 01-2.751-2.116 5.116 5.116 0 01-.712-1.675 19.876 19.876 0 01-.337-1.959l-1.278-10.315 2.869-.356.475 3.832-.62-.427c.534-1.369 1.3-2.435 2.297-3.199.988-.752 2.263-1.225 3.825-1.419zm-.246 2.724c-.92.114-1.691.372-2.313.775-.621.413-1.102.897-1.442 1.454-.341.557-.539 1.117-.595 1.68a5.618 5.618 0 00-.087 1.712c.046.624.092 1.123.138 1.495l-1.103-.257c1.004-.282 1.918-.537 2.74-.765a71.02 71.02 0 002.234-.655 13.743 13.743 0 001.748-.642c.425-.21.8-.445 1.125-.706.314-.26.555-.557.724-.893.158-.335.209-.724.154-1.169a2.38 2.38 0 00-.475-1.169c-.263-.336-.629-.584-1.101-.746-.471-.162-1.054-.2-1.747-.114zm-23.932-.137l.481 8.286c.038.655.134 1.323.288 2.003.144.691.39 1.324.736 1.899a3.671 3.671 0 001.378 1.36c.573.332 1.306.473 2.201.421a4.626 4.626 0 001.637-.393c.509-.217.949-.55 1.32-1 .36-.449.634-1.028.823-1.738.178-.71.238-1.564.18-2.563l2.073.647c.088 1.529-.12 2.893-.624 4.091-.504 1.209-1.273 2.172-2.307 2.89-1.033.717-2.309 1.12-3.828 1.208-1.165.067-2.154-.063-2.966-.392-.812-.329-1.481-.786-2.005-1.371a6.623 6.623 0 01-1.254-1.916 10.297 10.297 0 01-.653-2.076 13.64 13.64 0 01-.245-1.802l-.543-9.362 3.308-.192zm11.844-.686l.976 16.852-2.918.17-.282-4.869-.39.023-.694-11.984 3.308-.192zm-26.869.404c1.573.024 2.927.436 4.061 1.235 1.123.799 1.987 1.875 2.592 3.229.594 1.364.877 2.89.851 4.578-.026 1.698-.362 3.209-1.008 4.533-.645 1.334-1.547 2.378-2.705 3.132-1.169.763-2.545 1.133-4.129 1.108-1.594-.024-2.927-.436-3.998-1.234-1.082-.788-1.889-1.858-2.42-3.211-.542-1.352-.8-2.873-.774-4.561.026-1.687.331-3.199.914-4.534.583-1.336 1.428-2.391 2.534-3.166 1.106-.764 2.467-1.134 4.082-1.109zm-.499 2.947c-1.073-.017-1.952.225-2.637.725s-1.191 1.196-1.518 2.087c-.326.891-.498 1.92-.516 3.087-.018 1.167.127 2.201.436 3.102.299.901.778 1.606 1.437 2.117.649.51 1.484.773 2.505.789 1.083.016 1.978-.235 2.685-.756.706-.521 1.238-1.226 1.595-2.117.348-.891.53-1.889.547-2.993.017-1.115-.134-2.128-.453-3.04-.33-.901-.83-1.623-1.499-2.164-.679-.542-1.54-.821-2.582-.837zm-4.541-2.556l-.187 12.143.375.006-.16 10.362-3.282-.051.347-22.505 2.907.045zm-14.827-1.357c1.672.136 3.112.619 4.32 1.448a7.784 7.784 0 012.695 3.309c.589 1.375.813 2.93.672 4.665-.149 1.838-.621 3.404-1.416 4.699-.806 1.294-1.856 2.259-3.152 2.896s-2.764.889-4.405.756c-1.714-.139-3.141-.658-4.281-1.555-1.14-.887-1.947-2.087-2.42-3.6-.484-1.513-.582-3.272-.293-5.277l3.256.265-.096 1.184c-.138 1.954.119 3.428.77 4.422.64.993 1.698 1.549 3.173 1.669 1.631.132 2.898-.283 3.802-1.244.904-.962 1.435-2.414 1.592-4.356.15-1.849-.144-3.315-.881-4.4-.739-1.074-1.882-1.674-3.43-1.799-1.018-.083-1.914.074-2.688.472-.786.406-1.422 1.024-1.907 1.852l-3.111-1.272c.776-1.453 1.863-2.541 3.26-3.264 1.396-.712 2.909-1.002 4.54-.87zm5.351 8.448l-.206 2.539-12.011-.975.206-2.539 12.011.975zm-16.529-9.156l-3.001 22.78-3.239-.427 3.001-22.78 3.239.427zm-14.107-2.019l-11.875 20.472-4.6-.987-2.429-23.541 3.316.711 2.277 21.495-.825-.177 10.82-18.684 3.316.711zm-4.78 4.17l-.642 2.996-11.493-2.467.643-2.995 11.492 2.466zm-23.738-11.567c1.551.452 2.742 1.206 3.574 2.263.829 1.066 1.325 2.324 1.489 3.771.164 1.448.01 2.983-.462 4.603-.472 1.621-1.162 2.999-2.068 4.135-.916 1.133-2.002 1.919-3.259 2.356-1.269.444-2.668.443-4.199-.003-1.521-.443-2.722-1.201-3.604-2.272-.894-1.064-1.454-2.328-1.678-3.794-.227-1.455-.103-2.998.372-4.629.473-1.62 1.198-2.994 2.178-4.119.966-1.119 2.109-1.893 3.428-2.322 1.309-.433 2.719-.429 4.229.011zm7.492 2.672l-6.297 21.609-3.152-.919 2.9-9.949.36.105 3.398-11.659 2.791.813zm-7.883.291c-1-.291-1.9-.277-2.699.044-.809.318-1.499.86-2.07 1.627-.584.774-1.031 1.697-1.343 2.767-.309 1.06-.424 2.069-.345 3.026.07.953.365 1.783.887 2.488.521.706 1.302 1.21 2.343 1.514.98.285 1.86.281 2.641-.012.77-.297 1.435-.83 1.996-1.6.551-.773.99-1.72 1.316-2.84.327-1.12.465-2.155.416-3.102-.049-.948-.328-1.762-.835-2.442-.508-.679-1.277-1.169-2.307-1.47zm-33.253-14.829l-9.609 20.353-12.056-5.692 1.394-2.954 9.103 4.298 2.709-5.739-7.406-3.497 1.401-2.968 7.406 3.497 4.104-8.693 2.954 1.395zm-24.277 9.993l-1.481 2.806-2.89-1.525 1.481-2.806 2.89 1.525zm9.17-17.376l-7.879 14.929-2.889-1.525 7.879-14.929 2.889 1.525zm-16.961-9.626l-4.248 7.13a12.189 12.189 0 00-.884 1.821 6.023 6.023 0 00-.455 1.985 3.668 3.668 0 00.379 1.899c.287.596.816 1.123 1.586 1.582a4.627 4.627 0 001.576.593 3.449 3.449 0 001.653-.089c.55-.169 1.102-.495 1.656-.978.546-.488 1.074-1.161 1.586-2.021l1.354 1.698c-.784 1.316-1.721 2.329-2.81 3.038-1.095.718-2.272 1.085-3.53 1.1-1.258.014-2.541-.368-3.848-1.146-1.002-.598-1.748-1.26-2.236-1.988-.488-.727-.786-1.48-.892-2.259a6.664 6.664 0 01.036-2.29 10.26 10.26 0 01.623-2.084c.272-.639.541-1.182.807-1.63l4.8-8.057 2.847 1.696zm10.192 6.072l-8.64 14.502-2.511-1.496 2.496-4.189-.336-.2 6.144-10.313 2.847 1.696zm-19.974-13.026c1.029.71 1.762 1.493 2.197 2.349.429.865.608 1.735.536 2.61a5.122 5.122 0 01-.909 2.448c-.484.704-1.034 1.236-1.65 1.597a4.342 4.342 0 01-2.038.588c-.749.041-1.56-.068-2.431-.327a24.02 24.02 0 01-2.426-.97c-.876-.4-1.784-.836-2.725-1.307-.949-.477-1.89-.948-2.822-1.414l1.35.134c-.768 1.078-1.092 2.044-.972 2.898.106.858.737 1.685 1.896 2.483a4.872 4.872 0 002.362.869c.84.085 1.649-.18 2.427-.795l1.978 2.501c-1.165.957-2.47 1.455-3.916 1.497-1.454.035-2.984-.5-4.588-1.605-1.245-.857-2.178-1.817-2.801-2.879a4.86 4.86 0 01-.65-3.409c.09-.608.284-1.183.582-1.725.297-.542.647-1.104 1.049-1.688l5.897-8.559 2.381 1.641-2.19 3.179-.18-.731c1.308-.668 2.588-.957 3.841-.865 1.239.094 2.506.587 3.802 1.48zm-1.993 1.873c-.764-.526-1.512-.845-2.244-.958-.738-.104-1.42-.061-2.044.129-.624.19-1.145.477-1.561.861-.43.311-.83.718-1.202 1.221-.381.498-.677.901-.89 1.209l-.654-.924c.938.456 1.79.873 2.556 1.248a71.15 71.15 0 002.105.995c.623.29 1.201.517 1.733.681a6.09 6.09 0 001.31.22c.407.015.786-.047 1.134-.187.341-.145.638-.402.892-.771.249-.36.389-.757.422-1.19.027-.424-.083-.854-.327-1.288-.245-.435-.655-.85-1.23-1.246zm-17.702-15.979l-5.147 6.51a12.289 12.289 0 00-1.116 1.689 6.04 6.04 0 00-.711 1.908 3.661 3.661 0 00.125 1.932c.207.629.662 1.221 1.365 1.777.458.362.953.627 1.484.795a3.446 3.446 0 001.651.129c.567-.096 1.158-.346 1.77-.752.605-.412 1.218-1.01 1.838-1.795l1.119 1.861c-.95 1.202-2.012 2.083-3.185 2.643-1.18.568-2.395.777-3.644.626-1.249-.151-2.47-.698-3.663-1.642-.916-.723-1.568-1.478-1.956-2.263-.389-.786-.585-1.572-.587-2.358a6.618 6.618 0 01.336-2.264c.241-.726.538-1.388.891-1.985.353-.598.692-1.101 1.015-1.51l5.816-7.356 2.599 2.055zm9.306 7.358l-10.469 13.242-2.293-1.813 3.024-3.826-.306-.242 7.445-9.416 2.599 2.055zm-19.39-16.717c1.523 1.376 2.461 2.833 2.812 4.372.351 1.539.083 3.017-.803 4.434l-2.829-1.859a3.385 3.385 0 00.327-2.506c-.23-.881-.762-1.699-1.597-2.453-.758-.685-1.489-1.064-2.194-1.139-.712-.082-1.313.148-1.802.689-.286.317-.439.642-.459.975-.035.334.107.806.426 1.417s.851 1.492 1.595 2.642c.824 1.249 1.409 2.318 1.757 3.208.333.89.443 1.671.33 2.34-.129.671-.469 1.312-1.02 1.923-.685.757-1.483 1.237-2.395 1.438-.912.202-1.871.129-2.877-.218-1.014-.354-2.012-.975-2.994-1.862-.959-.866-1.678-1.788-2.155-2.768-.478-.979-.698-1.956-.659-2.932.032-.968.337-1.865.914-2.691l2.891 1.789c-.459.68-.606 1.411-.441 2.192.165.781.616 1.532 1.354 2.255.707.694 1.414 1.108 2.122 1.242.7.141 1.267-.028 1.7-.507.252-.279.379-.591.384-.938-.003-.354-.176-.847-.518-1.479-.342-.632-.892-1.515-1.651-2.65-.807-1.22-1.37-2.276-1.688-3.167-.326-.884-.414-1.672-.265-2.366.135-.693.492-1.36 1.071-2.002 1.118-1.238 2.447-1.8 3.987-1.686 1.533.106 3.091.875 4.677 2.307zm-15.81-14.857l-5.953 5.783c-.47.458-.913.967-1.326 1.528a6.057 6.057 0 00-.955 1.799 3.67 3.67 0 00-.128 1.933c.123.65.497 1.297 1.122 1.94.406.418.862.745 1.367.981a3.448 3.448 0 001.62.344c.575-.021 1.193-.193 1.853-.515.654-.329 1.339-.842 2.056-1.539l.867 1.991c-1.099 1.067-2.266 1.802-3.503 2.204-1.244.409-2.475.458-3.694.145-1.219-.312-2.358-1.014-3.418-2.105-.813-.838-1.361-1.671-1.644-2.5-.282-.83-.374-1.634-.274-2.414a6.63 6.63 0 01.629-2.202c.334-.687.715-1.305 1.143-1.851a13.66 13.66 0 011.203-1.364l6.727-6.535 2.308 2.377zm8.266 8.51l-16.145 15.683-2.036-2.097 8.711-8.462-.272-.28 7.433-7.221 2.309 2.377zm-15.86-17.708c.81.952 1.315 1.898 1.513 2.838.19.947.138 1.833-.158 2.66a5.133 5.133 0 01-1.512 2.129c-.65.554-1.32.926-2.007 1.114a4.331 4.331 0 01-2.121.041c-.735-.155-1.49-.47-2.264-.946a24.15 24.15 0 01-2.092-1.565 86.381 86.381 0 01-2.293-1.969c-.793-.707-1.58-1.405-2.36-2.096l1.27.479c-1.02.842-1.584 1.691-1.69 2.547-.12.856.276 1.819 1.188 2.89a4.885 4.885 0 002.057 1.451c.789.299 1.639.253 2.55-.14l1.262 2.929c-1.373.622-2.763.765-4.17.431-1.414-.343-2.753-1.256-4.016-2.739-.98-1.151-1.633-2.319-1.959-3.506a4.857 4.857 0 01.255-3.461 5.135 5.135 0 011.009-1.516c.427-.446.91-.899 1.45-1.358l7.914-6.739 1.874 2.201-2.939 2.503.016-.752c1.437-.307 2.748-.253 3.935.16 1.171.411 2.267 1.216 3.288 2.414zm-2.41 1.293c-.602-.706-1.241-1.208-1.92-1.507-.686-.291-1.355-.426-2.007-.405-.653.022-1.23.164-1.73.427-.497.19-.99.479-1.479.869a30.82 30.82 0 00-1.172.937l-.392-1.063c.788.684 1.503 1.307 2.145 1.869a73.703 73.703 0 001.776 1.506c.526.441 1.025.81 1.496 1.107.41.239.813.423 1.21.551.389.12.77.158 1.143.114.366-.052.72-.223 1.061-.514.334-.284.572-.63.716-1.04.136-.403.141-.846.018-1.329-.124-.483-.413-.991-.865-1.522zM78.32 457.619l-6.675 4.931a12.23 12.23 0 00-1.52 1.336c-.5.499-.895 1.05-1.187 1.655a3.665 3.665 0 00-.386 1.897c.034.661.318 1.352.85 2.073.347.469.755.855 1.224 1.156.46.308.98.494 1.559.559.572.056 1.208-.031 1.906-.261.691-.239 1.44-.656 2.244-1.25l.591 2.089c-1.232.91-2.488 1.482-3.767 1.714-1.288.239-2.514.121-3.68-.352-1.166-.473-2.2-1.322-3.104-2.545-.694-.939-1.125-1.838-1.294-2.698-.168-.86-.151-1.67.052-2.429.19-.761.496-1.46.92-2.097a10.25 10.25 0 011.38-1.681 13.7 13.7 0 011.376-1.191l7.543-5.572 1.969 2.666zm7.05 9.542l-13.579 10.03-1.736-2.351 3.922-2.898-.232-.314 9.655-7.132 1.97 2.665zM70.962 445.86c.845 1.327 1.245 2.684 1.2 4.071-.049 1.378-.473 2.691-1.271 3.94-.813 1.246-1.932 2.322-3.356 3.228-1.433.912-2.88 1.462-4.34 1.651-1.47.194-2.838.015-4.104-.539-1.28-.556-2.346-1.502-3.196-2.839-.856-1.345-1.245-2.684-1.167-4.018.063-1.337.513-2.599 1.35-3.787.833-1.196 1.961-2.248 3.385-3.154 1.425-.906 2.855-1.482 4.29-1.729 1.437-.247 2.783-.122 4.038.376 1.247.504 2.304 1.437 3.17 2.8zm-2.736 1.203c-.576-.905-1.261-1.507-2.056-1.804-.794-.298-1.653-.338-2.577-.12-.924.217-1.878.639-2.863 1.266-.984.626-1.768 1.316-2.35 2.07-.589.745-.915 1.533-.979 2.364-.07.822.17 1.664.718 2.526.582.914 1.284 1.523 2.107 1.827.823.303 1.705.36 2.646.169.935-.2 1.868-.596 2.8-1.189.941-.599 1.704-1.282 2.29-2.05.572-.771.9-1.585.984-2.442.08-.865-.16-1.738-.72-2.617zm-.361-5.198l-10.247 6.52.201.316-8.743 5.563-1.762-2.769 18.99-12.083 1.56 2.453zm-6.835-12.809c.806 1.472 1.193 2.941 1.163 4.406a7.778 7.778 0 01-1.284 4.069c-.826 1.248-2.003 2.289-3.53 3.124-1.618.885-3.186 1.35-4.705 1.397-1.523.037-2.907-.31-4.151-1.043-1.244-.733-2.261-1.822-3.051-3.267-.825-1.508-1.175-2.985-1.051-4.431.115-1.44.674-2.774 1.678-4 1-1.235 2.416-2.283 4.25-3.143l1.567 2.866-1.042.57c-1.71.959-2.8 1.983-3.273 3.073-.478 1.08-.362 2.27.348 3.568.785 1.436 1.827 2.267 3.128 2.494 1.3.228 2.804-.126 4.514-1.061 1.627-.89 2.692-1.941 3.193-3.153.492-1.208.365-2.492-.38-3.855-.49-.896-1.113-1.558-1.87-1.987-.772-.434-1.637-.626-2.596-.576l-.646-3.299c1.64-.149 3.147.162 4.518.932 1.362.775 2.436 1.881 3.22 3.316zm-4.12 9.112l-2.235 1.222-5.782-10.573 2.235-1.223 5.782 10.574zm-1.635-19.232L34.572 428.9l-1.417-2.943 20.704-9.965 1.416 2.944zm-6.047-12.826l-23.634 1.236-1.686-4.392L42.3 388.059l1.216 3.167-16.76 13.649-.303-.788 21.56-1.143 1.215 3.166zm-6.103-1.726l-2.86 1.098-4.212-10.973 2.86-1.098 4.212 10.973zm-3.281-26.017c.47 1.545.49 2.955.06 4.229-.44 1.277-1.22 2.38-2.343 3.309-1.123.93-2.492 1.639-4.107 2.13-1.615.491-3.146.667-4.593.53-1.45-.148-2.7-.628-3.754-1.441-1.065-.82-1.83-1.992-2.293-3.518-.46-1.515-.484-2.935-.07-4.259.402-1.331 1.155-2.491 2.26-3.479 1.094-.986 2.454-1.726 4.08-2.22 1.614-.491 3.161-.634 4.639-.429 1.465.197 2.738.731 3.819 1.6 1.078.86 1.845 2.042 2.302 3.548zm1.86 7.734l-21.536 6.542-.954-3.14 9.915-3.013.11.359 11.62-3.53.845 2.782zm-4.554-6.442c-.303-.997-.807-1.742-1.513-2.236-.708-.503-1.54-.784-2.494-.843-.967-.065-1.984.064-3.051.388-1.057.321-1.964.777-2.722 1.366-.76.58-1.293 1.281-1.599 2.103-.305.823-.3 1.752.014 2.789.297.977.782 1.712 1.454 2.205.67.483 1.48.748 2.431.797.949.038 1.981-.112 3.098-.451 1.117-.339 2.058-.789 2.825-1.348.766-.56 1.295-1.238 1.587-2.035.292-.796.282-1.708-.03-2.735zm-5.871-35.862l-22.292 3.111-1.843-13.205 3.236-.451 1.391 9.969 6.285-.877-1.132-8.112 3.25-.454 1.133 8.112 9.52-1.329.452 3.236zM9.562 328.66l-3.16.293-.302-3.252 3.16-.294.302 3.253zm19.563-1.816l-16.809 1.56-.302-3.252 16.809-1.56.302 3.252zm-1.261-19.536l-8.293.352c-.655.028-1.325.114-2.007.258a6.037 6.037 0 00-1.91.706 3.68 3.68 0 00-1.381 1.358c-.341.567-.493 1.298-.455 2.193a4.65 4.65 0 00.367 1.643c.21.513.537.958.98 1.335.443.367 1.018.651 1.726.85.707.189 1.56.262 2.56.22l-.68 2.062c-1.53.065-2.89-.164-4.08-.687-1.202-.522-2.153-1.306-2.854-2.35-.702-1.045-1.085-2.327-1.15-3.847-.049-1.166.097-2.153.438-2.96.341-.807.809-1.468 1.402-1.983a6.64 6.64 0 011.935-1.225c.707-.29 1.403-.497 2.086-.62a13.593 13.593 0 011.805-.218l9.37-.398.14 3.311zm.503 11.853l-16.865.716-.125-2.92 4.873-.207-.017-.391 11.994-.509.14 3.311zm-.064-24.937c-.034 1.25-.291 2.29-.773 3.122-.491.831-1.123 1.455-1.895 1.872a5.138 5.138 0 01-2.549.572c-.854-.023-1.6-.195-2.237-.514a4.34 4.34 0 01-1.605-1.388c-.442-.606-.792-1.345-1.05-2.218a23.967 23.967 0 01-.51-2.562 86.498 86.498 0 01-.387-2.997c-.118-1.056-.235-2.102-.353-3.137l.624 1.206c-1.323-.057-2.31.198-2.96.764-.662.555-1.011 1.536-1.05 2.942a4.884 4.884 0 00.56 2.455c.386.75 1.05 1.284 1.99 1.601l-1.02 3.022c-1.437-.456-2.567-1.279-3.39-2.468-.822-1.201-1.207-2.775-1.154-4.722.04-1.511.337-2.816.888-3.917a4.854 4.854 0 012.504-2.402 5.12 5.12 0 011.763-.453 19.685 19.685 0 011.987-.04l10.39.28-.078 2.891-3.859-.104.515-.549c1.273.733 2.212 1.649 2.819 2.75.596 1.089.872 2.421.83 3.994zm-2.656-.651c.025-.927-.115-1.728-.42-2.403-.316-.676-.723-1.224-1.222-1.644-.5-.42-1.024-.7-1.572-.84a5.627 5.627 0 00-1.68-.342 33.113 33.113 0 00-1.499-.088l.42-1.052c.128 1.036.243 1.977.346 2.824.102.847.206 1.616.313 2.307.096.68.22 1.288.372 1.824.145.452.321.858.53 1.218.21.35.468.633.775.85.307.206.684.316 1.132.328.438.012.847-.087 1.228-.295.37-.209.671-.535.902-.977.23-.442.356-1.012.375-1.71zm3.692-23.417l-8.265-.767a12.279 12.279 0 00-2.023-.016 6.074 6.074 0 00-1.988.444 3.665 3.665 0 00-1.551 1.159c-.415.516-.663 1.22-.746 2.113a4.624 4.624 0 00.143 1.677c.138.536.402 1.021.79 1.455.39.423.922.781 1.596 1.074.675.282 1.51.47 2.507.562l-.95 1.953c-1.526-.142-2.843-.552-3.952-1.231-1.12-.679-1.957-1.584-2.511-2.713s-.761-2.451-.62-3.966c.107-1.162.384-2.12.831-2.874.447-.754.999-1.346 1.656-1.777a6.652 6.652 0 012.082-.953 10.28 10.28 0 012.15-.334c.694-.03 1.3-.021 1.819.028l9.338.866-.306 3.3zm-1.097 11.812l-16.808-1.56.27-2.91 4.856.451.036-.39 11.953 1.11-.307 3.299zm3.398-25.4c-.323 2.027-1.033 3.608-2.131 4.741-1.099 1.134-2.484 1.715-4.156 1.745l.017-3.385a3.38 3.38 0 002.279-1.093c.613-.673 1.008-1.565 1.185-2.676.16-1.009.08-1.829-.241-2.46-.32-.642-.84-1.02-1.56-1.135-.423-.067-.778-.018-1.069.147-.298.153-.617.529-.955 1.13-.338.6-.786 1.526-1.344 2.777-.598 1.371-1.175 2.446-1.732 3.222-.565.765-1.159 1.282-1.782 1.552-.632.259-1.354.323-2.167.194-1.009-.161-1.846-.569-2.512-1.223-.666-.655-1.128-1.499-1.386-2.532-.256-1.043-.28-2.218-.072-3.525.204-1.276.585-2.381 1.145-3.315.56-.934 1.26-1.651 2.1-2.151a4.893 4.893 0 012.754-.701l.076 3.399c-.82-.014-1.513.26-2.078.825-.564.564-.948 1.352-1.151 2.365-.197.971-.159 1.789.115 2.455.264.665.714 1.048 1.352 1.149.37.059.703-.004.996-.189.295-.196.614-.61.957-1.241.343-.631.784-1.574 1.32-2.828.584-1.343 1.162-2.39 1.736-3.143.563-.754 1.176-1.258 1.839-1.511.654-.266 1.408-.33 2.262-.194 1.647.262 2.842 1.069 3.587 2.423.747 1.342.952 3.069.616 5.178zm3.747-21.147l-8.094-1.834a12.241 12.241 0 00-2.005-.278 6.052 6.052 0 00-2.028.181 3.676 3.676 0 00-1.69.948c-.477.458-.815 1.124-1.013 1.998a4.62 4.62 0 00-.076 1.681c.067.55.266 1.065.595 1.545.332.471.813.895 1.443 1.273.632.368 1.436.662 2.412.883l-1.196 1.812c-1.494-.338-2.747-.916-3.758-1.733-1.022-.819-1.734-1.824-2.137-3.016-.404-1.192-.437-2.53-.1-4.013.257-1.138.657-2.052 1.197-2.742.541-.689 1.165-1.205 1.873-1.547a6.65 6.65 0 012.189-.674 10.315 10.315 0 012.175-.052c.691.061 1.291.149 1.8.264l9.146 2.072-.733 3.232zm-2.621 11.57l-21.951-4.974.645-2.85 11.845 2.683.086-.381 10.107 2.29-.732 3.232zm6.271-23.361c-.359 1.198-.88 2.135-1.56 2.812-.692.674-1.465 1.111-2.32 1.312a5.14 5.14 0 01-2.609-.113c-.818-.245-1.494-.605-2.026-1.08a4.336 4.336 0 01-1.186-1.759c-.269-.701-.414-1.505-.435-2.415.006-.781.065-1.65.177-2.606.113-.956.249-1.955.408-2.995.163-1.05.322-2.09.479-3.12l.287 1.327c-1.261-.4-2.28-.412-3.057-.035-.783.363-1.377 1.219-1.78 2.566a4.882 4.882 0 00-.102 2.515c.177.826.678 1.514 1.503 2.066l-1.774 2.65c-1.268-.815-2.143-1.904-2.627-3.267-.48-1.373-.44-2.993.119-4.86.433-1.447 1.06-2.63 1.879-3.548a4.855 4.855 0 013.045-1.666 5.133 5.133 0 011.82.023 19.9 19.9 0 011.928.48l9.957 2.984-.83 2.77-3.698-1.108.64-.396c1.038 1.04 1.706 2.17 2.003 3.391.291 1.207.21 2.565-.241 4.072zm-2.394-1.321c.266-.889.34-1.699.222-2.43-.128-.735-.378-1.37-.75-1.906-.373-.536-.806-.943-1.299-1.221a5.594 5.594 0 00-1.532-.769c-.59-.21-1.064-.368-1.424-.476l.68-.906a872.678 872.678 0 01-.404 2.816 71.58 71.58 0 00-.3 2.309 13.76 13.76 0 00-.116 1.858 6.1 6.1 0 00.194 1.314c.11.393.286.733.525 1.023.243.279.579.483 1.008.612.42.125.84.137 1.262.035.412-.105.787-.34 1.126-.707.338-.366.607-.884.808-1.552zm9.813-21.954l-7.77-2.916a12.288 12.288 0 00-1.949-.547 6.037 6.037 0 00-2.034-.096 3.673 3.673 0 00-1.802.71c-.536.389-.96 1.003-1.275 1.842a4.62 4.62 0 00-.304 1.655 3.444 3.444 0 00.38 1.612c.264.511.683.997 1.256 1.457.577.45 1.334.851 2.27 1.202l-1.43 1.633c-1.435-.538-2.597-1.28-3.489-2.227-.9-.95-1.47-2.043-1.708-3.278-.237-1.236-.089-2.566.446-3.99.41-1.093.93-1.944 1.559-2.554.629-.609 1.318-1.035 2.065-1.278a6.638 6.638 0 012.26-.371c.764.009 1.485.09 2.162.244.677.154 1.259.322 1.747.505l8.78 3.295-1.164 3.102zm-4.168 11.107l-15.804-5.93 1.027-2.737 4.565 1.714.138-.366 11.239 4.217-1.165 3.102zm9.505-22.545c-.65 1.433-1.569 2.509-2.754 3.23-1.181.711-2.513 1.073-3.995 1.086-1.488 0-3-.349-4.537-1.047-1.547-.702-2.798-1.614-3.754-2.734-.965-1.125-1.562-2.369-1.79-3.732-.234-1.376-.023-2.785.632-4.227.659-1.452 1.568-2.51 2.728-3.173 1.154-.678 2.458-.99 3.91-.937 1.457.043 2.953.414 4.49 1.112 1.537.698 2.802 1.581 3.793 2.649.991 1.068 1.621 2.264 1.89 3.588.26 1.319.055 2.714-.613 4.185zm-2.502-1.634c.443-.978.573-1.88.388-2.708-.185-.828-.62-1.569-1.307-2.224-.687-.656-1.562-1.224-2.624-1.707-1.063-.482-2.07-.762-3.019-.838-.945-.086-1.783.071-2.514.471-.727.391-1.302 1.052-1.724 1.982-.448.986-.574 1.907-.379 2.763.195.855.63 1.625 1.304 2.308.678.675 1.52 1.24 2.525 1.697 1.015.461 2.005.727 2.968.798.958.057 1.82-.112 2.583-.509.768-.407 1.368-1.085 1.799-2.033zm4.156-3.143l-11.058-5.021-.155.341-9.436-4.284 1.357-2.989 20.494 9.306-1.202 2.647zm7.403-13.56c-.799 1.475-1.822 2.597-3.069 3.367a7.777 7.777 0 01-4.115 1.13c-1.496-.017-3.009-.44-4.539-1.269-1.621-.879-2.864-1.944-3.727-3.194-.858-1.259-1.317-2.61-1.376-4.053-.06-1.443.303-2.888 1.087-4.335.82-1.512 1.87-2.608 3.151-3.288 1.273-.685 2.696-.939 4.27-.761 1.58.169 3.229.79 4.947 1.863l-1.557 2.872-1.044-.566c-1.733-.915-3.185-1.276-4.357-1.081-1.167.185-2.103.928-2.808 2.229-.78 1.438-.912 2.765-.398 3.98.515 1.215 1.63 2.287 3.342 3.216 1.63.884 3.091 1.207 4.381.97 1.281-.242 2.292-1.045 3.031-2.41.487-.898.705-1.781.654-2.65-.054-.883-.362-1.714-.924-2.493l2.42-2.333c1.015 1.297 1.572 2.731 1.669 4.301.088 1.565-.258 3.066-1.037 4.505zm-9.889 1.484l-2.24-1.214 5.743-10.595 2.24 1.214-5.743 10.595zm14.866-11.213l-19.652-11.904 1.692-2.794 19.653 11.904-1.693 2.794zm8.038-12.999l-13.898-19.156 2.767-3.805 22.505 7.325-1.995 2.743-20.572-6.634.497-.682 12.692 17.466-1.996 2.743zm-1.873-6.06l-2.478-1.802 6.914-9.505 2.478 1.802-6.914 9.505zm19.47-16.259c-1.038 1.237-2.209 2.023-3.51 2.359-1.31.329-2.661.277-4.052-.156-1.392-.433-2.734-1.192-4.027-2.277-1.293-1.085-2.277-2.271-2.952-3.558-.668-1.295-.949-2.606-.843-3.932.105-1.34.67-2.621 1.694-3.842 1.018-1.214 2.195-2.008 3.53-2.384 1.335-.39 2.717-.393 4.15-.008 1.423.379 2.785 1.114 4.086 2.206 1.293 1.085 2.258 2.302 2.893 3.652.635 1.335.883 2.693.745 4.073-.131 1.372-.703 2.661-1.714 3.867zm-5.463 5.781l-17.242-14.468 2.11-2.515 7.938 6.661-.24.288 9.302 7.807L86 131.314zm2.908-7.333c.67-.798 1.02-1.628 1.048-2.488.035-.869-.184-1.719-.656-2.55-.474-.846-1.137-1.628-1.991-2.344-.847-.71-1.723-1.222-2.63-1.534-.902-.321-1.78-.385-2.636-.191-.856.193-1.632.704-2.329 1.535-.656.782-1.007 1.589-1.052 2.422-.04.824.18 1.648.66 2.471.485.816 1.175 1.599 2.069 2.349.894.75 1.785 1.294 2.672 1.63.887.337 1.744.41 2.57.219.827-.191 1.585-.697 2.275-1.519zm27.402-25.178L101.53 81.827l10.056-8.755 2.145 2.464-7.592 6.61 4.167 4.786 6.177-5.378 2.155 2.476-6.177 5.378 6.312 7.25-2.464 2.145zm.108-25.903l-1.977-2.482 2.555-2.035 1.977 2.482-2.555 2.035zm12.241 15.368L118.14 75.064l2.555-2.035 10.518 13.203-2.555 2.036zm16.005-12.042l-4.833-6.747a12.367 12.367 0 00-1.314-1.54 6.056 6.056 0 00-1.637-1.21 3.67 3.67 0 00-1.892-.414c-.662.025-1.356.298-2.085.82-.474.34-.866.742-1.174 1.206a3.454 3.454 0 00-.581 1.551c-.065.572.013 1.208.233 1.91.229.694.634 1.448 1.217 2.262l-2.098.56c-.892-1.245-1.445-2.509-1.658-3.791-.22-1.291-.085-2.516.405-3.675.491-1.159 1.354-2.18 2.591-3.067.949-.68 1.854-1.097 2.716-1.253.863-.157 1.672-.127 2.428.087a6.63 6.63 0 012.083.95c.631.432 1.185.9 1.661 1.405.477.505.867.969 1.17 1.392l5.461 7.624-2.693 1.93zm-9.645 6.909l-9.83-13.724 2.377-1.702 2.839 3.965.318-.228 6.99 9.759-2.694 1.93zm19.577-12.922c-1.062.66-2.073 1.018-3.032 1.073-.964.047-1.833-.137-2.606-.552a5.146 5.146 0 01-1.88-1.814c-.451-.725-.718-1.443-.802-2.15a4.34 4.34 0 01.276-2.104c.263-.703.688-1.402 1.274-2.097a24.093 24.093 0 011.859-1.836c.718-.641 1.481-1.3 2.289-1.973.817-.679 1.626-1.352 2.425-2.02l-.663 1.184c-.68-1.136-1.436-1.82-2.267-2.051-.827-.247-1.839 0-3.034.743a4.89 4.89 0 00-1.742 1.817c-.414.736-.495 1.583-.242 2.543l-3.084.81c-.41-1.45-.345-2.846.196-4.187.549-1.347 1.652-2.535 3.307-3.563 1.284-.797 2.537-1.268 3.759-1.413a4.857 4.857 0 013.384.769c.522.326.971.734 1.348 1.223.378.49.753 1.035 1.127 1.637l5.483 8.83-2.457 1.526-2.036-3.28.742.128c.088 1.466-.16 2.755-.746 3.866-.582 1.098-1.541 2.061-2.878 2.891zm-.918-2.575c.788-.49 1.38-1.047 1.776-1.674.39-.635.624-1.276.7-1.924.076-.649.021-1.24-.164-1.775a5.592 5.592 0 00-.638-1.591c-.303-.548-.554-.98-.752-1.3l1.109-.228c-.794.677-1.516 1.29-2.167 1.842a71.256 71.256 0 00-1.754 1.531 13.7 13.7 0 00-1.318 1.315c-.298.37-.54.74-.726 1.113a2.75 2.75 0 00-.283 1.114c-.003.37.113.745.349 1.126.231.372.539.66.922.863.379.194.816.266 1.312.216.496-.05 1.041-.26 1.634-.628zm21.452-9.753l-3.901-7.326a12.243 12.243 0 00-1.099-1.699 6.045 6.045 0 00-1.463-1.417 3.668 3.668 0 00-1.821-.66c-.659-.061-1.384.118-2.175.54a4.612 4.612 0 00-1.322 1.04 3.45 3.45 0 00-.781 1.46c-.14.559-.146 1.2-.021 1.924.135.72.438 1.52.908 2.403l-2.153.28c-.72-1.353-1.102-2.679-1.144-3.978-.048-1.309.248-2.505.887-3.589.638-1.084 1.629-1.983 2.972-2.699 1.03-.548 1.983-.843 2.858-.884.875-.041 1.674.094 2.395.407a6.654 6.654 0 011.94 1.216c.568.512 1.055 1.05 1.461 1.612.406.563.731 1.075.976 1.535l4.408 8.277-2.925 1.558zm-10.471 5.576l-7.934-14.9 2.58-1.374 2.292 4.305.345-.184 5.642 10.596-2.925 1.557zm23.659-11.416c-1.872.842-3.584 1.115-5.134.818-1.55-.297-2.796-1.137-3.737-2.519l2.839-1.842a3.382 3.382 0 002.164 1.306c.899.145 1.862-.014 2.888-.475.931-.42 1.573-.936 1.925-1.551.361-.62.392-1.262.093-1.927-.175-.39-.411-.66-.708-.813-.292-.166-.781-.226-1.469-.18-.687.047-1.707.18-3.059.4-1.475.251-2.69.358-3.644.318-.95-.053-1.708-.266-2.276-.639-.562-.387-1.012-.956-1.35-1.707-.419-.931-.537-1.855-.354-2.77.182-.917.634-1.765 1.357-2.547.732-.786 1.701-1.45 2.908-1.994 1.178-.53 2.312-.816 3.4-.86 1.089-.044 2.072.148 2.95.576.874.418 1.573 1.058 2.097 1.92l-2.801 1.927c-.438-.694-1.047-1.123-1.829-1.286-.781-.162-1.651-.051-2.609.334-.92.368-1.584.849-1.99 1.443-.412.585-.485 1.172-.22 1.761.154.342.389.585.705.729.325.139.846.179 1.562.12.716-.06 1.746-.208 3.089-.447 1.443-.248 2.636-.34 3.58-.272.939.057 1.697.293 2.272.709.581.402 1.048.997 1.403 1.786.683 1.52.664 2.963-.059 4.328-.714 1.36-2.045 2.478-3.993 3.354zm18.873-8.16l-2.916-7.77a12.19 12.19 0 00-.869-1.828 6.055 6.055 0 00-1.266-1.595 3.671 3.671 0 00-1.72-.89c-.645-.148-1.387-.064-2.226.25a4.615 4.615 0 00-1.447.86 3.455 3.455 0 00-.964 1.347c-.211.535-.301 1.17-.27 1.905.04.73.236 1.564.587 2.5l-2.171-.003c-.538-1.434-.744-2.798-.617-4.092.123-1.304.571-2.452 1.345-3.443.775-.992 1.874-1.755 3.298-2.29 1.093-.41 2.076-.578 2.949-.505.874.073 1.647.311 2.322.715.68.39 1.269.876 1.766 1.457a10.27 10.27 0 011.238 1.79c.33.61.586 1.16.769 1.647l3.295 8.78-3.103 1.165zm-11.107 4.168l-7.907-21.073 2.737-1.027 4.266 11.37.366-.137 3.64 9.703-3.102 1.164zm22.848-7.615c-1.198.359-2.267.44-3.207.243-.943-.207-1.733-.612-2.371-1.215a5.142 5.142 0 01-1.341-2.241c-.245-.819-.316-1.58-.212-2.287a4.353 4.353 0 01.817-1.958c.437-.61 1.03-1.173 1.778-1.69a23.927 23.927 0 012.274-1.286 87.556 87.556 0 012.725-1.306c.967-.442 1.923-.88 2.869-1.317l-.949.97c-.36-1.274-.911-2.131-1.652-2.572-.735-.455-1.776-.48-3.123-.076a4.887 4.887 0 00-2.157 1.299c-.592.601-.891 1.398-.899 2.39l-3.188-.023c-.017-1.507.411-2.838 1.284-3.991.883-1.157 2.257-2.015 4.124-2.574 1.447-.434 2.78-.561 3.997-.382a4.857 4.857 0 013.066 1.627c.418.451.745.962.981 1.533.237.571.457 1.196.66 1.875l2.984 9.956-2.77.83-1.109-3.698.683.318c-.298 1.438-.875 2.617-1.73 3.537-.849.907-2.027 1.586-3.534 2.038zm-.213-2.726c.888-.267 1.605-.65 2.151-1.15.544-.512.936-1.07 1.179-1.676.243-.606.345-1.19.306-1.756a5.588 5.588 0 00-.2-1.702 30.44 30.44 0 00-.386-1.45l1.131.068c-.944.446-1.802.85-2.574 1.212a69.04 69.04 0 00-2.094 1.02c-.616.303-1.154.611-1.615.924a6.117 6.117 0 00-.992.884 2.765 2.765 0 00-.564 1.002c-.1.356-.086.749.043 1.178.125.42.347.777.664 1.074.314.286.718.47 1.21.55.492.082 1.072.022 1.741-.178zm24.077-4.002l-1.834-8.095a12.222 12.222 0 00-.613-1.928 6.049 6.049 0 00-1.038-1.753 3.671 3.671 0 00-1.583-1.115c-.619-.234-1.366-.252-2.24-.054a4.62 4.62 0 00-1.55.656 3.45 3.45 0 00-1.138 1.203c-.281.502-.457 1.119-.526 1.85-.059.73.022 1.582.243 2.558l-2.151-.298c-.339-1.494-.357-2.873-.056-4.138.298-1.275.899-2.352 1.8-3.229.902-.877 2.095-1.484 3.578-1.82 1.139-.258 2.135-.292 2.991-.1.855.19 1.589.531 2.203 1.022a6.652 6.652 0 011.551 1.684c.413.644.741 1.29.985 1.94.243.65.422 1.23.538 1.738l2.072 9.146-3.232.733zm-11.57 2.621l-3.73-16.463 2.851-.646 1.077 4.756.381-.086 2.653 11.707-3.232.732zm24.4-4.538c-1.555.241-2.959.064-4.211-.533-1.242-.598-2.276-1.513-3.1-2.745-.815-1.245-1.352-2.7-1.611-4.369-.261-1.678-.184-3.225.229-4.639.412-1.424 1.125-2.605 2.139-3.543 1.023-.95 2.317-1.546 3.882-1.789 1.576-.244 2.959-.064 4.149.542 1.2.595 2.176 1.513 2.928 2.757.762 1.242 1.272 2.697 1.531 4.365.259 1.668.214 3.21-.136 4.624-.35 1.415-1.004 2.597-1.964 3.548-.961.94-2.24 1.534-3.836 1.782zm-.005-2.99c1.06-.164 1.886-.55 2.477-1.159.591-.608.972-1.38 1.144-2.313.171-.933.167-1.976-.012-3.13-.179-1.153-.497-2.148-.953-2.984-.447-.837-1.038-1.452-1.774-1.844-.725-.393-1.592-.512-2.601-.355-1.071.166-1.911.565-2.519 1.198-.609.632-1.014 1.417-1.216 2.355-.192.937-.204 1.951-.034 3.043.171 1.101.491 2.075.959 2.92.478.832 1.092 1.46 1.842 1.88.762.42 1.657.55 2.687.39zm4.906 1.754l-1.863-12-.37.057-1.59-10.24 3.243-.504 3.453 22.241-2.873.446zm15.194-1.267c-1.671.141-3.171-.097-4.5-.716a7.777 7.777 0 01-3.204-2.818c-.808-1.26-1.286-2.756-1.433-4.49-.157-1.838.05-3.46.621-4.869.581-1.408 1.458-2.534 2.63-3.376 1.173-.843 2.58-1.334 4.22-1.473 1.714-.146 3.206.13 4.479.827 1.271.687 2.265 1.737 2.981 3.15.727 1.413 1.114 3.132 1.161 5.157l-3.255.277-.101-1.184c-.187-1.95-.683-3.362-1.49-4.234-.796-.874-1.931-1.248-3.405-1.123-1.63.14-2.811.757-3.544 1.855-.733 1.098-1.017 2.617-.852 4.559.157 1.848.689 3.246 1.596 4.194.906.937 2.132 1.34 3.679 1.208 1.018-.086 1.876-.39 2.574-.909.708-.53 1.233-1.245 1.575-2.142l3.279.741c-.526 1.561-1.419 2.814-2.677 3.757-1.259.933-2.704 1.47-4.334 1.608zm-6.673-7.45l-.216-2.538 12.008-1.021.216 2.539-12.008 1.02zm19.007 6.178l-.798-22.963 3.265-.113.798 22.962-3.265.114zm15.599-.384l8.434-22.112 4.699.236 6.177 22.846-3.387-.17-5.699-20.85.843.042-7.68 20.178-3.387-.17zm4.048-4.883l.154-3.06 11.739.59-.154 3.06-11.739-.59zm24.131 7.385c-1.604-.192-2.902-.742-3.895-1.648-.992-.917-1.688-2.076-2.086-3.478-.399-1.402-.497-2.94-.296-4.616.201-1.676.656-3.149 1.365-4.418.719-1.267 1.662-2.22 2.83-2.856 1.179-.645 2.56-.873 4.143-.683 1.573.189 2.882.74 3.927 1.652 1.056.904 1.815 2.06 2.275 3.469.462 1.399.592 2.941.389 4.628-.201 1.676-.693 3.15-1.475 4.42-.771 1.26-1.771 2.211-3.003 2.85-1.221.641-2.612.868-4.174.68zm-7.828-1.412l2.683-22.347 3.259.391-1.236 10.29-.372-.046-1.447 12.059-2.887-.347zm7.73-1.575c1.034.124 1.92-.037 2.655-.484.747-.446 1.339-1.094 1.776-1.944.45-.859.741-1.842.874-2.949.132-1.096.08-2.11-.154-3.04-.225-.93-.652-1.7-1.282-2.311-.629-.611-1.482-.981-2.558-1.11-1.014-.122-1.882.025-2.604.443-.711.418-1.281 1.053-1.708 1.904-.417.852-.696 1.858-.835 3.017-.139 1.159-.106 2.201.097 3.128.204.927.611 1.685 1.223 2.273.612.587 1.45.945 2.516 1.073zm35.504 9.005l6.134-21.655 12.828 3.633-.89 3.143-9.685-2.743-1.73 6.106 7.881 2.232-.895 3.158-7.88-2.232-2.62 9.249-3.143-.89zm22.29-13.91l1.002-3.01 3.1 1.031-1.002 3.011-3.1-1.032zm-6.206 18.642l5.332-16.017 3.1 1.032-5.332 16.016-3.1-1.031zm19.343 7.056l3.032-7.726c.239-.611.432-1.258.576-1.94.158-.688.2-1.365.126-2.032a3.67 3.67 0 00-.682-1.813c-.381-.541-.989-.975-1.823-1.303a4.62 4.62 0 00-1.651-.329 3.453 3.453 0 00-1.617.356c-.515.257-1.007.669-1.475 1.235-.459.57-.871 1.32-1.236 2.252l-1.612-1.456c.56-1.425 1.319-2.577 2.279-3.454.964-.887 2.065-1.44 3.304-1.659 1.239-.219 2.566-.05 3.983.505 1.086.427 1.929.96 2.529 1.598.601.638 1.016 1.333 1.248 2.084.244.746.357 1.5.337 2.265a10.32 10.32 0 01-.276 2.158 13.677 13.677 0 01-.532 1.74l-3.426 8.73-3.084-1.21zm-11.044-4.334l6.167-15.714 2.721 1.068-1.782 4.54.364.142-4.385 11.175-3.085-1.21zm21.822 9.566c-1.131-.533-1.98-1.188-2.547-1.963-.563-.784-.88-1.614-.951-2.489a5.13 5.13 0 01.501-2.563c.365-.773.822-1.386 1.371-1.842a4.339 4.339 0 011.916-.91c.733-.16 1.551-.184 2.453-.069.772.122 1.622.31 2.551.565.928.254 1.895.538 2.899.85 1.014.318 2.019.63 3.014.94l-1.355.086c.584-1.188.748-2.194.492-3.018-.243-.829-1-1.543-2.272-2.144a4.882 4.882 0 00-2.472-.476c-.842.052-1.598.444-2.266 1.177l-2.356-2.15c.995-1.131 2.203-1.834 3.623-2.109 1.43-.27 3.025.012 4.787.843 1.367.646 2.443 1.442 3.228 2.389a4.861 4.861 0 011.193 3.26 5.123 5.123 0 01-.296 1.796c-.205.582-.46 1.194-.762 1.835l-4.438 9.4-2.615-1.236 1.648-3.49.296.692c-1.183.87-2.4 1.361-3.652 1.474-1.237.107-2.567-.176-3.99-.848zm1.664-2.17c.839.396 1.628.59 2.369.583.746-.016 1.411-.169 1.997-.457.585-.288 1.052-.655 1.401-1.102.374-.376.704-.843.989-1.4.296-.551.523-.997.684-1.336l.794.807c-1-.299-1.908-.572-2.725-.82a71.388 71.388 0 00-2.237-.641 13.774 13.774 0 00-1.82-.393 6.12 6.12 0 00-1.329-.005 2.756 2.756 0 00-1.089.367c-.313.198-.565.5-.756.905-.187.396-.261.81-.224 1.243.043.423.22.83.531 1.218.312.39.784.733 1.415 1.031zm19.929 12.799l4.036-7.253c.319-.573.596-1.188.83-1.845.248-.661.38-1.327.396-1.998a3.66 3.66 0 00-.435-1.887c-.305-.587-.849-1.099-1.632-1.535a4.628 4.628 0 00-1.592-.546 3.453 3.453 0 00-1.651.137c-.544.186-1.086.528-1.626 1.027-.531.504-1.039 1.192-1.526 2.066l-1.403-1.657c.745-1.338 1.651-2.378 2.72-3.12 1.073-.75 2.238-1.15 3.495-1.202 1.257-.052 2.551.292 3.88 1.032 1.02.567 1.784 1.208 2.294 1.92.51.713.829 1.457.958 2.233a6.65 6.65 0 01.032 2.29 10.236 10.236 0 01-.562 2.101 13.608 13.608 0 01-.758 1.653l-4.561 8.195-2.895-1.611zm-10.366-5.769l8.208-14.75 2.554 1.42-2.372 4.262.342.19-5.837 10.49-2.895-1.612zm20.703 12.594c-1.728-1.108-2.891-2.393-3.489-3.853-.598-1.461-.575-2.963.068-4.507l3.094 1.372a3.383 3.383 0 00.088 2.526c.37.832 1.029 1.552 1.976 2.16.86.55 1.643.806 2.351.764.716-.035 1.271-.36 1.665-.974.23-.36.328-.706.294-1.037-.021-.335-.238-.778-.653-1.328-.414-.551-1.083-1.333-2.005-2.345-1.017-1.098-1.769-2.058-2.258-2.878-.474-.825-.71-1.576-.707-2.256.016-.682.247-1.37.691-2.063.552-.86 1.261-1.463 2.128-1.81.866-.348 1.825-.433 2.874-.255 1.058.184 2.144.633 3.258 1.347 1.088.698 1.947 1.49 2.579 2.378.631.888 1.007 1.816 1.129 2.785a4.908 4.908 0 01-.462 2.805l-3.145-1.293c.342-.746.368-1.49.078-2.234-.291-.743-.859-1.411-1.705-2.003-.811-.57-1.576-.863-2.296-.879-.715-.025-1.246.235-1.595.778a1.386 1.386 0 00-.225.989c.061.348.312.806.752 1.374.441.567 1.128 1.348 2.062 2.344.996 1.072 1.724 2.021 2.184 2.849.465.818.681 1.582.647 2.29-.019.706-.262 1.423-.729 2.151-.9 1.403-2.119 2.175-3.658 2.315-1.529.145-3.193-.359-4.991-1.512zm18.422 12.252l4.931-6.676c.39-.528.743-1.102 1.06-1.724a6.032 6.032 0 00.648-1.93c.11-.657.047-1.3-.189-1.928-.227-.621-.701-1.198-1.422-1.73a4.637 4.637 0 00-1.509-.746 3.454 3.454 0 00-1.655-.076c-.564.115-1.145.385-1.744.81-.591.432-1.184 1.05-1.778 1.855l-1.179-1.824c.91-1.232 1.942-2.147 3.096-2.745 1.161-.607 2.368-.855 3.621-.746 1.253.11 2.492.617 3.716 1.52.938.694 1.615 1.427 2.029 2.2.414.772.635 1.55.664 2.336a6.667 6.667 0 01-.261 2.275 10.304 10.304 0 01-.827 2.013 13.537 13.537 0 01-.964 1.542l-5.572 7.543-2.665-1.969zm-9.542-7.048l13.372-18.105 2.351 1.737-7.215 9.769.314.232-6.157 8.335-2.665-1.968zm19.693 15.766c-.952-.81-1.601-1.664-1.946-2.56-.339-.905-.428-1.788-.268-2.651a5.136 5.136 0 011.154-2.344c.554-.65 1.155-1.123 1.804-1.42a4.34 4.34 0 012.088-.377c.749.036 1.544.227 2.385.574.713.32 1.485.723 2.315 1.211.83.488 1.689 1.014 2.577 1.579.895.571 1.783 1.136 2.663 1.694l-1.33-.27c.874-.995 1.295-1.923 1.263-2.785-.018-.864-.562-1.751-1.633-2.664a4.882 4.882 0 00-2.261-1.104c-.827-.17-1.659.01-2.496.543l-1.712-2.69c1.256-.832 2.605-1.196 4.048-1.09 1.45.114 2.917.802 4.401 2.065 1.15.98 1.981 2.03 2.492 3.149a4.858 4.858 0 01.299 3.457 5.123 5.123 0 01-.754 1.657 19.533 19.533 0 01-1.216 1.573l-6.739 7.913-2.201-1.875 2.503-2.939.104.746c-1.369.53-2.672.687-3.91.468-1.222-.22-2.432-.84-3.63-1.86zm2.173-1.66c.706.601 1.418.995 2.135 1.182.724.178 1.406.205 2.046.08.641-.126 1.188-.358 1.641-.697.459-.266.899-.63 1.32-1.093.43-.456.766-.826 1.009-1.112l.556.987c-.887-.55-1.692-1.051-2.416-1.503a71.702 71.702 0 00-1.992-1.204 13.745 13.745 0 00-1.654-.855 6.142 6.142 0 00-1.281-.352 2.762 2.762 0 00-1.148.07c-.353.11-.675.335-.966.677a2.378 2.378 0 00-.54 1.14c-.07.42-.005.858.194 1.316.199.457.564.912 1.096 1.364zm15.705 17.369l5.783-5.953c.457-.471.884-.993 1.281-1.566a6.024 6.024 0 00.902-1.826 3.675 3.675 0 00.072-1.936c-.142-.646-.535-1.281-1.178-1.906a4.612 4.612 0 00-1.395-.941 3.45 3.45 0 00-1.629-.297c-.574.038-1.187.227-1.838.568-.643.349-1.313.882-2.01 1.6l-.924-1.966c1.067-1.099 2.213-1.867 3.437-2.305 1.231-.445 2.461-.53 3.688-.252 1.227.276 2.387.945 3.478 2.005.837.813 1.409 1.63 1.716 2.451.306.821.421 1.623.344 2.405a6.618 6.618 0 01-.565 2.219 10.272 10.272 0 01-1.089 1.884 13.596 13.596 0 01-1.162 1.398l-6.534 6.727-2.377-2.309zm-8.51-8.266l11.762-12.108 2.097 2.036-3.398 3.498.28.273-8.364 8.61-2.377-2.308zm17.537 18.459c-1.051-1.171-1.668-2.445-1.851-3.82-.176-1.367.028-2.732.611-4.095.598-1.362 1.526-2.607 2.783-3.733 1.264-1.134 2.602-1.914 4.012-2.338 1.419-.432 2.797-.479 4.137-.14 1.354.34 2.559 1.099 3.616 2.278 1.065 1.187 1.668 2.445 1.809 3.774.156 1.329-.082 2.648-.714 3.957-.625 1.316-1.566 2.538-2.823 3.664-1.257 1.127-2.574 1.93-3.95 2.408-1.377.479-2.725.575-4.045.289-1.312-.293-2.507-1.041-3.585-2.244zm2.502-1.634c.716.799 1.49 1.28 2.323 1.444.832.163 1.686.062 2.562-.303.876-.366 1.748-.938 2.617-1.717.869-.779 1.53-1.588 1.981-2.427.459-.831.652-1.661.579-2.492-.066-.822-.44-1.614-1.121-2.374-.724-.807-1.516-1.293-2.378-1.458-.862-.165-1.741-.077-2.638.265-.889.35-1.746.894-2.568 1.631-.83.744-1.471 1.543-1.924 2.397-.438.854-.628 1.711-.572 2.57.064.867.443 1.688 1.139 2.464zm1.206 5.069l9.043-8.107-.25-.28 7.715-6.917 2.192 2.444-16.759 15.024-1.941-2.164zm9.359 12.123c-1.031-1.324-1.649-2.711-1.855-4.162a7.786 7.786 0 01.614-4.223c.615-1.364 1.609-2.581 2.982-3.65 1.455-1.133 2.928-1.845 4.419-2.135 1.498-.282 2.92-.16 4.265.363 1.346.524 2.525 1.435 3.536 2.734 1.057 1.356 1.64 2.758 1.75 4.205.118 1.44-.221 2.846-1.015 4.217-.787 1.38-2.017 2.641-3.689 3.785l-2.007-2.577.937-.73c1.533-1.22 2.445-2.406 2.737-3.558.298-1.144-.008-2.299-.917-3.466-1.005-1.291-2.168-1.944-3.488-1.96-1.319-.015-2.748.576-4.285 1.773-1.463 1.14-2.345 2.348-2.645 3.625-.291 1.271.04 2.518.994 3.743.628.806 1.349 1.36 2.166 1.662.831.303 1.715.354 2.654.151l1.167 3.153c-1.595.41-3.131.345-4.609-.195-1.469-.546-2.706-1.465-3.711-2.755zm2.603-9.656l2.01-1.565 7.405 9.507-2.01 1.566-7.405-9.508zm4.27 18.058l18.776-13.243 1.883 2.669-18.776 13.243-1.883-2.669zm7.908 11.318l23.1-5.15 2.392 4.051-15.658 17.746-1.725-2.92 14.257-16.247.429.727-21.07 4.714-1.725-2.921zm6.306.687l2.637-1.558 5.979 10.12-2.638 1.558-5.978-10.12zm8.03 25.958c-.717-1.448-.967-2.835-.752-4.162.224-1.332.814-2.548 1.769-3.649s2.188-2.026 3.701-2.775c1.513-.749 2.994-1.174 4.444-1.275 1.454-.092 2.767.176 3.939.805 1.186.634 2.133 1.665 2.84 3.094.703 1.42.958 2.816.766 4.19-.178 1.379-.73 2.647-1.657 3.803-.918 1.153-2.138 2.105-3.661 2.859-1.512.749-3.015 1.144-4.506 1.184-1.477.046-2.821-.272-4.029-.952-1.205-.671-2.156-1.712-2.854-3.122zm-3.103-7.324l20.171-9.986 1.457 2.941-9.287 4.598-.167-.336-10.884 5.388-1.29-2.605zm5.549 5.607c.463.934 1.082 1.586 1.859 1.958.781.38 1.648.521 2.599.422.965-.094 1.947-.388 2.946-.883.99-.49 1.81-1.088 2.461-1.794.655-.696 1.066-1.475 1.232-2.336.167-.862.009-1.778-.471-2.749-.453-.916-1.052-1.561-1.796-1.937-.74-.366-1.583-.495-2.529-.387-.942.117-1.936.435-2.982.953-1.045.517-1.901 1.115-2.565 1.793-.664.678-1.075 1.433-1.232 2.267-.157.833.002 1.731.478 2.693zm11.838 34.764l21.486-6.705 3.972 12.727-3.119.973-2.998-9.609-6.058 1.891 2.44 7.818-3.133.978-2.44-7.818-9.176 2.863-.974-3.118zm23.828 11.129l3.068-.807.831 3.16-3.069.806-.83-3.159zm-19.002 4.995l16.326-4.292.831 3.16-16.327 4.291-.83-3.159zm4.357 18.652l8.121-1.71c.643-.136 1.289-.33 1.938-.584a6.054 6.054 0 001.768-1.011 3.67 3.67 0 001.139-1.566c.244-.616.273-1.362.088-2.239a4.621 4.621 0 00-.632-1.56 3.448 3.448 0 00-1.186-1.156c-.497-.289-1.111-.474-1.842-.554-.728-.071-1.582-.003-2.56.203l.33-2.146c1.499-.315 2.879-.313 4.139.007 1.27.318 2.337.935 3.201 1.85.863.915 1.452 2.117 1.765 3.605.241 1.142.259 2.139.055 2.992-.204.852-.556 1.581-1.057 2.187a6.655 6.655 0 01-1.707 1.526c-.65.403-1.302.721-1.955.954a13.71 13.71 0 01-1.745.512l-9.177 1.932-.683-3.242zm-2.445-11.609l16.518-3.479.603 2.86-4.772 1.005.08.383-11.746 2.474-.683-3.243zm3.913 22.943c-.177-1.237-.099-2.307.235-3.207.344-.902.862-1.624 1.552-2.165a5.132 5.132 0 012.416-.994c.846-.122 1.61-.079 2.292.129a4.334 4.334 0 011.816 1.097c.538.523 1.008 1.193 1.409 2.009.323.711.635 1.525.934 2.44.3.914.596 1.877.888 2.888.294 1.021.587 2.032.878 3.032l-.819-1.082c1.313-.168 2.243-.585 2.789-1.253.558-.659.737-1.685.537-3.078a4.87 4.87 0 00-.965-2.324c-.507-.675-1.251-1.089-2.231-1.243l.496-3.151c1.492.207 2.745.828 3.756 1.861 1.013 1.045 1.658 2.531 1.935 4.46.215 1.496.143 2.832-.214 4.01a4.86 4.86 0 01-2.063 2.791 5.123 5.123 0 01-1.662.743c-.6.15-1.25.275-1.951.375l-10.289 1.477-.411-2.863 3.822-.548-.416.628c-1.378-.508-2.458-1.253-3.242-2.235-.771-.974-1.268-2.239-1.492-3.797zm2.728.193c.132.918.405 1.684.819 2.299.425.612.919 1.084 1.482 1.413.563.33 1.127.518 1.692.563.52.104 1.091.122 1.713.054.623-.058 1.12-.113 1.492-.167l-.236 1.108a752.51 752.51 0 01-.817-2.725 73.475 73.475 0 00-.698-2.221 13.946 13.946 0 00-.675-1.735 6.134 6.134 0 00-.728-1.111 2.757 2.757 0 00-.907-.707c-.338-.152-.728-.196-1.172-.132-.433.062-.82.228-1.16.498-.33.269-.571.64-.724 1.115-.153.474-.18 1.057-.081 1.748zm.376 24.729l8.278-.607a12.199 12.199 0 001.998-.32 6.04 6.04 0 001.887-.765 3.658 3.658 0 001.339-1.399c.324-.578.453-1.313.387-2.207a4.63 4.63 0 00-.418-1.631 3.458 3.458 0 00-1.02-1.304c-.454-.353-1.038-.618-1.751-.796-.712-.167-1.567-.214-2.565-.141l.615-2.082c1.528-.112 2.894.075 4.1.561 1.217.485 2.191 1.239 2.925 2.261.733 1.022 1.155 2.292 1.267 3.81.085 1.163-.03 2.154-.346 2.971-.316.818-.763 1.493-1.34 2.026a6.638 6.638 0 01-1.896 1.284c-.698.312-1.387.54-2.066.684-.679.144-1.278.235-1.798.273l-9.353.687-.243-3.305zm-.868-11.831l16.835-1.236.214 2.915-4.863.357.028.39-11.972.879-.242-3.305z" fill="#EFEFEF"/></svg>