<svg width="265" height="265" fill="none" xmlns="http://www.w3.org/2000/svg"><path d="M251.974 133.079l10.796.292-.172 6.395-1.567-.042.13-4.828-3.044-.083-.106 3.929-1.574-.043.106-3.928-4.611-.125.042-1.567zm9.1 8.318l1.518.112-.115 1.563-1.518-.112.115-1.563zm-9.402-.69l8.078.593-.115 1.563-8.078-.593.115-1.563zm-.927 8.972l3.952.49c.313.039.636.051.97.038.339-.009.659-.07.96-.184.301-.109.555-.286.762-.533.206-.241.335-.575.388-1.002.035-.278.02-.547-.043-.807a1.663 1.663 0 00-.358-.709 2.243 2.243 0 00-.75-.539c-.319-.145-.717-.247-1.193-.306l.484-.923c.73.091 1.355.307 1.877.649.527.342.915.788 1.164 1.338.25.55.329 1.187.24 1.911-.069.556-.216 1.011-.442 1.366a2.555 2.555 0 01-.82.828 3.17 3.17 0 01-1.013.426 4.9 4.9 0 01-1.036.129 6.51 6.51 0 01-.872-.04l-4.466-.554.196-1.578zm.7-5.649l8.039.997-.173 1.391-2.322-.287-.023.186-5.716-.709.195-1.578zm-1.729 10.378c.112-.589.315-1.062.607-1.419a2.35 2.35 0 011.042-.74 2.46 2.46 0 011.251-.074c.403.077.743.215 1.02.416.277.2.495.461.653.781.162.321.271.698.326 1.131.036.373.05.791.044 1.253a42.19 42.19 0 01-.048 1.449 509.11 509.11 0 00-.075 1.513l-.202-.619c.622.129 1.109.084 1.461-.134.356-.212.597-.649.723-1.312a2.34 2.34 0 00-.075-1.206c-.125-.385-.398-.689-.819-.912l.716-1.352a3.029 3.029 0 011.415 1.43c.297.632.358 1.407.182 2.326-.135.712-.376 1.307-.722 1.786a2.337 2.337 0 01-1.371.945c-.285.078-.575.104-.87.078a9.382 9.382 0 01-.944-.134l-4.9-.935.26-1.363 1.82.348-.286.22c-.547-.445-.921-.952-1.123-1.52-.198-.562-.227-1.214-.085-1.956zm1.208.513c-.084.437-.079.828.013 1.171.097.344.248.635.452.873.204.237.431.41.68.519a2.7 2.7 0 00.769.291c.292.071.526.124.703.158l-.28.465.054-1.364c.017-.409.027-.781.03-1.116a6.556 6.556 0 00-.036-.893 2.94 2.94 0 00-.157-.618 1.322 1.322 0 00-.301-.462c-.13-.121-.3-.202-.511-.242a1.127 1.127 0 00-.604.045c-.192.07-.36.201-.503.392-.143.192-.247.452-.309.781zm-3.498 10.336l3.852 1.012c.304.08.623.136.956.166.337.037.662.019.976-.053.312-.068.588-.21.826-.427.236-.212.409-.526.518-.942.072-.27.093-.539.065-.805a1.678 1.678 0 00-.26-.751 2.233 2.233 0 00-.671-.633c-.298-.187-.678-.342-1.143-.464l.604-.849c.71.187 1.302.484 1.773.893.477.409.802.903.976 1.481.174.579.168 1.221-.018 1.927-.142.541-.349.973-.62 1.295-.27.321-.578.558-.923.711a3.196 3.196 0 01-1.061.287c-.365.033-.713.03-1.044-.011a6.417 6.417 0 01-.858-.156l-4.352-1.144.404-1.537zm1.447-5.506l7.834 2.059-.357 1.357-2.263-.595-.047.181-5.571-1.464.404-1.538zm-3.374 10.9c.311-.935.771-1.627 1.379-2.078.609-.451 1.31-.618 2.104-.501l-.272 1.601a1.624 1.624 0 00-1.165.339c-.343.271-.599.662-.77 1.174-.155.465-.181.86-.078 1.184a.96.96 0 00.65.659.77.77 0 00.517.014c.154-.049.334-.202.541-.46.207-.258.491-.661.853-1.21.391-.603.748-1.066 1.072-1.39.327-.318.649-.517.965-.596.319-.073.666-.047 1.041.078.465.155.829.413 1.094.775.264.362.417.797.458 1.307.04.513-.041 1.072-.241 1.674-.196.588-.463 1.082-.801 1.48a2.92 2.92 0 01-1.162.855 2.35 2.35 0 01-1.359.116l.229-1.615a1.32 1.32 0 001.048-.228c.312-.223.555-.566.731-1.03.169-.444.214-.835.137-1.171-.073-.335-.257-.552-.551-.65a.666.666 0 00-.486.012c-.155.07-.338.241-.55.513a17.13 17.13 0 00-.846 1.236c-.381.59-.737 1.04-1.067 1.352-.326.313-.655.504-.989.572-.33.074-.692.046-1.086-.085-.759-.253-1.262-.728-1.509-1.427-.249-.694-.211-1.528.113-2.5zm-3.326 9.316l3.685 1.511c.291.119.6.216.927.29.328.081.653.106.974.075a1.76 1.76 0 00.874-.314c.263-.179.475-.467.639-.865.106-.259.162-.523.169-.79a1.644 1.644 0 00-.159-.778 2.231 2.231 0 00-.582-.717c-.27-.224-.627-.427-1.071-.609l.71-.763c.68.278 1.227.651 1.641 1.118a3.11 3.11 0 01.772 1.597c.096.596.005 1.232-.271 1.907-.213.519-.474.919-.785 1.203-.31.283-.647.477-1.009.583a3.169 3.169 0 01-1.089.145 4.871 4.871 0 01-1.033-.148 6.392 6.392 0 01-.831-.267l-4.164-1.706.603-1.472zm2.159-5.267l9.993 4.095-.532 1.298-5.392-2.21-.071.174-4.601-1.886.603-1.471zm-4.468 9.708c.264-.538.584-.941.96-1.208.38-.265.78-.411 1.201-.438.422-.022.831.065 1.226.258.368.181.659.405.874.671.214.267.355.576.423.926.072.353.077.745.015 1.177-.064.37-.16.776-.289 1.22-.128.444-.271.906-.428 1.385l-.472 1.44-.032-.651c.565.289 1.047.375 1.444.257.399-.11.748-.468 1.045-1.074a2.35 2.35 0 00.246-1.183c-.019-.404-.202-.77-.549-1.096l1.048-1.115c.536.486.865 1.07.987 1.754.119.688-.027 1.451-.439 2.291-.319.651-.709 1.161-1.169 1.531-.458.377-.982.56-1.572.549-.295 0-.582-.051-.86-.154a9.623 9.623 0 01-.875-.379l-4.478-2.197.611-1.245 1.663.815-.334.137c-.409-.574-.636-1.161-.681-1.762-.043-.595.102-1.231.435-1.909zm1.029.814c-.196.4-.295.777-.297 1.133.003.358.072.678.206.961a1.9 1.9 0 00.518.68c.178.182.4.344.665.485.262.145.474.258.636.337l-.393.375c.151-.477.288-.911.413-1.301.124-.39.232-.746.324-1.069.093-.316.161-.606.201-.87a2.99 2.99 0 00.012-.638 1.325 1.325 0 00-.169-.525 1 1 0 00-.428-.369 1.138 1.138 0 00-.595-.116 1.102 1.102 0 00-.588.246c-.189.147-.358.37-.505.671zm-6.023 8.915l3.451 1.988c.273.157.566.294.879.411.316.124.634.192.956.204a1.75 1.75 0 00.908-.195c.284-.142.534-.399.748-.772a2.23 2.23 0 00.274-.76 1.665 1.665 0 00-.055-.793 2.228 2.228 0 00-.481-.788c-.238-.258-.564-.507-.98-.746l.805-.662c.637.367 1.129.809 1.477 1.327.352.521.537 1.082.553 1.686.015.603-.159 1.221-.523 1.854-.28.485-.592.848-.938 1.087a2.54 2.54 0 01-1.077.444 3.193 3.193 0 01-1.099-.001 5.002 5.002 0 01-1.005-.284 6.516 6.516 0 01-.787-.376l-3.9-2.246.794-1.378zm2.841-4.933l7.019 4.043-.7 1.215-2.028-1.168-.094.163-4.991-2.875.794-1.378zm-6.23 9.78c.422-.626.942-1.063 1.56-1.31.615-.243 1.274-.308 1.977-.197.704.118 1.392.403 2.064.855.676.455 1.196.986 1.559 1.592.368.609.552 1.245.552 1.908.001.67-.211 1.32-.635 1.951-.427.634-.941 1.063-1.543 1.285-.6.229-1.241.273-1.924.133-.686-.136-1.365-.43-2.037-.883-.672-.452-1.2-.97-1.585-1.554-.384-.584-.587-1.2-.609-1.848-.019-.645.189-1.289.621-1.932zm1.055.972c-.287.427-.42.844-.398 1.251.021.406.169.791.442 1.156.273.364.642.703 1.106 1.016.465.312.919.524 1.362.636.44.116.85.108 1.227-.024.375-.127.7-.394.973-.801.29-.431.423-.857.399-1.277a2.286 2.286 0 00-.434-1.196 4.092 4.092 0 00-1.061-1.003 4.173 4.173 0 00-1.341-.613 2.32 2.32 0 00-1.263.036c-.395.131-.733.404-1.012.819zm-2.216 1.157l4.835 3.254.1-.149 4.126 2.776-.88 1.306-8.96-6.029.779-1.158zm-4.028 5.002c.495-.635 1.067-1.086 1.718-1.352a3.735 3.735 0 012.037-.211c.707.126 1.39.446 2.048.959.699.544 1.203 1.145 1.513 1.805.307.664.417 1.34.332 2.027-.086.688-.371 1.343-.857 1.966-.507.651-1.09 1.087-1.75 1.308-.656.224-1.35.232-2.082.024-.734-.205-1.465-.629-2.194-1.272l.963-1.237.45.351c.748.569 1.407.854 1.977.855.567.004 1.069-.274 1.505-.834.482-.619.649-1.237.502-1.853-.148-.615-.591-1.211-1.329-1.785-.702-.547-1.367-.815-1.997-.805-.625.014-1.167.315-1.624.902-.301.387-.474.788-.519 1.203-.044.422.037.84.241 1.253l-1.329.913a3.65 3.65 0 01-.451-2.167 3.991 3.991 0 01.846-2.05zm4.798.077l.964.751-3.553 4.562-.964-.751 3.553-4.562zm-7.55 3.645l8.367 7.179-1.02 1.19-8.368-7.179 1.021-1.19zm-4.043 4.613l5.118 10.138-1.602 1.59-10.099-5.191 1.154-1.147 9.238 4.717-.288.285-4.676-9.245 1.155-1.147zm.424 3.014l1.036 1.043-4.003 3.974-1.035-1.043 4.002-3.974zm-10.334 5.994c.588-.505 1.204-.785 1.846-.843.646-.053 1.281.077 1.906.391s1.201.778 1.729 1.393c.527.614.9 1.253 1.119 1.915.215.665.246 1.308.092 1.927-.154.626-.522 1.189-1.102 1.687-.577.495-1.196.779-1.858.852a3.617 3.617 0 01-1.965-.32c-.644-.29-1.231-.745-1.762-1.364-.528-.614-.889-1.266-1.085-1.955a3.639 3.639 0 01-.034-1.986c.17-.64.541-1.205 1.114-1.697zm3.038-2.31l7.032 8.197-1.195 1.026-3.238-3.774.137-.118-3.795-4.423 1.059-.908zm-1.95 3.244c-.379.326-.61.691-.69 1.096-.085.409-.048.828.111 1.259.158.437.411.859.76 1.265.345.403.72.713 1.125.932.401.222.812.321 1.233.296.42-.024.827-.206 1.222-.544.372-.319.601-.674.688-1.065.083-.387.043-.794-.12-1.221-.166-.425-.431-.849-.796-1.274a4.511 4.511 0 00-1.137-.981c-.394-.228-.794-.33-1.2-.304-.407.026-.805.206-1.196.541zm-13.323 8.476l5.663 9.196-5.448 3.355-.821-1.335 4.112-2.533-1.596-2.593-3.347 2.061-.826-1.341 3.347-2.061-2.419-3.927 1.335-.822zm-1.784 12.051l.74 1.331-1.37.762-.74-1.331 1.37-.762zm-4.584-8.238l3.938 7.078-1.369.762-3.939-7.078 1.37-.762zm-7.985 4.137l1.767 3.569c.14.283.308.559.503.831.194.278.421.511.682.7.256.191.544.305.864.342.315.039.665-.036 1.051-.227.25-.124.467-.284.649-.48.184-.192.316-.422.395-.69.075-.266.087-.573.037-.922-.054-.347-.188-.735-.401-1.166l1.037-.103c.326.659.49 1.3.492 1.924a3.11 3.11 0 01-.476 1.709c-.322.511-.81.928-1.464 1.252-.502.248-.963.376-1.384.383a2.548 2.548 0 01-1.143-.229 3.184 3.184 0 01-.913-.611 4.905 4.905 0 01-.678-.794 6.585 6.585 0 01-.446-.75l-1.997-4.032 1.425-.706zm5.102-2.526l3.594 7.26-1.257.622-1.039-2.097-.168.083-2.555-5.162 1.425-.706zm-9.794 4.318c.554-.229 1.061-.32 1.519-.272.46.053.857.208 1.191.465.331.263.581.598.749 1.005.157.379.228.739.212 1.081a2.073 2.073 0 01-.294.974 3.441 3.441 0 01-.766.894c-.293.235-.634.476-1.024.724-.389.248-.802.5-1.237.756l-1.306.768.407-.509c.233.591.538.973.913 1.148.373.181.871.143 1.495-.116.392-.162.714-.404.966-.725.253-.316.358-.711.313-1.185l1.523-.143a3.027 3.027 0 01-.419 1.967c-.365.595-.979 1.072-1.843 1.429-.67.278-1.3.403-1.89.377a2.331 2.331 0 01-1.542-.627 2.46 2.46 0 01-.544-.685 9.562 9.562 0 01-.406-.862l-1.908-4.608 1.282-.531.709 1.711-.342-.118c.073-.701.291-1.292.654-1.773.361-.474.891-.856 1.588-1.145zm.235 1.292c-.412.17-.735.388-.972.653a2.264 2.264 0 00-.481.857 1.908 1.908 0 00-.061.853c.014.255.073.522.179.803.101.283.186.508.254.674l-.543.022 1.17-.704c.351-.21.668-.406.95-.588a6.53 6.53 0 00.726-.52c.17-.151.314-.308.43-.47.113-.16.186-.329.221-.506a.998.998 0 00-.077-.56 1.145 1.145 0 00-.37-.48 1.103 1.103 0 00-.604-.205c-.239-.014-.513.042-.822.171zm-10.452 2.691l1.272 3.774c.101.299.23.595.388.891.154.301.348.563.581.785.228.224.499.375.81.455.307.081.665.053 1.072-.084.265-.09.501-.219.708-.389a1.66 1.66 0 00.484-.63c.11-.254.163-.557.161-.909-.008-.351-.088-.754-.242-1.209l1.042.037c.234.696.311 1.354.229 1.972a3.104 3.104 0 01-.701 1.63c-.387.463-.927.811-1.619 1.044-.53.179-1.005.244-1.422.194a2.555 2.555 0 01-1.102-.38 3.194 3.194 0 01-.823-.728 4.881 4.881 0 01-.565-.878 6.542 6.542 0 01-.342-.803l-1.437-4.264 1.506-.508zm5.395-1.818l2.587 7.675-1.329.448-.748-2.217-.177.06-1.84-5.458 1.507-.508zm-11.067 3.177c.952-.251 1.784-.244 2.494.019.71.263 1.233.759 1.57 1.487l-1.49.648a1.623 1.623 0 00-.921-.79c-.414-.139-.882-.14-1.404-.003-.474.125-.818.319-1.034.582a.96.96 0 00-.196.905c.052.198.142.345.271.44.125.102.352.169.681.201.329.033.822.05 1.479.053.718-.002 1.302.044 1.75.138.445.1.787.26 1.027.482.235.228.403.532.504.914.124.474.107.921-.051 1.34-.159.419-.44.785-.844 1.098-.409.314-.92.552-1.534.713-.6.158-1.159.204-1.677.139a2.91 2.91 0 01-1.351-.506 2.35 2.35 0 01-.841-1.074l1.478-.691c.153.363.407.614.764.753.357.139.778.155 1.262.049.464-.102.816-.277 1.056-.526.24-.244.321-.517.243-.816a.672.672 0 00-.276-.401c-.143-.092-.387-.152-.73-.18-.344-.029-.843-.04-1.498-.033-.702.004-1.274-.048-1.715-.154-.44-.101-.78-.273-1.02-.515-.243-.236-.417-.555-.522-.956-.204-.774-.08-1.455.37-2.044.445-.588 1.163-1.012 2.155-1.272zm-9.47 2.284l.761 3.909c.06.309.149.62.266.934.113.319.27.604.472.855.197.252.444.438.743.559.293.121.651.14 1.073.058.275-.053.526-.151.753-.292a1.66 1.66 0 00.564-.56c.142-.237.235-.53.279-.88.039-.349.013-.759-.079-1.23l1.027.174c.141.722.13 1.384-.033 1.986a3.104 3.104 0 01-.911 1.522c-.446.408-1.026.681-1.743.821-.55.107-1.028.108-1.436.004a2.547 2.547 0 01-1.041-.523 3.196 3.196 0 01-.72-.83 4.961 4.961 0 01-.443-.945 6.505 6.505 0 01-.233-.841l-.86-4.417 1.561-.304zm5.587-1.088l2.064 10.601-1.376.268-1.114-5.72-.184.036-.95-4.881 1.56-.304zm-10.568 1.586c.596-.074 1.108-.027 1.537.142.43.173.771.428 1.024.765.249.342.401.731.455 1.168.05.406.023.773-.083 1.098a2.081 2.081 0 01-.543.861 3.467 3.467 0 01-.977.658c-.344.148-.737.29-1.179.425a40.06 40.06 0 01-1.394.4c-.492.131-.98.262-1.463.393l.527-.383c.069.631.26 1.081.576 1.349.311.274.801.37 1.471.287.422-.053.797-.2 1.124-.442.329-.237.534-.59.617-1.059l1.507.267a3.033 3.033 0 01-.927 1.785c-.511.476-1.23.772-2.158.887-.719.089-1.36.043-1.922-.14a2.323 2.323 0 01-1.319-1.015 2.448 2.448 0 01-.342-.804 9.48 9.48 0 01-.162-.94l-.613-4.949 1.377-.171.228 1.838-.298-.205c.256-.656.624-1.168 1.102-1.534.474-.361 1.086-.588 1.835-.681zm-.117 1.307c-.442.054-.812.178-1.11.371a2.264 2.264 0 00-.692.698 1.9 1.9 0 00-.286.807 2.677 2.677 0 00-.042.821c.022.3.044.539.067.717l-.53-.123 1.315-.367c.395-.109.752-.214 1.072-.314.316-.095.596-.198.839-.308.204-.101.384-.214.54-.339.15-.125.266-.268.347-.429a.995.995 0 00.074-.561 1.147 1.147 0 00-.228-.561 1.108 1.108 0 00-.528-.358c-.226-.077-.506-.096-.838-.054zm-10.789-.152l.231 3.976c.018.315.064.635.138.961.069.332.187.636.353.911.162.277.382.494.662.653.274.16.626.227 1.056.202.279-.016.541-.079.785-.188.245-.105.456-.265.633-.48.173-.216.305-.494.395-.834.086-.341.115-.751.087-1.23l.994.31c.043.734-.057 1.389-.299 1.964a3.098 3.098 0 01-1.107 1.386c-.496.344-1.108.537-1.837.58-.559.032-1.033-.031-1.423-.188a2.555 2.555 0 01-.962-.658 3.21 3.21 0 01-.602-.919 4.93 4.93 0 01-.313-.997 6.621 6.621 0 01-.118-.864l-.26-4.493 1.587-.092zm5.683-.329l.469 8.087-1.4.081-.136-2.336-.187.01-.333-5.75 1.587-.092zm-12.076.151c.755.011 1.404.209 1.948.592.539.384.954.9 1.244 1.55.285.654.421 1.386.409 2.196-.013.815-.174 1.54-.484 2.176a3.64 3.64 0 01-1.298 1.502c-.561.367-1.221.544-1.981.532-.765-.012-1.405-.209-1.919-.592-.519-.378-.906-.892-1.161-1.541-.26-.649-.384-1.378-.372-2.188.013-.81.159-1.535.439-2.176.28-.641.685-1.147 1.216-1.519.531-.367 1.184-.544 1.959-.532zm-.24 1.414c-.515-.008-.936.108-1.265.348-.329.24-.572.573-.728 1.001-.157.428-.24.921-.248 1.481-.009.56.061 1.056.209 1.489.144.432.374.771.69 1.016.311.244.712.371 1.202.378.52.008.949-.113 1.288-.362.339-.25.594-.589.766-1.016.166-.428.254-.906.262-1.436a4.18 4.18 0 00-.218-1.459 2.336 2.336 0 00-.719-1.039c-.326-.26-.739-.394-1.239-.401zm-2.179-1.227l-.089 5.827.179.003-.076 4.972-1.575-.024.167-10.799 1.394.021zm-6.343-.636c.802.065 1.493.297 2.073.695a3.738 3.738 0 011.293 1.587c.283.66.39 1.407.322 2.239-.071.882-.298 1.634-.679 2.255a3.663 3.663 0 01-1.513 1.389c-.621.306-1.326.427-2.113.363-.823-.067-1.507-.315-2.054-.746-.548-.426-.935-1.001-1.162-1.727-.232-.726-.279-1.57-.14-2.532l1.562.126-.046.569c-.066.937.057 1.645.369 2.121.308.477.815.744 1.523.801.782.064 1.391-.135 1.824-.597.434-.461.689-1.158.764-2.09.072-.887-.069-1.59-.423-2.111-.354-.515-.903-.803-1.645-.863-.489-.04-.919.036-1.29.226a2.257 2.257 0 00-.915.889l-1.493-.61a3.65 3.65 0 011.564-1.566 3.994 3.994 0 012.179-.418zm2.568 4.054l-.099 1.218-5.764-.468.099-1.218 5.764.468zm-7.21-4.328l-1.44 10.93-1.554-.204 1.44-10.931 1.554.205zm-6.099-.873l-5.698 9.823-2.207-.474-1.166-11.296 1.591.341 1.093 10.314-.396-.085 5.191-8.965 1.592.342zm-2.294 2l-.308 1.438-5.515-1.184.309-1.437 5.514 1.183zm-10.601-5.376c.744.217 1.316.579 1.715 1.086.398.512.636 1.115.715 1.81.078.695.004 1.431-.222 2.208-.227.778-.558 1.439-.993 1.985-.44.543-.96.92-1.563 1.13-.61.213-1.28.212-2.015-.002-.73-.212-1.306-.576-1.73-1.09a3.614 3.614 0 01-.805-1.82c-.109-.698-.05-1.439.179-2.221.227-.778.575-1.437 1.045-1.977a3.633 3.633 0 011.645-1.114c.628-.208 1.304-.206 2.03.005zm3.595 1.282l-3.022 10.369-1.512-.441 1.391-4.773.173.05 1.631-5.595 1.339.39zm-3.783.14c-.48-.14-.911-.133-1.295.021a2.265 2.265 0 00-.993.781 4.07 4.07 0 00-.645 1.328 3.986 3.986 0 00-.165 1.451c.033.458.175.856.425 1.195.25.338.625.58 1.125.726.47.137.892.135 1.267-.006.37-.142.689-.398.958-.768.264-.371.475-.825.631-1.362.157-.538.224-1.034.2-1.489-.024-.455-.157-.845-.4-1.171-.244-.327-.613-.562-1.108-.706zm-14.29-6.536l-4.61 9.766-5.786-2.732.67-1.417 4.367 2.062 1.3-2.753-3.554-1.678.673-1.425 3.553 1.678 1.97-4.171 1.417.67zm-11.062 5.077l-.711 1.347-1.387-.732.711-1.346 1.386.731zm4.4-8.337l-3.781 7.163-1.386-.731 3.78-7.164 1.386.732zm-7.831-4.46l-2.039 3.421a5.886 5.886 0 00-.424.874 2.899 2.899 0 00-.218.952c-.021.319.04.623.182.912.138.286.392.539.761.759.24.143.492.238.756.284.26.051.525.037.793-.042.264-.081.53-.238.795-.469.262-.235.515-.558.761-.97l.65.815c-.377.631-.826 1.117-1.349 1.457a3.097 3.097 0 01-1.694.528c-.603.007-1.219-.176-1.846-.55-.48-.287-.839-.604-1.073-.954a2.55 2.55 0 01-.428-1.084 3.19 3.19 0 01.017-1.098c.07-.361.17-.694.3-1.001.13-.306.259-.567.387-.782l2.303-3.866 1.366.814zm4.89 2.913l-4.145 6.959-1.205-.718 1.197-2.01-.16-.096 2.947-4.948 1.366.813zm-8.926-5.853c.494.34.845.716 1.054 1.127.206.415.292.833.258 1.252a2.464 2.464 0 01-.437 1.175 2.52 2.52 0 01-.791.766 2.09 2.09 0 01-.978.283 3.445 3.445 0 01-1.167-.158 11.17 11.17 0 01-1.164-.465 41.66 41.66 0 01-1.308-.627c-.455-.229-.907-.455-1.354-.678l.648.064c-.368.517-.524.981-.466 1.391.05.411.353.808.91 1.191.35.241.727.38 1.133.417.403.041.791-.087 1.165-.382l.949 1.201a3.035 3.035 0 01-1.88.718c-.697.017-1.431-.24-2.201-.77-.597-.412-1.045-.872-1.344-1.382a2.329 2.329 0 01-.312-1.635c.044-.292.136-.568.28-.828.142-.26.31-.53.502-.81l2.83-4.107 1.143.787-1.051 1.525-.087-.35c.628-.321 1.243-.459 1.844-.415.594.045 1.202.282 1.824.71zm-.956.899c-.367-.253-.726-.406-1.077-.46a2.257 2.257 0 00-.981.062c-.3.091-.55.229-.749.413a2.688 2.688 0 00-.577.586c-.182.239-.325.432-.427.58l-.314-.444c.45.22.86.419 1.227.6.368.18.704.339 1.01.477.299.139.576.248.831.327.22.06.43.095.63.105.195.007.376-.022.544-.089.163-.07.305-.193.427-.37a1.14 1.14 0 00.203-.571 1.11 1.11 0 00-.157-.619c-.118-.208-.315-.407-.59-.597zm-7.92-7.27l-2.47 3.124a5.876 5.876 0 00-.535.81 2.902 2.902 0 00-.342.916 1.76 1.76 0 00.06.927c.1.302.318.586.656.852.22.174.456.301.712.382.251.084.516.105.792.062.272-.046.555-.166.85-.361.29-.198.583-.485.881-.861l.537.893c-.456.576-.965.999-1.529 1.268a3.107 3.107 0 01-1.748.3c-.599-.072-1.185-.335-1.758-.787-.439-.348-.752-.71-.938-1.087a2.553 2.553 0 01-.282-1.131 3.195 3.195 0 01.161-1.087c.116-.348.259-.665.428-.952.17-.287.332-.528.487-.724l2.79-3.53 1.248.986zm4.465 3.53l-5.023 6.354-1.1-.869 1.45-1.836-.146-.116 3.572-4.519 1.247.986zm-8.702-7.539c.73.66 1.18 1.359 1.35 2.097.168.739.04 1.448-.386 2.128l-1.357-.892c.207-.379.26-.78.156-1.203-.11-.422-.365-.815-.766-1.177-.364-.328-.715-.51-1.053-.546a.959.959 0 00-.864.331c-.138.152-.211.308-.22.468-.017.16.05.386.204.679.153.294.408.716.765 1.268.395.599.676 1.112.843 1.539.16.428.213.802.158 1.123-.061.322-.224.63-.489.923-.328.363-.711.594-1.149.69-.438.097-.898.062-1.38-.105-.487-.17-.966-.468-1.437-.893-.46-.416-.805-.858-1.035-1.328a2.915 2.915 0 01-.315-1.407 2.35 2.35 0 01.438-1.292l1.388.859a1.317 1.317 0 00-.212 1.052c.079.374.295.735.65 1.082.339.333.678.532 1.017.596.337.068.609-.014.816-.244a.666.666 0 00.185-.45c-.002-.17-.085-.406-.249-.709a17.287 17.287 0 00-.792-1.272c-.388-.585-.658-1.092-.81-1.52-.157-.424-.199-.802-.127-1.135.064-.332.236-.653.514-.961.536-.593 1.174-.863 1.913-.809.735.052 1.483.421 2.244 1.108zm-7.092-6.682l-2.857 2.775c-.226.22-.438.464-.636.734a2.899 2.899 0 00-.458.863 1.758 1.758 0 00-.061.927c.059.312.238.622.538.931.195.201.413.358.656.471.239.116.498.171.777.165.276-.01.572-.093.89-.247.313-.158.642-.404.986-.739l.416.956c-.527.512-1.088.864-1.681 1.057a3.102 3.102 0 01-1.773.07c-.584-.15-1.13-.487-1.64-1.011-.39-.401-.653-.801-.788-1.199a2.554 2.554 0 01-.132-1.158 3.16 3.16 0 01.302-1.057c.16-.33.343-.626.548-.888.206-.262.398-.48.577-.655l3.228-3.135 1.108 1.14zm3.966 4.084l-7.746 7.525-.978-1.006 4.18-4.061-.13-.134 3.566-3.465 1.108 1.141zm-7.08-7.945c.389.456.63.91.726 1.361.091.454.066.88-.076 1.276-.149.396-.39.737-.725 1.022a2.529 2.529 0 01-.964.535c-.33.091-.669.097-1.017.019a3.428 3.428 0 01-1.087-.454 11.43 11.43 0 01-1.004-.751 40.913 40.913 0 01-1.1-.944c-.38-.339-.758-.675-1.132-1.006l.61.23c-.49.404-.76.811-.811 1.222-.058.411.132.873.57 1.387.275.323.604.555.986.696.379.144.787.121 1.224-.067l.606 1.405a3.03 3.03 0 01-2.001.207c-.679-.164-1.321-.602-1.927-1.314-.47-.552-.784-1.113-.94-1.682a2.33 2.33 0 01.122-1.661c.118-.271.279-.513.484-.728.205-.214.437-.431.696-.651l3.797-3.234.9 1.056-1.41 1.201.007-.361c.69-.147 1.319-.121 1.888.077.562.198 1.088.584 1.578 1.159zm-1.157.62c-.288-.339-.595-.58-.92-.723a2.252 2.252 0 00-.964-.194c-.313.01-.59.078-.83.204-.238.091-.474.23-.71.417a15.49 15.49 0 00-.562.45l-.188-.51 1.03.897c.308.269.592.51.851.722.253.212.492.389.718.531.197.115.39.204.58.265.187.057.37.076.55.055.175-.025.345-.108.509-.247.16-.136.274-.303.343-.499.065-.194.068-.406.008-.638-.06-.232-.197-.475-.415-.73zm-5.836-9.183l-3.203 2.366a5.902 5.902 0 00-.73.642 2.91 2.91 0 00-.57.794 1.757 1.757 0 00-.184.91c.016.317.152.649.408.995.166.225.362.41.587.555.22.147.47.236.748.267.275.028.58-.014.914-.125.332-.114.691-.314 1.077-.599l.284 1.002c-.591.437-1.194.711-1.808.822a3.095 3.095 0 01-1.765-.168c-.56-.228-1.056-.635-1.49-1.222-.333-.45-.54-.882-.62-1.294a2.556 2.556 0 01.024-1.166c.091-.365.238-.701.441-1.006.204-.306.425-.575.663-.807a6.67 6.67 0 01.66-.571l3.62-2.674.944 1.279zm3.382 4.579l-6.515 4.813-.833-1.128 1.882-1.391-.111-.151 4.633-3.422.944 1.279zm-6.456-9.6c.405.637.597 1.288.576 1.953a3.712 3.712 0 01-.61 1.891c-.39.598-.927 1.114-1.61 1.549-.688.437-1.383.701-2.084.792a3.634 3.634 0 01-1.969-.259c-.614-.266-1.125-.721-1.533-1.362-.41-.645-.597-1.288-.56-1.928.03-.642.246-1.247.648-1.817.4-.574.94-1.079 1.624-1.513.684-.435 1.37-.712 2.06-.83.688-.119 1.334-.059 1.936.18.599.242 1.106.69 1.522 1.344zm-1.313.577c-.276-.434-.605-.723-.986-.866a2.092 2.092 0 00-1.237-.057c-.443.104-.901.306-1.374.607-.472.301-.848.632-1.128.993-.282.358-.439.736-.47 1.135-.033.394.082.798.345 1.212.28.439.616.731 1.011.877a2.3 2.3 0 001.27.081 4.098 4.098 0 001.344-.571 4.195 4.195 0 001.098-.983c.275-.37.432-.761.473-1.172.038-.415-.078-.834-.346-1.256zm-.174-2.494l-4.916 3.128.096.152-4.195 2.67-.845-1.329 9.112-5.798.748 1.177zm-2.873-5.506c.386.706.572 1.411.557 2.114a3.73 3.73 0 01-.616 1.952c-.396.599-.96 1.099-1.693 1.499-.777.425-1.53.648-2.258.671a3.664 3.664 0 01-1.992-.501c-.597-.352-1.085-.874-1.464-1.567-.396-.724-.564-1.433-.504-2.127.055-.691.323-1.331.805-1.919.48-.593 1.16-1.095 2.039-1.508l.752 1.375-.5.274c-.82.46-1.344.951-1.57 1.474-.23.519-.174 1.089.167 1.712.376.689.877 1.088 1.5 1.197.624.109 1.346-.061 2.167-.509.78-.427 1.291-.932 1.532-1.513.235-.58.175-1.196-.183-1.85-.235-.43-.534-.748-.897-.953-.37-.208-.786-.3-1.246-.277l-.31-1.583a3.658 3.658 0 012.168.447 3.989 3.989 0 011.546 1.592zm-1.977 4.372l-1.073.586-2.774-5.073 1.072-.587 2.774 5.074zm-.434-8.572l-9.935 4.781-.68-1.412 9.935-4.781.68 1.412zm-2.616-5.544l-11.34.593-.81-2.108 8.826-7.147.583 1.52-8.042 6.549-.145-.378 10.345-.549.583 1.52zm-2.928-.828l-1.373.526-2.02-5.265 1.372-.527 2.02 5.266zm-1.289-11.735c.225.741.235 1.418.028 2.029-.21.613-.585 1.142-1.124 1.588-.539.446-1.196.786-1.97 1.022-.776.235-1.51.32-2.205.254-.695-.071-1.296-.301-1.8-.691-.512-.394-.879-.956-1.101-1.688-.221-.728-.232-1.409-.033-2.044a3.619 3.619 0 011.084-1.67c.525-.473 1.177-.828 1.957-1.065.775-.235 1.517-.304 2.226-.206a3.641 3.641 0 011.833.768c.517.413.885.98 1.105 1.703zm.892 3.71l-10.334 3.14-.458-1.507 4.758-1.446.053.173 5.575-1.694.406 1.334zm-2.185-3.09c-.146-.479-.387-.836-.726-1.073a2.256 2.256 0 00-1.197-.405 4.096 4.096 0 00-1.464.186 3.99 3.99 0 00-1.306.656c-.365.278-.62.614-.767 1.009-.147.395-.144.841.007 1.338.142.469.375.822.697 1.058.322.232.71.359 1.167.383.455.018.95-.054 1.486-.217s.988-.378 1.356-.647a2.09 2.09 0 00.761-.976c.14-.382.135-.82-.014-1.312zm-2.387-15.501L3.897 153.34l-.884-6.337 1.552-.216.668 4.783 3.016-.42-.544-3.893 1.56-.217.543 3.892 4.569-.638.216 1.553zm-10.334-6.606l-1.516.141-.145-1.561 1.516-.141.145 1.561zm9.387-.871l-8.065.748-.145-1.56 8.065-.749.145 1.561zm-.568-9.029l-3.98.169a5.834 5.834 0 00-.963.123 2.92 2.92 0 00-.916.34c-.279.157-.5.374-.663.651-.164.272-.236.623-.218 1.053.012.279.07.542.176.788.1.246.257.459.47.64.213.177.489.312.828.408.34.091.749.126 1.228.106l-.325.989c-.735.032-1.388-.078-1.959-.329a3.102 3.102 0 01-1.369-1.128c-.336-.501-.52-1.117-.551-1.846-.024-.56.046-1.033.21-1.42.164-.388.388-.705.673-.952.28-.252.589-.448.928-.588a4.96 4.96 0 011-.297c.328-.059.617-.094.867-.105l4.496-.191.068 1.589zm.241 5.687l-8.093.344-.06-1.401 2.339-.099-.008-.188 5.755-.244.067 1.588zm-.001-11.153c-.016.599-.14 1.099-.37 1.498a2.354 2.354 0 01-.91.898 2.463 2.463 0 01-1.223.274 2.527 2.527 0 01-1.074-.246 2.094 2.094 0 01-.77-.666 3.457 3.457 0 01-.503-1.064 11.54 11.54 0 01-.245-1.23c-.067-.457-.13-.936-.186-1.438a551.3 551.3 0 00-.17-1.505l.3.578c-.634-.027-1.108.095-1.42.367-.318.267-.485.737-.504 1.412-.011.425.078.817.269 1.178.185.36.503.616.954.768l-.49 1.45a3.03 3.03 0 01-1.625-1.184c-.395-.576-.58-1.331-.554-2.266.02-.725.161-1.351.426-1.879a2.33 2.33 0 011.201-1.153c.269-.123.55-.195.846-.217.296-.023.614-.029.954-.02l4.986.135-.038 1.387-1.852-.05.247-.263c.611.351 1.062.791 1.353 1.319.286.523.418 1.162.398 1.917zm-1.274-.313c.012-.444-.056-.829-.202-1.153a2.267 2.267 0 00-.586-.789 1.92 1.92 0 00-.755-.403 2.698 2.698 0 00-.805-.164c-.3-.023-.54-.037-.72-.042l.202-.505.166 1.355c.049.407.099.776.15 1.107.046.327.106.618.179.876.069.216.154.411.254.584.1.168.224.304.372.408.147.099.328.151.543.157.21.006.406-.042.59-.142.177-.1.321-.256.432-.468.11-.212.17-.486.18-.821zm1.753-10.543l-3.965-.368a5.92 5.92 0 00-.971-.008 2.91 2.91 0 00-.954.213 1.765 1.765 0 00-.745.556c-.198.248-.317.586-.357 1.014a2.22 2.22 0 00.068.805c.067.257.193.49.38.698.187.203.442.375.765.515.324.136.725.226 1.203.27l-.456.937c-.732-.068-1.364-.265-1.896-.59a3.099 3.099 0 01-1.205-1.302c-.266-.542-.365-1.177-.298-1.903.052-.558.185-1.018.4-1.379.214-.362.479-.646.794-.853a3.18 3.18 0 011-.457 4.948 4.948 0 011.03-.161c.334-.014.625-.009.873.014l4.481.415-.147 1.584zm-.526 5.668l-8.065-.749.13-1.396 2.33.216.017-.187 5.735.533-.147 1.583zm1.555-11.42c-.155.972-.495 1.731-1.023 2.275-.527.543-1.191.822-1.994.836l.008-1.623c.43-.033.795-.208 1.094-.525.294-.323.484-.751.569-1.284.077-.484.038-.877-.116-1.181a.96.96 0 00-.749-.544c-.202-.032-.373-.009-.512.07-.143.074-.296.254-.459.543-.162.288-.377.732-.645 1.332-.287.658-.564 1.174-.83 1.546-.271.367-.557.616-.856.745-.303.124-.65.155-1.04.093a2.154 2.154 0 01-1.205-.587c-.32-.314-.541-.719-.665-1.215-.123-.5-.134-1.064-.034-1.691.097-.612.28-1.143.55-1.591a2.918 2.918 0 011.006-1.032c.398-.24.839-.353 1.322-.336l.037 1.631a1.323 1.323 0 00-.997.395c-.271.271-.456.649-.553 1.135-.094.466-.076.859.055 1.178.127.319.343.503.65.552a.67.67 0 00.477-.091c.142-.094.295-.293.46-.595.164-.303.375-.756.633-1.358.28-.644.557-1.146.832-1.508.27-.362.565-.603.883-.725.314-.127.676-.158 1.085-.093.79.126 1.364.513 1.722 1.163.358.644.456 1.472.295 2.485zm1.696-9.497l-3.884-.88a5.807 5.807 0 00-.961-.134 2.915 2.915 0 00-.974.087c-.31.079-.58.23-.81.455-.23.22-.392.539-.487.959a2.215 2.215 0 00-.036.806c.032.264.127.511.285.742.16.226.39.429.693.61.303.177.689.318 1.157.424l-.574.87c-.717-.163-1.318-.44-1.803-.832a3.097 3.097 0 01-1.026-1.447c-.193-.572-.21-1.214-.048-1.926.124-.546.316-.984.575-1.315.26-.331.56-.579.899-.743a3.22 3.22 0 011.05-.323 4.908 4.908 0 011.044-.025c.331.029.62.071.863.126l4.389.995-.352 1.551zm-1.257 5.551L4.73 106.935l.31-1.368 5.684 1.288.041-.183 4.85 1.099-.351 1.55zm2.832-10.445c-.172.574-.422 1.024-.749 1.349a2.36 2.36 0 01-1.112.63 2.46 2.46 0 01-1.252-.055 2.513 2.513 0 01-.973-.518 2.082 2.082 0 01-.569-.844 3.45 3.45 0 01-.208-1.159c.002-.374.03-.791.085-1.25.054-.46.119-.938.195-1.437l.23-1.497.138.636c-.605-.192-1.094-.197-1.467-.017-.376.175-.66.585-.854 1.232a2.33 2.33 0 00-.049 1.207c.085.396.325.726.72.991l-.85 1.272a3.03 3.03 0 01-1.26-1.568c-.231-.659-.212-1.436.056-2.332.208-.694.509-1.262.902-1.703a2.33 2.33 0 011.46-.799c.292-.048.583-.045.875.011.29.056.6.133.925.23l4.777 1.432-.398 1.33-1.774-.532.307-.19c.498.499.818 1.041.96 1.627.14.58.102 1.23-.115 1.954zm-1.149-.634c.128-.427.164-.815.107-1.166a2.259 2.259 0 00-.36-.915 1.9 1.9 0 00-.623-.586 2.685 2.685 0 00-.735-.369 15.87 15.87 0 00-.684-.228l.327-.435c-.07.496-.135.947-.194 1.352-.059.405-.107.774-.144 1.108-.04.327-.06.624-.056.891.01.227.041.438.093.63.053.189.137.352.252.491.117.134.278.232.484.294.201.06.403.066.605.017.198-.05.378-.163.54-.34.163-.175.292-.423.388-.744zm4.505-9.857l-3.728-1.399a5.871 5.871 0 00-.935-.262 2.9 2.9 0 00-.976-.046 1.76 1.76 0 00-.865.34c-.257.187-.46.481-.612.884a2.22 2.22 0 00-.146.794c-.003.266.057.524.183.774.127.245.328.478.603.699.276.216.64.408 1.089.577l-.687.783c-.688-.258-1.246-.614-1.673-1.068a3.1 3.1 0 01-.82-1.573c-.114-.593-.043-1.232.214-1.915.196-.524.446-.933.748-1.225.302-.293.632-.497.99-.614a3.189 3.189 0 011.085-.178 4.93 4.93 0 011.037.117c.325.074.605.155.839.243l4.213 1.58-.559 1.49zm-2 5.33l-7.583-2.846.493-1.313 2.19.822.066-.175 5.393 2.023-.558 1.489zm4.31-10.142c-.312.688-.753 1.204-1.321 1.55a3.712 3.712 0 01-1.918.521c-.713 0-1.439-.167-2.177-.502-.742-.337-1.342-.774-1.8-1.312a3.638 3.638 0 01-.86-1.79c-.112-.661-.01-1.337.304-2.03.316-.696.752-1.203 1.309-1.522.554-.325 1.179-.475 1.876-.45.699.022 1.417.2 2.155.534.737.335 1.344.759 1.82 1.272.475.512.777 1.086.906 1.721.125.633.027 1.303-.294 2.008zm-1.2-.784c.212-.469.274-.902.186-1.3a2.106 2.106 0 00-.628-1.067c-.33-.314-.749-.587-1.259-.819-.51-.231-.992-.365-1.448-.402-.454-.041-.856.035-1.207.227-.348.187-.624.504-.827.95-.215.474-.275.916-.182 1.326.094.41.303.78.626 1.108.325.323.73.595 1.212.814a4.19 4.19 0 001.424.383c.46.027.873-.054 1.24-.245.368-.195.656-.52.862-.975zm1.994-1.508l-5.306-2.41-.075.165-4.527-2.056.65-1.434 9.834 4.465-.576 1.27zm3.219-5.783c-.383.708-.874 1.246-1.472 1.616-.6.363-1.259.543-1.975.542-.718-.008-1.444-.211-2.178-.609-.778-.422-1.374-.932-1.788-1.532a3.668 3.668 0 01-.66-1.945c-.03-.692.145-1.386.521-2.08.393-.726.897-1.252 1.512-1.578.61-.329 1.294-.45 2.05-.365.757.08 1.548.379 2.372.894l-.747 1.378-.5-.272c-.832-.439-1.529-.612-2.091-.519-.56.09-1.01.446-1.348 1.07-.374.69-.437 1.327-.19 1.91s.781 1.098 1.603 1.543c.783.424 1.483.58 2.102.466.615-.117 1.1-.502 1.455-1.157.233-.43.338-.855.314-1.272a2.253 2.253 0 00-.444-1.196l1.161-1.119a3.65 3.65 0 01.801 2.064 3.988 3.988 0 01-.498 2.161zm-4.745.712l-1.075-.582 2.756-5.084 1.075.583-2.756 5.083zm6.789-4.754l-9.429-5.712.812-1.34 9.43 5.711-.812 1.341zm3.48-5.628l-6.668-9.192 1.328-1.826 10.798 3.515-.957 1.316-9.871-3.183.238-.328 6.09 8.381-.957 1.317zm-.898-2.908l-1.19-.865 3.318-4.56 1.19.864-3.319 4.56z" fill="#7D75EC"/><path d="M41.293 55.74c-.498.593-1.06.97-1.684 1.131-.63.158-1.277.133-1.945-.075-.668-.207-1.312-.572-1.932-1.092-.62-.52-1.093-1.09-1.416-1.708-.32-.621-.456-1.25-.405-1.886.05-.643.321-1.258.813-1.844.489-.582 1.053-.963 1.694-1.144a3.618 3.618 0 011.99-.003c.684.181 1.337.534 1.962 1.058.62.52 1.083 1.105 1.388 1.752.304.64.424 1.292.357 1.955-.063.658-.337 1.277-.822 1.855zm-2.622 2.773l-8.273-6.942 1.013-1.207 3.809 3.197-.116.137 4.464 3.746-.897 1.069zm1.396-3.518c.322-.383.489-.781.503-1.194a2.26 2.26 0 00-.315-1.224 4.077 4.077 0 00-.956-1.125 3.99 3.99 0 00-1.262-.736 2.236 2.236 0 00-1.264-.092c-.41.093-.783.339-1.117.737-.315.375-.484.763-.506 1.162-.018.396.087.791.317 1.186.233.392.564.767.993 1.127.429.36.856.62 1.282.782.426.162.837.197 1.234.105.396-.091.76-.334 1.091-.728zM52 44.23l-7.092-8.146 4.825-4.2 1.03 1.181-3.643 3.172 2 2.297 2.963-2.581 1.035 1.188-2.965 2.58 3.03 3.48L52 44.23zm-.425-12.018l-.949-1.191 1.226-.977.949 1.191-1.226.977zm5.874 7.374l-5.047-6.336 1.226-.977 5.047 6.336-1.226.977zm7.397-5.547L62.527 30.8a5.87 5.87 0 00-.63-.738 2.898 2.898 0 00-.786-.582 1.759 1.759 0 00-.908-.198c-.317.012-.65.143-1 .393a2.22 2.22 0 00-.563.58 1.66 1.66 0 00-.28.743c-.03.275.007.58.113.916.11.334.304.696.584 1.086l-1.007.269c-.428-.598-.693-1.204-.796-1.82a3.099 3.099 0 01.195-1.763c.235-.556.65-1.046 1.243-1.471.455-.326.89-.527 1.303-.602a2.551 2.551 0 011.165.042 3.19 3.19 0 011 .456c.302.207.568.432.797.674.228.242.416.465.561.668l2.62 3.659-1.292.926zm-4.628 3.314l-4.716-6.585 1.14-.816 1.362 1.902.153-.11 3.354 4.684-1.293.925zm8.779-5.761c-.51.317-.995.488-1.455.515a2.35 2.35 0 01-1.25-.265 2.466 2.466 0 01-.903-.87 2.523 2.523 0 01-.384-1.033 2.08 2.08 0 01.132-1.009 3.45 3.45 0 01.611-1.006c.25-.28.548-.573.892-.88.345-.309.71-.624 1.099-.948.392-.325.78-.649 1.163-.97l-.318.57c-.326-.546-.689-.874-1.088-.985-.397-.118-.882 0-1.456.357-.36.224-.64.514-.835.872-.199.352-.238.76-.117 1.22l-1.48.389a3.03 3.03 0 01.095-2.01c.263-.646.792-1.216 1.587-1.71.616-.382 1.217-.608 1.803-.678a2.33 2.33 0 011.624.37c.25.156.466.352.647.586.181.235.361.497.54.786l2.632 4.237-1.18.732-.976-1.574.356.062c.042.703-.077 1.322-.358 1.855-.28.527-.74.989-1.381 1.387zm-.44-1.236c.377-.235.661-.502.851-.803.188-.304.3-.612.336-.923.037-.311.01-.595-.078-.852a2.688 2.688 0 00-.306-.763 16.34 16.34 0 00-.361-.624l.532-.11-1.04.885c-.313.264-.593.51-.842.734a6.6 6.6 0 00-.632.631c-.143.177-.26.355-.348.534-.085.176-.13.355-.136.535a.996.996 0 00.168.54c.11.178.258.316.442.414.181.093.391.128.63.104.237-.025.499-.125.783-.302zm9.709-4.316l-1.872-3.515a5.874 5.874 0 00-.528-.815 2.9 2.9 0 00-.701-.68 1.76 1.76 0 00-.874-.316c-.316-.03-.664.056-1.044.258a2.22 2.22 0 00-.635.5c-.178.196-.303.43-.374.7-.067.268-.07.576-.01.923.065.345.21.73.436 1.153l-1.034.134c-.345-.649-.528-1.285-.549-1.908a3.099 3.099 0 01.426-1.722c.306-.52.782-.952 1.426-1.295.494-.264.952-.405 1.372-.425.42-.02.803.046 1.149.196.348.143.658.337.93.583.273.246.507.504.702.774.195.27.35.515.468.736l2.115 3.972-1.403.747zm-5.025 2.676l-3.807-7.15 1.238-.659 1.1 2.066.165-.088 2.708 5.084-1.404.747zM83.89 23.61c-.898.405-1.72.535-2.463.393-.744-.143-1.342-.545-1.793-1.209l1.362-.884c.263.343.61.552 1.038.627.432.07.893-.006 1.386-.228.447-.2.755-.449.924-.744a.96.96 0 00.044-.925c-.084-.187-.197-.317-.34-.39-.14-.08-.374-.108-.704-.086-.33.022-.82.086-1.468.191-.708.121-1.29.172-1.749.154-.455-.026-.82-.128-1.092-.307-.27-.186-.485-.459-.647-.82a2.146 2.146 0 01-.17-1.329c.087-.44.304-.847.65-1.222.352-.377.817-.696 1.396-.956.566-.254 1.11-.392 1.632-.413.522-.021.994.071 1.415.276.42.201.755.508 1.006.921l-1.344.925a1.32 1.32 0 00-.877-.617c-.375-.078-.793-.024-1.252.16-.442.177-.76.408-.955.693-.198.28-.233.562-.106.845.074.164.187.28.338.35.157.066.407.085.75.057.344-.028.838-.1 1.483-.214.692-.12 1.264-.163 1.717-.13.45.027.814.14 1.09.34.279.192.503.478.674.856.328.73.318 1.422-.029 2.077-.342.653-.981 1.19-1.916 1.61zm8.489-3.656l-1.4-3.729a5.89 5.89 0 00-.417-.877 2.9 2.9 0 00-.607-.765 1.76 1.76 0 00-.826-.427c-.31-.071-.665-.031-1.068.12a2.218 2.218 0 00-.694.413 1.656 1.656 0 00-.463.646 2.232 2.232 0 00-.13.914c.02.35.114.75.283 1.2l-1.042-.002c-.258-.688-.357-1.343-.296-1.963a3.1 3.1 0 01.645-1.653c.372-.476.9-.842 1.583-1.098.524-.197.996-.278 1.415-.243.419.035.79.15 1.114.343.326.188.609.42.847.7.238.279.436.565.594.858.159.293.281.557.37.791l1.58 4.213-1.489.559zm-5.33 2l-3.794-10.112 1.313-.493 2.047 5.456.176-.066 1.746 4.656-1.488.559zm10.233-3.381c-.574.172-1.087.21-1.538.116a2.352 2.352 0 01-1.138-.583 2.467 2.467 0 01-.643-1.075 2.524 2.524 0 01-.102-1.097c.05-.339.18-.652.392-.94.21-.292.494-.563.853-.811.314-.204.678-.41 1.091-.617.413-.207.849-.416 1.308-.627.463-.212.922-.422 1.376-.632l-.455.466c-.173-.611-.437-1.023-.793-1.234-.352-.219-.852-.23-1.499-.037-.407.122-.752.33-1.034.623-.284.289-.428.671-.432 1.148l-1.53-.012a3.03 3.03 0 01.616-1.915c.424-.555 1.084-.966 1.98-1.235.694-.208 1.333-.269 1.917-.183.588.08 1.078.34 1.471.78.201.217.358.462.471.736.114.274.22.574.317.9l1.432 4.777-1.33.399-.531-1.775.327.153c-.143.69-.42 1.255-.83 1.697-.407.435-.972.76-1.696.978zm-.102-1.308c.426-.128.77-.312 1.032-.553.261-.245.45-.513.566-.803a1.92 1.92 0 00.147-.843 2.69 2.69 0 00-.096-.817 15.323 15.323 0 00-.185-.696l.542.033-1.235.582c-.37.174-.705.337-1.004.489a6.612 6.612 0 00-.776.443 2.938 2.938 0 00-.475.425 1.322 1.322 0 00-.271.48 1.01 1.01 0 00.02.566c.06.2.167.373.32.515.15.137.343.226.58.264.236.04.514.01.835-.085zm10.861-1.713l-.88-3.884a5.881 5.881 0 00-.295-.926 2.867 2.867 0 00-.498-.84 1.756 1.756 0 00-.759-.536c-.297-.112-.656-.12-1.075-.025a2.222 2.222 0 00-.744.314 1.656 1.656 0 00-.546.578c-.135.24-.219.536-.252.887-.029.35.01.76.116 1.227l-1.032-.143c-.162-.716-.171-1.378-.027-1.985a3.11 3.11 0 01.864-1.55c.433-.42 1.005-.712 1.717-.873.546-.124 1.025-.14 1.435-.048.41.091.763.255 1.057.49.298.23.546.5.745.809.198.309.355.619.472.93.117.313.203.59.258.835l.994 4.388-1.55.352zm-5.552 1.258l-1.79-7.9 1.368-.31.517 2.282.183-.041 1.273 5.617-1.551.352zm10.991-2.013c-.746.115-1.419.03-2.02-.256a3.714 3.714 0 01-1.488-1.317c-.391-.597-.649-1.296-.773-2.097-.125-.805-.088-1.547.11-2.225a3.64 3.64 0 011.026-1.7c.491-.456 1.112-.742 1.863-.859.756-.117 1.42-.03 1.991.26.576.285 1.044.726 1.405 1.323.365.596.61 1.294.735 2.095.124.8.102 1.54-.066 2.218a3.54 3.54 0 01-.942 1.703c-.461.45-1.075.736-1.841.855zm-.002-1.434c.509-.08.905-.265 1.188-.557.284-.292.467-.662.549-1.11.082-.448.081-.948-.005-1.502-.086-.553-.239-1.03-.458-1.431-.214-.402-.498-.697-.851-.885-.348-.19-.764-.246-1.248-.17-.514.079-.917.27-1.209.574-.292.303-.486.68-.583 1.13-.092.45-.098.936-.017 1.46.082.529.236.996.461 1.4.229.4.523.701.884.903.365.202.795.264 1.289.188zm2.354.84l-.894-5.758-.178.028-.763-4.914 1.557-.241 1.657 10.672-1.379.214zm6.512-.487c-.802.068-1.522-.047-2.159-.344a3.733 3.733 0 01-1.538-1.352c-.387-.604-.617-1.322-.687-2.154-.075-.882.024-1.66.298-2.336a3.66 3.66 0 011.262-1.62c.563-.405 1.238-.64 2.025-.707.822-.07 1.538.062 2.149.397.61.329 1.087.833 1.431 1.511.348.678.534 1.503.556 2.474l-1.562.133-.048-.568c-.09-.935-.328-1.613-.715-2.031-.382-.42-.926-.599-1.634-.539-.782.067-1.349.363-1.7.89-.352.527-.488 1.256-.409 2.187.075.887.331 1.558.766 2.013.434.45 1.023.643 1.765.58.489-.042.9-.187 1.235-.436.34-.255.592-.598.756-1.028l1.573.355a3.647 3.647 0 01-1.284 1.803 3.99 3.99 0 01-2.08.772zm-3.202-3.574l-.103-1.218 5.761-.49.104 1.218-5.762.49zm8.352 3.023l-.382-11.018 1.566-.054.383 11.018-1.567.054zm6.757-.166l4.047-10.61 2.255.112 2.964 10.963-1.625-.082-2.735-10.004.405.02-3.685 9.682-1.626-.081zm1.943-2.343l.073-1.469 5.633.283-.073 1.468-5.633-.282z" fill="#7D75EC"/><path d="M147.009 14.161c-.769-.092-1.392-.356-1.869-.79-.476-.44-.809-.997-1.001-1.67-.191-.672-.238-1.41-.142-2.215.097-.804.315-1.51.655-2.12.345-.607.798-1.064 1.358-1.37.566-.31 1.229-.419 1.988-.327.755.09 1.383.354 1.884.792.507.434.871.989 1.092 1.665.222.671.284 1.411.187 2.22-.097.805-.332 1.512-.708 2.121a3.639 3.639 0 01-1.441 1.368c-.585.308-1.253.416-2.003.326zm-3.756-.677L144.54 2.76l1.564.187-.592 4.938-.179-.022-.695 5.786-1.385-.166zm3.709-.756c.497.06.921-.018 1.274-.232.359-.214.643-.525.853-.933.215-.412.355-.884.419-1.415a4.008 4.008 0 00-.074-1.46 2.242 2.242 0 00-.615-1.108c-.302-.293-.711-.47-1.228-.533-.486-.058-.903.013-1.249.213-.341.2-.615.505-.82.914-.2.409-.333.891-.4 1.447s-.051 1.057.046 1.502c.098.445.294.808.587 1.09.293.282.696.454 1.207.515zm15.291 4.029l2.943-10.391 6.155 1.743-.427 1.508-4.647-1.316-.83 2.93 3.781 1.07-.429 1.516-3.781-1.07-1.257 4.437-1.508-.427zm10.07-6.855l.481-1.444 1.487.495-.481 1.445-1.487-.496zm-2.978 8.945l2.558-7.685 1.488.495-2.559 7.686-1.487-.496zm8.912 3.268l1.455-3.708c.115-.293.207-.603.276-.93a2.91 2.91 0 00.061-.976 1.757 1.757 0 00-.328-.87c-.182-.26-.474-.467-.874-.625a2.222 2.222 0 00-.792-.157 1.654 1.654 0 00-.776.17 2.243 2.243 0 00-.708.593c-.22.273-.418.633-.593 1.08l-.774-.698c.269-.684.633-1.237 1.094-1.658a3.1 3.1 0 011.585-.795c.595-.106 1.232-.025 1.911.242.522.205.926.46 1.214.766.288.307.488.64.599 1 .117.358.171.72.161 1.087a4.862 4.862 0 01-.132 1.036 6.645 6.645 0 01-.255.834l-1.644 4.19-1.48-.581zm-5.299-2.08l2.959-7.54 1.305.512-.854 2.179.174.068-2.104 5.362-1.48-.58zm9.755 4.307c-.542-.256-.95-.57-1.222-.942a2.352 2.352 0 01-.456-1.194 2.468 2.468 0 01.24-1.23 2.53 2.53 0 01.658-.884c.264-.218.57-.364.92-.437a3.449 3.449 0 011.177-.033c.37.059.778.15 1.223.271.446.122.91.258 1.392.408.486.153.968.303 1.446.45l-.65.042c.28-.57.359-1.052.236-1.448-.117-.397-.48-.74-1.09-1.028a2.345 2.345 0 00-1.186-.229c-.405.025-.767.213-1.088.565l-1.13-1.031a3.028 3.028 0 011.738-1.013c.686-.13 1.452.006 2.297.405.656.31 1.172.692 1.549 1.146.384.452.575.974.572 1.564a2.44 2.44 0 01-.141.862c-.099.28-.221.573-.366.88l-2.13 4.51-1.254-.592.791-1.675.141.332c-.567.418-1.151.654-1.752.707-.594.052-1.232-.084-1.915-.406zm.799-1.041c.402.19.781.283 1.137.28a2.28 2.28 0 00.958-.22c.281-.138.505-.314.672-.529.18-.18.338-.404.475-.671.142-.265.251-.479.328-.642l.381.388c-.48-.144-.916-.275-1.307-.394a34.53 34.53 0 00-1.074-.308 6.664 6.664 0 00-.873-.188 2.949 2.949 0 00-.638-.002 1.326 1.326 0 00-.523.176.996.996 0 00-.362.434 1.14 1.14 0 00-.108.596c.021.203.105.398.255.585.15.187.376.352.679.495zm8.935 5.845l1.936-3.48c.154-.275.286-.57.399-.885a2.92 2.92 0 00.19-.959 1.758 1.758 0 00-.209-.905c-.146-.282-.407-.528-.783-.737a2.22 2.22 0 00-.764-.262 1.657 1.657 0 00-.792.066 2.23 2.23 0 00-.78.493c-.255.241-.499.572-.732.991l-.674-.795c.358-.642.793-1.141 1.305-1.497a3.099 3.099 0 011.678-.577c.603-.025 1.223.14 1.861.495.489.272.856.58 1.101.922.244.342.398.699.46 1.071.068.37.073.736.015 1.099a4.904 4.904 0 01-.27 1.008c-.121.31-.242.575-.364.793l-2.188 3.933-1.389-.774zm-4.974-2.768l3.938-7.078 1.226.682-1.138 2.045.164.091-2.801 5.034-1.389-.774zm9.308 5.695c-.829-.532-1.387-1.148-1.674-1.85-.288-.7-.277-1.42.032-2.161l1.485.658a1.62 1.62 0 00.042 1.212c.177.4.494.744.948 1.036.413.265.788.387 1.128.367a.959.959 0 00.799-.468c.111-.172.158-.338.141-.497-.01-.161-.114-.373-.313-.638-.199-.264-.52-.639-.962-1.125-.488-.527-.849-.987-1.084-1.38-.227-.396-.34-.757-.339-1.083.008-.327.119-.657.332-.99a2.153 2.153 0 011.02-.869c.416-.167.876-.207 1.38-.122.507.088 1.029.304 1.563.646.522.335.934.716 1.237 1.142.303.426.484.871.542 1.336.061.46-.013.91-.222 1.346l-1.509-.62a1.32 1.32 0 00.038-1.073c-.14-.356-.412-.677-.818-.96-.389-.274-.757-.415-1.102-.422-.343-.012-.598.112-.765.373a.665.665 0 00-.108.474c.029.168.149.387.361.66.211.272.541.647.989 1.124.478.515.827.97 1.048 1.367.223.393.327.76.311 1.1-.01.338-.126.682-.35 1.032-.432.673-1.017 1.043-1.755 1.11-.734.07-1.533-.172-2.395-.725zm8.264 5.511l2.366-3.203c.187-.253.357-.53.509-.827.159-.3.262-.608.311-.927a1.76 1.76 0 00-.091-.925c-.109-.298-.336-.575-.682-.83a2.23 2.23 0 00-.724-.358 1.657 1.657 0 00-.794-.036c-.271.055-.55.185-.837.389-.284.207-.568.503-.853.89l-.566-.876c.436-.59.932-1.03 1.486-1.317a3.098 3.098 0 011.737-.358c.601.053 1.196.296 1.783.73.45.333.775.684.974 1.055.198.37.305.744.318 1.121.021.376-.021.74-.125 1.092a4.957 4.957 0 01-.397.965c-.16.293-.314.54-.462.74l-2.674 3.62-1.279-.945zm-4.579-3.382l6.417-8.687 1.128.833-3.462 4.688.151.111-2.955 4-1.279-.945zm8.79 7.074c-.457-.39-.769-.799-.934-1.229a2.344 2.344 0 01-.129-1.272 2.47 2.47 0 01.554-1.124 2.52 2.52 0 01.866-.682 2.078 2.078 0 011.001-.18c.36.016.741.108 1.145.274.342.154.712.348 1.111.582.398.234.81.486 1.236.757l1.278.813-.638-.13c.419-.477.621-.922.606-1.336-.008-.414-.27-.84-.784-1.278a2.339 2.339 0 00-1.085-.53c-.396-.082-.796.005-1.197.26l-.822-1.29a3.032 3.032 0 011.943-.523c.696.054 1.4.385 2.111.99.552.47.951.975 1.196 1.512.252.536.3 1.09.144 1.659a2.469 2.469 0 01-.362.795 9.674 9.674 0 01-.583.754l-3.234 3.798-1.056-.9 1.201-1.41.05.357c-.657.255-1.283.33-1.876.225-.587-.105-1.168-.403-1.742-.892zm1.042-.797c.339.289.681.478 1.025.567.347.086.674.099.982.038.307-.06.569-.171.787-.334.22-.128.431-.302.634-.524.205-.219.367-.397.483-.534l.267.474-1.159-.721c-.347-.217-.666-.41-.956-.578a6.587 6.587 0 00-.794-.41 2.934 2.934 0 00-.614-.17 1.324 1.324 0 00-.551.034.997.997 0 00-.463.325c-.137.16-.223.342-.26.547-.033.202-.002.412.093.631.096.22.271.438.526.655zm7.016 7.893l2.775-2.857a5.79 5.79 0 00.615-.751 2.89 2.89 0 00.433-.877 1.76 1.76 0 00.034-.928c-.068-.31-.256-.615-.565-.915a2.226 2.226 0 00-.669-.452 1.657 1.657 0 00-.782-.142c-.276.018-.57.109-.882.273-.309.167-.63.422-.965.767l-.443-.943c.512-.527 1.062-.896 1.649-1.106a3.102 3.102 0 011.77-.121c.589.133 1.145.453 1.669.962.402.39.676.782.823 1.176.147.394.202.779.165 1.154-.029.375-.12.73-.271 1.065-.15.334-.324.636-.522.904a6.621 6.621 0 01-.558.67l-3.135 3.229-1.141-1.108zm-4.083-3.966l5.644-5.81 1.006.976-1.631 1.679.135.13-4.013 4.132-1.141-1.107zm7.87 8.327c-.504-.562-.8-1.173-.888-1.833a3.718 3.718 0 01.294-1.965c.287-.654.732-1.251 1.335-1.792.607-.544 1.248-.918 1.925-1.122a3.638 3.638 0 011.985-.066c.65.162 1.228.527 1.735 1.093.511.57.8 1.173.868 1.81.075.638-.039 1.271-.342 1.899-.3.632-.752 1.218-1.355 1.759-.603.54-1.235.925-1.895 1.155-.661.23-1.308.276-1.941.138-.63-.14-1.203-.5-1.721-1.076zm1.201-.784c.344.383.715.614 1.115.692.399.079.809.03 1.229-.145.42-.175.839-.45 1.256-.824.417-.374.734-.762.95-1.164.221-.399.313-.797.278-1.196-.031-.395-.211-.774-.538-1.14-.347-.387-.727-.62-1.141-.699a2.285 2.285 0 00-1.265.127 4.11 4.11 0 00-1.233.783c-.398.357-.706.74-.923 1.15-.21.41-.301.82-.274 1.233.03.416.212.81.546 1.183zm.579 2.432l4.339-3.89-.12-.134 3.702-3.32 1.051 1.173-8.041 7.21-.931-1.04zm3.964 5.227c-.495-.635-.791-1.3-.89-1.997a3.723 3.723 0 01.295-2.026c.295-.655.772-1.239 1.43-1.752.699-.543 1.405-.885 2.121-1.024a3.669 3.669 0 012.047.174c.645.252 1.211.689 1.696 1.312.507.65.787 1.323.84 2.018.056.69-.106 1.365-.487 2.023-.378.662-.968 1.268-1.77 1.816l-.963-1.236.449-.35c.736-.586 1.173-1.155 1.313-1.708.143-.548-.003-1.103-.44-1.663-.482-.62-1.04-.933-1.673-.94-.633-.008-1.319.276-2.056.85-.702.547-1.125 1.127-1.269 1.74-.14.61.019 1.208.477 1.796.301.387.647.652 1.039.797.398.146.823.17 1.273.073l.56 1.513a3.65 3.65 0 01-2.211-.094 3.986 3.986 0 01-1.781-1.322zm1.249-4.633l.965-.751 3.553 4.562-.965.751-3.553-4.562zm1.615 8.102l9.009-6.355.904 1.281-9.01 6.355-.903-1.282zm3.419 4.89l11.084-2.47 1.148 1.943-7.514 8.515-.827-1.401 6.841-7.796.206.349-10.11 2.261-.828-1.4zm3.025.33l1.266-.748 2.869 4.856-1.266.748-2.869-4.856zm3.429 11.731c-.344-.695-.464-1.36-.361-1.998.108-.639.391-1.222.849-1.75.458-.529 1.05-.972 1.776-1.332.726-.36 1.437-.563 2.132-.612.698-.044 1.328.085 1.891.387.569.304 1.023.799 1.362 1.484.337.681.46 1.351.368 2.01a3.624 3.624 0 01-.796 1.826c-.44.552-1.025 1.01-1.756 1.371-.726.36-1.447.549-2.162.569a3.64 3.64 0 01-1.934-.458c-.578-.322-1.034-.82-1.369-1.498zm-1.489-3.515l9.679-4.792.699 1.412-4.456 2.206-.08-.161-5.223 2.585-.619-1.25zm2.663 2.69c.222.449.519.762.892.94.375.183.79.25 1.247.203a4.068 4.068 0 001.413-.424 3.99 3.99 0 001.181-.86c.315-.335.512-.709.592-1.122.079-.413.004-.853-.227-1.319-.217-.44-.504-.749-.861-.93-.355-.175-.76-.237-1.214-.185-.452.056-.929.209-1.43.457-.502.249-.913.535-1.231.86a2.097 2.097 0 00-.592 1.088c-.075.4.001.831.23 1.293zm4.969 15.055l10.31-3.218 1.906 6.108-1.497.467-1.438-4.611-2.907.907 1.171 3.751-1.504.47-1.171-3.752-4.403 1.374-.467-1.496zm11.244 4.715l1.473-.387.398 1.516-1.472.387-.399-1.516zm-9.118 2.397l7.834-2.06.399 1.517-7.834 2.059-.399-1.516zm2.002 8.631l3.897-.821c.308-.065.618-.159.929-.28.318-.118.601-.28.848-.486.249-.2.432-.451.547-.751.117-.295.131-.653.042-1.074a2.196 2.196 0 00-.303-.749 1.642 1.642 0 00-.569-.554 2.218 2.218 0 00-.884-.266c-.349-.034-.759-.002-1.228.097l.158-1.029c.72-.152 1.381-.151 1.986.003.61.153 1.122.448 1.536.887.414.439.697 1.016.847 1.731.116.547.124 1.026.027 1.435a2.54 2.54 0 01-.508 1.049 3.165 3.165 0 01-.819.732 4.888 4.888 0 01-.938.459 6.658 6.658 0 01-.837.245l-4.404.927-.327-1.555zm-1.174-5.571l7.927-1.669.289 1.372-2.29.483.038.183-5.636 1.187-.328-1.556zm1.726 10.278c-.086-.593-.048-1.106.112-1.539.165-.432.414-.779.745-1.038a2.457 2.457 0 011.159-.477 2.52 2.52 0 011.1.061c.328.1.618.275.871.527.258.251.484.572.676.964.156.341.305.731.449 1.17.144.44.286.902.426 1.386.141.49.281.975.421 1.455l-.393-.519c.63-.08 1.076-.281 1.338-.601.268-.316.354-.809.258-1.477a2.344 2.344 0 00-.463-1.115c-.243-.324-.6-.523-1.071-.597l.238-1.511a3.03 3.03 0 011.803.893c.486.501.795 1.214.928 2.139.103.718.069 1.359-.103 1.925a2.329 2.329 0 01-.989 1.339c-.244.166-.51.285-.798.357-.288.071-.6.131-.936.179l-4.937.709-.197-1.374 1.833-.263-.199.302c-.661-.244-1.18-.601-1.555-1.073-.371-.467-.609-1.074-.716-1.822zm1.308.093c.064.44.195.808.394 1.103.203.294.44.52.711.678.27.158.54.248.811.27.25.05.524.059.822.026.299-.028.538-.054.716-.08l-.113.532c-.145-.48-.275-.916-.392-1.308a35.513 35.513 0 00-.335-1.066 6.71 6.71 0 00-.324-.832 2.941 2.941 0 00-.349-.533 1.335 1.335 0 00-.435-.34 1.017 1.017 0 00-.563-.063c-.207.03-.393.11-.556.239a1.106 1.106 0 00-.348.535c-.073.228-.086.507-.039.839zm.079 11.138l3.972-.291c.314-.023.633-.074.958-.153.331-.075.633-.197.906-.368.274-.165.488-.389.643-.671.155-.277.216-.63.185-1.059a2.227 2.227 0 00-.2-.782 1.655 1.655 0 00-.49-.626 2.22 2.22 0 00-.84-.382c-.342-.08-.752-.103-1.231-.068l.295-.999c.733-.054 1.389.036 1.968.269a3.107 3.107 0 011.403 1.085c.352.491.554 1.1.608 1.828.041.559-.014 1.034-.166 1.426a2.557 2.557 0 01-.643.972 3.187 3.187 0 01-.91.616 4.92 4.92 0 01-.991.329 6.678 6.678 0 01-.863.131l-4.488.329-.116-1.586zm-.417-5.677l8.078-.593.103 1.399-2.334.171.014.187-5.745.422-.116-1.586z" fill="#7D75EC"/></svg>