<svg width="496" height="496" fill="none" xmlns="http://www.w3.org/2000/svg"><path d="M471.101 248.656l19.433.525-.311 11.511-2.82-.076.235-8.691-5.479-.148-.192 7.071-2.833-.076.191-7.072-8.3-.224.076-2.82zm16.36 15.492l2.733.201-.207 2.814-2.733-.201.207-2.814zm-16.924-1.242l14.54 1.067-.206 2.814-14.541-1.067.207-2.814zm-1.682 16.402l7.114.882c.563.069 1.145.092 1.747.066a5.21 5.21 0 001.727-.33 3.157 3.157 0 001.371-.959c.371-.434.604-1.036.7-1.804.062-.5.035-.984-.079-1.452a2.982 2.982 0 00-.644-1.277c-.326-.375-.775-.699-1.349-.969-.575-.262-1.292-.446-2.149-.552l.872-1.661c1.313.163 2.439.552 3.379 1.167.948.617 1.647 1.42 2.095 2.409.449.99.593 2.137.431 3.441-.124 1-.389 1.82-.795 2.459-.405.639-.898 1.136-1.477 1.49a5.725 5.725 0 01-1.822.767 8.913 8.913 0 01-1.865.232c-.6.007-1.123-.017-1.569-.073l-8.039-.996.352-2.84zm1.26-10.169l14.47 1.794-.311 2.505-4.18-.518-.041.335-10.29-1.276.352-2.84zm-3.183 19.254c.203-1.06.567-1.912 1.092-2.554.535-.64 1.16-1.084 1.876-1.332a4.427 4.427 0 012.252-.134c.725.138 1.337.388 1.836.749.5.36.891.829 1.175 1.406.293.578.489 1.256.588 2.036.064.672.09 1.423.078 2.255a74.5 74.5 0 01-.085 2.609c-.047.916-.092 1.824-.135 2.723l-.365-1.115c1.12.232 1.996.152 2.63-.24.641-.382 1.075-1.169 1.303-2.363a4.22 4.22 0 00-.136-2.17c-.225-.693-.716-1.24-1.474-1.641l1.289-2.435c1.162.588 2.01 1.447 2.547 2.575.534 1.137.643 2.533.328 4.186-.244 1.282-.678 2.353-1.3 3.215a4.2 4.2 0 01-2.469 1.701 4.44 4.44 0 01-1.566.141 17.038 17.038 0 01-1.699-.242l-8.819-1.682.468-2.453 3.276.625-.516.396c-.983-.801-1.657-1.713-2.02-2.735-.357-1.012-.408-2.186-.154-3.521zm2.174.924c-.15.786-.142 1.489.024 2.107.175.62.447 1.143.814 1.571.368.427.775.739 1.224.934a4.84 4.84 0 001.384.525c.525.128.947.222 1.265.283l-.503.838a810 810 0 01.097-2.455 62.69 62.69 0 00.054-2.01c.012-.593-.01-1.129-.065-1.607a5.242 5.242 0 00-.283-1.112 2.381 2.381 0 00-.542-.832c-.233-.218-.54-.364-.92-.436a2.05 2.05 0 00-1.087.081c-.345.127-.647.362-.905.707s-.444.813-.557 1.406zm-6.396 19.136l6.933 1.823c.549.144 1.123.244 1.722.299a5.224 5.224 0 001.757-.097 3.174 3.174 0 001.486-.768c.426-.381.737-.946.934-1.694a4 4 0 00.115-1.45 2.978 2.978 0 00-.468-1.351c-.272-.416-.675-.796-1.208-1.141-.535-.336-1.22-.614-2.056-.834l1.086-1.529c1.28.337 2.344.872 3.193 1.607.858.737 1.443 1.626 1.756 2.667.313 1.041.302 2.197-.032 3.467-.256.975-.628 1.752-1.115 2.331-.488.58-1.042 1.006-1.663 1.28a5.753 5.753 0 01-1.909.518 8.892 8.892 0 01-1.879-.02 11.717 11.717 0 01-1.545-.28l-7.834-2.06.727-2.768zm2.605-9.909l14.101 3.706-.642 2.442-4.073-1.071-.086.326-10.027-2.635.727-2.768zm-6.224 20.183c.56-1.682 1.388-2.929 2.483-3.741 1.095-.811 2.358-1.112 3.786-.902l-.489 2.882a2.924 2.924 0 00-2.096.611c-.618.487-1.08 1.192-1.387 2.114-.279.837-.325 1.547-.14 2.13.182.592.572.988 1.17 1.187.35.116.661.125.931.025.276-.088.6-.365.973-.829.373-.464.885-1.19 1.536-2.178.702-1.084 1.345-1.918 1.929-2.502.588-.572 1.167-.93 1.737-1.072.574-.131 1.199-.085 1.874.14.837.279 1.493.744 1.968 1.395.476.652.751 1.436.825 2.352.072.925-.073 1.93-.434 3.014-.353 1.059-.833 1.947-1.442 2.665-.609.717-1.306 1.23-2.091 1.537a4.226 4.226 0 01-2.446.211l.413-2.908c.697.128 1.326-.009 1.886-.41.561-.402.999-1.02 1.315-1.854.304-.8.386-1.503.246-2.109-.131-.603-.461-.993-.99-1.169a1.205 1.205 0 00-.876.022c-.278.125-.609.432-.99.922-.381.49-.889 1.231-1.523 2.225-.685 1.062-1.325 1.873-1.92 2.434-.586.564-1.179.907-1.78 1.03-.595.134-1.246.083-1.955-.153-1.366-.455-2.272-1.311-2.716-2.569-.448-1.249-.38-2.749.203-4.5zm-6.15 17.259l6.634 2.719c.524.215 1.08.389 1.667.523a5.24 5.24 0 001.754.135 3.17 3.17 0 001.574-.566c.473-.322.855-.841 1.149-1.557.191-.467.293-.941.305-1.422a2.984 2.984 0 00-.286-1.401c-.215-.448-.564-.878-1.047-1.29-.487-.404-1.13-.769-1.929-1.097l1.278-1.373c1.224.502 2.208 1.173 2.953 2.013.754.844 1.217 1.802 1.39 2.875.173 1.073.011 2.217-.488 3.433-.382.932-.853 1.654-1.412 2.164-.559.51-1.164.86-1.816 1.05-.647.202-1.3.289-1.96.262a8.815 8.815 0 01-1.861-.267c-.58-.15-1.078-.31-1.495-.481l-7.495-3.071 1.085-2.649zm3.886-9.481l17.988 7.372-.957 2.336-9.706-3.978-.128.312-8.282-3.394 1.085-2.648zm-8.266 18.02c.476-.97 1.052-1.694 1.728-2.175.685-.476 1.405-.739 2.162-.789a4.435 4.435 0 012.207.466c.662.325 1.187.728 1.573 1.208.386.48.64 1.035.761 1.666.13.635.139 1.341.029 2.119a20.93 20.93 0 01-.521 2.196 74.54 74.54 0 01-.772 2.493c-.287.872-.57 1.735-.849 2.591l-.058-1.171c1.019.519 1.885.674 2.6.463.719-.199 1.346-.844 1.881-1.934a4.217 4.217 0 00.443-2.129c-.034-.728-.363-1.386-.987-1.973l1.886-2.007c.965.874 1.556 1.927 1.775 3.156.215 1.239-.048 2.613-.789 4.124-.575 1.172-1.276 2.091-2.105 2.757a4.193 4.193 0 01-2.83.988 4.426 4.426 0 01-1.547-.278 16.918 16.918 0 01-1.575-.682l-8.061-3.953 1.1-2.243 2.994 1.469-.602.246c-.736-1.033-1.145-2.09-1.226-3.173-.076-1.07.185-2.215.783-3.435zm1.853 1.465c-.353.719-.531 1.399-.534 2.039.005.644.128 1.22.369 1.73.242.509.553.917.933 1.224.321.328.72.619 1.197.873.472.262.854.464 1.145.607l-.707.675c.271-.859.519-1.64.743-2.342.224-.702.418-1.344.583-1.924.169-.569.289-1.091.362-1.567.049-.407.056-.789.022-1.147a2.374 2.374 0 00-.304-.946c-.167-.272-.424-.494-.771-.664a2.062 2.062 0 00-1.071-.209c-.366.031-.719.178-1.059.443-.34.264-.643.667-.908 1.208zm-11.078 16.525l6.212 3.578c.491.283 1.019.53 1.583.741a5.24 5.24 0 001.72.367c.575.03 1.12-.087 1.636-.351.511-.256.959-.72 1.346-1.39.251-.437.415-.893.491-1.368a2.972 2.972 0 00-.097-1.427c-.153-.473-.442-.946-.866-1.418-.428-.465-1.016-.913-1.765-1.344l1.449-1.191c1.146.66 2.033 1.457 2.659 2.389.635.936.966 1.948.995 3.034.028 1.086-.285 2.199-.941 3.337-.503.874-1.066 1.526-1.688 1.957-.622.431-1.269.697-1.94.799a5.732 5.732 0 01-1.977-.002 8.818 8.818 0 01-1.809-.512 11.596 11.596 0 01-1.417-.676l-7.02-4.042 1.429-2.481zm5.114-8.879l12.634 7.277-1.26 2.187-3.65-2.102-.168.293-8.985-5.175 1.429-2.48zm-11.506 18.115c.759-1.127 1.694-1.913 2.807-2.358 1.108-.437 2.294-.555 3.559-.355 1.267.213 2.505.726 3.715 1.54 1.217.819 2.153 1.774 2.807 2.865.662 1.096.992 2.241.992 3.434.002 1.206-.378 2.376-1.142 3.511-.769 1.142-1.694 1.914-2.777 2.313-1.08.412-2.235.492-3.465.24-1.234-.245-2.456-.775-3.666-1.589-1.209-.814-2.16-1.746-2.852-2.798-.692-1.051-1.058-2.16-1.098-3.325-.032-1.161.341-2.32 1.12-3.478zm1.898 1.75c-.517.769-.757 1.519-.717 2.25.039.732.304 1.426.796 2.082.491.656 1.155 1.265 1.991 1.828.837.563 1.654.945 2.452 1.145.792.208 1.529.194 2.209-.043.675-.229 1.259-.709 1.751-1.441.523-.777.762-1.543.718-2.3-.045-.756-.305-1.474-.781-2.152-.482-.671-1.118-1.273-1.909-1.806-.799-.537-1.604-.905-2.414-1.103-.808-.186-1.566-.164-2.274.065-.712.236-1.319.728-1.822 1.475zm-3.989 2.083l8.703 5.856.18-.269 7.426 4.997-1.583 2.352-16.128-10.853 1.402-2.083zm-7.582 9.494c.89-1.143 1.921-1.955 3.093-2.434a6.724 6.724 0 013.666-.378c1.272.226 2.501.801 3.687 1.725 1.257.979 2.164 2.062 2.722 3.249.553 1.195.752 2.411.598 3.649-.154 1.237-.668 2.417-1.541 3.539-.913 1.172-1.963 1.956-3.152 2.354-1.181.403-2.43.418-3.746.042-1.322-.367-2.638-1.13-3.949-2.289l1.733-2.226.81.631c1.346 1.025 2.532 1.539 3.558 1.539 1.021.008 1.923-.492 2.709-1.5.868-1.115 1.169-2.227.903-3.335-.266-1.109-1.063-2.18-2.391-3.214-1.263-.984-2.462-1.467-3.594-1.448-1.126.024-2.101.565-2.925 1.623-.542.696-.853 1.418-.933 2.165-.079.76.066 1.512.434 2.255l-2.393 1.644c-.681-1.249-.952-2.549-.812-3.901.147-1.345.655-2.576 1.523-3.69zm8.636.138l1.736 1.352-6.396 8.212-1.736-1.352 6.396-8.212zm-13.941 7.003l15.062 12.922-1.837 2.141-15.062-12.922 1.837-2.141zm-7.604 8.681l9.212 18.247-2.883 2.863-18.18-9.345 2.079-2.064 16.627 8.49-.518.513-8.416-16.64 2.079-2.064zm.763 5.425l1.864 1.878-7.205 7.152-1.864-1.878 7.205-7.152zm-19.044 11.226c1.058-.908 2.166-1.414 3.323-1.517 1.162-.096 2.306.138 3.431.703s2.162 1.4 3.111 2.507c.95 1.106 1.621 2.256 2.015 3.447.387 1.198.442 2.354.166 3.469-.278 1.128-.939 2.14-1.985 3.036-1.038.891-2.152 1.403-3.343 1.535-1.192.145-2.371-.047-3.537-.577-1.16-.523-2.217-1.341-3.173-2.454-.949-1.107-1.6-2.28-1.952-3.519-.352-1.227-.373-2.419-.061-3.576.305-1.151.973-2.169 2.005-3.054zm5.468-4.158l12.658 14.754-2.151 1.846-5.828-6.793.246-.211-6.83-7.961 1.905-1.635zm-3.51 5.84c-.683.586-1.097 1.243-1.242 1.973-.152.735-.085 1.49.2 2.265.284.787.74 1.547 1.367 2.278.621.724 1.297 1.283 2.026 1.677.723.4 1.462.577 2.219.533.756-.044 1.49-.371 2.2-.98.669-.575 1.082-1.213 1.238-1.916.149-.697.077-1.43-.215-2.199-.299-.764-.777-1.528-1.433-2.293-.656-.765-1.339-1.353-2.048-1.765-.709-.412-1.429-.594-2.16-.548-.731.046-1.448.371-2.152.975zm-25.05 16.087l10.194 16.553-9.806 6.039-1.479-2.403 7.403-4.559-2.874-4.667-6.024 3.71-1.487-2.414 6.024-3.71-4.354-7.069 2.403-1.48zm-3.643 21.956l1.333 2.394-2.466 1.372-1.332-2.395 2.465-1.371zm-8.251-14.829l7.089 12.741-2.465 1.371-7.09-12.74 2.466-1.372zm-14.591 7.571l3.18 6.424c.252.508.554 1.007.906 1.495.348.5.757.921 1.227 1.261.461.343.98.549 1.555.615.567.071 1.198-.065 1.891-.409a3.971 3.971 0 001.169-.864 2.98 2.98 0 00.711-1.241c.135-.479.157-1.032.067-1.66-.098-.625-.339-1.324-.722-2.098l1.866-.186c.587 1.186.883 2.34.886 3.463.008 1.131-.278 2.156-.857 3.076-.579.919-1.458 1.67-2.635 2.253-.904.448-1.734.678-2.491.691-.756.013-1.442-.125-2.057-.413a5.753 5.753 0 01-1.644-1.099 8.852 8.852 0 01-1.219-1.43 11.543 11.543 0 01-.804-1.349l-3.594-7.259 2.565-1.27zm9.183-4.546l6.469 13.066-2.263 1.12-1.869-3.775-.302.15-4.6-9.291 2.565-1.27zm-18.16 8.032c.998-.414 1.91-.577 2.735-.49.828.095 1.543.374 2.143.837a4.447 4.447 0 011.349 1.808c.282.682.409 1.331.382 1.946a3.76 3.76 0 01-.53 1.754c-.323.562-.783 1.098-1.38 1.609-.526.422-1.14.857-1.842 1.303-.701.447-1.444.9-2.227 1.361-.792.464-1.575.925-2.35 1.383l.731-.917c.421 1.063.969 1.752 1.645 2.066.671.326 1.567.257 2.69-.208a4.222 4.222 0 001.739-1.305c.456-.569.644-1.28.563-2.133l2.742-.259c.146 1.294-.105 2.474-.754 3.542-.657 1.071-1.763 1.928-3.318 2.572-1.206.5-2.339.726-3.401.678a4.195 4.195 0 01-2.777-1.129 4.415 4.415 0 01-.978-1.232c-.253-.47-.496-.987-.731-1.553l-3.435-8.294 2.307-.956 1.276 3.081-.614-.213c.13-1.262.523-2.325 1.177-3.191.65-.853 1.603-1.54 2.858-2.06zm.422 2.324c-.74.306-1.323.699-1.748 1.177-.422.486-.711 1-.866 1.542-.156.542-.192 1.054-.109 1.536.024.457.131.939.321 1.445.181.509.334.913.458 1.213l-.977.039c.771-.465 1.473-.888 2.105-1.266a62.267 62.267 0 001.71-1.059c.502-.315.938-.627 1.307-.936.306-.273.564-.555.775-.847.202-.288.334-.591.397-.91.055-.315.008-.651-.14-1.008a2.05 2.05 0 00-.665-.865c-.295-.219-.657-.341-1.087-.368-.43-.026-.924.076-1.481.307zm-19.305 5.048l2.29 6.793c.181.537.414 1.072.697 1.603a5.232 5.232 0 001.047 1.414 3.18 3.18 0 001.458.819c.553.146 1.196.095 1.929-.152a3.977 3.977 0 001.274-.7c.375-.297.665-.676.872-1.134.197-.456.294-1.002.289-1.636-.014-.632-.159-1.358-.435-2.176l1.875.066c.422 1.254.56 2.437.413 3.551-.144 1.121-.565 2.099-1.262 2.932-.697.834-1.669 1.46-2.914 1.88-.955.322-1.808.439-2.56.35-.752-.088-1.413-.317-1.983-.685a5.732 5.732 0 01-1.482-1.31 8.905 8.905 0 01-1.017-1.58 11.746 11.746 0 01-.615-1.445l-2.588-7.676 2.712-.914zm9.71-3.273l4.657 13.816-2.392.807-1.345-3.992-.32.108-3.312-9.825 2.712-.914zm-20.484 5.905c1.715-.451 3.212-.44 4.49.034s2.22 1.366 2.826 2.677l-2.681 1.166a2.924 2.924 0 00-1.658-1.421c-.745-.251-1.588-.253-2.528-.006-.853.224-1.473.574-1.86 1.048-.396.476-.514 1.019-.354 1.628.094.357.256.621.488.793.225.183.633.304 1.225.362.593.058 1.481.09 2.664.095 1.292-.004 2.342.078 3.15.247.801.181 1.416.47 1.847.869.424.409.726.958.907 1.646.224.853.194 1.656-.092 2.411-.285.754-.792 1.413-1.518 1.976-.736.566-1.656.994-2.761 1.284-1.08.284-2.086.367-3.02.25-.933-.118-1.744-.421-2.431-.911a4.232 4.232 0 01-1.513-1.933l2.66-1.244c.275.654.733 1.106 1.376 1.356.642.249 1.399.278 2.27.087.836-.183 1.47-.498 1.901-.947.433-.439.579-.929.437-1.469a1.201 1.201 0 00-.496-.72c-.258-.165-.696-.274-1.314-.325-.619-.052-1.517-.071-2.696-.059-1.264.006-2.293-.086-3.088-.277-.792-.183-1.404-.492-1.835-.928-.437-.425-.751-.998-.941-1.721-.366-1.392-.144-2.619.667-3.678.801-1.058 2.094-1.821 3.878-2.29zm-17.534 4.241l1.37 7.037c.108.556.268 1.116.479 1.681a5.2 5.2 0 00.85 1.539c.354.454.8.789 1.337 1.005.528.218 1.172.254 1.932.106a4.006 4.006 0 001.356-.526c.41-.245.748-.581 1.014-1.008.256-.426.424-.954.503-1.584.07-.628.023-1.366-.143-2.214l1.85.314c.252 1.299.232 2.49-.061 3.574-.292 1.093-.838 2.006-1.64 2.74-.801.733-1.847 1.226-3.137 1.477-.989.193-1.85.195-2.584.008-.733-.187-1.358-.501-1.875-.942a5.738 5.738 0 01-1.295-1.494 8.928 8.928 0 01-.799-1.701 11.766 11.766 0 01-.418-1.514l-1.548-7.951 2.809-.547zm10.058-1.958l3.715 19.082-2.478.482-2.005-10.296-.331.064-1.711-8.785 2.81-.547zm-19.601 2.965c1.071-.132 1.993-.047 2.765.256.774.312 1.388.771 1.844 1.377.448.615.721 1.316.819 2.102.09.732.041 1.392-.15 1.977a3.737 3.737 0 01-.978 1.55c-.46.456-1.046.851-1.757 1.184-.62.267-1.328.522-2.123.766-.795.244-1.631.483-2.509.719l-2.633.707.949-.688c.122 1.136.468 1.946 1.035 2.429.56.492 1.443.664 2.649.515a4.21 4.21 0 002.023-.795c.591-.427.962-1.063 1.111-1.906l2.712.48c-.203 1.286-.76 2.357-1.669 3.213-.919.857-2.213 1.39-3.884 1.597-1.295.16-2.448.076-3.459-.252a4.195 4.195 0 01-2.376-1.827 4.442 4.442 0 01-.614-1.448 17.158 17.158 0 01-.292-1.691l-1.104-8.91 2.479-.307.41 3.309-.536-.368c.462-1.182 1.123-2.103 1.984-2.763.854-.65 1.955-1.058 3.304-1.226zm-.212 2.353c-.795.098-1.461.321-1.999.669-.536.357-.951.776-1.245 1.256-.294.481-.465.965-.514 1.452a4.81 4.81 0 00-.075 1.478c.04.539.079.97.119 1.291l-.952-.222a649.93 649.93 0 012.366-.66 62.87 62.87 0 001.93-.566 11.94 11.94 0 001.509-.554c.368-.182.692-.385.972-.611a2.38 2.38 0 00.625-.771c.137-.289.181-.625.134-1.009a2.065 2.065 0 00-.411-1.011c-.227-.289-.543-.504-.951-.644-.407-.139-.91-.172-1.508-.098zm-19.948-.206l.415 7.157c.033.566.116 1.143.249 1.73.125.597.337 1.143.636 1.64.29.497.687.889 1.19 1.175.495.287 1.128.408 1.901.363a3.991 3.991 0 001.414-.339c.44-.188.82-.475 1.14-.864.311-.387.548-.888.711-1.501.153-.613.205-1.351.155-2.213l1.791.558c.076 1.321-.104 2.499-.539 3.534-.436 1.044-1.1 1.876-1.992 2.495-.893.62-1.995.968-3.307 1.044-1.006.058-1.86-.055-2.562-.338-.702-.284-1.279-.679-1.732-1.185a5.754 5.754 0 01-1.083-1.654 8.895 8.895 0 01-.563-1.793 11.64 11.64 0 01-.212-1.557l-.469-8.086 2.857-.166zm10.23-.592l.843 14.555-2.52.146-.244-4.205-.337.02-.6-10.351 2.858-.165zm-22.363.305c1.359.021 2.528.377 3.508 1.067.97.69 1.717 1.62 2.239 2.789.512 1.178.758 2.496.735 3.954-.023 1.466-.313 2.772-.87 3.915-.558 1.153-1.337 2.054-2.337 2.705-1.01.659-2.198.978-3.566.957-1.377-.021-2.528-.376-3.454-1.066-.934-.68-1.631-1.604-2.09-2.773-.468-1.168-.691-2.481-.668-3.939.022-1.458.285-2.763.789-3.917.504-1.153 1.234-2.064 2.189-2.734.956-.66 2.131-.98 3.525-.958zm-.43 2.545c-.927-.014-1.687.195-2.278.627-.592.432-1.029 1.032-1.311 1.802-.282.77-.431 1.659-.446 2.666-.016 1.008.11 1.901.377 2.68.258.778.672 1.387 1.241 1.828.56.441 1.281.668 2.163.681.936.015 1.709-.203 2.319-.652.61-.45 1.07-1.059 1.379-1.829.299-.769.457-1.631.471-2.585.015-.963-.115-1.838-.391-2.625-.285-.779-.716-1.402-1.294-1.87-.587-.468-1.331-.709-2.23-.723zm-3.922-2.207l-.162 10.488.324.005-.139 8.95-2.834-.044.3-19.438 2.511.039zm-12.011-1.155c1.444.117 2.688.534 3.731 1.251a6.715 6.715 0 012.328 2.857c.509 1.188.702 2.531.58 4.029-.128 1.588-.536 2.941-1.223 4.059-.696 1.117-1.603 1.951-2.722 2.501-1.119.551-2.388.768-3.805.653-1.48-.12-2.712-.568-3.697-1.343-.985-.766-1.682-1.802-2.091-3.109-.417-1.307-.502-2.826-.253-4.558l2.812.229-.083 1.022c-.119 1.688.103 2.961.666 3.82.553.857 1.467 1.338 2.74 1.441 1.409.114 2.503-.244 3.284-1.074.781-.831 1.239-2.085 1.375-3.762.13-1.597-.124-2.864-.761-3.8-.638-.928-1.625-1.446-2.962-1.555-.879-.071-1.653.065-2.322.408-.679.351-1.228.884-1.647 1.6l-2.687-1.099c.67-1.254 1.609-2.194 2.815-2.819 1.206-.615 2.513-.866 3.922-.751zm4.622 7.296l-.178 2.193-10.375-.842.179-2.193 10.374.842zm-13.537-7.84l-2.592 19.675-2.798-.369 2.592-19.675 2.798.369zm-11.48-1.642l-10.256 17.682-3.973-.853-2.099-20.332 2.864.614 1.968 18.565-.713-.153 9.345-16.137 2.864.614zm-4.128 3.602l-.555 2.587-9.926-2.13.555-2.587 9.926 2.13zm-19.685-9.809c1.339.391 2.368 1.042 3.086 1.955.716.921 1.145 2.006 1.287 3.257.142 1.251.008 2.576-.399 3.976-.408 1.399-1.004 2.59-1.787 3.571-.791.979-1.729 1.657-2.814 2.034-1.096.384-2.305.383-3.627-.002-1.314-.383-2.351-1.037-3.113-1.962-.773-.919-1.256-2.011-1.449-3.277-.196-1.257-.089-2.59.321-3.998.408-1.4 1.035-2.586 1.881-3.558.834-.966 1.821-1.635 2.961-2.006 1.13-.373 2.348-.37 3.653.01zm6.471 2.308l-5.44 18.664-2.721-.794 2.504-8.593.311.091 2.935-10.07 2.411.702zm-6.809.252c-.864-.252-1.641-.24-2.331.037-.699.275-1.295.743-1.788 1.406-.504.668-.891 1.465-1.16 2.389-.267.916-.367 1.787-.298 2.614.06.823.315 1.54.766 2.149.45.61 1.125 1.045 2.023 1.307.847.247 1.607.243 2.281-.01.665-.256 1.24-.717 1.725-1.382.475-.667.854-1.485 1.136-2.453.282-.967.402-1.861.36-2.679-.043-.819-.284-1.522-.722-2.109s-1.102-1.01-1.992-1.269zm-26.996-12.205l-8.3 17.579-10.414-4.917 1.205-2.551 7.862 3.712 2.34-4.957-6.397-3.02 1.211-2.564 6.396 3.021 3.545-7.508 2.552 1.205zm-20.37 8.92l-1.279 2.423-2.495-1.317 1.279-2.423 2.495 1.317zm7.921-15.008l-6.805 12.894-2.496-1.316 6.806-12.895 2.495 1.317zm-14.32-8.142l-3.669 6.158c-.29.488-.544 1.012-.763 1.573a5.21 5.21 0 00-.393 1.714 3.179 3.179 0 00.327 1.641c.248.514.705.97 1.37 1.366.433.258.887.428 1.361.512.469.091.945.066 1.428-.076.475-.147.952-.429 1.431-.845.471-.422.927-1.003 1.369-1.746l1.17 1.467c-.678 1.136-1.487 2.011-2.428 2.624-.946.62-1.962.937-3.048.949-1.087.013-2.195-.317-3.323-.989-.866-.516-1.51-1.088-1.932-1.717-.422-.628-.679-1.279-.77-1.952a5.751 5.751 0 01.03-1.977 8.855 8.855 0 01.539-1.8c.234-.552.467-1.021.697-1.408l4.145-6.959 2.459 1.465zm8.803 5.244l-7.462 12.526-2.169-1.292 2.156-3.619-.29-.173 5.306-8.907 2.459 1.465zm-16.571-10.839c.889.613 1.522 1.289 1.897 2.029.371.747.525 1.498.464 2.254a4.44 4.44 0 01-.785 2.115c-.419.607-.894 1.067-1.425 1.378a3.748 3.748 0 01-1.761.509c-.647.035-1.347-.059-2.1-.283a20.707 20.707 0 01-2.095-.837 73.861 73.861 0 01-2.354-1.13c-.82-.412-1.632-.818-2.437-1.22l1.166.115c-.663.931-.943 1.765-.839 2.504.091.74.636 1.455 1.637 2.144.63.434 1.31.684 2.04.75.726.074 1.425-.155 2.097-.687l1.708 2.161c-1.006.826-2.134 1.257-3.383 1.292-1.256.031-2.577-.431-3.963-1.386-1.074-.74-1.88-1.569-2.418-2.486a4.194 4.194 0 01-.562-2.944 4.437 4.437 0 01.502-1.49c.257-.468.559-.954.906-1.458l5.094-7.393 2.057 1.417-1.892 2.746-.155-.631c1.129-.577 2.235-.826 3.318-.747 1.069.081 2.164.507 3.283 1.278zm-1.721 1.618c-.66-.455-1.306-.73-1.939-.827-.637-.09-1.226-.053-1.765.111-.539.164-.989.412-1.348.743a4.87 4.87 0 00-1.039 1.055c-.328.43-.584.778-.768 1.045l-.565-.799c.811.394 1.546.754 2.208 1.078.662.325 1.268.611 1.818.86.538.25 1.037.446 1.496.588a5.32 5.32 0 001.132.189c.352.013.679-.04.98-.161.294-.125.551-.347.77-.666.215-.311.336-.653.364-1.027.023-.367-.071-.738-.282-1.113-.212-.375-.566-.734-1.062-1.076zm-14.694-13.387l-4.446 5.623c-.352.445-.673.931-.964 1.458a5.223 5.223 0 00-.615 1.648 3.168 3.168 0 00.109 1.669c.179.543.572 1.055 1.179 1.535.395.313.823.541 1.282.686.453.152.928.19 1.425.112.491-.083 1-.299 1.53-.649.522-.356 1.051-.873 1.587-1.551l.966 1.608c-.82 1.037-1.737 1.798-2.751 2.282-1.019.491-2.068.671-3.147.541-1.079-.13-2.133-.603-3.164-1.418-.79-.625-1.354-1.277-1.69-1.955-.335-.679-.504-1.357-.507-2.036a5.737 5.737 0 01.29-1.956 8.896 8.896 0 01.77-1.715c.306-.516.598-.95.877-1.303l5.024-6.354 2.245 1.775zm8.037 6.355l-9.042 11.437-1.981-1.566 2.613-3.304-.265-.209 6.43-8.133 2.245 1.775zm-16.127-13.94c1.316 1.189 2.126 2.447 2.43 3.776.303 1.33.071 2.606-.695 3.83l-2.442-1.605a2.923 2.923 0 00.281-2.165c-.198-.761-.657-1.467-1.379-2.119-.654-.591-1.286-.919-1.895-.983-.615-.071-1.134.127-1.556.595-.247.274-.38.555-.397.842-.03.288.093.696.368 1.224.276.528.735 1.288 1.378 2.281.712 1.079 1.217 2.003 1.518 2.771.287.769.382 1.443.284 2.022-.11.579-.404 1.132-.88 1.66-.592.654-1.281 1.069-2.069 1.243-.787.174-1.616.111-2.485-.189-.876-.306-1.738-.842-2.586-1.608-.828-.748-1.449-1.545-1.861-2.391-.413-.845-.603-1.689-.57-2.532a4.23 4.23 0 01.79-2.325l2.497 1.546c-.397.587-.524 1.218-.381 1.893.143.674.532 1.323 1.17 1.947.61.6 1.22.958 1.832 1.073.605.122 1.095-.024 1.469-.438.217-.24.328-.51.332-.81-.003-.306-.153-.732-.448-1.277-.295-.546-.77-1.309-1.426-2.289-.697-1.054-1.183-1.966-1.458-2.735-.281-.764-.357-1.445-.229-2.044.117-.598.425-1.175.926-1.729.965-1.069 2.112-1.554 3.443-1.456 1.324.092 2.67.756 4.04 1.992zm-13.141-12.364l-5.142 4.995c-.407.395-.789.835-1.146 1.32a5.209 5.209 0 00-.824 1.553 3.168 3.168 0 00-.11 1.669c.106.562.429 1.12.968 1.676a3.99 3.99 0 001.181.847c.43.21.896.309 1.4.298.496-.019 1.03-.167 1.6-.445.564-.284 1.156-.728 1.776-1.33l.748 1.72c-.949.922-1.957 1.556-3.025 1.904-1.074.353-2.138.395-3.19.125-1.053-.27-2.037-.876-2.953-1.819-.702-.723-1.175-1.442-1.42-2.159-.244-.716-.323-1.411-.237-2.084a5.74 5.74 0 01.544-1.902 8.87 8.87 0 01.987-1.599c.37-.472.716-.865 1.039-1.178l5.81-5.644 1.994 2.053zm7.14 7.35l-13.945 13.545-1.76-1.811 7.525-7.309-.235-.242 6.42-6.236 1.995 2.053zM78.4 392.845c.7.822 1.136 1.639 1.307 2.451.165.817.12 1.583-.136 2.297a4.438 4.438 0 01-1.306 1.839c-.562.479-1.14.799-1.734.962a3.754 3.754 0 01-1.832.036c-.634-.134-1.286-.407-1.955-.818a20.785 20.785 0 01-1.807-1.351c-.64-.531-1.3-1.097-1.98-1.701-.686-.61-1.365-1.214-2.039-1.81l1.097.413c-.882.727-1.368 1.461-1.46 2.201-.103.738.239 1.57 1.026 2.495a4.21 4.21 0 001.777 1.253c.682.259 1.416.219 2.203-.12l1.09 2.529c-1.186.537-2.387.661-3.602.373-1.221-.296-2.378-1.085-3.469-2.366-.846-.994-1.41-2.003-1.691-3.028a4.194 4.194 0 01.22-2.989 4.42 4.42 0 01.87-1.309c.37-.386.788-.777 1.254-1.174l6.835-5.82 1.619 1.901-2.539 2.162.014-.65c1.24-.264 2.373-.218 3.398.138 1.012.356 1.959 1.051 2.84 2.086zm-2.081 1.116c-.52-.61-1.072-1.043-1.658-1.301-.593-.252-1.17-.368-1.734-.35-.564.019-1.062.142-1.495.369a4.857 4.857 0 00-1.276.75c-.429.329-.767.599-1.013.809l-.338-.917c.68.59 1.298 1.128 1.853 1.613.555.485 1.066.919 1.533 1.301.455.381.886.7 1.293.956a5.28 5.28 0 001.044.476c.336.104.666.137.988.099.316-.045.622-.193.916-.444.288-.245.494-.545.618-.899.118-.348.123-.73.016-1.147-.107-.418-.356-.856-.747-1.315zm-10.858-16.939l-5.766 4.259c-.456.337-.894.721-1.313 1.154a5.21 5.21 0 00-1.025 1.429 3.167 3.167 0 00-.334 1.639c.03.571.275 1.167.735 1.79.3.405.652.738 1.057.999a2.99 2.99 0 001.346.482c.495.049 1.044-.027 1.646-.226.598-.206 1.244-.566 1.939-1.079l.51 1.805c-1.064.786-2.148 1.279-3.253 1.48-1.112.206-2.172.105-3.179-.304-1.006-.409-1.9-1.142-2.68-2.199-.6-.81-.972-1.587-1.118-2.33-.146-.743-.13-1.442.045-2.098a5.743 5.743 0 01.794-1.811 8.86 8.86 0 011.193-1.452c.43-.418.825-.761 1.187-1.028l6.516-4.812 1.7 2.302zm6.088 8.241l-11.728 8.663-1.5-2.031 3.389-2.502-.201-.272 8.34-6.16 1.7 2.302zM59.577 367.51c.73 1.146 1.075 2.318 1.037 3.516-.043 1.19-.41 2.324-1.099 3.403-.702 1.076-1.668 2.006-2.898 2.788-1.238.788-2.488 1.263-3.75 1.426-1.269.168-2.45.013-3.544-.465-1.105-.481-2.026-1.298-2.76-2.452-.739-1.162-1.075-2.319-1.008-3.471.054-1.155.444-2.245 1.167-3.271.719-1.033 1.693-1.941 2.923-2.724 1.23-.782 2.466-1.28 3.706-1.493 1.24-.214 2.403-.105 3.487.325 1.077.435 1.99 1.241 2.739 2.418zm-2.363 1.039c-.498-.782-1.09-1.301-1.776-1.558-.686-.257-1.428-.292-2.226-.104s-1.622.552-2.473 1.093c-.85.541-1.527 1.137-2.03 1.788-.508.644-.79 1.324-.845 2.042-.06.71.147 1.437.62 2.182.502.789 1.11 1.315 1.82 1.578.711.262 1.473.311 2.285.146.808-.173 1.614-.515 2.419-1.027.813-.517 1.472-1.107 1.978-1.771.493-.666.777-1.369.85-2.109.068-.747-.139-1.501-.622-2.26zm-.313-4.489l-8.85 5.631.174.273-7.551 4.805-1.522-2.392 16.401-10.436 1.349 2.119zm-5.484-10.4c.695 1.271 1.03 2.54 1.004 3.805a6.721 6.721 0 01-1.11 3.515c-.713 1.077-1.73 1.977-3.048 2.698-1.398.764-2.752 1.166-4.064 1.206-1.316.033-2.51-.268-3.585-.901-1.075-.633-1.953-1.573-2.636-2.821-.712-1.303-1.015-2.579-.908-3.827.1-1.244.583-2.396 1.45-3.455.863-1.066 2.086-1.971 3.67-2.714l1.354 2.475-.9.493c-1.476.827-2.418 1.712-2.827 2.653-.413.933-.312 1.961.3 3.082.679 1.24 1.58 1.958 2.702 2.154 1.123.197 2.423-.109 3.9-.916 1.405-.769 2.324-1.677 2.757-2.724.425-1.042.316-2.152-.328-3.329-.423-.774-.962-1.346-1.616-1.716-.666-.375-1.413-.541-2.241-.498l-.558-2.849c1.417-.129 2.718.14 3.902.805 1.177.67 2.104 1.624 2.782 2.864zm-3.56 7.87l-1.93 1.056-4.994-9.133 1.93-1.055 4.995 9.132zm-1.052-15.939l-17.882 8.606-1.224-2.542 17.882-8.606 1.224 2.542zm-4.922-10.432l-20.413 1.067-1.456-3.794L35.9 319.568l1.05 2.735-14.477 11.789-.261-.681 18.622-.987 1.05 2.735zm-5.271-1.491l-2.47.948-3.638-9.477 2.47-.949 3.638 9.478zm-2.54-21.694c.406 1.335.423 2.552.052 3.653-.38 1.103-1.055 2.056-2.024 2.858-.97.803-2.152 1.416-3.547 1.84-1.395.423-2.718.576-3.967.457-1.252-.128-2.333-.542-3.242-1.244-.92-.708-1.581-1.721-1.981-3.039-.398-1.309-.418-2.535-.06-3.678.347-1.15.997-2.152 1.951-3.006.946-.851 2.12-1.49 3.524-1.917 1.395-.423 2.73-.547 4.007-.37 1.265.17 2.365.631 3.298 1.382.931.742 1.594 1.764 1.99 3.064zm1.606 6.68l-18.6 5.65-.824-2.712 8.564-2.602.094.31 10.037-3.049.73 2.403zm-3.933-5.564c-.262-.861-.697-1.504-1.306-1.931-.612-.435-1.33-.677-2.155-.728-.835-.057-1.714.055-2.635.335-.913.277-1.696.67-2.35 1.18-.657.5-1.118 1.106-1.382 1.816-.264.71-.26 1.513.012 2.409.257.844.675 1.479 1.256 1.904.578.417 1.278.647 2.1.689.82.033 1.71-.097 2.675-.39.965-.293 1.778-.681 2.44-1.164.662-.484 1.12-1.069 1.371-1.757.252-.688.243-1.476-.026-2.363zm-4.629-29.206l-19.253 2.688-1.592-11.405 2.794-.39 1.202 8.61 5.428-.757-.978-7.007 2.808-.391.978 7.006 8.223-1.148.39 2.794zm-18.669-12.4l-2.728.254-.261-2.81 2.729-.253.26 2.809zm16.897-1.568l-14.518 1.348-.26-2.81 14.517-1.347.261 2.809zm-1.051-16.503l-7.162.304a10.59 10.59 0 00-1.734.222 5.22 5.22 0 00-1.65.611 3.165 3.165 0 00-1.193 1.172c-.295.49-.425 1.121-.393 1.895.022.503.128.976.318 1.418.18.443.463.828.846 1.154.383.317.88.561 1.49.733.61.164 1.348.227 2.21.19l-.586 1.782c-1.322.056-2.496-.142-3.525-.594-1.037-.451-1.858-1.128-2.464-2.03-.606-.902-.937-2.009-.992-3.322-.043-1.007.083-1.859.378-2.557.294-.697.698-1.268 1.21-1.713a5.73 5.73 0 011.671-1.057 8.808 8.808 0 011.802-.536c.59-.106 1.11-.169 1.56-.188l8.092-.344.122 2.86zm.434 10.237l-14.566.619-.108-2.523 4.209-.178-.015-.338 10.359-.44.121 2.86zm-.025-20.699c-.03 1.08-.252 1.979-.667 2.697-.425.717-.97 1.256-1.637 1.616a4.44 4.44 0 01-2.201.495c-.738-.02-1.382-.168-1.933-.444a3.75 3.75 0 01-1.386-1.199c-.382-.524-.684-1.162-.907-1.915a20.781 20.781 0 01-.44-2.213 74.94 74.94 0 01-.335-2.589c-.101-.912-.203-1.815-.305-2.709l.54 1.041c-1.143-.049-1.995.171-2.558.66-.57.48-.873 1.327-.906 2.541-.02.765.14 1.472.483 2.12.334.648.907 1.11 1.719 1.384l-.881 2.609c-1.241-.393-2.217-1.104-2.927-2.132-.71-1.036-1.043-2.396-.997-4.078.035-1.304.29-2.432.766-3.382a4.196 4.196 0 012.163-2.076 4.43 4.43 0 011.523-.391 17.048 17.048 0 011.716-.034l8.974.242-.067 2.497-3.333-.09.445-.475c1.1.633 1.91 1.425 2.434 2.376.515.941.754 2.091.717 3.449zm-2.294-.562c.021-.8-.1-1.492-.363-2.076-.272-.583-.624-1.056-1.055-1.419-.431-.363-.884-.605-1.358-.726a4.838 4.838 0 00-1.45-.295 27.14 27.14 0 00-1.295-.076l.362-.908c.111.894.21 1.707.299 2.439.088.731.178 1.395.27 1.992.083.588.19 1.113.322 1.575.125.391.277.742.458 1.053.18.302.404.546.669.733.265.179.591.273.978.283.378.011.731-.074 1.06-.254.32-.181.58-.462.78-.844.199-.381.307-.874.323-1.477zm3.168-19.505l-7.138-.663a10.594 10.594 0 00-1.748-.013 5.234 5.234 0 00-1.716.383 3.172 3.172 0 00-1.34 1.001c-.358.446-.573 1.054-.645 1.825-.046.502-.005.984.124 1.448.12.463.347.882.683 1.257.337.366.796.675 1.378.928.583.244 1.305.406 2.165.485l-.82 1.687c-1.318-.123-2.456-.477-3.414-1.063-.967-.587-1.69-1.368-2.168-2.343-.48-.976-.658-2.118-.537-3.426.093-1.004.333-1.831.719-2.482.386-.651.863-1.163 1.43-1.535a5.747 5.747 0 011.799-.823 8.86 8.86 0 011.857-.288 11.836 11.836 0 011.57.023l8.066.749-.265 2.85zm-.947 10.202l-14.518-1.347.234-2.514 4.194.389.03-.336 10.325.959-.265 2.849zm2.857-21.145c-.279 1.751-.892 3.116-1.841 4.095-.949.979-2.145 1.482-3.59 1.507l.015-2.923a2.925 2.925 0 001.968-.944c.53-.581.872-1.352 1.025-2.312.138-.871.069-1.579-.209-2.124-.276-.555-.726-.881-1.348-.98-.364-.058-.672-.016-.922.126-.258.132-.533.457-.825.976-.292.519-.68 1.318-1.161 2.399-.517 1.184-1.015 2.112-1.496 2.783-.488.66-1 1.107-1.54 1.341-.545.222-1.17.278-1.871.166-.871-.138-1.594-.49-2.17-1.056-.575-.565-.974-1.294-1.196-2.186-.221-.901-.242-1.916-.063-3.045.176-1.102.506-2.056.99-2.863.483-.807 1.088-1.427 1.813-1.858a4.227 4.227 0 012.379-.606l.066 2.936c-.71-.012-1.308.225-1.795.713-.488.487-.82 1.168-.995 2.042-.17.839-.137 1.546.1 2.121.227.574.617.905 1.168.993.32.05.606-.004.86-.164.254-.169.53-.526.826-1.072.297-.545.677-1.359 1.141-2.443.503-1.159 1.003-2.064 1.498-2.714.487-.652 1.016-1.087 1.589-1.305.565-.23 1.216-.285 1.954-.168 1.422.226 2.455.924 3.098 2.093.645 1.159.822 2.65.532 4.472zm3.128-17.587l-6.991-1.584a10.65 10.65 0 00-1.732-.24 5.206 5.206 0 00-1.751.157 3.17 3.17 0 00-1.46.818c-.412.396-.704.971-.875 1.726a3.99 3.99 0 00-.066 1.452c.059.475.23.92.514 1.335.287.406.702.772 1.246 1.099.547.317 1.241.571 2.084.762l-1.033 1.566c-1.29-.293-2.373-.791-3.246-1.497-.883-.707-1.498-1.576-1.846-2.605-.348-1.03-.377-2.185-.087-3.467.223-.983.568-1.772 1.035-2.367.467-.596 1.006-1.041 1.618-1.337a5.758 5.758 0 011.89-.582 8.901 8.901 0 011.879-.045 11.79 11.79 0 011.554.228l7.9 1.79-.633 2.791zm-2.264 9.993l-18.96-4.296.558-2.462 10.23 2.318.075-.329 8.73 1.978-.633 2.791zm5.233-19.387c-.31 1.035-.76 1.845-1.348 2.429-.597.582-1.265.96-2.003 1.134a4.445 4.445 0 01-2.254-.098c-.707-.212-1.29-.523-1.75-.933a3.748 3.748 0 01-1.024-1.519c-.232-.605-.357-1.3-.376-2.086a20.72 20.72 0 01.154-2.251c.097-.826.214-1.688.352-2.586.14-.907.278-1.805.413-2.695l.248 1.145c-1.09-.345-1.97-.355-2.64-.03-.677.314-1.19 1.053-1.538 2.217a4.216 4.216 0 00-.087 2.172c.152.713.585 1.308 1.297 1.784l-1.532 2.29c-1.095-.704-1.85-1.645-2.268-2.822-.415-1.186-.381-2.586.102-4.198.374-1.25.915-2.272 1.623-3.065a4.194 4.194 0 012.63-1.438 4.397 4.397 0 011.572.02c.524.1 1.08.239 1.666.414l8.6 2.577-.718 2.393-3.194-.957.554-.342c.895.898 1.472 1.874 1.73 2.928.25 1.043.18 2.216-.21 3.517zm-2.068-1.141c.23-.767.294-1.467.192-2.098-.11-.635-.327-1.183-.649-1.646-.321-.463-.695-.815-1.12-1.055a4.817 4.817 0 00-1.324-.664c-.51-.181-.92-.318-1.23-.411l.587-.783c-.126.893-.242 1.703-.348 2.433a61.841 61.841 0 00-.26 1.994 11.89 11.89 0 00-.1 1.604c.018.41.074.788.167 1.136.096.338.247.633.454.883.21.241.5.417.87.528a2.05 2.05 0 001.09.031c.357-.091.68-.294.973-.611.292-.316.525-.763.698-1.341zm8.263-18.256l-6.711-2.519a10.607 10.607 0 00-1.683-.472 5.225 5.225 0 00-1.757-.083 3.171 3.171 0 00-1.556.613c-.463.336-.83.866-1.102 1.591a3.992 3.992 0 00-.263 1.43c-.006.478.104.942.329 1.392.228.441.59.861 1.085 1.258.498.389 1.152.735 1.96 1.038l-1.235 1.411c-1.239-.465-2.243-1.106-3.013-1.924-.778-.82-1.27-1.764-1.475-2.831-.205-1.067-.077-2.216.384-3.446.355-.944.803-1.679 1.347-2.206.544-.526 1.138-.894 1.784-1.104a5.73 5.73 0 011.952-.32 8.82 8.82 0 011.867.21c.585.133 1.088.279 1.51.437l7.583 2.845-1.006 2.68zm-3.6 9.593l-13.65-5.122.887-2.363 3.943 1.479.119-.316 9.707 3.643-1.005 2.679zm7.946-18.771c-.562 1.238-1.355 2.168-2.379 2.79-1.02.614-2.17.927-3.45.939-1.285-.001-2.592-.302-3.92-.905-1.335-.606-2.416-1.394-3.241-2.362-.834-.971-1.35-2.046-1.547-3.222-.201-1.189-.02-2.406.546-3.652.57-1.254 1.355-2.167 2.357-2.74.997-.585 2.123-.855 3.377-.809 1.258.037 2.55.357 3.878.96 1.328.603 2.42 1.366 3.276 2.288.856.923 1.4 1.956 1.632 3.099.224 1.139.048 2.344-.529 3.614zm-2.161-1.411c.383-.844.495-1.624.335-2.339-.16-.715-.536-1.355-1.13-1.921-.592-.566-1.348-1.057-2.265-1.474-.918-.417-1.787-.658-2.607-.724-.817-.074-1.54.062-2.172.408-.628.337-1.124.908-1.489 1.711-.387.852-.496 1.648-.327 2.386.168.739.544 1.404 1.125 1.994.586.582 1.313 1.071 2.182 1.465.877.398 1.731.628 2.563.69.828.049 1.571-.097 2.231-.44.664-.351 1.182-.937 1.554-1.756zm3.59-2.714l-9.551-4.337-.134.295-8.15-3.701 1.172-2.581 17.7 8.038-1.037 2.286zm6.05-10.963c-.69 1.274-1.574 2.243-2.651 2.909a6.722 6.722 0 01-3.554.975c-1.292-.014-2.6-.38-3.92-1.096-1.4-.759-2.474-1.678-3.22-2.758-.74-1.088-1.137-2.255-1.189-3.501-.05-1.246.262-2.494.94-3.744.708-1.306 1.615-2.252 2.721-2.84 1.1-.592 2.329-.811 3.689-.657 1.364.146 2.788.682 4.272 1.609l-1.345 2.481-.902-.489c-1.496-.791-2.75-1.102-3.762-.934-1.009.16-1.817.802-2.426 1.925-.673 1.242-.788 2.388-.343 3.438.444 1.05 1.406 1.975 2.886 2.777 1.408.764 2.67 1.043 3.784.838 1.106-.209 1.979-.903 2.618-2.082.42-.775.609-1.538.565-2.288-.047-.763-.313-1.481-.799-2.153l2.09-2.015c.878 1.12 1.358 2.358 1.442 3.714.076 1.352-.222 2.649-.896 3.891zm-8.541 1.282l-1.935-1.048 4.96-9.151 1.935 1.048-4.96 9.151zm12.488-9.045l-16.975-10.282 1.462-2.413 16.974 10.281-1.462 2.414zm6.543-10.586L50.09 106.403l2.39-3.286 19.438 6.326-1.724 2.369-17.768-5.729.43-.59 10.961 15.086-1.723 2.369zm-1.618-5.234l-2.14-1.556 5.972-8.21 2.14 1.556-5.972 8.21zm16.347-13.4c-.897 1.068-1.907 1.747-3.032 2.037-1.131.285-2.298.24-3.5-.134-1.201-.374-2.36-1.03-3.478-1.967-1.116-.937-1.966-1.962-2.549-3.073-.577-1.119-.82-2.25-.728-3.396.09-1.158.578-2.264 1.463-3.319.88-1.048 1.896-1.734 3.05-2.058 1.152-.337 2.346-.34 3.583-.007 1.23.327 2.406.962 3.53 1.905 1.117.937 1.95 1.988 2.499 3.154.548 1.153.762 2.326.643 3.518-.114 1.185-.607 2.298-1.48 3.34zm-4.719 4.993L57.212 96.811l1.822-2.172 6.857 5.753-.209.248 8.036 6.743-1.615 1.924zm2.513-6.334c.579-.689.88-1.405.904-2.149.03-.75-.158-1.484-.566-2.202-.409-.73-.982-1.406-1.72-2.025-.73-.613-1.488-1.054-2.272-1.325-.778-.276-1.536-.331-2.276-.165-.739.167-1.41.61-2.011 1.326-.567.676-.87 1.373-.91 2.092-.033.712.157 1.424.57 2.135.42.704 1.016 1.38 1.788 2.028.772.648 1.541 1.118 2.308 1.408.766.291 1.507.354 2.22.189.714-.164 1.37-.602 1.965-1.312zm22.407-20.385L84.258 67.925l8.685-7.562 1.853 2.128-6.557 5.709 3.599 4.134 5.335-4.645 1.862 2.138-5.336 4.645 5.452 6.262-2.128 1.853zm-.396-21.952l-1.707-2.144 2.207-1.758 1.707 2.144-2.207 1.758zm10.574 13.273l-9.085-11.404 2.207-1.758 9.085 11.404-2.207 1.758zm13.521-10.154l-4.175-5.828a10.52 10.52 0 00-1.135-1.33 5.216 5.216 0 00-1.413-1.046 3.171 3.171 0 00-1.635-.357c-.571.022-1.171.258-1.8.709-.41.293-.748.64-1.014 1.041-.272.394-.439.84-.502 1.34-.056.494.011 1.043.201 1.649.198.6.548 1.251 1.051 1.954l-1.812.484c-.77-1.076-1.248-2.167-1.432-3.275-.19-1.115-.073-2.173.35-3.174.424-1 1.169-1.883 2.238-2.648.819-.587 1.601-.948 2.346-1.083.745-.135 1.444-.11 2.097.075a5.734 5.734 0 011.799.82 8.865 8.865 0 011.435 1.215c.412.435.748.836 1.011 1.202l4.716 6.585-2.326 1.666zm-8.33 5.966l-8.491-11.853 2.053-1.47 2.452 3.424.275-.196 6.037 8.429-2.326 1.666zm16.272-10.707c-.917.57-1.79.878-2.618.927-.833.04-1.583-.119-2.251-.478a4.439 4.439 0 01-1.624-1.566c-.389-.627-.62-1.246-.693-1.858a3.75 3.75 0 01.239-1.817c.227-.607.593-1.21 1.1-1.81.451-.503.986-1.032 1.606-1.586a75.42 75.42 0 011.977-1.704c.706-.587 1.404-1.168 2.094-1.745l-.572 1.023c-.588-.981-1.241-1.572-1.959-1.772-.714-.213-1.588 0-2.62.642a4.208 4.208 0 00-1.504 1.57c-.358.635-.428 1.367-.21 2.195l-2.664.7c-.354-1.252-.297-2.457.17-3.616.474-1.164 1.427-2.19 2.856-3.077 1.109-.688 2.191-1.095 3.247-1.221a4.196 4.196 0 012.923.664c.45.282.838.634 1.164 1.057.326.422.651.894.973 1.413l4.736 7.627-2.122 1.318-1.759-2.833.641.11c.077 1.267-.138 2.38-.644 3.34-.502.948-1.331 1.78-2.486 2.497zm-.793-2.225c.681-.422 1.192-.904 1.534-1.445.338-.548.539-1.102.605-1.662.065-.56.018-1.071-.142-1.533a4.825 4.825 0 00-.551-1.374 27.26 27.26 0 00-.649-1.123l.958-.197c-.686.585-1.31 1.115-1.872 1.591-.563.477-1.068.917-1.516 1.322a11.97 11.97 0 00-1.138 1.136c-.257.319-.466.64-.626.961a2.367 2.367 0 00-.245.963c-.003.32.098.643.302.972.199.321.465.57.796.745.327.168.704.23 1.133.187.428-.044.899-.225 1.411-.543zm17.921-8.045l-3.37-6.327c-.266-.5-.583-.99-.949-1.468a5.214 5.214 0 00-1.264-1.223 3.168 3.168 0 00-1.573-.57c-.569-.054-1.195.101-1.878.465a3.998 3.998 0 00-1.143.899 2.988 2.988 0 00-.674 1.261c-.12.483-.126 1.036-.018 1.662.117.62.378 1.313.784 2.075l-1.86.241c-.621-1.167-.951-2.313-.988-3.435-.041-1.13.215-2.163.766-3.1.552-.936 1.408-1.713 2.568-2.33.889-.474 1.712-.729 2.468-.764.756-.036 1.446.081 2.069.351a5.738 5.738 0 011.675 1.05c.491.443.911.907 1.262 1.393s.632.928.843 1.325l3.808 7.15-2.526 1.345zm-9.045 4.816l-6.853-12.869 2.229-1.187 1.979 3.718.298-.158 4.874 9.15-2.527 1.346zm19.707-9.476c-1.617.727-3.095.962-4.434.705-1.339-.256-2.415-.981-3.228-2.175l2.452-1.59a2.921 2.921 0 001.869 1.127c.776.125 1.608-.012 2.494-.41.805-.362 1.359-.809 1.663-1.34.312-.535.339-1.09.08-1.664-.151-.337-.355-.57-.611-.702-.252-.144-.675-.195-1.269-.155-.594.04-1.475.155-2.642.344-1.274.218-2.323.31-3.148.276-.82-.046-1.475-.23-1.965-.553-.486-.334-.875-.825-1.166-1.474-.362-.804-.464-1.602-.306-2.393.157-.791.548-1.524 1.172-2.2.632-.678 1.469-1.252 2.512-1.721 1.017-.458 1.996-.705 2.937-.743.94-.038 1.789.128 2.547.497a4.225 4.225 0 011.811 1.658l-2.419 1.665c-.378-.6-.905-.97-1.58-1.11-.675-.141-1.426-.045-2.253.287-.795.318-1.368.734-1.719 1.247-.355.505-.418 1.012-.19 1.52.133.296.336.506.609.63.281.12.731.155 1.349.104.619-.051 1.508-.18 2.669-.386 1.245-.214 2.276-.293 3.091-.235.812.05 1.466.254 1.963.613.501.346.905.86 1.211 1.542.591 1.313.574 2.56-.051 3.738-.616 1.175-1.766 2.141-3.448 2.898zm15.708-6.78l-2.518-6.712c-.2-.53-.45-1.057-.751-1.578a5.221 5.221 0 00-1.094-1.378 3.168 3.168 0 00-1.485-.769c-.558-.127-1.199-.055-1.923.217a3.992 3.992 0 00-1.25.743 2.98 2.98 0 00-.832 1.163c-.182.463-.26 1.01-.234 1.645.035.63.204 1.35.508 2.16l-1.876-.003c-.465-1.239-.642-2.417-.533-3.535.106-1.126.494-2.117 1.162-2.974.669-.856 1.619-1.515 2.849-1.977.944-.354 1.793-.5 2.547-.436.754.063 1.422.269 2.005.617a5.739 5.739 0 011.525 1.26 8.832 8.832 0 011.07 1.544c.285.528.506 1.003.664 1.424l2.846 7.583-2.68 1.006zm-9.593 3.6l-6.83-18.201 2.364-.887 3.685 9.82.316-.118 3.144 8.38-2.679 1.005zm18.978-6.296c-1.034.31-1.958.38-2.77.21-.814-.179-1.497-.529-2.047-1.05a4.431 4.431 0 01-1.158-1.935c-.212-.707-.273-1.365-.184-1.975.09-.61.325-1.173.706-1.691.377-.527.889-1.014 1.535-1.46a20.706 20.706 0 011.965-1.11c.743-.374 1.527-.75 2.353-1.129.835-.382 1.661-.76 2.478-1.137l-.82.838c-.311-1.1-.786-1.841-1.427-2.222-.634-.393-1.533-.415-2.697-.066a4.21 4.21 0 00-1.862 1.122c-.512.52-.771 1.208-.777 2.065l-2.754-.02c-.014-1.302.355-2.451 1.109-3.447.762-1 1.95-1.74 3.562-2.223 1.25-.375 2.401-.485 3.452-.33a4.194 4.194 0 012.648 1.405c.361.39.644.83.848 1.324.204.493.394 1.033.57 1.62l2.577 8.599-2.393.717-.957-3.195.59.275c-.257 1.242-.756 2.26-1.495 3.055-.733.783-1.75 1.37-3.052 1.76zm-.184-2.355c.767-.23 1.387-.56 1.858-.994.47-.44.809-.923 1.019-1.446.209-.523.297-1.029.264-1.517a4.847 4.847 0 00-.173-1.47c-.129-.525-.24-.943-.333-1.253l.976.06c-.815.385-1.556.734-2.223 1.046-.667.313-1.27.606-1.808.88-.532.263-.997.53-1.396.8-.332.24-.617.494-.856.763-.23.266-.393.555-.488.865-.086.308-.073.647.038 1.018.108.362.299.67.573.927.272.247.62.406 1.045.476.425.07.926.018 1.504-.155zm20.077-3.242l-1.584-6.99a10.539 10.539 0 00-.53-1.667 5.212 5.212 0 00-.896-1.513 3.173 3.173 0 00-1.367-.964c-.535-.201-1.18-.217-1.935-.046a3.99 3.99 0 00-1.339.567 2.982 2.982 0 00-.983 1.039c-.243.433-.394.966-.454 1.598-.051.63.019 1.366.21 2.209l-1.858-.258c-.293-1.29-.309-2.481-.049-3.574.258-1.101.777-2.03 1.556-2.788.778-.758 1.808-1.282 3.09-1.573.983-.222 1.844-.251 2.583-.087.738.165 1.373.46 1.903.884.536.414.983.899 1.34 1.455a8.89 8.89 0 01.85 1.676c.21.561.365 1.061.464 1.5l1.79 7.9-2.791.632zm-9.993 2.265l-3.222-14.22 2.462-.558.931 4.108.329-.075 2.291 10.112-2.791.633zm20.328-3.751c-1.342.208-2.555.055-3.637-.46-1.073-.517-1.965-1.307-2.677-2.372-.704-1.074-1.168-2.332-1.392-3.773-.225-1.45-.159-2.785.198-4.006.356-1.23.972-2.25 1.848-3.06.883-.82 2.001-1.335 3.353-1.545 1.36-.211 2.555-.055 3.584.468 1.036.513 1.878 1.307 2.528 2.38.658 1.074 1.099 2.33 1.323 3.771.223 1.44.184 2.772-.118 3.994-.302 1.222-.868 2.243-1.696 3.064-.831.812-1.935 1.325-3.314 1.539zm-.004-2.581c.916-.143 1.629-.476 2.14-1.002.51-.526.839-1.192.987-1.998.148-.806.145-1.707-.01-2.703-.154-.996-.429-1.855-.823-2.577-.386-.724-.896-1.255-1.532-1.593-.626-.34-1.375-.442-2.247-.307-.925.143-1.65.488-2.175 1.034-.526.546-.876 1.225-1.051 2.035-.166.809-.175 1.685-.029 2.628.148.951.424 1.792.829 2.521.412.72.942 1.261 1.591 1.625.657.362 1.431.475 2.32.337zm4.238 1.514L214.4 16.093l-.321.05-1.373-8.845 2.802-.435 2.982 19.21-2.481.385zm12.317-.972c-1.444.123-2.739-.083-3.887-.618a6.714 6.714 0 01-2.767-2.434c-.698-1.087-1.111-2.38-1.238-3.878-.135-1.587.044-2.989.537-4.205.501-1.217 1.259-2.189 2.272-2.916 1.013-.728 2.227-1.152 3.644-1.272 1.48-.126 2.769.112 3.868.714 1.098.593 1.957 1.5 2.576 2.721.627 1.22.961 2.705 1.002 4.454l-2.812.239-.087-1.023c-.161-1.684-.59-2.903-1.286-3.657-.688-.754-1.668-1.077-2.941-.969-1.408.12-2.429.654-3.062 1.602-.633.948-.878 2.26-.735 3.937.136 1.596.595 2.804 1.378 3.622.783.81 1.842 1.158 3.178 1.044.879-.074 1.62-.336 2.223-.785.612-.458 1.065-1.075 1.36-1.85l2.832.64c-.454 1.348-1.225 2.43-2.312 3.245-1.087.806-2.335 1.27-3.743 1.389zm-5.763-6.433l-.187-2.193 10.371-.882.187 2.193-10.371.882zm15.632 5.395l-.689-19.833 2.82-.098.689 19.833-2.82.098zm12.706-.314l7.285-19.1 4.058.205 5.335 19.732-2.926-.147-4.921-18.008.728.036-6.633 17.428-2.926-.146zm3.496-4.218l.133-2.643 10.139.51-.133 2.642-10.139-.509zm20.052 6.338c-1.385-.166-2.506-.641-3.364-1.424-.857-.792-1.457-1.793-1.802-3.003-.344-1.211-.429-2.54-.255-3.988.174-1.447.567-2.72 1.178-3.815.621-1.095 1.436-1.917 2.445-2.467 1.019-.557 2.212-.754 3.579-.59 1.358.163 2.488.639 3.391 1.427.912.78 1.568 1.779 1.965 2.996.399 1.208.511 2.54.336 3.997-.174 1.448-.598 2.72-1.274 3.817-.665 1.09-1.53 1.91-2.593 2.463-1.055.553-2.257.749-3.606.587zm-6.761-1.22l2.317-19.301 2.815.338-1.067 8.886-.321-.038-1.251 10.415-2.493-.3zm6.676-1.36c.894.107 1.659-.032 2.294-.418.645-.385 1.156-.945 1.534-1.679.388-.742.64-1.591.755-2.547.113-.947.069-1.823-.134-2.627-.193-.802-.562-1.468-1.106-1.995-.544-.528-1.281-.848-2.21-.96-.876-.104-1.626.023-2.249.384-.614.361-1.106.91-1.475 1.644-.361.737-.601 1.605-.721 2.606s-.092 1.902.083 2.702c.176.801.528 1.455 1.056 1.963.529.507 1.253.816 2.173.927zm28.858 7.472l5.298-18.704 11.08 3.138-.769 2.715-8.365-2.37-1.494 5.274 6.806 1.928-.772 2.728-6.807-1.928-2.262 7.988-2.715-.769zm18.612-12.199l.866-2.6 2.677.89-.866 2.6-2.677-.89zm-5.36 16.1l4.606-13.833 2.677.891-4.606 13.834-2.677-.892zm16.314 5.968l2.619-6.673c.207-.528.373-1.087.498-1.676a5.23 5.23 0 00.109-1.755 3.175 3.175 0 00-.589-1.566c-.329-.467-.854-.842-1.575-1.125a3.992 3.992 0 00-1.426-.284 2.977 2.977 0 00-1.396.307c-.445.222-.87.578-1.274 1.067-.397.492-.753 1.14-1.068 1.945l-1.392-1.257c.483-1.232 1.139-2.227 1.968-2.984.833-.766 1.784-1.243 2.854-1.433 1.07-.189 2.216-.043 3.44.437.938.368 1.666.828 2.185 1.38.518.55.877 1.15 1.077 1.8a5.76 5.76 0 01.291 1.956 8.883 8.883 0 01-.238 1.864 11.896 11.896 0 01-.459 1.502l-2.96 7.54-2.664-1.045zm-9.538-3.743l5.326-13.573 2.35.922-1.538 3.921.314.124-3.788 9.651-2.664-1.045zm18.108 7.968c-.977-.462-1.71-1.027-2.2-1.696-.486-.678-.76-1.394-.821-2.15-.05-.76.095-1.497.433-2.213.315-.668.71-1.198 1.184-1.591a3.745 3.745 0 011.655-.786c.633-.14 1.339-.16 2.118-.06a20.63 20.63 0 012.203.488c.802.22 1.637.464 2.505.734.876.274 1.743.545 2.603.811l-1.17.075c.504-1.026.646-1.895.424-2.606-.209-.716-.863-1.334-1.962-1.852a4.214 4.214 0 00-2.135-.411c-.727.044-1.38.383-1.957 1.016l-2.035-1.856c.86-.978 1.903-1.585 3.129-1.822 1.235-.233 2.613.01 4.135.728 1.18.557 2.11 1.245 2.788 2.063a4.195 4.195 0 011.03 2.815 4.418 4.418 0 01-.255 1.552 16.84 16.84 0 01-.659 1.585l-3.833 8.118-2.258-1.067 1.424-3.015.255.598c-1.022.752-2.074 1.176-3.154 1.273-1.069.093-2.218-.151-3.447-.731zm1.437-1.875c.725.342 1.407.51 2.047.504.644-.015 1.218-.147 1.724-.395.506-.25.909-.566 1.211-.952a4.86 4.86 0 00.854-1.209c.255-.476.452-.861.59-1.154l.686.697c-.863-.258-1.648-.494-2.353-.708a61.582 61.582 0 00-1.933-.554 11.867 11.867 0 00-1.571-.34 5.29 5.29 0 00-1.148-.004 2.37 2.37 0 00-.941.318c-.27.17-.487.431-.653.781-.161.342-.225.7-.193 1.073.037.366.189.717.459 1.053.269.336.676.633 1.221.89zm16.562 10.745l3.485-6.264c.276-.495.515-1.026.717-1.594a5.22 5.22 0 00.343-1.725 3.168 3.168 0 00-.376-1.63c-.263-.507-.733-.95-1.41-1.325a3.988 3.988 0 00-1.375-.472 2.98 2.98 0 00-1.425.118c-.471.16-.939.456-1.405.887-.458.435-.898 1.03-1.318 1.785l-1.212-1.431c.644-1.157 1.427-2.055 2.349-2.695.927-.648 1.934-.994 3.019-1.039 1.086-.044 2.203.253 3.351.892.881.49 1.542 1.043 1.982 1.658.44.616.716 1.259.827 1.928a5.74 5.74 0 01.028 1.978 8.915 8.915 0 01-.485 1.816 11.722 11.722 0 01-.656 1.427l-3.938 7.078-2.501-1.392zm-8.954-4.982l7.09-12.74 2.206 1.227-2.048 3.68.294.165-5.041 9.06-2.501-1.392zm17.234 10.515c-1.492-.957-2.497-2.066-3.013-3.328-.517-1.262-.498-2.559.058-3.892l2.672 1.185a2.927 2.927 0 00.076 2.182c.32.718.889 1.34 1.707 1.864.743.477 1.419.697 2.03.661.619-.03 1.098-.311 1.439-.842.199-.31.283-.609.253-.895-.017-.29-.205-.672-.563-1.148-.358-.475-.935-1.15-1.732-2.025-.878-.948-1.528-1.777-1.95-2.486-.41-.711-.613-1.36-.611-1.947.014-.59.213-1.184.597-1.782.477-.743 1.089-1.264 1.838-1.564.748-.3 1.576-.374 2.482-.22.914.158 1.852.546 2.814 1.163.94.603 1.682 1.287 2.228 2.054.545.767.87 1.569.974 2.406.11.83-.023 1.637-.399 2.422l-2.716-1.116c.296-.645.318-1.288.067-1.93-.251-.642-.741-1.219-1.472-1.73-.7-.492-1.361-.745-1.983-.76-.617-.02-1.076.203-1.378.673a1.203 1.203 0 00-.194.854c.053.3.269.696.65 1.187.381.49.974 1.164 1.781 2.024.86.926 1.489 1.746 1.886 2.46.402.708.588 1.367.559 1.98-.017.609-.227 1.228-.63 1.856-.778 1.213-1.831 1.879-3.159 2-1.321.126-2.758-.31-4.311-1.306zm15.313 10.199l4.259-5.766c.337-.456.642-.953.915-1.49a5.229 5.229 0 00.561-1.667 3.165 3.165 0 00-.164-1.664c-.196-.537-.606-1.036-1.228-1.495a4 4 0 00-1.304-.644 2.982 2.982 0 00-1.429-.066c-.487.1-.989.333-1.507.7-.51.373-1.022.907-1.535 1.602l-1.019-1.575c.786-1.064 1.678-1.855 2.675-2.372 1.002-.523 2.045-.738 3.127-.643 1.083.094 2.153.532 3.21 1.313.81.598 1.395 1.231 1.752 1.898.358.668.549 1.34.574 2.019a5.748 5.748 0 01-.226 1.964 8.857 8.857 0 01-.714 1.739c-.287.526-.565.97-.832 1.332l-4.813 6.515-2.302-1.7zm-8.242-6.088l11.55-15.637 2.031 1.5-6.232 8.437.271.2-5.318 7.2-2.302-1.7zm16.329 13.108c-.822-.7-1.383-1.437-1.681-2.212-.292-.78-.369-1.544-.231-2.289a4.45 4.45 0 01.996-2.024c.479-.562.998-.97 1.559-1.226a3.745 3.745 0 011.803-.327c.647.032 1.334.197 2.06.496a20.61 20.61 0 011.999 1.047c.717.421 1.459.876 2.226 1.363.774.493 1.541.981 2.301 1.463l-1.149-.234c.755-.858 1.118-1.66 1.091-2.405-.015-.745-.485-1.512-1.411-2.3a4.214 4.214 0 00-1.953-.954c-.714-.147-1.433.01-2.155.47l-1.479-2.324c1.085-.72 2.25-1.033 3.496-.941 1.253.097 2.52.692 3.801 1.783.994.846 1.711 1.753 2.153 2.72.454.966.54 1.961.258 2.986a4.42 4.42 0 01-.651 1.431c-.303.44-.653.892-1.05 1.358l-5.821 6.835-1.901-1.62 2.162-2.538.09.644c-1.183.459-2.309.593-3.377.405-1.056-.19-2.101-.726-3.136-1.607zm1.877-1.434c.61.52 1.224.86 1.844 1.02.625.155 1.214.178 1.768.07.553-.108 1.025-.309 1.417-.602a4.85 4.85 0 001.14-.944c.371-.393.661-.713.871-.96l.48.852c-.766-.475-1.461-.908-2.086-1.298a61.955 61.955 0 00-1.721-1.04 11.9 11.9 0 00-1.429-.738 5.281 5.281 0 00-1.106-.304 2.379 2.379 0 00-.991.06c-.305.095-.584.29-.834.585a2.043 2.043 0 00-.467.985c-.061.362-.005.74.167 1.136.172.394.488.787.947 1.178zm13.025 14.542l4.995-5.143a10.55 10.55 0 001.107-1.352 5.238 5.238 0 00.779-1.577c.17-.55.19-1.107.061-1.672-.122-.558-.461-1.107-1.017-1.646a3.986 3.986 0 00-1.205-.813 2.98 2.98 0 00-1.407-.257c-.496.033-1.025.197-1.587.491-.556.301-1.135.761-1.737 1.381l-.798-1.697c.922-.95 1.912-1.613 2.969-1.99 1.064-.385 2.126-.458 3.186-.22 1.06.24 2.061.818 3.003 1.733.724.702 1.218 1.408 1.482 2.117.265.709.364 1.401.298 2.077a5.727 5.727 0 01-.488 1.916 8.895 8.895 0 01-.94 1.627 11.87 11.87 0 01-1.004 1.208l-5.644 5.81-2.053-1.994zm-7.35-7.14l10.159-10.458 1.811 1.759-2.935 3.021.242.235-7.224 7.437-2.053-1.994zm14.582 15.392c-.907-1.012-1.44-2.111-1.598-3.3-.152-1.18.023-2.36.527-3.536.517-1.177 1.318-2.251 2.404-3.225 1.092-.979 2.247-1.652 3.466-2.019 1.225-.373 2.416-.413 3.572-.12 1.17.293 2.211.949 3.124 1.967.919 1.026 1.44 2.112 1.562 3.26.135 1.148-.07 2.287-.616 3.417-.54 1.137-1.353 2.192-2.439 3.165-1.085.973-2.223 1.667-3.412 2.08-1.188.413-2.353.496-3.493.249-1.133-.253-2.166-.899-3.097-1.938zm2.161-1.411c.619.69 1.288 1.105 2.007 1.247.719.14 1.456.054 2.213-.262.756-.316 1.51-.81 2.26-1.483.751-.672 1.321-1.371 1.711-2.096.396-.717.563-1.435.5-2.152-.057-.71-.379-1.394-.968-2.05-.625-.698-1.31-1.118-2.054-1.26-.744-.143-1.504-.066-2.278.23-.769.302-1.508.771-2.218 1.408-.718.643-1.271 1.333-1.662 2.07-.378.738-.543 1.478-.494 2.22.055.748.382 1.457.983 2.128zm1.042 4.378l7.811-7.002-.217-.242 6.665-5.974 1.892 2.11-14.474 12.977-1.677-1.869zm7.54 9.859c-.89-1.143-1.424-2.341-1.602-3.595a6.717 6.717 0 01.531-3.647c.531-1.178 1.389-2.229 2.575-3.152 1.257-.98 2.529-1.594 3.817-1.844 1.294-.243 2.522-.139 3.684.313 1.162.453 2.18 1.24 3.054 2.362.913 1.171 1.416 2.382 1.511 3.631.102 1.244-.19 2.458-.876 3.643-.68 1.191-1.742 2.281-3.186 3.269l-1.734-2.226.809-.631c1.324-1.054 2.112-2.078 2.364-3.073.257-.987-.006-1.985-.792-2.994-.868-1.114-1.872-1.678-3.012-1.692-1.14-.013-2.374.497-3.701 1.531-1.264.985-2.026 2.028-2.285 3.131-.251 1.098.035 2.175.859 3.233.542.696 1.165 1.174 1.87 1.435.718.263 1.482.306 2.293.131l1.008 2.723c-1.378.354-2.705.298-3.981-.168-1.269-.472-2.337-1.265-3.206-2.38zm2.249-8.339l1.736-1.353 6.396 8.212-1.736 1.352-6.396-8.211zm3.246 15.02l16.217-11.438 1.626 2.306-16.217 11.437-1.626-2.305zm6.434 9.203l19.951-4.448 2.067 3.499-13.524 15.327-1.49-2.522 12.313-14.032.371.627-18.198 4.071-1.49-2.522zm5.446.593l2.278-1.346 5.164 8.741-2.278 1.345-5.164-8.74zm6.497 21.669c-.619-1.25-.835-2.449-.65-3.595.194-1.15.703-2.201 1.528-3.152.825-.95 1.891-1.749 3.197-2.396 1.307-.647 2.586-1.014 3.839-1.101 1.256-.08 2.39.152 3.402.695 1.024.548 1.842 1.438 2.453 2.672.607 1.226.827 2.433.662 3.619-.154 1.191-.631 2.286-1.432 3.285-.793.995-1.847 1.818-3.162 2.469-1.306.647-2.604.988-3.892 1.023-1.276.039-2.436-.235-3.48-.823-1.04-.579-1.862-1.478-2.465-2.696zm-2.68-6.326l17.422-8.625 1.258 2.541-8.021 3.971-.144-.29-9.4 4.653-1.115-2.25zm4.793 4.843c.399.807.935 1.37 1.605 1.691.675.328 1.424.45 2.245.365.833-.081 1.682-.336 2.545-.763.855-.423 1.563-.94 2.125-1.549.566-.602.921-1.274 1.065-2.018.143-.744.008-1.536-.408-2.375-.391-.79-.908-1.348-1.551-1.672-.638-.317-1.367-.428-2.184-.335-.813.102-1.672.376-2.575.823-.904.447-1.642.964-2.216 1.549-.574.585-.929 1.238-1.064 1.958-.136.72.002 1.495.413 2.326zm9.493 28.339l18.557-5.791 3.431 10.993-2.694.84-2.59-8.299-5.232 1.633 2.108 6.753-2.707.844-2.107-6.753-7.926 2.474-.84-2.694zm20.385 8.973l2.651-.697.717 2.729-2.65.696-.718-2.728zm-16.412 4.314l14.101-3.707.718 2.729-14.101 3.706-.718-2.728zm3.669 15.766l7.015-1.477a10.623 10.623 0 001.673-.504 5.2 5.2 0 001.527-.873c.448-.362.776-.812.984-1.353.21-.531.236-1.176.076-1.933a3.994 3.994 0 00-.546-1.348 2.968 2.968 0 00-1.024-.998c-.43-.25-.96-.41-1.591-.479-.629-.061-1.366-.002-2.212.176l.286-1.854c1.295-.272 2.486-.27 3.575.006 1.097.275 2.018.808 2.764 1.598s1.254 1.828 1.525 3.114c.208.986.224 1.848.048 2.584s-.481 1.365-.913 1.889c-.422.53-.913.969-1.475 1.317a8.761 8.761 0 01-1.689.825 11.75 11.75 0 01-1.507.442l-7.926 1.669-.59-2.801zm-2.112-10.026l14.268-3.005.52 2.471-4.122.868.07.33-10.146 2.136-.59-2.8zm3.224 19.059c-.154-1.069-.086-1.992.202-2.77.298-.779.745-1.403 1.341-1.87a4.445 4.445 0 012.087-.859c.73-.104 1.39-.067 1.98.112a3.746 3.746 0 011.568.948c.464.451.87 1.029 1.217 1.734.279.615.548 1.317.807 2.108.259.79.514 1.621.767 2.494.254.882.506 1.755.758 2.619l-.707-.935c1.134-.144 1.936-.505 2.408-1.082.482-.569.637-1.455.465-2.658a4.226 4.226 0 00-.834-2.008c-.438-.582-1.081-.94-1.927-1.073l.428-2.721c1.289.179 2.371.714 3.244 1.607.875.902 1.432 2.186 1.671 3.852.186 1.292.124 2.446-.184 3.463a4.2 4.2 0 01-1.782 2.411 4.44 4.44 0 01-1.435.642c-.518.129-1.08.237-1.686.324l-8.887 1.275-.354-2.472 3.3-.474-.358.543c-1.191-.439-2.124-1.082-2.8-1.931-.666-.841-1.096-1.934-1.289-3.279zm2.356.167c.114.793.35 1.454.708 1.985.366.529.793.936 1.279 1.221.487.285.974.447 1.461.486.45.09.943.106 1.48.047.538-.05.968-.098 1.289-.144l-.204.956c-.26-.862-.496-1.647-.706-2.353a61.037 61.037 0 00-.603-1.919 11.833 11.833 0 00-.583-1.498 5.225 5.225 0 00-.629-.96 2.366 2.366 0 00-.783-.61c-.291-.131-.629-.169-1.012-.114a2.049 2.049 0 00-1.002.43c-.285.232-.493.553-.625.962-.132.41-.156.914-.07 1.511zm.219 20.602l7.149-.525a10.54 10.54 0 001.726-.275 5.208 5.208 0 001.63-.661 3.17 3.17 0 001.157-1.209c.279-.499.391-1.134.334-1.906a3.986 3.986 0 00-.361-1.408 2.976 2.976 0 00-.881-1.127c-.393-.305-.897-.534-1.513-.687-.615-.145-1.353-.185-2.215-.122l.531-1.799c1.32-.096 2.5.065 3.542.485 1.05.419 1.892 1.07 2.526 1.953.633.883.998 1.98 1.094 3.29.074 1.006-.026 1.861-.299 2.567-.273.706-.659 1.289-1.157 1.75a5.746 5.746 0 01-1.638 1.109 8.983 8.983 0 01-1.784.591c-.587.124-1.104.203-1.553.236l-8.078.593-.21-2.855zm-.75-10.219l14.541-1.067.185 2.517-4.201.309.025.337-10.341.759-.209-2.855z" fill="#236FE3"/></svg>