<svg width="165" height="136" fill="none" xmlns="http://www.w3.org/2000/svg"><mask id="a" style="mask-type:luminance" maskUnits="userSpaceOnUse" x="80" y="0" width="85" height="103"><path d="M80.757 0h83.862v102.448H80.757V0z" fill="#fff"/></mask><g mask="url(#a)"><path d="M124.277 0L88.813 97.435a6.803 6.803 0 01-5.703 4.433v.046h37.49a6.782 6.782 0 006.383-4.475L162.46 0h-38.183z" fill="#236FE3"/></g><path d="M80.051 100.436a6.42 6.42 0 005.243-2.718c.121-.17.547-.767.848-1.578L99.15 60.384l-7.61-20.882a6.43 6.43 0 00-11.172-1.236c-.124.17-.63.932-.848 1.578L66.512 75.588l7.644 20.965a6.42 6.42 0 005.895 3.883z" fill="#236FE3"/><mask id="b" style="mask-type:luminance" maskUnits="userSpaceOnUse" x="0" y="31" width="84" height="105"><path d="M0 31.01h83.862v104.974H0V31.01z" fill="#fff"/></mask><g mask="url(#b)"><path d="M82.832 34.067H44.929a6.797 6.797 0 00-6.395 4.479L3.07 135.98h38.182l35.467-97.432a6.793 6.793 0 016.113-4.47v-.012z" fill="#236FE3"/></g></svg>