<svg width="226" height="57" fill="none" xmlns="http://www.w3.org/2000/svg"><path d="M26.193 56.116c-5.356 0-9.98-1.166-13.873-3.496-3.868-2.331-6.856-5.592-8.964-9.782C1.273 38.646.232 33.774.232 28.22s1.041-10.427 3.124-14.617c2.108-4.19 5.096-7.451 8.964-9.782C16.213 1.49 20.837.325 26.193.325c6.15 0 11.307 1.524 15.473 4.574 4.19 3.05 7.141 7.179 8.852 12.386l-10.191 2.827c-.992-3.248-2.666-5.765-5.021-7.55-2.356-1.81-5.393-2.716-9.113-2.716-3.397 0-6.236.756-8.517 2.27-2.257 1.512-3.955 3.644-5.096 6.396-1.14 2.753-1.71 5.989-1.71 9.708 0 3.72.57 6.956 1.71 9.708 1.14 2.752 2.84 4.885 5.096 6.397 2.281 1.513 5.12 2.27 8.517 2.27 3.72 0 6.757-.906 9.113-2.716 2.355-1.81 4.03-4.327 5.021-7.55l10.191 2.826c-1.71 5.207-4.662 9.336-8.852 12.386-4.166 3.05-9.323 4.575-15.473 4.575zM46.097 55L62.462 1.44h15.101L93.928 55H83.514L68.934 7.763h1.934L56.511 55H46.097zm9.819-11.158v-9.448h28.268v9.448H55.916zm58.773 12.274c-5.356 0-9.98-1.166-13.873-3.496-3.868-2.331-6.856-5.592-8.964-9.782-2.083-4.191-3.124-9.063-3.124-14.618 0-5.554 1.041-10.427 3.124-14.617 2.108-4.19 5.096-7.451 8.964-9.782 3.893-2.331 8.517-3.496 13.873-3.496 6.15 0 11.307 1.524 15.473 4.574 4.191 3.05 7.141 7.179 8.852 12.386l-10.191 2.827c-.992-3.248-2.666-5.765-5.021-7.55-2.356-1.81-5.393-2.716-9.113-2.716-3.397 0-6.236.756-8.517 2.27-2.257 1.512-3.955 3.644-5.096 6.396-1.14 2.753-1.71 5.989-1.71 9.708 0 3.72.57 6.956 1.71 9.708 1.141 2.752 2.839 4.885 5.096 6.397 2.281 1.513 5.12 2.27 8.517 2.27 3.72 0 6.757-.906 9.113-2.716 2.355-1.81 4.029-4.327 5.021-7.55l10.191 2.826c-1.711 5.207-4.661 9.336-8.852 12.386-4.166 3.05-9.323 4.575-15.473 4.575zM169.014 55v-8.331h-23.283V37.22l16.886-35.78h11.604l-16.886 35.78h11.679V23.83h10.266v13.39h4.761v9.448h-4.761V55h-10.266zm36.394 1.116c-3.968 0-7.439-.83-10.415-2.492-2.975-1.662-5.294-3.98-6.955-6.956-1.661-2.975-2.492-6.447-2.492-10.414V20.186c0-3.967.831-7.439 2.492-10.414 1.661-2.976 3.98-5.294 6.955-6.955 2.976-1.662 6.447-2.492 10.415-2.492 3.967 0 7.438.83 10.414 2.492 2.976 1.66 5.294 3.98 6.955 6.955 1.662 2.975 2.492 6.447 2.492 10.414v16.068c0 3.968-.83 7.439-2.492 10.415-1.661 2.975-3.979 5.294-6.955 6.955-2.976 1.661-6.447 2.492-10.414 2.492zm0-9.596c1.785 0 3.397-.422 4.835-1.265a9.434 9.434 0 003.422-3.422c.843-1.438 1.264-3.05 1.264-4.835v-17.63c0-1.785-.421-3.397-1.264-4.835a9.433 9.433 0 00-3.422-3.422c-1.438-.843-3.05-1.265-4.835-1.265-1.786 0-3.397.422-4.836 1.265a9.441 9.441 0 00-3.422 3.422c-.843 1.438-1.264 3.05-1.264 4.835v17.63c0 1.785.421 3.397 1.264 4.835a9.442 9.442 0 003.422 3.422c1.439.843 3.05 1.265 4.836 1.265z" fill="#236FE3"/></svg>