<svg width="73" height="80" fill="none" xmlns="http://www.w3.org/2000/svg"><path fill-rule="evenodd" clip-rule="evenodd" d="M25.14 29.436V80h.07l10.242-14.18V15.04L25.14 29.436zM.5 63.456V80h10.243V49.346L.5 63.456zm12.177-16.903V80h10.456V32.086L12.678 46.553zM47.77 29.436V80L37.386 65.82V15.04l10.385 14.396zm24.71 34.02V80H62.239V49.346l10.242 14.11zM60.16 46.553V80H49.777V32.086l10.384 14.467zM72.838 0v17.476l-10.6 14.11V0h10.6zM60.161 34.235V0H49.777v28.577l7.162 9.955 3.222-4.297zM47.771.286L38.389 12.82l9.382 13.035V.286zM0 0v17.476l10.671 14.11V0H0zm12.678 34.163V0h10.456v28.577l-7.162 9.955-3.294-4.369zM25.068.286l9.381 12.534-9.381 13.035V.286z" fill="#236FE3"/></svg>