<svg width="120" height="132" fill="none" xmlns="http://www.w3.org/2000/svg"><path fill-rule="evenodd" clip-rule="evenodd" d="M41.369 48.44v83.206h.117l16.853-23.335v-83.56L41.37 48.438zM.825 104.42v27.225H17.68V81.203L.825 104.421zm20.037-27.814v55.039H38.07V52.8L20.862 76.607zM78.61 48.439v83.207l-17.088-23.335v-83.56L78.61 48.438zm40.662 55.982v27.225h-16.854V81.203l16.854 23.218zM99 76.607v55.039H81.912V52.8L99 76.607z" fill="#000"/><path fill-rule="evenodd" clip-rule="evenodd" d="M119.861 0v28.758l-17.443 23.218V0h17.443zM99 56.336V0H81.91v47.025l11.785 16.383L99 56.336zM78.61.471L63.172 21.096 78.61 42.547V.471zM0 .001v28.757l17.56 23.218V0H0zm20.862 56.217V0h17.206v47.025L26.282 63.408l-5.42-7.19zM41.251.471l15.438 20.625L41.25 42.547V.471z" fill="#A6A8AA"/></svg>