<svg width="129" height="157" fill="none" xmlns="http://www.w3.org/2000/svg"><g clip-path="url(#clip0_442_8187)"><path d="M124.895 53.521c-.919.707-17.147 9.766-17.147 29.909 0 23.299 20.649 31.541 21.267 31.745-.095.503-3.28 11.288-10.887 22.278-6.783 9.672-13.867 19.327-24.643 19.327-10.777 0-13.55-6.201-25.99-6.201-12.124 0-16.435 6.405-26.292 6.405-9.857 0-16.735-8.949-24.643-19.939C7.4 124.14 0 104.091 0 85.063c0-30.521 20.03-46.708 39.745-46.708 10.476 0 19.208 6.814 25.784 6.814 6.26 0 16.022-7.222 27.94-7.222 4.516 0 20.744.408 31.426 15.574zM87.811 25.026c4.929-5.793 8.415-13.832 8.415-21.87 0-1.115-.095-2.245-.3-3.156-8.02.298-17.56 5.29-23.313 11.9-4.516 5.087-8.732 13.126-8.732 21.274 0 1.225.206 2.45.301 2.842.507.094 1.331.204 2.156.204 7.194 0 16.243-4.773 21.473-11.194z" fill="#111"/></g><defs><clipPath id="clip0_442_8187"><path fill="#fff" d="M0 0h129v157H0z"/></clipPath></defs></svg>