<svg width="240" height="97" fill="none" xmlns="http://www.w3.org/2000/svg"><path d="M4 4.15h167.02l20.167 27.525L211.354 4.15h24.645L203.51 48.497l32.489 44.355h-24.645l-20.167-27.526-20.167 27.526H4V4.15z" fill="#236FE3"/><path d="M23.773 75.209v-53.37h8.096c16.313 0 23.745 8.238 23.745 26.36 0 18.998-6.88 27.01-23.526 27.01h-8.315zm74.112-17.023l10.205-35.69 10.319 35.69H97.885zM8.57 88.393h24.077c25.521 0 38.386-13.514 38.386-40.194 0-26.143-12.866-39.647-37.835-39.647H8.57v79.84zm169.84-39.929l-29.26 39.945 20.158.018 19.404-26.505 9.864-13.457-9.864-13.45L169.307 8.55h-20.158l29.26 39.914zM74.693 88.393h14.424l5.102-17.464h27.849l4.997 17.464h15.203L117.963 8.548H98.997L74.693 88.393z" fill="#fff"/></svg>