<svg width="251" height="80" fill="none" xmlns="http://www.w3.org/2000/svg"><path fill-rule="evenodd" clip-rule="evenodd" d="M92.42 0L76.338 80h14.25l8.957-44.409h5.599L115.322 80h15.064l-10.179-44.409h-4.885L138.629 0h-16.285L99.647 34.804 106.669 0h-14.25z" fill="#236FE3"/><path fill-rule="evenodd" clip-rule="evenodd" d="M141.887 0l-16.081 80h14.25l8.955-44.409h5.6L164.788 80h15.065l-10.177-44.409h-4.888L188.096 0H171.81l-22.696 34.804L156.136 0h-14.249zM54.353 80h14.251L84.686 0h-14.25L54.352 80zm166.313 0h14.251L251 0h-14.252l-16.082 80z" fill="#236FE3"/><path fill-rule="evenodd" clip-rule="evenodd" d="M175.476 80h37.761l2.848-14.173h-23.512l3.97-19.84h21.886l2.848-14.176h-21.883l3.664-18.269h23.41L229.319 0h-37.763l-16.08 80zM62.699 0H50.893L39.799 55.273 32.979 0H16.084L0 80h11.91l11.5-58.111L30.637 80h15.981l16.08-80z" fill="#236FE3"/></svg>