<svg width="235" height="102" fill="none" xmlns="http://www.w3.org/2000/svg"><g clip-path="url(#clip0_442_8201)"><path d="M0 1.078h49.395v14.449h-31.22v27.386h31.22v14.664h-31.22v42.914H0V1.078zm77.193 14.449h-21.81V1.078h61.155v14.449H95.155v84.964H77.193V15.526z" fill="#3B6E8F"/><mask id="a" style="mask-type:luminance" maskUnits="userSpaceOnUse" x="119" y="0" width="57" height="103"><path d="M119.104 102.431h56.879V.001h-56.879v102.43z" fill="#fff"/></mask><g mask="url(#a)"><path d="M121.242 81.298c3.421 2.156 11.333 6.038 20.742 6.038 7.912 0 14.968-4.313 14.968-14.448 0-7.116-4.063-10.135-12.83-15.095l-9.195-4.96c-9.622-5.391-15.823-13.37-15.823-26.093 0-17.899 14.327-26.956 30.792-26.956 10.477 0 17.747 2.588 20.527 3.666l-.855 15.096c-4.277-1.726-10.05-4.313-18.39-4.313-8.98 0-13.471 4.96-13.471 11.644 0 7.548 4.704 10.351 10.264 13.37l10.692 6.038c11.333 6.47 16.892 12.724 16.892 26.74 0 20.271-14.113 29.975-32.93 29.975-9.836 0-17.534-1.51-22.238-4.528" fill="#3B6E8F"/></g><mask id="b" style="mask-type:luminance" maskUnits="userSpaceOnUse" x="185" y="1" width="51" height="100"><path d="M185.605 100.922h49.609V1.078h-49.609v99.844z" fill="#fff"/></mask><g mask="url(#b)"><path d="M185.605 1.078H235v14.448h-31.433V43.13H235v14.448h-31.433v28.465H235v14.448h-49.395V1.078z" fill="#3B6E8F"/></g></g><defs><clipPath id="clip0_442_8201"><path fill="#fff" d="M0 0h235v102H0z"/></clipPath></defs></svg>