<svg width="255" height="80" fill="none" xmlns="http://www.w3.org/2000/svg"><path fill-rule="evenodd" clip-rule="evenodd" d="M14.314.242c6.754-.38 13.44.36 20.057 2.216 4.839 1.806 7.126 5.992 6.862 12.558l-1.584 2.216c-4.305-.522-8.527-1.999-12.667-4.432-5.215-1.538-10.141-.553-14.78 2.954-3.033 4.508-2.681 8.448 1.056 11.82a560.348 560.348 0 0124.28 13.296c6.901 8.088 8.133 17.691 3.695 28.808-2.046 3.85-4.685 6.558-7.917 8.126-9.757 3.562-19.258 2.578-28.503-2.955-3.575-2.958-5.159-7.143-4.75-12.558.849-1.926 2.08-2.911 3.695-2.954 3.272 1.858 6.438 4.074 9.5 6.648 7.084 3.863 13.594 2.631 19.53-3.694 1.098-4.633.219-8.326-2.64-11.08-5.844-3.507-11.826-6.462-17.945-8.864C2.158 37.636-1.537 28.033 1.118 13.538 4.198 6.354 8.596 1.922 14.314.242z" fill="#236FE3"/><path d="M100.309 33.284c2.537-15.58 8.941-24.73 18.514-28.912 9.066-.835 15.541 1.648 20.159 6.937 4.896 5.605 8.232 14.951 9.39 28.786-1.566 15.621-5.452 25.442-10.813 30.612-4.949 4.774-11.968 6.302-22.192 3.246-11.593-7.852-16.951-20.947-15.058-40.669z" stroke="#236FE3" stroke-width="8.43"/><path fill-rule="evenodd" clip-rule="evenodd" d="M49.15 1.72c14.784-.247 29.563 0 44.338.738 2.918 4.382 2.567 8.322-1.056 11.82a85.444 85.444 0 01-15.835.738c.177 20.197 0 40.387-.527 60.572-3.219 5.883-6.386 5.883-9.501 0a1738.262 1738.262 0 01-.528-60.572 97.165 97.165 0 01-16.89-.739c-2.746-4.18-2.746-8.366 0-12.557zM194.83.242c5.125-.792 7.412 2.163 6.862 8.864l-12.668 23.638-5.806-11.08A525.536 525.536 0 01194.83.242zm52.78 0c3.697-.492 6.161 1.724 7.389 6.648-3.949 9.228-8.523 17.845-13.723 25.854a141.206 141.206 0 00-5.278-11.08A361.148 361.148 0 01247.61.242zm-88.672 0c3.85.18 6.842 2.641 8.973 7.387a757.332 757.332 0 0116.362 32.502A915.894 915.894 0 01165.8 75.587c-2.247 4.37-5.061 5.354-8.446 2.955-1.253-2.28-1.604-4.744-1.055-7.387a1266.177 1266.177 0 0016.362-31.763 1051.625 1051.625 0 00-15.307-28.809c-.879-3.946-.351-7.392 1.584-10.341zm81.282 47.276c1.052-.127 1.931.366 2.64 1.477 3.467 7.319 7.338 14.212 11.612 20.683 1.232 8.126-1.056 11.327-6.862 9.603-4.255-6.743-8.126-13.883-11.612-21.422a596.094 596.094 0 004.222-10.341zM210.661.242c3.327-.8 5.966.678 7.917 4.432a962.083 962.083 0 0118.474 35.457 1052.345 1052.345 0 01-19.529 36.934c-6.388 5.329-9.204 2.867-8.446-7.387A680.312 680.312 0 00225.44 40.13a611.703 611.703 0 00-15.307-28.07c-2.224-4.242-2.049-8.18.528-11.82zm-22.164 47.276c4.882 6.736 9.28 14.123 13.195 22.16 1.232 8.126-1.055 11.327-6.861 9.603a491.802 491.802 0 00-11.085-19.945c.709-4.426 2.292-8.366 4.751-11.818z" fill="#236FE3"/></svg>