<svg width="89" height="70" fill="none" xmlns="http://www.w3.org/2000/svg"><g clip-path="url(#clip0_161_2070)"><path d="M16.755 69.16v-4.554c0-1.742-1.054-2.883-2.864-2.883-.905 0-1.888.3-2.565 1.291-.527-.831-1.282-1.29-2.415-1.29-.756 0-1.511.23-2.109 1.06v-.91h-1.58v7.286h1.58v-4.023c0-1.291.677-1.902 1.731-1.902s1.581.681 1.581 1.901v4.024h1.581v-4.023c0-1.291.756-1.902 1.73-1.902 1.055 0 1.582.681 1.582 1.901v4.024h1.748zm23.454-7.286h-2.566v-2.202h-1.58v2.202H34.63v1.44h1.432v3.343c0 1.672.677 2.653 2.486 2.653.677 0 1.432-.23 1.96-.53l-.458-1.37c-.456.3-.983.38-1.361.38-.756 0-1.054-.46-1.054-1.212v-3.263H40.2v-1.441h.008zm13.422-.16c-.905 0-1.511.46-1.889 1.062v-.911h-1.581v7.286h1.581v-4.103c0-1.211.527-1.901 1.51-1.901.3 0 .677.08.985.15l.456-1.52c-.316-.063-.764-.063-1.062-.063zm-20.283.76c-.755-.53-1.81-.76-2.943-.76-1.81 0-3.013.911-3.013 2.353 0 1.211.905 1.9 2.486 2.122l.756.08c.825.15 1.282.38 1.282.76 0 .53-.606.91-1.66.91a4.15 4.15 0 01-2.416-.76l-.755 1.212c.826.61 1.959.91 3.092.91 2.108 0 3.32-.99 3.32-2.352 0-1.29-.983-1.972-2.485-2.202l-.756-.08c-.676-.079-1.203-.23-1.203-.68 0-.53.527-.831 1.361-.831.905 0 1.81.38 2.267.61l.667-1.291zm42.067-.76c-.905 0-1.51.46-1.888 1.062v-.911h-1.582v7.286h1.582v-4.103c0-1.211.527-1.901 1.51-1.901.3 0 .677.08.984.15l.457-1.503c-.307-.08-.755-.08-1.063-.08zm-20.203 3.803c0 2.202 1.51 3.793 3.847 3.793 1.054 0 1.81-.23 2.565-.83l-.755-1.292c-.606.46-1.204.681-1.889.681-1.282 0-2.187-.91-2.187-2.352 0-1.37.905-2.282 2.187-2.352.677 0 1.283.23 1.889.68l.755-1.29c-.755-.61-1.51-.832-2.565-.832-2.336-.009-3.847 1.592-3.847 3.794zm14.625 0v-3.643h-1.58v.91c-.528-.68-1.283-1.06-2.267-1.06-2.038 0-3.62 1.59-3.62 3.793 0 2.202 1.582 3.793 3.62 3.793 1.054 0 1.81-.38 2.266-1.06v.91h1.581v-3.643zm-5.806 0c0-1.291.826-2.352 2.187-2.352 1.283 0 2.188.99 2.188 2.352 0 1.29-.905 2.352-2.188 2.352-1.353-.08-2.187-1.07-2.187-2.352zM45.11 61.714c-2.108 0-3.62 1.521-3.62 3.794 0 2.281 1.512 3.794 3.699 3.794 1.054 0 2.108-.301 2.943-.99l-.756-1.142c-.606.46-1.361.76-2.108.76-.984 0-1.959-.459-2.187-1.741h5.35v-.61c.07-2.344-1.292-3.865-3.321-3.865zm0 1.371c.984 0 1.66.61 1.81 1.742h-3.77c.15-.981.826-1.742 1.959-1.742zm39.282 2.432V58.99h-1.58v3.793c-.528-.68-1.283-1.06-2.267-1.06-2.038 0-3.619 1.59-3.619 3.793 0 2.202 1.581 3.793 3.62 3.793 1.053 0 1.809-.38 2.265-1.06v.91h1.581v-3.643zm-5.806 0c0-1.291.826-2.352 2.188-2.352 1.282 0 2.187.99 2.187 2.352 0 1.29-.905 2.352-2.188 2.352-1.361-.08-2.187-1.07-2.187-2.352zm-52.933 0v-3.643h-1.581v.91c-.527-.68-1.282-1.06-2.266-1.06-2.038 0-3.62 1.59-3.62 3.793 0 2.202 1.582 3.793 3.62 3.793 1.054 0 1.81-.38 2.266-1.06v.91h1.581v-3.643zm-5.876 0c0-1.291.825-2.352 2.187-2.352 1.282 0 2.187.99 2.187 2.352 0 1.29-.905 2.352-2.187 2.352-1.362-.08-2.187-1.07-2.187-2.352z" fill="#EFEFEF"/><path d="M56.573 6.535H32.821v42.958h23.752V6.535z" fill="#C4C7C8"/><path d="M34.402 28.014c0-8.728 4.076-16.474 10.33-21.48C40.13 2.893 34.323.69 27.99.69 12.987.69.847 12.91.847 28.014c0 15.104 12.14 27.325 27.143 27.325 6.333 0 12.14-2.202 16.742-5.845-6.263-4.935-10.33-12.752-10.33-21.48zm54.216 0c0 15.104-12.14 27.325-27.143 27.325-6.334 0-12.14-2.202-16.743-5.845 6.334-5.014 10.33-12.752 10.33-21.48s-4.075-16.474-10.33-21.48C49.326 2.893 55.132.69 61.466.69c15.012 0 27.152 12.3 27.152 27.324z" fill="#EFEFEF"/></g><defs><clipPath id="clip0_161_2070"><path fill="#fff" transform="translate(.847 .69)" d="M0 0h87.771v68.621H0z"/></clipPath></defs></svg>