<svg width="27" height="28" fill="none" xmlns="http://www.w3.org/2000/svg"><g clip-path="url(#clip0_442_5104)"><path d="M7.983 7.543c-.587 1.761-.822 3.757-.94 5.87h5.87v-5.87h-4.93zM5.87 14.587H0a14.136 14.136 0 001.643 5.87h5.048c-.47-1.761-.704-3.757-.821-5.87zM8.335 6.37h4.578V1.204c-1.878.353-3.522 2.348-4.578 5.166zm5.752-5.166V6.37h4.578c-1.056-2.818-2.7-4.813-4.578-5.166zm4.93 6.34h-4.93v5.87h5.87c-.118-2.114-.353-4.11-.94-5.87zm2.113 7.043c0 2.113-.352 4.109-.821 5.87h5.047A14.136 14.136 0 0027 14.586h-5.87zm-14.087 0c.118 2.113.353 4.109.94 5.87h4.93v-5.87h-5.87zm-5.4-7.044A14.136 14.136 0 000 13.413h5.87c.117-2.113.352-4.109.821-5.87H1.643zM8.335 21.63c1.056 2.818 2.7 4.814 4.578 5.166V21.63H8.335zm-1.292 0H2.348c1.996 2.818 4.93 4.93 8.452 5.635-1.526-1.056-2.817-3.052-3.757-5.635zm12.796 0c-.822 2.583-2.113 4.579-3.756 5.635 3.521-.704 6.574-2.7 8.452-5.635h-4.696zM16.2.735c1.526 1.056 2.817 3.052 3.756 5.635h4.696C22.657 3.552 19.722 1.44 16.2.735zM2.465 6.37h4.696c.822-2.583 2.113-4.58 3.756-5.635-3.521.704-6.574 2.7-8.452 5.635zm11.622 15.26v5.166c1.878-.352 3.522-2.348 4.578-5.166h-4.578zm0-7.043v5.87h4.93c.587-1.761.822-3.757.94-5.87h-5.87zm11.27-7.044h-5.048c.47 1.761.704 3.757.821 5.87H27a14.136 14.136 0 00-1.643-5.87z" fill="#236FE3"/></g><defs><clipPath id="clip0_442_5104"><path fill="#fff" transform="translate(0 .5)" d="M0 0h27v27H0z"/></clipPath></defs></svg>