<svg width="148" height="54" fill="none" xmlns="http://www.w3.org/2000/svg"><g clip-path="url(#clip0_161_2076)"><path fill-rule="evenodd" clip-rule="evenodd" d="M37.02 46.442c4.571 0 9.531 1.526 15.022 6.26.55.474 1.283-.115.802-.704-5.395-6.63-10.385-7.893-15.362-8.959-6.089-1.307-9.219-4.64-11.401-8.301-.434-.727-.63-.599-.668.337-.05 1.144.034 2.66.297 4.15-.247.01-.493.01-.743.01-8.707 0-15.768-6.873-15.768-15.35 0-8.476 7.06-15.347 15.77-15.347 8.708 0 15.768 6.871 15.768 15.347 0 .604-.03 1.201-.1 1.785-1.152-.202-3.418-.225-5.008-.092-.597.051-.513.323-.06.402 5.212.916 8.792 4.061 9.612 9.767.017.132.196.17.265.056a22.64 22.64 0 003.376-11.918c0-12.82-10.68-23.216-23.853-23.216-13.175 0-23.855 10.394-23.855 23.216 0 12.823 10.68 23.219 23.855 23.219 3.493 0 6.963-.662 12.05-.662zm1.775-8.429c1.061.872 1.384 1.91.823 2.643-.312.401-.818.624-1.425.624a2.57 2.57 0 01-1.622-.573c-.965-.821-1.249-2.15-.62-2.906.247-.297.647-.46 1.126-.46.582 0 1.193.24 1.718.672zm4.897-2.218c.155 1.017-.173 1.438-.506 1.438-.363 0-.817-.411-1.352-1.226-.53-.803-.724-1.725-.46-2.19.172-.308.535-.443.992-.274.886.325 1.232 1.644 1.326 2.252zm33.066-5.316l-2.75-3.22a.512.512 0 01.125-.77.543.543 0 01.286-.08h5.753c.273-.793.429-1.64.429-2.523 0-4.032-3.085-7.51-7.318-7.51-4.232 0-7.317 3.478-7.317 7.51s3.085 7.462 7.317 7.462c1.283 0 2.457-.32 3.477-.87l-.002.001zm12.444 5.439c.299.323.054.84-.397.84h-6.277a.877.877 0 01-.662-.302l-1.063-1.246a14.05 14.05 0 01-7.52 2.166c-7.642 0-13.86-6.051-13.86-13.49 0-7.438 6.218-13.49 13.86-13.49 7.643 0 13.86 6.052 13.86 13.49 0 2.683-.81 5.181-2.202 7.284l4.261 4.748zm57.999-24.898h-5.125c-.18 0-.353.07-.48.195a.657.657 0 00-.2.468v24.411a.67.67 0 00.68.663h5.125a.672.672 0 00.682-.663V11.682a.66.66 0 00-.199-.47.693.693 0 00-.483-.195v.003zm-8.623 0h-5.731a.695.695 0 00-.405.128.67.67 0 00-.248.338l-4.536 14.426-4.987-14.442a.66.66 0 00-.248-.328.692.692 0 00-.398-.123h-4a.694.694 0 00-.398.123.67.67 0 00-.25.328l-4.985 14.442-4.536-14.426a.665.665 0 00-.247-.339.696.696 0 00-.406-.129h-5.732a.698.698 0 00-.552.275.642.642 0 00-.095.593l8.421 24.424a.68.68 0 00.646.45h4.55a.678.678 0 00.646-.449l4.938-14.27 4.936 14.269a.68.68 0 00.647.45h4.551a.679.679 0 00.646-.45l8.421-24.424a.641.641 0 00-.093-.593.696.696 0 00-.553-.275l-.002.002zm-39.924.663v24.411a.671.671 0 01-.682.663H92.85a.69.69 0 01-.482-.194.657.657 0 01-.2-.469V11.682c0-.367.304-.665.682-.665h5.123c.377 0 .682.298.682.666z" fill="#EFEFEF"/></g><defs><clipPath id="clip0_161_2076"><path fill="#fff" transform="translate(.618 .669)" d="M0 0h146.817v52.663H0z"/></clipPath></defs></svg>