<svg width="320" height="474" fill="none" xmlns="http://www.w3.org/2000/svg"><path d="M357 213.694c-25.349 94.496-74.078 251.47-66.206 123.391 9.84-160.099-57.435-178.011-109.63-131.352-52.194 46.659-35.509 222.679-87.383 125.824C41.907 234.701-6.544 181.851 23.083 195.34c41.775 19.019 1.712 141.745-33.477 109.902C-21.633 295.072-42.91 228.215-52 195.34" stroke="#EFEFEF" stroke-opacity=".81" stroke-width=".128"/><path d="M357 206.097c-25.349 94.497-74.078 251.471-66.206 123.392 9.84-160.099-57.435-178.011-109.63-131.352-52.194 46.658-35.509 222.679-87.383 125.823C41.907 227.105-6.544 174.254 23.083 187.743c41.775 19.02 1.712 141.746-33.477 109.903C-21.633 287.476-42.91 220.618-52 187.743" stroke="#EFEFEF" stroke-opacity=".81" stroke-width=".128"/><path d="M357 198.501c-25.349 94.497-74.078 251.47-66.206 123.391 9.84-160.099-57.435-178.011-109.63-131.352-52.194 46.659-35.509 222.679-87.383 125.824C41.907 219.508-6.544 166.658 23.083 180.147c41.775 19.02 1.712 141.745-33.477 109.902C-21.633 279.879-42.91 213.022-52 180.147" stroke="#EFEFEF" stroke-opacity=".81" stroke-width=".128"/><path d="M357 190.904c-25.349 94.496-74.078 251.47-66.206 123.391 9.84-160.099-57.435-178.011-109.63-131.352-52.194 46.659-35.509 222.679-87.383 125.824C41.907 211.911-6.544 159.061 23.083 172.55c41.775 19.019 1.712 141.745-33.477 109.902C-21.633 272.282-42.91 205.425-52 172.55" stroke="#EFEFEF" stroke-opacity=".81" stroke-width=".128"/><path d="M357 183.307c-25.349 94.497-74.078 251.471-66.206 123.392 9.84-160.099-57.435-178.011-109.63-131.352-52.194 46.658-35.509 222.679-87.383 125.823C41.907 204.315-6.544 151.464 23.083 164.953c41.775 19.02 1.712 141.746-33.477 109.903C-21.633 264.686-42.91 197.828-52 164.953" stroke="#EFEFEF" stroke-opacity=".81" stroke-width=".128"/><path d="M357 175.711c-25.349 94.497-74.078 251.471-66.206 123.392 9.84-160.1-57.435-178.011-109.63-131.353-52.194 46.659-35.509 222.68-87.383 125.824C41.907 196.719-6.544 143.868 23.083 157.357c41.775 19.02 1.712 141.746-33.477 109.903C-21.633 257.089-42.91 190.232-52 157.357" stroke="#EFEFEF" stroke-opacity=".81" stroke-width=".128"/><path d="M357 168.115c-25.349 94.496-74.078 251.47-66.206 123.391 9.84-160.099-57.435-178.011-109.63-131.352-52.194 46.659-35.509 222.679-87.383 125.824C41.907 189.122-6.544 136.272 23.083 149.761c41.775 19.019 1.712 141.745-33.477 109.902C-21.633 249.493-42.91 182.635-52 149.761" stroke="#EFEFEF" stroke-opacity=".81" stroke-width=".128"/><path d="M357 160.518c-25.349 94.497-74.078 251.471-66.206 123.391 9.84-160.099-57.435-178.011-109.63-131.352-52.194 46.659-35.509 222.679-87.383 125.824C41.907 181.525-6.544 128.675 23.083 142.164c41.775 19.02 1.712 141.745-33.477 109.902C-21.633 241.896-42.91 175.039-52 142.164" stroke="#EFEFEF" stroke-opacity=".81" stroke-width=".128"/><path d="M357 152.921c-25.349 94.497-74.078 251.471-66.206 123.392 9.84-160.1-57.435-178.011-109.63-131.353-52.194 46.659-35.509 222.68-87.383 125.824C41.907 173.929-6.544 121.078 23.083 134.567c41.775 19.02 1.712 141.746-33.477 109.903C-21.633 234.299-42.91 167.442-52 134.567" stroke="#EFEFEF" stroke-opacity=".81" stroke-width=".128"/><path d="M357 145.325c-25.349 94.497-74.078 251.471-66.206 123.391 9.84-160.099-57.435-178.01-109.63-131.352-52.194 46.659-35.509 222.68-87.383 125.824C41.907 166.332-6.544 113.482 23.083 126.971c41.775 19.02 1.712 141.745-33.477 109.902C-21.633 226.703-42.91 159.846-52 126.971" stroke="#EFEFEF" stroke-opacity=".81" stroke-width=".128"/><path d="M357 137.728c-25.349 94.497-74.078 251.471-66.206 123.392 9.84-160.1-57.435-178.011-109.63-131.352-52.194 46.658-35.509 222.679-87.383 125.823C41.907 158.736-6.544 105.885 23.083 119.374c41.775 19.02 1.712 141.746-33.477 109.903C-21.633 219.107-42.91 152.249-52 119.374" stroke="#EFEFEF" stroke-opacity=".81" stroke-width=".128"/><path d="M357 130.132c-25.349 94.496-74.078 251.47-66.206 123.391 9.84-160.1-57.435-178.01-109.63-131.352-52.194 46.659-35.509 222.679-87.383 125.824C41.907 151.139-6.544 98.289 23.083 111.778c41.775 19.019 1.712 141.745-33.477 109.902C-21.633 211.51-42.91 144.653-52 111.778" stroke="#EFEFEF" stroke-opacity=".81" stroke-width=".128"/><path d="M357 122.535c-25.349 94.497-74.078 251.471-66.206 123.391 9.84-160.099-57.435-178.01-109.63-131.352-52.194 46.659-35.509 222.68-87.383 125.824C41.907 143.542-6.544 90.692 23.083 104.181c41.775 19.02 1.712 141.745-33.477 109.902C-21.633 203.913-42.91 137.056-52 104.181" stroke="#EFEFEF" stroke-opacity=".81" stroke-width=".128"/><path d="M357 114.939c-25.349 94.497-74.078 251.47-66.206 123.391 9.84-160.1-57.435-178.01-109.63-131.352-52.194 46.659-35.509 222.679-87.383 125.824C41.907 135.946-6.544 83.096 23.083 96.585c41.775 19.02 1.712 141.745-33.477 109.902C-21.633 196.317-42.91 129.46-52 96.585" stroke="#EFEFEF" stroke-opacity=".81" stroke-width=".128"/><path d="M357 107.342c-25.349 94.497-74.078 251.471-66.206 123.391 9.84-160.099-57.435-178.01-109.63-131.352-52.194 46.659-35.509 222.68-87.383 125.824C41.907 128.35-6.544 75.499 23.083 88.988c41.775 19.02 1.712 141.745-33.477 109.902C-21.633 188.72-42.91 121.863-52 88.988" stroke="#EFEFEF" stroke-opacity=".81" stroke-width=".128"/><path d="M357 99.746c-25.349 94.497-74.078 251.471-66.206 123.391 9.84-160.099-57.435-178.01-109.63-131.352-52.194 46.659-35.509 222.68-87.383 125.824C41.907 120.753-6.544 67.903 23.083 81.392c41.775 19.02 1.712 141.745-33.477 109.902C-21.633 181.124-42.91 114.267-52 81.392" stroke="#EFEFEF" stroke-opacity=".81" stroke-width=".128"/><path d="M357 92.15c-25.349 94.496-74.078 251.47-66.206 123.391 9.84-160.1-57.435-178.011-109.63-131.353-52.194 46.659-35.509 222.68-87.383 125.824C41.907 113.157-6.544 60.306 23.083 73.795c41.775 19.02 1.712 141.746-33.477 109.903C-21.633 173.527-42.91 106.67-52 73.795" stroke="#EFEFEF" stroke-opacity=".81" stroke-width=".128"/><path d="M357 84.553c-25.349 94.497-74.078 251.471-66.206 123.391 9.84-160.099-57.435-178.01-109.63-131.352-52.194 46.659-35.509 222.68-87.383 125.824C41.907 105.56-6.544 52.71 23.083 66.199c41.775 19.02 1.712 141.745-33.477 109.902C-21.633 165.931-42.91 99.074-52 66.199" stroke="#EFEFEF" stroke-opacity=".81" stroke-width=".128"/><path d="M357 76.956c-25.349 94.497-74.078 251.471-66.206 123.391 9.84-160.099-57.435-178.01-109.63-131.352-52.194 46.659-35.509 222.679-87.383 125.824C41.907 97.963-6.544 45.113 23.083 58.602c41.775 19.02 1.712 141.745-33.477 109.902C-21.633 158.334-42.91 91.477-52 58.602" stroke="#EFEFEF" stroke-opacity=".81" stroke-width=".128"/><path d="M357 69.36c-25.349 94.496-74.078 251.47-66.206 123.391 9.84-160.1-57.435-178.01-109.63-131.352-52.194 46.659-35.509 222.679-87.383 125.824C41.907 90.367-6.544 37.517 23.083 51.006c41.775 19.02 1.712 141.745-33.477 109.902C-21.633 150.738-42.91 83.881-52 51.006" stroke="#EFEFEF" stroke-opacity=".81" stroke-width=".128"/><path d="M357 61.763c-25.349 94.497-74.078 251.471-66.206 123.392 9.84-160.1-57.435-178.011-109.63-131.352-52.194 46.658-35.509 222.679-87.383 125.824C41.907 82.771-6.544 29.92 23.083 43.409c41.775 19.02 1.712 141.746-33.477 109.903C-21.633 143.142-42.91 76.284-52 43.409" stroke="#EFEFEF" stroke-opacity=".81" stroke-width=".128"/><path d="M357 54.167c-25.349 94.497-74.078 251.47-66.206 123.391 9.84-160.1-57.435-178.01-109.63-131.352-52.194 46.659-35.509 222.679-87.383 125.824C41.907 75.174-6.544 22.324 23.083 35.813c41.775 19.02 1.712 141.745-33.477 109.902C-21.633 135.545-42.91 68.688-52 35.813" stroke="#EFEFEF" stroke-opacity=".81" stroke-width=".128"/><path d="M357 46.57c-25.349 94.497-74.078 251.471-66.206 123.391 9.84-160.099-57.435-178.01-109.63-131.352-52.194 46.66-35.509 222.68-87.383 125.824C41.907 67.578-6.544 14.727 23.083 28.216c41.775 19.02 1.712 141.745-33.477 109.903C-21.633 127.948-42.91 61.091-52 28.216" stroke="#EFEFEF" stroke-opacity=".81" stroke-width=".128"/><path d="M357 38.973c-25.349 94.497-74.078 251.471-66.206 123.392 9.84-160.1-57.435-178.011-109.63-131.352-52.194 46.658-35.509 222.679-87.383 125.823C41.907 59.981-6.544 7.13 23.083 20.619c41.775 19.02 1.712 141.746-33.477 109.903C-21.633 120.352-42.91 53.494-52 20.62" stroke="#EFEFEF" stroke-opacity=".81" stroke-width=".128"/><path d="M357 31.377c-25.349 94.497-74.078 251.471-66.206 123.392 9.84-160.1-57.435-178.011-109.63-131.353-52.194 46.66-35.509 222.68-87.383 125.824C41.907 52.385-6.544-.466 23.083 13.023c41.775 19.02 1.712 141.746-33.477 109.903C-21.633 112.755-42.91 45.898-52 13.023m409 288.78c-25.349 94.497-74.078 251.471-66.206 123.392 9.84-160.099-57.435-178.011-109.63-131.352-52.194 46.658-35.509 222.679-87.383 125.824C41.907 322.811-6.544 269.961 23.083 283.45c41.775 19.019 1.712 141.745-33.477 109.902C-21.633 383.182-42.91 316.324-52 283.45" stroke="#EFEFEF" stroke-opacity=".81" stroke-width=".128"/><path d="M357 294.207c-25.349 94.497-74.078 251.471-66.206 123.392 9.84-160.1-57.435-178.011-109.63-131.352-52.194 46.658-35.509 222.679-87.383 125.823C41.907 315.215-6.544 262.364 23.083 275.853c41.775 19.02 1.712 141.746-33.477 109.903C-21.633 375.586-42.91 308.728-52 275.853" stroke="#EFEFEF" stroke-opacity=".81" stroke-width=".128"/><path d="M357 286.61c-25.349 94.497-74.078 251.471-66.206 123.391 9.84-160.099-57.435-178.01-109.63-131.352-52.194 46.659-35.509 222.68-87.383 125.824C41.907 307.618-6.544 254.767 23.083 268.256c41.775 19.02 1.712 141.745-33.477 109.903C-21.633 367.988-42.91 301.131-52 268.256" stroke="#EFEFEF" stroke-opacity=".81" stroke-width=".128"/><path d="M357 279.014c-25.349 94.497-74.078 251.471-66.206 123.391 9.84-160.099-57.435-178.011-109.63-131.352-52.194 46.659-35.509 222.68-87.383 125.824C41.907 300.021-6.544 247.171 23.083 260.66c41.775 19.02 1.712 141.745-33.477 109.902C-21.633 360.392-42.91 293.535-52 260.66" stroke="#EFEFEF" stroke-opacity=".81" stroke-width=".128"/><path d="M357 271.418c-25.349 94.497-74.078 251.47-66.206 123.391 9.84-160.099-57.435-178.011-109.63-131.352-52.194 46.659-35.509 222.679-87.383 125.824C41.907 292.425-6.544 239.575 23.083 253.064c41.775 19.02 1.712 141.745-33.477 109.902C-21.633 352.796-42.91 285.939-52 253.064" stroke="#EFEFEF" stroke-opacity=".81" stroke-width=".128"/><path d="M357 263.821c-25.349 94.496-74.078 251.47-66.206 123.391 9.84-160.099-57.435-178.011-109.63-131.352-52.194 46.659-35.509 222.679-87.383 125.824C41.907 284.828-6.544 231.978 23.083 245.467c41.775 19.019 1.712 141.745-33.477 109.902C-21.633 345.199-42.91 278.342-52 245.467" stroke="#EFEFEF" stroke-opacity=".81" stroke-width=".128"/><path d="M357 256.224c-25.349 94.497-74.078 251.471-66.206 123.392 9.84-160.099-57.435-178.011-109.63-131.352-52.194 46.658-35.509 222.679-87.383 125.823C41.907 277.232-6.544 224.381 23.083 237.87c41.775 19.02 1.712 141.746-33.477 109.903C-21.633 337.603-42.91 270.745-52 237.87" stroke="#EFEFEF" stroke-opacity=".81" stroke-width=".128"/><path d="M357 248.627c-25.349 94.497-74.078 251.471-66.206 123.392 9.84-160.1-57.435-178.011-109.63-131.353-52.194 46.659-35.509 222.68-87.383 125.824C41.907 269.635-6.544 216.784 23.083 230.273c41.775 19.02 1.712 141.746-33.477 109.903C-21.633 330.005-42.91 263.148-52 230.273" stroke="#EFEFEF" stroke-opacity=".81" stroke-width=".128"/><path d="M357 241.031c-25.349 94.497-74.078 251.471-66.206 123.392 9.84-160.099-57.435-178.011-109.63-131.352-52.194 46.659-35.509 222.679-87.383 125.824C41.907 262.039-6.544 209.189 23.083 222.678c41.775 19.019 1.712 141.745-33.477 109.902C-21.633 322.41-42.91 255.552-52 222.678" stroke="#EFEFEF" stroke-opacity=".81" stroke-width=".128"/><path d="M357 233.435c-25.349 94.497-74.078 251.471-66.206 123.391 9.84-160.099-57.435-178.011-109.63-131.352-52.194 46.659-35.509 222.679-87.383 125.824C41.907 254.442-6.544 201.592 23.083 215.081c41.775 19.02 1.712 141.745-33.477 109.902C-21.633 314.813-42.91 247.956-52 215.081" stroke="#EFEFEF" stroke-opacity=".81" stroke-width=".128"/><path d="M357 225.838c-25.349 94.497-74.078 251.47-66.206 123.391 9.84-160.099-57.435-178.011-109.63-131.352-52.194 46.659-35.509 222.679-87.383 125.824C41.907 246.845-6.544 193.995 23.083 207.484c41.775 19.02 1.712 141.745-33.477 109.902C-21.633 307.216-42.91 240.359-52 207.484" stroke="#EFEFEF" stroke-opacity=".81" stroke-width=".128"/><path d="M357 218.242c-25.349 94.497-74.078 251.471-66.206 123.391 9.84-160.099-57.435-178.011-109.63-131.352-52.194 46.659-35.509 222.68-87.383 125.824C41.907 239.249-6.544 186.399 23.083 199.888c41.775 19.02 1.712 141.745-33.477 109.902C-21.633 299.62-42.91 232.763-52 199.888" stroke="#EFEFEF" stroke-opacity=".81" stroke-width=".128"/></svg>