<svg width="121" height="40" fill="none" xmlns="http://www.w3.org/2000/svg"><path fill-rule="evenodd" clip-rule="evenodd" d="M86.566 9.637c2.732 0 4.945-2.145 4.945-4.791 0-2.647-2.213-4.794-4.945-4.794-2.728 0-4.941 2.147-4.941 4.794 0 2.646 2.213 4.791 4.941 4.791zM48.69 12.224c-.221.544-1.828 4.942-5.712 9.5V2.233l-10.35 1.984v35.328h10.35v-10.92c2.997 4.358 4.477 10.92 4.477 10.92h12.397c-1.225-4.941-6.59-14.054-6.59-14.054 4.814-5.917 6.929-12.223 7.265-13.267H48.69zm27.21-.368c-9.27.288-13.975 4.32-13.975 12.335v15.354h10.113v-12.52c0-4.8.648-6.857 6.523-7.053v-7.976c-.99-.204-2.66-.14-2.66-.14zm-60.63 4.259c-1.267-.082-4.202-.265-4.202-2.827 0-3.09 4.225-3.09 5.81-3.09 2.786 0 6.396.797 8.973 1.544 0 0 1.437.492 2.66.996l.115.03V4.303l-.156-.046c-3.042-1.031-6.578-2.024-13.136-2.024C4.027 2.233.022 8.618.022 14.089c0 3.154 1.393 10.574 14.342 11.43 1.097.066 4.01.228 4.01 2.875 0 2.186-2.384 3.475-6.395 3.475-4.396 0-8.66-1.087-11.25-2.117v8.718c3.876.986 8.247 1.478 13.371 1.478 11.055 0 16.006-6.042 16.006-12.03 0-6.79-5.543-11.2-14.836-11.803zm66.284 23.43h10.032v-27.29H81.554v27.29zm28.92-35.572v35.572h10.033V2.234l-10.033 1.739zm-14.639 0l10.023-1.74v37.312H95.835V3.973z" fill="#fff"/></svg>