<svg width="376" height="60" fill="none" xmlns="http://www.w3.org/2000/svg"><circle cx="29.98" cy="29.845" r="29.845" fill="#EFEFEF"/><mask id="a" style="mask-type:alpha" maskUnits="userSpaceOnUse" x="4" y="4" width="52" height="52"><circle cx="30.141" cy="30.006" r="25.635" fill="#D9D9D9" stroke="#000" stroke-width=".106"/></mask><g mask="url(#a)"><circle cx="43.596" cy="30" r="43.6" fill="#EFEFEF"/><g clip-path="url(#clip0_442_7478)" fill-rule="evenodd" clip-rule="evenodd"><path d="M13.213 33.843a.292.292 0 01-.335.034c-.471-.392-.557-.573-.813-.945-.78.793-1.33 1.03-2.338 1.03-1.194 0-2.123-.737-2.123-2.21 0-1.152.627-1.934 1.506-2.318.77-.338 1.844-.4 2.667-.492v-.184c0-.337.026-.737-.172-1.029-.174-.261-.503-.368-.796-.368-.542 0-1.024.277-1.142.851a.298.298 0 01-.25.262l-1.364-.15a.25.25 0 01-.211-.296c.315-1.667 1.822-2.17 3.171-2.17.69 0 1.592.183 2.135.705.689.645.627 1.506.627 2.442v2.208c0 .665.276.956.536 1.314.09.126.11.283 0 .377-.366.31-.729.623-1.087.941l-.011-.002zm-1.43-3.458c0 .553.012 1.014-.265 1.507-.226.4-.584.645-.983.645-.543 0-.861-.414-.861-1.03 0-1.207 1.083-1.427 2.109-1.427v.308-.003zm5.314 3.403H15.68a.266.266 0 01-.251-.24v-7.282a.269.269 0 01.27-.26h1.323a.266.266 0 01.25.252v.95h.027c.344-.92.993-1.348 1.867-1.348s1.442.428 1.84 1.348a2.094 2.094 0 013.607-.559c.45.613.358 1.507.358 2.283v4.593a.269.269 0 01-.274.263H23.28a.265.265 0 01-.251-.261v-3.86c0-.306.026-1.072-.04-1.363-.106-.49-.423-.628-.834-.628a.941.941 0 00-.847.597c-.146.369-.134.98-.134 1.394v3.858a.268.268 0 01-.272.263h-1.42a.266.266 0 01-.252-.261v-3.86c0-.812.126-2.008-.879-2.008-1.004 0-.98 1.164-.98 2.009v3.858a.268.268 0 01-.273.262M32.9 32.522c-.26-.358-.536-.649-.536-1.313v-2.21c0-.936.066-1.796-.628-2.441-.543-.523-1.445-.706-2.134-.706-1.35 0-2.856.502-3.172 2.17a.252.252 0 00.212.298l1.375.148a.299.299 0 00.25-.26c.12-.575.6-.852 1.14-.852.293 0 .628.108.797.369.2.291.173.69.173 1.028v.18c-.823.091-1.898.153-2.667.49-.889.385-1.513 1.167-1.513 2.32 0 1.472.93 2.209 2.123 2.209 1.005 0 1.56-.237 2.338-1.03.259.376.343.553.813.945a.294.294 0 00.335-.033c.283-.251.798-.7 1.088-.942.121-.086.102-.24.006-.37zm-2.787-.636c-.225.398-.584.644-.982.644-.543 0-.86-.415-.86-1.029 0-1.209 1.082-1.427 2.108-1.427v.306c0 .554.01 1.014-.266 1.506zm3.987-4.604v-1.04a.25.25 0 01.265-.263h4.662a.26.26 0 01.268.262v.893c0 .15-.125.345-.35.654l-2.416 3.448c.897-.022 1.845.113 2.66.57a.475.475 0 01.25.406v1.115c0 .153-.166.33-.344.239a5.368 5.368 0 00-4.925.008c-.162.087-.331-.087-.331-.24v-1.062c-.015-.25.045-.498.173-.714l2.798-4.017h-2.44a.26.26 0 01-.27-.262m9.22.056c-1.046 0-1.112 1.423-1.112 2.312 0 .89-.013 2.787 1.098 2.787s1.153-1.531 1.153-2.465c0-.613-.027-1.349-.212-1.93-.16-.502-.477-.704-.927-.704zm-.014-1.487c2.106 0 3.244 1.808 3.244 4.105 0 2.221-1.255 3.983-3.244 3.983-2.065 0-3.19-1.808-3.19-4.059 0-2.25 1.139-4.029 3.19-4.029zm5.989 7.925H47.88a.265.265 0 01-.251-.262V26.23a.267.267 0 01.272-.239h1.316c.12.004.223.087.251.204v1.113h.028c.397-.995.953-1.47 1.932-1.47.635 0 1.255.23 1.656.858.37.582.37 1.563.37 2.267v4.58a.27.27 0 01-.272.23h-1.426a.265.265 0 01-.251-.23V29.59c0-.796.092-1.96-.888-1.96a.93.93 0 00-.821.582c-.199.444-.225.889-.225 1.381v3.918a.272.272 0 01-.276.261m11.538-6.674a3.32 3.32 0 00-1.992.684v4.143c.634.477 1.289.715 1.962.714 1.368 0 2.052-.92 2.052-2.762 0-1.841-.674-2.768-2.022-2.78zm-2.096-.194a4.19 4.19 0 011.204-.743 3.53 3.53 0 011.308-.251 3.05 3.05 0 011.294.261c.384.176.72.441.98.773.284.368.494.788.618 1.236.151.53.224 1.08.216 1.632a5.616 5.616 0 01-.23 1.664 3.79 3.79 0 01-.647 1.264c-.272.343-.618.62-1.012.812a2.992 2.992 0 01-1.322.277 3.316 3.316 0 01-2.304-.879v3.485a.263.263 0 01-.297.298h-.879a.262.262 0 01-.297-.298V26.428a.263.263 0 01.297-.297h.654a.314.314 0 01.343.297l.074.476zm9.329 5.848c.35-.005.697-.07 1.026-.192a3.893 3.893 0 001.025-.565v-1.518a7.518 7.518 0 00-.78-.14 6.195 6.195 0 00-.795-.053c-1.122 0-1.682.431-1.681 1.294 0 .377.104.667.312.87.209.203.506.305.893.304zm-1.74-5.326l-.112.038a.39.39 0 01-.125.023c-.126 0-.194-.09-.194-.27v-.397a.5.5 0 01.06-.29.557.557 0 01.238-.157 5.377 5.377 0 011.174-.328 7.841 7.841 0 011.397-.125c.942 0 1.636.193 2.082.578.446.386.67.986.67 1.8v5.079a.264.264 0 01-.298.297h-.64a.297.297 0 01-.326-.282l-.076-.49c-.35.303-.75.544-1.181.712-.41.164-.846.25-1.287.251-.713 0-1.278-.2-1.695-.602-.417-.402-.626-.94-.628-1.614 0-.723.258-1.3.774-1.732.515-.432 1.21-.648 2.081-.647.632.01 1.261.094 1.873.251v-.976c0-.536-.119-.913-.356-1.13-.238-.218-.654-.327-1.25-.328a7.676 7.676 0 00-2.181.34zm10.028 7.566c-.268.683-.579 1.174-.93 1.472-.352.298-.812.447-1.38.446a3.156 3.156 0 01-.848-.104.433.433 0 01-.239-.142.503.503 0 01-.074-.304v-.387c0-.188.074-.282.224-.282.075.003.15.013.223.029a2.1 2.1 0 00.4.03c.316.02.628-.075.88-.268.208-.178.396-.505.564-.981l.283-.754-2.865-7.081a1.136 1.136 0 01-.103-.358c0-.118.069-.178.207-.178h.893a.536.536 0 01.327.074.8.8 0 01.177.327l2.083 5.769 2.009-5.769a.799.799 0 01.177-.327.537.537 0 01.327-.075h.833c.14 0 .208.06.208.179a1.15 1.15 0 01-.104.358l-3.272 8.326z" fill="#232F3E"/><path d="M36.023 36.642c-2.663 1.965-6.529 3.013-9.848 3.013a17.818 17.818 0 01-12.027-4.588c-.251-.225-.028-.532.273-.358C17.845 36.7 22.079 37.9 26.455 37.9a23.96 23.96 0 009.181-1.883c.45-.19.827.297.387.628m1.107-1.264c.341.436-.377 2.233-.7 3.036-.097.242.112.34.332.157 1.428-1.196 1.797-3.699 1.507-4.06-.29-.362-2.787-.668-4.311.402-.235.165-.195.392.066.36.857-.102 2.768-.332 3.108.105" fill="#F90"/></g></g><circle cx="93.428" cy="29.604" r="29.604" fill="#EFEFEF"/><mask id="b" style="mask-type:alpha" maskUnits="userSpaceOnUse" x="68" y="4" width="52" height="52"><circle cx="93.588" cy="29.764" r="25.429" fill="#D9D9D9" stroke="#000" stroke-width=".105"/></mask><g mask="url(#b)"><circle cx="93.4" cy="40.6" r="40.6" fill="#EFEFEF"/><g clip-path="url(#clip1_442_7478)" fill="#E82127"><path d="M93.403 51.254l5.226-29.408c4.983 0 6.554.546 6.781 2.777 0 0 3.342-1.247 5.028-3.779-6.578-3.049-13.187-3.186-13.187-3.186l-3.857 4.699h.008l-3.856-4.7s-6.61.137-13.187 3.187c1.684 2.532 5.028 3.779 5.028 3.779.228-2.231 1.798-2.778 6.746-2.782l5.27 29.413z"/><path d="M93.4 16.3c5.318-.04 11.404.823 17.635 3.54.833-1.5 1.047-2.162 1.047-2.162-6.811-2.696-13.19-3.619-18.682-3.642-5.493.023-11.87.946-18.68 3.642 0 0 .303.816 1.045 2.162 6.23-2.717 12.317-3.58 17.635-3.54z"/></g></g><circle cx="156.636" cy="29.604" r="29.604" fill="#EFEFEF"/><mask id="c" style="mask-type:alpha" maskUnits="userSpaceOnUse" x="131" y="4" width="52" height="52"><circle cx="156.795" cy="29.764" r="25.429" fill="#D9D9D9" stroke="#000" stroke-width=".105"/></mask><g mask="url(#c)"><circle cx="156.796" cy="28.8" r="29.6" fill="#EFEFEF"/><path d="M135.516 27.92h2.554l4.342 7.855 4.343-7.856h2.499v12.909h-2.083v-9.893l-3.809 6.85h-1.955l-3.808-6.85v9.893h-2.083V27.919zm20.266 4.812c-1.494 0-2.394 1.125-2.609 2.517h5.071c-.104-1.434-.932-2.517-2.462-2.517zm-4.675 3.31c0-2.93 1.894-5.062 4.712-5.062 2.771 0 4.426 2.106 4.426 5.219v.572h-7.072c.251 1.515 1.256 2.536 2.877 2.536 1.293 0 2.101-.395 2.867-1.116l1.107 1.355c-1.043.96-2.369 1.512-4.048 1.512-3.05 0-4.869-2.224-4.869-5.015zm11.664-3.125h-1.917v-1.706h1.917V28.39h2.011v2.821h2.913v1.706h-2.913v4.324c0 1.477.472 2.001 1.632 2.001.529 0 .833-.045 1.281-.12v1.688a5.975 5.975 0 01-1.669.23c-2.17 0-3.255-1.186-3.255-3.56v-4.563zm13.389 1.66c-.404-1.02-1.304-1.77-2.628-1.77-1.72 0-2.821 1.22-2.821 3.208 0 1.938 1.013 3.218 2.739 3.218 1.356 0 2.324-.79 2.71-1.77v-2.887zm2.01 6.251h-1.973v-1.346c-.552.792-1.555 1.576-3.181 1.576-2.614 0-4.362-2.188-4.362-5.043 0-2.882 1.789-5.035 4.473-5.035 1.326 0 2.367.53 3.07 1.466v-1.235h1.973v9.617z" fill="#192830"/><path d="M148.817 21.16c0 .781.172 1.38.396 1.743.293.475.731.676 1.177.676.576 0 1.103-.143 2.118-1.547.813-1.125 1.771-2.705 2.416-3.695l1.092-1.677c.758-1.166 1.636-2.46 2.643-3.339.822-.716 1.708-1.114 2.6-1.114 1.498 0 2.924.868 4.016 2.495 1.195 1.783 1.775 4.029 1.775 6.346 0 1.378-.271 2.39-.733 3.19-.447.773-1.317 1.546-2.78 1.546v-2.205c1.253 0 1.566-1.152 1.566-2.47 0-1.878-.438-3.962-1.403-5.451-.684-1.056-1.572-1.702-2.548-1.702-1.055 0-1.905.796-2.859 2.216-.508.754-1.029 1.673-1.614 2.71l-.644 1.141c-1.294 2.294-1.621 2.817-2.268 3.679-1.134 1.51-2.102 2.082-3.377 2.082-1.512 0-2.468-.655-3.06-1.642-.483-.803-.721-1.858-.721-3.06l2.208.078z" fill="#0081FB"/><path d="M148.35 14.858c1.012-1.56 2.473-2.651 4.149-2.651.97 0 1.934.287 2.942 1.11 1.101.899 2.276 2.38 3.741 4.82l.525.875c1.268 2.113 1.99 3.2 2.412 3.712.543.659.923.855 1.417.855 1.254 0 1.566-1.152 1.566-2.47l1.948-.06c0 1.377-.271 2.389-.734 3.189-.446.773-1.316 1.546-2.78 1.546-.909 0-1.716-.198-2.607-1.039-.685-.645-1.486-1.792-2.103-2.823l-1.833-3.062c-.92-1.537-1.763-2.683-2.252-3.201-.525-.558-1.2-1.232-2.278-1.232-.872 0-1.613.612-2.233 1.548l-1.88-1.117z" fill="url(#paint0_linear_442_7478)"/><path d="M152.463 14.427c-.872 0-1.613.612-2.233 1.548-.876 1.323-1.413 3.293-1.413 5.185 0 .781.172 1.38.396 1.743l-1.883 1.24c-.483-.805-.721-1.86-.721-3.061 0-2.186.6-4.465 1.741-6.224 1.012-1.56 2.473-2.651 4.149-2.651l-.036 2.22z" fill="url(#paint1_linear_442_7478)"/></g><circle cx="219.845" cy="29.604" r="29.604" fill="#EFEFEF"/><mask id="d" style="mask-type:alpha" maskUnits="userSpaceOnUse" x="194" y="4" width="52" height="52"><circle cx="220.004" cy="29.764" r="25.429" fill="#D9D9D9" stroke="#000" stroke-width=".105"/></mask><g mask="url(#d)"><circle cx="220" cy="28.4" r="29.6" fill="#EFEFEF"/><g clip-path="url(#clip2_442_7478)"><path d="M231.985 23.436c-.182.14-3.403 1.94-3.403 5.944 0 4.63 4.098 6.268 4.221 6.308-.019.1-.651 2.243-2.161 4.427-1.346 1.922-2.752 3.841-4.89 3.841-2.139 0-2.689-1.232-5.158-1.232-2.406 0-3.261 1.273-5.218 1.273-1.956 0-3.321-1.779-4.89-3.963-1.818-2.564-3.287-6.548-3.287-10.33 0-6.065 3.976-9.282 7.888-9.282 2.079 0 3.812 1.354 5.117 1.354 1.242 0 3.179-1.435 5.544-1.435.897 0 4.117.081 6.237 3.095zm-7.359-5.663c.978-1.151 1.67-2.748 1.67-4.346 0-.221-.019-.446-.06-.627-1.591.06-3.485 1.051-4.626 2.365-.897 1.01-1.733 2.608-1.733 4.227 0 .244.041.487.06.565.1.019.264.04.427.04 1.428 0 3.224-.948 4.262-2.224z" fill="#111"/></g></g><circle cx="283.053" cy="29.604" r="29.604" fill="#EFEFEF"/><mask id="e" style="mask-type:alpha" maskUnits="userSpaceOnUse" x="257" y="4" width="52" height="52"><circle cx="283.212" cy="29.764" r="25.373" fill="#D9D9D9" stroke="#000" stroke-width=".216"/></mask><g mask="url(#e)"><circle cx="283.201" cy="30" r="29.6" fill="#EFEFEF"/><g clip-path="url(#clip3_442_7478)"><path d="M266.539 35.46c-.694.121-1.4.158-2.129.255l-2.227-6.505v6.784c-.693.073-1.326.17-1.983.267V23.835h1.849l2.531 7.05v-7.05h1.959V35.46zm3.832-7.075c.754 0 1.91-.036 2.604-.036v1.941c-.864 0-1.874 0-2.604.037v2.888c1.144-.073 2.287-.17 3.443-.206v1.868l-5.39.425V23.835h5.39v1.941h-3.443v2.61zm10.682-2.609h-2.02v8.932c-.657 0-1.314 0-1.946.024v-8.956h-2.02v-1.941h5.986v1.941zm3.163 2.476h2.664v1.941h-2.664v4.405h-1.91V23.836h5.438v1.941h-3.528v2.476zm6.691 4.648c1.108.024 2.227.109 3.31.17v1.917c-1.74-.11-3.48-.219-5.256-.255V23.835h1.946V32.9zm4.952 2.22c.62.037 1.277.073 1.91.146V23.835h-1.91V35.12zm10.439-11.285l-2.47 5.91 2.47 6.516c-.73-.097-1.46-.23-2.19-.352l-1.399-3.592-1.424 3.3c-.706-.12-1.387-.157-2.092-.254l2.506-5.691-2.263-5.837h2.092l1.278 3.264 1.363-3.264h2.129z" fill="#D81F26"/></g></g><circle cx="346.261" cy="29.604" r="29.604" fill="#EFEFEF"/><mask id="f" style="mask-type:alpha" maskUnits="userSpaceOnUse" x="320" y="4" width="52" height="52"><circle cx="346.42" cy="29.764" r="25.373" fill="#D9D9D9" stroke="#000" stroke-width=".216"/></mask><g mask="url(#f)"><circle cx="346.399" cy="30" r="29.6" fill="#EFEFEF"/><g clip-path="url(#clip4_442_7478)"><path d="M334.208 34.768h-2.55l-.78-1.887h-4.25l-.711 1.887h-2.508l3.832-9.531h2.745l4.222 9.53zm-5.56-7.254l-1.393 3.703h2.926l-1.533-3.703zm14.823-2.277h2.063v9.53h-2.369v-5.953l-2.564 2.99h-.363l-2.563-2.99v5.954h-2.369v-9.531h2.062l3.051 3.535 3.052-3.535zm8.066 0c3.469 0 5.252 2.166 5.252 4.779 0 2.739-1.727 4.752-5.517 4.752h-3.93v-9.531h4.195zm-1.826 7.784h1.546c2.383 0 3.094-1.622 3.094-3.02 0-1.634-.878-3.018-3.121-3.018h-1.519v6.038z" fill="#111"/><path d="M366.403 27.497h-4.9l-2.987-2.997h10.875v10.907l-2.988-2.996v-4.914zm-4.904 4.917v-4.317l-3.075 3.084V35.5h4.304l3.076-3.085h-4.305z" fill="#00A76D"/></g></g><defs><clipPath id="clip0_442_7478"><path fill="#fff" transform="translate(7.604 -6.134)" d="M0 0h72.127v72.127H0z"/></clipPath><clipPath id="clip1_442_7478"><path fill="#fff" transform="translate(72.871 14.036)" d="M0 0h41.059v53.128H0z"/></clipPath><clipPath id="clip2_442_7478"><path fill="#fff" transform="translate(207.2 12.8)" d="M0 0h25.6v31.2H0z"/></clipPath><clipPath id="clip3_442_7478"><path fill="#fff" transform="translate(260.2 23.831)" d="M0 0h46.098v12.433H0z"/></clipPath><clipPath id="clip4_442_7478"><path fill="#fff" transform="translate(323.399 24.5)" d="M0 0h46.002v10.998H0z"/></clipPath><linearGradient id="paint0_linear_442_7478" x1="150.945" y1="20.524" x2="165.02" y2="21.234" gradientUnits="userSpaceOnUse"><stop stop-color="#0064E1"/><stop offset=".4" stop-color="#0064E1"/><stop offset=".83" stop-color="#0073EE"/><stop offset="1" stop-color="#0082FB"/></linearGradient><linearGradient id="paint1_linear_442_7478" x1="149.808" y1="22.087" x2="149.808" y2="16.898" gradientUnits="userSpaceOnUse"><stop stop-color="#0082FB"/><stop offset="1" stop-color="#0064E0"/></linearGradient></defs></svg>