<svg width="28" height="27" fill="none" xmlns="http://www.w3.org/2000/svg"><g clip-path="url(#clip0_216_409)" stroke="#EFEFEF" stroke-width="1.6" stroke-linecap="round" stroke-linejoin="round"><path d="M4.667 7.875c0-.298.123-.585.341-.795.22-.211.516-.33.825-.33h2.334c.31 0 .606.119.825.33.218.21.341.497.341.795v3.375c0 .298-.123.585-.341.796-.22.21-.516.329-.825.329H5.833c-.31 0-.606-.118-.825-.33a1.105 1.105 0 01-.341-.795V7.875zM7 4.5v2.25m0 5.625V22.5m4.667-5.625c0-.298.123-.584.341-.796.22-.21.516-.329.825-.329h2.334c.31 0 .606.118.825.33.218.21.341.497.341.795v3.375c0 .298-.123.584-.341.796-.22.21-.516.329-.825.329h-2.334c-.31 0-.606-.119-.825-.33a1.105 1.105 0 01-.341-.795v-3.375zM14 4.5v11.25m0 5.625V22.5m4.667-15.75c0-.298.123-.585.341-.795.22-.211.516-.33.825-.33h2.334c.31 0 .606.119.825.33.218.21.341.497.341.795v4.5c0 .298-.123.585-.341.796-.22.21-.516.329-.825.329h-2.334c-.31 0-.606-.118-.825-.33a1.105 1.105 0 01-.341-.795v-4.5zM21 4.5v1.125m0 6.75V22.5"/></g><defs><clipPath id="clip0_216_409"><path fill="#fff" d="M0 0h28v27H0z"/></clipPath></defs></svg>