<svg width="29" height="21" fill="none" xmlns="http://www.w3.org/2000/svg"><mask id="a" style="mask-type:luminance" maskUnits="userSpaceOnUse" x="0" y="0" width="29" height="21"><path d="M.5.065h28v20.87H.5V.065z" fill="#fff"/></mask><g mask="url(#a)" fill="#EFEFEF"><path d="M12.417 11.133c-.279-.177-.317-.367-.317-.494a.627.627 0 00-.633-.633.627.627 0 00-.633.633c0 .646.329 1.216.924 1.57.304.19.697.292 1.102.355v.671c0 .355.279.634.633.634a.627.627 0 00.633-.633v-.672c1.09-.19 2.027-.848 2.027-1.937 0-1.355-1.368-1.76-2.457-2.09-.963-.291-1.596-.506-1.596-.924 0-.558.823-.71 1.254-.71.646 0 1.317.266 1.317.71 0 .354.279.633.633.633a.627.627 0 00.633-.633c0-.937-.734-1.647-1.81-1.887v-.697a.627.627 0 00-.634-.633.627.627 0 00-.633.633V5.7c-.43.064-.823.165-1.14.368-.57.354-.886.912-.886 1.545 0 1.393 1.38 1.798 2.495 2.14.937.278 1.557.494 1.557.886 0 .735-1.773.925-2.47.494zM4.704 15.01l2.559.164H7.3a.636.636 0 00.278-1.205.63.63 0 00-.24-.061l-2.559-.165a.652.652 0 00-.67.595.628.628 0 00.594.671zm15.64-10.88l2.558.165h.038a.636.636 0 00.279-1.206.628.628 0 00-.24-.06l-2.559-.165a.636.636 0 00-.67.595.628.628 0 00.594.671z"/><path d="M1.956 17.516c.165.038.368.076.57.127v.734c0 .887.595 1.634 1.457 1.824 1.19.266 3.444.709 5.116.734h.114c2.545 0 6.281-.912 6.51-.975.151-.038 3.684-1.076 5.976-1.076 1.355 0 3.141.354 4.395.658.595.14 1.203 0 1.684-.367.469-.367.735-.925.735-1.507V5.156c0-.925-.659-1.697-1.558-1.85-.14-.024-.304-.05-.469-.075v-.76c0-.924-.658-1.697-1.557-1.849C23.7.42 21.37.065 19.673.065c-2.507 0-6.268.734-6.306.747-.152.025-3.863.81-6.282.747-1.317 0-3.077-.266-4.318-.468A1.939 1.939 0 00.5 2.978V15.68c0 .886.595 1.633 1.456 1.823v.013zM26.74 4.56c.291.05.494.304.494.608v12.499a.671.671 0 01-.254.52.706.706 0 01-.608.138c-1.317-.316-3.203-.696-4.685-.696-2.432 0-5.94 1.013-6.358 1.127-.152.038-3.811.95-6.23.912-1.558-.013-3.71-.444-4.85-.697a.6.6 0 01-.456-.595v-.494c1.063.19 2.28.355 3.28.367h.114c2.482 0 6.028-.848 6.509-.975.152-.038 3.685-1.076 5.977-1.076 1.355 0 3.128.354 4.395.658.595.14 1.203 0 1.684-.367.469-.367.734-.924.734-1.507V4.51l.266.038-.012.013zM1.766 2.978c0-.266.152-.418.228-.494a.709.709 0 01.444-.165h.114c1.279.215 3.115.469 4.52.494 2.559.025 6.37-.734 6.535-.772.038 0 3.723-.722 6.054-.722 1.608 0 3.85.342 5.052.532a.6.6 0 01.494.607v12.5a.671.671 0 01-.253.519.706.706 0 01-.608.14c-1.33-.317-3.216-.697-4.685-.697-2.432 0-5.94 1.013-6.358 1.127-.152.038-3.76.912-6.13.912h-.1c-1.558-.013-3.711-.444-4.85-.697a.599.599 0 01-.47-.595V2.977h.013z"/></g></svg>