<svg width="30" height="19" fill="none" xmlns="http://www.w3.org/2000/svg"><path d="M23.548 12.91c-.58-1.203-2.652-2.871-4.654-4.484-1.117-.899-2.172-1.749-2.845-2.418a.617.617 0 00-.643-.144c-.415.15-.67.265-.872.354-.308.137-.41.184-.825.226a.617.617 0 00-.45.268c-.87 1.294-1.77 1.184-2.372.983-.192-.064-.226-.146-.244-.224-.13-.538.519-1.79 1.359-2.625C14 2.855 15.03 2.356 17.208 3.325c2.47 1.1 4.944 1.96 4.968 1.969a.617.617 0 00.784-.377.613.613 0 00-.38-.78 70.297 70.297 0 01-4.87-1.931c-2.82-1.255-4.367-.429-6.577 1.773-.84.837-1.983 2.532-1.688 3.775.126.529.5.92 1.056 1.103 1.394.458 2.665.02 3.612-1.232.391-.06.604-.148.924-.291.142-.064.286-.125.43-.184.704.658 1.653 1.423 2.653 2.227 1.808 1.456 3.858 3.107 4.32 4.062.227.471-.018.778-.184.92-.243.207-.577.274-.757.147a.618.618 0 00-.9.23.609.609 0 00-.06.34c.04.39-.317.612-.472.69-.393.197-.804.163-.958.021a.622.622 0 00-.638-.125.612.612 0 00-.394.516c-.037.401-.336.787-.726.938-.188.07-.46.114-.706-.11a.623.623 0 00-.826-.003.612.612 0 00-.167.247c-.023.061-.076.209-.652.209-.41 0-1.146-.276-1.507-.514-.431-.282-3.138-2.293-5.476-4.242-.329-.276-.897-.866-1.398-1.387-.446-.463-.853-.883-1.062-1.06a.614.614 0 10-.794.936c.19.16.56.548.966.97.549.571 1.116 1.161 1.497 1.48 2.29 1.909 5.042 3.97 5.591 4.328.453.297 1.428.713 2.183.713.606 0 1.073-.139 1.396-.41.433.169.925.17 1.398-.014.56-.215 1.02-.65 1.28-1.176.485.102 1.04.03 1.544-.222.493-.247.85-.626 1.027-1.068.49.026.994-.147 1.41-.503.707-.601.9-1.537.493-2.38z" fill="#EFEFEF"/><path d="M12.54 2.765H7.006a.614.614 0 00-.615.613c0 .338.276.612.615.612h5.534c.34 0 .615-.274.615-.612a.614.614 0 00-.615-.613zm12.81 8.842a.615.615 0 00-.854-.166l-1.798 1.202a.61.61 0 00.344 1.12.611.611 0 00.342-.104l1.798-1.202a.611.611 0 00.167-.85zm-3.818 2.922c-.44-.346-2.41-2.352-3.627-3.616a.615.615 0 00-.87-.018.61.61 0 00-.018.865c.316.328 3.104 3.222 3.752 3.731a.622.622 0 00.865-.103.61.61 0 00-.102-.86zm-2.457 1.228c-.737-.587-2.588-2.545-3.006-2.998a.618.618 0 00-.87-.036.611.611 0 00-.037.865c.022.024 2.231 2.398 3.144 3.125a.62.62 0 00.864-.096.612.612 0 00-.095-.86zm-2.448 1.233c-.877-.736-2.671-2.638-3.022-3.011a.616.616 0 00-.87-.03.611.611 0 00-.029.866c.505.538 2.222 2.35 3.128 3.111a.615.615 0 00.793-.936z" fill="#EFEFEF"/><path d="M7.429 1.709C6.375.715 2.16.393.894.318a.612.612 0 00-.652.61v11.02c0 .339.275.613.615.613h3.69c.265 0 .501-.17.583-.422.09-.275 2.21-6.75 2.488-9.933a.608.608 0 00-.189-.497zm-3.332 9.627H1.472v-9.75c1.976.155 4.109.493 4.883.867-.326 2.682-1.8 7.446-2.258 8.883zm25.046-9.795c-4.828 0-7.507 1.23-7.619 1.282a.61.61 0 00-.26.878c.76 1.218 3.14 7.984 3.597 9.635a.612.612 0 00.593.45h3.69a.614.614 0 00.614-.613V2.153a.61.61 0 00-.615-.612zm-.614 11.02h-2.615c-.583-1.89-2.305-6.82-3.266-8.858.939-.317 2.955-.862 5.88-.93v9.788z" fill="#EFEFEF"/></svg>