<svg width="24" height="23" fill="none" xmlns="http://www.w3.org/2000/svg"><g clip-path="url(#clip0_220_446)" stroke="#EFEFEF" stroke-width="1.5" stroke-linecap="round" stroke-linejoin="round"><path d="M3.375 2.875v17.25h17.25"/><path d="M7.208 14.375a1.917 1.917 0 103.833 0 1.917 1.917 0 00-3.833 0zm3.834-9.583a1.917 1.917 0 103.833 0 1.917 1.917 0 00-3.833 0zm4.791 6.708a1.916 1.916 0 103.833 0 1.916 1.916 0 00-3.833 0zm4.792-8.625l-5.75 1.438m-.85 2.06l2.656 3.541m-.848 2.066l-4.791 1.916"/></g><defs><clipPath id="clip0_220_446"><path fill="#fff" transform="translate(.5)" d="M0 0h23v23H0z"/></clipPath></defs></svg>