<svg width="27" height="27" fill="none" xmlns="http://www.w3.org/2000/svg"><g clip-path="url(#clip0_220_896)" stroke="#EFEFEF" stroke-width="1.5" stroke-linecap="round" stroke-linejoin="round"><path d="M3.75 13.5c0 1.33.252 2.646.742 3.875a10.16 10.16 0 002.114 3.285 9.735 9.735 0 003.163 2.194 9.415 9.415 0 007.462.001 9.736 9.736 0 003.163-2.195 10.16 10.16 0 002.114-3.285c.49-1.229.742-2.545.742-3.875s-.252-2.646-.742-3.875a10.16 10.16 0 00-2.114-3.284 9.735 9.735 0 00-3.163-2.195 9.438 9.438 0 00-3.731-.771c-1.28 0-2.548.262-3.731.77a9.734 9.734 0 00-3.163 2.196 10.16 10.16 0 00-2.114 3.284A10.464 10.464 0 003.75 13.5z"/><path d="M10.25 9h4.43c1.144 0 2.07 1.007 2.07 2.25s-.926 2.25-2.07 2.25c1.144 0 2.07 1.007 2.07 2.25S15.824 18 14.68 18h-4.43m1.083-4.5h4.334m-4.334-5.625v11.25V9m3.25-1.125V9m0 9v1.125"/></g><defs><clipPath id="clip0_220_896"><path fill="#fff" transform="translate(.5)" d="M0 0h26v27H0z"/></clipPath></defs></svg>