<svg width="109" height="109" fill="none" xmlns="http://www.w3.org/2000/svg"><path d="M67.184 82.808H41.816a5.13 5.13 0 00-5.124 5.124v4.711a5.13 5.13 0 004.454 5.079 5.102 5.102 0 00-.208 1.443v4.711A5.13 5.13 0 0046.06 109h16.877a5.13 5.13 0 005.124-5.124v-4.711c0-.501-.074-.985-.208-1.443a5.13 5.13 0 004.454-5.079v-4.711a5.13 5.13 0 00-5.124-5.124zm-2.849 21.068a1.4 1.4 0 01-1.397 1.398H46.06a1.4 1.4 0 01-1.397-1.398v-4.711a1.4 1.4 0 011.398-1.398h16.876a1.4 1.4 0 011.397 1.398v4.711zm4.246-11.233a1.4 1.4 0 01-1.397 1.398H41.816a1.4 1.4 0 01-1.398-1.398v-4.711a1.4 1.4 0 011.398-1.398h25.368a1.4 1.4 0 011.397 1.398v4.711zM69.61 80.28l-3.59-1.002c.955-3.418 2.51-6.486 4.625-9.119 1.996-2.485 4.59-4.403 6.612-6.867 1.81-2.207 3.274-4.731 4.348-7.372 2.418-5.944 2.816-12.597 1.158-18.796-3.216-12.016-13.983-20.336-26.304-21.078-14.154-.85-27.264 8.131-30.48 22.136-1.54 6.71-.688 13.91 2.46 20.04 3.252 6.332 9.618 10.058 12.765 16.4a26.567 26.567 0 011.777 4.656l-3.589 1.002a22.839 22.839 0 00-1.527-4.002c-1.639-3.303-4.26-5.596-6.807-8.17a33.353 33.353 0 01-6.583-9.522c-3.162-6.886-3.807-14.851-1.898-22.177 3.984-15.283 18.519-25.021 34.107-24.083 5.893.355 11.53 2.188 16.299 5.3A31.827 31.827 0 0183.969 29.88c2.646 5.225 3.844 11.155 3.464 17.15-.426 6.721-3.01 13.33-7.28 18.606-2.002 2.475-4.611 4.376-6.603 6.857-1.797 2.237-3.123 4.857-3.941 7.787zM53.534 0h3.727v8.039h-3.727V0zM21.369 14.088l2.63-2.638 5.699 5.682-2.631 2.638-5.698-5.681zM8.617 43.019h8.058v3.726H8.617v-3.727zm83.708 1.79h8.057v3.727h-8.057V44.81zM80.568 18.434l5.698-5.682 2.631 2.639L83.2 21.07l-2.63-2.638z" fill="#111" fill-opacity=".3"/><path d="M44.334 50.398a7.382 7.382 0 01-2.248-.37l1.13-3.55c2.588.824 3.622-1.522 3.732-1.792l3.454 1.4c-.678 1.673-2.712 4.312-6.069 4.312zm4.018-17.481c-.132-.511-.467-.77-.996-.77V28.42c3.061 0 4.371 2.42 4.637 3.7l-3.65.757.01.04zm16.312 17.48c-3.357 0-5.39-2.638-6.068-4.312l1.727-.7 1.72-.715c.265.62 1.317 2.579 3.738 1.808l1.13 3.55a7.395 7.395 0 01-2.247.37z" fill="#111" fill-opacity=".3"/><path d="M77.329 44.05c0-3.159-1.648-5.999-4.307-7.601.215-1.905-.273-3.825-1.417-5.449a8.047 8.047 0 00-4.749-3.218 7.05 7.05 0 00-1.743-3.545 7.217 7.217 0 00-5.314-2.328 7.191 7.191 0 00-5.3 2.315A7.193 7.193 0 0049.2 21.91c-2.023 0-3.96.849-5.314 2.328a7.047 7.047 0 00-1.743 3.545A8.048 8.048 0 0037.394 31c-1.144 1.624-1.632 3.544-1.417 5.449-2.66 1.602-4.307 4.442-4.307 7.6a8.806 8.806 0 003.256 6.859c-1.26 2.41-1.176 5.277.335 7.755 1.547 2.538 4.144 3.953 6.973 3.903a7.048 7.048 0 001.635 3.087 7.216 7.216 0 005.331 2.345 7.19 7.19 0 005.3-2.315 7.192 7.192 0 005.299 2.315 7.216 7.216 0 005.33-2.345 7.045 7.045 0 001.636-3.087l.127.001c2.777 0 5.322-1.404 6.846-3.904 1.51-2.478 1.595-5.344.335-7.755a8.806 8.806 0 003.256-6.858zm-24.693-8.243c-1.266-.57-2.842-.76-4.726-.16l1.13 3.55c2.111-.672 3.18.729 3.596 1.51v12.31a5.31 5.31 0 00-2.886-.52l.387 3.707c1.129-.119 2.09 1.1 2.499 1.715v3.02c0 1.837-1.542 3.333-3.436 3.333-1 0-1.914-.4-2.575-1.127a3.25 3.25 0 01-.853-2.034c1.221-1.71 2.375-4.776.526-7.745l-3.163 1.97c.823 1.322.157 2.739-.293 3.443-2.098.334-3.633-.798-4.4-2.056-.809-1.325-1.106-3.353.483-5.068.804-1.17.619-2.15-.557-2.945-1.833-.884-2.972-2.67-2.972-4.66 0-1.98 1.127-3.745 2.91-4.628.885.234 2.629.927 2.629 2.766h3.726c0-3.69-2.786-5.537-4.989-6.247a4.192 4.192 0 01.767-2.793c.81-1.15 2.096-1.829 3.526-1.863 1.189-.152 1.793-.827 1.812-2.026a3.25 3.25 0 01.856-2.505 3.435 3.435 0 012.566-1.118c1.895 0 3.436 1.495 3.436 3.333v6.838zM70.63 48.71c-1.176.794-1.361 1.776-.557 2.945 1.589 1.715 1.291 3.742.483 5.068-.767 1.258-2.301 2.39-4.4 2.056-.45-.704-1.116-2.12-.293-3.443l-3.163-1.97c-1.849 2.969-.696 6.035.526 7.745a3.25 3.25 0 01-.853 2.034 3.436 3.436 0 01-2.575 1.127c-1.894 0-3.436-1.496-3.436-3.334v-3.017c.408-.608 1.378-1.835 2.499-1.717l.387-3.707a5.318 5.318 0 00-2.886.52V40.703c.364-.681 1.44-2.192 3.596-1.505l1.13-3.551c-1.883-.6-3.46-.41-4.726.16V28.97c0-1.838 1.541-3.334 3.436-3.334.995 0 1.907.397 2.566 1.118.634.692.938 1.582.857 2.506.018 1.198.623 1.874 1.812 2.026 1.43.034 2.715.712 3.525 1.862.59.836.853 1.817.767 2.793-2.203.71-4.989 2.557-4.989 6.247h3.727c0-1.839 1.743-2.531 2.63-2.765 1.781.883 2.909 2.648 2.909 4.628 0 1.99-1.139 3.776-2.972 4.66 1.833-.884-.532.257 0 0z" fill="#111" fill-opacity=".3"/><path d="M60.391 33.186l-3.463-1.375c.5-1.26 2.105-3.391 4.948-3.391v3.726c-1.043 0-1.48 1.03-1.485 1.04z" fill="#111" fill-opacity=".3"/></svg>