<svg width="293" height="1177" fill="none" xmlns="http://www.w3.org/2000/svg"><circle cx="176.646" cy="8.984" r="3" fill="#EFEFEF"/><circle cx="114.689" cy="1171" r="3" transform="rotate(180 114.689 1171)" fill="#EFEFEF"/><circle cx="3" cy="3" r="3" transform="matrix(1 0 0 -1 173.646 883.573)" fill="#EFEFEF"/><circle cx="186.148" cy="11.504" r="3" fill="#EFEFEF"/><circle cx="105.191" cy="1168.49" r="3" transform="rotate(180 105.191 1168.49)" fill="#EFEFEF"/><circle cx="3" cy="3" r="3" transform="matrix(1 0 0 -1 183.148 881.054)" fill="#EFEFEF"/><circle cx="195.648" cy="15.274" r="3" fill="#EFEFEF"/><circle cx="95.686" cy="1164.71" r="3" transform="rotate(180 95.686 1164.71)" fill="#EFEFEF"/><circle cx="3" cy="3" r="3" transform="matrix(1 0 0 -1 192.648 877.282)" fill="#EFEFEF"/><circle cx="205.16" cy="19.046" r="3" fill="#EFEFEF"/><circle cx="86.176" cy="1160.94" r="3" transform="rotate(180 86.176 1160.94)" fill="#EFEFEF"/><circle cx="3" cy="3" r="3" transform="matrix(1 0 0 -1 202.16 873.509)" fill="#EFEFEF"/><circle cx="214.66" cy="24.079" r="3" fill="#EFEFEF"/><circle cx="76.688" cy="1155.91" r="3" transform="rotate(180 76.688 1155.91)" fill="#EFEFEF"/><circle cx="3" cy="3" r="3" transform="matrix(1 0 0 -1 211.66 868.479)" fill="#EFEFEF"/><circle cx="224.164" cy="30.363" r="3" fill="#EFEFEF"/><circle cx="67.176" cy="1149.63" r="3" transform="rotate(180 67.176 1149.63)" fill="#EFEFEF"/><circle cx="3" cy="3" r="3" transform="matrix(1 0 0 -1 221.164 862.191)" fill="#EFEFEF"/><circle cx="232.609" cy="36.65" r="3" fill="#EFEFEF"/><circle cx="58.73" cy="1143.34" r="3" transform="rotate(180 58.73 1143.34)" fill="#EFEFEF"/><circle cx="3" cy="3" r="3" transform="matrix(1 0 0 -1 229.609 855.91)" fill="#EFEFEF"/><circle cx="241.053" cy="45.451" r="3" fill="#EFEFEF"/><circle cx="50.281" cy="1134.54" r="3" transform="rotate(180 50.281 1134.54)" fill="#EFEFEF"/><circle cx="3" cy="3" r="3" transform="matrix(1 0 0 -1 238.053 847.109)" fill="#EFEFEF"/><circle cx="248.451" cy="54.251" r="3" fill="#EFEFEF"/><circle cx="42.9" cy="1125.73" r="3" transform="rotate(180 42.9 1125.73)" fill="#EFEFEF"/><circle cx="3" cy="3" r="3" transform="matrix(1 0 0 -1 245.451 838.308)" fill="#EFEFEF"/><circle cx="254.779" cy="63.054" r="3" fill="#EFEFEF"/><circle cx="36.566" cy="1116.94" r="3" transform="rotate(180 36.566 1116.94)" fill="#EFEFEF"/><circle cx="3" cy="3" r="3" transform="matrix(1 0 0 -1 251.779 829.507)" fill="#EFEFEF"/><circle cx="261.113" cy="73.11" r="3" fill="#EFEFEF"/><circle cx="30.225" cy="1106.88" r="3" transform="rotate(180 30.225 1106.88)" fill="#EFEFEF"/><circle cx="3" cy="3" r="3" transform="matrix(1 0 0 -1 258.113 819.447)" fill="#EFEFEF"/><circle cx="267.453" cy="84.426" r="3" fill="#EFEFEF"/><circle cx="23.893" cy="1095.57" r="3" transform="rotate(180 23.893 1095.57)" fill="#EFEFEF"/><circle cx="3" cy="3" r="3" transform="matrix(1 0 0 -1 264.453 808.132)" fill="#EFEFEF"/><circle cx="271.67" cy="95.738" r="3" fill="#EFEFEF"/><circle cx="19.668" cy="1084.25" r="3" transform="rotate(180 19.668 1084.25)" fill="#EFEFEF"/><circle cx="3" cy="3" r="3" transform="matrix(1 0 0 -1 268.67 796.82)" fill="#EFEFEF"/><circle cx="275.889" cy="108.312" r="3" fill="#EFEFEF"/><circle cx="15.443" cy="1071.68" r="3" transform="rotate(180 15.443 1071.68)" fill="#EFEFEF"/><circle cx="3" cy="3" r="3" transform="matrix(1 0 0 -1 272.889 784.242)" fill="#EFEFEF"/><circle cx="279" cy="120" r="3" fill="#EFEFEF"/><circle cx="282" cy="130" r="3" fill="#EFEFEF"/><circle cx="3" cy="3" r="3" transform="matrix(-1 0 0 1 13 423)" fill="#EFEFEF"/><circle cx="3" cy="3" r="3" transform="matrix(-1 0 0 1 13 1003)" fill="#EFEFEF"/><circle cx="3" cy="3" r="3" transform="matrix(-1 0 0 1 12 461)" fill="#EFEFEF"/><circle cx="3" cy="3" r="3" transform="matrix(-1 0 0 1 12 1041)" fill="#EFEFEF"/><circle cx="12.27" cy="1057.84" r="3" transform="rotate(180 12.27 1057.84)" fill="#EFEFEF"/><circle cx="3" cy="3" r="3" transform="matrix(1 0 0 -1 276.064 770.414)" fill="#EFEFEF"/><circle cx="279.064" cy="185.007" r="3" fill="#EFEFEF"/><circle cx="282" cy="175" r="3" fill="#EFEFEF"/><circle cx="283" cy="164" r="3" fill="#EFEFEF"/><circle cx="12.27" cy="994.982" r="3" transform="rotate(180 12.27 994.982)" fill="#EFEFEF"/><circle cx="3" cy="3" r="3" transform="matrix(1 0 0 -1 276.064 707.551)" fill="#EFEFEF"/><circle cx="3" cy="3" r="3" transform="matrix(1 0 0 -1 278 718)" fill="#EFEFEF"/><circle cx="3" cy="3" r="3" transform="matrix(1 0 0 -1 278 758)" fill="#EFEFEF"/><circle cx="275.889" cy="196.319" r="3" fill="#EFEFEF"/><circle cx="15.443" cy="983.664" r="3" transform="rotate(180 15.443 983.664)" fill="#EFEFEF"/><circle cx="3" cy="3" r="3" transform="matrix(1 0 0 -1 272.889 696.228)" fill="#EFEFEF"/><circle cx="272.725" cy="207.644" r="3" fill="#EFEFEF"/><circle cx="18.613" cy="972.352" r="3" transform="rotate(180 18.613 972.352)" fill="#EFEFEF"/><circle cx="3" cy="3" r="3" transform="matrix(1 0 0 -1 269.725 684.916)" fill="#EFEFEF"/><circle cx="268.502" cy="218.954" r="3" fill="#EFEFEF"/><circle cx="22.832" cy="961.035" r="3" transform="rotate(180 22.832 961.035)" fill="#EFEFEF"/><circle cx="3" cy="3" r="3" transform="matrix(1 0 0 -1 265.502 673.603)" fill="#EFEFEF"/><circle cx="263.223" cy="229.01" r="3" fill="#EFEFEF"/><circle cx="28.111" cy="950.981" r="3" transform="rotate(180 28.111 950.981)" fill="#EFEFEF"/><circle cx="3" cy="3" r="3" transform="matrix(1 0 0 -1 260.223 663.545)" fill="#EFEFEF"/><circle cx="256.891" cy="240.327" r="3" fill="#EFEFEF"/><circle cx="34.453" cy="939.662" r="3" transform="rotate(180 34.453 939.662)" fill="#EFEFEF"/><circle cx="3" cy="3" r="3" transform="matrix(1 0 0 -1 253.891 652.233)" fill="#EFEFEF"/><circle cx="250.553" cy="250.389" r="3" fill="#EFEFEF"/><circle cx="40.783" cy="929.605" r="3" transform="rotate(180 40.783 929.605)" fill="#EFEFEF"/><circle cx="3" cy="3" r="3" transform="matrix(1 0 0 -1 247.553 642.17)" fill="#EFEFEF"/><circle cx="242.107" cy="260.439" r="3" fill="#EFEFEF"/><circle cx="49.24" cy="919.548" r="3" transform="rotate(180 49.24 919.548)" fill="#EFEFEF"/><circle cx="3" cy="3" r="3" transform="matrix(1 0 0 -1 239.107 632.113)" fill="#EFEFEF"/><circle cx="232.609" cy="269.245" r="3" fill="#EFEFEF"/><circle cx="58.73" cy="910.743" r="3" transform="rotate(180 58.73 910.743)" fill="#EFEFEF"/><circle cx="3" cy="3" r="3" transform="matrix(1 0 0 -1 229.609 623.307)" fill="#EFEFEF"/><circle cx="223.105" cy="276.793" r="3" fill="#EFEFEF"/><circle cx="68.234" cy="903.198" r="3" transform="rotate(180 68.234 903.198)" fill="#EFEFEF"/><circle cx="3" cy="3" r="3" transform="matrix(1 0 0 -1 220.105 615.769)" fill="#EFEFEF"/><circle cx="212.543" cy="284.33" r="3" fill="#EFEFEF"/><circle cx="78.789" cy="895.658" r="3" transform="rotate(180 78.79 895.658)" fill="#EFEFEF"/><circle cx="3" cy="3" r="3" transform="matrix(1 0 0 -1 209.543 608.227)" fill="#EFEFEF"/><circle cx="201.986" cy="289.366" r="3" fill="#EFEFEF"/><circle cx="89.35" cy="890.624" r="3" transform="rotate(180 89.35 890.624)" fill="#EFEFEF"/><circle cx="3" cy="3" r="3" transform="matrix(1 0 0 -1 198.986 603.197)" fill="#EFEFEF"/><circle cx="189.32" cy="294.391" r="3" fill="#EFEFEF"/><circle cx="102.02" cy="885.602" r="3" transform="rotate(180 102.02 885.602)" fill="#EFEFEF"/><circle cx="3" cy="3" r="3" transform="matrix(1 0 0 -1 186.32 598.167)" fill="#EFEFEF"/><circle cx="177.707" cy="296.908" r="3" fill="#EFEFEF"/><circle cx="113.637" cy="883.085" r="3" transform="rotate(180 113.637 883.085)" fill="#EFEFEF"/><circle cx="3" cy="3" r="3" transform="matrix(1 0 0 -1 174.707 595.652)" fill="#EFEFEF"/><circle cx="165.035" cy="298.158" r="3" fill="#EFEFEF"/><circle cx="126.307" cy="881.824" r="3" transform="rotate(180 126.307 881.824)" fill="#EFEFEF"/><circle cx="3" cy="3" r="3" transform="matrix(1 0 0 -1 162.035 594.391)" fill="#EFEFEF"/><circle cx="152.365" cy="299.419" r="3" fill="#EFEFEF"/><circle cx="138.973" cy="880.573" r="3" transform="rotate(180 138.973 880.573)" fill="#EFEFEF"/><circle cx="3" cy="3" r="3" transform="matrix(1 0 0 -1 149.365 593.138)" fill="#EFEFEF"/><circle cx="115.746" cy="588.886" r="3" transform="rotate(180 115.746 588.886)" fill="#EFEFEF"/><circle cx="105.191" cy="587.619" r="3" transform="rotate(180 105.191 587.619)" fill="#EFEFEF"/><circle cx="95.686" cy="583.854" r="3" transform="rotate(180 95.686 583.854)" fill="#EFEFEF"/><circle cx="86.176" cy="580.078" r="3" transform="rotate(180 86.176 580.078)" fill="#EFEFEF"/><circle cx="76.688" cy="575.05" r="3" transform="rotate(180 76.688 575.05)" fill="#EFEFEF"/><circle cx="67.176" cy="568.761" r="3" transform="rotate(180 67.176 568.761)" fill="#EFEFEF"/><circle cx="58.73" cy="562.478" r="3" transform="rotate(180 58.73 562.478)" fill="#EFEFEF"/><circle cx="50.281" cy="553.68" r="3" transform="rotate(180 50.281 553.68)" fill="#EFEFEF"/><circle cx="42.9" cy="544.879" r="3" transform="rotate(180 42.9 544.879)" fill="#EFEFEF"/><circle cx="36.566" cy="536.078" r="3" transform="rotate(180 36.566 536.078)" fill="#EFEFEF"/><circle cx="30.225" cy="526.015" r="3" transform="rotate(180 30.225 526.015)" fill="#EFEFEF"/><circle cx="23.893" cy="514.701" r="3" transform="rotate(180 23.893 514.701)" fill="#EFEFEF"/><circle cx="19.668" cy="503.384" r="3" transform="rotate(180 19.668 503.384)" fill="#EFEFEF"/><circle cx="15.443" cy="490.812" r="3" transform="rotate(180 15.443 490.812)" fill="#EFEFEF"/><circle cx="12.27" cy="476.982" r="3" transform="rotate(180 12.27 476.982)" fill="#EFEFEF"/><circle cx="12.27" cy="414.116" r="3" transform="rotate(180 12.27 414.116)" fill="#EFEFEF"/><circle cx="15.443" cy="402.803" r="3" transform="rotate(180 15.443 402.803)" fill="#EFEFEF"/><circle cx="18.613" cy="391.486" r="3" transform="rotate(180 18.613 391.486)" fill="#EFEFEF"/><circle cx="22.832" cy="380.174" r="3" transform="rotate(180 22.832 380.174)" fill="#EFEFEF"/><circle cx="28.111" cy="370.114" r="3" transform="rotate(180 28.111 370.114)" fill="#EFEFEF"/><circle cx="34.453" cy="358.797" r="3" transform="rotate(180 34.453 358.797)" fill="#EFEFEF"/><circle cx="40.783" cy="348.74" r="3" transform="rotate(180 40.783 348.74)" fill="#EFEFEF"/><circle cx="49.24" cy="338.679" r="3" transform="rotate(180 49.24 338.679)" fill="#EFEFEF"/><circle cx="58.73" cy="329.881" r="3" transform="rotate(180 58.73 329.881)" fill="#EFEFEF"/><circle cx="68.234" cy="322.34" r="3" transform="rotate(180 68.234 322.34)" fill="#EFEFEF"/><circle cx="78.789" cy="314.787" r="3" transform="rotate(180 78.79 314.787)" fill="#EFEFEF"/><circle cx="89.35" cy="309.763" r="3" transform="rotate(180 89.35 309.763)" fill="#EFEFEF"/><circle cx="102.02" cy="304.734" r="3" transform="rotate(180 102.02 304.734)" fill="#EFEFEF"/><circle cx="113.637" cy="302.226" r="3" transform="rotate(180 113.637 302.226)" fill="#EFEFEF"/><circle cx="126.307" cy="300.966" r="3" transform="rotate(180 126.307 300.966)" fill="#EFEFEF"/><circle cx="138.973" cy="299.703" r="3" transform="rotate(180 138.973 299.703)" fill="#EFEFEF"/><circle cx="126.307" cy="590.138" r="3" transform="rotate(180 126.307 590.138)" fill="#EFEFEF"/><circle cx="163.264" cy="880.573" r="3" transform="rotate(180 163.264 880.573)" fill="#EFEFEF"/><circle cx="3" cy="3" r="3" transform="matrix(-1 0 0 1 141.973 586.854)" fill="#EFEFEF"/><circle cx="3" cy="3" r="3" transform="matrix(-1 0 0 1 154.643 877.282)" fill="#EFEFEF"/><circle cx="4.5" cy="4.5" r="4.5" transform="matrix(1 0 0 -1 5 449)" fill="#7D75EC"/><circle cx="9.5" cy="9.5" r="9.298" transform="matrix(1 0 0 -1 0 454)" stroke="#7D75EC" stroke-width=".404"/><circle cx="4.5" cy="4.5" r="4.5" transform="matrix(1 0 0 -1 5 1029)" fill="#7D75EC"/><circle cx="9.5" cy="9.5" r="9.298" transform="matrix(1 0 0 -1 0 1034)" stroke="#7D75EC" stroke-width=".404"/><circle cx="4.5" cy="4.5" r="4.5" transform="matrix(1 0 0 -1 278 741)" fill="#7D75EC"/><circle cx="9.5" cy="9.5" r="9.298" transform="matrix(1 0 0 -1 273 746)" stroke="#7D75EC" stroke-width=".404"/><circle cx="283.5" cy="145.5" r="4.5" transform="rotate(180 283.5 145.5)" fill="#7D75EC"/><circle cx="283.5" cy="145.5" r="9.298" transform="rotate(180 283.5 145.5)" stroke="#7D75EC" stroke-width=".404"/><circle cx="162" cy="6" r="6" transform="rotate(180 162 6)" fill="url(#paint0_linear_713_15099)"/><circle cx="129" cy="1171" r="6" transform="rotate(180 129 1171)" fill="url(#paint1_linear_713_15099)"/><defs><linearGradient id="paint0_linear_713_15099" x1="168" y1="0" x2="156" y2="13.2" gradientUnits="userSpaceOnUse"><stop stop-color="#fff"/><stop offset=".458" stop-color="#C8C8C8"/><stop offset="1" stop-color="#fff"/></linearGradient><linearGradient id="paint1_linear_713_15099" x1="135" y1="1165" x2="123" y2="1178.2" gradientUnits="userSpaceOnUse"><stop stop-color="#fff"/><stop offset=".458" stop-color="#C8C8C8"/><stop offset="1" stop-color="#fff"/></linearGradient></defs></svg>