<svg width="360" height="1187" fill="none" xmlns="http://www.w3.org/2000/svg"><ellipse cx="196.423" cy="9.481" rx="9.474" ry="9.481" fill="url(#paint0_linear_406_1385)"/><ellipse cx="163.577" cy="1177.52" rx="9.474" ry="9.481" transform="rotate(180 163.577 1177.52)" fill="url(#paint1_linear_406_1385)"/><ellipse cx="342.946" cy="154.854" rx="9.474" ry="9.481" fill="#7D75EC"/><ellipse cx="17.052" cy="1032.15" rx="9.474" ry="9.481" transform="rotate(180 17.052 1032.15)" fill="#7D75EC"/><ellipse cx="9.474" cy="9.481" rx="9.474" ry="9.481" transform="matrix(1 0 0 -1 333.473 749.617)" fill="#7D75EC"/><circle cx="342.895" cy="154.787" r="16.368" stroke="#7D75EC" stroke-width="1.265"/><path d="M.632 1032.15c0-9.08 7.352-16.44 16.42-16.44 9.069 0 16.421 7.36 16.421 16.44 0 9.07-7.352 16.43-16.42 16.43-9.069 0-16.42-7.36-16.42-16.43zm358.736-292.015c0-9.076-7.352-16.433-16.421-16.433-9.068 0-16.42 7.357-16.42 16.433 0 9.077 7.352 16.434 16.42 16.434 9.069 0 16.421-7.357 16.421-16.434z" stroke="#7D75EC" stroke-width="1.265"/><ellipse cx="216.633" cy="9.481" rx="3.158" ry="3.16" fill="#EFEFEF"/><ellipse cx="143.367" cy="1177.52" rx="3.158" ry="3.16" transform="rotate(180 143.367 1177.52)" fill="#EFEFEF"/><ellipse cx="3.158" cy="3.16" rx="3.158" ry="3.16" transform="matrix(1 0 0 -1 213.475 888.669)" fill="#EFEFEF"/><ellipse cx="228" cy="12.01" rx="3.158" ry="3.16" fill="#EFEFEF"/><ellipse cx="132" cy="1174.99" rx="3.158" ry="3.16" transform="rotate(180 132 1174.99)" fill="#EFEFEF"/><ellipse cx="3.158" cy="3.16" rx="3.158" ry="3.16" transform="matrix(1 0 0 -1 224.842 886.141)" fill="#EFEFEF"/><ellipse cx="239.369" cy="15.801" rx="3.158" ry="3.16" fill="#EFEFEF"/><ellipse cx="120.631" cy="1171.2" rx="3.158" ry="3.16" transform="rotate(180 120.631 1171.2)" fill="#EFEFEF"/><ellipse cx="3.158" cy="3.16" rx="3.158" ry="3.16" transform="matrix(1 0 0 -1 236.211 882.349)" fill="#EFEFEF"/><ellipse cx="250.736" cy="19.594" rx="3.158" ry="3.16" fill="#EFEFEF"/><ellipse cx="109.264" cy="1167.41" rx="3.158" ry="3.16" transform="rotate(180 109.264 1167.41)" fill="#EFEFEF"/><ellipse cx="3.158" cy="3.16" rx="3.158" ry="3.16" transform="matrix(1 0 0 -1 247.578 878.558)" fill="#EFEFEF"/><ellipse cx="262.105" cy="24.651" rx="3.158" ry="3.16" fill="#EFEFEF"/><ellipse cx="97.895" cy="1162.35" rx="3.158" ry="3.16" transform="rotate(180 97.895 1162.35)" fill="#EFEFEF"/><ellipse cx="3.158" cy="3.16" rx="3.158" ry="3.16" transform="matrix(1 0 0 -1 258.947 873.501)" fill="#EFEFEF"/><ellipse cx="273.474" cy="30.971" rx="3.158" ry="3.16" fill="#EFEFEF"/><ellipse cx="86.526" cy="1156.03" rx="3.158" ry="3.16" transform="rotate(180 86.526 1156.03)" fill="#EFEFEF"/><ellipse cx="3.158" cy="3.16" rx="3.158" ry="3.16" transform="matrix(1 0 0 -1 270.316 867.181)" fill="#EFEFEF"/><ellipse cx="283.58" cy="37.293" rx="3.158" ry="3.16" fill="#EFEFEF"/><ellipse cx="76.42" cy="1149.71" rx="3.158" ry="3.16" transform="rotate(180 76.42 1149.71)" fill="#EFEFEF"/><ellipse cx="3.158" cy="3.16" rx="3.158" ry="3.16" transform="matrix(1 0 0 -1 280.422 860.86)" fill="#EFEFEF"/><ellipse cx="293.683" cy="46.141" rx="3.158" ry="3.16" fill="#EFEFEF"/><ellipse cx="66.317" cy="1140.86" rx="3.158" ry="3.16" transform="rotate(180 66.317 1140.86)" fill="#EFEFEF"/><ellipse cx="3.158" cy="3.16" rx="3.158" ry="3.16" transform="matrix(1 0 0 -1 290.525 852.012)" fill="#EFEFEF"/><ellipse cx="302.527" cy="54.99" rx="3.158" ry="3.16" fill="#EFEFEF"/><ellipse cx="57.473" cy="1132.01" rx="3.158" ry="3.16" transform="rotate(180 57.473 1132.01)" fill="#EFEFEF"/><ellipse cx="3.158" cy="3.16" rx="3.158" ry="3.16" transform="matrix(1 0 0 -1 299.369 843.162)" fill="#EFEFEF"/><ellipse cx="310.105" cy="63.838" rx="3.158" ry="3.16" fill="#EFEFEF"/><ellipse cx="49.895" cy="1123.16" rx="3.158" ry="3.16" transform="rotate(180 49.895 1123.16)" fill="#EFEFEF"/><ellipse cx="3.158" cy="3.16" rx="3.158" ry="3.16" transform="matrix(1 0 0 -1 306.947 834.313)" fill="#EFEFEF"/><ellipse cx="317.685" cy="73.949" rx="3.158" ry="3.16" fill="#EFEFEF"/><ellipse cx="42.315" cy="1113.05" rx="3.158" ry="3.16" transform="rotate(180 42.315 1113.05)" fill="#EFEFEF"/><ellipse cx="3.158" cy="3.16" rx="3.158" ry="3.16" transform="matrix(1 0 0 -1 314.527 824.2)" fill="#EFEFEF"/><ellipse cx="325.263" cy="85.328" rx="3.158" ry="3.16" fill="#EFEFEF"/><ellipse cx="34.737" cy="1101.67" rx="3.158" ry="3.16" transform="rotate(180 34.737 1101.67)" fill="#EFEFEF"/><ellipse cx="3.158" cy="3.16" rx="3.158" ry="3.16" transform="matrix(1 0 0 -1 322.105 812.823)" fill="#EFEFEF"/><ellipse cx="330.314" cy="96.703" rx="3.158" ry="3.16" fill="#EFEFEF"/><ellipse cx="29.686" cy="1090.3" rx="3.158" ry="3.16" transform="rotate(180 29.686 1090.3)" fill="#EFEFEF"/><ellipse cx="3.158" cy="3.16" rx="3.158" ry="3.16" transform="matrix(1 0 0 -1 327.156 801.446)" fill="#EFEFEF"/><ellipse cx="335.369" cy="109.346" rx="3.158" ry="3.16" fill="#EFEFEF"/><ellipse cx="24.631" cy="1077.65" rx="3.158" ry="3.16" transform="rotate(180 24.631 1077.65)" fill="#EFEFEF"/><ellipse cx="3.158" cy="3.16" rx="3.158" ry="3.16" transform="matrix(1 0 0 -1 332.211 788.805)" fill="#EFEFEF"/><ellipse cx="339.16" cy="123.25" rx="3.158" ry="3.16" fill="#EFEFEF"/><ellipse cx="20.84" cy="1063.75" rx="3.158" ry="3.16" transform="rotate(180 20.84 1063.75)" fill="#EFEFEF"/><ellipse cx="3.158" cy="3.16" rx="3.158" ry="3.16" transform="matrix(1 0 0 -1 336.002 774.899)" fill="#EFEFEF"/><ellipse cx="339.16" cy="186.457" rx="3.158" ry="3.16" fill="#EFEFEF"/><ellipse cx="20.84" cy="1000.54" rx="3.158" ry="3.16" transform="rotate(180 20.84 1000.54)" fill="#EFEFEF"/><ellipse cx="3.158" cy="3.16" rx="3.158" ry="3.16" transform="matrix(1 0 0 -1 336.002 711.694)" fill="#EFEFEF"/><ellipse cx="335.369" cy="197.832" rx="3.158" ry="3.16" fill="#EFEFEF"/><ellipse cx="24.631" cy="989.167" rx="3.158" ry="3.16" transform="rotate(180 24.631 989.167)" fill="#EFEFEF"/><ellipse cx="3.158" cy="3.16" rx="3.158" ry="3.16" transform="matrix(1 0 0 -1 332.211 700.317)" fill="#EFEFEF"/><ellipse cx="331.58" cy="209.211" rx="3.158" ry="3.16" fill="#EFEFEF"/><ellipse cx="28.42" cy="977.789" rx="3.158" ry="3.16" transform="rotate(180 28.42 977.789)" fill="#EFEFEF"/><ellipse cx="3.158" cy="3.16" rx="3.158" ry="3.16" transform="matrix(1 0 0 -1 328.422 688.939)" fill="#EFEFEF"/><ellipse cx="326.527" cy="220.586" rx="3.158" ry="3.16" fill="#EFEFEF"/><ellipse cx="33.473" cy="966.412" rx="3.158" ry="3.16" transform="rotate(180 33.473 966.412)" fill="#EFEFEF"/><ellipse cx="3.158" cy="3.16" rx="3.158" ry="3.16" transform="matrix(1 0 0 -1 323.369 677.562)" fill="#EFEFEF"/><ellipse cx="320.211" cy="230.701" rx="3.158" ry="3.16" fill="#EFEFEF"/><ellipse cx="39.789" cy="956.3" rx="3.158" ry="3.16" transform="rotate(180 39.79 956.3)" fill="#EFEFEF"/><ellipse cx="3.158" cy="3.16" rx="3.158" ry="3.16" transform="matrix(1 0 0 -1 317.053 667.45)" fill="#EFEFEF"/><ellipse cx="312.631" cy="242.076" rx="3.158" ry="3.16" fill="#EFEFEF"/><ellipse cx="47.369" cy="944.922" rx="3.158" ry="3.16" transform="rotate(180 47.37 944.922)" fill="#EFEFEF"/><ellipse cx="3.158" cy="3.16" rx="3.158" ry="3.16" transform="matrix(1 0 0 -1 309.473 656.072)" fill="#EFEFEF"/><ellipse cx="305.052" cy="252.19" rx="3.158" ry="3.16" fill="#EFEFEF"/><ellipse cx="54.947" cy="934.81" rx="3.158" ry="3.16" transform="rotate(180 54.947 934.81)" fill="#EFEFEF"/><ellipse cx="3.158" cy="3.16" rx="3.158" ry="3.16" transform="matrix(1 0 0 -1 301.895 645.961)" fill="#EFEFEF"/><ellipse cx="294.945" cy="262.303" rx="3.158" ry="3.16" fill="#EFEFEF"/><ellipse cx="65.055" cy="924.696" rx="3.158" ry="3.16" transform="rotate(180 65.055 924.696)" fill="#EFEFEF"/><ellipse cx="3.158" cy="3.16" rx="3.158" ry="3.16" transform="matrix(1 0 0 -1 291.787 635.847)" fill="#EFEFEF"/><ellipse cx="283.58" cy="271.151" rx="3.158" ry="3.16" fill="#EFEFEF"/><ellipse cx="76.42" cy="915.847" rx="3.158" ry="3.16" transform="rotate(180 76.42 915.847)" fill="#EFEFEF"/><ellipse cx="3.158" cy="3.16" rx="3.158" ry="3.16" transform="matrix(1 0 0 -1 280.422 626.998)" fill="#EFEFEF"/><ellipse cx="272.211" cy="278.738" rx="3.158" ry="3.16" fill="#EFEFEF"/><ellipse cx="87.789" cy="908.263" rx="3.158" ry="3.16" transform="rotate(180 87.79 908.263)" fill="#EFEFEF"/><ellipse cx="3.158" cy="3.16" rx="3.158" ry="3.16" transform="matrix(1 0 0 -1 269.053 619.414)" fill="#EFEFEF"/><ellipse cx="259.578" cy="286.32" rx="3.158" ry="3.16" fill="#EFEFEF"/><ellipse cx="100.422" cy="900.679" rx="3.158" ry="3.16" transform="rotate(180 100.422 900.679)" fill="#EFEFEF"/><ellipse cx="3.158" cy="3.16" rx="3.158" ry="3.16" transform="matrix(1 0 0 -1 256.42 611.829)" fill="#EFEFEF"/><ellipse cx="246.947" cy="291.379" rx="3.158" ry="3.16" fill="#EFEFEF"/><ellipse cx="113.053" cy="895.622" rx="3.158" ry="3.16" transform="rotate(180 113.053 895.622)" fill="#EFEFEF"/><ellipse cx="3.158" cy="3.16" rx="3.158" ry="3.16" transform="matrix(1 0 0 -1 243.789 606.773)" fill="#EFEFEF"/><ellipse cx="231.791" cy="296.436" rx="3.158" ry="3.16" fill="#EFEFEF"/><ellipse cx="128.209" cy="890.566" rx="3.158" ry="3.16" transform="rotate(180 128.209 890.566)" fill="#EFEFEF"/><ellipse cx="3.158" cy="3.16" rx="3.158" ry="3.16" transform="matrix(1 0 0 -1 228.633 601.717)" fill="#EFEFEF"/><ellipse cx="217.894" cy="298.961" rx="3.158" ry="3.16" fill="#EFEFEF"/><ellipse cx="142.106" cy="888.038" rx="3.158" ry="3.16" transform="rotate(180 142.106 888.038)" fill="#EFEFEF"/><ellipse cx="3.158" cy="3.16" rx="3.158" ry="3.16" transform="matrix(1 0 0 -1 214.736 599.188)" fill="#EFEFEF"/><ellipse cx="202.736" cy="300.227" rx="3.158" ry="3.16" fill="#EFEFEF"/><ellipse cx="157.264" cy="886.773" rx="3.158" ry="3.16" transform="rotate(180 157.264 886.773)" fill="#EFEFEF"/><ellipse cx="3.158" cy="3.16" rx="3.158" ry="3.16" transform="matrix(1 0 0 -1 199.578 597.924)" fill="#EFEFEF"/><ellipse cx="187.578" cy="301.492" rx="3.158" ry="3.16" fill="#EFEFEF"/><ellipse cx="172.422" cy="885.509" rx="3.158" ry="3.16" transform="rotate(180 172.422 885.509)" fill="#EFEFEF"/><ellipse cx="3.158" cy="3.16" rx="3.158" ry="3.16" transform="matrix(1 0 0 -1 184.42 596.659)" fill="#EFEFEF"/><ellipse cx="17.052" cy="448.126" rx="9.474" ry="9.481" transform="rotate(180 17.052 448.126)" fill="#7D75EC"/><path d="M.632 448.128c0-9.077 7.352-16.434 16.42-16.434 9.069 0 16.421 7.357 16.421 16.434 0 9.076-7.352 16.433-16.42 16.433-9.069 0-16.42-7.357-16.42-16.433z" stroke="#7D75EC" stroke-width="1.265"/><ellipse cx="144.631" cy="592.236" rx="3.158" ry="3.16" transform="rotate(180 144.631 592.236)" fill="#EFEFEF"/><ellipse cx="132" cy="590.971" rx="3.158" ry="3.16" transform="rotate(180 132 590.971)" fill="#EFEFEF"/><ellipse cx="120.631" cy="587.18" rx="3.158" ry="3.16" transform="rotate(180 120.631 587.18)" fill="#EFEFEF"/><ellipse cx="109.264" cy="583.388" rx="3.158" ry="3.16" transform="rotate(180 109.264 583.388)" fill="#EFEFEF"/><ellipse cx="97.895" cy="578.331" rx="3.158" ry="3.16" transform="rotate(180 97.895 578.331)" fill="#EFEFEF"/><ellipse cx="86.526" cy="572.011" rx="3.158" ry="3.16" transform="rotate(180 86.526 572.011)" fill="#EFEFEF"/><ellipse cx="76.42" cy="565.69" rx="3.158" ry="3.16" transform="rotate(180 76.42 565.69)" fill="#EFEFEF"/><ellipse cx="66.317" cy="556.842" rx="3.158" ry="3.16" transform="rotate(180 66.317 556.842)" fill="#EFEFEF"/><ellipse cx="57.473" cy="547.992" rx="3.158" ry="3.16" transform="rotate(180 57.473 547.992)" fill="#EFEFEF"/><ellipse cx="49.895" cy="539.143" rx="3.158" ry="3.16" transform="rotate(180 49.895 539.143)" fill="#EFEFEF"/><ellipse cx="42.315" cy="529.03" rx="3.158" ry="3.16" transform="rotate(180 42.315 529.03)" fill="#EFEFEF"/><ellipse cx="34.737" cy="517.653" rx="3.158" ry="3.16" transform="rotate(180 34.737 517.653)" fill="#EFEFEF"/><ellipse cx="29.686" cy="506.277" rx="3.158" ry="3.16" transform="rotate(180 29.686 506.277)" fill="#EFEFEF"/><ellipse cx="24.631" cy="493.635" rx="3.158" ry="3.16" transform="rotate(180 24.631 493.635)" fill="#EFEFEF"/><ellipse cx="20.84" cy="479.73" rx="3.158" ry="3.16" transform="rotate(180 20.84 479.73)" fill="#EFEFEF"/><ellipse cx="20.84" cy="416.524" rx="3.158" ry="3.16" transform="rotate(180 20.84 416.524)" fill="#EFEFEF"/><ellipse cx="24.631" cy="405.147" rx="3.158" ry="3.16" transform="rotate(180 24.631 405.147)" fill="#EFEFEF"/><ellipse cx="28.42" cy="393.769" rx="3.158" ry="3.16" transform="rotate(180 28.42 393.769)" fill="#EFEFEF"/><ellipse cx="33.473" cy="382.393" rx="3.158" ry="3.16" transform="rotate(180 33.473 382.393)" fill="#EFEFEF"/><ellipse cx="39.789" cy="372.28" rx="3.158" ry="3.16" transform="rotate(180 39.79 372.28)" fill="#EFEFEF"/><ellipse cx="47.369" cy="360.903" rx="3.158" ry="3.16" transform="rotate(180 47.37 360.903)" fill="#EFEFEF"/><ellipse cx="54.947" cy="350.791" rx="3.158" ry="3.16" transform="rotate(180 54.947 350.791)" fill="#EFEFEF"/><ellipse cx="65.055" cy="340.677" rx="3.158" ry="3.16" transform="rotate(180 65.055 340.677)" fill="#EFEFEF"/><ellipse cx="76.42" cy="331.829" rx="3.158" ry="3.16" transform="rotate(180 76.42 331.829)" fill="#EFEFEF"/><ellipse cx="87.789" cy="324.243" rx="3.158" ry="3.16" transform="rotate(180 87.79 324.243)" fill="#EFEFEF"/><ellipse cx="100.422" cy="316.659" rx="3.158" ry="3.16" transform="rotate(180 100.422 316.659)" fill="#EFEFEF"/><ellipse cx="113.053" cy="311.602" rx="3.158" ry="3.16" transform="rotate(180 113.053 311.602)" fill="#EFEFEF"/><ellipse cx="128.209" cy="306.545" rx="3.158" ry="3.16" transform="rotate(180 128.209 306.545)" fill="#EFEFEF"/><ellipse cx="142.106" cy="304.019" rx="3.158" ry="3.16" transform="rotate(180 142.106 304.019)" fill="#EFEFEF"/><ellipse cx="157.264" cy="302.756" rx="3.158" ry="3.16" transform="rotate(180 157.264 302.756)" fill="#EFEFEF"/><ellipse cx="172.422" cy="301.49" rx="3.158" ry="3.16" transform="rotate(180 172.422 301.49)" fill="#EFEFEF"/><ellipse cx="157.264" cy="593.499" rx="3.158" ry="3.16" transform="rotate(180 157.264 593.499)" fill="#EFEFEF"/><ellipse cx="201.475" cy="885.509" rx="3.158" ry="3.16" transform="rotate(180 201.475 885.509)" fill="#EFEFEF"/><ellipse cx="3.158" cy="3.16" rx="3.158" ry="3.16" transform="matrix(-1 0 0 1 175.58 590.34)" fill="#EFEFEF"/><ellipse cx="3.158" cy="3.16" rx="3.158" ry="3.16" transform="matrix(-1 0 0 1 190.736 882.349)" fill="#EFEFEF"/><defs><linearGradient id="paint0_linear_406_1385" x1="205.897" y1="0" x2="186.934" y2="20.844" gradientUnits="userSpaceOnUse"><stop stop-color="#fff"/><stop offset=".458" stop-color="#C8C8C8"/><stop offset="1" stop-color="#fff"/></linearGradient><linearGradient id="paint1_linear_406_1385" x1="173.051" y1="1168.04" x2="154.088" y2="1188.88" gradientUnits="userSpaceOnUse"><stop stop-color="#fff"/><stop offset=".458" stop-color="#C8C8C8"/><stop offset="1" stop-color="#fff"/></linearGradient></defs></svg>