<svg width="109" height="109" fill="none" xmlns="http://www.w3.org/2000/svg"><path d="M96.167 50.51c-3.709-1.855-10.663-1.876-10.957-1.876a1.597 1.597 0 000 3.193c1.794 0 7.005.277 9.53 1.539a1.596 1.596 0 001.427-2.856z" fill="#7D75EC"/><path d="M104.127 73.243l-6.594-1.884a.67.67 0 01-.483-.641v-2.201a11.996 11.996 0 001.526-1.252 11.744 11.744 0 003.595-8.498V55.73l.638-1.275a10.168 10.168 0 001.069-4.532v-8.228a1.598 1.598 0 00-1.596-1.597H86.917c-5.587 0-10.133 4.546-10.133 10.133v.095a8.469 8.469 0 00.89 3.768l.817 1.636v2.607c0 4.133 2.037 7.842 5.122 10.073v2.307c0 .356 0 .503-1.318.88l-3.218.92-9.307-3.385a1.596 1.596 0 00-.436-1.223l-2.974-3.124v-5.246c.317-.259.625-.528.925-.807a18.74 18.74 0 005.904-13.623V40.92a18.457 18.457 0 001.707-7.761V16.087A1.596 1.596 0 0073.3 14.49H49.4c-8.412 0-15.255 6.843-15.255 15.254v3.415c0 2.687.574 5.296 1.707 7.761v3.605c0 5.968 2.654 11.346 6.83 14.89v5.37l-2.975 3.125a1.597 1.597 0 00-.435 1.222l-9.824 3.572a8.378 8.378 0 00-1.974 1.034l-1.543-.771c4.593-1.999 6.047-4.81 6.117-4.95a1.597 1.597 0 000-1.428c-1.151-2.302-1.29-6.522-1.402-9.912a86.445 86.445 0 00-.14-3.145c-.545-7.658-6.367-13.434-13.544-13.434-7.176 0-12.998 5.776-13.543 13.434a86.41 86.41 0 00-.14 3.145c-.112 3.39-.251 7.61-1.402 9.912a1.596 1.596 0 000 1.428c.07.14 1.521 2.945 6.123 4.946l-4.285 2.143A6.684 6.684 0 000 81.116V92.91a1.597 1.597 0 003.193 0V81.115c0-1.344.747-2.552 1.949-3.153l5.335-2.667 1.856 1.763a6.7 6.7 0 004.628 1.85 6.701 6.701 0 004.629-1.85l1.855-1.763 1.74.87a8.408 8.408 0 00-1.284 4.458v12.289a1.596 1.596 0 103.193 0v-12.29a5.248 5.248 0 013.444-4.917l10.358-3.766 4.312 6.468a3.292 3.292 0 002.423 1.455 3.29 3.29 0 002.662-.951l2.63-2.631v16.632a1.597 1.597 0 003.194 0V76.28l2.63 2.63a3.288 3.288 0 002.662.952 3.292 3.292 0 002.424-1.455l4.311-6.467 10.358 3.766a5.248 5.248 0 013.444 4.917v12.29a1.597 1.597 0 103.193 0v-12.29a8.44 8.44 0 00-2.361-5.842l.394-.113c.398-.113.94-.269 1.486-.536l4.076 4.077v14.703a1.596 1.596 0 103.194 0V78.21l4.048-4.049c.215.11.442.202.68.27l6.594 1.884a3.54 3.54 0 012.557 3.39v13.208a1.598 1.598 0 103.193 0v-13.21a6.748 6.748 0 00-4.873-6.46zm-93.884-2.82c-2.986-1.075-4.485-2.508-5.124-3.29.436-1.14.719-2.445.91-3.823a11.907 11.907 0 004.214 5.199v1.914zm9.147 4.32a3.523 3.523 0 01-4.857 0l-1.484-1.41c.255-.48.389-1.016.388-1.56v-1.701a11.879 11.879 0 007.05.001v1.7c0 .558.137 1.09.388 1.56l-1.485 1.41zm-2.428-7.329c-4.768 0-8.646-3.879-8.646-8.647a1.597 1.597 0 00-1.859-1.573l.014-.41c.035-1.099.07-2.136.133-3.025.204-2.869 1.35-5.513 3.228-7.444a9.869 9.869 0 017.13-3.023 9.87 9.87 0 017.13 3.023c1.878 1.931 3.024 4.575 3.228 7.444.063.89.097 1.926.133 3.024l.01.285c-1.737-2.677-4.42-4.65-7.886-5.763-3.203-1.03-5.957-.965-6.074-.962a1.597 1.597 0 00-1.105.487l-2.88 2.988a1.597 1.597 0 002.298 2.217l2.397-2.486c2.065.1 8.706.873 11.29 6.56a8.626 8.626 0 01-8.54 7.305zm6.718 3.014v-1.904a11.811 11.811 0 004.215-5.205c.192 1.374.474 2.677.91 3.814-.637.775-2.142 2.22-5.125 3.295zm15.365-25.903v-3.962c0-.24-.055-.478-.159-.694a15.316 15.316 0 01-1.548-6.71v-3.414c0-6.65 5.41-12.061 12.06-12.061h22.305v15.475c0 2.325-.521 4.583-1.549 6.71a1.597 1.597 0 00-.158.694v4.547c0 4.324-1.739 8.334-4.895 11.293-.39.366-.8.713-1.226 1.038-.01.006-.018.013-.027.02-2.957 2.245-6.579 3.336-10.36 3.09-8.1-.524-14.443-7.564-14.443-16.026zm8.99 32.127c-.011.011-.037.037-.089.032a.101.101 0 01-.081-.049l-4.966-7.449 1.598-1.679 7.533 5.15-3.995 3.995zm6.485-6.162l-8.646-5.91V61.6a17.975 17.975 0 007.406 2.138c.421.027.84.04 1.257.04 3.053 0 5.991-.73 8.63-2.114v2.916l-8.647 5.91zm6.656 6.146a.101.101 0 01-.082.048c-.052.007-.077-.02-.089-.031l-3.995-3.996 7.533-5.15 1.598 1.68-4.965 7.449zm29.155-1.348l-3.623-3.623c.063-.287.099-.601.099-.948v-.674a11.19 11.19 0 003.529.564c1.193 0 2.38-.179 3.52-.532v.643c0 .318.04.63.116.93l-3.64 3.64zm6.021-10.315a8.582 8.582 0 01-6.288 2.437c-4.62-.139-8.38-4.209-8.38-9.072v-2.985c0-.248-.057-.492-.168-.714l-.986-1.973a5.26 5.26 0 01-.552-2.34v-.095a6.947 6.947 0 016.939-6.94h13.768v6.632a6.973 6.973 0 01-.732 3.104l-.806 1.612a1.58 1.58 0 00-.169.714v3.414a8.578 8.578 0 01-2.626 6.206z" fill="#7D75EC"/><path d="M100.574 81.072a1.597 1.597 0 00-1.597 1.596v10.243a1.597 1.597 0 003.193 0V82.669a1.598 1.598 0 00-1.596-1.596zm-92.15 2.11a1.597 1.597 0 00-1.596 1.597v8.133a1.597 1.597 0 003.193 0v-8.133a1.597 1.597 0 00-1.596-1.597zM67.6 33.738c-6.039-6.04-18.674-4.885-23.826-4.108a3.278 3.278 0 00-2.8 3.265v3.679a1.597 1.597 0 103.193 0v-3.679c0-.054.035-.1.083-.108 2.058-.31 6.142-.788 10.373-.506 4.98.331 8.586 1.581 10.719 3.715a1.597 1.597 0 002.258-2.258zM35.74 84.486a1.597 1.597 0 00-1.596 1.597v6.829a1.597 1.597 0 103.193 0v-6.83a1.597 1.597 0 00-1.597-1.596zm37.559 0a1.597 1.597 0 00-1.597 1.597v6.829a1.597 1.597 0 103.193 0v-6.83a1.597 1.597 0 00-1.596-1.596z" fill="#7D75EC"/></svg>