<svg width="109" height="109" fill="none" xmlns="http://www.w3.org/2000/svg"><path d="M14.513 54.765a1.875 1.875 0 01-2.558.89l-9.197-4.659a1.693 1.693 0 10-1.53 3.022l9.199 4.66a5.264 5.264 0 005.923-.798c1.09 1.25 1.987 2.764 2.625 4.48a15.147 15.147 0 002.723 4.508l-.426.512a5.697 5.697 0 00.599 7.948c1.416 1.256 3.436 1.83 5.555 1.149a5.678 5.678 0 001.714 2.75c1.123.996 2.585 1.557 4.367 1.379.043 1.893.837 3.455 2.083 4.577 1.503 1.354 3.57 1.989 5.793 1.423.202 1.26.798 2.465 1.825 3.376a5.732 5.732 0 008.08-.485l1.67-1.882c.459.065.918.106 1.373.106a9.72 9.72 0 007.048-3.033c1.037.316 2.116.478 3.2.48 3.267 0 6.448-1.458 8.606-4.079.511.108 1.023.17 1.532.17a7.52 7.52 0 006.85-4.435l.866-1.913h.015a6.699 6.699 0 005.99-3.686c1.775-3.553-.313-9.651 3.676-12.364 1.437 1.9 4.027 2.526 6.162 1.447l9.485-4.708a1.694 1.694 0 00-1.507-3.034l-9.495 4.713a1.57 1.57 0 01-2.108-.72c-12.397-24.72-11.844-23.503-11.943-23.867a1.57 1.57 0 01.835-1.763l16.683-8.554a1.692 1.692 0 00.734-2.28 1.69 1.69 0 00-2.28-.734l-16.674 8.55a4.926 4.926 0 00-2.662 3.733c-2.84.258-4.834-.938-7.095-2.297-3.337-2.003-7.115-4.271-13.527-1.421-.22.098-.425.181-.643.277-2.968-1.588-5.914-2.714-8.986-3.386-5.292-1.12-8.768 1.167-13.166 3.747-2.015 1.213-4.506 1.595-6.802 1.11a5.225 5.225 0 00-3.175-4.637L8.894 17.719a1.696 1.696 0 00-2.24 2.185 1.693 1.693 0 00.905.927l17.054 7.318c.887.38 1.34 1.348 1.06 2.23-.127.381.742-1.553-11.16 24.386zm9.605 18.028a2.325 2.325 0 01-.244-3.244l2.012-2.413a2.336 2.336 0 013.344-.251 2.325 2.325 0 01.244 3.243l-2.013 2.414a2.33 2.33 0 01-3.343.251zm7.268 3.899a2.336 2.336 0 01-.198-3.3l3.925-4.423a2.34 2.34 0 013.85.528 2.336 2.336 0 01-.354 2.575l-3.924 4.422a2.34 2.34 0 01-3.3.198zm6.47 5.973a2.951 2.951 0 01-.196-4.194l7.338-7.972a2.962 2.962 0 014.156-.188c.078.17 2.383 2.18.301 4.361-.163.17-7.644 8.008-7.486 7.839a2.941 2.941 0 01-4.112.154zm7.6 4.782a2.34 2.34 0 01-.66-2.514c.1-.29.257-.557.461-.787l4.482-4.868a2.308 2.308 0 012.742.248 2.336 2.336 0 01.197 3.3l-3.924 4.423a2.34 2.34 0 01-3.298.198zm11.15-5.477c.113.148.238.29.402.399l1.091.715c-.663.49-1.413.83-2.203 1.033.379-.66.62-1.39.71-2.147zm13.898-49.72c2.536 1.525 5.39 3.21 9.511 2.713l10.494 20.899c-2.013 1.208-3.379 3.406-4.096 6.564a7.124 7.124 0 00-.95-.63L65.717 51.134l-5.405-5.356c-2.416-3.266-6.5-4.74-10.46-3.77l-3.615.911a5.996 5.996 0 01-4.69-.76 5.969 5.969 0 01-2.682-3.884c-.134-.866-.311-.887.01-1.082 5.907-.383 12.653-2.345 21.227-6.173 4.794-2.136 7.27-.65 10.402 1.232zm-32.825-.788c3.592-2.193 6.666-4.186 10.7-3.333 1.872.409 3.699 1.024 5.522 1.813-5.945 2.33-10.88 3.587-15.234 3.868-2.202.129-3.736 2.196-3.287 4.34l.168.808a9.326 9.326 0 004.189 6.064 9.39 9.39 0 007.32 1.184l3.614-.912a6.601 6.601 0 016.977 2.578c.128.18 5.625 5.656 6.066 5.977.462.341 11.41 6.197 20.137 10.927 1.736.943 2.468 3.11 1.561 4.927-.842 1.66-2.886 2.31-4.514 1.42L70.011 65.15a1.694 1.694 0 10-1.63 2.971l10.741 5.89-.64 1.416c-.92 2.03-3.249 2.97-5.276 2.157l-.002-.001-.008-.004c-.176-.076-.352-.147-.538-.254l-10.756-6.047a1.693 1.693 0 10-1.66 2.953l9.66 5.43c-2.211 2.082-5.508 2.73-8.383 1.48-.927-.397-1.697-1.001-2.652-1.605a1.693 1.693 0 00-2.345.487c-.008.012-.008.026-.015.037a5.665 5.665 0 00-3.74-4.207 6.282 6.282 0 00.89-3.453c-.108-2.894-2.102-4.431-2.233-4.605-2.571-2.325-6.572-2.142-8.918.409l-.302.328a5.677 5.677 0 00-1.545-2.297c-2.238-1.984-5.595-1.867-7.724.158a5.712 5.712 0 00-1.458-2.045 5.694 5.694 0 00-7.51-.053 11.527 11.527 0 01-1.821-3.13c-.909-2.444-2.283-4.565-3.971-6.258L28.25 32.952c3.356.768 6.705.149 9.429-1.49z" fill="#7D75EC"/></svg>