<svg width="100" height="100" fill="none" xmlns="http://www.w3.org/2000/svg"><path d="M50 46.797a21.525 21.525 0 10-21.525-21.524 21.549 21.549 0 0021.524 21.524zm0-39.141a17.618 17.618 0 11-17.617 17.62 17.638 17.638 0 0117.616-17.62zm44.985 78.52l-.607-1.628a1.953 1.953 0 00-3.66 1.364l.608 1.63c1.272 3.407.983 4.088.912 4.19-.07.101-.608.611-4.247.611h-76c-3.625 0-4.161-.507-4.232-.608-.07-.102-.358-.781.914-4.185L9 86.671c5.212-13.962 7.829-20.968 12.397-24.328 4.514-3.32 11.579-3.47 25.86-3.474a1.953 1.953 0 100-3.906c-29.73.008-30.906.86-41.914 30.344l-.328.879c-1.232 3.294-1.782 5.878-.464 7.778 1.32 1.9 3.928 2.288 7.442 2.288h76c3.52 0 6.136-.39 7.455-2.29 1.32-1.9.767-4.489-.464-7.787z" fill="#7D75EC"/><path d="M54.6 56.557c-1.443 3.94-2.968 14.588 13.957 28.383 2.73 2.223 4.375 3.566 6.422 3.566 2.047 0 3.692-1.343 6.423-3.566 16.929-13.795 15.4-24.444 13.957-28.383a12.915 12.915 0 00-12.043-8.51 10.323 10.323 0 00-8.337 4.344 10.325 10.325 0 00-8.339-4.344 12.89 12.89 0 00-12.04 8.51zm18.521.745a1.953 1.953 0 003.716 0c1.084-3.341 3.472-5.29 6.552-5.347A8.913 8.913 0 0191.69 57.9c1.155 3.152 2.224 11.804-12.756 24.01-1.771 1.442-3.301 2.688-3.956 2.688-.654 0-2.187-1.25-3.954-2.688C56.043 69.705 57.113 61.05 58.267 57.9a8.939 8.939 0 018.158-5.948h.145c3.08.06 5.468 2.008 6.555 5.349h-.004z" fill="#7D75EC"/><path d="M67.14 68.292l5.215 5.215a1.953 1.953 0 002.762 0l7.7-7.7a1.953 1.953 0 00-2.762-2.762l-6.319 6.32-3.833-3.834a1.953 1.953 0 10-2.763 2.761z" fill="#7D75EC"/></svg>