<svg width="117" height="38" fill="none" xmlns="http://www.w3.org/2000/svg"><path d="M44.667.896L29.417 37.19h-9.952l-7.5-28.962c-.461-1.786-.856-2.436-2.24-3.195C7.458 3.811 3.728 2.663.435 1.95L.664.896h16.013c2.043 0 3.879 1.359 4.34 3.7l3.965 21.008L34.778.896h9.89zm38.986 24.439c.045-9.574-13.281-10.095-13.185-14.378.026-1.308 1.268-2.691 3.989-3.04 1.35-.18 5.069-.311 9.283 1.619l1.652-7.693C83.124 1.022 80.21.236 76.588.236c-9.304 0-15.853 4.935-15.909 11.998-.06 5.223 4.673 8.137 8.244 9.876 3.666 1.78 4.892 2.916 4.88 4.512-.025 2.436-2.926 3.5-5.632 3.549-4.734.073-7.48-1.276-9.673-2.295l-1.704 7.958c2.196 1.006 6.263 1.879 10.471 1.93 9.889 0 16.357-4.883 16.388-12.429zm24.569 11.855h8.708L109.332.897h-8.039a4.293 4.293 0 00-4.008 2.66L83.17 37.191h9.88l1.962-5.42h12.078l1.133 5.42zM97.718 24.331l4.957-13.628 2.852 13.628h-7.809zM58.12.896L50.331 37.19h-9.415L48.706.896h9.413z" fill="#EFEFEF"/></svg>