<svg width="191" height="44" fill="none" xmlns="http://www.w3.org/2000/svg"><path fill-rule="evenodd" clip-rule="evenodd" d="M43.654 29.48c.903.397 1.891.456 2.598.456 2.088 0 3.667-1.307 3.667-5.9 0-3.603-1.298-4.766-3.188-4.766-1.13 0-1.948.313-3.078.936v9.274zm.03-11.373c.844-.452 2.283-1.05 3.808-1.05 3.5 0 5.391 2.44 5.391 6.978 0 5.305-2.54 7.886-6.63 7.886-1.498 0-3.812-.482-5.507-1.392V10.732l2.937-.708v8.083zm-31.408-.742h.199l3.837 14.155h3.048l4.574-20.11h-3.302l-2.88 15.005h-.197L13.63 11.41h-2.513L7.45 26.415h-.198L4.091 11.41H.93l4.572 20.11h3.046l3.727-14.155zm22.13 5.595h-6.462c.31-2.835 1.637-4.168 3.358-4.168 1.524 0 2.964 1.19 3.105 4.168zm2.258 7.49v-2.156c-1.551.934-2.962 1.474-4.486 1.474-2.908 0-4.29-1.504-4.29-4.907h9.201v-1.05c0-4.622-2.175-6.92-5.702-6.92-4.234 0-6.407 3.12-6.407 7.433 0 4.48 1.948 7.43 6.688 7.43 2.034 0 3.726-.567 4.996-1.304zm29.064-3.197h-.141l-6.322-15.855H55.85V31.51h2.54V17.27h.253l5.76 14.24h1.805l5.759-14.58h.255v14.58h3.048V11.398h-3.502l-6.04 15.855zm21.995-2.93c0-3.829-1.551-5.445-3.47-5.445-1.863 0-3.473 1.616-3.473 5.445 0 3.886 1.47 5.445 3.472 5.445 2.003 0 3.47-1.559 3.47-5.445zm-9.905 0c0-4.966 2.71-7.433 6.434-7.433 3.727 0 6.436 2.467 6.436 7.433 0 4.85-2.568 7.432-6.436 7.432-3.866 0-6.434-2.583-6.434-7.432zm15.102-5.332c1.27-.767 3.953-2.1 7.197-2.1 3.387 0 4.655 1.333 4.655 4.254v10.27h-2.933v-9.617c0-2.24-1.099-2.637-2.54-2.637-1.128 0-2.57.51-3.444 1.021v11.232H92.92V18.991zm24.528 3.969h-6.463c.312-2.835 1.637-4.168 3.359-4.168 1.524 0 2.966 1.19 3.104 4.168zm2.258 7.49v-2.156c-1.55.934-2.963 1.474-4.486 1.474-2.907 0-4.29-1.504-4.29-4.907h9.202v-1.05c0-4.622-2.174-6.92-5.703-6.92-4.234 0-6.406 3.12-6.406 7.433 0 4.48 1.948 7.43 6.687 7.43 2.033 0 3.727-.567 4.996-1.304zm15.171-13.56h-3.021l-3.216 10.438h-.169l-3.612-10.438h-3.106l5.42 14.18c-.679 2.101-1.863 3.634-3.783 3.634v2.324c3.245 0 4.965-2.042 6.378-5.957l5.109-14.18z" fill="#EFEFEF"/><path d="M168.613.22a22.3 22.3 0 019.68 2.205c.462.208.927.458 1.388.708l-2.02 1.79-3.029-3.122-5.218 4.577-3.074-3.288-9.596 8.53 6.144 6.699-2.399 2.08 6.062 6.699-2.399 2.079 8.671 9.528 5.132-4.66 4.463 4.994c-.884.666-1.852 1.333-2.903 1.914a22.197 22.197 0 01-10.86 2.827c-12.164 0-22.053-9.776-22.053-21.799C146.559 10.04 156.449.22 168.613.22zm-4.041 20.43l5.261-4.661 4.715 5.2-5.263 4.66-4.713-5.2zm3.747 8.986l5.218-4.701 4.756 5.2-5.261 4.66-4.713-5.159zm-7.491-17.849l5.26-4.66 4.713 5.2-5.261 4.66-4.712-5.2zm9.636-2.497l3.915-3.495 3.536 3.87L174 13.2l-3.536-3.911zm6.988 16.018l3.913-3.494 3.536 3.91-3.915 3.497-3.534-3.913zm3.45 7.865l3.915-3.496 3.533 3.87-3.913 3.535-3.535-3.909zm1.6-17.975l2.609-2.33 2.356 2.58-2.609 2.33-2.356-2.58zm-3.367-7.697l2.609-2.371 2.358 2.62-2.611 2.33-2.356-2.58zm6.691 15.395l2.61-2.33 2.399 2.58-2.651 2.33-2.358-2.58zm-11.742-5.784l3.915-3.495 3.535 3.87-3.914 3.495-3.536-3.87z" fill="#EFEFEF"/></svg>