<svg width="60" height="60" fill="none" xmlns="http://www.w3.org/2000/svg"><circle cx="30" cy="30" r="30" fill="#EFEFEF"/><path d="M28.964 42.786c-.46 0-.768-.154-1.075-.461l-6.143-6.143c-.614-.614-.614-1.536 0-2.15.615-.614 1.536-.614 2.15 0l5.068 5.068 17.354-17.354c.614-.614 1.536-.614 2.15 0 .614.615.614 1.536 0 2.15L30.039 42.325c-.307.307-.614.46-1.075.46z" fill="#236FE3"/><path d="M20.825 40.175l-6.143-6.143c-.614-.614-1.536-.614-2.15 0-.614.614-.614 1.536 0 2.15l6.143 6.143c.614.614 1.536.614 2.15 0 .614-.614.614-1.536 0-2.15zm21.5-21.5c-.614-.614-1.536-.614-2.15 0L27.889 30.961c-.614.614-.614 1.535 0 2.15.615.614 1.536.614 2.15 0l12.286-12.286c.614-.614.614-1.536 0-2.15z" fill="#7D75EC"/></svg>