<svg width="99" height="48" fill="none" xmlns="http://www.w3.org/2000/svg"><g clip-path="url(#clip0_168_2098)" fill="#EFEFEF"><path d="M90.838 2.879c.83.771 1.226 1.288 1.308 2.433.005.402.004.804-.002 1.206l.004.667c.003.726-.003 1.452-.009 2.178v1.516c0 1.059-.004 2.117-.012 3.175-.01 1.357-.01 2.713-.008 4.07 0 1.043-.002 2.086-.006 3.13l-.003 1.5c0 .699-.005 1.397-.011 2.096l.002.626c-.016 1.109-.086 1.847-.798 2.748-.484.372-.484.372-1.052.693l-.651.376-.71.398-1.508.867-.401.23c-1.488.849-2.96 1.724-4.434 2.599-3.563 2.116-3.563 2.116-5.198 3.051.977-.312 1.9-.68 2.831-1.11l.414-.19 1.349-.621a674.34 674.34 0 011.932-.888l.506-.232a259.49 259.49 0 013.79-1.69l1.093-.479c.53-.233 1.062-.465 1.594-.695.495-.214.989-.43 1.482-.647l.447-.19c.767-.34 1.061-.513 1.54-1.237.076-.583.076-.583.074-1.243l.014-.769.008-.829.014-.85c.014-.896.024-1.793.035-2.69l.027-1.821c.023-1.49.043-2.98.06-4.47.563-.02 1.124-.034 1.687-.045l.48-.018c.662-.01 1.218.018 1.833.277.695.81.548 1.716.54 2.752l.004.703c.005.769.002 1.537-.001 2.306l.002 1.6c.002 1.12 0 2.238-.005 3.357a561.61 561.61 0 00.004 4.305 627.95 627.95 0 010 3.305c-.001.53 0 1.059.002 1.588.002.74-.001 1.478-.007 2.218l.006.665-.008.61v.53c-.171.71-.479.988-1.048 1.426-.587.119-.587.119-1.26.12l-.776.008-.848-.006-.895.005c-.81.004-1.62.002-2.43 0-.847-.003-1.695 0-2.543 0-1.423.002-2.847 0-4.271-.004a796.15 796.15 0 00-4.936.002 881.09 881.09 0 01-4.24.002 474.63 474.63 0 00-2.53.001c-.942.004-1.883 0-2.824-.006l-.846.006c-1.049-.011-1.855-.033-2.821-.463-.628-.925-.577-1.765-.57-2.863l-.01-.694a181.28 181.28 0 01-.008-2.273l-.009-1.58a494.445 494.445 0 01-.002-3.314 375.26 375.26 0 00-.023-4.244c-.01-1.088-.01-2.176-.01-3.264 0-.521-.003-1.043-.01-1.564-.008-.73-.004-1.46.003-2.19l-.015-.651c.019-.885.037-1.443.648-2.108.471-.363.943-.672 1.457-.97l.75-.477.727-.425.404-.237c.428-.252.858-.502 1.288-.752l.91-.534 1.821-1.068c1.138-.667 2.27-1.344 3.403-2.021a1495.763 1495.763 0 018.564-5.075c.868-.518 1.727-1.05 2.581-1.59.764-.409 1.275-.457 2.111-.258zm-8.372 13.377c-.36.727-.3 1.309-.233 2.112.328.701.328.701.93 1.173.898.264 1.405.32 2.283-.015.659-.589.82-.99.974-1.862-.155-.798-.323-1.254-.873-1.849-1.167-.588-2.07-.317-3.081.44zM5.718 24.235h1.628c.541 1.54.956 3.09 1.326 4.68l.15.636c.183.775.364 1.55.545 2.326l1.235 5.265 3.256-12.907h1.86c.093 1.812.184 3.624.274 5.436l.126 2.526c.197 3.84.357 7.67.298 11.516h-1.395a55.115 55.115 0 01-.349-4.698l-.058-1.474-.087-2.302c-.028-.746-.058-1.492-.087-2.237l-.025-.697-.026-.648-.022-.568c-.037-.594-.037-.594-.276-1.456L11.3 40.663H9.904l-2.79-11.03c-.162.814-.268 1.477-.298 2.289l-.026.65-.025.695-.029.724-.087 2.286-.088 2.279a432.8 432.8 0 00-.054 1.416 37.479 37.479 0 01-.324 3.741H4.788a9553.85 9553.85 0 01.382-9.33 2869.325 2869.325 0 01.162-3.948c.083-2.072.193-4.136.386-6.2zm31.397-22.06h2.326v19.478h-1.628l-.465-.47-.582.353c-1.236.534-2.17.538-3.43.073-1.283-.853-1.9-1.99-2.268-3.476-.5-3.011-.38-6.575 1.396-9.153.918-1.058 2.137-1.295 3.488-1.408l.93.235.233-5.632zm-2.486 7.95c-1.47 2.005-1.418 4.44-1.235 6.834.221 1.136.486 2.065 1.395 2.817.74.095 1.218.082 1.899-.233.663-.732.55-1.533.534-2.474v-.594c-.002-.414-.005-.827-.011-1.24-.009-.635-.01-1.27-.01-1.904l-.008-1.205-.001-.577c.023-1.043.023-1.043-.542-1.865-.893-.14-1.273-.086-2.02.44zM10.37.297h2.325c-.32 1.655-.822 3.168-1.418 4.74-3.021 8.084-3.021 8.084-3.466 16.616H5.486l.045-.489c.435-5.995-1.562-10.953-3.832-16.413l-.251-.612-.224-.534c-.157-.491-.157-.491-.157-1.43h2.558l3.024 8.683c.576-1.455 1.134-2.892 1.631-4.373l.184-.542c.19-.562.38-1.124.568-1.685l.391-1.155.947-2.806zm17.995 7.906c.995 1.428.905 2.929.888 4.604l-.002.767c-.002.806-.008 1.612-.014 2.417l-.007 1.643c-.005 1.34-.013 2.68-.022 4.019h-2.326l-.018-.98a2390.513 2390.513 0 00-.098-5.15 833 833 0 00-.043-2.235l-.012-.705-.014-.654-.01-.577c-.02-.54-.02-.54-.27-1.198-1.125-.1-1.125-.1-2.139.322-.65.955-.56 1.884-.561 3.018l-.012.707c-.011.743-.016 1.487-.02 2.23l-.022 1.514a526.84 526.84 0 00-.037 3.708H21.3V7.807h2.326l.233.704.523-.337c1.288-.74 2.728-.87 3.983.029zm-10.437.117c1.214 1.378 1.123 2.917 1.143 4.67l.014.752c.014.789.024 1.578.035 2.367l.027 1.609c.023 1.311.042 2.623.06 3.935h-2.093l-.232-.704-.306.337c-.724.677-1.518.67-2.472.65-.921-.092-1.555-.381-2.166-1.093-.926-1.502-.842-3.354-.638-5.057.489-1.197 1.032-1.84 2.093-2.581 1.113-.43 2.07-.519 3.256-.47l-.465-2.816c-1.518-.107-2.214.115-3.489.939h-.465l-.232-2.347c1.854-.844 4.123-1.584 5.93-.19zm-3.837 6.997c-.654 1.028-.584 2.105-.465 3.285.205.74.205.74.697 1.174.749.128 1.204.082 1.902-.218.703-.806.521-1.727.482-2.76l-.013-.635a96.597 96.597 0 00-.045-1.55c-1.047-.036-1.657.138-2.558.704zM48.017 8.54c1.497 2.044 1.424 4.296 1.424 6.777H43.86l.19 1.335.106.75c.177.762.418 1.27.867 1.904.717.362 1.3.288 2.093.235.574-.193 1.083-.434 1.628-.704.427.727.616 1.269.466 2.112-1.32 1.036-2.807 1.076-4.42.939-1.264-.417-2.111-1.209-2.79-2.347-1.106-2.854-1.032-6.35-.044-9.235.572-1.283 1.355-2.179 2.675-2.719 1.28-.03 2.348.179 3.387.953zm-2.995 1.144c-.956.993-1.155 1.641-1.177 2.993l.014.762h3.024c.078-1.702.078-1.702-.465-3.285l-.465-.47h-.93zm5.349-1.877h2.326a35.01 35.01 0 011.628 4.224l.23-.566c.507-1.241 1.01-2.47 1.63-3.658h2.094c-.155 1.56-.84 2.91-1.484 4.316-.629 1.479-.686 2.39-.144 3.898l.238.667c.268.72.55 1.435.837 2.149l.576 1.452.257.64c.185.49.185.49.185.724h-2.558c-.273-.689-.544-1.378-.814-2.068l-.236-.593-.222-.57-.207-.526c-.15-.467-.15-.467-.15-1.171h-.465l-.071.465c-.21.921-.537 1.778-.873 2.659l-.199.527c-.16.426-.322.851-.484 1.277h-2.326c.331-1.21.67-2.344 1.222-3.47 1.235-2.462 1.235-2.462 1.013-5.108a23.055 23.055 0 00-.861-1.804c-.315-.616-.537-1.257-.764-1.91l-.223-.606c-.155-.479-.155-.479-.155-.948zM35.08 29.897c.818.563.99.906 1.337 1.848.094.92.081 1.832.068 2.755l-.003.8c-.003.839-.012 1.678-.021 2.517l-.01 1.71a730.53 730.53 0 01-.034 4.187h-1.395l-.004-.4a776.22 776.22 0 00-.057-4.123c-.008-.512-.014-1.024-.02-1.537-.008-.738-.02-1.476-.033-2.214l-.004-.69c-.029-1.334-.201-2.287-.812-3.475-.925-.073-1.466-.1-2.268.396-1.254 1.301-1.328 2.343-1.34 4.09l-.013.69c-.012.724-.02 1.448-.028 2.173L30.42 40.1c-.02 1.205-.035 2.409-.049 3.614h-1.627V29.867h1.395l.232 1.174.332-.249.439-.323.433-.322c1.112-.733 2.287-.676 3.506-.25zm-10.96-.001c1.282.843 1.97 1.84 2.398 3.301.65 3.255.603 6.73-1.264 9.577-1.11 1.068-1.867 1.263-3.364 1.235-.915-.095-1.328-.352-1.985-1-1.689-2.559-1.902-5.594-1.468-8.566.322-1.616.898-3.076 2.078-4.239 1.183-.722 2.308-.779 3.605-.308zm-3.457 2.244c-1.214 2.246-1.075 5.519-.59 7.96.317.959.659 1.615 1.315 2.38.807.39 1.164.36 2.005.06 1.016-.74 1.434-1.562 1.744-2.752.417-2.737.556-5.982-1.104-8.308-.626-.49-.626-.49-1.439-.616-.991.21-1.296.518-1.93 1.276zm26.452-2.273h1.396c.987 3.412 1.787 6.859 2.558 10.326h.233l.086-.382a2740.223 2740.223 0 011.228-5.38l.48-2.099.15-.665.142-.612.123-.542c.116-.411.116-.411.349-.646.387-.01.775-.01 1.163 0-.149 1.716-.485 3.343-.884 5.016l-.196.828c-.136.576-.273 1.15-.411 1.726-.21.875-.415 1.751-.62 2.628l-.401 1.683-.184.787c-1.035 4.278-1.035 4.278-2.653 5.402-.71.092-1.383.07-2.093 0V46.53h.755c.961-.252.961-.252 1.468-1.012 1.058-2.792-.93-7.26-1.621-10.03-.176-.707-.35-1.414-.524-2.12-.055-.217-.11-.433-.165-.656l-.151-.613-.134-.535c-.103-.575-.11-1.113-.094-1.696zm-3.953-.235c1.206.43 1.731.978 2.325 2.112.636 1.765.498 3.543.466 5.398h-6.047c.208 2.652.208 2.652 1.395 4.928.993.492 1.43.534 2.486.191.618-.341 1.162-.673 1.7-1.13l.466 1.409c-1.36 1.189-2.196 1.495-4.018 1.473-.901-.093-1.369-.386-2.03-1.004-1.755-2.214-1.83-5.266-1.555-7.984.258-1.83.618-3.433 2.05-4.674 1.002-.725 1.52-.802 2.762-.719zm-2.559 2.582c-.612 1.323-.697 2.255-.697 3.755h4.651c.023-1.64.023-1.64-.305-3.124l-.172-.584c-.237-.554-.45-.849-.918-1.22-1.284-.226-1.791.148-2.559 1.173z"/></g><defs><clipPath id="clip0_168_2098"><path fill="#fff" transform="translate(.834 .063)" d="M0 0h98.144v47.875H0z"/></clipPath></defs></svg>