<svg width="252" height="78" viewBox="0 0 252 78" fill="none" xmlns="http://www.w3.org/2000/svg">
<path d="M80.3732 35.2222V12.2815H89.645C89.8681 12.2815 90.1442 12.2921 90.4734 12.3133C90.8027 12.324 91.116 12.3558 91.4134 12.4089C92.6879 12.6107 93.7499 13.0462 94.5996 13.7153C95.4599 14.3844 96.1024 15.2287 96.5272 16.2483C96.9521 17.2679 97.1645 18.3937 97.1645 19.6257C97.1645 20.8683 96.9521 21.9994 96.5272 23.019C96.1024 24.0386 95.4599 24.8829 94.5996 25.552C93.7499 26.2211 92.6879 26.6566 91.4134 26.8584C91.116 26.9009 90.7974 26.9327 90.4575 26.954C90.1283 26.9752 89.8574 26.9858 89.645 26.9858H83.7028V35.2222H80.3732ZM83.7028 23.8315H89.5176C89.73 23.8315 89.9636 23.8209 90.2185 23.7996C90.4841 23.7784 90.7337 23.7412 90.9673 23.6881C91.647 23.5288 92.194 23.2367 92.6082 22.8119C93.0224 22.3764 93.3198 21.8773 93.5003 21.3144C93.6809 20.7515 93.7712 20.1886 93.7712 19.6257C93.7712 19.0628 93.6809 18.5052 93.5003 17.9529C93.3198 17.39 93.0224 16.8962 92.6082 16.4713C92.194 16.0359 91.647 15.7385 90.9673 15.5792C90.7337 15.5155 90.4841 15.473 90.2185 15.4518C89.9636 15.4305 89.73 15.4199 89.5176 15.4199H83.7028V23.8315ZM104.679 35.7001C103.405 35.7001 102.337 35.4664 101.477 34.9991C100.617 34.5212 99.9636 33.8946 99.5175 33.1193C99.0821 32.3333 98.8644 31.4731 98.8644 30.5384C98.8644 29.6675 99.0184 28.9029 99.3264 28.2444C99.6344 27.5859 100.091 27.0283 100.696 26.5716C101.302 26.1043 102.045 25.7273 102.927 25.4405C103.691 25.2175 104.557 25.021 105.524 24.8511C106.49 24.6811 107.504 24.5218 108.566 24.3731C109.639 24.2244 110.701 24.0758 111.753 23.9271L110.542 24.5962C110.563 23.2473 110.276 22.249 109.682 21.6011C109.097 20.9427 108.088 20.6134 106.655 20.6134C105.752 20.6134 104.923 20.8258 104.169 21.2507C103.415 21.6649 102.89 22.3552 102.592 23.3217L99.4857 22.3658C99.9105 20.8895 100.718 19.716 101.907 18.8451C103.107 17.9742 104.7 17.5387 106.687 17.5387C108.227 17.5387 109.565 17.8042 110.701 18.3353C111.848 18.8557 112.687 19.6841 113.218 20.8205C113.494 21.3834 113.664 21.9782 113.728 22.6048C113.792 23.2314 113.824 23.9058 113.824 24.628V35.2222H110.876V31.2872L111.45 31.797C110.738 33.114 109.83 34.0964 108.726 34.7442C107.632 35.3815 106.283 35.7001 104.679 35.7001ZM105.269 32.9759C106.214 32.9759 107.026 32.8113 107.706 32.482C108.386 32.1422 108.933 31.712 109.347 31.1916C109.761 30.6712 110.032 30.1295 110.159 29.5667C110.34 29.0569 110.441 28.4833 110.462 27.8461C110.494 27.2089 110.51 26.6991 110.51 26.3167L111.593 26.715C110.542 26.8743 109.586 27.0177 108.726 27.1451C107.865 27.2726 107.085 27.4 106.384 27.5275C105.693 27.6443 105.077 27.7877 104.536 27.9576C104.079 28.1169 103.67 28.3081 103.309 28.5311C102.959 28.7542 102.677 29.025 102.465 29.3436C102.263 29.6622 102.162 30.0499 102.162 30.5066C102.162 30.9527 102.274 31.3669 102.497 31.7492C102.72 32.1209 103.06 32.4183 103.516 32.6413C103.973 32.8644 104.557 32.9759 105.269 32.9759ZM127.806 35.2222C126.723 35.4346 125.66 35.5249 124.62 35.493C123.579 35.4611 122.649 35.2593 121.832 34.8876C121.014 34.5159 120.398 33.9318 119.984 33.1352C119.612 32.4236 119.41 31.7014 119.378 30.9686C119.357 30.2251 119.346 29.3861 119.346 28.4515V13.2373H122.692V28.2922C122.692 28.9825 122.697 29.5826 122.708 30.0924C122.729 30.6022 122.841 31.0323 123.042 31.3828C123.425 32.0413 124.03 32.4183 124.859 32.5139C125.698 32.5989 126.68 32.5617 127.806 32.4024V35.2222ZM116.049 20.6931V18.0167H127.806V20.6931H116.049ZM131.433 35.2222V18.0167H134.397V22.1906L133.982 21.6489C134.195 21.0967 134.471 20.5922 134.811 20.1355C135.151 19.6682 135.544 19.2858 135.99 18.9884C136.425 18.6698 136.908 18.4255 137.439 18.2556C137.981 18.0751 138.533 17.9689 139.096 17.937C139.659 17.8945 140.201 17.9211 140.721 18.0167V21.1391C140.158 20.9904 139.532 20.948 138.841 21.0117C138.162 21.0754 137.535 21.2931 136.961 21.6649C136.42 22.0153 135.99 22.4402 135.671 22.9393C135.363 23.4385 135.14 23.9961 135.002 24.6121C134.864 25.2175 134.795 25.86 134.795 26.5398V35.2222H131.433ZM150.916 35.7001C149.195 35.7001 147.703 35.3124 146.439 34.5371C145.175 33.7618 144.198 32.6944 143.508 31.335C142.828 29.9649 142.488 28.3878 142.488 26.6035C142.488 24.8086 142.839 23.2314 143.539 21.872C144.24 20.5019 145.223 19.4398 146.487 18.6858C147.751 17.9211 149.227 17.5387 150.916 17.5387C152.636 17.5387 154.128 17.9264 155.392 18.7017C156.656 19.477 157.633 20.5444 158.323 21.9038C159.014 23.2633 159.359 24.8298 159.359 26.6035C159.359 28.3984 159.009 29.9809 158.308 31.3509C157.617 32.7104 156.64 33.7778 155.376 34.5531C154.112 35.3178 152.625 35.7001 150.916 35.7001ZM150.916 32.5617C152.562 32.5617 153.788 32.0094 154.596 30.9049C155.413 29.7897 155.822 28.3559 155.822 26.6035C155.822 24.8086 155.408 23.3748 154.58 22.3021C153.762 21.2188 152.541 20.6771 150.916 20.6771C149.8 20.6771 148.882 20.932 148.159 21.4418C147.437 21.941 146.901 22.6367 146.55 23.5288C146.2 24.4103 146.025 25.4352 146.025 26.6035C146.025 28.409 146.439 29.8534 147.267 30.9367C148.096 32.02 149.312 32.5617 150.916 32.5617ZM174.936 35.2222V26.7628C174.936 26.0937 174.877 25.4087 174.76 24.7077C174.654 23.9961 174.442 23.3376 174.123 22.7322C173.815 22.1269 173.374 21.6383 172.801 21.2666C172.238 20.8949 171.5 20.709 170.586 20.709C169.992 20.709 169.429 20.8099 168.898 21.0117C168.367 21.2029 167.899 21.5162 167.496 21.9516C167.103 22.3871 166.789 22.9606 166.556 23.6722C166.333 24.3838 166.221 25.2493 166.221 26.2689L164.15 25.4883C164.15 23.9271 164.442 22.5517 165.026 21.3622C165.611 20.162 166.45 19.2274 167.544 18.5583C168.637 17.8892 169.96 17.5546 171.51 17.5546C172.7 17.5546 173.698 17.7458 174.505 18.1282C175.313 18.5105 175.966 19.015 176.465 19.6416C176.975 20.2576 177.362 20.932 177.628 21.6649C177.893 22.3977 178.074 23.1146 178.17 23.8155C178.265 24.5165 178.313 25.1325 178.313 25.6635V35.2222H174.936ZM162.844 35.2222V18.0167H165.823V22.9871H166.221V35.2222H162.844ZM188.946 35.6842C187.757 35.6842 186.759 35.493 185.951 35.1107C185.144 34.7283 184.486 34.2291 183.976 33.6131C183.477 32.9865 183.094 32.3068 182.829 31.574C182.563 30.8411 182.383 30.1242 182.287 29.4233C182.192 28.7223 182.144 28.1063 182.144 27.5753V18.0167H185.521V26.476C185.521 27.1451 185.574 27.8355 185.681 28.5471C185.797 29.248 186.01 29.9012 186.318 30.5066C186.636 31.112 187.077 31.6005 187.64 31.9722C188.214 32.344 188.957 32.5298 189.87 32.5298C190.465 32.5298 191.028 32.4342 191.559 32.2431C192.09 32.0413 192.552 31.7227 192.945 31.2872C193.349 30.8518 193.662 30.2782 193.885 29.5667C194.119 28.8551 194.236 27.9895 194.236 26.9699L196.307 27.7505C196.307 29.3118 196.014 30.6924 195.43 31.8926C194.846 33.0821 194.007 34.0114 192.913 34.6805C191.819 35.3496 190.497 35.6842 188.946 35.6842ZM194.634 35.2222V30.2517H194.236V18.0167H197.597V35.2222H194.634ZM208.645 35.6842C206.552 35.6842 204.848 35.2222 203.531 34.2982C202.214 33.3742 201.407 32.0731 201.109 30.3951L204.518 29.8693C204.731 30.7615 205.219 31.4678 205.984 31.9882C206.759 32.498 207.721 32.7529 208.868 32.7529C209.908 32.7529 210.721 32.5404 211.305 32.1156C211.9 31.6908 212.197 31.1067 212.197 30.3632C212.197 29.9278 212.091 29.5773 211.879 29.3118C211.677 29.0356 211.247 28.7754 210.588 28.5311C209.93 28.2869 208.926 27.9842 207.577 27.6231C206.101 27.2407 204.927 26.8318 204.056 26.3964C203.196 25.9503 202.58 25.4352 202.208 24.8511C201.847 24.2563 201.667 23.5394 201.667 22.7004C201.667 21.6595 201.943 20.7515 202.495 19.9762C203.048 19.2009 203.823 18.6008 204.821 18.176C205.83 17.7511 207.009 17.5387 208.358 17.5387C209.675 17.5387 210.848 17.7458 211.879 18.16C212.909 18.5742 213.743 19.1637 214.38 19.9284C215.017 20.6824 215.399 21.5693 215.527 22.5889L212.118 23.2102C212.001 22.3818 211.613 21.7286 210.955 21.2507C210.296 20.7727 209.441 20.5125 208.39 20.47C207.381 20.4275 206.563 20.5975 205.936 20.9798C205.31 21.3515 204.996 21.8667 204.996 22.5251C204.996 22.9075 205.113 23.2314 205.347 23.4969C205.591 23.7624 206.058 24.0173 206.749 24.2616C207.439 24.5059 208.459 24.798 209.808 25.1378C211.252 25.5095 212.399 25.9238 213.249 26.3804C214.098 26.8265 214.704 27.3629 215.065 27.9895C215.437 28.6055 215.622 29.3542 215.622 30.2358C215.622 31.9351 215.001 33.268 213.758 34.2344C212.526 35.2009 210.822 35.6842 208.645 35.6842ZM80.6918 67.2222V44.2815H84.0214V67.2222H80.6918ZM100.881 67.2222V58.7628C100.881 58.0937 100.823 57.4087 100.706 56.7077C100.6 55.9961 100.387 55.3376 100.069 54.7322C99.7607 54.1269 99.3199 53.6383 98.7464 53.2666C98.1835 52.8949 97.4453 52.709 96.532 52.709C95.9372 52.709 95.3743 52.8099 94.8433 53.0117C94.3122 53.2029 93.8449 53.5162 93.4413 53.9516C93.0484 54.3871 92.7351 54.9606 92.5014 55.6722C92.2784 56.3838 92.1669 57.2493 92.1669 58.2689L90.0958 57.4883C90.0958 55.9271 90.3879 54.5517 90.972 53.3622C91.5562 52.162 92.3952 51.2274 93.4891 50.5583C94.5831 49.8892 95.9053 49.5546 97.456 49.5546C98.6455 49.5546 99.6438 49.7458 100.451 50.1282C101.258 50.5105 101.911 51.015 102.411 51.6416C102.92 52.2576 103.308 52.932 103.573 53.6649C103.839 54.3977 104.02 55.1146 104.115 55.8155C104.211 56.5165 104.259 57.1325 104.259 57.6635V67.2222H100.881ZM88.7895 67.2222V50.0167H91.7686V54.9871H92.1669V67.2222H88.7895ZM113.06 67.2222L106.815 50.0167H110.176L114.749 63.0482L119.321 50.0167H122.682L116.437 67.2222H113.06ZM132.561 67.7001C130.851 67.7001 129.348 67.3284 128.053 66.5849C126.768 65.8309 125.764 64.7847 125.042 63.4465C124.33 62.0977 123.974 60.5364 123.974 58.7628C123.974 56.8829 124.325 55.2527 125.026 53.872C125.737 52.4913 126.725 51.4239 127.989 50.6698C129.253 49.9158 130.724 49.5387 132.402 49.5387C134.154 49.5387 135.647 49.9476 136.879 50.7654C138.111 51.5726 139.029 52.7249 139.635 54.2224C140.251 55.72 140.495 57.4989 140.367 59.5593H137.038V58.3486C137.017 56.3519 136.634 54.8756 135.891 53.9198C135.158 52.9639 134.038 52.486 132.529 52.486C130.862 52.486 129.609 53.0117 128.77 54.0631C127.931 55.1146 127.511 56.6333 127.511 58.6194C127.511 60.5099 127.931 61.9755 128.77 63.0164C129.609 64.0466 130.819 64.5617 132.402 64.5617C133.443 64.5617 134.34 64.328 135.094 63.8607C135.859 63.3828 136.454 62.7031 136.879 61.8215L140.144 62.8571C139.475 64.3971 138.461 65.5919 137.102 66.4415C135.742 67.2806 134.229 67.7001 132.561 67.7001ZM126.428 59.5593V56.9626H138.711V59.5593H126.428ZM150.521 67.6842C148.429 67.6842 146.724 67.2222 145.407 66.2982C144.09 65.3742 143.283 64.0731 142.986 62.3951L146.395 61.8693C146.608 62.7615 147.096 63.4678 147.861 63.9882C148.636 64.498 149.597 64.7529 150.744 64.7529C151.785 64.7529 152.598 64.5404 153.182 64.1156C153.776 63.6908 154.074 63.1067 154.074 62.3632C154.074 61.9278 153.968 61.5773 153.755 61.3118C153.553 61.0356 153.123 60.7754 152.465 60.5311C151.806 60.2869 150.803 59.9842 149.454 59.6231C147.978 59.2407 146.804 58.8318 145.933 58.3964C145.073 57.9503 144.457 57.4352 144.085 56.8511C143.724 56.2563 143.543 55.5394 143.543 54.7004C143.543 53.6595 143.82 52.7515 144.372 51.9762C144.924 51.2009 145.699 50.6008 146.698 50.176C147.707 49.7511 148.886 49.5387 150.234 49.5387C151.551 49.5387 152.725 49.7458 153.755 50.16C154.785 50.5742 155.619 51.1637 156.256 51.9284C156.894 52.6824 157.276 53.5693 157.403 54.5889L153.994 55.2102C153.877 54.3818 153.49 53.7286 152.831 53.2507C152.173 52.7727 151.318 52.5125 150.266 52.47C149.257 52.4275 148.44 52.5975 147.813 52.9798C147.186 53.3515 146.873 53.8667 146.873 54.5251C146.873 54.9075 146.99 55.2314 147.224 55.4969C147.468 55.7624 147.935 56.0173 148.625 56.2616C149.316 56.5059 150.335 56.798 151.684 57.1378C153.129 57.5095 154.276 57.9238 155.125 58.3804C155.975 58.8265 156.58 59.3629 156.941 59.9895C157.313 60.6055 157.499 61.3542 157.499 62.2358C157.499 63.9351 156.878 65.268 155.635 66.2344C154.403 67.2009 152.698 67.6842 150.521 67.6842ZM170.869 67.2222C169.786 67.4346 168.724 67.5249 167.683 67.493C166.642 67.4611 165.713 67.2593 164.895 66.8876C164.077 66.5159 163.461 65.9318 163.047 65.1352C162.676 64.4236 162.474 63.7014 162.442 62.9686C162.421 62.2251 162.41 61.3861 162.41 60.4515V45.2373H165.756V60.2922C165.756 60.9825 165.761 61.5826 165.771 62.0924C165.793 62.6022 165.904 63.0323 166.106 63.3828C166.488 64.0413 167.094 64.4183 167.922 64.5139C168.761 64.5989 169.744 64.5617 170.869 64.4024V67.2222ZM159.112 52.6931V50.0167H170.869V52.6931H159.112ZM195.112 67.2222L195.128 56.5006C195.128 55.258 194.809 54.2915 194.172 53.6011C193.535 52.9002 192.696 52.5497 191.655 52.5497C191.017 52.5497 190.433 52.6984 189.902 52.9958C189.382 53.2825 188.957 53.718 188.628 54.3021C188.309 54.8756 188.15 55.5978 188.15 56.4687L186.541 55.6562C186.52 54.4455 186.774 53.3834 187.306 52.47C187.847 51.5566 188.58 50.8504 189.504 50.3512C190.428 49.8414 191.464 49.5865 192.611 49.5865C194.469 49.5865 195.908 50.1441 196.928 51.2593C197.947 52.3744 198.457 53.856 198.457 55.704L198.441 67.2222H195.112ZM174.481 67.2222V50.0167H177.444V54.9871H177.827V67.2222H174.481ZM184.804 67.2222L184.82 56.5643C184.82 55.3111 184.502 54.3287 183.864 53.6171C183.238 52.9055 182.393 52.5497 181.331 52.5497C180.28 52.5497 179.43 52.9108 178.782 53.633C178.145 54.3552 177.827 55.3004 177.827 56.4687L176.233 55.4491C176.233 54.3233 176.504 53.3197 177.046 52.4382C177.588 51.5567 178.32 50.861 179.244 50.3512C180.168 49.8414 181.215 49.5865 182.383 49.5865C183.604 49.5865 184.645 49.8467 185.505 50.3671C186.366 50.8769 187.019 51.5938 187.465 52.5178C187.922 53.4418 188.15 54.5145 188.15 55.7359L188.134 67.2222H184.804ZM210.007 67.7001C208.297 67.7001 206.794 67.3284 205.499 66.5849C204.214 65.8309 203.21 64.7847 202.488 63.4465C201.776 62.0977 201.42 60.5364 201.42 58.7628C201.42 56.8829 201.771 55.2527 202.472 53.872C203.183 52.4913 204.171 51.4239 205.435 50.6698C206.699 49.9158 208.17 49.5387 209.848 49.5387C211.6 49.5387 213.093 49.9476 214.325 50.7654C215.557 51.5726 216.475 52.7249 217.081 54.2224C217.697 55.72 217.941 57.4989 217.813 59.5593H214.484V58.3486C214.463 56.3519 214.08 54.8756 213.337 53.9198C212.604 52.9639 211.484 52.486 209.975 52.486C208.308 52.486 207.055 53.0117 206.216 54.0631C205.377 55.1146 204.957 56.6333 204.957 58.6194C204.957 60.5099 205.377 61.9755 206.216 63.0164C207.055 64.0466 208.265 64.5617 209.848 64.5617C210.889 64.5617 211.786 64.328 212.54 63.8607C213.305 63.3828 213.9 62.7031 214.325 61.8215L217.59 62.8571C216.921 64.3971 215.907 65.5919 214.548 66.4415C213.188 67.2806 211.675 67.7001 210.007 67.7001ZM203.874 59.5593V56.9626H216.157V59.5593H203.874ZM232.997 67.2222V58.7628C232.997 58.0937 232.938 57.4087 232.821 56.7077C232.715 55.9961 232.503 55.3376 232.184 54.7322C231.876 54.1269 231.435 53.6383 230.862 53.2666C230.299 52.8949 229.561 52.709 228.648 52.709C228.053 52.709 227.49 52.8099 226.959 53.0117C226.428 53.2029 225.961 53.5162 225.557 53.9516C225.164 54.3871 224.851 54.9606 224.617 55.6722C224.394 56.3838 224.282 57.2493 224.282 58.2689L222.211 57.4883C222.211 55.9271 222.503 54.5517 223.088 53.3622C223.672 52.162 224.511 51.2274 225.605 50.5583C226.699 49.8892 228.021 49.5546 229.572 49.5546C230.761 49.5546 231.759 49.7458 232.567 50.1282C233.374 50.5105 234.027 51.015 234.526 51.6416C235.036 52.2576 235.424 52.932 235.689 53.6649C235.955 54.3977 236.135 55.1146 236.231 55.8155C236.326 56.5165 236.374 57.1325 236.374 57.6635V67.2222H232.997ZM220.905 67.2222V50.0167H223.884V54.9871H224.282V67.2222H220.905ZM250.369 67.2222C249.286 67.4346 248.224 67.5249 247.183 67.493C246.142 67.4611 245.213 67.2593 244.395 66.8876C243.577 66.5159 242.961 65.9318 242.547 65.1352C242.175 64.4236 241.973 63.7014 241.941 62.9686C241.92 62.2251 241.91 61.3861 241.91 60.4515V45.2373H245.255V60.2922C245.255 60.9825 245.26 61.5826 245.271 62.0924C245.292 62.6022 245.404 63.0323 245.606 63.3828C245.988 64.0413 246.593 64.4183 247.422 64.5139C248.261 64.5989 249.243 64.5617 250.369 64.4024V67.2222ZM238.612 52.6931V50.0167H250.369V52.6931H238.612Z" fill="#EFEFEF"/>
<path d="M60.5221 17.9982C46.6751 4.33001 24.2322 4.33001 10.3852 17.9982C-3.46174 31.6665 -3.46174 53.8198 10.3852 67.488C24.2322 81.1562 46.6751 81.1562 60.5221 67.488C74.369 53.8198 74.369 31.6665 60.5221 17.9982ZM55.2487 62.2771C51.6843 65.7954 47.4004 68.1595 42.8634 69.3859C42.6611 69.4414 42.453 69.4913 42.245 69.5468C42.0426 69.5967 41.8346 69.6467 41.621 69.6855C41.4973 69.7188 41.3736 69.7466 41.2443 69.7688C41.115 69.7965 40.9801 69.8298 40.8451 69.852C40.6034 69.8964 40.356 69.9408 40.1143 69.9852L39.4734 70.0851C31.0404 71.2838 22.1577 68.6811 15.6643 62.2771C10.6944 57.3769 7.98462 51.0894 7.53486 44.6688C7.51238 44.3968 7.50114 44.1194 7.4899 43.8474V43.8197C7.47303 43.3258 7.46741 42.8208 7.47303 42.3214C7.51238 39.3302 8.04646 36.3446 9.08091 33.4867C10.4246 29.7353 12.6228 26.2114 15.6643 23.2091C24.0017 14.9794 36.2913 13.026 46.5065 17.3545C48.9239 18.3756 51.2177 19.7463 53.326 21.4777C53.9893 22.016 54.6246 22.5932 55.2487 23.2091C58.4195 26.3335 60.6683 30.0238 61.9951 33.9528C62.9339 36.7331 63.4174 39.6354 63.4455 42.5322C63.4961 49.6743 60.7638 56.8331 55.2487 62.2771Z" fill="#5F5AA2"/>
<g opacity="0.5">
<path d="M60.5221 18.2595C46.6751 4.59125 24.2322 4.59125 10.3852 18.2595C-3.46174 31.9277 -3.46174 54.081 10.3852 67.7492C24.2322 81.4174 46.6751 81.4174 60.5221 67.7492C74.369 54.081 74.369 31.9277 60.5221 18.2595ZM55.2487 62.5383C51.6843 66.0566 47.4004 68.4207 42.8634 69.6471C42.6611 69.7026 42.453 69.7525 42.245 69.808C42.0426 69.858 41.8346 69.9079 41.621 69.9468C41.4973 69.9801 41.3736 70.0078 41.2443 70.03C41.115 70.0578 40.9801 70.0911 40.8451 70.1133C40.6034 70.1576 40.356 70.202 40.1143 70.2464L39.4734 70.3463C31.0404 71.545 22.1577 68.9423 15.6643 62.5383C10.6944 57.6382 7.98462 51.3507 7.53486 44.93C7.51238 44.6581 7.50114 44.3806 7.4899 44.1087V44.0809C7.47303 43.587 7.46741 43.082 7.47303 42.5826C7.51238 39.5914 8.04646 36.6059 9.08091 33.7479C10.4246 29.9965 12.6228 26.4726 15.6643 23.4704C24.0017 15.2406 36.2913 13.2872 46.5065 17.6157C48.9239 18.6368 51.2177 20.0075 53.326 21.739C53.9893 22.2773 54.6246 22.8544 55.2487 23.4704C58.4195 26.5947 60.6683 30.2851 61.9951 34.2141C62.9339 36.9943 63.4174 39.8967 63.4455 42.7935C63.4961 49.9356 60.7638 57.0943 55.2487 62.5383Z" fill="#5F5AA2"/>
</g>
<path d="M21.5544 37.4775V57.5892C17.2654 55.6086 13.5139 51.81 12.0212 45.5575V37.4775H21.5544Z" fill="#337FC6"/>
<path d="M33.5686 30.1577V58.967C33.0649 59.0674 32.551 59.149 32.0226 59.2112C31.2518 59.3022 30.4619 59.3499 29.672 59.3499C27.8449 59.3499 25.921 59.0918 24.0354 58.5269V30.1577H33.5686Z" fill="#337FC6"/>
<path d="M45.5879 23.0825V48.6431C44.2746 53.1115 40.8289 56.6182 36.0547 58.283V23.0825H45.5879Z" fill="#337FC6"/>
<path d="M62.2564 14.1758V42.323C62.2564 42.8458 62.2424 43.3691 62.2058 43.8874C61.837 50.0816 59.2526 56.1716 54.4655 60.8969C51.0788 64.2399 47.0062 66.4907 42.6936 67.655C42.5002 67.7049 42.3017 67.7549 42.1038 67.8048C41.9104 67.8548 41.712 67.9003 41.5141 67.9413C41.3943 67.9685 41.2746 67.9957 41.1548 68.0185C41.0306 68.0457 40.9013 68.0729 40.7725 68.0956C40.542 68.1411 40.307 68.1822 40.0771 68.2233L39.4688 68.3187C38.847 68.4097 38.2202 68.4735 37.5888 68.519C37.3859 68.5329 37.1835 68.5462 36.976 68.5507C36.239 68.5917 35.4969 68.5962 34.7598 68.569C34.5063 68.5601 34.2527 68.5507 33.9997 68.5329C27.752 68.1555 21.6151 65.6134 16.8369 60.8969C12.1094 56.2354 9.53397 50.2592 9.10557 44.156C9.08702 43.8968 9.07352 43.6332 9.06396 43.3735V43.3508C9.08252 42.9462 9.11007 42.5411 9.14661 42.1271C10.4779 57.3764 22.6602 62.6428 32.3036 61.4652C41.6844 60.3553 48.8075 53.5062 48.4662 43.8874C48.4662 43.8102 48.4617 43.7326 48.4572 43.651V14.1758H62.2564Z" fill="#337FC6"/>
<path d="M69.7465 19.9885H40.6162L55.1788 0L69.7465 19.9885Z" fill="#337FC6"/>
<path d="M68.5868 19.1918H62.2564V42.3228C62.2564 42.8456 62.2424 43.3689 62.2058 43.8872C61.837 50.0815 59.2526 56.1714 54.4655 60.8968C51.0788 64.2397 47.0062 66.4906 42.6936 67.6548C42.5002 67.7048 42.3017 67.7547 42.1039 67.8047C41.9105 67.8546 41.712 67.9001 41.5141 67.9412C41.3944 67.9684 41.2746 67.9956 41.1549 68.0183C41.0306 68.0455 40.9013 68.0727 40.7726 68.0955C40.5421 68.141 40.3071 68.182 40.0771 68.2231L39.4688 68.3185C38.847 68.4096 38.2202 68.4734 37.5888 68.5189C37.3859 68.5328 37.1835 68.5461 36.976 68.5505C36.239 68.5916 35.4969 68.596 34.7599 68.5688C34.5063 68.5599 34.2527 68.5505 33.9998 68.5328C34.7093 68.4917 35.4232 68.419 36.1282 68.3191L36.7365 68.2237C36.967 68.1826 37.202 68.1415 37.4326 68.096C37.5613 68.0733 37.6906 68.0461 37.8148 68.0189C37.9346 67.9961 38.0543 67.9689 38.1741 67.9417C38.372 67.9007 38.5704 67.8552 38.7638 67.8052C38.9617 67.7553 39.1602 67.7053 39.3536 67.6554C43.6662 66.4911 47.7393 64.2397 51.1255 60.8973C55.9126 56.172 58.4976 50.082 58.8658 43.8878C58.9024 43.3695 58.9164 42.8462 58.9164 42.3234L58.9074 19.1923L58.7185 5.65283L68.5868 19.1918Z" fill="#337FC6"/>
<path d="M48.4573 43.6514C48.4618 43.734 48.4663 43.8117 48.4663 43.8893H48.4573V43.6514Z" fill="#FFEC00"/>
<path d="M62.2564 42.3232V43.8876H62.2058C62.2423 43.3693 62.2564 42.8466 62.2564 42.3232Z" fill="#FFEC00"/>
</svg>
