<svg width="598" height="598" viewBox="0 0 598 598" fill="none" xmlns="http://www.w3.org/2000/svg">
<path d="M298.396 568.912L296.687 592.159L287.291 591.47C287.065 591.453 286.786 591.422 286.454 591.376C286.121 591.341 285.806 591.285 285.509 591.209C284.232 590.91 283.189 590.39 282.377 589.649C281.555 588.907 280.967 588.003 280.613 586.938C280.258 585.874 280.127 584.717 280.218 583.468C280.311 582.209 280.61 581.079 281.117 580.077C281.623 579.076 282.337 578.268 283.259 577.654C284.17 577.039 285.278 576.676 286.585 576.567C286.889 576.546 287.215 576.537 287.561 576.541C287.896 576.544 288.171 576.553 288.386 576.569L294.408 577.011L295.021 568.664L298.396 568.912ZM294.173 580.207L288.281 579.775C288.065 579.759 287.828 579.753 287.568 579.755C287.297 579.757 287.042 579.776 286.801 579.813C286.1 579.923 285.524 580.179 285.073 580.578C284.621 580.989 284.282 581.473 284.057 582.03C283.832 582.587 283.699 583.15 283.657 583.721C283.615 584.291 283.665 584.863 283.807 585.436C283.948 586.02 284.213 586.542 284.601 587.004C284.988 587.476 285.52 587.818 286.197 588.03C286.429 588.112 286.679 588.173 286.946 588.215C287.203 588.255 287.439 588.283 287.654 588.299L293.547 588.731L294.173 580.207Z" fill="#EFEFEF"/>
<path d="M272.428 566.718C273.709 566.902 274.749 567.291 275.547 567.885C276.343 568.49 276.91 569.214 277.247 570.058C277.571 570.911 277.666 571.808 277.531 572.748C277.405 573.624 277.14 574.371 276.735 574.989C276.33 575.607 275.79 576.102 275.115 576.474C274.439 576.856 273.637 577.128 272.708 577.29C271.907 577.404 271.008 577.476 270.012 577.508C269.015 577.54 267.972 577.553 266.882 577.55C265.782 577.545 264.692 577.541 263.613 577.539L264.927 577.041C264.711 578.394 264.855 579.44 265.36 580.177C265.852 580.924 266.82 581.4 268.262 581.607C269.17 581.737 270.034 581.643 270.854 581.324C271.672 581.017 272.3 580.398 272.739 579.469L275.726 580.878C275.085 582.302 274.104 583.366 272.781 584.07C271.449 584.773 269.783 584.981 267.786 584.695C266.237 584.473 264.929 584.013 263.863 583.315C262.784 582.626 262.06 581.672 261.69 580.452C261.494 579.846 261.409 579.223 261.435 578.584C261.461 577.945 261.527 577.262 261.631 576.535L263.161 565.88L266.125 566.305L265.557 570.263L265.054 569.667C265.96 568.445 267.015 567.588 268.22 567.096C269.412 566.613 270.815 566.487 272.428 566.718ZM271.441 569.373C270.491 569.237 269.65 569.285 268.918 569.518C268.186 569.762 267.573 570.116 267.082 570.579C266.59 571.043 266.239 571.549 266.03 572.097C265.774 572.583 265.59 573.146 265.477 573.783C265.353 574.42 265.263 574.93 265.208 575.315L264.176 574.758C265.256 574.749 266.238 574.743 267.122 574.739C268.006 574.735 268.809 574.719 269.533 574.692C270.244 574.674 270.884 574.619 271.454 574.526C271.936 574.432 272.375 574.298 272.77 574.126C273.155 573.952 273.477 573.72 273.737 573.431C273.986 573.139 274.143 572.764 274.209 572.305C274.274 571.856 274.221 571.423 274.052 571.006C273.882 570.6 273.583 570.252 273.156 569.962C272.728 569.672 272.157 569.476 271.441 569.373Z" fill="#EFEFEF"/>
<path d="M249.232 563.655C250.354 563.654 251.431 563.77 252.463 564.004C253.495 564.237 254.382 564.619 255.126 565.148C255.869 565.678 256.37 566.38 256.628 567.255C256.861 568.037 256.922 568.796 256.811 569.533C256.688 570.279 256.535 571.118 256.354 572.05L253.397 587.223L250.06 586.574L252.986 571.559C253.12 570.871 253.231 570.271 253.32 569.761C253.398 569.248 253.37 568.798 253.237 568.409C252.984 567.678 252.453 567.185 251.645 566.928C250.825 566.681 249.838 566.527 248.684 566.468L249.232 563.655ZM258.135 580.427L257.615 583.097L245.889 580.815L246.409 578.146L258.135 580.427Z" fill="#EFEFEF"/>
<path d="M244.906 563.038L240.716 580.011L237.792 579.291L238.809 575.173L239.086 575.808C238.741 576.301 238.346 576.732 237.9 577.1C237.451 577.478 236.97 577.76 236.457 577.944C235.95 578.153 235.414 578.276 234.849 578.315C234.27 578.361 233.7 578.332 233.136 578.226C232.571 578.131 232.043 577.973 231.553 577.752L232.313 574.672C232.832 574.956 233.44 575.15 234.137 575.255C234.823 575.357 235.494 575.295 236.15 575.068C236.77 574.854 237.298 574.539 237.734 574.124C238.159 573.707 238.515 573.211 238.801 572.637C239.085 572.073 239.309 571.456 239.475 570.786L241.589 562.221L244.906 563.038Z" fill="#EFEFEF"/>
<path d="M226.096 558.036C227.757 558.582 229.075 559.429 230.049 560.578C231.023 561.727 231.627 563.067 231.862 564.599C232.083 566.137 231.91 567.767 231.344 569.489C230.774 571.221 229.935 572.632 228.826 573.722C227.715 574.822 226.429 575.536 224.97 575.863C223.507 576.2 221.96 576.101 220.33 575.566C218.669 575.02 217.352 574.173 216.378 573.024C215.404 571.875 214.799 570.535 214.565 569.004C214.33 567.473 214.494 565.851 215.057 564.139C215.627 562.407 216.468 560.99 217.58 559.89C218.678 558.797 219.96 558.077 221.426 557.729C222.889 557.392 224.446 557.494 226.096 558.036ZM225.1 561.066C223.511 560.544 222.151 560.688 221.021 561.498C219.878 562.315 219.028 563.569 218.471 565.261C217.901 566.993 217.846 568.508 218.305 569.806C218.751 571.111 219.758 572.021 221.326 572.537C222.403 572.89 223.371 572.936 224.23 572.673C225.085 572.42 225.824 571.918 226.446 571.168C227.064 570.429 227.559 569.495 227.929 568.367C228.503 566.625 228.562 565.099 228.106 563.791C227.65 562.482 226.648 561.574 225.1 561.066Z" fill="#EFEFEF"/>
<path d="M201.67 550.254L198.35 558.182C198.087 558.809 197.873 559.474 197.707 560.177C197.527 560.885 197.468 561.586 197.529 562.278C197.58 562.966 197.801 563.597 198.193 564.17C198.575 564.739 199.194 565.203 200.05 565.561C200.608 565.794 201.175 565.92 201.752 565.939C202.325 565.968 202.886 565.858 203.435 565.608C203.974 565.354 204.493 564.939 204.992 564.364C205.48 563.785 205.924 563.017 206.325 562.062L207.959 563.605C207.347 565.068 206.533 566.243 205.518 567.129C204.5 568.024 203.346 568.571 202.058 568.77C200.77 568.968 199.399 568.763 197.946 568.155C196.831 567.689 195.97 567.118 195.363 566.443C194.757 565.768 194.342 565.039 194.12 564.256C193.884 563.479 193.786 562.695 193.825 561.904C193.863 561.113 193.975 560.371 194.161 559.676C194.347 558.982 194.544 558.386 194.752 557.888L198.505 548.93L201.67 550.254ZM213.005 554.995L206.251 571.12L203.458 569.952L205.41 565.294L205.036 565.137L209.839 553.671L213.005 554.995Z" fill="#EFEFEF"/>
<path d="M188.302 544.366C189.379 544.914 190.195 545.547 190.75 546.265C191.305 546.983 191.671 547.738 191.849 548.531C192.012 549.328 192.045 550.119 191.947 550.905C191.85 551.691 191.683 552.423 191.446 553.102C191.209 553.781 190.968 554.36 190.723 554.841L186.315 563.496L183.256 561.94L187.158 554.281C187.466 553.675 187.736 553.025 187.968 552.332C188.186 551.644 188.295 550.954 188.295 550.264C188.286 549.57 188.112 548.924 187.773 548.328C187.425 547.728 186.838 547.217 186.011 546.796C185.472 546.522 184.918 546.349 184.349 546.278C183.775 546.216 183.21 546.292 182.653 546.505C182.086 546.713 181.538 547.088 181.008 547.63C180.468 548.166 179.963 548.896 179.493 549.819L177.977 548.159C178.697 546.745 179.599 545.629 180.681 544.812C181.759 544.004 182.947 543.549 184.247 543.447C185.546 543.345 186.898 543.651 188.302 544.366ZM182.938 542.164L180.646 546.665L181.007 546.848L175.364 557.926L172.32 556.377L180.254 540.799L182.938 542.164Z" fill="#EFEFEF"/>
<path d="M169.414 534.827C171.237 535.921 172.48 537.215 173.144 538.709C173.808 540.202 173.83 541.757 173.21 543.374L169.965 542.049C170.247 541.161 170.191 540.29 169.797 539.437C169.389 538.588 168.685 537.863 167.686 537.263C166.779 536.719 165.96 536.479 165.228 536.544C164.488 536.603 163.923 536.956 163.534 537.603C163.306 537.982 163.215 538.343 163.261 538.685C163.292 539.031 163.531 539.483 163.976 540.04C164.422 540.597 165.138 541.386 166.124 542.405C167.21 543.51 168.019 544.48 168.549 545.315C169.065 546.153 169.332 546.924 169.35 547.627C169.353 548.334 169.135 549.053 168.696 549.783C168.151 550.69 167.435 551.336 166.548 551.722C165.661 552.109 164.672 552.226 163.58 552.074C162.478 551.916 161.34 551.485 160.165 550.779C159.018 550.091 158.104 549.296 157.423 548.397C156.742 547.498 156.324 546.548 156.17 545.549C156.009 544.559 156.14 543.587 156.563 542.632L159.859 543.874C159.527 544.657 159.522 545.428 159.846 546.189C160.169 546.949 160.778 547.623 161.672 548.21C162.528 548.774 163.33 549.054 164.076 549.049C164.816 549.053 165.359 548.768 165.704 548.195C165.904 547.862 165.972 547.519 165.907 547.165C165.833 546.806 165.56 546.34 165.086 545.766C164.613 545.192 163.877 544.405 162.88 543.403C161.816 542.324 161.034 541.364 160.533 540.522C160.026 539.689 159.779 538.905 159.793 538.171C159.792 537.44 160.022 536.691 160.483 535.923C161.373 534.443 162.612 533.607 164.2 533.415C165.78 533.218 167.518 533.689 169.414 534.827Z" fill="#EFEFEF"/>
<path d="M151.696 524.611L138.465 543.802L135.678 541.883L148.91 522.693L151.696 524.611Z" fill="#EFEFEF"/>
<path d="M134.921 512.732L129.514 519.414C129.086 519.942 128.694 520.521 128.339 521.149C127.968 521.779 127.715 522.435 127.58 523.116C127.436 523.791 127.472 524.459 127.688 525.119C127.895 525.772 128.36 526.39 129.082 526.973C129.552 527.353 130.061 527.633 130.61 527.812C131.152 528 131.721 528.051 132.319 527.965C132.908 527.872 133.522 527.619 134.161 527.206C134.792 526.787 135.434 526.174 136.085 525.369L137.223 527.308C136.226 528.541 135.116 529.441 133.894 530.008C132.665 530.583 131.404 530.785 130.112 530.615C128.82 530.445 127.561 529.865 126.335 528.875C125.395 528.115 124.728 527.326 124.335 526.509C123.941 525.692 123.748 524.876 123.754 524.062C123.744 523.25 123.869 522.47 124.128 521.721C124.386 520.973 124.702 520.291 125.074 519.677C125.447 519.062 125.803 518.545 126.142 518.125L132.251 510.575L134.921 512.732ZM144.477 520.453L133.48 534.044L131.126 532.142L134.303 528.215L133.988 527.961L141.808 518.297L144.477 520.453Z" fill="#EFEFEF"/>
<path d="M124.357 504.444L117.096 521.561L114.594 519.237L120.21 506.38L107.787 512.912L105.285 510.587L121.843 502.108L124.357 504.444Z" fill="#EFEFEF"/>
<path d="M108.99 489.563C110.174 490.835 110.937 492.21 111.281 493.688C111.609 495.166 111.525 496.636 111.029 498.099C110.517 499.561 109.601 500.906 108.281 502.132C106.882 503.432 105.426 504.299 103.913 504.733C102.393 505.158 100.914 505.162 99.4782 504.743C98.0421 504.325 96.7432 503.491 95.5817 502.243C94.3687 500.94 93.6402 499.547 93.3962 498.065C93.1442 496.59 93.3661 495.11 94.0617 493.624C94.7501 492.13 95.9052 490.717 97.5271 489.387L99.8318 491.864L98.9306 492.701C97.459 494.098 96.6247 495.404 96.4278 496.618C96.2236 497.824 96.6434 498.988 97.6873 500.11C98.8415 501.35 100.1 501.919 101.464 501.816C102.827 501.713 104.248 500.974 105.726 499.601C107.134 498.293 107.934 496.967 108.128 495.623C108.314 494.287 107.86 493.03 106.764 491.853C106.044 491.078 105.249 490.572 104.379 490.335C103.494 490.096 102.576 490.124 101.626 490.418L100.136 487.272C101.746 486.705 103.337 486.633 104.911 487.057C106.476 487.487 107.836 488.323 108.99 489.563ZM107.176 499.756L105.243 501.552L96.741 492.416L98.6739 490.62L107.176 499.756Z" fill="#EFEFEF"/>
<path d="M96.3981 476.14C97.7414 477.788 98.4718 479.426 98.5892 481.056C98.7066 482.686 98.1996 484.157 97.0681 485.467L94.465 483.119C95.0317 482.38 95.2746 481.542 95.1937 480.606C95.0977 479.668 94.6814 478.748 93.945 477.844C93.2767 477.025 92.5877 476.521 91.8779 476.334C91.1613 476.138 90.51 476.278 89.9242 476.755C89.5811 477.034 89.3731 477.343 89.3002 477.681C89.2122 478.017 89.2833 478.522 89.5135 479.198C89.7438 479.873 90.1497 480.857 90.7311 482.151C91.3776 483.559 91.8089 484.746 92.0249 485.711C92.2257 486.675 92.2153 487.49 91.9936 488.158C91.7568 488.824 91.3078 489.426 90.6466 489.964C89.8264 490.632 88.9335 490.997 87.968 491.059C87.0024 491.121 86.0318 490.896 85.0561 490.382C84.0735 489.86 83.1492 489.068 82.2832 488.005C81.4377 486.968 80.8474 485.911 80.5124 484.834C80.1774 483.757 80.1066 482.722 80.3001 481.73C80.4852 480.744 80.9385 479.874 81.6602 479.12L84.3386 481.406C83.7608 482.03 83.495 482.754 83.5411 483.579C83.5873 484.404 83.9311 485.245 84.5727 486.1C85.187 486.922 85.846 487.457 86.5496 487.705C87.2448 487.96 87.8519 487.876 88.3708 487.454C88.6721 487.209 88.8523 486.909 88.9116 486.555C88.964 486.192 88.8648 485.66 88.6141 484.96C88.3633 484.26 87.9389 483.269 87.3407 481.989C86.7063 480.613 86.2963 479.444 86.1106 478.482C85.9166 477.527 85.9506 476.706 86.2126 476.019C86.4593 475.331 86.93 474.705 87.6247 474.139C88.9638 473.049 90.413 472.684 91.9724 473.042C93.525 473.393 95.0003 474.425 96.3981 476.14Z" fill="#EFEFEF"/>
<path d="M82.3481 459.218C83.1733 459.978 83.8856 460.794 84.4851 461.666C85.0845 462.538 85.4776 463.42 85.6644 464.313C85.8512 465.206 85.7425 466.062 85.3385 466.88C84.9786 467.611 84.5079 468.21 83.9264 468.676C83.3297 469.14 82.6483 469.653 81.8822 470.214L69.4109 479.349L67.4002 476.608L79.7409 467.569C80.3068 467.154 80.7955 466.789 81.207 466.475C81.6121 466.151 81.8977 465.801 82.0637 465.426C82.3737 464.717 82.3189 463.995 81.8994 463.259C81.4648 462.52 80.8439 461.738 80.0367 460.911L82.3481 459.218ZM77.5044 477.574L75.3105 479.181L68.2445 469.549L70.4384 467.942L77.5044 477.574Z" fill="#EFEFEF"/>
<path d="M68.8931 439.436L59.4629 444.891C58.3709 445.525 57.6843 446.297 57.403 447.209C57.1124 448.127 57.2328 449.043 57.7643 449.957C58.0897 450.517 58.5186 450.954 59.0511 451.269C59.5689 451.58 60.1685 451.731 60.8499 451.722C61.5166 451.709 62.2327 451.481 62.998 451.037L63.1056 452.865C62.0525 453.501 60.989 453.819 59.9151 453.818C58.8359 453.808 57.841 453.525 56.9305 452.968C56.0107 452.416 55.2579 451.636 54.6722 450.629C53.7231 448.996 53.4783 447.447 53.9376 445.983C54.397 444.518 55.4387 443.315 57.0627 442.372L67.1929 436.511L68.8931 439.436ZM79.4278 457.559L64.3077 466.335L62.7946 463.732L67.1626 461.197L66.9674 460.861L77.7195 454.62L79.4278 457.559ZM74.1564 448.491L64.7822 453.913C63.6809 454.552 62.9802 455.333 62.6803 456.256C62.3749 457.169 62.4934 458.093 63.0357 459.026C63.5726 459.949 64.3238 460.511 65.2893 460.712C66.2494 460.904 67.2427 460.701 68.2694 460.106L68.1869 462.025C67.1976 462.599 66.1773 462.873 65.126 462.847C64.0747 462.821 63.0892 462.532 62.1694 461.98C61.2496 461.429 60.4914 460.64 59.8948 459.613C59.2711 458.54 58.9683 457.493 58.9864 456.472C58.9951 455.456 59.2916 454.517 59.8758 453.654C60.4546 452.781 61.2807 452.034 62.354 451.411L72.4562 445.566L74.1564 448.491Z" fill="#EFEFEF"/>
<path d="M61.2261 425.307C61.9858 426.87 62.3137 428.408 62.2099 429.922C62.0916 431.431 61.5813 432.812 60.679 434.066C59.7622 435.315 58.4932 436.333 56.872 437.12C55.1537 437.954 53.5078 438.357 51.9343 438.33C50.3561 438.292 48.9416 437.863 47.6908 437.043C46.44 436.223 45.4418 435.046 44.6962 433.512C43.9176 431.911 43.6283 430.366 43.8285 428.877C44.0189 427.393 44.664 426.042 45.7639 424.824C46.859 423.597 48.3766 422.584 50.3165 421.786L51.7959 424.829L50.6892 425.366C48.8735 426.272 47.694 427.276 47.1506 428.38C46.6025 429.474 46.6635 430.71 47.3335 432.088C48.0744 433.612 49.1118 434.524 50.4456 434.824C51.7795 435.124 53.3542 434.833 55.1695 433.952C56.8976 433.113 58.0509 432.079 58.6295 430.85C59.1984 429.626 59.1313 428.292 58.4281 426.845C57.9657 425.894 57.3534 425.178 56.5912 424.696C55.8146 424.21 54.929 423.968 53.9345 423.971L53.43 420.527C55.1349 420.455 56.6777 420.851 58.0584 421.717C59.4293 422.587 60.4852 423.783 61.2261 425.307ZM56.51 434.525L54.1364 435.677L48.6791 424.453L51.0527 423.3L56.51 434.525Z" fill="#EFEFEF"/>
<path d="M50.538 403.824L42.5357 406.962C41.9028 407.21 41.2765 407.52 40.6568 407.89C40.0231 408.254 39.4791 408.7 39.0247 409.226C38.5665 409.741 38.268 410.339 38.1294 411.02C37.9869 411.69 38.0852 412.457 38.4244 413.321C38.6454 413.883 38.9499 414.378 39.338 414.806C39.7161 415.237 40.186 415.563 40.7479 415.783C41.3057 415.993 41.9646 416.077 42.7245 416.034C43.4805 415.981 44.3408 415.765 45.3052 415.387L45.336 417.635C43.8592 418.214 42.4496 418.448 41.1074 418.337C39.7552 418.23 38.5594 417.783 37.5202 416.997C36.4809 416.21 35.6733 415.084 35.0974 413.617C34.6555 412.492 34.4656 411.477 34.5275 410.572C34.5893 409.667 34.824 408.862 35.2313 408.157C35.6247 407.446 36.1187 406.83 36.7133 406.307C37.3079 405.784 37.919 405.347 38.5466 404.997C39.1741 404.646 39.7391 404.372 40.2415 404.175L49.2836 400.63L50.538 403.824ZM55.0291 415.26L38.7533 421.642L37.6468 418.825L42.3487 416.981L42.2008 416.604L53.7747 412.066L55.0291 415.26Z" fill="#EFEFEF"/>
<path d="M43.9055 386.234C44.4619 387.208 44.8937 388.201 45.2011 389.213C45.5085 390.226 45.616 391.186 45.5236 392.094C45.4313 393.002 45.0689 393.784 44.4364 394.442C43.8719 395.03 43.242 395.459 42.5467 395.727C41.8377 395.989 41.0332 396.271 40.1332 396.574L25.4829 401.509L24.3964 398.288L38.8932 393.405C39.558 393.181 40.1341 392.981 40.6215 392.806C41.1055 392.62 41.4835 392.373 41.7555 392.065C42.2654 391.483 42.4318 390.778 42.2548 389.95C42.0641 389.114 41.7092 388.18 41.1902 387.148L43.9055 386.234ZM33.7334 402.266L31.1562 403.134L27.3377 391.814L29.9149 390.946L33.7334 402.266Z" fill="#EFEFEF"/>
<path d="M34.0028 352.023L10.8807 354.977L9.6851 345.632C9.65634 345.407 9.63144 345.127 9.61039 344.793C9.57864 344.46 9.57035 344.14 9.58553 343.833C9.62457 342.523 9.92651 341.396 10.4913 340.454C11.0548 339.5 11.823 338.744 12.7958 338.185C13.7687 337.625 14.876 337.266 16.1177 337.107C17.3702 336.947 18.5376 337.016 19.62 337.313C20.7025 337.61 21.6364 338.149 22.4217 338.929C23.2056 339.7 23.7815 340.714 24.1492 341.973C24.2304 342.267 24.3036 342.584 24.3688 342.924C24.4327 343.253 24.4783 343.524 24.5057 343.738L25.272 349.728L33.5734 348.667L34.0028 352.023ZM22.0927 350.134L21.3428 344.273C21.3155 344.059 21.2746 343.825 21.2203 343.571C21.1647 343.306 21.095 343.059 21.0114 342.83C20.7632 342.166 20.3983 341.652 19.9167 341.289C19.4244 340.928 18.8829 340.693 18.2923 340.583C17.7016 340.474 17.1227 340.455 16.5553 340.528C15.988 340.6 15.4376 340.763 14.9042 341.016C14.3602 341.27 13.9008 341.634 13.526 342.106C13.1405 342.579 12.9113 343.169 12.8384 343.875C12.8043 344.118 12.7937 344.375 12.8065 344.646C12.8179 344.905 12.8374 345.142 12.8648 345.356L13.6146 351.217L22.0927 350.134Z" fill="#EFEFEF"/>
<path d="M31.0577 326.481C31.1326 327.774 30.9584 328.87 30.535 329.77C30.1007 330.671 29.5035 331.37 28.7433 331.868C27.9717 332.356 27.1118 332.628 26.1637 332.682C25.2803 332.734 24.4955 332.622 23.8094 332.349C23.1234 332.075 22.5309 331.644 22.032 331.057C21.5224 330.47 21.0962 329.738 20.7534 328.861C20.4822 328.098 20.232 327.232 20.0028 326.261C19.7735 325.291 19.5523 324.272 19.339 323.203C19.1251 322.124 18.9118 321.055 18.6991 319.997L19.449 321.186C18.0795 321.244 17.0837 321.593 16.4615 322.234C15.8279 322.866 15.5532 323.909 15.6376 325.363C15.6907 326.279 15.9549 327.107 16.4302 327.847C16.8947 328.587 17.6259 329.08 18.6238 329.325L17.8369 332.532C16.3144 332.188 15.0764 331.438 14.123 330.283C13.169 329.116 12.6335 327.526 12.5167 325.511C12.4261 323.949 12.6168 322.576 13.0886 321.392C13.5491 320.198 14.34 319.298 15.4616 318.693C16.0163 318.38 16.6097 318.172 17.2416 318.071C17.8735 317.969 18.5557 317.897 19.2883 317.855L30.035 317.233L30.2084 320.222L26.2167 320.454L26.7001 319.842C28.0779 320.486 29.1279 321.35 29.85 322.432C30.5608 323.504 30.9633 324.854 31.0577 326.481ZM28.2596 326.043C28.204 325.084 27.9892 324.269 27.6152 323.599C27.2305 322.93 26.762 322.4 26.2097 322.011C25.6575 321.621 25.0921 321.378 24.5136 321.282C23.9858 321.129 23.3981 321.06 22.7504 321.076C22.1022 321.081 21.5841 321.095 21.1962 321.117L21.5365 319.995C21.76 321.052 21.9616 322.013 22.1415 322.879C22.3214 323.744 22.4966 324.528 22.6671 325.232C22.8262 325.925 23.0079 326.541 23.2121 327.081C23.4006 327.535 23.6186 327.938 23.8661 328.292C24.1129 328.634 24.4042 328.904 24.7399 329.1C25.075 329.286 25.4742 329.366 25.9374 329.339C26.3899 329.313 26.8035 329.175 27.1783 328.927C27.5422 328.679 27.8239 328.316 28.0233 327.84C28.2227 327.364 28.3014 326.765 28.2596 326.043Z" fill="#EFEFEF"/>
<path d="M29.4561 302.817C29.6804 303.916 29.7805 304.995 29.7563 306.053C29.7321 307.111 29.5343 308.056 29.1631 308.89C28.7918 309.724 28.2031 310.355 27.397 310.782C26.6769 311.165 25.9447 311.376 25.2003 311.414C24.4451 311.441 23.5927 311.458 22.643 311.466L7.18443 311.585L7.15817 308.186L22.4549 308.068C23.1563 308.062 23.766 308.052 24.2839 308.037C24.8017 308.012 25.2379 307.895 25.5924 307.687C26.2585 307.294 26.6368 306.676 26.7274 305.833C26.8072 304.98 26.7617 303.982 26.591 302.84L29.4561 302.817ZM14.7858 314.877L12.0664 314.898L11.9741 302.952L14.6935 302.931L14.7858 314.877Z" fill="#EFEFEF"/>
<path d="M29.2303 297.897L11.7636 297.156L11.8914 294.147L16.1287 294.327L15.561 294.724C15.0095 294.485 14.5093 294.183 14.0603 293.818C13.6006 293.453 13.2294 293.038 12.9467 292.572C12.642 292.116 12.4149 291.615 12.2653 291.069C12.1054 290.511 12.0214 289.946 12.0134 289.373C11.9945 288.8 12.0448 288.251 12.1643 287.727L15.3342 287.861C15.159 288.426 15.0888 289.061 15.1237 289.764C15.1591 290.457 15.3531 291.103 15.7057 291.701C16.0381 292.266 16.4508 292.721 16.9439 293.066C17.4373 293.4 17.9937 293.65 18.6131 293.817C19.2217 293.983 19.8711 294.081 20.5611 294.11L29.3754 294.485L29.2303 297.897Z" fill="#EFEFEF"/>
<path d="M30.4516 278.195C30.2431 279.93 29.6711 281.389 28.7358 282.57C27.8004 283.751 26.6051 284.608 25.15 285.14C23.6854 285.66 22.053 285.812 20.2529 285.596C18.4421 285.378 16.8935 284.834 15.6069 283.962C14.3096 283.089 13.3572 281.97 12.7496 280.603C12.1314 279.236 11.9245 277.7 12.1292 275.997C12.3377 274.261 12.9097 272.802 13.845 271.621C14.7804 270.44 15.9756 269.583 17.4308 269.051C18.886 268.519 20.5083 268.361 22.2976 268.576C24.1084 268.793 25.6625 269.338 26.9597 270.211C28.2476 271.072 29.206 272.187 29.835 273.556C30.4533 274.923 30.6588 276.469 30.4516 278.195ZM27.2853 277.815C27.4849 276.154 27.0764 274.85 26.0598 273.902C25.0339 272.942 23.6369 272.356 21.869 272.143C20.0582 271.926 18.5615 272.171 17.3789 272.877C16.1869 273.57 15.4924 274.737 15.2954 276.376C15.1603 277.501 15.3061 278.459 15.7329 279.249C16.1489 280.038 16.7858 280.664 17.6433 281.125C18.4902 281.585 19.5029 281.886 20.6816 282.028C22.5031 282.246 24.0105 282.003 25.2038 281.299C26.3971 280.594 27.091 279.433 27.2853 277.815Z" fill="#EFEFEF"/>
<path d="M33.2445 253.001L24.8135 251.327C24.1466 251.195 23.4523 251.118 22.7306 251.095C22.0003 251.06 21.302 251.142 20.6355 251.34C19.9711 251.527 19.3969 251.869 18.9127 252.367C18.4307 252.855 18.0992 253.554 17.9183 254.464C17.8004 255.057 17.7895 255.638 17.8854 256.207C17.9707 256.774 18.1903 257.301 18.5444 257.79C18.9005 258.268 19.41 258.693 20.0729 259.067C20.7379 259.43 21.5785 259.712 22.5947 259.914L21.4063 261.824C19.8503 261.515 18.5374 260.952 17.4676 260.134C16.3873 259.315 15.622 258.293 15.1719 257.071C14.7218 255.848 14.6503 254.464 14.9576 252.919C15.1933 251.733 15.5816 250.776 16.1226 250.048C16.6636 249.319 17.2958 248.768 18.0192 248.394C18.7342 248.008 19.4831 247.755 20.2661 247.636C21.0491 247.516 21.7994 247.478 22.5169 247.521C23.2345 247.565 23.8579 247.639 24.3871 247.744L33.9137 249.635L33.2445 253.001ZM30.8487 265.052L13.7009 261.647L14.2912 258.678L19.245 259.662L19.3239 259.265L31.5179 261.686L30.8487 265.052Z" fill="#EFEFEF"/>
<path d="M36.4598 238.385C36.1346 239.549 35.6745 240.474 35.0796 241.16C34.4848 241.845 33.8162 242.353 33.0739 242.684C32.3242 243.002 31.5544 243.19 30.7645 243.25C29.9747 243.31 29.2237 243.291 28.5115 243.193C27.7993 243.095 27.1833 242.974 26.6636 242.829L17.3083 240.219L18.2316 236.914L26.5111 239.223C27.1659 239.406 27.8561 239.543 28.5816 239.633C29.2996 239.71 29.997 239.68 30.6737 239.544C31.3533 239.398 31.9519 239.1 32.4696 238.65C32.9902 238.191 33.3754 237.514 33.6251 236.62C33.7877 236.038 33.848 235.461 33.8061 234.889C33.7538 234.314 33.5682 233.775 33.2495 233.272C32.9336 232.758 32.458 232.295 31.8225 231.882C31.1899 231.459 30.3747 231.108 29.3768 230.83L30.707 229.016C32.235 229.443 33.5065 230.105 34.5214 231.005C35.5259 231.901 36.2061 232.976 36.5619 234.229C36.9177 235.482 36.8837 236.868 36.4598 238.385ZM37.5624 232.693L32.6977 231.336L32.5888 231.726L20.6139 228.386L21.5329 225.096L38.3725 229.794L37.5624 232.693Z" fill="#EFEFEF"/>
<path d="M42.0346 218.291C41.3248 220.295 40.3039 221.771 38.972 222.719C37.6401 223.667 36.1199 224 34.4115 223.716L35.0645 220.272C35.9912 220.371 36.8335 220.143 37.5915 219.587C38.3428 219.017 38.9131 218.182 39.3022 217.084C39.6553 216.087 39.7275 215.237 39.5187 214.533C39.3135 213.82 38.8548 213.337 38.1426 213.085C37.7255 212.938 37.3537 212.921 37.0273 213.034C36.6943 213.134 36.2991 213.458 35.8417 214.006C35.3843 214.553 34.7539 215.412 33.9504 216.582C33.0833 217.866 32.2935 218.852 31.5809 219.538C30.8617 220.211 30.1593 220.627 29.4736 220.785C28.7813 220.929 28.0333 220.859 27.2296 220.575C26.2325 220.222 25.4563 219.65 24.901 218.858C24.3456 218.067 24.0338 217.121 23.9656 216.021C23.9009 214.91 24.0974 213.709 24.5549 212.417C25.0017 211.156 25.5983 210.102 26.3445 209.256C27.0908 208.409 27.9383 207.811 28.8871 207.459C29.8256 207.104 30.8048 207.039 31.8248 207.262L31.2634 210.738C30.4302 210.569 29.673 210.719 28.9917 211.188C28.3105 211.657 27.7712 212.387 27.3738 213.38C26.9908 214.332 26.8762 215.173 27.0298 215.903C27.1733 216.629 27.5605 217.103 28.1913 217.326C28.5576 217.456 28.9075 217.454 29.2411 217.32C29.5783 217.176 29.9811 216.815 30.4493 216.236C30.9175 215.658 31.5431 214.78 32.3263 213.603C33.1724 212.346 33.9583 211.388 34.6841 210.729C35.3996 210.066 36.1188 209.668 36.8416 209.534C37.5578 209.387 38.3381 209.463 39.1825 209.761C40.8104 210.337 41.8764 211.384 42.3807 212.901C42.8886 214.409 42.7732 216.205 42.0346 218.291Z" fill="#EFEFEF"/>
<path d="M48.5841 198.783L27.1815 189.548L28.5235 186.443L49.9261 195.677L48.5841 198.783Z" fill="#EFEFEF"/>
<path d="M56.9191 180.136L49.3014 176.154C48.6988 175.839 48.0544 175.569 47.3681 175.345C46.6773 175.105 45.9842 174.987 45.2889 174.989C44.5987 174.981 43.951 175.148 43.346 175.489C42.746 175.821 42.2309 176.398 41.8005 177.22C41.5202 177.756 41.3458 178.31 41.2773 178.883C41.1992 179.451 41.2612 180.019 41.4631 180.587C41.6701 181.146 42.0389 181.698 42.5696 182.243C43.1053 182.779 43.8322 183.287 44.7504 183.767L43.0715 185.264C41.6656 184.529 40.5647 183.618 39.7687 182.533C38.9633 181.442 38.517 180.247 38.4299 178.947C38.3429 177.647 38.6647 176.3 39.3953 174.904C39.9558 173.833 40.5984 173.024 41.3231 172.477C42.0477 171.931 42.8098 171.58 43.6093 171.426C44.4043 171.257 45.1942 171.225 45.9793 171.331C46.7643 171.437 47.495 171.612 48.1712 171.856C48.8475 172.1 49.4247 172.346 49.9029 172.596L58.5106 177.095L56.9191 180.136ZM51.2214 191.021L35.7276 182.923L37.1314 180.241L41.6074 182.58L41.7951 182.222L52.8129 187.981L51.2214 191.021Z" fill="#EFEFEF"/>
<path d="M62.9152 168.272L44.6968 164.512L46.4888 161.604L60.2034 164.588L51.3636 153.694L53.1556 150.786L64.7156 165.35L62.9152 168.272Z" fill="#EFEFEF"/>
<path d="M74.4815 150.337C73.4641 151.746 72.2636 152.763 70.88 153.388C69.4939 153.998 68.0347 154.203 66.5021 154.002C64.9672 153.787 63.4689 153.152 62.0073 152.097C60.4581 150.98 59.3232 149.722 58.6025 148.324C57.888 146.917 57.5961 145.469 57.7267 143.98C57.8573 142.491 58.4218 141.055 59.4203 139.673C60.463 138.229 61.6878 137.243 63.0947 136.715C64.493 136.18 65.9892 136.108 67.5835 136.5C69.1841 136.882 70.7954 137.739 72.4176 139.068L70.4365 141.811L69.4387 141.091C67.7806 139.922 66.3365 139.359 65.1065 139.403C63.8827 139.439 62.8222 140.078 61.9249 141.32C60.9327 142.693 60.6203 144.038 60.9876 145.354C61.3548 146.67 62.3568 147.919 63.9935 149.099C65.5514 150.223 67.0088 150.749 68.3658 150.676C69.714 150.597 70.8588 149.906 71.8004 148.603C72.4197 147.746 72.7611 146.868 72.8247 145.969C72.8858 145.055 72.6796 144.161 72.2059 143.287L75.0024 141.212C75.8734 142.679 76.2546 144.225 76.1459 145.849C76.0284 147.468 75.4736 148.964 74.4815 150.337ZM64.1235 150.55L61.9835 149.007L69.2918 138.89L71.4317 140.433L64.1235 150.55Z" fill="#EFEFEF"/>
<path d="M85.182 135.385C83.8267 137.023 82.3606 138.059 80.7838 138.492C79.2069 138.925 77.6649 138.714 76.1578 137.861L77.9543 134.852C78.7908 135.263 79.6605 135.338 80.5634 135.076C81.465 134.799 82.2873 134.211 83.0302 133.313C83.7044 132.499 84.0643 131.725 84.1099 130.993C84.1624 130.252 83.8975 129.641 83.3151 129.16C82.974 128.878 82.6307 128.735 82.2851 128.729C81.9381 128.708 81.4556 128.877 80.8377 129.234C80.2199 129.592 79.3326 130.181 78.1761 131.004C76.9203 131.912 75.8398 132.566 74.9346 132.966C74.0279 133.351 73.2254 133.5 72.5271 133.413C71.8273 133.31 71.1488 132.988 70.4915 132.445C69.6762 131.771 69.1438 130.967 68.8942 130.033C68.6446 129.099 68.6767 128.104 68.9906 127.047C69.3114 125.982 69.9087 124.922 70.7824 123.866C71.6354 122.835 72.5578 122.05 73.5496 121.512C74.5414 120.973 75.5432 120.702 76.5549 120.698C77.5584 120.687 78.5007 120.962 79.382 121.522L77.6603 124.593C76.9357 124.149 76.173 124.029 75.3721 124.236C74.5712 124.442 73.8135 124.943 73.0992 125.738C72.4123 126.501 72.0157 127.251 71.9093 127.989C71.7946 128.72 71.9952 129.299 72.511 129.725C72.8105 129.972 73.1399 130.09 73.4992 130.079C73.8655 130.06 74.3678 129.859 75.0063 129.477C75.6449 129.094 76.5341 128.485 77.674 127.649C78.9008 126.759 79.9683 126.129 80.8764 125.76C81.7761 125.383 82.5884 125.256 83.3132 125.379C84.0365 125.487 84.7434 125.826 85.4339 126.396C86.765 127.496 87.4067 128.845 87.3588 130.443C87.3179 132.033 86.5923 133.681 85.182 135.385Z" fill="#EFEFEF"/>
<path d="M99.0079 118.351C98.4231 119.308 97.7614 120.166 97.0227 120.923C96.284 121.681 95.4946 122.238 94.6544 122.596C93.8142 122.953 92.9534 123.014 92.072 122.777C91.2835 122.567 90.6037 122.223 90.0327 121.744C89.461 121.249 88.8249 120.682 88.1245 120.04L76.7234 109.6L79.021 107.095L90.3027 117.426C90.82 117.899 91.2734 118.307 91.6627 118.649C92.0593 118.983 92.4582 119.195 92.8594 119.284C93.6155 119.449 94.3138 119.255 94.9543 118.7C95.5942 118.13 96.241 117.369 96.8948 116.416L99.0079 118.351ZM80.0458 117.186L78.0402 115.349L86.1145 106.545L88.1201 108.381L80.0458 117.186Z" fill="#EFEFEF"/>
<path d="M115.672 101.389L108.468 93.2171C107.632 92.2712 106.739 91.7497 105.789 91.6527C104.831 91.5477 103.956 91.8451 103.164 92.545C102.678 92.9736 102.333 93.4796 102.129 94.0631C101.926 94.6313 101.895 95.2485 102.037 95.9146C102.181 96.5654 102.545 97.2223 103.131 97.8853L101.359 98.3488C100.528 97.4414 100.007 96.4615 99.7971 95.4091C99.5949 94.3496 99.6778 93.3191 100.046 92.3178C100.406 91.3083 101.024 90.4179 101.897 89.6466C103.313 88.3967 104.785 87.8534 106.312 88.0166C107.839 88.1799 109.224 88.9649 110.468 90.3716L118.208 99.1504L115.672 101.389ZM99.957 115.263L88.3772 102.166L90.6343 100.173L93.9796 103.957L94.2708 103.7L102.505 113.013L99.957 115.263ZM107.821 108.321L100.66 100.197C99.8161 99.2431 98.9122 98.7095 97.9479 98.5964C96.9917 98.4761 96.1091 98.773 95.3 99.4873C94.4991 100.194 94.095 101.041 94.0875 102.026C94.0882 103.004 94.4817 103.938 95.268 104.827L93.3683 105.123C92.6106 104.266 92.1414 103.32 91.9607 102.284C91.78 101.249 91.87 100.227 92.2307 99.2171C92.5914 98.2077 93.2167 97.3101 94.1066 96.5245C95.037 95.7031 96.005 95.2013 97.0105 95.0189C98.0089 94.8285 98.9889 94.935 99.9506 95.3384C100.92 95.7346 101.816 96.3977 102.638 97.3274L110.357 106.082L107.821 108.321Z" fill="#EFEFEF"/>
<path d="M128.008 91.1134C126.626 92.1655 125.182 92.7897 123.676 92.9861C122.172 93.1674 120.716 92.9394 119.308 92.3022C117.902 91.6499 116.653 90.6071 115.561 89.1736C114.403 87.6543 113.682 86.1211 113.399 84.5739C113.124 83.0202 113.265 81.5499 113.823 80.1628C114.381 78.7757 115.338 77.5659 116.695 76.5335C118.112 75.4552 119.57 74.8676 121.07 74.7705C122.564 74.6648 124.016 75.0309 125.428 75.8687C126.848 76.6999 128.141 77.9874 129.307 79.731L126.615 81.7797L125.869 80.8011C124.622 79.2005 123.404 78.2426 122.214 77.9275C121.033 77.6059 119.832 77.909 118.613 78.837C117.265 79.8629 116.575 81.0589 116.544 82.4249C116.513 83.791 117.109 85.2765 118.332 86.8817C119.497 88.4095 120.738 89.336 122.058 89.6609C123.371 89.9773 124.667 89.6486 125.947 88.6749C126.788 88.0345 127.37 87.2935 127.692 86.4519C128.016 85.5951 128.078 84.6798 127.879 83.706L131.158 82.5334C131.565 84.1898 131.481 85.7795 130.905 87.3026C130.322 88.8172 129.357 90.0874 128.008 91.1134ZM118.035 88.3079L116.436 86.2092L126.368 78.6517L127.967 80.7504L118.035 88.3079Z" fill="#EFEFEF"/>
<path d="M146.946 76.4223L142.276 69.2058C141.907 68.635 141.479 68.0829 140.992 67.5493C140.509 67.0008 139.964 66.5562 139.358 66.2155C138.761 65.8689 138.115 65.6952 137.421 65.6944C136.735 65.6877 136.002 65.9362 135.223 66.4399C134.715 66.7678 134.291 67.1643 133.949 67.6293C133.601 68.0852 133.375 68.6102 133.271 69.2042C133.176 69.7924 133.225 70.4544 133.419 71.1903C133.621 71.9203 134.004 72.7202 134.567 73.59L132.368 74.0662C131.507 72.7343 130.997 71.3999 130.838 70.0631C130.674 68.7172 130.875 67.4572 131.439 66.2831C132.003 65.1091 132.947 64.0945 134.27 63.2394C135.285 62.5835 136.243 62.196 137.143 62.0771C138.043 61.9581 138.879 62.0283 139.651 62.2876C140.426 62.5319 141.129 62.8935 141.76 63.3722C142.391 63.851 142.941 64.363 143.41 64.9082C143.878 65.4535 144.259 65.9526 144.552 66.4056L149.829 74.5598L146.946 76.4223ZM136.627 83.0902L127.129 68.4127L129.671 66.7699L132.415 71.01L132.755 70.7904L139.509 81.2278L136.627 83.0902Z" fill="#EFEFEF"/>
<path d="M162.885 66.4242C162.039 67.1603 161.15 67.778 160.217 68.2775C159.284 68.777 158.363 69.0704 157.454 69.1576C156.546 69.2448 155.707 69.0428 154.938 68.5515C154.249 68.1135 153.705 67.58 153.305 66.951C152.909 66.3072 152.474 65.574 152 64.7512L144.281 51.3575L147.227 49.6619L154.866 62.9153C155.216 63.5231 155.525 64.0486 155.793 64.492C156.07 64.9301 156.387 65.2522 156.742 65.4585C157.413 65.8444 158.138 65.8695 158.916 65.5338C159.698 65.1833 160.544 64.6527 161.455 63.9418L162.885 66.4242ZM145.159 59.5925L143.801 57.2363L154.156 51.2774L155.514 53.6336L145.159 59.5925Z" fill="#EFEFEF"/>
<path d="M186.995 53.1335L178.883 31.2807L187.717 28.0062C187.929 27.9274 188.196 27.84 188.517 27.744C188.834 27.6378 189.144 27.5575 189.446 27.5031C190.732 27.2452 191.898 27.2849 192.944 27.6222C194 27.9558 194.911 28.5332 195.676 29.3544C196.442 30.1756 197.042 31.173 197.478 32.3466C197.917 33.5303 198.115 34.6827 198.07 35.804C198.026 36.9253 197.713 37.9565 197.13 38.8977C196.557 39.8352 195.699 40.625 194.556 41.2674C194.288 41.4129 193.995 41.5557 193.679 41.696C193.373 41.8325 193.119 41.9383 192.916 42.0133L187.255 44.1119L190.167 51.9576L186.995 53.1335ZM186.139 41.1071L191.679 39.0535C191.882 38.9785 192.101 38.8859 192.336 38.7756C192.581 38.6616 192.806 38.5381 193.01 38.4049C193.601 38.0131 194.019 37.5418 194.263 36.9908C194.504 36.4297 194.611 35.8492 194.584 35.2492C194.557 34.6492 194.444 34.0812 194.245 33.545C194.046 33.0087 193.762 32.5095 193.395 32.0472C193.024 31.5747 192.566 31.2093 192.021 30.9509C191.473 30.6824 190.846 30.5923 190.142 30.6806C189.897 30.7024 189.644 30.7501 189.384 30.8236C189.134 30.8934 188.907 30.9658 188.705 31.0408L183.165 33.0944L186.139 41.1071Z" fill="#EFEFEF"/>
<path d="M211.023 44.5311C209.781 44.8978 208.674 44.9774 207.701 44.7696C206.725 44.5515 205.908 44.1289 205.25 43.5019C204.599 42.8614 204.139 42.0858 203.869 41.1752C203.618 40.3266 203.548 39.5372 203.658 38.8069C203.769 38.0767 204.053 37.402 204.512 36.7827C204.967 36.1532 205.583 35.5718 206.359 35.0387C207.04 34.6013 207.827 34.1608 208.72 33.717C209.612 33.2733 210.555 32.8262 211.547 32.3756C212.55 31.922 213.542 31.4715 214.523 31.024L213.536 32.0244C213.168 30.704 212.601 29.8138 211.835 29.3537C211.076 28.8802 209.998 28.8498 208.601 29.2624C207.721 29.5223 206.975 29.9676 206.362 30.5986C205.747 31.2192 205.434 32.0432 205.422 33.0705L202.12 33.0332C202.108 31.4725 202.557 30.0967 203.465 28.9057C204.383 27.7118 205.81 26.829 207.746 26.2574C209.246 25.8142 210.627 25.6877 211.887 25.8781C213.155 26.0551 214.211 26.6208 215.056 27.5752C215.488 28.0442 215.825 28.5749 216.067 29.1671C216.31 29.7593 216.536 30.4073 216.744 31.111L219.797 41.4336L216.925 42.2818L215.791 38.4477L216.497 38.7794C216.183 40.2674 215.581 41.486 214.691 42.4351C213.809 43.3709 212.586 44.0695 211.023 44.5311ZM210.813 41.707C211.734 41.435 212.478 41.0407 213.046 40.5243C213.61 39.9975 214.019 39.421 214.273 38.7947C214.526 38.1684 214.634 37.5627 214.596 36.9776C214.625 36.4289 214.558 35.841 214.395 35.214C214.243 34.5839 214.111 34.0826 214.001 33.71L215.172 33.7863C214.193 34.2442 213.303 34.659 212.501 35.0307C211.7 35.4025 210.976 35.7514 210.329 36.0773C209.69 36.3898 209.131 36.7068 208.652 37.0282C208.253 37.3149 207.91 37.6189 207.622 37.9401C207.345 38.2583 207.149 38.6032 207.034 38.9748C206.929 39.3433 206.942 39.7501 207.074 40.195C207.202 40.6297 207.43 41.0012 207.758 41.3095C208.082 41.6075 208.499 41.7995 209.009 41.8854C209.518 41.9713 210.119 41.9118 210.813 41.707Z" fill="#EFEFEF"/>
<path d="M233.96 37.5203C232.939 37.9856 231.911 38.3251 230.875 38.5389C229.838 38.7527 228.872 38.7723 227.976 38.5977C227.08 38.423 226.333 37.9909 225.736 37.3013C225.201 36.6856 224.831 36.0194 224.626 35.3027C224.43 34.5729 224.221 33.7462 224.001 32.8225L220.41 17.7862L223.717 16.9977L227.27 31.8766C227.433 32.5589 227.58 33.1507 227.71 33.652C227.852 34.1508 228.063 34.5496 228.346 34.8485C228.879 35.4091 229.566 35.6391 230.408 35.5383C231.257 35.4246 232.219 35.1563 233.294 34.7335L233.96 37.5203ZM218.91 25.932L218.279 23.2869L229.899 20.516L230.531 23.1611L218.91 25.932Z" fill="#EFEFEF"/>
<path d="M237.349 36.4857L234.071 19.3133L237.029 18.7496L237.824 22.9155L237.307 22.4537C237.414 21.862 237.594 21.306 237.846 20.7855C238.096 20.2544 238.415 19.7981 238.804 19.4164C239.178 19.0156 239.614 18.6798 240.111 18.4092C240.618 18.1259 241.149 17.9149 241.704 17.776C242.258 17.6265 242.804 17.55 243.342 17.5464L243.936 20.6628C243.346 20.6215 242.713 20.6983 242.036 20.8933C241.37 21.0862 240.786 21.4227 240.284 21.9028C239.81 22.3557 239.462 22.8615 239.239 23.4203C239.026 23.9771 238.91 24.5761 238.89 25.2172C238.867 25.8477 238.921 26.5021 239.05 27.1805L240.704 35.8463L237.349 36.4857Z" fill="#EFEFEF"/>
<path d="M256.719 33.163C254.982 33.3579 253.431 33.1354 252.067 32.4957C250.703 31.856 249.595 30.8889 248.744 29.5944C247.902 28.288 247.38 26.7339 247.178 24.9323C246.974 23.1199 247.149 21.4876 247.703 20.0355C248.255 18.5727 249.126 17.389 250.317 16.4844C251.507 15.5691 252.954 15.0159 254.659 14.8246C256.396 14.6297 257.947 14.8521 259.311 15.4918C260.676 16.1315 261.783 17.0987 262.635 18.3932C263.486 19.6877 264.012 21.2304 264.213 23.0213C264.417 24.8337 264.242 26.4713 263.69 27.9341C263.147 29.385 262.282 30.5735 261.093 31.4995C259.904 32.4148 258.446 32.9693 256.719 33.163ZM256.363 29.994C258.025 29.8075 259.201 29.1109 259.891 27.9042C260.591 26.6855 260.841 25.1914 260.642 23.4219C260.438 21.6095 259.858 20.2087 258.899 19.2194C257.951 18.2181 256.656 17.8095 255.015 17.9936C253.889 18.1199 252.99 18.4813 252.319 19.0779C251.646 19.6637 251.184 20.4269 250.931 21.3675C250.677 22.2973 250.616 23.352 250.749 24.5317C250.954 26.3548 251.536 27.7664 252.495 28.7664C253.454 29.7664 254.744 30.1756 256.363 29.994Z" fill="#EFEFEF"/>
<path d="M282.083 30.0757L281.784 21.4853C281.76 20.8059 281.677 20.1123 281.533 19.4046C281.4 18.6857 281.161 18.0245 280.816 17.421C280.482 16.8171 280.017 16.3365 279.422 15.9793C278.837 15.6217 278.081 15.4589 277.154 15.4911C276.55 15.5121 275.982 15.6344 275.449 15.8581C274.917 16.0709 274.453 16.4056 274.059 16.862C273.675 17.318 273.377 17.9115 273.165 18.6423C272.964 19.3728 272.881 20.2557 272.917 21.2911L270.787 20.5714C270.731 18.986 270.979 17.579 271.531 16.3505C272.081 15.1112 272.9 14.1325 273.988 13.4145C275.075 12.6964 276.406 12.3101 277.98 12.2554C279.188 12.2134 280.209 12.3724 281.042 12.7322C281.875 13.092 282.556 13.5812 283.085 14.2C283.625 14.8075 284.042 15.4787 284.338 16.2135C284.633 16.9483 284.842 17.67 284.964 18.3784C285.086 19.0869 285.156 19.7107 285.175 20.25L285.512 29.9566L282.083 30.0757ZM269.804 30.5021L269.196 13.0301L272.221 12.9251L272.397 17.9725L272.801 17.9585L273.233 30.383L269.804 30.5021Z" fill="#EFEFEF"/>
<path d="M297.508 29.8186C296.3 29.7672 295.295 29.5301 294.492 29.1071C293.689 28.6841 293.042 28.149 292.551 27.5016C292.071 26.8439 291.713 26.1374 291.475 25.382C291.237 24.6266 291.084 23.891 291.017 23.1753C290.951 22.4595 290.929 21.8321 290.951 21.293L291.363 11.5893L294.792 11.735L294.427 20.3228C294.399 21.0021 294.423 21.7052 294.5 22.4322C294.588 23.1488 294.776 23.8211 295.062 24.4489C295.36 25.0773 295.786 25.5922 296.342 25.9939C296.908 26.396 297.655 26.6168 298.582 26.6562C299.186 26.6818 299.761 26.6091 300.308 26.4379C300.856 26.256 301.339 25.9525 301.757 25.5274C302.185 25.1027 302.528 24.534 302.785 23.8212C303.053 23.1089 303.209 22.2352 303.253 21.2002L305.322 22.082C305.254 23.667 304.898 25.056 304.254 26.2492C303.609 27.4315 302.718 28.3388 301.578 28.9708C300.439 29.6029 299.082 29.8855 297.508 29.8186ZM303.301 29.5949L303.516 24.549L303.111 24.5318L303.639 12.111L307.051 12.256L306.31 29.7228L303.301 29.5949Z" fill="#EFEFEF"/>
<path d="M318.8 30.6412C316.687 30.404 315.018 29.7443 313.793 28.6621C312.568 27.5798 311.9 26.1746 311.79 24.4465L315.293 24.302C315.406 25.2269 315.819 25.9954 316.532 26.6076C317.257 27.2102 318.199 27.5765 319.357 27.7065C320.408 27.8245 321.253 27.7021 321.891 27.3393C322.539 26.9777 322.906 26.4216 322.99 25.6709C323.04 25.2312 322.972 24.8653 322.788 24.5731C322.615 24.2714 322.21 23.9599 321.573 23.6386C320.936 23.3173 319.957 22.8979 318.636 22.3805C317.188 21.8271 316.05 21.2812 315.22 20.7428C314.402 20.1949 313.838 19.6049 313.529 18.973C313.232 18.3315 313.131 17.5872 313.226 16.7399C313.344 15.689 313.726 14.8033 314.371 14.083C315.017 13.3628 315.868 12.8447 316.924 12.5289C317.991 12.2142 319.205 12.1334 320.567 12.2862C321.897 12.4355 323.059 12.7776 324.052 13.3126C325.045 13.8476 325.82 14.5373 326.377 15.3816C326.935 16.2153 327.221 17.1541 327.234 18.1981L323.721 18.4391C323.697 17.5893 323.379 16.8859 322.769 16.3286C322.158 15.7714 321.324 15.4118 320.267 15.2497C319.253 15.0925 318.408 15.1714 317.732 15.4865C317.057 15.7908 316.682 16.2754 316.608 16.9403C316.564 17.3264 316.646 17.6667 316.851 17.9613C317.068 18.2571 317.511 18.5674 318.18 18.8923C318.85 19.2172 319.846 19.6277 321.17 20.1237C322.586 20.6628 323.697 21.211 324.503 21.7685C325.311 22.3152 325.861 22.9254 326.155 23.599C326.46 24.2631 326.563 25.0403 326.463 25.9304C326.271 27.6463 325.492 28.9218 324.128 29.7568C322.774 30.5931 320.998 30.8879 318.8 30.6412Z" fill="#EFEFEF"/>
<path d="M339.64 32.6093L343.747 9.664L347.078 10.2593L342.971 33.2046L339.64 32.6093Z" fill="#EFEFEF"/>
<path d="M359.416 36.3542L361.571 28.0332C361.742 27.375 361.859 26.6863 361.922 25.9671C361.999 25.2402 361.958 24.5384 361.799 23.8619C361.65 23.188 361.341 22.5953 360.871 22.0838C360.412 21.5749 359.734 21.2043 358.835 20.9719C358.25 20.8206 357.671 20.7767 357.097 20.8401C356.526 20.893 355.986 21.0823 355.478 21.408C354.981 21.7363 354.526 22.2207 354.115 22.8612C353.714 23.5044 353.384 24.3275 353.125 25.3304L351.286 24.0357C351.684 22.5 352.322 21.2214 353.199 20.1999C354.08 19.168 355.143 18.4622 356.39 18.0823C357.636 17.7025 359.022 17.7098 360.548 18.1043C361.718 18.4069 362.651 18.8489 363.348 19.4304C364.044 20.0118 364.559 20.6742 364.89 21.4176C365.234 22.1532 365.444 22.9152 365.519 23.7036C365.593 24.492 365.588 25.2431 365.503 25.9569C365.419 26.6708 365.309 27.2888 365.174 27.8112L362.739 37.2134L359.416 36.3542ZM347.521 33.2779L351.904 16.3539L354.835 17.1118L353.569 22.001L353.961 22.1023L350.844 34.1372L347.521 33.2779Z" fill="#EFEFEF"/>
<path d="M372.068 39.3734L371.573 20.7842L374.814 21.8623L375.037 35.8913L383.63 24.7952L386.871 25.8733L375.325 40.4567L372.068 39.3734Z" fill="#EFEFEF"/>
<path d="M392.829 46.7364C391.226 46.066 389.963 45.1284 389.041 43.9236C388.132 42.713 387.602 41.339 387.45 39.8017C387.313 38.2586 387.592 36.6559 388.288 34.9936C389.026 33.2318 389.995 31.8413 391.194 30.8222C392.403 29.8072 393.748 29.1941 395.229 28.9829C396.709 28.7718 398.236 28.9951 399.809 29.6531C401.452 30.3402 402.69 31.3085 403.524 32.5579C404.362 33.7975 404.771 35.2376 404.751 36.8785C404.74 38.5235 404.271 40.2865 403.342 42.1675L400.221 40.8621L400.697 39.7274C401.461 37.8477 401.682 36.3142 401.36 35.1269C401.048 33.9438 400.186 33.0565 398.772 32.4652C397.209 31.8114 395.828 31.8128 394.628 32.4692C393.429 33.1257 392.44 34.3846 391.66 36.2459C390.918 38.0177 390.736 39.5558 391.114 40.8602C391.496 42.1547 392.428 43.1122 393.912 43.7326C394.887 44.1407 395.82 44.2736 396.711 44.1313C397.615 43.9832 398.44 43.5793 399.184 42.9198L401.839 45.1707C400.607 46.3517 399.187 47.0738 397.579 47.3371C395.976 47.5904 394.392 47.3902 392.829 46.7364ZM390.275 36.7021L391.295 34.2684L402.809 39.0842L401.789 41.5179L390.275 36.7021Z" fill="#EFEFEF"/>
<path d="M409.365 53.5025C407.463 52.5528 406.123 51.3592 405.346 49.9216C404.569 48.4841 404.426 46.9353 404.918 45.2753L408.256 46.345C408.044 47.2522 408.167 48.1159 408.626 48.9359C409.099 49.7512 409.857 50.4191 410.9 50.9398C411.846 51.4122 412.681 51.588 413.405 51.4671C414.139 51.351 414.675 50.9551 415.013 50.2794C415.21 49.8837 415.273 49.517 415.201 49.1792C415.143 48.8367 414.87 48.405 414.382 47.8841C413.895 47.3632 413.12 46.6325 412.058 45.6921C410.89 44.6745 410.009 43.7701 409.415 42.9791C408.835 42.1832 408.51 41.4355 408.437 40.7359C408.379 40.0314 408.541 39.2979 408.922 38.5354C409.395 37.5895 410.059 36.8896 410.913 36.4357C411.768 35.9818 412.745 35.7884 413.846 35.8554C414.956 35.9274 416.124 36.2694 417.35 36.8817C418.548 37.4795 419.52 38.2004 420.269 39.0445C421.017 39.8886 421.507 40.8027 421.739 41.7869C421.975 42.7615 421.92 43.741 421.572 44.7254L418.191 43.7426C418.461 42.9367 418.406 42.1671 418.024 41.4338C417.643 40.7006 416.984 40.076 416.047 39.5602C415.149 39.0636 414.329 38.8468 413.585 38.9098C412.847 38.9632 412.328 39.2891 412.029 39.8875C411.855 40.235 411.814 40.5824 411.906 40.9298C412.007 41.282 412.316 41.7258 412.832 42.2611C413.349 42.7965 414.143 43.5247 415.215 44.4459C416.359 45.4393 417.214 46.3364 417.778 47.1372C418.348 47.9282 418.655 48.6905 418.698 49.4238C418.756 50.1524 418.585 50.9172 418.184 51.7184C417.412 53.2627 416.241 54.192 414.673 54.5063C413.113 54.8254 411.344 54.4908 409.365 53.5025Z" fill="#EFEFEF"/>
<path d="M429.261 63.1655C428.197 62.8113 427.212 62.3597 426.308 61.8108C425.403 61.2618 424.683 60.6185 424.146 59.8807C423.609 59.1429 423.356 58.3183 423.389 57.4068C423.417 56.5918 423.6 55.8523 423.939 55.1885C424.292 54.5206 424.703 53.7736 425.171 52.9473L432.792 39.497L435.751 41.1709L428.21 54.4803C427.864 55.0906 427.568 55.6238 427.322 56.0798C427.086 56.5411 426.969 56.9772 426.972 57.388C426.98 58.1614 427.327 58.7976 428.011 59.2966C428.711 59.7915 429.598 60.2502 430.674 60.6726L429.261 63.1655ZM426.141 44.4384L427.482 42.0723L437.879 47.9547L436.539 50.3208L426.141 44.4384Z" fill="#EFEFEF"/>
<path d="M449.598 75.5102L455.958 66.6654C456.693 65.6392 457.002 64.6526 456.884 63.7056C456.773 62.7498 456.287 61.9642 455.427 61.3486C454.901 60.9717 454.33 60.7491 453.715 60.6806C453.115 60.6096 452.507 60.718 451.889 61.0057C451.286 61.2909 450.727 61.7931 450.211 62.5123L449.363 60.8897C450.062 59.8772 450.901 59.1509 451.881 58.7107C452.869 58.2767 453.893 58.1268 454.952 58.2611C456.017 58.3865 457.023 58.7884 457.971 59.4668C459.507 60.566 460.366 61.8776 460.548 63.4016C460.73 64.9255 460.274 66.4506 459.18 67.9767L452.349 77.4794L449.598 75.5102ZM432.552 63.309L442.737 49.1L445.185 50.8524L442.243 54.9573L442.559 55.1834L435.316 65.2875L432.552 63.309ZM441.081 69.4143L447.404 60.6221C448.145 59.5871 448.464 58.5873 448.359 57.6228C448.262 56.6646 447.775 55.8714 446.897 55.2433C446.029 54.6214 445.113 54.4171 444.15 54.6304C443.196 54.8499 442.373 55.4421 441.682 56.4069L440.969 54.6227C441.635 53.693 442.453 53.0243 443.423 52.6167C444.392 52.209 445.409 52.0679 446.475 52.1934C447.54 52.3189 448.555 52.7271 449.52 53.418C450.53 54.1403 451.235 54.9708 451.638 55.9093C452.047 56.8391 452.163 57.8175 451.984 58.8443C451.814 59.8775 451.368 60.8984 450.645 61.9071L443.832 71.3835L441.081 69.4143Z" fill="#EFEFEF"/>
<path d="M462.643 85.3554C461.308 84.2439 460.376 82.9769 459.848 81.5543C459.335 80.1304 459.232 78.6615 459.538 77.1476C459.86 75.6323 460.598 74.1824 461.752 72.7981C462.975 71.3309 464.309 70.2863 465.755 69.6643C467.209 69.0492 468.675 68.8582 470.152 69.0912C471.63 69.3242 473.024 69.9861 474.335 71.0769C475.703 72.216 476.603 73.5051 477.033 74.9443C477.47 76.3751 477.437 77.8717 476.936 79.434C476.443 81.0032 475.476 82.5505 474.036 84.0758L471.436 81.9115L472.224 80.9665C473.506 79.3943 474.168 77.9935 474.209 76.7642C474.259 75.5418 473.695 74.4404 472.517 73.46C471.215 72.3761 469.894 71.9718 468.554 72.2471C467.215 72.5223 465.899 73.435 464.607 74.9852C463.377 76.4607 462.751 77.8773 462.729 79.2351C462.714 80.5846 463.325 81.7736 464.561 82.8023C465.374 83.4789 466.227 83.8799 467.119 84.0053C468.028 84.1294 468.934 83.9855 469.84 83.5736L471.716 86.5047C470.192 87.2718 468.623 87.545 467.008 87.3245C465.401 87.0957 463.946 86.4393 462.643 85.3554ZM463.15 75.0146L464.839 72.9878L474.432 80.9721L472.742 82.9988L463.15 75.0146Z" fill="#EFEFEF"/>
<path d="M481.258 100.493L487.249 94.3294C487.723 93.8419 488.165 93.3015 488.577 92.7081C489.003 92.1144 489.315 91.4843 489.511 90.8178C489.715 90.1587 489.74 89.4908 489.585 88.8141C489.438 88.1449 489.031 87.4871 488.365 86.8407C487.932 86.4198 487.45 86.0949 486.92 85.8662C486.397 85.6296 485.834 85.5272 485.232 85.5588C484.637 85.598 484.002 85.7941 483.328 86.1472C482.661 86.5078 481.967 87.0596 481.245 87.8025L480.288 85.768C481.393 84.6305 482.58 83.8351 483.849 83.3818C485.125 82.9208 486.398 82.8336 487.67 83.1203C488.941 83.407 490.142 84.099 491.273 85.1964C492.14 86.0382 492.733 86.884 493.051 87.7339C493.368 88.5837 493.487 89.4135 493.407 90.2233C493.343 91.0329 493.148 91.7986 492.822 92.5205C492.497 93.2423 492.121 93.8924 491.694 94.4708C491.267 95.0492 490.866 95.5318 490.49 95.9187L483.72 102.883L481.258 100.493ZM472.441 91.9356L484.627 79.3997L486.799 81.508L483.279 85.1295L483.569 85.4113L474.904 94.3258L472.441 91.9356Z" fill="#EFEFEF"/>
<path d="M494.596 113.747C493.688 113.088 492.886 112.361 492.189 111.565C491.492 110.768 490.999 109.937 490.71 109.072C490.421 108.207 490.429 107.344 490.735 106.485C491.008 105.717 491.406 105.067 491.929 104.536C492.468 104.006 493.085 103.418 493.781 102.772L505.105 92.2491L507.421 94.7377L496.215 105.15C495.701 105.628 495.258 106.047 494.886 106.407C494.521 106.776 494.278 107.156 494.157 107.549C493.931 108.288 494.07 109 494.572 109.682C495.09 110.365 495.797 111.07 496.695 111.797L494.596 113.747ZM497.273 94.9527L499.265 93.1016L507.403 101.847L505.411 103.698L497.273 94.9527Z" fill="#EFEFEF"/>
<path d="M512.605 133.575L532.043 120.71L537.248 128.563C537.373 128.751 537.519 128.991 537.686 129.282C537.862 129.567 538.011 129.85 538.133 130.132C538.677 131.324 538.905 132.468 538.815 133.563C538.731 134.667 538.376 135.684 537.75 136.616C537.125 137.548 536.29 138.359 535.246 139.05C534.194 139.747 533.116 140.201 532.014 140.413C530.911 140.625 529.835 140.554 528.785 140.201C527.741 139.857 526.776 139.201 525.89 138.235C525.687 138.007 525.481 137.755 525.272 137.479C525.069 137.212 524.908 136.989 524.789 136.809L521.453 131.776L514.474 136.395L512.605 133.575ZM524.126 130.007L527.39 134.932C527.509 135.112 527.649 135.304 527.811 135.508C527.978 135.721 528.149 135.911 528.325 136.079C528.842 136.566 529.396 136.865 529.989 136.978C530.59 137.084 531.18 137.056 531.759 136.893C532.337 136.731 532.865 136.492 533.342 136.176C533.819 135.86 534.24 135.471 534.607 135.008C534.983 134.54 535.234 134.011 535.361 133.422C535.498 132.827 535.443 132.197 535.196 131.532C535.119 131.298 535.015 131.063 534.884 130.826C534.759 130.598 534.637 130.395 534.517 130.215L531.253 125.29L524.126 130.007Z" fill="#EFEFEF"/>
<path d="M527.038 155.836C526.4 154.709 526.072 153.649 526.054 152.654C526.046 151.655 526.273 150.764 526.735 149.981C527.212 149.203 527.864 148.58 528.69 148.113C529.461 147.677 530.214 147.431 530.951 147.373C531.687 147.316 532.409 147.441 533.116 147.748C533.833 148.049 534.538 148.518 535.234 149.154C535.814 149.718 536.421 150.385 537.056 151.154C537.69 151.924 538.339 152.741 539.002 153.605C539.671 154.479 540.335 155.344 540.993 156.199L539.795 155.463C540.998 154.807 541.737 154.054 542.012 153.204C542.302 152.358 542.088 151.302 541.37 150.034C540.918 149.236 540.315 148.61 539.561 148.156C538.817 147.696 537.944 147.577 536.94 147.798L536.229 144.573C537.748 144.21 539.19 144.336 540.556 144.952C541.927 145.577 543.11 146.768 544.105 148.524C544.876 149.885 545.312 151.201 545.411 152.472C545.526 153.746 545.213 154.902 544.474 155.94C544.115 156.466 543.674 156.914 543.152 157.284C542.629 157.654 542.049 158.019 541.41 158.38L532.041 163.681L530.565 161.076L534.045 159.107L533.881 159.869C532.36 159.899 531.036 159.587 529.91 158.935C528.799 158.287 527.841 157.254 527.038 155.836ZM529.743 154.994C530.216 155.83 530.769 156.466 531.4 156.902C532.041 157.333 532.696 157.601 533.363 157.707C534.031 157.813 534.646 157.781 535.207 157.612C535.749 157.517 536.306 157.319 536.881 157.019C537.46 156.728 537.919 156.487 538.257 156.296L538.447 157.453C537.78 156.603 537.174 155.83 536.631 155.133C536.087 154.436 535.583 153.81 535.12 153.254C534.67 152.702 534.235 152.229 533.813 151.835C533.444 151.511 533.07 151.246 532.692 151.038C532.319 150.84 531.939 150.726 531.55 150.698C531.168 150.679 530.774 150.784 530.37 151.012C529.976 151.235 529.665 151.541 529.439 151.93C529.222 152.313 529.129 152.762 529.161 153.277C529.192 153.793 529.386 154.365 529.743 154.994Z" fill="#EFEFEF"/>
<path d="M539.057 176.534C538.371 175.646 537.807 174.721 537.362 173.761C536.918 172.801 536.68 171.864 536.646 170.953C536.612 170.041 536.863 169.216 537.399 168.478C537.877 167.817 538.442 167.306 539.094 166.944C539.76 166.587 540.518 166.197 541.367 165.772L555.198 158.866L556.718 161.907L543.032 168.741C542.405 169.054 541.862 169.331 541.403 169.572C540.949 169.823 540.609 170.119 540.382 170.462C539.957 171.108 539.89 171.83 540.179 172.626C540.483 173.427 540.964 174.303 541.62 175.254L539.057 176.534ZM546.922 159.254L549.355 158.039L554.698 168.724L552.265 169.939L546.922 159.254Z" fill="#EFEFEF"/>
<path d="M540.42 178.665L556.393 171.559L557.619 174.31L553.743 176.033L554.075 175.425C554.676 175.394 555.258 175.442 555.823 175.569C556.397 175.692 556.914 175.898 557.375 176.19C557.851 176.462 558.277 176.81 558.655 177.233C559.046 177.661 559.373 178.13 559.636 178.639C559.908 179.144 560.107 179.658 560.234 180.18L557.335 181.47C557.24 180.886 557.02 180.286 556.676 179.672C556.335 179.067 555.874 178.576 555.292 178.197C554.743 177.839 554.17 177.615 553.575 177.526C552.984 177.446 552.375 177.469 551.746 177.595C551.127 177.717 550.501 177.918 549.87 178.199L541.81 181.785L540.42 178.665Z" fill="#EFEFEF"/>
<path d="M548.43 197.456C547.847 195.808 547.712 194.247 548.026 192.774C548.34 191.301 549.031 190.003 550.099 188.881C551.18 187.766 552.576 186.906 554.285 186.302C556.005 185.694 557.634 185.495 559.175 185.706C560.725 185.913 562.075 186.494 563.227 187.449C564.388 188.401 565.255 189.685 565.828 191.302C566.412 192.95 566.546 194.511 566.233 195.984C565.919 197.457 565.228 198.755 564.159 199.877C563.091 200.998 561.708 201.86 560.009 202.461C558.289 203.069 556.655 203.269 555.104 203.062C553.568 202.862 552.214 202.287 551.042 201.339C549.881 200.388 549.01 199.093 548.43 197.456ZM551.437 196.392C551.995 197.969 552.94 198.957 554.272 199.356C555.618 199.761 557.13 199.667 558.809 199.073C560.528 198.465 561.761 197.583 562.508 196.426C563.268 195.275 563.373 193.922 562.821 192.366C562.443 191.298 561.887 190.504 561.154 189.985C560.431 189.462 559.582 189.184 558.609 189.151C557.646 189.114 556.604 189.293 555.485 189.689C553.756 190.301 552.512 191.187 551.756 192.348C550.999 193.508 550.893 194.856 551.437 196.392Z" fill="#EFEFEF"/>
<path d="M556.894 220.293L565.19 218.047C565.847 217.869 566.503 217.63 567.159 217.329C567.829 217.036 568.418 216.653 568.927 216.179C569.439 215.716 569.801 215.154 570.013 214.493C570.228 213.843 570.214 213.069 569.971 212.174C569.813 211.59 569.564 211.065 569.225 210.598C568.896 210.128 568.465 209.753 567.93 209.473C567.399 209.203 566.753 209.048 565.993 209.008C565.236 208.978 564.357 209.099 563.357 209.37L563.572 207.131C565.103 206.717 566.53 206.638 567.852 206.895C569.184 207.149 570.324 207.723 571.271 208.618C572.218 209.513 572.898 210.721 573.311 212.242C573.627 213.409 573.705 214.438 573.545 215.331C573.384 216.225 573.063 216.999 572.581 217.655C572.113 218.319 571.555 218.878 570.906 219.333C570.258 219.788 569.603 220.155 568.941 220.435C568.279 220.715 567.688 220.926 567.167 221.067L557.792 223.605L556.894 220.293ZM553.678 208.435L570.553 203.866L571.345 206.787L566.47 208.107L566.576 208.498L554.576 211.747L553.678 208.435Z" fill="#EFEFEF"/>
<path d="M560.94 236.231C560.718 235.043 560.723 234.01 560.954 233.133C561.185 232.255 561.561 231.504 562.081 230.88C562.614 230.265 563.221 229.756 563.904 229.355C564.586 228.953 565.268 228.639 565.951 228.413C566.633 228.186 567.239 228.024 567.77 227.925L577.317 226.143L577.948 229.516L569.498 231.093C568.83 231.218 568.15 231.4 567.459 231.639C566.781 231.886 566.168 232.22 565.621 232.64C565.076 233.071 564.67 233.603 564.404 234.234C564.14 234.876 564.093 235.654 564.263 236.566C564.374 237.16 564.575 237.704 564.865 238.199C565.166 238.692 565.57 239.094 566.079 239.405C566.589 239.727 567.22 239.933 567.973 240.023C568.727 240.124 569.613 240.079 570.632 239.889L570.239 242.103C568.679 242.394 567.246 242.36 565.938 242C564.641 241.639 563.556 240.974 562.683 240.006C561.811 239.038 561.23 237.78 560.94 236.231ZM562.463 241.825L567.428 240.899L567.354 240.501L579.575 238.22L580.202 241.578L563.017 244.785L562.463 241.825Z" fill="#EFEFEF"/>
<path d="M564.93 257.104C564.685 254.992 564.951 253.217 565.729 251.78C566.507 250.342 567.726 249.375 569.384 248.879L570.315 252.258C569.439 252.577 568.784 253.153 568.348 253.985C567.925 254.828 567.78 255.828 567.915 256.985C568.037 258.036 568.347 258.831 568.844 259.371C569.343 259.921 569.967 260.153 570.717 260.066C571.157 260.015 571.498 259.867 571.741 259.621C571.996 259.385 572.208 258.921 572.378 258.227C572.547 257.534 572.735 256.486 572.941 255.082C573.154 253.547 573.429 252.315 573.766 251.385C574.115 250.464 574.563 249.782 575.109 249.339C575.667 248.904 576.369 248.638 577.216 248.54C578.267 248.418 579.216 248.59 580.063 249.057C580.91 249.524 581.607 250.236 582.153 251.194C582.7 252.162 583.053 253.327 583.211 254.689C583.365 256.018 583.294 257.227 582.997 258.315C582.7 259.403 582.203 260.314 581.506 261.046C580.819 261.778 579.969 262.268 578.955 262.516L577.928 259.148C578.75 258.933 579.364 258.465 579.769 257.744C580.174 257.024 580.337 256.13 580.256 255.064C580.181 254.041 579.913 253.235 579.454 252.648C579.005 252.059 578.448 251.803 577.784 251.88C577.398 251.925 577.085 252.081 576.844 252.348C576.605 252.625 576.402 253.127 576.237 253.852C576.071 254.578 575.896 255.641 575.711 257.042C575.505 258.543 575.222 259.75 574.861 260.661C574.51 261.57 574.04 262.244 573.45 262.682C572.871 263.13 572.138 263.405 571.248 263.508C569.533 263.707 568.114 263.236 566.993 262.095C565.873 260.965 565.185 259.301 564.93 257.104Z" fill="#EFEFEF"/>
<path d="M567.609 276.414L590.885 275.156L591.068 278.535L567.792 279.792L567.609 276.414Z" fill="#EFEFEF"/>
<path d="M568.527 298.911L577.12 299.143C577.799 299.161 578.497 299.12 579.212 299.021C579.938 298.933 580.612 298.735 581.236 298.428C581.859 298.132 582.368 297.697 582.761 297.125C583.154 296.563 583.363 295.819 583.388 294.891C583.405 294.287 583.318 293.712 583.127 293.167C582.948 292.623 582.642 292.14 582.211 291.718C581.78 291.307 581.206 290.973 580.489 290.716C579.773 290.47 578.896 290.333 577.861 290.305L578.711 288.223C580.296 288.265 581.685 288.6 582.878 289.226C584.081 289.852 585.007 290.73 585.656 291.859C586.306 292.989 586.609 294.341 586.567 295.916C586.534 297.124 586.312 298.133 585.902 298.942C585.491 299.752 584.961 300.401 584.311 300.891C583.671 301.392 582.975 301.767 582.224 302.017C581.472 302.267 580.739 302.43 580.024 302.508C579.31 302.586 578.683 302.618 578.143 302.603L568.434 302.341L568.527 298.911ZM568.86 286.629L586.336 287.1L586.254 290.126L581.205 289.99L581.194 290.395L568.767 290.059L568.86 286.629Z" fill="#EFEFEF"/>
<path d="M568.477 311.074L586.472 306.369L586.156 309.77L572.541 313.174L585.296 319.022L584.98 322.423L568.159 314.491L568.477 311.074Z" fill="#EFEFEF"/>
<path d="M566.095 332.547C566.381 330.833 567.005 329.389 567.968 328.215C568.939 327.053 570.155 326.222 571.618 325.722C573.089 325.235 574.713 325.139 576.491 325.436C578.375 325.751 579.95 326.375 581.216 327.308C582.481 328.252 583.385 329.421 583.929 330.813C584.473 332.206 584.604 333.743 584.323 335.425C584.03 337.181 583.37 338.609 582.344 339.706C581.328 340.806 580.02 341.534 578.417 341.89C576.813 342.257 574.989 342.204 572.946 341.732L573.504 338.395L574.717 338.598C576.722 338.91 578.265 338.774 579.348 338.189C580.429 337.614 581.095 336.571 581.348 335.06C581.627 333.389 581.311 332.045 580.397 331.028C579.484 330.011 578.032 329.337 576.042 329.005C574.147 328.688 572.608 328.864 571.424 329.53C570.251 330.199 569.532 331.326 569.267 332.912C569.092 333.955 569.176 334.894 569.518 335.728C569.869 336.574 570.451 337.284 571.263 337.857L569.678 340.957C568.247 340.028 567.219 338.812 566.595 337.308C565.982 335.805 565.815 334.218 566.095 332.547ZM575.281 327.762L577.884 328.196L575.826 340.506L573.223 340.071L575.281 327.762Z" fill="#EFEFEF"/>
<path d="M563.168 350.893C563.662 348.826 564.521 347.25 565.745 346.166C566.969 345.082 568.446 344.591 570.175 344.693L569.89 348.186C568.958 348.186 568.144 348.502 567.449 349.135C566.763 349.781 566.284 350.671 566.013 351.805C565.767 352.833 565.786 353.686 566.068 354.364C566.347 355.052 566.854 355.483 567.589 355.658C568.02 355.761 568.391 355.739 568.704 355.591C569.024 355.457 569.383 355.093 569.78 354.5C570.177 353.907 570.713 352.986 571.388 351.738C572.114 350.369 572.795 349.306 573.431 348.548C574.075 347.803 574.73 347.315 575.395 347.086C576.068 346.869 576.819 346.859 577.648 347.057C578.677 347.302 579.509 347.789 580.145 348.518C580.781 349.246 581.192 350.154 581.376 351.241C581.558 352.338 581.489 353.553 581.171 354.886C580.86 356.188 580.378 357.299 579.726 358.219C579.073 359.14 578.294 359.825 577.388 360.275C576.492 360.727 575.525 360.896 574.487 360.781L574.678 357.265C575.524 357.345 576.261 357.116 576.889 356.578C577.517 356.04 577.976 355.256 578.266 354.227C578.546 353.24 578.571 352.392 578.341 351.682C578.122 350.975 577.687 350.544 577.036 350.389C576.658 350.299 576.31 350.338 575.993 350.506C575.672 350.685 575.31 351.087 574.906 351.712C574.501 352.336 573.972 353.275 573.318 354.528C572.61 355.868 571.929 356.904 571.277 357.636C570.636 358.371 569.963 358.843 569.258 359.052C568.562 359.274 567.778 359.281 566.907 359.074C565.227 358.673 564.056 357.745 563.394 356.289C562.73 354.844 562.655 353.045 563.168 350.893Z" fill="#EFEFEF"/>
<path d="M558.085 373.117C558.191 372.001 558.409 370.94 558.74 369.935C559.071 368.93 559.535 368.083 560.133 367.393C560.731 366.703 561.478 366.271 562.373 366.096C563.174 365.939 563.936 365.95 564.659 366.13C565.39 366.323 566.211 366.555 567.121 366.823L581.947 371.202L580.983 374.462L566.312 370.129C565.64 369.93 565.053 369.763 564.554 369.627C564.051 369.501 563.599 369.485 563.2 369.581C562.448 369.764 561.906 370.246 561.574 371.025C561.249 371.818 561.002 372.786 560.833 373.929L558.085 373.117ZM575.632 365.843L578.24 366.613L574.852 378.069L572.244 377.299L575.632 365.843Z" fill="#EFEFEF"/>
<path d="M550.999 394.733L561.059 398.914C562.226 399.397 563.257 399.474 564.153 399.144C565.059 398.818 565.715 398.167 566.119 397.19C566.367 396.591 566.455 395.985 566.382 395.371C566.316 394.771 566.072 394.203 565.652 393.667C565.237 393.145 564.621 392.715 563.804 392.377L565.192 391.182C566.337 391.633 567.235 392.285 567.886 393.138C568.533 394.001 568.911 394.964 569.02 396.025C569.139 397.09 568.976 398.162 568.53 399.238C567.806 400.983 566.723 402.117 565.279 402.641C563.836 403.164 562.246 403.067 560.511 402.349L549.704 397.858L550.999 394.733ZM559.026 375.368L575.179 382.054L574.026 384.835L569.36 382.904L569.211 383.262L557.724 378.508L559.026 375.368ZM555.009 385.058L565.009 389.214C566.186 389.701 567.232 389.784 568.148 389.462C569.06 389.151 569.723 388.496 570.136 387.499C570.545 386.512 570.537 385.575 570.111 384.686C569.68 383.807 568.917 383.141 567.82 382.687L569.397 381.588C570.454 382.025 571.291 382.669 571.908 383.52C572.525 384.371 572.893 385.329 573.012 386.395C573.131 387.46 572.963 388.541 572.509 389.638C572.034 390.784 571.384 391.66 570.561 392.265C569.748 392.875 568.821 393.209 567.78 393.269C566.734 393.339 565.638 393.136 564.492 392.662L553.714 388.183L555.009 385.058Z" fill="#EFEFEF"/>
<path d="M544.155 410.14C544.938 408.588 545.964 407.395 547.231 406.56C548.504 405.739 549.913 405.307 551.458 405.264C553.007 405.235 554.587 405.626 556.196 406.437C557.902 407.297 559.221 408.36 560.153 409.628C561.08 410.904 561.596 412.288 561.702 413.78C561.807 415.271 561.476 416.778 560.708 418.3C559.905 419.89 558.851 421.056 557.545 421.8C556.249 422.548 554.782 422.855 553.146 422.719C551.506 422.593 549.78 422.001 547.968 420.943L549.493 417.923L550.591 418.477C552.413 419.37 553.927 419.699 555.135 419.461C556.338 419.234 557.285 418.436 557.975 417.068C558.738 415.555 558.835 414.178 558.265 412.936C557.695 411.694 556.509 410.619 554.707 409.711C552.992 408.846 551.47 408.557 550.141 408.842C548.822 409.132 547.801 409.995 547.076 411.43C546.6 412.374 546.401 413.295 546.48 414.193C546.563 415.105 546.908 415.956 547.513 416.744L545.078 419.233C543.987 417.922 543.367 416.455 543.219 414.834C543.08 413.217 543.392 411.652 544.155 410.14ZM554.35 408.298L556.706 409.486L551.083 420.628L548.727 419.44L554.35 408.298Z" fill="#EFEFEF"/>
<path d="M533.429 431.94L540.783 436.391C541.364 436.743 541.991 437.053 542.662 437.32C543.336 437.602 544.02 437.764 544.714 437.806C545.403 437.857 546.06 437.731 546.685 437.428C547.305 437.134 547.855 436.591 548.336 435.797C548.649 435.28 548.858 434.738 548.962 434.171C549.076 433.609 549.05 433.038 548.884 432.458C548.712 431.887 548.379 431.313 547.883 430.736C547.382 430.168 546.688 429.615 545.802 429.079L547.572 427.69C548.929 428.512 549.97 429.489 550.697 430.622C551.432 431.761 551.803 432.982 551.808 434.285C551.814 435.587 551.408 436.912 550.591 438.26C549.965 439.293 549.273 440.06 548.515 440.56C547.758 441.061 546.975 441.363 546.167 441.467C545.364 441.586 544.573 441.568 543.796 441.413C543.019 441.258 542.301 441.038 541.641 440.752C540.982 440.466 540.421 440.184 539.959 439.904L531.651 434.875L533.429 431.94ZM539.798 421.433L554.754 430.486L553.185 433.075L548.865 430.46L548.655 430.806L538.019 424.368L539.798 421.433Z" fill="#EFEFEF"/>
<path d="M524.448 446.457C524.884 445.423 525.41 444.477 526.028 443.618C526.646 442.759 527.343 442.09 528.121 441.611C528.898 441.133 529.741 440.945 530.647 441.047C531.458 441.137 532.182 441.377 532.818 441.766C533.457 442.169 534.17 442.636 534.958 443.166L547.787 451.792L545.888 454.612L533.194 446.076C532.612 445.684 532.103 445.349 531.667 445.069C531.225 444.797 530.799 444.648 530.389 444.619C529.617 444.568 528.955 444.864 528.404 445.508C527.856 446.167 527.33 447.016 526.826 448.055L524.448 446.457ZM543.372 444.785L545.628 446.303L538.956 456.212L536.699 454.694L543.372 444.785Z" fill="#EFEFEF"/>
<path d="M508.026 469.985L524.928 486.037L518.435 492.864C518.279 493.028 518.078 493.224 517.832 493.451C517.593 493.686 517.351 493.895 517.103 494.077C516.062 494.874 514.997 495.351 513.91 495.508C512.814 495.674 511.742 495.556 510.693 495.155C509.645 494.755 508.666 494.123 507.759 493.261C506.843 492.392 506.159 491.444 505.705 490.418C505.251 489.392 505.079 488.328 505.188 487.226C505.29 486.132 505.713 485.046 506.457 483.966C506.634 483.717 506.834 483.461 507.056 483.195C507.271 482.938 507.453 482.731 507.601 482.575L511.763 478.2L505.694 472.437L508.026 469.985ZM514.087 480.407L510.015 484.688C509.866 484.845 509.71 485.024 509.547 485.227C509.377 485.437 509.23 485.647 509.105 485.856C508.747 486.468 508.579 487.075 508.602 487.677C508.633 488.287 508.792 488.855 509.08 489.382C509.369 489.909 509.72 490.369 510.135 490.763C510.55 491.157 511.024 491.48 511.557 491.734C512.098 491.995 512.67 492.122 513.273 492.114C513.884 492.114 514.486 491.919 515.08 491.53C515.29 491.402 515.496 491.248 515.698 491.068C515.892 490.895 516.064 490.73 516.212 490.574L520.284 486.293L514.087 480.407Z" fill="#EFEFEF"/>
<path d="M489.676 488.866C490.631 487.991 491.592 487.434 492.557 487.193C493.53 486.961 494.45 486.982 495.317 487.256C496.183 487.546 496.937 488.041 497.579 488.741C498.177 489.393 498.586 490.071 498.808 490.776C499.029 491.48 499.07 492.211 498.93 492.969C498.797 493.734 498.499 494.527 498.035 495.346C497.615 496.038 497.102 496.779 496.494 497.57C495.887 498.36 495.236 499.175 494.542 500.016C493.84 500.863 493.147 501.703 492.461 502.536L492.909 501.204C493.819 502.229 494.72 502.78 495.61 502.857C496.5 502.949 497.482 502.503 498.557 501.519C499.233 500.9 499.708 500.172 499.982 499.337C500.262 498.509 500.182 497.631 499.741 496.703L502.726 495.287C503.421 496.685 503.622 498.117 503.329 499.586C503.028 501.061 502.133 502.481 500.644 503.844C499.49 504.9 498.305 505.62 497.089 506.002C495.872 506.399 494.674 506.355 493.496 505.868C492.902 505.636 492.367 505.307 491.889 504.882C491.41 504.456 490.923 503.973 490.427 503.432L483.152 495.499L485.36 493.476L488.063 496.423L487.283 496.435C486.912 494.96 486.918 493.601 487.3 492.358C487.682 491.13 488.474 489.966 489.676 488.866ZM491.105 491.31C490.397 491.959 489.901 492.64 489.618 493.353C489.342 494.074 489.228 494.771 489.275 495.445C489.322 496.119 489.491 496.71 489.782 497.219C489.996 497.725 490.315 498.224 490.736 498.716C491.15 499.215 491.488 499.607 491.751 499.894L490.666 500.339C491.344 499.498 491.962 498.735 492.519 498.049C493.076 497.363 493.574 496.732 494.011 496.156C494.449 495.594 494.812 495.064 495.101 494.565C495.334 494.133 495.509 493.709 495.626 493.294C495.736 492.887 495.761 492.491 495.701 492.106C495.633 491.729 495.443 491.37 495.129 491.028C494.823 490.694 494.455 490.46 494.025 490.327C493.603 490.201 493.144 490.212 492.648 490.358C492.153 490.505 491.639 490.822 491.105 491.31Z" fill="#EFEFEF"/>
<path d="M472.346 505.079C473.057 504.211 473.83 503.453 474.666 502.804C475.502 502.156 476.361 501.712 477.242 501.474C478.124 501.236 478.985 501.294 479.825 501.65C480.577 501.966 481.203 502.401 481.703 502.954C482.201 503.523 482.753 504.173 483.358 504.904L493.213 516.815L490.592 518.98L480.841 507.194C480.393 506.654 480.001 506.187 479.662 505.795C479.315 505.41 478.949 505.145 478.564 505.001C477.838 504.733 477.12 504.83 476.409 505.291C475.697 505.768 474.951 506.433 474.172 507.286L472.346 505.079ZM490.967 508.844L492.7 510.939L483.491 518.548L481.757 516.453L490.967 508.844Z" fill="#EFEFEF"/>
<path d="M470.542 506.894L481.087 520.838L478.685 522.652L476.127 519.27L476.794 519.455C476.961 520.033 477.046 520.61 477.05 521.189C477.061 521.776 476.977 522.326 476.797 522.84C476.64 523.365 476.397 523.859 476.071 524.322C475.742 524.8 475.36 525.224 474.923 525.595C474.492 525.974 474.037 526.284 473.556 526.525L471.643 523.994C472.19 523.77 472.724 523.421 473.245 522.947C473.757 522.479 474.132 521.919 474.369 521.266C474.593 520.65 474.682 520.043 474.634 519.443C474.578 518.85 474.417 518.262 474.152 517.678C473.892 517.103 473.555 516.54 473.138 515.989L467.817 508.952L470.542 506.894Z" fill="#EFEFEF"/>
<path d="M454.453 518.636C455.925 517.693 457.414 517.206 458.921 517.176C460.428 517.146 461.85 517.523 463.186 518.307C464.52 519.105 465.676 520.268 466.656 521.793C467.641 523.328 468.207 524.869 468.353 526.416C468.506 527.972 468.248 529.419 467.581 530.756C466.919 532.103 465.866 533.24 464.422 534.166C462.95 535.109 461.461 535.596 459.954 535.626C458.447 535.656 457.025 535.279 455.689 534.495C454.352 533.711 453.197 532.561 452.223 531.044C451.238 529.509 450.669 527.964 450.517 526.408C450.361 524.867 450.611 523.419 451.267 522.063C451.928 520.716 452.99 519.574 454.453 518.636ZM456.176 521.32C454.768 522.222 454.021 523.367 453.937 524.754C453.85 526.156 454.287 527.606 455.249 529.105C456.234 530.64 457.375 531.639 458.673 532.102C459.967 532.58 461.309 532.373 462.699 531.482C463.653 530.871 464.299 530.149 464.637 529.317C464.981 528.494 465.058 527.605 464.868 526.65C464.684 525.704 464.271 524.732 463.63 523.733C462.639 522.189 461.492 521.181 460.189 520.709C458.885 520.237 457.548 520.44 456.176 521.32Z" fill="#EFEFEF"/>
<path d="M433.032 532.69L437.102 540.261C437.424 540.86 437.806 541.445 438.248 542.016C438.685 542.602 439.192 543.089 439.769 543.477C440.336 543.871 440.966 544.097 441.658 544.154C442.341 544.216 443.091 544.027 443.909 543.588C444.441 543.302 444.896 542.942 445.275 542.506C445.658 542.079 445.926 541.574 446.078 540.991C446.22 540.412 446.224 539.748 446.091 538.999C445.948 538.255 445.632 537.427 445.141 536.514L447.371 536.218C448.122 537.615 448.522 538.986 448.572 540.331C448.626 541.686 448.325 542.926 447.668 544.051C447.01 545.175 445.987 546.11 444.599 546.855C443.534 547.427 442.549 547.736 441.642 547.782C440.735 547.827 439.908 547.69 439.16 547.369C438.407 547.063 437.735 546.645 437.145 546.117C436.555 545.589 436.048 545.034 435.625 544.453C435.202 543.871 434.863 543.343 434.608 542.868L430.008 534.313L433.032 532.69ZM443.857 526.879L452.135 542.277L449.468 543.708L447.077 539.26L446.72 539.451L440.833 528.502L443.857 526.879Z" fill="#EFEFEF"/>
<path d="M419.379 539.729C420.485 539.242 421.492 539.011 422.399 539.036C423.306 539.061 424.123 539.256 424.85 539.619C425.571 539.998 426.205 540.473 426.753 541.046C427.3 541.618 427.762 542.211 428.138 542.823C428.514 543.436 428.811 543.989 429.029 544.483L432.948 553.369L429.807 554.752L426.339 546.888C426.065 546.266 425.732 545.646 425.342 545.027C424.946 544.424 424.481 543.903 423.946 543.467C423.401 543.034 422.791 542.761 422.115 542.645C421.43 542.535 420.662 542.666 419.813 543.04C419.26 543.284 418.775 543.603 418.36 543.999C417.949 544.404 417.65 544.889 417.463 545.455C417.266 546.025 417.21 546.686 417.294 547.439C417.369 548.197 417.615 549.049 418.033 549.997L415.787 550.119C415.147 548.668 414.852 547.265 414.904 545.91C414.959 544.565 415.358 543.357 416.101 542.287C416.844 541.217 417.937 540.364 419.379 539.729ZM414.279 542.488L416.317 547.109L416.687 546.946L421.704 558.321L418.578 559.697L411.524 543.701L414.279 542.488Z" fill="#EFEFEF"/>
<path d="M400.728 548.072C402.727 547.348 404.515 547.199 406.094 547.626C407.672 548.053 408.894 549.017 409.759 550.517L406.684 552.199C406.172 551.42 405.461 550.914 404.55 550.682C403.633 550.463 402.626 550.552 401.53 550.949C400.536 551.309 399.833 551.793 399.422 552.401C399.001 553.013 398.92 553.674 399.177 554.384C399.328 554.8 399.551 555.098 399.846 555.278C400.134 555.472 400.635 555.572 401.349 555.577C402.063 555.583 403.127 555.524 404.54 555.403C406.083 555.257 407.346 555.242 408.329 555.356C409.305 555.485 410.072 555.764 410.63 556.193C411.181 556.636 411.602 557.258 411.892 558.06C412.253 559.054 412.304 560.017 412.045 560.949C411.786 561.88 411.253 562.722 410.446 563.473C409.63 564.228 408.577 564.839 407.288 565.305C406.03 565.761 404.837 565.969 403.709 565.93C402.582 565.891 401.581 565.616 400.707 565.106C399.837 564.607 399.165 563.892 398.69 562.962L401.731 561.189C402.13 561.94 402.727 562.43 403.521 562.658C404.316 562.887 405.223 562.84 406.242 562.516C407.221 562.208 407.943 561.763 408.41 561.181C408.879 560.609 409 560.008 408.772 559.379C408.64 559.014 408.416 558.745 408.101 558.572C407.775 558.403 407.24 558.321 406.496 558.327C405.752 558.332 404.677 558.406 403.271 558.548C401.762 558.693 400.522 558.694 399.552 558.552C398.586 558.42 397.822 558.117 397.26 557.643C396.691 557.184 396.254 556.533 395.949 555.691C395.36 554.067 395.492 552.579 396.344 551.226C397.187 549.877 398.648 548.825 400.728 548.072Z" fill="#EFEFEF"/>
<path d="M381.571 555.428L388.098 577.806L384.849 578.752L378.323 556.374L381.571 555.428Z" fill="#EFEFEF"/>
<path d="M360.98 561.148L362.721 569.566C362.858 570.232 363.057 570.901 363.318 571.575C363.57 572.261 363.917 572.873 364.358 573.41C364.789 573.949 365.329 574.344 365.976 574.596C366.612 574.851 367.385 574.884 368.294 574.696C368.886 574.574 369.425 574.358 369.912 574.048C370.401 573.749 370.802 573.341 371.114 572.825C371.415 572.311 371.609 571.676 371.695 570.92C371.771 570.166 371.704 569.281 371.494 568.267L373.715 568.618C374.037 570.172 374.029 571.6 373.692 572.904C373.358 574.218 372.715 575.321 371.765 576.211C370.814 577.102 369.567 577.706 368.024 578.025C366.84 578.269 365.807 578.284 364.925 578.069C364.043 577.855 363.29 577.487 362.664 576.966C362.03 576.458 361.505 575.866 361.09 575.192C360.675 574.517 360.348 573.841 360.109 573.163C359.87 572.485 359.695 571.882 359.586 571.354L357.619 561.842L360.98 561.148ZM373.013 558.664L376.553 575.784L373.588 576.397L372.565 571.451L372.169 571.532L369.652 559.358L373.013 558.664Z" fill="#EFEFEF"/>
<path d="M347.86 564.081L356.5 580.552L353.115 581.011L346.73 568.514L343.908 582.259L340.523 582.718L344.459 564.542L347.86 564.081Z" fill="#EFEFEF"/>
<path d="M327.512 566.441C329.245 566.328 330.794 566.605 332.157 567.272C333.51 567.951 334.598 568.945 335.419 570.254C336.231 571.574 336.695 573.133 336.814 574.932C336.939 576.838 336.692 578.514 336.073 579.961C335.444 581.408 334.514 582.556 333.282 583.404C332.051 584.253 330.585 584.733 328.884 584.845C327.107 584.962 325.567 584.646 324.263 583.899C322.96 583.163 321.952 582.055 321.238 580.577C320.514 579.1 320.147 577.313 320.139 575.215L323.515 574.993L323.596 576.221C323.751 578.244 324.237 579.715 325.054 580.635C325.861 581.555 327.029 581.965 328.558 581.865C330.249 581.754 331.484 581.138 332.265 580.016C333.045 578.894 333.37 577.326 333.237 575.312C333.111 573.396 332.588 571.938 331.668 570.938C330.749 569.949 329.487 569.508 327.882 569.613C326.827 569.682 325.933 569.979 325.199 570.503C324.456 571.038 323.898 571.767 323.526 572.689L320.146 571.857C320.722 570.251 321.67 568.972 322.992 568.02C324.314 567.079 325.821 566.552 327.512 566.441ZM334.273 574.287L334.446 576.92L321.992 577.738L321.819 575.105L334.273 574.287Z" fill="#EFEFEF"/>
</svg>
